<?xml version="1.0" encoding="utf-8"?>
<!-- Generator: Adobe Illustrator 26.4.1, SVG Export Plug-In . SVG Version: 6.00 Build 0)  -->
<svg version="1.1" id="Layer_1" xmlns="http://www.w3.org/2000/svg" xmlns:xlink="http://www.w3.org/1999/xlink" x="0px" y="0px"
	 viewBox="0 0 1190.6 841.9" style="enable-background:new 0 0 1190.6 841.9;" xml:space="preserve">
<style type="text/css">
	.st0{fill-rule:evenodd;clip-rule:evenodd;}
	.st1{fill:none;stroke:#000000;stroke-width:0.25;stroke-linecap:round;stroke-linejoin:round;}
</style>
<g>
	<g>
		<polyline class="st0" points="561,359.7 620.8,394.4 605,421.6 545.2,387 561,359.7 		"/>
		<line class="st1" x1="561" y1="359.7" x2="620.8" y2="394.4"/>
		<line class="st1" x1="620.8" y1="394.4" x2="605" y2="421.6"/>
		<line class="st1" x1="605" y1="421.6" x2="545.2" y2="387"/>
		<line class="st1" x1="545.2" y1="387" x2="561" y2="359.7"/>
		<line class="st1" x1="673.7" y1="396.1" x2="699.2" y2="339.9"/>
		<line class="st1" x1="699.2" y1="339.9" x2="749.5" y2="362.7"/>
		<line class="st1" x1="749.5" y1="362.7" x2="741.7" y2="380"/>
		<line class="st1" x1="741.7" y1="380" x2="709.4" y2="365.4"/>
		<line class="st1" x1="709.4" y1="365.4" x2="691.8" y2="404.3"/>
		<line class="st1" x1="691.8" y1="404.3" x2="673.7" y2="396.1"/>
		<line class="st1" x1="468.5" y1="490.4" x2="495.3" y2="444.3"/>
		<line class="st1" x1="495.3" y1="444.3" x2="510.7" y2="453.3"/>
		<line class="st1" x1="510.7" y1="453.3" x2="515" y2="446"/>
		<line class="st1" x1="515" y1="446" x2="567.5" y2="476.5"/>
		<line class="st1" x1="567.5" y1="476.5" x2="563.2" y2="483.8"/>
		<line class="st1" x1="563.2" y1="483.8" x2="578.2" y2="492.5"/>
		<line class="st1" x1="578.2" y1="492.5" x2="551.4" y2="538.6"/>
		<line class="st1" x1="551.4" y1="538.6" x2="468.5" y2="490.4"/>
		<line class="st1" x1="570.9" y1="562.9" x2="632.8" y2="599.5"/>
		<line class="st1" x1="632.8" y1="599.5" x2="622.4" y2="617.1"/>
		<line class="st1" x1="622.4" y1="617.1" x2="560.5" y2="580.5"/>
		<line class="st1" x1="560.5" y1="580.5" x2="570.9" y2="562.9"/>
		<line class="st1" x1="449.7" y1="296.8" x2="489.9" y2="319.1"/>
		<line class="st1" x1="489.9" y1="319.1" x2="485.2" y2="327.6"/>
		<line class="st1" x1="485.2" y1="327.6" x2="515.3" y2="344.3"/>
		<line class="st1" x1="515.3" y1="344.3" x2="493.8" y2="383.2"/>
		<line class="st1" x1="493.8" y1="383.2" x2="479.9" y2="375.5"/>
		<line class="st1" x1="479.9" y1="375.5" x2="482.6" y2="370.7"/>
		<line class="st1" x1="482.6" y1="370.7" x2="466.4" y2="361.7"/>
		<line class="st1" x1="466.4" y1="361.7" x2="461.1" y2="371.2"/>
		<line class="st1" x1="461.1" y1="371.2" x2="432.7" y2="355.5"/>
		<line class="st1" x1="432.7" y1="355.5" x2="438" y2="346"/>
		<line class="st1" x1="438" y1="346" x2="426.1" y2="339.4"/>
		<line class="st1" x1="426.1" y1="339.4" x2="449.7" y2="296.8"/>
		<line class="st1" x1="494.2" y1="319.1" x2="513" y2="331.1"/>
		<line class="st1" x1="513" y1="331.1" x2="582.7" y2="239.1"/>
		<line class="st1" x1="582.7" y1="239.1" x2="562.3" y2="229"/>
		<line class="st1" x1="562.3" y1="229" x2="494.2" y2="319.1"/>
		<line class="st1" x1="562.3" y1="229" x2="591.8" y2="189.9"/>
		<line class="st1" x1="591.8" y1="189.9" x2="672.7" y2="223.9"/>
		<line class="st1" x1="672.7" y1="223.9" x2="642.5" y2="295.9"/>
		<line class="st1" x1="642.5" y1="295.9" x2="600.8" y2="271.1"/>
		<line class="st1" x1="600.8" y1="271.1" x2="609.9" y2="250.7"/>
		<line class="st1" x1="609.9" y1="250.7" x2="582.7" y2="239.1"/>
		<line class="st1" x1="582.7" y1="239.1" x2="562.3" y2="229"/>
		<line class="st1" x1="679.2" y1="227.2" x2="669.8" y2="250.9"/>
		<line class="st1" x1="669.8" y1="250.9" x2="690.5" y2="259.2"/>
		<line class="st1" x1="690.5" y1="259.2" x2="700" y2="235.4"/>
		<line class="st1" x1="700" y1="235.4" x2="679.2" y2="227.2"/>
		<line class="st1" x1="690.5" y1="259.2" x2="700" y2="235.4"/>
		<line class="st1" x1="700" y1="235.4" x2="757.8" y2="258.4"/>
		<line class="st1" x1="757.8" y1="258.4" x2="748.3" y2="282.2"/>
		<line class="st1" x1="748.3" y1="282.2" x2="690.5" y2="259.2"/>
		<line class="st1" x1="719.5" y1="327.7" x2="727.5" y2="310.8"/>
		<line class="st1" x1="727.5" y1="310.8" x2="735.4" y2="314.6"/>
		<line class="st1" x1="735.4" y1="314.6" x2="727.4" y2="331.5"/>
		<line class="st1" x1="727.4" y1="331.5" x2="719.5" y2="327.7"/>
		<line class="st1" x1="752.9" y1="336.1" x2="764.6" y2="341.5"/>
		<line class="st1" x1="764.6" y1="341.5" x2="762.2" y2="346.8"/>
		<line class="st1" x1="762.2" y1="346.8" x2="750.5" y2="341.4"/>
		<line class="st1" x1="750.5" y1="341.4" x2="752.9" y2="336.1"/>
		<line class="st1" x1="772.5" y1="351.1" x2="775.9" y2="341.5"/>
		<line class="st1" x1="775.9" y1="341.5" x2="788.2" y2="345.8"/>
		<line class="st1" x1="788.2" y1="345.8" x2="801.9" y2="298.1"/>
		<line class="st1" x1="801.9" y1="298.1" x2="822" y2="304"/>
		<line class="st1" x1="822" y1="304" x2="819.2" y2="313.9"/>
		<line class="st1" x1="819.2" y1="313.9" x2="827.7" y2="316.3"/>
		<line class="st1" x1="827.7" y1="316.3" x2="813.8" y2="368"/>
		<line class="st1" x1="813.8" y1="368" x2="772.5" y2="351.1"/>
		<line class="st1" x1="270.4" y1="50" x2="160.8" y2="183.2"/>
		<line class="st1" x1="160.8" y1="183.2" x2="333.8" y2="327.4"/>
		<line class="st1" x1="333.8" y1="327.4" x2="340.9" y2="318.9"/>
		<line class="st1" x1="340.9" y1="318.9" x2="345.5" y2="321.2"/>
		<line class="st1" x1="345.5" y1="321.2" x2="350.5" y2="322.8"/>
		<line class="st1" x1="350.5" y1="322.8" x2="355.7" y2="323.6"/>
		<line class="st1" x1="355.7" y1="323.6" x2="360.9" y2="323.6"/>
		<line class="st1" x1="360.9" y1="323.6" x2="366.1" y2="322.9"/>
		<line class="st1" x1="366.1" y1="322.9" x2="371.1" y2="321.3"/>
		<line class="st1" x1="371.1" y1="321.3" x2="375.8" y2="319.1"/>
		<line class="st1" x1="375.8" y1="319.1" x2="380.2" y2="316.1"/>
		<line class="st1" x1="380.2" y1="316.1" x2="384" y2="312.6"/>
		<line class="st1" x1="384" y1="312.6" x2="393" y2="317.8"/>
		<line class="st1" x1="393" y1="317.8" x2="509.8" y2="119.6"/>
		<line class="st1" x1="509.8" y1="119.6" x2="470.6" y2="94.8"/>
		<line class="st1" x1="470.6" y1="94.8" x2="366.3" y2="273.1"/>
		<line class="st1" x1="366.3" y1="273.1" x2="342.1" y2="275.7"/>
		<line class="st1" x1="342.1" y1="275.7" x2="217.4" y2="174.3"/>
		<line class="st1" x1="217.4" y1="174.3" x2="299.2" y2="73.8"/>
		<line class="st1" x1="299.2" y1="73.8" x2="270.4" y2="50"/>
		<line class="st1" x1="484.5" y1="0.1" x2="498.1" y2="23.8"/>
		<line class="st1" x1="498.1" y1="23.8" x2="495.6" y2="33.1"/>
		<line class="st1" x1="495.6" y1="33.1" x2="544" y2="61.1"/>
		<line class="st1" x1="544" y1="61.1" x2="520.9" y2="101"/>
		<line class="st1" x1="520.9" y1="101" x2="480.8" y2="77.5"/>
		<line class="st1" x1="480.8" y1="77.5" x2="470.6" y2="94.8"/>
		<line class="st1" x1="470.6" y1="94.8" x2="469.9" y2="96"/>
		<line class="st1" x1="469.9" y1="96" x2="448.1" y2="133.2"/>
		<line class="st1" x1="448.1" y1="133.2" x2="281.1" y2="35.5"/>
		<line class="st1" x1="281.1" y1="35.5" x2="310.9" y2="0.1"/>
		<line class="st1" x1="369.9" y1="0.1" x2="369.9" y2="0.1"/>
		<line class="st1" x1="428.8" y1="0.1" x2="453.4" y2="42.9"/>
		<line class="st1" x1="453.4" y1="42.9" x2="451.2" y2="48.9"/>
		<line class="st1" x1="451.2" y1="48.9" x2="369.9" y2="0.1"/>
		<line class="st1" x1="667.9" y1="62.4" x2="694.9" y2="72.4"/>
		<line class="st1" x1="694.9" y1="72.4" x2="688.7" y2="89.1"/>
		<line class="st1" x1="688.7" y1="89.1" x2="864.1" y2="165.4"/>
		<line class="st1" x1="864.1" y1="165.4" x2="853.8" y2="208.9"/>
		<line class="st1" x1="853.8" y1="208.9" x2="637.9" y2="118.4"/>
		<line class="st1" x1="637.9" y1="118.4" x2="654.1" y2="93.5"/>
		<line class="st1" x1="654.1" y1="93.5" x2="667.9" y2="62.4"/>
		<line class="st1" x1="689.7" y1="57.9" x2="812.3" y2="107.7"/>
		<line class="st1" x1="812.3" y1="107.7" x2="824" y2="78.7"/>
		<line class="st1" x1="824" y1="78.7" x2="701.4" y2="29"/>
		<line class="st1" x1="701.4" y1="29" x2="689.7" y2="57.9"/>
		<line class="st1" x1="844" y1="451.7" x2="905.2" y2="489"/>
		<line class="st1" x1="905.2" y1="489" x2="921.6" y2="462.1"/>
		<line class="st1" x1="921.6" y1="462.1" x2="860.4" y2="424.8"/>
		<line class="st1" x1="860.4" y1="424.8" x2="844" y2="451.7"/>
		<line class="st1" x1="915.1" y1="501.5" x2="960.9" y2="530.3"/>
		<line class="st1" x1="960.9" y1="530.3" x2="970.9" y2="514.5"/>
		<line class="st1" x1="970.9" y1="514.5" x2="925.1" y2="485.6"/>
		<line class="st1" x1="925.1" y1="485.6" x2="915.1" y2="501.5"/>
		<line class="st1" x1="973.8" y1="532.8" x2="1035.5" y2="571.6"/>
		<line class="st1" x1="1035.5" y1="571.6" x2="1052" y2="545.4"/>
		<line class="st1" x1="1052" y1="545.4" x2="990.3" y2="506.6"/>
		<line class="st1" x1="990.3" y1="506.6" x2="973.8" y2="532.8"/>
		<line class="st1" x1="1011.9" y1="246.3" x2="958.2" y2="341.3"/>
		<line class="st1" x1="958.2" y1="341.3" x2="973.7" y2="350.1"/>
		<line class="st1" x1="973.7" y1="350.1" x2="1027.4" y2="255.1"/>
		<line class="st1" x1="1027.4" y1="255.1" x2="1011.9" y2="246.3"/>
		<line class="st1" x1="1017.4" y1="237.9" x2="1043.2" y2="192.6"/>
		<line class="st1" x1="1043.2" y1="192.6" x2="1057.6" y2="200.8"/>
		<line class="st1" x1="1057.6" y1="200.8" x2="1031.8" y2="246.1"/>
		<line class="st1" x1="1031.8" y1="246.1" x2="1017.4" y2="237.9"/>
		<line class="st1" x1="1031.8" y1="200.6" x2="981.5" y2="179.7"/>
		<line class="st1" x1="981.5" y1="179.7" x2="989.1" y2="161.6"/>
		<line class="st1" x1="989.1" y1="161.6" x2="1039.3" y2="182.4"/>
		<line class="st1" x1="1039.3" y1="182.4" x2="1031.8" y2="200.6"/>
		<line class="st1" x1="926.8" y1="133.4" x2="904.9" y2="182.7"/>
		<line class="st1" x1="904.9" y1="182.7" x2="938.5" y2="197.6"/>
		<line class="st1" x1="938.5" y1="197.6" x2="960.4" y2="148.4"/>
		<line class="st1" x1="960.4" y1="148.4" x2="926.8" y2="133.4"/>
		<line class="st1" x1="1039.7" y1="124.1" x2="1093.9" y2="157.4"/>
		<line class="st1" x1="1093.9" y1="157.4" x2="1111.3" y2="129.1"/>
		<line class="st1" x1="1111.3" y1="129.1" x2="1057.1" y2="95.8"/>
		<line class="st1" x1="1057.1" y1="95.8" x2="1039.7" y2="124.1"/>
		<line class="st1" x1="923.3" y1="712.3" x2="1039.7" y2="620.3"/>
		<line class="st1" x1="1039.7" y1="620.3" x2="1074.1" y2="663.9"/>
		<line class="st1" x1="1074.1" y1="663.9" x2="957.7" y2="755.9"/>
		<line class="st1" x1="957.7" y1="755.9" x2="923.3" y2="712.3"/>
		<line class="st1" x1="877.7" y1="332.3" x2="854" y2="370.9"/>
		<line class="st1" x1="854" y1="370.9" x2="897.9" y2="397.7"/>
		<line class="st1" x1="897.9" y1="397.7" x2="921.5" y2="359.2"/>
		<line class="st1" x1="921.5" y1="359.2" x2="877.7" y2="332.3"/>
		<line class="st1" x1="956.2" y1="439.1" x2="978.7" y2="401.1"/>
		<line class="st1" x1="978.7" y1="401.1" x2="1019.4" y2="425.1"/>
		<line class="st1" x1="1019.4" y1="425.1" x2="996.9" y2="463.1"/>
		<line class="st1" x1="996.9" y1="463.1" x2="956.2" y2="439.1"/>
		<line class="st1" x1="905.7" y1="206.1" x2="887" y2="253.4"/>
		<line class="st1" x1="887" y1="253.4" x2="891.5" y2="267.2"/>
		<line class="st1" x1="891.5" y1="267.2" x2="920.5" y2="280.3"/>
		<line class="st1" x1="920.5" y1="280.3" x2="946.8" y2="222.3"/>
		<line class="st1" x1="946.8" y1="222.3" x2="905.7" y2="206.1"/>
		<line class="st1" x1="967.3" y1="38.7" x2="938.7" y2="101.3"/>
		<line class="st1" x1="938.7" y1="101.3" x2="964.9" y2="113.3"/>
		<line class="st1" x1="964.9" y1="113.3" x2="993.5" y2="50.7"/>
		<line class="st1" x1="993.5" y1="50.7" x2="967.3" y2="38.7"/>
		<line class="st1" x1="1096" y1="311.8" x2="1140" y2="233.5"/>
		<line class="st1" x1="1140" y1="233.5" x2="1105.5" y2="214.2"/>
		<line class="st1" x1="1105.5" y1="214.2" x2="1061.6" y2="292.5"/>
		<line class="st1" x1="1061.6" y1="292.5" x2="1096" y2="311.8"/>
		<line class="st1" x1="1081.8" y1="463.2" x2="1058.7" y2="502.2"/>
		<line class="st1" x1="1058.7" y1="502.2" x2="1098" y2="525.6"/>
		<line class="st1" x1="1098" y1="525.6" x2="1121.2" y2="486.6"/>
		<line class="st1" x1="1121.2" y1="486.6" x2="1081.8" y2="463.2"/>
		<line class="st1" x1="1078.1" y1="588.5" x2="1112.5" y2="559.4"/>
		<line class="st1" x1="1112.5" y1="559.4" x2="1142.6" y2="595"/>
		<line class="st1" x1="1142.6" y1="595" x2="1108.2" y2="624.1"/>
		<line class="st1" x1="1108.2" y1="624.1" x2="1078.1" y2="588.5"/>
		<line class="st1" x1="766" y1="653.2" x2="814.4" y2="571.1"/>
		<line class="st1" x1="814.4" y1="571.1" x2="808.7" y2="567.7"/>
		<line class="st1" x1="808.7" y1="567.7" x2="837.2" y2="519.4"/>
		<line class="st1" x1="837.2" y1="519.4" x2="920.2" y2="568.4"/>
		<line class="st1" x1="920.2" y1="568.4" x2="843.2" y2="698.8"/>
		<line class="st1" x1="843.2" y1="698.8" x2="766" y2="653.2"/>
		<line class="st1" x1="766" y1="653.2" x2="707.2" y2="725.9"/>
		<line class="st1" x1="707.2" y1="725.9" x2="603.7" y2="841.9"/>
		<line class="st1" x1="658.9" y1="841.9" x2="667.9" y2="828"/>
		<line class="st1" x1="667.9" y1="828" x2="674.5" y2="832.3"/>
		<line class="st1" x1="674.5" y1="832.3" x2="701.3" y2="799.2"/>
		<line class="st1" x1="701.3" y1="799.2" x2="737.5" y2="826.2"/>
		<line class="st1" x1="737.5" y1="826.2" x2="753" y2="805.6"/>
		<line class="st1" x1="753" y1="805.6" x2="760.9" y2="811.5"/>
		<line class="st1" x1="760.9" y1="811.5" x2="833.7" y2="693.2"/>
		<line class="st1" x1="833.7" y1="693.2" x2="766" y2="653.2"/>
		<line class="st1" x1="753.8" y1="422.5" x2="746.8" y2="439.7"/>
		<line class="st1" x1="746.8" y1="439.7" x2="767.8" y2="448.3"/>
		<line class="st1" x1="767.8" y1="448.3" x2="770.7" y2="441.1"/>
		<line class="st1" x1="770.7" y1="441.1" x2="792.6" y2="450"/>
		<line class="st1" x1="792.6" y1="450" x2="795.5" y2="439.5"/>
		<line class="st1" x1="795.5" y1="439.5" x2="753.8" y2="422.5"/>
		<line class="st1" x1="14.7" y1="358.9" x2="95.2" y2="261.4"/>
		<line class="st1" x1="95.2" y1="261.4" x2="139.1" y2="255.9"/>
		<line class="st1" x1="139.1" y1="255.9" x2="254.5" y2="347.1"/>
		<line class="st1" x1="254.5" y1="347.1" x2="225.6" y2="383.7"/>
		<line class="st1" x1="225.6" y1="383.7" x2="213" y2="373.7"/>
		<line class="st1" x1="213" y1="373.7" x2="138.5" y2="462.7"/>
		<line class="st1" x1="138.5" y1="462.7" x2="14.7" y2="358.9"/>
		<line class="st1" x1="239.6" y1="393.5" x2="268.1" y2="360.5"/>
		<line class="st1" x1="268.1" y1="360.5" x2="328.2" y2="409.2"/>
		<line class="st1" x1="328.2" y1="409.2" x2="331.2" y2="426"/>
		<line class="st1" x1="331.2" y1="426" x2="169.4" y2="697.2"/>
		<line class="st1" x1="169.4" y1="697.2" x2="79.6" y2="607.4"/>
		<line class="st1" x1="79.6" y1="607.4" x2="163.3" y2="504.5"/>
		<line class="st1" x1="163.3" y1="504.5" x2="191.2" y2="527.3"/>
		<line class="st1" x1="191.2" y1="527.3" x2="148.8" y2="579.5"/>
		<line class="st1" x1="148.8" y1="579.5" x2="154.8" y2="584.3"/>
		<line class="st1" x1="154.8" y1="584.3" x2="142.6" y2="601.7"/>
		<line class="st1" x1="142.6" y1="601.7" x2="158.3" y2="619.1"/>
		<line class="st1" x1="158.3" y1="619.1" x2="215.6" y2="525.9"/>
		<line class="st1" x1="215.6" y1="525.9" x2="175.8" y2="495.6"/>
		<line class="st1" x1="175.8" y1="495.6" x2="236.4" y2="414.7"/>
		<line class="st1" x1="236.4" y1="414.7" x2="263.8" y2="438.1"/>
		<line class="st1" x1="263.8" y1="438.1" x2="273.3" y2="426.4"/>
		<line class="st1" x1="273.3" y1="426.4" x2="239.6" y2="393.5"/>
		<line class="st1" x1="17.1" y1="398.4" x2="0.2" y2="381.5"/>
		<line class="st1" x1="0.2" y1="524.5" x2="54.2" y2="578.5"/>
		<line class="st1" x1="54.2" y1="578.5" x2="64.8" y2="578.5"/>
		<line class="st1" x1="64.8" y1="578.5" x2="117.6" y2="515.1"/>
		<line class="st1" x1="117.6" y1="515.1" x2="117.6" y2="506.9"/>
		<line class="st1" x1="117.6" y1="506.9" x2="102.6" y2="491.8"/>
		<line class="st1" x1="102.6" y1="491.8" x2="70.7" y2="533.4"/>
		<line class="st1" x1="70.7" y1="533.4" x2="0.2" y2="466.1"/>
		<line class="st1" x1="0.2" y1="416.4" x2="17.1" y2="398.4"/>
		<line class="st1" x1="45.7" y1="439.7" x2="30.4" y2="455"/>
		<line class="st1" x1="30.4" y1="455" x2="44.1" y2="468.7"/>
		<line class="st1" x1="44.1" y1="468.7" x2="55.3" y2="460.3"/>
		<line class="st1" x1="55.3" y1="460.3" x2="66.8" y2="471.8"/>
		<line class="st1" x1="66.8" y1="471.8" x2="80.1" y2="458.5"/>
		<line class="st1" x1="80.1" y1="458.5" x2="68.6" y2="447"/>
		<line class="st1" x1="68.6" y1="447" x2="59.4" y2="453.4"/>
		<line class="st1" x1="59.4" y1="453.4" x2="45.7" y2="439.7"/>
		<line class="st1" x1="165.5" y1="797.9" x2="199.3" y2="822.1"/>
		<line class="st1" x1="199.3" y1="822.1" x2="188.7" y2="841.9"/>
		<line class="st1" x1="162.5" y1="841.9" x2="149.9" y2="833.9"/>
		<line class="st1" x1="149.9" y1="833.9" x2="153" y2="821.4"/>
		<line class="st1" x1="153" y1="821.4" x2="165.5" y2="797.9"/>
		<line class="st1" x1="212" y1="841.9" x2="235.5" y2="806"/>
		<line class="st1" x1="235.5" y1="806" x2="289.1" y2="841.9"/>
		<line class="st1" x1="708.1" y1="804.2" x2="687.7" y2="837"/>
		<line class="st1" x1="687.7" y1="837" x2="695.6" y2="841.9"/>
		<line class="st1" x1="730.5" y1="841.9" x2="731.4" y2="840.5"/>
		<line class="st1" x1="731.4" y1="840.5" x2="733.8" y2="841.9"/>
		<line class="st1" x1="762.8" y1="841.9" x2="737.5" y2="826.2"/>
		<line class="st1" x1="737.5" y1="826.2" x2="708.1" y2="804.2"/>
		<line class="st1" x1="28.1" y1="653.5" x2="55" y2="630.3"/>
		<line class="st1" x1="55" y1="630.3" x2="145" y2="720.3"/>
		<line class="st1" x1="145" y1="720.3" x2="133.6" y2="731.7"/>
		<line class="st1" x1="133.6" y1="731.7" x2="137.3" y2="735.4"/>
		<line class="st1" x1="137.3" y1="735.4" x2="110.7" y2="762"/>
		<line class="st1" x1="110.7" y1="762" x2="91.8" y2="743.1"/>
		<line class="st1" x1="91.8" y1="743.1" x2="97.5" y2="737.4"/>
		<line class="st1" x1="97.5" y1="737.4" x2="41.9" y2="676.6"/>
		<line class="st1" x1="41.9" y1="676.6" x2="45.4" y2="673.6"/>
		<line class="st1" x1="45.4" y1="673.6" x2="28.6" y2="656.8"/>
		<line class="st1" x1="28.6" y1="656.8" x2="28.1" y2="653.5"/>
		<line class="st1" x1="0.2" y1="575.1" x2="31.7" y2="606.6"/>
		<line class="st1" x1="31.7" y1="606.6" x2="29.1" y2="615.8"/>
		<line class="st1" x1="29.1" y1="615.8" x2="0.2" y2="640.5"/>
		<line class="st1" x1="0.2" y1="699.1" x2="5.7" y2="699.1"/>
		<line class="st1" x1="5.7" y1="699.1" x2="126.3" y2="833.8"/>
		<line class="st1" x1="126.3" y1="833.8" x2="124.5" y2="841.9"/>
		<line class="st1" x1="87.5" y1="841.9" x2="70.8" y2="831.7"/>
		<line class="st1" x1="70.8" y1="831.7" x2="67.9" y2="836.4"/>
		<line class="st1" x1="67.9" y1="836.4" x2="59.7" y2="828.3"/>
		<line class="st1" x1="59.7" y1="828.3" x2="52.1" y2="835.8"/>
		<line class="st1" x1="52.1" y1="835.8" x2="0.2" y2="774.9"/>
		<line class="st1" x1="667.5" y1="826.3" x2="636.9" y2="804.7"/>
		<line class="st1" x1="701.3" y1="799.2" x2="666.6" y2="771.4"/>
		<line class="st1" x1="753" y1="805.6" x2="686.3" y2="749.2"/>
		<line class="st1" x1="707.2" y1="725.9" x2="775.9" y2="787.1"/>
		<line class="st1" x1="244.8" y1="196.6" x2="217" y2="230"/>
		<line class="st1" x1="252.7" y1="259.8" x2="279.8" y2="225"/>
		<line class="st1" x1="0.2" y1="475.5" x2="5" y2="470.7"/>
		<line class="st1" x1="0.2" y1="513.2" x2="23.8" y2="488.6"/>
		<line class="st1" x1="31.4" y1="555.7" x2="58.4" y2="521.8"/>
		<line class="st1" x1="75.2" y1="527.5" x2="92.7" y2="545"/>
		<line class="st1" x1="148.8" y1="579.5" x2="121.4" y2="555.9"/>
		<line class="st1" x1="142.6" y1="601.7" x2="108.2" y2="636"/>
		<line class="st1" x1="158.3" y1="619.1" x2="126.6" y2="654.4"/>
		<line class="st1" x1="161.7" y1="613.5" x2="204.2" y2="638.9"/>
		<line class="st1" x1="179.2" y1="585" x2="221.3" y2="610.1"/>
		<line class="st1" x1="196.9" y1="556.3" x2="238.6" y2="581.2"/>
		<line class="st1" x1="76" y1="713.9" x2="107.3" y2="682.6"/>
		<line class="st1" x1="97.5" y1="737.4" x2="129.8" y2="705.1"/>
	</g>
</g>
</svg>
