<?xml version="1.0" encoding="UTF-8"?><svg id="Layer_2" xmlns="http://www.w3.org/2000/svg" viewBox="0 0 917.7 653.93"><defs><style>.cls-1{fill:none;stroke:#080504;stroke-linecap:round;stroke-linejoin:round;stroke-width:.25px;}.cls-2{fill:#27252f;fill-rule:evenodd;}</style></defs><g id="Layer_1-2"><polyline class="cls-2" points="434.68 422.39 350.94 422.27 351.4 386.2 406.58 386.9 406.85 379.27 405.18 379.24 405.46 369.04 399.6 368.67 400.38 345.64 404.5 345.7 404.75 333.52 423.86 333.89 422.5 371.33 436.8 371.89 434.68 422.39"/><line class="cls-1" x1="376.23" y1="182.35" x2="416.07" y2="179.67"/><line class="cls-1" x1="416.07" y1="179.67" x2="437.14" y2="178.32"/><line class="cls-1" x1="437.14" y1="178.32" x2="474.77" y2="175.32"/><line class="cls-1" x1="474.77" y1="175.32" x2="508.56" y2="169.96"/><line class="cls-1" x1="508.56" y1="169.96" x2="545.76" y2="163.92"/><line class="cls-1" x1="545.76" y1="163.92" x2="581.12" y2="157.43"/><line class="cls-1" x1="581.12" y1="157.43" x2="624.07" y2="150.08"/><line class="cls-1" x1="624.07" y1="150.08" x2="670.31" y2="141.47"/><line class="cls-1" x1="670.31" y1="141.47" x2="703.43" y2="135.29"/><line class="cls-1" x1="703.43" y1="135.29" x2="728.73" y2="129.65"/><line class="cls-1" x1="728.73" y1="129.65" x2="753.95" y2="123.49"/><line class="cls-1" x1="753.95" y1="123.49" x2="781.32" y2="115.97"/><line class="cls-1" x1="781.32" y1="115.97" x2="813.58" y2="106.72"/><line class="cls-1" x1="401.27" y1="209.04" x2="415.71" y2="207.86"/><line class="cls-1" x1="415.71" y1="207.86" x2="435.07" y2="205.48"/><line class="cls-1" x1="435.07" y1="205.48" x2="473.2" y2="201.23"/><line class="cls-1" x1="473.2" y1="201.23" x2="505.86" y2="196.9"/><line class="cls-1" x1="505.86" y1="196.9" x2="534.85" y2="192.35"/><line class="cls-1" x1="534.85" y1="192.35" x2="566.75" y2="187.01"/><line class="cls-1" x1="566.75" y1="187.01" x2="597.81" y2="181.51"/><line class="cls-1" x1="597.81" y1="181.51" x2="638.27" y2="172.61"/><line class="cls-1" x1="638.27" y1="172.61" x2="679.71" y2="163.92"/><line class="cls-1" x1="679.71" y1="163.92" x2="722.31" y2="154.15"/><line class="cls-1" x1="722.31" y1="154.15" x2="769.11" y2="141.29"/><line class="cls-1" x1="769.11" y1="141.29" x2="815.68" y2="128.66"/><line class="cls-1" x1="815.68" y1="128.66" x2="838.25" y2="122.36"/><line class="cls-1" x1="387.55" y1="194.4" x2="415.92" y2="192.24"/><line class="cls-1" x1="415.92" y1="192.24" x2="436.19" y2="190.73"/><line class="cls-1" x1="436.19" y1="190.73" x2="470.2" y2="188.21"/><line class="cls-1" x1="470.2" y1="188.21" x2="500" y2="183.86"/><line class="cls-1" x1="500" y1="183.86" x2="535.73" y2="177.39"/><line class="cls-1" x1="535.73" y1="177.39" x2="574" y2="171.04"/><line class="cls-1" x1="574" y1="171.04" x2="612.26" y2="163.98"/><line class="cls-1" x1="612.26" y1="163.98" x2="660.11" y2="155.35"/><line class="cls-1" x1="660.11" y1="155.35" x2="705.46" y2="145.72"/><line class="cls-1" x1="705.46" y1="145.72" x2="756.81" y2="133.74"/><line class="cls-1" x1="756.81" y1="133.74" x2="809.29" y2="119.65"/><line class="cls-1" x1="809.29" y1="119.65" x2="826.37" y2="114.83"/><line class="cls-1" x1="32.07" y1="209.67" x2="34.96" y2="209.42"/><line class="cls-1" x1="34.96" y1="209.42" x2="106.01" y2="203.86"/><line class="cls-1" x1="106.01" y1="203.86" x2="165.83" y2="199.26"/><line class="cls-1" x1="165.83" y1="199.26" x2="219.64" y2="194.98"/><line class="cls-1" x1="219.64" y1="194.98" x2="277.14" y2="190.12"/><line class="cls-1" x1="277.14" y1="190.12" x2="318.92" y2="185.93"/><line class="cls-1" x1="23.22" y1="223.61" x2="85.85" y2="218.48"/><line class="cls-1" x1="85.85" y1="218.48" x2="171.3" y2="211.7"/><line class="cls-1" x1="171.3" y1="211.7" x2="229.2" y2="206.85"/><line class="cls-1" x1="229.2" y1="206.85" x2="275.61" y2="203.83"/><line class="cls-1" x1="275.61" y1="203.83" x2="332.93" y2="199.2"/><line class="cls-1" x1="332.93" y1="199.2" x2="387.55" y2="194.4"/><line class="cls-1" x1="43.32" y1="191.9" x2="108.18" y2="186.83"/><line class="cls-1" x1="108.18" y1="186.83" x2="155.26" y2="183.29"/><line class="cls-1" x1="155.26" y1="183.29" x2="186.51" y2="181.89"/><line class="cls-1" x1="186.51" y1="181.89" x2="213.24" y2="181.36"/><line class="cls-1" x1="213.24" y1="181.36" x2="248.79" y2="182.2"/><line class="cls-1" x1="248.79" y1="182.2" x2="274.7" y2="183.36"/><line class="cls-1" x1="274.7" y1="183.36" x2="296.64" y2="184.9"/><line class="cls-1" x1="296.64" y1="184.9" x2="318.92" y2="185.93"/><line class="cls-1" x1="318.92" y1="185.93" x2="353.68" y2="183.88"/><line class="cls-1" x1="353.68" y1="183.88" x2="376.23" y2="182.35"/><line class="cls-1" x1="1.38" y1="258.07" x2="26.27" y2="256.17"/><line class="cls-1" x1="26.27" y1="256.17" x2="68.9" y2="252.8"/><line class="cls-1" x1="68.9" y1="252.8" x2="142.77" y2="247.26"/><line class="cls-1" x1="142.77" y1="247.26" x2="226.24" y2="239.86"/><line class="cls-1" x1="12.15" y1="241.08" x2="31.44" y2="239.68"/><line class="cls-1" x1="31.44" y1="239.68" x2="83.35" y2="235.26"/><line class="cls-1" x1="83.35" y1="235.26" x2="141.55" y2="230.52"/><line class="cls-1" x1="141.55" y1="230.52" x2="200.65" y2="225.67"/><line class="cls-1" x1="200.65" y1="225.67" x2="270.99" y2="220.04"/><line class="cls-1" x1="270.99" y1="220.04" x2="401.27" y2="209.04"/><line class="cls-1" x1="371.6" y1="37.55" x2="370.55" y2="57.97"/><line class="cls-1" x1="370.55" y1="57.97" x2="324.36" y2="64.49"/><line class="cls-1" x1="324.36" y1="64.49" x2="329.58" y2="101.55"/><line class="cls-1" x1="329.58" y1="101.55" x2="359.12" y2="97.38"/><line class="cls-1" x1="359.12" y1="97.38" x2="361.07" y2="111.18"/><line class="cls-1" x1="361.07" y1="111.18" x2="400.81" y2="105.57"/><line class="cls-1" x1="400.81" y1="105.57" x2="398.4" y2="88.46"/><line class="cls-1" x1="398.4" y1="88.46" x2="403.86" y2="87.69"/><line class="cls-1" x1="403.86" y1="87.69" x2="405.45" y2="38.77"/><line class="cls-1" x1="405.45" y1="38.77" x2="371.6" y2="37.55"/><line class="cls-1" x1="452.9" y1="10.75" x2="450.58" y2="105.4"/><line class="cls-1" x1="450.58" y1="105.4" x2="484.07" y2="105.99"/><line class="cls-1" x1="484.07" y1="105.99" x2="485.17" y2="44.15"/><line class="cls-1" x1="485.17" y1="44.15" x2="488.73" y2="44.21"/><line class="cls-1" x1="488.73" y1="44.21" x2="489" y2="29.1"/><line class="cls-1" x1="489" y1="29.1" x2="516.62" y2="29.72"/><line class="cls-1" x1="516.62" y1="29.72" x2="531.29" y2="104.79"/><line class="cls-1" x1="531.29" y1="104.79" x2="555.06" y2="103.29"/><line class="cls-1" x1="555.06" y1="103.29" x2="556.25" y2="122.19"/><line class="cls-1" x1="556.25" y1="122.19" x2="594.65" y2="119.76"/><line class="cls-1" x1="594.65" y1="119.76" x2="593.96" y2="100.82"/><line class="cls-1" x1="593.96" y1="100.82" x2="575.93" y2="101.96"/><line class="cls-1" x1="575.93" y1="101.96" x2="574.94" y2="93.49"/><line class="cls-1" x1="574.94" y1="93.49" x2="577.39" y2="93.21"/><line class="cls-1" x1="577.39" y1="93.21" x2="573.81" y2="62.08"/><line class="cls-1" x1="573.81" y1="62.08" x2="562.17" y2="48.38"/><line class="cls-1" x1="562.17" y1="48.38" x2="551.8" y2="35.55"/><line class="cls-1" x1="551.8" y1="35.55" x2="538.62" y2="15.39"/><line class="cls-1" x1="538.62" y1="15.39" x2="524.02" y2="1.13"/><line class="cls-1" x1="524.02" y1="1.13" x2="482.69" y2=".12"/><line class="cls-1" x1="482.69" y1=".12" x2="482.52" y2="11.19"/><line class="cls-1" x1="482.52" y1="11.19" x2="452.9" y2="10.75"/><line class="cls-1" x1="636.04" y1="118.08" x2="633.86" y2="90.9"/><line class="cls-1" x1="633.86" y1="90.9" x2="619.12" y2="92.07"/><line class="cls-1" x1="619.12" y1="92.07" x2="618.82" y2="88.58"/><line class="cls-1" x1="618.82" y1="88.58" x2="608.95" y2="89.36"/><line class="cls-1" x1="608.95" y1="89.36" x2="609.85" y2="100.52"/><line class="cls-1" x1="609.85" y1="100.52" x2="611.4" y2="100.4"/><line class="cls-1" x1="611.4" y1="100.4" x2="612" y2="107.96"/><line class="cls-1" x1="612" y1="107.96" x2="610.44" y2="108.08"/><line class="cls-1" x1="610.44" y1="108.08" x2="611.17" y2="117.05"/><line class="cls-1" x1="611.17" y1="117.05" x2="611.39" y2="120.04"/><line class="cls-1" x1="611.39" y1="120.04" x2="636.04" y2="118.08"/><line class="cls-1" x1="366.67" y1="262.23" x2="364.58" y2="234.79"/><line class="cls-1" x1="364.58" y1="234.79" x2="334.11" y2="237.1"/><line class="cls-1" x1="334.11" y1="237.1" x2="334.07" y2="236.73"/><line class="cls-1" x1="334.07" y1="236.73" x2="333.01" y2="236.82"/><line class="cls-1" x1="333.01" y1="236.82" x2="313.15" y2="238.29"/><line class="cls-1" x1="313.15" y1="238.29" x2="313.17" y2="238.67"/><line class="cls-1" x1="313.17" y1="238.67" x2="301.92" y2="239.51"/><line class="cls-1" x1="301.92" y1="239.51" x2="283.76" y2="240.89"/><line class="cls-1" x1="283.76" y1="240.89" x2="285.85" y2="268.38"/><line class="cls-1" x1="285.85" y1="268.38" x2="296.64" y2="267.55"/><line class="cls-1" x1="296.64" y1="267.55" x2="315.27" y2="266.14"/><line class="cls-1" x1="315.27" y1="266.14" x2="315.51" y2="269.24"/><line class="cls-1" x1="315.51" y1="269.24" x2="333.18" y2="267.9"/><line class="cls-1" x1="333.18" y1="267.9" x2="337" y2="267.61"/><line class="cls-1" x1="337" y1="267.61" x2="336.75" y2="264.48"/><line class="cls-1" x1="336.75" y1="264.48" x2="366.67" y2="262.23"/><line class="cls-1" x1="480.25" y1="231.38" x2="478.25" y2="217.64"/><line class="cls-1" x1="478.25" y1="217.64" x2="456.5" y2="220.79"/><line class="cls-1" x1="456.5" y1="220.79" x2="458.5" y2="234.54"/><line class="cls-1" x1="458.5" y1="234.54" x2="480.25" y2="231.38"/><line class="cls-1" x1="464.76" y1="166.36" x2="465.07" y2="169.32"/><line class="cls-1" x1="465.07" y1="169.32" x2="480.17" y2="167.71"/><line class="cls-1" x1="480.17" y1="167.71" x2="479.81" y2="164.42"/><line class="cls-1" x1="479.81" y1="164.42" x2="479.31" y2="159.64"/><line class="cls-1" x1="479.31" y1="159.64" x2="464.21" y2="161.23"/><line class="cls-1" x1="464.21" y1="161.23" x2="464.76" y2="166.36"/><line class="cls-1" x1="568.39" y1="210.54" x2="567" y2="201.89"/><line class="cls-1" x1="567" y1="201.89" x2="555.5" y2="203.73"/><line class="cls-1" x1="555.5" y1="203.73" x2="556.88" y2="212.36"/><line class="cls-1" x1="556.88" y1="212.36" x2="568.39" y2="210.54"/><line class="cls-1" x1="727.87" y1="181.11" x2="728.43" y2="183.58"/><line class="cls-1" x1="728.43" y1="183.58" x2="726.42" y2="184.04"/><line class="cls-1" x1="726.42" y1="184.04" x2="727" y2="186.64"/><line class="cls-1" x1="727" y1="186.64" x2="729" y2="186.17"/><line class="cls-1" x1="729" y1="186.17" x2="734.32" y2="209.83"/><line class="cls-1" x1="734.32" y1="209.83" x2="746.13" y2="207.17"/><line class="cls-1" x1="746.13" y1="207.17" x2="744.45" y2="199.7"/><line class="cls-1" x1="744.45" y1="199.7" x2="754.68" y2="197.42"/><line class="cls-1" x1="754.68" y1="197.42" x2="759.48" y2="218.67"/><line class="cls-1" x1="759.48" y1="218.67" x2="759.81" y2="218.68"/><line class="cls-1" x1="759.81" y1="218.68" x2="759.06" y2="289.12"/><line class="cls-1" x1="759.06" y1="289.12" x2="758.82" y2="311.2"/><line class="cls-1" x1="758.82" y1="311.2" x2="788.74" y2="311.51"/><line class="cls-1" x1="788.74" y1="311.51" x2="789.83" y2="207.2"/><line class="cls-1" x1="789.83" y1="207.2" x2="791.02" y2="207.21"/><line class="cls-1" x1="791.02" y1="207.21" x2="788.95" y2="197.98"/><line class="cls-1" x1="788.95" y1="197.98" x2="801.68" y2="195.12"/><line class="cls-1" x1="801.68" y1="195.12" x2="795.13" y2="166.01"/><line class="cls-1" x1="795.13" y1="166.01" x2="727.87" y2="181.11"/><line class="cls-1" x1="853.54" y1="153.15" x2="870.6" y2="229.7"/><line class="cls-1" x1="870.6" y1="229.7" x2="917.57" y2="219.2"/><line class="cls-1" x1="917.57" y1="219.2" x2="900.48" y2="142.63"/><line class="cls-1" x1="900.48" y1="142.63" x2="853.54" y2="153.15"/><line class="cls-1" x1="518.51" y1="346.77" x2="519.64" y2="366.55"/><line class="cls-1" x1="519.64" y1="366.55" x2="541.46" y2="369.95"/><line class="cls-1" x1="541.46" y1="369.95" x2="551.64" y2="436.61"/><line class="cls-1" x1="551.64" y1="436.61" x2="591.61" y2="422.91"/><line class="cls-1" x1="591.61" y1="422.91" x2="631.62" y2="422.71"/><line class="cls-1" x1="631.62" y1="422.71" x2="633" y2="394.51"/><line class="cls-1" x1="633" y1="394.51" x2="580.77" y2="396.26"/><line class="cls-1" x1="580.77" y1="396.26" x2="563.26" y2="334.18"/><line class="cls-1" x1="563.26" y1="334.18" x2="532.63" y2="345.95"/><line class="cls-1" x1="532.63" y1="345.95" x2="518.51" y2="346.77"/><line class="cls-1" x1="643.88" y1="499.21" x2="643.92" y2="497.97"/><line class="cls-1" x1="643.92" y1="497.97" x2="642.67" y2="497.93"/><line class="cls-1" x1="642.67" y1="497.93" x2="643.07" y2="474.05"/><line class="cls-1" x1="643.07" y1="474.05" x2="608.12" y2="473.45"/><line class="cls-1" x1="608.12" y1="473.45" x2="608.1" y2="478.35"/><line class="cls-1" x1="608.1" y1="478.35" x2="604.6" y2="478.34"/><line class="cls-1" x1="604.6" y1="478.34" x2="604.51" y2="493.35"/><line class="cls-1" x1="604.51" y1="493.35" x2="608.02" y2="493.39"/><line class="cls-1" x1="608.02" y1="493.39" x2="608" y2="497.74"/><line class="cls-1" x1="608" y1="497.74" x2="606.77" y2="497.74"/><line class="cls-1" x1="606.77" y1="497.74" x2="606.76" y2="499.01"/><line class="cls-1" x1="606.76" y1="499.01" x2="643.88" y2="499.21"/><line class="cls-1" x1="550.48" y1="523.14" x2="556.21" y2="523.05"/><line class="cls-1" x1="556.21" y1="523.05" x2="555.68" y2="487.47"/><line class="cls-1" x1="555.68" y1="487.47" x2="528.6" y2="487.86"/><line class="cls-1" x1="528.6" y1="487.86" x2="528.8" y2="501.51"/><line class="cls-1" x1="528.8" y1="501.51" x2="526.08" y2="501.54"/><line class="cls-1" x1="526.08" y1="501.54" x2="526.2" y2="509.64"/><line class="cls-1" x1="526.2" y1="509.64" x2="528.93" y2="509.6"/><line class="cls-1" x1="528.93" y1="509.6" x2="529.12" y2="523.46"/><line class="cls-1" x1="529.12" y1="523.46" x2="542.15" y2="523.27"/><line class="cls-1" x1="542.15" y1="523.27" x2="550.48" y2="523.14"/><line class="cls-1" x1="569.61" y1="624.65" x2="569.88" y2="597.22"/><line class="cls-1" x1="569.88" y1="597.22" x2="575.1" y2="597.27"/><line class="cls-1" x1="575.1" y1="597.27" x2="575.11" y2="596.24"/><line class="cls-1" x1="575.11" y1="596.24" x2="575.8" y2="596.24"/><line class="cls-1" x1="575.8" y1="596.24" x2="575.88" y2="587.24"/><line class="cls-1" x1="575.88" y1="587.24" x2="575.35" y2="587.23"/><line class="cls-1" x1="575.35" y1="587.23" x2="575.36" y2="586.59"/><line class="cls-1" x1="575.36" y1="586.59" x2="539.06" y2="586.22"/><line class="cls-1" x1="539.06" y1="586.22" x2="538.87" y2="603.24"/><line class="cls-1" x1="538.87" y1="603.24" x2="535.88" y2="603.22"/><line class="cls-1" x1="535.88" y1="603.22" x2="535.8" y2="612.24"/><line class="cls-1" x1="535.8" y1="612.24" x2="538.79" y2="612.28"/><line class="cls-1" x1="538.79" y1="612.28" x2="538.67" y2="624.34"/><line class="cls-1" x1="538.67" y1="624.34" x2="548.42" y2="624.43"/><line class="cls-1" x1="548.42" y1="624.43" x2="569.61" y2="624.65"/><line class="cls-1" x1="522.71" y1="585.77" x2="533.57" y2="585.89"/><line class="cls-1" x1="533.57" y1="585.89" x2="533.79" y2="566.46"/><line class="cls-1" x1="533.79" y1="566.46" x2="522.93" y2="566.34"/><line class="cls-1" x1="522.93" y1="566.34" x2="522.71" y2="585.77"/><line class="cls-1" x1="451.36" y1="512.23" x2="476.73" y2="512.68"/><line class="cls-1" x1="476.73" y1="512.68" x2="476.68" y2="515.67"/><line class="cls-1" x1="476.68" y1="515.67" x2="484.08" y2="515.82"/><line class="cls-1" x1="484.08" y1="515.82" x2="484.39" y2="498.53"/><line class="cls-1" x1="484.39" y1="498.53" x2="476.99" y2="498.4"/><line class="cls-1" x1="476.99" y1="498.4" x2="477.39" y2="475.53"/><line class="cls-1" x1="477.39" y1="475.53" x2="452.02" y2="475.07"/><line class="cls-1" x1="452.02" y1="475.07" x2="451.36" y2="512.23"/><line class="cls-1" x1="355.46" y1="505.2" x2="386.45" y2="505.95"/><line class="cls-1" x1="386.45" y1="505.95" x2="387.31" y2="481.45"/><line class="cls-1" x1="387.31" y1="481.45" x2="380.8" y2="481.26"/><line class="cls-1" x1="380.8" y1="481.26" x2="380.81" y2="480.84"/><line class="cls-1" x1="380.81" y1="480.84" x2="379.31" y2="480.82"/><line class="cls-1" x1="379.31" y1="480.82" x2="379.7" y2="460.51"/><line class="cls-1" x1="379.7" y1="460.51" x2="365.9" y2="460.23"/><line class="cls-1" x1="365.9" y1="460.23" x2="365.51" y2="480.54"/><line class="cls-1" x1="365.51" y1="480.54" x2="355.94" y2="480.35"/><line class="cls-1" x1="355.94" y1="480.35" x2="355.62" y2="497.43"/><line class="cls-1" x1="355.62" y1="497.43" x2="355.46" y2="505.2"/><line class="cls-1" x1="386.45" y1="505.95" x2="355.46" y2="505.2"/><line class="cls-1" x1="355.46" y1="505.2" x2="355.31" y2="513.09"/><line class="cls-1" x1="355.31" y1="513.09" x2="354.98" y2="530.18"/><line class="cls-1" x1="354.98" y1="530.18" x2="379.24" y2="530.84"/><line class="cls-1" x1="379.24" y1="530.84" x2="379.25" y2="530.52"/><line class="cls-1" x1="379.25" y1="530.52" x2="385.6" y2="530.65"/><line class="cls-1" x1="385.6" y1="530.65" x2="386.45" y2="505.95"/><line class="cls-1" x1="365.89" y1="551.49" x2="394.85" y2="552.28"/><line class="cls-1" x1="394.85" y1="552.28" x2="394.92" y2="549.59"/><line class="cls-1" x1="394.92" y1="549.59" x2="398.68" y2="549.68"/><line class="cls-1" x1="398.68" y1="549.68" x2="398.65" y2="550.78"/><line class="cls-1" x1="398.65" y1="550.78" x2="421.93" y2="551.4"/><line class="cls-1" x1="421.93" y1="551.4" x2="422.25" y2="539.4"/><line class="cls-1" x1="422.25" y1="539.4" x2="398.98" y2="538.78"/><line class="cls-1" x1="398.98" y1="538.78" x2="398.93" y2="540.02"/><line class="cls-1" x1="398.93" y1="540.02" x2="395.18" y2="539.91"/><line class="cls-1" x1="395.18" y1="539.91" x2="395.21" y2="538.54"/><line class="cls-1" x1="395.21" y1="538.54" x2="366.26" y2="537.76"/><line class="cls-1" x1="366.26" y1="537.76" x2="365.89" y2="551.49"/><line class="cls-1" x1="403.31" y1="653.8" x2="403.62" y2="640.08"/><line class="cls-1" x1="403.62" y1="640.08" x2="407.25" y2="640.16"/><line class="cls-1" x1="407.25" y1="640.16" x2="408.06" y2="605.04"/><line class="cls-1" x1="408.06" y1="605.04" x2="407.52" y2="605.03"/><line class="cls-1" x1="407.52" y1="605.03" x2="407.68" y2="598.66"/><line class="cls-1" x1="407.68" y1="598.66" x2="404.58" y2="598.59"/><line class="cls-1" x1="404.58" y1="598.59" x2="404.85" y2="587.53"/><line class="cls-1" x1="404.85" y1="587.53" x2="370.75" y2="586.72"/><line class="cls-1" x1="370.75" y1="586.72" x2="370.23" y2="608.84"/><line class="cls-1" x1="370.23" y1="608.84" x2="366.6" y2="608.77"/><line class="cls-1" x1="366.6" y1="608.77" x2="366.38" y2="617.09"/><line class="cls-1" x1="366.38" y1="617.09" x2="364.74" y2="617.05"/><line class="cls-1" x1="364.74" y1="617.05" x2="364.54" y2="625.6"/><line class="cls-1" x1="364.54" y1="625.6" x2="366.18" y2="625.65"/><line class="cls-1" x1="366.18" y1="625.65" x2="365.98" y2="634.24"/><line class="cls-1" x1="365.98" y1="634.24" x2="369.62" y2="634.34"/><line class="cls-1" x1="369.62" y1="634.34" x2="369.18" y2="652.99"/><line class="cls-1" x1="369.18" y1="652.99" x2="403.31" y2="653.8"/><line class="cls-1" x1="179.67" y1="488.79" x2="179.15" y2="515.66"/><line class="cls-1" x1="179.15" y1="515.66" x2="179.14" y2="516.42"/><line class="cls-1" x1="179.14" y1="516.42" x2="235.57" y2="518.09"/><line class="cls-1" x1="235.57" y1="518.09" x2="233.98" y2="572.28"/><line class="cls-1" x1="233.98" y1="572.28" x2="233.21" y2="572.26"/><line class="cls-1" x1="233.21" y1="572.26" x2="232.68" y2="590.36"/><line class="cls-1" x1="232.68" y1="590.36" x2="209.3" y2="589.84"/><line class="cls-1" x1="209.3" y1="589.84" x2="209.36" y2="586.9"/><line class="cls-1" x1="209.36" y1="586.9" x2="197.93" y2="586.65"/><line class="cls-1" x1="197.93" y1="586.65" x2="197.08" y2="638.7"/><line class="cls-1" x1="197.08" y1="638.7" x2="209.43" y2="638.78"/><line class="cls-1" x1="209.43" y1="638.78" x2="209.36" y2="648.71"/><line class="cls-1" x1="209.36" y1="648.71" x2="209.36" y2="650.35"/><line class="cls-1" x1="209.36" y1="650.35" x2="264.58" y2="650.73"/><line class="cls-1" x1="264.58" y1="650.73" x2="282.17" y2="634.26"/><line class="cls-1" x1="282.17" y1="634.26" x2="285.98" y2="498.28"/><line class="cls-1" x1="285.98" y1="498.28" x2="271.51" y2="484.52"/><line class="cls-1" x1="271.51" y1="484.52" x2="236.36" y2="483.4"/><line class="cls-1" x1="236.36" y1="483.4" x2="236.61" y2="474.98"/><line class="cls-1" x1="236.61" y1="474.98" x2="179.96" y2="473.22"/><line class="cls-1" x1="179.96" y1="473.22" x2="179.67" y2="488.79"/><line class="cls-1" x1="162.88" y1="499.01" x2="164.2" y2="456.7"/><line class="cls-1" x1="164.2" y1="456.7" x2="164.57" y2="444.64"/><line class="cls-1" x1="164.57" y1="444.64" x2="136.2" y2="443.74"/><line class="cls-1" x1="136.2" y1="443.74" x2="136.26" y2="441.34"/><line class="cls-1" x1="136.26" y1="441.34" x2="127.17" y2="441.05"/><line class="cls-1" x1="127.17" y1="441.05" x2="127.1" y2="443.47"/><line class="cls-1" x1="127.1" y1="443.47" x2="90.39" y2="442.32"/><line class="cls-1" x1="90.39" y1="442.32" x2="90.46" y2="439.9"/><line class="cls-1" x1="90.46" y1="439.9" x2="81.04" y2="439.6"/><line class="cls-1" x1="81.04" y1="439.6" x2="80.96" y2="442.03"/><line class="cls-1" x1="80.96" y1="442.03" x2="37.07" y2="440.65"/><line class="cls-1" x1="37.07" y1="440.65" x2="37.15" y2="438.22"/><line class="cls-1" x1="37.15" y1="438.22" x2="27.79" y2="437.93"/><line class="cls-1" x1="27.79" y1="437.93" x2="27.71" y2="440.35"/><line class="cls-1" x1="27.71" y1="440.35" x2="1.47" y2="439.53"/><line class="cls-1" x1="1.47" y1="439.53" x2=".12" y2="482.48"/><line class="cls-1" x1=".12" y1="482.48" x2="14.01" y2="494.35"/><line class="cls-1" x1="14.01" y1="494.35" x2="27.55" y2="494.78"/><line class="cls-1" x1="27.55" y1="494.78" x2="162.88" y2="499.01"/><line class="cls-1" x1="352.9" y1="333.67" x2="352.81" y2="344.6"/><line class="cls-1" x1="352.81" y1="344.6" x2="351.92" y2="344.58"/><line class="cls-1" x1="351.92" y1="344.58" x2="351.85" y2="347.39"/><line class="cls-1" x1="351.85" y1="347.39" x2="351.75" y2="351.89"/><line class="cls-1" x1="351.75" y1="351.89" x2="351.5" y2="362.89"/><line class="cls-1" x1="351.5" y1="362.89" x2="351.42" y2="366.79"/><line class="cls-1" x1="351.42" y1="366.79" x2="351.04" y2="383.73"/><line class="cls-1" x1="351.04" y1="383.73" x2="350.98" y2="386.2"/><line class="cls-1" x1="350.98" y1="386.2" x2="406.58" y2="386.9"/><line class="cls-1" x1="406.58" y1="386.9" x2="406.85" y2="379.27"/><line class="cls-1" x1="406.85" y1="379.27" x2="405.18" y2="379.24"/><line class="cls-1" x1="405.18" y1="379.24" x2="405.46" y2="369.04"/><line class="cls-1" x1="405.46" y1="369.04" x2="399.6" y2="368.67"/><line class="cls-1" x1="399.6" y1="368.67" x2="400.77" y2="334.33"/><line class="cls-1" x1="400.77" y1="334.33" x2="352.9" y2="333.67"/></g></svg>