<?xml version="1.0" encoding="UTF-8"?><svg id="Layer_2" xmlns="http://www.w3.org/2000/svg" viewBox="0 0 1153.59 830.72"><defs><style>.cls-1{fill:none;stroke:#000;stroke-linecap:round;stroke-linejoin:round;stroke-width:.25px;}.cls-2{fill-rule:evenodd;}</style></defs><g id="Layer_1-2"><g><polyline class="cls-2" points="554.21 371.25 618.61 371.06 618.62 416.3 554.28 416.28 554.21 371.25"/><line class="cls-1" x1="554.21" y1="371.25" x2="618.61" y2="371.06"/><line class="cls-1" x1="618.61" y1="371.06" x2="618.62" y2="416.3"/><line class="cls-1" x1="618.62" y1="416.3" x2="554.28" y2="416.28"/><line class="cls-1" x1="554.28" y1="416.28" x2="554.21" y2="371.25"/><line class="cls-1" x1="528.86" y1="509.52" x2="539.88" y2="498.6"/><line class="cls-1" x1="539.88" y1="498.6" x2="485.3" y2="443.48"/><line class="cls-1" x1="485.3" y1="443.48" x2="474.28" y2="454.4"/><line class="cls-1" x1="474.28" y1="454.4" x2="528.86" y2="509.52"/><line class="cls-1" x1="448.37" y1="479.14" x2="437.55" y2="489.94"/><line class="cls-1" x1="437.55" y1="489.94" x2="492.95" y2="545.44"/><line class="cls-1" x1="492.95" y1="545.44" x2="503.88" y2="534.75"/><line class="cls-1" x1="503.88" y1="534.75" x2="448.37" y2="479.14"/><line class="cls-1" x1="552.11" y1="464.95" x2="562.61" y2="475.5"/><line class="cls-1" x1="562.61" y1="475.5" x2="586.36" y2="451.87"/><line class="cls-1" x1="586.36" y1="451.87" x2="575.86" y2="441.32"/><line class="cls-1" x1="575.86" y1="441.32" x2="552.11" y2="464.95"/><line class="cls-1" x1="599.36" y1="485.78" x2="588.34" y2="496.7"/><line class="cls-1" x1="588.34" y1="496.7" x2="606.23" y2="514.76"/><line class="cls-1" x1="606.23" y1="514.76" x2="617.25" y2="503.85"/><line class="cls-1" x1="617.25" y1="503.85" x2="599.36" y2="485.78"/><line class="cls-1" x1="562.93" y1="521.87" x2="551.9" y2="532.78"/><line class="cls-1" x1="551.9" y1="532.78" x2="569.8" y2="550.85"/><line class="cls-1" x1="569.8" y1="550.85" x2="580.82" y2="539.93"/><line class="cls-1" x1="580.82" y1="539.93" x2="562.93" y2="521.87"/><line class="cls-1" x1="602.56" y1="549.33" x2="617.26" y2="534.78"/><line class="cls-1" x1="617.26" y1="534.78" x2="605.43" y2="522.84"/><line class="cls-1" x1="605.43" y1="522.84" x2="590.73" y2="537.39"/><line class="cls-1" x1="590.73" y1="537.39" x2="602.56" y2="549.33"/><line class="cls-1" x1="568.99" y1="558.92" x2="554.3" y2="573.48"/><line class="cls-1" x1="554.3" y1="573.48" x2="566.12" y2="585.42"/><line class="cls-1" x1="566.12" y1="585.42" x2="580.82" y2="570.86"/><line class="cls-1" x1="580.82" y1="570.86" x2="568.99" y2="558.92"/><line class="cls-1" x1="526.49" y1="557.95" x2="515.47" y2="568.87"/><line class="cls-1" x1="515.47" y1="568.87" x2="533.36" y2="586.93"/><line class="cls-1" x1="533.36" y1="586.93" x2="544.38" y2="576.02"/><line class="cls-1" x1="544.38" y1="576.02" x2="526.49" y2="557.95"/><line class="cls-1" x1="455.47" y1="581.16" x2="466.39" y2="570.51"/><line class="cls-1" x1="466.39" y1="570.51" x2="411.93" y2="515.27"/><line class="cls-1" x1="411.93" y1="515.27" x2="401.07" y2="525.98"/><line class="cls-1" x1="401.07" y1="525.98" x2="455.47" y2="581.16"/><line class="cls-1" x1="375.39" y1="551.57" x2="364.59" y2="562.35"/><line class="cls-1" x1="364.59" y1="562.35" x2="419.31" y2="617.18"/><line class="cls-1" x1="419.31" y1="617.18" x2="430.18" y2="606.47"/><line class="cls-1" x1="430.18" y1="606.47" x2="375.39" y2="551.57"/><line class="cls-1" x1="496.92" y1="623.02" x2="507.95" y2="612.1"/><line class="cls-1" x1="507.95" y1="612.1" x2="490.05" y2="594.04"/><line class="cls-1" x1="490.05" y1="594.04" x2="479.03" y2="604.95"/><line class="cls-1" x1="479.03" y1="604.95" x2="496.92" y2="623.02"/><line class="cls-1" x1="453.43" y1="629.77" x2="442.6" y2="640.55"/><line class="cls-1" x1="442.6" y1="640.55" x2="460.83" y2="658.83"/><line class="cls-1" x1="460.83" y1="658.83" x2="471.66" y2="648.03"/><line class="cls-1" x1="471.66" y1="648.03" x2="453.43" y2="629.77"/><line class="cls-1" x1="509.09" y1="644.6" x2="497.09" y2="633.07"/><line class="cls-1" x1="497.09" y1="633.07" x2="482.34" y2="647.59"/><line class="cls-1" x1="482.34" y1="647.59" x2="494.35" y2="659.11"/><line class="cls-1" x1="494.35" y1="659.11" x2="509.09" y2="644.6"/><line class="cls-1" x1="536.16" y1="308.08" x2="550.74" y2="308.22"/><line class="cls-1" x1="550.74" y1="308.22" x2="550.92" y2="289.54"/><line class="cls-1" x1="550.92" y1="289.54" x2="536.34" y2="289.4"/><line class="cls-1" x1="536.34" y1="289.4" x2="536.16" y2="308.08"/><line class="cls-1" x1="552.53" y1="316.17" x2="566.74" y2="316.11"/><line class="cls-1" x1="566.74" y1="316.11" x2="566.65" y2="297.63"/><line class="cls-1" x1="566.65" y1="297.63" x2="552.45" y2="297.7"/><line class="cls-1" x1="552.45" y1="297.7" x2="552.53" y2="316.17"/><line class="cls-1" x1="520.05" y1="324.15" x2="520.05" y2="309.53"/><line class="cls-1" x1="520.05" y1="309.53" x2="542.76" y2="309.52"/><line class="cls-1" x1="542.76" y1="309.52" x2="542.77" y2="324.14"/><line class="cls-1" x1="542.77" y1="324.14" x2="520.05" y2="324.15"/><line class="cls-1" x1="520.23" y1="307.86" x2="526.77" y2="307.86"/><line class="cls-1" x1="526.77" y1="307.86" x2="526.77" y2="298.31"/><line class="cls-1" x1="526.77" y1="298.31" x2="520.23" y2="298.31"/><line class="cls-1" x1="520.23" y1="298.31" x2="520.23" y2="307.86"/><line class="cls-1" x1="544.21" y1="317.63" x2="582.64" y2="317.77"/><line class="cls-1" x1="582.64" y1="317.77" x2="582.59" y2="332.23"/><line class="cls-1" x1="582.59" y1="332.23" x2="544.16" y2="332.09"/><line class="cls-1" x1="544.16" y1="332.09" x2="544.21" y2="317.63"/><line class="cls-1" x1="584.13" y1="332.4" x2="594.98" y2="332.28"/><line class="cls-1" x1="594.98" y1="332.28" x2="594.86" y2="321.77"/><line class="cls-1" x1="594.86" y1="321.77" x2="584.01" y2="321.9"/><line class="cls-1" x1="584.01" y1="321.9" x2="584.13" y2="332.4"/><line class="cls-1" x1="399.42" y1="347.34" x2="378.08" y2="368.67"/><line class="cls-1" x1="378.08" y1="368.67" x2="395.42" y2="386"/><line class="cls-1" x1="395.42" y1="386" x2="416.75" y2="364.67"/><line class="cls-1" x1="416.75" y1="364.67" x2="399.42" y2="347.34"/><line class="cls-1" x1="268.03" y1="537.15" x2="241.73" y2="563.45"/><line class="cls-1" x1="241.73" y1="563.45" x2="265.54" y2="587.26"/><line class="cls-1" x1="265.54" y1="587.26" x2="291.84" y2="560.96"/><line class="cls-1" x1="291.84" y1="560.96" x2="268.03" y2="537.15"/><line class="cls-1" x1="227.33" y1="601.28" x2="195.46" y2="633.15"/><line class="cls-1" x1="195.46" y1="633.15" x2="213.31" y2="651"/><line class="cls-1" x1="213.31" y1="651" x2="245.18" y2="619.13"/><line class="cls-1" x1="245.18" y1="619.13" x2="227.33" y2="601.28"/><line class="cls-1" x1="200.06" y1="586.3" x2="227.14" y2="559.23"/><line class="cls-1" x1="227.14" y1="559.23" x2="244.42" y2="576.51"/><line class="cls-1" x1="244.42" y1="576.51" x2="217.34" y2="603.58"/><line class="cls-1" x1="217.34" y1="603.58" x2="200.06" y2="586.3"/><line class="cls-1" x1="177.79" y1="622.4" x2="161.67" y2="638.53"/><line class="cls-1" x1="161.67" y1="638.53" x2="181.83" y2="658.69"/><line class="cls-1" x1="181.83" y1="658.69" x2="197.95" y2="642.56"/><line class="cls-1" x1="197.95" y1="642.56" x2="177.79" y2="622.4"/><line class="cls-1" x1="187.56" y1="743.23" x2="216.52" y2="714.27"/><line class="cls-1" x1="216.52" y1="714.27" x2="226.76" y2="724.51"/><line class="cls-1" x1="226.76" y1="724.51" x2="197.8" y2="753.47"/><line class="cls-1" x1="197.8" y1="753.47" x2="187.56" y2="743.23"/><line class="cls-1" x1="227.56" y1="702.91" x2="287.88" y2="642.59"/><line class="cls-1" x1="287.88" y1="642.59" x2="298.28" y2="652.99"/><line class="cls-1" x1="298.28" y1="652.99" x2="237.96" y2="713.32"/><line class="cls-1" x1="237.96" y1="713.32" x2="227.56" y2="702.91"/><line class="cls-1" x1="294.12" y1="636.35" x2="330.12" y2="600.35"/><line class="cls-1" x1="330.12" y1="600.35" x2="340.51" y2="610.75"/><line class="cls-1" x1="340.51" y1="610.75" x2="304.51" y2="646.75"/><line class="cls-1" x1="304.51" y1="646.75" x2="294.12" y2="636.35"/><line class="cls-1" x1="316.68" y1="658.92" x2="352.68" y2="622.92"/><line class="cls-1" x1="352.68" y1="622.92" x2="363.08" y2="633.31"/><line class="cls-1" x1="363.08" y1="633.31" x2="327.08" y2="669.31"/><line class="cls-1" x1="327.08" y1="669.31" x2="316.68" y2="658.92"/><line class="cls-1" x1="337.96" y1="680.2" x2="373.96" y2="644.19"/><line class="cls-1" x1="373.96" y1="644.19" x2="384.36" y2="654.6"/><line class="cls-1" x1="384.36" y1="654.6" x2="348.36" y2="690.6"/><line class="cls-1" x1="348.36" y1="690.6" x2="337.96" y2="680.2"/><line class="cls-1" x1="371.87" y1="714.11" x2="407.87" y2="678.11"/><line class="cls-1" x1="407.87" y1="678.11" x2="418.28" y2="688.51"/><line class="cls-1" x1="418.28" y1="688.51" x2="382.28" y2="724.51"/><line class="cls-1" x1="382.28" y1="724.51" x2="371.87" y2="714.11"/><line class="cls-1" x1="393.47" y1="735.71" x2="429.47" y2="699.71"/><line class="cls-1" x1="429.47" y1="699.71" x2="439.88" y2="710.11"/><line class="cls-1" x1="439.88" y1="710.11" x2="403.88" y2="746.11"/><line class="cls-1" x1="403.88" y1="746.11" x2="393.47" y2="735.71"/><line class="cls-1" x1="274.44" y1="701.15" x2="310.44" y2="665.15"/><line class="cls-1" x1="310.44" y1="665.15" x2="320.84" y2="675.55"/><line class="cls-1" x1="320.84" y1="675.55" x2="284.84" y2="711.55"/><line class="cls-1" x1="284.84" y1="711.55" x2="274.44" y2="701.15"/><line class="cls-1" x1="295.72" y1="722.43" x2="331.72" y2="686.43"/><line class="cls-1" x1="331.72" y1="686.43" x2="342.12" y2="696.83"/><line class="cls-1" x1="342.12" y1="696.83" x2="306.12" y2="732.83"/><line class="cls-1" x1="306.12" y1="732.83" x2="295.72" y2="722.43"/><line class="cls-1" x1="329.64" y1="756.35" x2="365.64" y2="720.35"/><line class="cls-1" x1="365.64" y1="720.35" x2="376.04" y2="730.75"/><line class="cls-1" x1="376.04" y1="730.75" x2="340.04" y2="766.75"/><line class="cls-1" x1="340.04" y1="766.75" x2="329.64" y2="756.35"/><line class="cls-1" x1="351.24" y1="777.95" x2="387.24" y2="741.95"/><line class="cls-1" x1="387.24" y1="741.95" x2="397.64" y2="752.35"/><line class="cls-1" x1="397.64" y1="752.35" x2="361.64" y2="788.35"/><line class="cls-1" x1="361.64" y1="788.35" x2="351.24" y2="777.95"/><line class="cls-1" x1="250.12" y1="725.47" x2="269.16" y2="706.43"/><line class="cls-1" x1="269.16" y1="706.43" x2="279.56" y2="716.83"/><line class="cls-1" x1="279.56" y1="716.83" x2="260.52" y2="735.87"/><line class="cls-1" x1="260.52" y1="735.87" x2="250.12" y2="725.47"/><line class="cls-1" x1="271.4" y1="746.75" x2="290.44" y2="727.72"/><line class="cls-1" x1="290.44" y1="727.72" x2="300.84" y2="738.11"/><line class="cls-1" x1="300.84" y1="738.11" x2="281.8" y2="757.15"/><line class="cls-1" x1="281.8" y1="757.15" x2="271.4" y2="746.75"/><line class="cls-1" x1="279.06" y1="800.76" x2="302.1" y2="777.71"/><line class="cls-1" x1="302.1" y1="777.71" x2="312.5" y2="788.11"/><line class="cls-1" x1="312.5" y1="788.11" x2="289.46" y2="811.16"/><line class="cls-1" x1="289.46" y1="811.16" x2="279.06" y2="800.76"/><line class="cls-1" x1="310.54" y1="816.69" x2="333.58" y2="793.64"/><line class="cls-1" x1="333.58" y1="793.64" x2="343.98" y2="804.04"/><line class="cls-1" x1="343.98" y1="804.04" x2="320.94" y2="827.08"/><line class="cls-1" x1="320.94" y1="827.08" x2="310.54" y2="816.69"/><line class="cls-1" x1="340.52" y1="830.59" x2="363.03" y2="808.08"/><line class="cls-1" x1="363.03" y1="808.08" x2="373.43" y2="818.48"/><line class="cls-1" x1="373.43" y1="818.48" x2="361.32" y2="830.59"/><line class="cls-1" x1="537.39" y1="614.44" x2="569.43" y2="643.14"/><line class="cls-1" x1="569.43" y1="643.14" x2="559.32" y2="654.42"/><line class="cls-1" x1="559.32" y1="654.42" x2="527.29" y2="625.72"/><line class="cls-1" x1="527.29" y1="625.72" x2="537.39" y2="614.44"/><line class="cls-1" x1="543.78" y1="681.47" x2="512.05" y2="718.27"/><line class="cls-1" x1="512.05" y1="718.27" x2="499.19" y2="707.19"/><line class="cls-1" x1="499.19" y1="707.19" x2="530.92" y2="670.39"/><line class="cls-1" x1="530.92" y1="670.39" x2="543.78" y2="681.47"/><line class="cls-1" x1="666.39" y1="571.11" x2="610.39" y2="619.78"/><line class="cls-1" x1="610.39" y1="619.78" x2="601.71" y2="609.79"/><line class="cls-1" x1="601.71" y1="609.79" x2="657.71" y2="561.12"/><line class="cls-1" x1="657.71" y1="561.12" x2="666.39" y2="571.11"/><line class="cls-1" x1="691.65" y1="465.88" x2="728.9" y2="508.88"/><line class="cls-1" x1="728.9" y1="508.88" x2="716.71" y2="519.44"/><line class="cls-1" x1="716.71" y1="519.44" x2="679.46" y2="476.44"/><line class="cls-1" x1="679.46" y1="476.44" x2="691.65" y2="465.88"/><line class="cls-1" x1="716.92" y1="412.9" x2="769.56" y2="473.67"/><line class="cls-1" x1="769.56" y1="473.67" x2="757.36" y2="484.24"/><line class="cls-1" x1="757.36" y1="484.24" x2="704.73" y2="423.46"/><line class="cls-1" x1="704.73" y1="423.46" x2="716.92" y2="412.9"/><line class="cls-1" x1="744.87" y1="361.16" x2="804.46" y2="429.97"/><line class="cls-1" x1="804.46" y1="429.97" x2="792.26" y2="440.53"/><line class="cls-1" x1="792.26" y1="440.53" x2="732.67" y2="371.73"/><line class="cls-1" x1="732.67" y1="371.73" x2="744.87" y2="361.16"/><line class="cls-1" x1="781.73" y1="318.92" x2="841.32" y2="387.73"/><line class="cls-1" x1="841.32" y1="387.73" x2="829.13" y2="398.29"/><line class="cls-1" x1="829.13" y1="398.29" x2="769.54" y2="329.49"/><line class="cls-1" x1="769.54" y1="329.49" x2="781.73" y2="318.92"/><line class="cls-1" x1="664.35" y1="650.02" x2="706.95" y2="618.08"/><line class="cls-1" x1="706.95" y1="618.08" x2="697.5" y2="605.48"/><line class="cls-1" x1="697.5" y1="605.48" x2="654.91" y2="637.43"/><line class="cls-1" x1="654.91" y1="637.43" x2="664.35" y2="650.02"/><line class="cls-1" x1="720.14" y1="636.08" x2="753.93" y2="683.69"/><line class="cls-1" x1="753.93" y1="683.69" x2="743.78" y2="690.9"/><line class="cls-1" x1="743.78" y1="690.9" x2="709.99" y2="643.28"/><line class="cls-1" x1="709.99" y1="643.28" x2="720.14" y2="636.08"/><line class="cls-1" x1="773.9" y1="651.43" x2="851.85" y2="593.45"/><line class="cls-1" x1="851.85" y1="593.45" x2="843.51" y2="582.24"/><line class="cls-1" x1="843.51" y1="582.24" x2="765.56" y2="640.23"/><line class="cls-1" x1="765.56" y1="640.23" x2="773.9" y2="651.43"/><line class="cls-1" x1="708.06" y1="758.71" x2="775.34" y2="709.41"/><line class="cls-1" x1="775.34" y1="709.41" x2="782.97" y2="719.82"/><line class="cls-1" x1="782.97" y1="719.82" x2="715.69" y2="769.13"/><line class="cls-1" x1="715.69" y1="769.13" x2="708.06" y2="758.71"/><line class="cls-1" x1="883.13" y1="435.96" x2="925.75" y2="486.64"/><line class="cls-1" x1="925.75" y1="486.64" x2="915.1" y2="495.61"/><line class="cls-1" x1="915.1" y1="495.61" x2="872.47" y2="444.92"/><line class="cls-1" x1="872.47" y1="444.92" x2="883.13" y2="435.96"/><line class="cls-1" x1="936.12" y1="493.94" x2="957.43" y2="515.25"/><line class="cls-1" x1="957.43" y1="515.25" x2="947.84" y2="524.85"/><line class="cls-1" x1="947.84" y1="524.85" x2="926.52" y2="503.54"/><line class="cls-1" x1="926.52" y1="503.54" x2="936.12" y2="493.94"/><line class="cls-1" x1="831.67" y1="478.96" x2="855.29" y2="455.35"/><line class="cls-1" x1="855.29" y1="455.35" x2="866.04" y2="466.1"/><line class="cls-1" x1="866.04" y1="466.1" x2="842.43" y2="489.71"/><line class="cls-1" x1="842.43" y1="489.71" x2="831.67" y2="478.96"/><line class="cls-1" x1="863.55" y1="512.76" x2="903.48" y2="559.6"/><line class="cls-1" x1="903.48" y1="559.6" x2="913.95" y2="550.68"/><line class="cls-1" x1="913.95" y1="550.68" x2="874.02" y2="503.83"/><line class="cls-1" x1="874.02" y1="503.83" x2="863.55" y2="512.76"/><line class="cls-1" x1="911.37" y1="410.57" x2="952.92" y2="461.01"/><line class="cls-1" x1="952.92" y1="461.01" x2="963.88" y2="451.98"/><line class="cls-1" x1="963.88" y1="451.98" x2="922.32" y2="401.54"/><line class="cls-1" x1="922.32" y1="401.54" x2="911.37" y2="410.57"/><line class="cls-1" x1="823.54" y1="282.9" x2="884.43" y2="354.01"/><line class="cls-1" x1="884.43" y1="354.01" x2="873.02" y2="363.78"/><line class="cls-1" x1="873.02" y1="363.78" x2="812.13" y2="292.67"/><line class="cls-1" x1="812.13" y1="292.67" x2="823.54" y2="282.9"/><line class="cls-1" x1="838.43" y1="257.12" x2="869.21" y2="287.9"/><line class="cls-1" x1="869.21" y1="287.9" x2="877.87" y2="279.23"/><line class="cls-1" x1="877.87" y1="279.23" x2="847.1" y2="248.46"/><line class="cls-1" x1="847.1" y1="248.46" x2="838.43" y2="257.12"/><line class="cls-1" x1="721.89" y1="54.93" x2="718.43" y2="119.2"/><line class="cls-1" x1="718.43" y1="119.2" x2="702.74" y2="118.35"/><line class="cls-1" x1="702.74" y1="118.35" x2="706.21" y2="54.09"/><line class="cls-1" x1="706.21" y1="54.09" x2="721.89" y2="54.93"/><line class="cls-1" x1="798.65" y1="164.33" x2="796.79" y2="204.6"/><line class="cls-1" x1="796.79" y1="204.6" x2="783.65" y2="203.99"/><line class="cls-1" x1="783.65" y1="203.99" x2="785.52" y2="163.72"/><line class="cls-1" x1="785.52" y1="163.72" x2="798.65" y2="164.33"/><line class="cls-1" x1="773.89" y1="117.41" x2="771.63" y2="166.1"/><line class="cls-1" x1="771.63" y1="166.1" x2="758.18" y2="165.47"/><line class="cls-1" x1="758.18" y1="165.47" x2="760.43" y2="116.79"/><line class="cls-1" x1="760.43" y1="116.79" x2="773.89" y2="117.41"/><line class="cls-1" x1="540.18" y1="71.06" x2="570" y2="102.54"/><line class="cls-1" x1="570" y1="102.54" x2="581.38" y2="91.77"/><line class="cls-1" x1="581.38" y1="91.77" x2="551.56" y2="60.29"/><line class="cls-1" x1="551.56" y1="60.29" x2="540.18" y2="71.06"/><line class="cls-1" x1="585.92" y1="94.77" x2="574.44" y2="106.25"/><line class="cls-1" x1="574.44" y1="106.25" x2="586.05" y2="117.86"/><line class="cls-1" x1="586.05" y1="117.86" x2="597.53" y2="106.37"/><line class="cls-1" x1="597.53" y1="106.37" x2="585.92" y2="94.77"/><line class="cls-1" x1="899.08" y1="352.27" x2="868.79" y2="316.9"/><line class="cls-1" x1="868.79" y1="316.9" x2="920.57" y2="272.57"/><line class="cls-1" x1="920.57" y1="272.57" x2="950.85" y2="307.94"/><line class="cls-1" x1="950.85" y1="307.94" x2="940.86" y2="316.5"/><line class="cls-1" x1="940.86" y1="316.5" x2="919.76" y2="291.85"/><line class="cls-1" x1="919.76" y1="291.85" x2="888.76" y2="318.39"/><line class="cls-1" x1="888.76" y1="318.39" x2="909.87" y2="343.04"/><line class="cls-1" x1="909.87" y1="343.04" x2="899.08" y2="352.27"/><line class="cls-1" x1="263.15" y1="475.9" x2="280.26" y2="456.35"/><line class="cls-1" x1="280.26" y1="456.35" x2="290.01" y2="464.89"/><line class="cls-1" x1="290.01" y1="464.89" x2="272.9" y2="484.44"/><line class="cls-1" x1="272.9" y1="484.44" x2="263.15" y2="475.9"/><line class="cls-1" x1="290.93" y1="473.24" x2="308.04" y2="453.68"/><line class="cls-1" x1="308.04" y1="453.68" x2="317.79" y2="462.22"/><line class="cls-1" x1="317.79" y1="462.22" x2="300.68" y2="481.78"/><line class="cls-1" x1="300.68" y1="481.78" x2="290.93" y2="473.24"/><line class="cls-1" x1="214.55" y1="762.64" x2="233.37" y2="772.63"/><line class="cls-1" x1="233.37" y1="772.63" x2="227.82" y2="783.08"/><line class="cls-1" x1="227.82" y1="783.08" x2="209" y2="773.1"/><line class="cls-1" x1="209" y1="773.1" x2="214.55" y2="762.64"/><line class="cls-1" x1="384.53" y1="792.9" x2="401.75" y2="810.12"/><line class="cls-1" x1="401.75" y1="810.12" x2="394.87" y2="817.01"/><line class="cls-1" x1="394.87" y1="817.01" x2="377.64" y2="799.79"/><line class="cls-1" x1="377.64" y1="799.79" x2="384.53" y2="792.9"/><line class="cls-1" x1="384.7" y1="830.59" x2="390.8" y2="824.49"/><line class="cls-1" x1="390.8" y1="824.49" x2="396.9" y2="830.59"/><line class="cls-1" x1="424.15" y1="778.16" x2="439.21" y2="763.09"/><line class="cls-1" x1="439.21" y1="763.09" x2="430.15" y2="754.03"/><line class="cls-1" x1="430.15" y1="754.03" x2="415.08" y2="769.1"/><line class="cls-1" x1="415.08" y1="769.1" x2="424.15" y2="778.16"/><line class="cls-1" x1="411.61" y1="806.43" x2="423.35" y2="794.69"/><line class="cls-1" x1="423.35" y1="794.69" x2="431.08" y2="802.43"/><line class="cls-1" x1="431.08" y1="802.43" x2="419.35" y2="814.16"/><line class="cls-1" x1="419.35" y1="814.16" x2="411.61" y2="806.43"/><line class="cls-1" x1="456.68" y1="734.69" x2="462.68" y2="728.7"/><line class="cls-1" x1="462.68" y1="728.7" x2="467.61" y2="733.63"/><line class="cls-1" x1="467.61" y1="733.63" x2="461.61" y2="739.63"/><line class="cls-1" x1="461.61" y1="739.63" x2="456.68" y2="734.69"/><line class="cls-1" x1="481.48" y1="755.49" x2="441.61" y2="795.36"/><line class="cls-1" x1="441.61" y1="795.36" x2="450.01" y2="803.76"/><line class="cls-1" x1="450.01" y1="803.76" x2="489.88" y2="763.89"/><line class="cls-1" x1="489.88" y1="763.89" x2="481.48" y2="755.49"/><line class="cls-1" x1="667.39" y1="684.93" x2="638.22" y2="708.32"/><line class="cls-1" x1="638.22" y1="708.32" x2="646.25" y2="718.33"/><line class="cls-1" x1="646.25" y1="718.33" x2="675.41" y2="694.94"/><line class="cls-1" x1="675.41" y1="694.94" x2="667.39" y2="684.93"/><line class="cls-1" x1="695.26" y1="659.39" x2="665.83" y2="682.99"/><line class="cls-1" x1="665.83" y1="682.99" x2="673.86" y2="692.99"/><line class="cls-1" x1="673.86" y1="692.99" x2="703.29" y2="669.39"/><line class="cls-1" x1="703.29" y1="669.39" x2="695.26" y2="659.39"/><line class="cls-1" x1="810.73" y1="698.13" x2="887.91" y2="643.22"/><line class="cls-1" x1="887.91" y1="643.22" x2="875.75" y2="626.12"/><line class="cls-1" x1="875.75" y1="626.12" x2="798.56" y2="681.03"/><line class="cls-1" x1="798.56" y1="681.03" x2="810.73" y2="698.13"/><line class="cls-1" x1="744.74" y1="808.76" x2="812.02" y2="759.46"/><line class="cls-1" x1="812.02" y1="759.46" x2="819.65" y2="769.87"/><line class="cls-1" x1="819.65" y1="769.87" x2="752.37" y2="819.18"/><line class="cls-1" x1="752.37" y1="819.18" x2="744.74" y2="808.76"/><line class="cls-1" x1="839.57" y1="739.27" x2="913.62" y2="685"/><line class="cls-1" x1="913.62" y1="685" x2="921.25" y2="695.41"/><line class="cls-1" x1="921.25" y1="695.41" x2="847.2" y2="749.68"/><line class="cls-1" x1="847.2" y1="749.68" x2="839.57" y2="739.27"/><line class="cls-1" x1="876.22" y1="789.28" x2="950.27" y2="735.01"/><line class="cls-1" x1="950.27" y1="735.01" x2="957.9" y2="745.42"/><line class="cls-1" x1="957.9" y1="745.42" x2="883.85" y2="799.69"/><line class="cls-1" x1="883.85" y1="799.69" x2="876.22" y2="789.28"/><line class="cls-1" x1="915.61" y1="830.59" x2="983.73" y2="780.67"/><line class="cls-1" x1="983.73" y1="780.67" x2="991.36" y2="791.08"/><line class="cls-1" x1="991.36" y1="791.08" x2="937.45" y2="830.59"/><line class="cls-1" x1="976.83" y1="729.14" x2="933.69" y2="670.29"/><line class="cls-1" x1="933.69" y1="670.29" x2="944.21" y2="662.58"/><line class="cls-1" x1="944.21" y1="662.58" x2="987.34" y2="721.44"/><line class="cls-1" x1="987.34" y1="721.44" x2="976.83" y2="729.14"/><line class="cls-1" x1="834.08" y1="794.65" x2="860.42" y2="830.59"/><line class="cls-1" x1="840.56" y1="830.59" x2="821.16" y2="804.12"/><line class="cls-1" x1="821.16" y1="804.12" x2="834.08" y2="794.65"/><line class="cls-1" x1="14" y1="729.76" x2=".12" y2="743.64"/><line class="cls-1" x1=".12" y1="757.08" x2="20.72" y2="736.48"/><line class="cls-1" x1="20.72" y1="736.48" x2="14" y2="729.76"/><line class="cls-1" x1="47.28" y1="746.72" x2="16.72" y2="777.28"/><line class="cls-1" x1="16.72" y1="777.28" x2="37.04" y2="797.6"/><line class="cls-1" x1="37.04" y1="797.6" x2="67.6" y2="767.04"/><line class="cls-1" x1="67.6" y1="767.04" x2="47.28" y2="746.72"/><line class="cls-1" x1="176" y1="799" x2="151.04" y2="820.12"/><line class="cls-1" x1="151.04" y1="820.12" x2="159.9" y2="830.59"/><line class="cls-1" x1="163.48" y1="830.59" x2="186.36" y2="811.24"/><line class="cls-1" x1="186.36" y1="811.24" x2="176" y2="799"/><line class="cls-1" x1="209.6" y1="795.8" x2="230.08" y2="819.16"/><line class="cls-1" x1="230.08" y1="819.16" x2="218.07" y2="829.7"/><line class="cls-1" x1="218.07" y1="829.7" x2="197.59" y2="806.34"/><line class="cls-1" x1="197.59" y1="806.34" x2="209.6" y2="795.8"/><line class="cls-1" x1="64.83" y1="649.59" x2="75.2" y2="681.84"/><line class="cls-1" x1="75.2" y1="681.84" x2="93.06" y2="676.1"/><line class="cls-1" x1="93.06" y1="676.1" x2="82.7" y2="643.85"/><line class="cls-1" x1="82.7" y1="643.85" x2="64.83" y2="649.59"/><line class="cls-1" x1="135.11" y1="687.6" x2="144.71" y2="716.4"/><line class="cls-1" x1="144.71" y1="716.4" x2="159.11" y2="711.61"/><line class="cls-1" x1="159.11" y1="711.61" x2="149.51" y2="682.81"/><line class="cls-1" x1="149.51" y1="682.81" x2="135.11" y2="687.6"/><line class="cls-1" x1="1.47" y1="615.8" x2="6.85" y2="651.89"/><line class="cls-1" x1="6.85" y1="651.89" x2="28.09" y2="648.73"/><line class="cls-1" x1="28.09" y1="648.73" x2="22.72" y2="612.63"/><line class="cls-1" x1="22.72" y1="612.63" x2="1.47" y2="615.8"/><line class="cls-1" x1="112.54" y1="145.91" x2="124.7" y2="158.07"/><line class="cls-1" x1="124.7" y1="158.07" x2="116.86" y2="165.91"/><line class="cls-1" x1="116.86" y1="165.91" x2="104.7" y2="153.75"/><line class="cls-1" x1="104.7" y1="153.75" x2="112.54" y2="145.91"/><line class="cls-1" x1="96.54" y1="172.79" x2="88.06" y2="181.27"/><line class="cls-1" x1="88.06" y1="181.27" x2="95.1" y2="188.31"/><line class="cls-1" x1="95.1" y1="188.31" x2="103.58" y2="179.83"/><line class="cls-1" x1="103.58" y1="179.83" x2="96.54" y2="172.79"/><line class="cls-1" x1="202.71" y1="38.52" x2="196.49" y2="47.86"/><line class="cls-1" x1="196.49" y1="47.86" x2="202.71" y2="52"/><line class="cls-1" x1="202.71" y1="52" x2="208.94" y2="42.67"/><line class="cls-1" x1="208.94" y1="42.67" x2="202.71" y2="38.52"/><line class="cls-1" x1="201.11" y1="50.93" x2="194.99" y2="60.11"/><line class="cls-1" x1="194.99" y1="60.11" x2="188.27" y2="55.63"/><line class="cls-1" x1="188.27" y1="55.63" x2="194.39" y2="46.45"/><line class="cls-1" x1="194.39" y1="46.45" x2="201.11" y2="50.93"/><line class="cls-1" x1="289.13" y1="336.1" x2="349.5" y2="396.46"/><line class="cls-1" x1="349.5" y1="396.46" x2="362.17" y2="383.79"/><line class="cls-1" x1="362.17" y1="383.79" x2="301.81" y2="323.43"/><line class="cls-1" x1="301.81" y1="323.43" x2="289.13" y2="336.1"/><line class="cls-1" x1="802.29" y1="137.31" x2="851.25" y2="142.75"/><line class="cls-1" x1="851.25" y1="142.75" x2="882.61" y2="115.55"/><line class="cls-1" x1="882.61" y1="115.55" x2="874.9" y2="106.66"/><line class="cls-1" x1="874.9" y1="106.66" x2="848.37" y2="129.68"/><line class="cls-1" x1="848.37" y1="129.68" x2="803.69" y2="124.71"/><line class="cls-1" x1="803.69" y1="124.71" x2="802.29" y2="137.31"/><line class="cls-1" x1="871.59" y1="46.25" x2="910.63" y2="47.86"/><line class="cls-1" x1="910.63" y1="47.86" x2="911.58" y2="24.75"/><line class="cls-1" x1="911.58" y1="24.75" x2="872.54" y2="23.15"/><line class="cls-1" x1="872.54" y1="23.15" x2="871.59" y2="46.25"/><line class="cls-1" x1="1054.59" y1="43.32" x2="1098.11" y2="91.32"/><line class="cls-1" x1="1098.11" y1="91.32" x2="1108" y2="82.36"/><line class="cls-1" x1="1108" y1="82.36" x2="1064.48" y2="34.36"/><line class="cls-1" x1="1064.48" y1="34.36" x2="1054.59" y2="43.32"/><line class="cls-1" x1="1088.83" y1=".12" x2="1148.67" y2="70.2"/><line class="cls-1" x1="1148.67" y1="70.2" x2="1135.63" y2="81.34"/><line class="cls-1" x1="1135.63" y1="81.34" x2="1075.79" y2="11.26"/><line class="cls-1" x1="1075.79" y1="11.26" x2="1088.83" y2=".12"/><line class="cls-1" x1="966.9" y1="185.41" x2="1020.98" y2="251.33"/><line class="cls-1" x1="1020.98" y1="251.33" x2="1033.12" y2="241.36"/><line class="cls-1" x1="1033.12" y1="241.36" x2="979.05" y2="175.44"/><line class="cls-1" x1="979.05" y1="175.44" x2="966.9" y2="185.41"/><line class="cls-1" x1="902.58" y1="215.81" x2="963.38" y2="285.25"/><line class="cls-1" x1="963.38" y1="285.25" x2="973.01" y2="276.82"/><line class="cls-1" x1="973.01" y1="276.82" x2="912.21" y2="207.38"/><line class="cls-1" x1="912.21" y1="207.38" x2="902.58" y2="215.81"/><line class="cls-1" x1="937.46" y1="218.05" x2="950.74" y2="231.33"/><line class="cls-1" x1="950.74" y1="231.33" x2="975.54" y2="206.53"/><line class="cls-1" x1="975.54" y1="206.53" x2="962.26" y2="193.25"/><line class="cls-1" x1="962.26" y1="193.25" x2="937.46" y2="218.05"/><line class="cls-1" x1="1041.78" y1="150.21" x2="1059.06" y2="167.49"/><line class="cls-1" x1="1059.06" y1="167.49" x2="1068.98" y2="157.57"/><line class="cls-1" x1="1068.98" y1="157.57" x2="1051.7" y2="140.29"/><line class="cls-1" x1="1051.7" y1="140.29" x2="1041.78" y2="150.21"/><line class="cls-1" x1="1063.54" y1="199.49" x2="1105.78" y2="162.37"/><line class="cls-1" x1="1105.78" y1="162.37" x2="1114.17" y2="171.91"/><line class="cls-1" x1="1114.17" y1="171.91" x2="1071.93" y2="209.03"/><line class="cls-1" x1="1071.93" y1="209.03" x2="1063.54" y2="199.49"/><line class="cls-1" x1="1110.9" y1="255.81" x2="1153.46" y2="219.33"/><line class="cls-1" x1="1153.46" y1="219.33" x2="1142.26" y2="206.25"/><line class="cls-1" x1="1142.26" y1="206.25" x2="1099.7" y2="242.73"/><line class="cls-1" x1="1099.7" y1="242.73" x2="1110.9" y2="255.81"/><line class="cls-1" x1="960.99" y1="369.68" x2="1002.55" y2="420.13"/><line class="cls-1" x1="1002.55" y1="420.13" x2="1013.51" y2="411.1"/><line class="cls-1" x1="1013.51" y1="411.1" x2="971.95" y2="360.66"/><line class="cls-1" x1="971.95" y1="360.66" x2="960.99" y2="369.68"/><line class="cls-1" x1="1002.85" y1="335.2" x2="1044.4" y2="385.65"/><line class="cls-1" x1="1044.4" y1="385.65" x2="1055.36" y2="376.62"/><line class="cls-1" x1="1055.36" y1="376.62" x2="1013.81" y2="326.17"/><line class="cls-1" x1="1013.81" y1="326.17" x2="1002.85" y2="335.2"/><line class="cls-1" x1="1056.19" y1="291.26" x2="1097.74" y2="341.71"/><line class="cls-1" x1="1097.74" y1="341.71" x2="1108.7" y2="332.68"/><line class="cls-1" x1="1108.7" y1="332.68" x2="1067.14" y2="282.24"/><line class="cls-1" x1="1067.14" y1="282.24" x2="1056.19" y2="291.26"/><line class="cls-1" x1="1069.76" y1="414.9" x2="1132.42" y2="361.84"/><line class="cls-1" x1="1132.42" y1="361.84" x2="1123.06" y2="350.78"/><line class="cls-1" x1="1123.06" y1="350.78" x2="1060.4" y2="403.85"/><line class="cls-1" x1="1060.4" y1="403.85" x2="1069.76" y2="414.9"/><line class="cls-1" x1="979.93" y1="490.97" x2="1042.6" y2="437.9"/><line class="cls-1" x1="1042.6" y1="437.9" x2="1033.24" y2="426.85"/><line class="cls-1" x1="1033.24" y1="426.85" x2="970.57" y2="479.91"/><line class="cls-1" x1="970.57" y1="479.91" x2="979.93" y2="490.97"/><line class="cls-1" x1="1068.46" y1="462.66" x2="1081.4" y2="449.73"/><line class="cls-1" x1="1081.4" y1="449.73" x2="1094.33" y2="462.66"/><line class="cls-1" x1="1094.33" y1="462.66" x2="1081.4" y2="475.6"/><line class="cls-1" x1="1081.4" y1="475.6" x2="1068.46" y2="462.66"/><line class="cls-1" x1="1077.8" y1="484.26" x2="1125.13" y2="436.93"/><line class="cls-1" x1="1125.13" y1="436.93" x2="1133" y2="444.8"/><line class="cls-1" x1="1133" y1="444.8" x2="1085.67" y2="492.13"/><line class="cls-1" x1="1085.67" y1="492.13" x2="1077.8" y2="484.26"/><line class="cls-1" x1="1072.55" y1="584.53" x2="1110.95" y2="554.67"/><line class="cls-1" x1="1110.95" y1="554.67" x2="1108.82" y2="551.93"/><line class="cls-1" x1="1108.82" y1="551.93" x2="1130.22" y2="535.29"/><line class="cls-1" x1="1130.22" y1="535.29" x2="1122.55" y2="525.43"/><line class="cls-1" x1="1122.55" y1="525.43" x2="1095.1" y2="546.78"/><line class="cls-1" x1="1095.1" y1="546.78" x2="1096.92" y2="549.13"/><line class="cls-1" x1="1096.92" y1="549.13" x2="1064.58" y2="574.29"/><line class="cls-1" x1="1064.58" y1="574.29" x2="1072.55" y2="584.53"/><line class="cls-1" x1="1038.37" y1="592.01" x2="1033.7" y2="584.68"/><line class="cls-1" x1="1033.7" y1="584.68" x2="1053.78" y2="571.9"/><line class="cls-1" x1="1053.78" y1="571.9" x2="1066.68" y2="592.18"/><line class="cls-1" x1="1066.68" y1="592.18" x2="1060.44" y2="596.15"/><line class="cls-1" x1="1060.44" y1="596.15" x2="1065.32" y2="603.83"/><line class="cls-1" x1="1065.32" y1="603.83" x2="1053.61" y2="611.28"/><line class="cls-1" x1="1053.61" y1="611.28" x2="1069.64" y2="636.48"/><line class="cls-1" x1="1069.64" y1="636.48" x2="1039.84" y2="655.43"/><line class="cls-1" x1="1039.84" y1="655.43" x2="1018.13" y2="623.82"/><line class="cls-1" x1="1018.13" y1="623.82" x2="1039.27" y2="609.3"/><line class="cls-1" x1="1039.27" y1="609.3" x2="1031.61" y2="598.14"/><line class="cls-1" x1="1031.61" y1="598.14" x2="1039.2" y2="593.31"/><line class="cls-1" x1="1039.2" y1="593.31" x2="1038.37" y2="592.01"/><line class="cls-1" x1="994.05" y1="670.91" x2="977.73" y2="649.47"/><line class="cls-1" x1="977.73" y1="649.47" x2="989.08" y2="640.83"/><line class="cls-1" x1="989.08" y1="640.83" x2="1005.4" y2="662.27"/><line class="cls-1" x1="1005.4" y1="662.27" x2="994.05" y2="670.91"/><line class="cls-1" x1="1016.07" y1="760.6" x2="1058.64" y2="818.2"/><line class="cls-1" x1="1058.64" y1="818.2" x2="1046.8" y2="826.95"/><line class="cls-1" x1="1046.8" y1="826.95" x2="1004.24" y2="769.35"/><line class="cls-1" x1="1004.24" y1="769.35" x2="1016.07" y2="760.6"/><line class="cls-1" x1="1108.29" y1="699.56" x2="1060.36" y2="734.58"/><line class="cls-1" x1="1060.36" y1="734.58" x2="1086.87" y2="770.86"/><line class="cls-1" x1="1086.87" y1="770.86" x2="1134.8" y2="735.84"/><line class="cls-1" x1="1134.8" y1="735.84" x2="1108.29" y2="699.56"/><line class="cls-1" x1="644.71" y1="729.34" x2="618.58" y2="755.47"/><line class="cls-1" x1="618.58" y1="755.47" x2="629.91" y2="766.8"/><line class="cls-1" x1="629.91" y1="766.8" x2="656.05" y2="740.67"/><line class="cls-1" x1="656.05" y1="740.67" x2="644.71" y2="729.34"/><line class="cls-1" x1="676.08" y1="794.73" x2="657.28" y2="813.53"/><line class="cls-1" x1="657.28" y1="813.53" x2="664.48" y2="820.73"/><line class="cls-1" x1="664.48" y1="820.73" x2="683.28" y2="801.93"/><line class="cls-1" x1="683.28" y1="801.93" x2="676.08" y2="794.73"/><line class="cls-1" x1="550.95" y1="808.76" x2="570.95" y2="828.76"/><line class="cls-1" x1="570.95" y1="828.76" x2="581.67" y2="818.04"/><line class="cls-1" x1="581.67" y1="818.04" x2="561.67" y2="798.04"/><line class="cls-1" x1="561.67" y1="798.04" x2="550.95" y2="808.76"/><line class="cls-1" x1="464.55" y1="816.12" x2="480.07" y2="800.6"/><line class="cls-1" x1="480.07" y1="800.6" x2="497.99" y2="818.52"/><line class="cls-1" x1="497.99" y1="818.52" x2="485.92" y2="830.59"/><line class="cls-1" x1="479.03" y1="830.59" x2="464.55" y2="816.12"/><line class="cls-1" x1="444.39" y1="830.2" x2="444" y2="830.59"/><line class="cls-1" x1="444.79" y1="830.59" x2="444.39" y2="830.2"/><line class="cls-1" x1="529.83" y1="782.52" x2="508.55" y2="803.8"/><line class="cls-1" x1="508.55" y1="803.8" x2="518.31" y2="813.56"/><line class="cls-1" x1="518.31" y1="813.56" x2="539.59" y2="792.28"/><line class="cls-1" x1="539.59" y1="792.28" x2="529.83" y2="782.52"/></g></g></svg>