<?xml version="1.0" encoding="UTF-8"?><svg id="Layer_2" xmlns="http://www.w3.org/2000/svg" viewBox="0 0 938.14 775.79"><defs><style>.cls-1{stroke-width:.25px;}.cls-1,.cls-2{fill:none;stroke:#000;stroke-linecap:round;stroke-linejoin:round;}.cls-2{stroke-width:.5px;}.cls-3{fill:#fff;}.cls-3,.cls-4{fill-rule:evenodd;}</style></defs><g id="Layer_1-2"><line class="cls-1" x1="127.01" y1="452.01" x2="117.88" y2="433.23"/><line class="cls-1" x1="117.88" y1="433.23" x2="108.38" y2="438.36"/><line class="cls-1" x1="108.38" y1="438.36" x2="99.35" y2="444.3"/><line class="cls-1" x1="99.35" y1="444.3" x2="90.86" y2="450.99"/><line class="cls-1" x1="90.86" y1="450.99" x2="82.99" y2="458.38"/><line class="cls-1" x1="82.99" y1="458.38" x2="75.77" y2="466.42"/><line class="cls-1" x1="75.77" y1="466.42" x2="49.1" y2="444.47"/><line class="cls-1" x1="49.1" y1="444.47" x2="41.79" y2="454.07"/><line class="cls-1" x1="41.79" y1="454.07" x2="35.22" y2="464.2"/><line class="cls-1" x1="35.22" y1="464.2" x2="29.43" y2="474.79"/><line class="cls-1" x1="29.43" y1="474.79" x2="24.46" y2="485.79"/><line class="cls-1" x1="24.46" y1="485.79" x2="20.32" y2="497.12"/><line class="cls-1" x1="20.32" y1="497.12" x2="17.05" y2="508.74"/><line class="cls-1" x1="17.05" y1="508.74" x2="14.67" y2="520.57"/><line class="cls-1" x1="14.67" y1="520.57" x2="13.18" y2="532.55"/><line class="cls-1" x1="13.18" y1="532.55" x2="12.6" y2="544.6"/><line class="cls-1" x1="12.6" y1="544.6" x2="12.92" y2="556.67"/><line class="cls-1" x1="12.92" y1="556.67" x2="14.16" y2="568.67"/><line class="cls-1" x1="14.16" y1="568.67" x2="16.29" y2="580.55"/><line class="cls-1" x1="16.29" y1="580.55" x2="19.31" y2="592.23"/><line class="cls-1" x1="19.31" y1="592.23" x2="23.2" y2="603.66"/><line class="cls-1" x1="23.2" y1="603.66" x2="27.94" y2="614.76"/><line class="cls-1" x1="27.94" y1="614.76" x2="33.5" y2="625.47"/><line class="cls-1" x1="33.5" y1="625.47" x2="39.85" y2="635.73"/><line class="cls-1" x1="39.85" y1="635.73" x2="46.95" y2="645.48"/><line class="cls-1" x1="46.95" y1="645.48" x2="54.77" y2="654.68"/><line class="cls-1" x1="54.77" y1="654.68" x2="63.26" y2="663.26"/><line class="cls-1" x1="63.26" y1="663.26" x2="72.37" y2="671.17"/><line class="cls-1" x1="72.37" y1="671.17" x2="82.05" y2="678.38"/><line class="cls-1" x1="82.05" y1="678.38" x2="92.24" y2="684.84"/><line class="cls-1" x1="92.24" y1="684.84" x2="102.89" y2="690.51"/><line class="cls-1" x1="102.89" y1="690.51" x2="113.94" y2="695.37"/><line class="cls-1" x1="113.94" y1="695.37" x2="125.32" y2="699.38"/><line class="cls-1" x1="125.32" y1="699.38" x2="136.97" y2="702.53"/><line class="cls-1" x1="136.97" y1="702.53" x2="148.83" y2="704.79"/><line class="cls-1" x1="148.83" y1="704.79" x2="160.82" y2="706.15"/><line class="cls-1" x1="160.82" y1="706.15" x2="172.88" y2="706.6"/><line class="cls-1" x1="172.88" y1="706.6" x2="184.78" y2="706.16"/><line class="cls-1" x1="184.78" y1="706.16" x2="196.62" y2="704.83"/><line class="cls-1" x1="196.62" y1="704.83" x2="208.33" y2="702.63"/><line class="cls-1" x1="208.33" y1="702.63" x2="219.84" y2="699.57"/><line class="cls-1" x1="219.84" y1="699.57" x2="231.09" y2="695.66"/><line class="cls-1" x1="231.09" y1="695.66" x2="242.02" y2="690.92"/><line class="cls-1" x1="242.02" y1="690.92" x2="252.58" y2="685.38"/><line class="cls-1" x1="252.58" y1="685.38" x2="262.68" y2="679.08"/><line class="cls-1" x1="262.68" y1="679.08" x2="272.3" y2="672.04"/><line class="cls-1" x1="272.3" y1="672.04" x2="281.36" y2="664.31"/><line class="cls-1" x1="281.36" y1="664.31" x2="289.83" y2="655.93"/><line class="cls-1" x1="289.83" y1="655.93" x2="297.64" y2="646.94"/><line class="cls-1" x1="297.64" y1="646.94" x2="254.5" y2="612.15"/><line class="cls-1" x1="254.5" y1="612.15" x2="248.31" y2="619.16"/><line class="cls-1" x1="248.31" y1="619.16" x2="241.52" y2="625.59"/><line class="cls-1" x1="241.52" y1="625.59" x2="234.19" y2="631.39"/><line class="cls-1" x1="234.19" y1="631.39" x2="226.36" y2="636.51"/><line class="cls-1" x1="226.36" y1="636.51" x2="218.12" y2="640.92"/><line class="cls-1" x1="218.12" y1="640.92" x2="209.51" y2="644.57"/><line class="cls-1" x1="209.51" y1="644.57" x2="200.61" y2="647.45"/><line class="cls-1" x1="200.61" y1="647.45" x2="191.49" y2="649.51"/><line class="cls-1" x1="191.49" y1="649.51" x2="182.22" y2="650.76"/><line class="cls-1" x1="182.22" y1="650.76" x2="172.88" y2="651.18"/><line class="cls-1" x1="172.88" y1="651.18" x2="163.02" y2="650.71"/><line class="cls-1" x1="163.02" y1="650.71" x2="153.25" y2="649.32"/><line class="cls-1" x1="153.25" y1="649.32" x2="143.65" y2="647.03"/><line class="cls-1" x1="143.65" y1="647.03" x2="134.32" y2="643.83"/><line class="cls-1" x1="134.32" y1="643.83" x2="125.32" y2="639.77"/><line class="cls-1" x1="125.32" y1="639.77" x2="116.75" y2="634.89"/><line class="cls-1" x1="116.75" y1="634.89" x2="108.67" y2="629.22"/><line class="cls-1" x1="108.67" y1="629.22" x2="101.16" y2="622.82"/><line class="cls-1" x1="101.16" y1="622.82" x2="94.29" y2="615.74"/><line class="cls-1" x1="94.29" y1="615.74" x2="88.11" y2="608.05"/><line class="cls-1" x1="88.11" y1="608.05" x2="82.68" y2="599.81"/><line class="cls-1" x1="82.68" y1="599.81" x2="78.05" y2="591.09"/><line class="cls-1" x1="78.05" y1="591.09" x2="74.26" y2="581.98"/><line class="cls-1" x1="74.26" y1="581.98" x2="71.35" y2="572.55"/><line class="cls-1" x1="71.35" y1="572.55" x2="69.33" y2="562.89"/><line class="cls-1" x1="69.33" y1="562.89" x2="68.23" y2="553.09"/><line class="cls-1" x1="68.23" y1="553.09" x2="68.06" y2="543.22"/><line class="cls-1" x1="68.06" y1="543.22" x2="68.81" y2="533.38"/><line class="cls-1" x1="68.81" y1="533.38" x2="70.49" y2="523.66"/><line class="cls-1" x1="70.49" y1="523.66" x2="73.07" y2="514.13"/><line class="cls-1" x1="73.07" y1="514.13" x2="76.54" y2="504.89"/><line class="cls-1" x1="76.54" y1="504.89" x2="80.86" y2="496.02"/><line class="cls-1" x1="80.86" y1="496.02" x2="85.99" y2="487.59"/><line class="cls-1" x1="85.99" y1="487.59" x2="91.9" y2="479.69"/><line class="cls-1" x1="91.9" y1="479.69" x2="97.92" y2="472.98"/><line class="cls-1" x1="97.92" y1="472.98" x2="104.49" y2="466.82"/><line class="cls-1" x1="104.49" y1="466.82" x2="111.56" y2="461.24"/><line class="cls-1" x1="111.56" y1="461.24" x2="119.09" y2="456.29"/><line class="cls-1" x1="119.09" y1="456.29" x2="127.01" y2="452.01"/><line class="cls-1" x1="326.21" y1="593.01" x2="329.26" y2="581.51"/><line class="cls-1" x1="329.26" y1="581.51" x2="331.44" y2="569.82"/><line class="cls-1" x1="331.44" y1="569.82" x2="332.74" y2="557.99"/><line class="cls-1" x1="332.74" y1="557.99" x2="333.17" y2="546.1"/><line class="cls-1" x1="333.17" y1="546.1" x2="332.71" y2="534.22"/><line class="cls-1" x1="332.71" y1="534.22" x2="331.37" y2="522.4"/><line class="cls-1" x1="331.37" y1="522.4" x2="329.16" y2="510.71"/><line class="cls-1" x1="329.16" y1="510.71" x2="326.09" y2="499.22"/><line class="cls-1" x1="326.09" y1="499.22" x2="322.18" y2="487.99"/><line class="cls-1" x1="322.18" y1="487.99" x2="317.44" y2="477.08"/><line class="cls-1" x1="317.44" y1="477.08" x2="311.91" y2="466.55"/><line class="cls-1" x1="311.91" y1="466.55" x2="305.61" y2="456.45"/><line class="cls-1" x1="305.61" y1="456.45" x2="298.58" y2="446.86"/><line class="cls-1" x1="298.58" y1="446.86" x2="290.86" y2="437.81"/><line class="cls-1" x1="290.86" y1="437.81" x2="282.49" y2="429.36"/><line class="cls-1" x1="282.49" y1="429.36" x2="273.51" y2="421.55"/><line class="cls-1" x1="273.51" y1="421.55" x2="263.99" y2="414.43"/><line class="cls-1" x1="263.99" y1="414.43" x2="253.96" y2="408.04"/><line class="cls-1" x1="253.96" y1="408.04" x2="243.48" y2="402.41"/><line class="cls-1" x1="243.48" y1="402.41" x2="232.61" y2="397.57"/><line class="cls-1" x1="232.61" y1="397.57" x2="221.42" y2="393.55"/><line class="cls-1" x1="221.42" y1="393.55" x2="204.63" y2="446.37"/><line class="cls-1" x1="204.63" y1="446.37" x2="213.65" y2="449.7"/><line class="cls-1" x1="213.65" y1="449.7" x2="222.33" y2="453.84"/><line class="cls-1" x1="222.33" y1="453.84" x2="230.59" y2="458.75"/><line class="cls-1" x1="230.59" y1="458.75" x2="238.36" y2="464.41"/><line class="cls-1" x1="238.36" y1="464.41" x2="245.59" y2="470.75"/><line class="cls-1" x1="245.59" y1="470.75" x2="252.2" y2="477.72"/><line class="cls-1" x1="252.2" y1="477.72" x2="258.15" y2="485.27"/><line class="cls-1" x1="258.15" y1="485.27" x2="263.38" y2="493.34"/><line class="cls-1" x1="263.38" y1="493.34" x2="267.85" y2="501.84"/><line class="cls-1" x1="267.85" y1="501.84" x2="271.52" y2="510.73"/><line class="cls-1" x1="271.52" y1="510.73" x2="274.37" y2="519.91"/><line class="cls-1" x1="274.37" y1="519.91" x2="276.36" y2="529.31"/><line class="cls-1" x1="276.36" y1="529.31" x2="277.48" y2="538.86"/><line class="cls-1" x1="277.48" y1="538.86" x2="277.72" y2="548.46"/><line class="cls-1" x1="277.72" y1="548.46" x2="277.08" y2="558.06"/><line class="cls-1" x1="277.08" y1="558.06" x2="275.57" y2="567.55"/><line class="cls-1" x1="275.57" y1="567.55" x2="273.19" y2="576.86"/><line class="cls-1" x1="273.19" y1="576.86" x2="270.56" y2="584.45"/><line class="cls-1" x1="270.56" y1="584.45" x2="267.36" y2="591.82"/><line class="cls-1" x1="267.36" y1="591.82" x2="263.6" y2="598.92"/><line class="cls-1" x1="263.6" y1="598.92" x2="259.3" y2="605.71"/><line class="cls-1" x1="259.3" y1="605.71" x2="254.5" y2="612.15"/><line class="cls-1" x1="254.5" y1="612.15" x2="270.76" y2="625.26"/><line class="cls-1" x1="270.76" y1="625.26" x2="276.51" y2="617.54"/><line class="cls-1" x1="276.51" y1="617.54" x2="281.66" y2="609.39"/><line class="cls-1" x1="281.66" y1="609.39" x2="286.17" y2="600.88"/><line class="cls-1" x1="286.17" y1="600.88" x2="290.02" y2="592.05"/><line class="cls-1" x1="290.02" y1="592.05" x2="293.17" y2="582.95"/><line class="cls-1" x1="293.17" y1="582.95" x2="326.21" y2="593.01"/><line class="cls-1" x1="160.93" y1="386.47" x2="148.89" y2="387.83"/><line class="cls-1" x1="148.89" y1="387.83" x2="136.99" y2="390.09"/><line class="cls-1" x1="136.99" y1="390.09" x2="125.29" y2="393.25"/><line class="cls-1" x1="125.29" y1="393.25" x2="113.86" y2="397.28"/><line class="cls-1" x1="113.86" y1="397.28" x2="102.78" y2="402.17"/><line class="cls-1" x1="102.78" y1="402.17" x2="127.01" y2="452.01"/><line class="cls-1" x1="127.01" y1="452.01" x2="136.12" y2="448.1"/><line class="cls-1" x1="136.12" y1="448.1" x2="145.55" y2="445.07"/><line class="cls-1" x1="145.55" y1="445.07" x2="155.23" y2="442.94"/><line class="cls-1" x1="155.23" y1="442.94" x2="165.06" y2="441.74"/><line class="cls-1" x1="165.06" y1="441.74" x2="172.88" y2="441.45"/><line class="cls-1" x1="172.88" y1="441.45" x2="180.94" y2="441.76"/><line class="cls-1" x1="180.94" y1="441.76" x2="188.95" y2="442.69"/><line class="cls-1" x1="188.95" y1="442.69" x2="196.86" y2="444.23"/><line class="cls-1" x1="196.86" y1="444.23" x2="204.63" y2="446.37"/><line class="cls-1" x1="204.63" y1="446.37" x2="210.96" y2="426.47"/><line class="cls-1" x1="210.96" y1="426.47" x2="201.64" y2="423.9"/><line class="cls-1" x1="201.64" y1="423.9" x2="192.15" y2="422.05"/><line class="cls-1" x1="192.15" y1="422.05" x2="182.54" y2="420.93"/><line class="cls-1" x1="182.54" y1="420.93" x2="172.88" y2="420.56"/><line class="cls-1" x1="172.88" y1="420.56" x2="163.51" y2="420.91"/><line class="cls-1" x1="163.51" y1="420.91" x2="160.93" y2="386.47"/><polyline class="cls-3" points="652.54 337.87 655.76 337.87 655.76 430.07 652.54 430.07 652.54 337.87"/><line class="cls-2" x1="652.54" y1="337.87" x2="652.54" y2="430.07"/><line class="cls-2" x1="652.54" y1="430.07" x2="655.76" y2="430.07"/><line class="cls-2" x1="655.76" y1="430.07" x2="655.76" y2="337.87"/><line class="cls-2" x1="655.76" y1="337.87" x2="652.54" y2="337.87"/><polyline class="cls-3" points="614.76 324.31 617.98 324.31 617.98 389.86 614.76 389.86 614.76 324.31"/><line class="cls-2" x1="614.76" y1="324.31" x2="614.76" y2="389.86"/><line class="cls-2" x1="614.76" y1="389.86" x2="617.98" y2="389.86"/><line class="cls-2" x1="617.98" y1="389.86" x2="617.98" y2="324.31"/><line class="cls-2" x1="617.98" y1="324.31" x2="614.76" y2="324.31"/><polyline class="cls-3" points="576.28 324.31 579.5 324.31 579.5 389.86 576.28 389.86 576.28 324.31"/><line class="cls-2" x1="576.28" y1="324.31" x2="576.28" y2="389.86"/><line class="cls-2" x1="576.28" y1="389.86" x2="579.5" y2="389.86"/><line class="cls-2" x1="579.5" y1="389.86" x2="579.5" y2="324.31"/><line class="cls-2" x1="579.5" y1="324.31" x2="576.28" y2="324.31"/><polyline class="cls-3" points="537.81 342.48 541.03 342.48 541.03 411.95 537.81 411.95 537.81 342.48"/><line class="cls-2" x1="537.81" y1="342.48" x2="537.81" y2="411.95"/><line class="cls-2" x1="537.81" y1="411.95" x2="541.03" y2="411.95"/><line class="cls-2" x1="541.03" y1="411.95" x2="541.03" y2="342.48"/><line class="cls-2" x1="541.03" y1="342.48" x2="537.81" y2="342.48"/><polyline class="cls-3" points="499.33 363.86 502.55 363.86 502.55 433.32 499.33 433.32 499.33 363.86"/><line class="cls-2" x1="499.33" y1="363.86" x2="499.33" y2="433.32"/><line class="cls-2" x1="499.33" y1="433.32" x2="502.55" y2="433.32"/><line class="cls-2" x1="502.55" y1="433.32" x2="502.55" y2="363.86"/><line class="cls-2" x1="502.55" y1="363.86" x2="499.33" y2="363.86"/><polyline class="cls-3" points="461.21 363.86 464.43 363.86 464.43 433.32 461.21 433.32 461.21 363.86"/><line class="cls-2" x1="461.21" y1="363.86" x2="461.21" y2="433.32"/><line class="cls-2" x1="461.21" y1="433.32" x2="464.43" y2="433.32"/><line class="cls-2" x1="464.43" y1="433.32" x2="464.43" y2="363.86"/><line class="cls-2" x1="464.43" y1="363.86" x2="461.21" y2="363.86"/><polyline class="cls-3" points="423.09 341.41 426.31 341.41 426.31 442.59 423.09 442.59 423.09 341.41"/><line class="cls-2" x1="423.09" y1="341.41" x2="423.09" y2="442.59"/><line class="cls-2" x1="423.09" y1="442.59" x2="426.31" y2="442.59"/><line class="cls-2" x1="426.31" y1="442.59" x2="426.31" y2="341.41"/><line class="cls-2" x1="426.31" y1="341.41" x2="423.09" y2="341.41"/><polyline class="cls-3" points="384.03 375.59 387.24 375.59 387.24 446.13 384.03 446.13 384.03 375.59"/><line class="cls-2" x1="384.03" y1="375.59" x2="384.03" y2="446.13"/><line class="cls-2" x1="384.03" y1="446.13" x2="387.24" y2="446.13"/><line class="cls-2" x1="387.24" y1="446.13" x2="387.24" y2="375.59"/><line class="cls-2" x1="387.24" y1="375.59" x2="384.03" y2="375.59"/><polyline class="cls-3" points="345.19 375.59 348.41 375.59 348.41 600.13 345.19 600.13 345.19 375.59"/><line class="cls-2" x1="345.19" y1="375.59" x2="345.19" y2="600.13"/><line class="cls-2" x1="345.19" y1="600.13" x2="348.41" y2="600.13"/><line class="cls-2" x1="348.41" y1="600.13" x2="348.41" y2="375.59"/><line class="cls-2" x1="348.41" y1="375.59" x2="345.19" y2="375.59"/><polyline class="cls-3" points="307.01 369.89 310.22 369.89 310.22 440.43 307.01 440.43 307.01 369.89"/><line class="cls-2" x1="307.01" y1="369.89" x2="307.01" y2="440.43"/><line class="cls-2" x1="307.01" y1="440.43" x2="310.22" y2="440.43"/><line class="cls-2" x1="310.22" y1="440.43" x2="310.22" y2="369.89"/><line class="cls-2" x1="310.22" y1="369.89" x2="307.01" y2="369.89"/><polyline class="cls-3" points="270.24 344.05 273.46 344.05 273.46 409.43 270.24 409.43 270.24 344.05"/><line class="cls-2" x1="270.24" y1="344.05" x2="270.24" y2="409.43"/><line class="cls-2" x1="270.24" y1="409.43" x2="273.46" y2="409.43"/><line class="cls-2" x1="273.46" y1="409.43" x2="273.46" y2="344.05"/><line class="cls-2" x1="273.46" y1="344.05" x2="270.24" y2="344.05"/><polyline class="cls-3" points="231.9 355.73 235.12 355.73 235.12 387.74 231.9 387.74 231.9 355.73"/><line class="cls-2" x1="231.9" y1="355.73" x2="231.9" y2="387.74"/><line class="cls-2" x1="231.9" y1="387.74" x2="235.12" y2="387.74"/><line class="cls-2" x1="235.12" y1="387.74" x2="235.12" y2="355.73"/><line class="cls-2" x1="235.12" y1="355.73" x2="231.9" y2="355.73"/><polyline class="cls-3" points="683.13 408.21 686.35 408.21 686.35 476.19 683.13 476.19 683.13 408.21"/><line class="cls-2" x1="683.13" y1="408.21" x2="683.13" y2="476.19"/><line class="cls-2" x1="683.13" y1="476.19" x2="686.35" y2="476.19"/><line class="cls-2" x1="686.35" y1="476.19" x2="686.35" y2="408.21"/><line class="cls-2" x1="686.35" y1="408.21" x2="683.13" y2="408.21"/><polyline class="cls-3" points="683.13 614.49 686.35 614.49 686.35 738.61 683.13 738.61 683.13 614.49"/><line class="cls-2" x1="683.13" y1="614.49" x2="683.13" y2="738.61"/><line class="cls-2" x1="683.13" y1="738.61" x2="686.35" y2="738.61"/><line class="cls-2" x1="686.35" y1="738.61" x2="686.35" y2="614.49"/><line class="cls-2" x1="686.35" y1="614.49" x2="683.13" y2="614.49"/><polyline class="cls-3" points="652.54 512.59 655.76 512.59 655.76 543.54 652.54 543.54 652.54 512.59"/><line class="cls-2" x1="652.54" y1="512.59" x2="652.54" y2="543.54"/><line class="cls-2" x1="652.54" y1="543.54" x2="655.76" y2="543.54"/><line class="cls-2" x1="655.76" y1="543.54" x2="655.76" y2="512.59"/><line class="cls-2" x1="655.76" y1="512.59" x2="652.54" y2="512.59"/><polyline class="cls-3" points="614.76 464.99 617.98 464.99 617.98 530.54 614.76 530.54 614.76 464.99"/><line class="cls-2" x1="614.76" y1="464.99" x2="614.76" y2="530.54"/><line class="cls-2" x1="614.76" y1="530.54" x2="617.98" y2="530.54"/><line class="cls-2" x1="617.98" y1="530.54" x2="617.98" y2="464.99"/><line class="cls-2" x1="617.98" y1="464.99" x2="614.76" y2="464.99"/><polyline class="cls-3" points="576.28 461.94 579.5 461.94 579.5 527.49 576.28 527.49 576.28 461.94"/><line class="cls-2" x1="576.28" y1="461.94" x2="576.28" y2="527.49"/><line class="cls-2" x1="576.28" y1="527.49" x2="579.5" y2="527.49"/><line class="cls-2" x1="579.5" y1="527.49" x2="579.5" y2="461.94"/><line class="cls-2" x1="579.5" y1="461.94" x2="576.28" y2="461.94"/><polyline class="cls-3" points="576.28 601.69 579.5 601.69 579.5 667.24 576.28 667.24 576.28 601.69"/><line class="cls-2" x1="576.28" y1="601.69" x2="576.28" y2="667.24"/><line class="cls-2" x1="576.28" y1="667.24" x2="579.5" y2="667.24"/><line class="cls-2" x1="579.5" y1="667.24" x2="579.5" y2="601.69"/><line class="cls-2" x1="579.5" y1="601.69" x2="576.28" y2="601.69"/><polyline class="cls-3" points="576.28 186.53 579.5 186.53 579.5 252.08 576.28 252.08 576.28 186.53"/><line class="cls-2" x1="576.28" y1="186.53" x2="576.28" y2="252.08"/><line class="cls-2" x1="576.28" y1="252.08" x2="579.5" y2="252.08"/><line class="cls-2" x1="579.5" y1="252.08" x2="579.5" y2="186.53"/><line class="cls-2" x1="579.5" y1="186.53" x2="576.28" y2="186.53"/><polyline class="cls-3" points="537.81 204.68 541.03 204.68 541.03 274.16 537.81 274.16 537.81 204.68"/><line class="cls-2" x1="537.81" y1="204.68" x2="537.81" y2="274.16"/><line class="cls-2" x1="537.81" y1="274.16" x2="541.03" y2="274.16"/><line class="cls-2" x1="541.03" y1="274.16" x2="541.03" y2="204.68"/><line class="cls-2" x1="541.03" y1="204.68" x2="537.81" y2="204.68"/><polyline class="cls-3" points="384.03 239.75 387.24 239.75 387.24 310.29 384.03 310.29 384.03 239.75"/><line class="cls-2" x1="384.03" y1="239.75" x2="384.03" y2="310.29"/><line class="cls-2" x1="384.03" y1="310.29" x2="387.24" y2="310.29"/><line class="cls-2" x1="387.24" y1="310.29" x2="387.24" y2="239.75"/><line class="cls-2" x1="387.24" y1="239.75" x2="384.03" y2="239.75"/><polyline class="cls-3" points="384.03 519.66 387.24 519.66 387.24 590.19 384.03 590.19 384.03 519.66"/><line class="cls-2" x1="384.03" y1="519.66" x2="384.03" y2="590.19"/><line class="cls-2" x1="384.03" y1="590.19" x2="387.24" y2="590.19"/><line class="cls-2" x1="387.24" y1="590.19" x2="387.24" y2="519.66"/><line class="cls-2" x1="387.24" y1="519.66" x2="384.03" y2="519.66"/><polyline class="cls-3" points="384.03 638.59 387.24 638.59 387.24 668.98 384.03 668.98 384.03 638.59"/><line class="cls-2" x1="384.03" y1="638.59" x2="384.03" y2="668.98"/><line class="cls-2" x1="384.03" y1="668.98" x2="387.24" y2="668.98"/><line class="cls-2" x1="387.24" y1="668.98" x2="387.24" y2="638.59"/><line class="cls-2" x1="387.24" y1="638.59" x2="384.03" y2="638.59"/><polyline class="cls-3" points="423.09 237.75 426.31 237.75 426.31 305.27 423.09 305.27 423.09 237.75"/><line class="cls-2" x1="423.09" y1="237.75" x2="423.09" y2="305.27"/><line class="cls-2" x1="423.09" y1="305.27" x2="426.31" y2="305.27"/><line class="cls-2" x1="426.31" y1="305.27" x2="426.31" y2="237.75"/><line class="cls-2" x1="426.31" y1="237.75" x2="423.09" y2="237.75"/><polyline class="cls-3" points="423.09 510.67 426.31 510.67 426.31 578.19 423.09 578.19 423.09 510.67"/><line class="cls-2" x1="423.09" y1="510.67" x2="423.09" y2="578.19"/><line class="cls-2" x1="423.09" y1="578.19" x2="426.31" y2="578.19"/><line class="cls-2" x1="426.31" y1="578.19" x2="426.31" y2="510.67"/><line class="cls-2" x1="426.31" y1="510.67" x2="423.09" y2="510.67"/><polyline class="cls-3" points="423.09 698.53 426.31 698.53 426.31 766.06 423.09 766.06 423.09 698.53"/><line class="cls-2" x1="423.09" y1="698.53" x2="423.09" y2="766.06"/><line class="cls-2" x1="423.09" y1="766.06" x2="426.31" y2="766.06"/><line class="cls-2" x1="426.31" y1="766.06" x2="426.31" y2="698.53"/><line class="cls-2" x1="426.31" y1="698.53" x2="423.09" y2="698.53"/><polyline class="cls-3" points="537.81 684.89 541.03 684.89 541.03 754.36 537.81 754.36 537.81 684.89"/><line class="cls-2" x1="537.81" y1="684.89" x2="537.81" y2="754.36"/><line class="cls-2" x1="537.81" y1="754.36" x2="541.03" y2="754.36"/><line class="cls-2" x1="541.03" y1="754.36" x2="541.03" y2="684.89"/><line class="cls-2" x1="541.03" y1="684.89" x2="537.81" y2="684.89"/><polyline class="cls-3" points="499.33 503.01 502.55 503.01 502.55 560.22 499.33 560.22 499.33 503.01"/><line class="cls-2" x1="499.33" y1="503.01" x2="499.33" y2="560.22"/><line class="cls-2" x1="499.33" y1="560.22" x2="502.55" y2="560.22"/><line class="cls-2" x1="502.55" y1="560.22" x2="502.55" y2="503.01"/><line class="cls-2" x1="502.55" y1="503.01" x2="499.33" y2="503.01"/><polyline class="cls-3" points="499.33 227.28 502.55 227.28 502.55 284.49 499.33 284.49 499.33 227.28"/><line class="cls-2" x1="499.33" y1="227.28" x2="499.33" y2="284.49"/><line class="cls-2" x1="499.33" y1="284.49" x2="502.55" y2="284.49"/><line class="cls-2" x1="502.55" y1="284.49" x2="502.55" y2="227.28"/><line class="cls-2" x1="502.55" y1="227.28" x2="499.33" y2="227.28"/><polyline class="cls-3" points="461.21 232.91 464.43 232.91 464.43 302.37 461.21 302.37 461.21 232.91"/><line class="cls-2" x1="461.21" y1="232.91" x2="461.21" y2="302.37"/><line class="cls-2" x1="461.21" y1="302.37" x2="464.43" y2="302.37"/><line class="cls-2" x1="464.43" y1="302.37" x2="464.43" y2="232.91"/><line class="cls-2" x1="464.43" y1="232.91" x2="461.21" y2="232.91"/><polyline class="cls-3" points="461.21 503.01 464.43 503.01 464.43 598.68 461.21 598.68 461.21 503.01"/><line class="cls-2" x1="461.21" y1="503.01" x2="461.21" y2="598.68"/><line class="cls-2" x1="461.21" y1="598.68" x2="464.43" y2="598.68"/><line class="cls-2" x1="464.43" y1="598.68" x2="464.43" y2="503.01"/><line class="cls-2" x1="464.43" y1="503.01" x2="461.21" y2="503.01"/><polyline class="cls-3" points="652.54 708.4 655.76 708.4 655.76 770.3 652.54 770.3 652.54 708.4"/><line class="cls-2" x1="652.54" y1="708.4" x2="652.54" y2="770.3"/><line class="cls-2" x1="652.54" y1="770.3" x2="655.76" y2="770.3"/><line class="cls-2" x1="655.76" y1="770.3" x2="655.76" y2="708.4"/><line class="cls-2" x1="655.76" y1="708.4" x2="652.54" y2="708.4"/><polyline class="cls-3" points="345.19 238.45 348.41 238.45 348.41 312.69 345.19 312.69 345.19 238.45"/><line class="cls-2" x1="345.19" y1="238.45" x2="345.19" y2="312.69"/><line class="cls-2" x1="345.19" y1="312.69" x2="348.41" y2="312.69"/><line class="cls-2" x1="348.41" y1="312.69" x2="348.41" y2="238.45"/><line class="cls-2" x1="348.41" y1="238.45" x2="345.19" y2="238.45"/><polyline class="cls-3" points="307.01 237.79 310.22 237.79 310.22 308.33 307.01 308.33 307.01 237.79"/><line class="cls-2" x1="307.01" y1="237.79" x2="307.01" y2="308.33"/><line class="cls-2" x1="307.01" y1="308.33" x2="310.22" y2="308.33"/><line class="cls-2" x1="310.22" y1="308.33" x2="310.22" y2="237.79"/><line class="cls-2" x1="310.22" y1="237.79" x2="307.01" y2="237.79"/><polyline class="cls-3" points="270.24 231.28 273.46 231.28 273.46 296.67 270.24 296.67 270.24 231.28"/><line class="cls-2" x1="270.24" y1="231.28" x2="270.24" y2="296.67"/><line class="cls-2" x1="270.24" y1="296.67" x2="273.46" y2="296.67"/><line class="cls-2" x1="273.46" y1="296.67" x2="273.46" y2="231.28"/><line class="cls-2" x1="273.46" y1="231.28" x2="270.24" y2="231.28"/><polyline class="cls-3" points="231.9 218.31 235.12 218.31 235.12 315.95 231.9 315.95 231.9 218.31"/><line class="cls-2" x1="231.9" y1="218.31" x2="231.9" y2="315.95"/><line class="cls-2" x1="231.9" y1="315.95" x2="235.12" y2="315.95"/><line class="cls-2" x1="235.12" y1="315.95" x2="235.12" y2="218.31"/><line class="cls-2" x1="235.12" y1="218.31" x2="231.9" y2="218.31"/><polyline class="cls-3" points="155 190.61 158.22 190.61 158.22 375.06 155 375.06 155 190.61"/><line class="cls-2" x1="155" y1="190.61" x2="155" y2="375.06"/><line class="cls-2" x1="155" y1="375.06" x2="158.22" y2="375.06"/><line class="cls-2" x1="158.22" y1="375.06" x2="158.22" y2="190.61"/><line class="cls-2" x1="158.22" y1="190.61" x2="155" y2="190.61"/><polyline class="cls-3" points="116.7 173.41 119.92 173.41 119.92 242.19 116.7 242.19 116.7 173.41"/><line class="cls-2" x1="116.7" y1="173.41" x2="116.7" y2="242.19"/><line class="cls-2" x1="116.7" y1="242.19" x2="119.92" y2="242.19"/><line class="cls-2" x1="119.92" y1="242.19" x2="119.92" y2="173.41"/><line class="cls-2" x1="119.92" y1="173.41" x2="116.7" y2="173.41"/><polyline class="cls-3" points="76.82 135.9 80.04 135.9 80.04 280.46 76.82 280.46 76.82 135.9"/><line class="cls-2" x1="76.82" y1="135.9" x2="76.82" y2="280.46"/><line class="cls-2" x1="76.82" y1="280.46" x2="80.04" y2="280.46"/><line class="cls-2" x1="80.04" y1="280.46" x2="80.04" y2="135.9"/><line class="cls-2" x1="80.04" y1="135.9" x2="76.82" y2="135.9"/><polyline class="cls-3" points="39.33 135.9 42.55 135.9 42.55 202.33 39.33 202.33 39.33 135.9"/><line class="cls-2" x1="39.33" y1="135.9" x2="39.33" y2="202.33"/><line class="cls-2" x1="39.33" y1="202.33" x2="42.55" y2="202.33"/><line class="cls-2" x1="42.55" y1="202.33" x2="42.55" y2="135.9"/><line class="cls-2" x1="42.55" y1="135.9" x2="39.33" y2="135.9"/><polyline class="cls-3" points=".25 120.27 3.47 120.27 3.47 672.54 .25 672.54 .25 120.27"/><line class="cls-2" x1=".25" y1="120.27" x2=".25" y2="672.54"/><line class="cls-2" x1=".25" y1="672.54" x2="3.47" y2="672.54"/><line class="cls-2" x1="3.47" y1="672.54" x2="3.47" y2="120.27"/><line class="cls-2" x1="3.47" y1="120.27" x2=".25" y2="120.27"/><polyline class="cls-3" points="39.33 367.77 42.55 367.77 42.55 434.2 39.33 434.2 39.33 367.77"/><line class="cls-2" x1="39.33" y1="367.77" x2="39.33" y2="434.2"/><line class="cls-2" x1="39.33" y1="434.2" x2="42.55" y2="434.2"/><line class="cls-2" x1="42.55" y1="434.2" x2="42.55" y2="367.77"/><line class="cls-2" x1="42.55" y1="367.77" x2="39.33" y2="367.77"/><polyline class="cls-3" points="39.33 653.5 42.55 653.5 42.55 719.93 39.33 719.93 39.33 653.5"/><line class="cls-2" x1="39.33" y1="653.5" x2="39.33" y2="719.93"/><line class="cls-2" x1="39.33" y1="719.93" x2="42.55" y2="719.93"/><line class="cls-2" x1="42.55" y1="719.93" x2="42.55" y2="653.5"/><line class="cls-2" x1="42.55" y1="653.5" x2="39.33" y2="653.5"/><polyline class="cls-3" points="76.82 688.83 80.04 688.83 80.04 727.04 76.82 727.04 76.82 688.83"/><line class="cls-2" x1="76.82" y1="688.83" x2="76.82" y2="727.04"/><line class="cls-2" x1="76.82" y1="727.04" x2="80.04" y2="727.04"/><line class="cls-2" x1="80.04" y1="727.04" x2="80.04" y2="688.83"/><line class="cls-2" x1="80.04" y1="688.83" x2="76.82" y2="688.83"/><polyline class="cls-3" points="270.24 688.7 273.46 688.7 273.46 754.08 270.24 754.08 270.24 688.7"/><line class="cls-2" x1="270.24" y1="688.7" x2="270.24" y2="754.08"/><line class="cls-2" x1="270.24" y1="754.08" x2="273.46" y2="754.08"/><line class="cls-2" x1="273.46" y1="754.08" x2="273.46" y2="688.7"/><line class="cls-2" x1="273.46" y1="688.7" x2="270.24" y2="688.7"/><polyline class="cls-3" points="231.9 708.69 235.12 708.69 235.12 767.16 231.9 767.16 231.9 708.69"/><line class="cls-2" x1="231.9" y1="708.69" x2="231.9" y2="767.16"/><line class="cls-2" x1="231.9" y1="767.16" x2="235.12" y2="767.16"/><line class="cls-2" x1="235.12" y1="767.16" x2="235.12" y2="708.69"/><line class="cls-2" x1="235.12" y1="708.69" x2="231.9" y2="708.69"/><polyline class="cls-3" points="155 714.92 158.22 714.92 158.22 775.54 155 775.54 155 714.92"/><line class="cls-2" x1="155" y1="714.92" x2="155" y2="775.54"/><line class="cls-2" x1="155" y1="775.54" x2="158.22" y2="775.54"/><line class="cls-2" x1="158.22" y1="775.54" x2="158.22" y2="714.92"/><line class="cls-2" x1="158.22" y1="714.92" x2="155" y2="714.92"/><polyline class="cls-3" points="191.8 716.84 195.02 716.84 195.02 775.32 191.8 775.32 191.8 716.84"/><line class="cls-2" x1="191.8" y1="716.84" x2="191.8" y2="775.32"/><line class="cls-2" x1="191.8" y1="775.32" x2="195.02" y2="775.32"/><line class="cls-2" x1="195.02" y1="775.32" x2="195.02" y2="716.84"/><line class="cls-2" x1="195.02" y1="716.84" x2="191.8" y2="716.84"/><polyline class="cls-3" points="115.88 707.63 119.1 707.63 119.1 768.25 115.88 768.25 115.88 707.63"/><line class="cls-2" x1="115.88" y1="707.63" x2="115.88" y2="768.25"/><line class="cls-2" x1="115.88" y1="768.25" x2="119.1" y2="768.25"/><line class="cls-2" x1="119.1" y1="768.25" x2="119.1" y2="707.63"/><line class="cls-2" x1="119.1" y1="707.63" x2="115.88" y2="707.63"/><polyline class="cls-3" points="307.13 700.08 310.35 700.08 310.35 731.04 307.13 731.04 307.13 700.08"/><line class="cls-2" x1="307.13" y1="700.08" x2="307.13" y2="731.04"/><line class="cls-2" x1="307.13" y1="731.04" x2="310.35" y2="731.04"/><line class="cls-2" x1="310.35" y1="731.04" x2="310.35" y2="700.08"/><line class="cls-2" x1="310.35" y1="700.08" x2="307.13" y2="700.08"/><path class="cls-1" d="m277.74,546.31c0-57.91-46.95-104.87-104.87-104.87s-104.87,46.95-104.87,104.87,46.95,104.87,104.87,104.87,104.87-46.95,104.87-104.87"/><line class="cls-1" x1="160.99" y1="56.7" x2="193.96" y2="56.7"/><line class="cls-1" x1="193.96" y1="56.7" x2="193.96" y2="89.67"/><line class="cls-1" x1="193.96" y1="89.67" x2="160.99" y2="89.67"/><line class="cls-1" x1="160.99" y1="89.67" x2="160.99" y2="56.7"/><line class="cls-1" x1="208.95" y1="132.63" x2="268.39" y2="132.63"/><line class="cls-1" x1="268.39" y1="132.63" x2="268.39" y2="160.11"/><line class="cls-1" x1="268.39" y1="160.11" x2="208.95" y2="160.11"/><line class="cls-1" x1="208.95" y1="160.11" x2="208.95" y2="132.63"/><line class="cls-1" x1="286.38" y1="73.18" x2="345.33" y2="73.18"/><line class="cls-1" x1="345.33" y1="73.18" x2="345.33" y2="102.16"/><line class="cls-1" x1="345.33" y1="102.16" x2="286.38" y2="102.16"/><line class="cls-1" x1="286.38" y1="102.16" x2="286.38" y2="73.18"/><line class="cls-1" x1="363.31" y1="147.12" x2="422.75" y2="147.12"/><line class="cls-1" x1="422.75" y1="147.12" x2="422.75" y2="177.09"/><line class="cls-1" x1="422.75" y1="177.09" x2="363.31" y2="177.09"/><line class="cls-1" x1="363.31" y1="177.09" x2="363.31" y2="147.12"/><line class="cls-1" x1="438.74" y1="88.67" x2="498.19" y2="88.67"/><line class="cls-1" x1="498.19" y1="88.67" x2="498.19" y2="119.14"/><line class="cls-1" x1="498.19" y1="119.14" x2="438.74" y2="119.14"/><line class="cls-1" x1="438.74" y1="119.14" x2="438.74" y2="88.67"/><line class="cls-1" x1="504.18" y1="89.67" x2="563.13" y2="89.67"/><line class="cls-1" x1="563.13" y1="89.67" x2="563.13" y2="117.15"/><line class="cls-1" x1="563.13" y1="117.15" x2="504.18" y2="117.15"/><line class="cls-1" x1="504.18" y1="117.15" x2="504.18" y2="89.67"/><line class="cls-1" x1="334.07" y1=".12" x2="430.51" y2=".12"/><line class="cls-1" x1="430.51" y1=".12" x2="430.51" y2="34.12"/><line class="cls-1" x1="430.51" y1="34.12" x2="334.07" y2="34.12"/><line class="cls-1" x1="334.07" y1="34.12" x2="334.07" y2=".12"/><line class="cls-1" x1="5.44" y1="199.26" x2="37.27" y2="199.26"/><line class="cls-1" x1="37.27" y1="199.26" x2="37.27" y2="202.33"/><line class="cls-1" x1="37.27" y1="202.33" x2="5.44" y2="202.33"/><line class="cls-1" x1="5.44" y1="202.33" x2="5.44" y2="199.26"/><line class="cls-1" x1="44.34" y1="238.48" x2="75.13" y2="238.48"/><line class="cls-1" x1="75.13" y1="238.48" x2="75.13" y2="241.82"/><line class="cls-1" x1="75.13" y1="241.82" x2="44.34" y2="241.82"/><line class="cls-1" x1="44.34" y1="241.82" x2="44.34" y2="238.48"/><line class="cls-1" x1="82.68" y1="276.81" x2="113.46" y2="276.81"/><line class="cls-1" x1="113.46" y1="276.81" x2="113.46" y2="280.16"/><line class="cls-1" x1="113.46" y1="280.16" x2="82.68" y2="280.16"/><line class="cls-1" x1="82.68" y1="280.16" x2="82.68" y2="276.81"/><line class="cls-1" x1="122.27" y1="238.73" x2="153.06" y2="238.73"/><line class="cls-1" x1="153.06" y1="238.73" x2="153.06" y2="242.07"/><line class="cls-1" x1="153.06" y1="242.07" x2="122.27" y2="242.07"/><line class="cls-1" x1="122.27" y1="242.07" x2="122.27" y2="238.73"/><line class="cls-1" x1="161.87" y1="218.31" x2="228.49" y2="218.31"/><line class="cls-1" x1="228.49" y1="218.31" x2="228.49" y2="250.43"/><line class="cls-1" x1="228.49" y1="250.43" x2="161.87" y2="250.43"/><line class="cls-1" x1="161.87" y1="250.43" x2="161.87" y2="218.31"/><line class="cls-1" x1="237.94" y1="257.02" x2="267.42" y2="257.02"/><line class="cls-1" x1="267.42" y1="257.02" x2="267.42" y2="288.54"/><line class="cls-1" x1="267.42" y1="288.54" x2="237.94" y2="288.54"/><line class="cls-1" x1="237.94" y1="288.54" x2="237.94" y2="257.02"/><line class="cls-1" x1="275.87" y1="249.59" x2="304.93" y2="249.59"/><line class="cls-1" x1="304.93" y1="249.59" x2="304.93" y2="281.11"/><line class="cls-1" x1="304.93" y1="281.11" x2="275.87" y2="281.11"/><line class="cls-1" x1="275.87" y1="281.11" x2="275.87" y2="249.59"/><line class="cls-1" x1="313.32" y1="273.39" x2="342.38" y2="273.39"/><line class="cls-1" x1="342.38" y1="273.39" x2="342.38" y2="304.91"/><line class="cls-1" x1="342.38" y1="304.91" x2="313.32" y2="304.91"/><line class="cls-1" x1="313.32" y1="304.91" x2="313.32" y2="273.39"/><line class="cls-1" x1="351.63" y1="263.27" x2="380.69" y2="263.27"/><line class="cls-1" x1="380.69" y1="263.27" x2="380.69" y2="294.79"/><line class="cls-1" x1="380.69" y1="294.79" x2="351.63" y2="294.79"/><line class="cls-1" x1="351.63" y1="294.79" x2="351.63" y2="263.27"/><line class="cls-1" x1="390.54" y1="247.08" x2="419.6" y2="247.08"/><line class="cls-1" x1="419.6" y1="247.08" x2="419.6" y2="278.6"/><line class="cls-1" x1="419.6" y1="278.6" x2="390.54" y2="278.6"/><line class="cls-1" x1="390.54" y1="278.6" x2="390.54" y2="247.08"/><line class="cls-1" x1="429.13" y1="266.16" x2="458.19" y2="266.16"/><line class="cls-1" x1="458.19" y1="266.16" x2="458.19" y2="297.68"/><line class="cls-1" x1="458.19" y1="297.68" x2="429.13" y2="297.68"/><line class="cls-1" x1="429.13" y1="297.68" x2="429.13" y2="266.16"/><line class="cls-1" x1="467.45" y1="235.55" x2="496.51" y2="235.55"/><line class="cls-1" x1="496.51" y1="235.55" x2="496.51" y2="267.07"/><line class="cls-1" x1="496.51" y1="267.07" x2="467.45" y2="267.07"/><line class="cls-1" x1="467.45" y1="267.07" x2="467.45" y2="235.55"/><line class="cls-1" x1="506.21" y1="242.1" x2="535.27" y2="242.1"/><line class="cls-1" x1="535.27" y1="242.1" x2="535.27" y2="273.62"/><line class="cls-1" x1="535.27" y1="273.62" x2="506.21" y2="273.62"/><line class="cls-1" x1="506.21" y1="273.62" x2="506.21" y2="242.1"/><line class="cls-1" x1="544.2" y1="204.1" x2="573.26" y2="204.1"/><line class="cls-1" x1="573.26" y1="204.1" x2="573.26" y2="235.62"/><line class="cls-1" x1="573.26" y1="235.62" x2="544.2" y2="235.62"/><line class="cls-1" x1="544.2" y1="235.62" x2="544.2" y2="204.1"/><line class="cls-1" x1="583.34" y1="186.53" x2="711.83" y2="186.53"/><line class="cls-1" x1="711.83" y1="186.53" x2="711.83" y2="218.05"/><line class="cls-1" x1="711.83" y1="218.05" x2="583.34" y2="218.05"/><line class="cls-1" x1="583.34" y1="218.05" x2="583.34" y2="186.53"/><line class="cls-1" x1="863.48" y1="197.7" x2="895.28" y2="197.7"/><line class="cls-1" x1="895.28" y1="197.7" x2="895.28" y2="263.23"/><line class="cls-1" x1="895.28" y1="263.23" x2="863.48" y2="263.23"/><line class="cls-1" x1="863.48" y1="263.23" x2="863.48" y2="197.7"/><line class="cls-1" x1="819.96" y1="316.03" x2="878.36" y2="316.03"/><line class="cls-1" x1="878.36" y1="316.03" x2="878.36" y2="345.81"/><line class="cls-1" x1="878.36" y1="345.81" x2="819.96" y2="345.81"/><line class="cls-1" x1="819.96" y1="345.81" x2="819.96" y2="316.03"/><line class="cls-1" x1="719.71" y1="329.24" x2="752.68" y2="329.24"/><line class="cls-1" x1="752.68" y1="329.24" x2="752.68" y2="424.65"/><line class="cls-1" x1="752.68" y1="424.65" x2="719.71" y2="424.65"/><line class="cls-1" x1="719.71" y1="424.65" x2="719.71" y2="329.24"/><line class="cls-1" x1="906.54" y1="377.69" x2="938.01" y2="377.69"/><line class="cls-1" x1="938.01" y1="377.69" x2="938.01" y2="474.11"/><line class="cls-1" x1="938.01" y1="474.11" x2="906.54" y2="474.11"/><line class="cls-1" x1="906.54" y1="474.11" x2="906.54" y2="377.69"/><line class="cls-1" x1="827.29" y1="470.57" x2="860.59" y2="470.57"/><line class="cls-1" x1="860.59" y1="470.57" x2="860.59" y2="567.71"/><line class="cls-1" x1="860.59" y1="567.71" x2="827.29" y2="567.71"/><line class="cls-1" x1="827.29" y1="567.71" x2="827.29" y2="470.57"/><line class="cls-1" x1="695.81" y1="470.57" x2="728.07" y2="470.57"/><line class="cls-1" x1="728.07" y1="470.57" x2="728.07" y2="568.06"/><line class="cls-1" x1="728.07" y1="568.06" x2="695.81" y2="568.06"/><line class="cls-1" x1="695.81" y1="568.06" x2="695.81" y2="470.57"/><line class="cls-1" x1="313.32" y1="375.59" x2="342.38" y2="375.59"/><line class="cls-1" x1="342.38" y1="375.59" x2="342.38" y2="407.11"/><line class="cls-1" x1="342.38" y1="407.11" x2="313.32" y2="407.11"/><line class="cls-1" x1="313.32" y1="407.11" x2="313.32" y2="375.59"/><line class="cls-1" x1="429.13" y1="380.82" x2="458.19" y2="380.82"/><line class="cls-1" x1="458.19" y1="380.82" x2="458.19" y2="412.34"/><line class="cls-1" x1="458.19" y1="412.34" x2="429.13" y2="412.34"/><line class="cls-1" x1="429.13" y1="412.34" x2="429.13" y2="380.82"/><line class="cls-1" x1="351.63" y1="446.13" x2="380.69" y2="446.13"/><line class="cls-1" x1="380.69" y1="446.13" x2="380.69" y2="519.66"/><line class="cls-1" x1="380.69" y1="519.66" x2="351.63" y2="519.66"/><line class="cls-1" x1="351.63" y1="519.66" x2="351.63" y2="446.13"/><line class="cls-1" x1="467.45" y1="433.32" x2="496.51" y2="433.32"/><line class="cls-1" x1="496.51" y1="433.32" x2="496.51" y2="503.01"/><line class="cls-1" x1="496.51" y1="503.01" x2="467.45" y2="503.01"/><line class="cls-1" x1="467.45" y1="503.01" x2="467.45" y2="433.32"/><line class="cls-1" x1="544.2" y1="380.43" x2="573.26" y2="380.43"/><line class="cls-1" x1="573.26" y1="380.43" x2="573.26" y2="411.95"/><line class="cls-1" x1="573.26" y1="411.95" x2="544.2" y2="411.95"/><line class="cls-1" x1="544.2" y1="411.95" x2="544.2" y2="380.43"/><line class="cls-1" x1="544.2" y1="483.78" x2="573.26" y2="483.78"/><line class="cls-1" x1="573.26" y1="483.78" x2="573.26" y2="515.3"/><line class="cls-1" x1="573.26" y1="515.3" x2="544.2" y2="515.3"/><line class="cls-1" x1="544.2" y1="515.3" x2="544.2" y2="483.78"/><line class="cls-1" x1="506.21" y1="547.66" x2="535.27" y2="547.66"/><line class="cls-1" x1="535.27" y1="547.66" x2="535.27" y2="579.18"/><line class="cls-1" x1="535.27" y1="579.18" x2="506.21" y2="579.18"/><line class="cls-1" x1="506.21" y1="579.18" x2="506.21" y2="547.66"/><line class="cls-1" x1="467.45" y1="667.87" x2="496.51" y2="667.87"/><line class="cls-1" x1="496.51" y1="667.87" x2="496.51" y2="763.11"/><line class="cls-1" x1="496.51" y1="763.11" x2="467.45" y2="763.11"/><line class="cls-1" x1="467.45" y1="763.11" x2="467.45" y2="667.87"/><line class="cls-1" x1="582.88" y1="358.34" x2="611.94" y2="358.34"/><line class="cls-1" x1="611.94" y1="358.34" x2="611.94" y2="389.86"/><line class="cls-1" x1="611.94" y1="389.86" x2="582.88" y2="389.86"/><line class="cls-1" x1="582.88" y1="389.86" x2="582.88" y2="358.34"/><line class="cls-1" x1="620.71" y1="512.59" x2="649.77" y2="512.59"/><line class="cls-1" x1="649.77" y1="512.59" x2="649.77" y2="544.11"/><line class="cls-1" x1="649.77" y1="544.11" x2="620.71" y2="544.11"/><line class="cls-1" x1="620.71" y1="544.11" x2="620.71" y2="512.59"/><line class="cls-1" x1="549.4" y1="764.02" x2="549.4" y2="734.96"/><line class="cls-1" x1="549.4" y1="734.96" x2="644.64" y2="734.96"/><line class="cls-1" x1="644.64" y1="734.96" x2="644.64" y2="764.02"/><line class="cls-1" x1="644.64" y1="764.02" x2="549.4" y2="764.02"/><line class="cls-1" x1="658" y1="614.49" x2="680.89" y2="614.49"/><line class="cls-1" x1="680.89" y1="614.49" x2="680.89" y2="708.4"/><line class="cls-1" x1="680.89" y1="708.4" x2="658" y2="708.4"/><line class="cls-1" x1="658" y1="708.4" x2="658" y2="614.49"/><line class="cls-1" x1="325.29" y1="766.06" x2="325.29" y2="737"/><line class="cls-1" x1="325.29" y1="737" x2="420.53" y2="737"/><line class="cls-1" x1="420.53" y1="737" x2="420.53" y2="766.06"/><line class="cls-1" x1="420.53" y1="766.06" x2="325.29" y2="766.06"/><polyline class="cls-4" points="127.01 452.01 119.09 456.29 111.56 461.24 104.49 466.82 97.92 472.98 91.9 479.69 85.99 487.59 80.86 496.02 76.54 504.89 73.07 514.13 70.49 523.66 68.81 533.38 68.06 543.22 68.23 553.09 69.33 562.89 71.35 572.55 74.26 581.98 78.05 591.09 82.68 599.81 88.11 608.05 94.29 615.74 101.16 622.82 108.67 629.22 116.75 634.89 125.32 639.77 134.32 643.83 143.65 647.03 153.25 649.32 163.02 650.71 172.88 651.18 182.22 650.76 191.49 649.51 200.61 647.45 209.51 644.57 218.12 640.92 226.36 636.51 234.19 631.39 241.52 625.59 248.31 619.16 254.5 612.15 297.64 646.94 289.83 655.93 281.36 664.31 272.3 672.04 262.68 679.08 252.58 685.38 242.02 690.92 231.09 695.66 219.84 699.57 208.33 702.63 196.62 704.83 184.78 706.16 172.88 706.6 160.82 706.15 148.83 704.79 136.97 702.53 125.32 699.38 113.94 695.37 102.89 690.51 92.24 684.84 82.05 678.38 72.37 671.17 63.26 663.26 54.77 654.68 46.95 645.48 39.85 635.73 33.5 625.47 27.94 614.76 23.2 603.66 19.31 592.23 16.29 580.55 14.16 568.67 12.92 556.67 12.6 544.6 13.18 532.55 14.67 520.57 17.05 508.74 20.32 497.12 24.46 485.79 29.43 474.79 35.22 464.2 41.79 454.07 49.1 444.47 75.77 466.42 82.99 458.38 90.86 450.99 99.35 444.3 108.38 438.36 117.88 433.23 127.01 452.01"/><polyline class="cls-4" points="326.21 593.01 293.17 582.95 290.02 592.05 286.17 600.88 281.66 609.39 276.51 617.54 270.76 625.26 254.5 612.15 259.3 605.71 263.6 598.92 267.36 591.82 270.56 584.45 273.19 576.86 275.57 567.55 277.08 558.06 277.72 548.46 277.48 538.86 276.36 529.31 274.37 519.91 271.52 510.73 267.85 501.84 263.38 493.34 258.15 485.27 252.2 477.72 245.59 470.75 238.36 464.41 230.59 458.75 222.33 453.84 213.65 449.7 204.63 446.37 221.42 393.55 232.61 397.57 243.48 402.41 253.96 408.04 263.99 414.43 273.51 421.55 282.49 429.36 290.86 437.81 298.58 446.86 305.61 456.45 311.91 466.55 317.44 477.08 322.18 487.99 326.09 499.22 329.16 510.71 331.37 522.4 332.71 534.22 333.17 546.1 332.74 557.99 331.44 569.82 329.26 581.51 326.21 593.01"/><polyline class="cls-4" points="160.93 386.47 163.51 420.91 172.88 420.56 182.54 420.93 192.15 422.05 201.64 423.9 210.96 426.47 204.63 446.37 196.86 444.23 188.95 442.69 180.94 441.76 172.88 441.45 165.06 441.74 155.23 442.94 145.55 445.07 136.12 448.1 127.01 452.01 102.78 402.17 113.86 397.28 125.29 393.25 136.99 390.09 148.89 387.83 160.93 386.47"/></g></svg>