<svg width="395" height="264" viewBox="0 0 395 264" fill="none" xmlns="http://www.w3.org/2000/svg">
<path fill-rule="evenodd" clip-rule="evenodd" d="M21.1499 103.53L45.2799 93.8799L59.8198 130.24L35.6898 139.9L21.1499 103.53Z" fill="black"/>
<path fill-rule="evenodd" clip-rule="evenodd" d="M102.89 68.86L127.02 59.21L141.56 95.57L117.43 105.22L102.89 68.86Z" fill="black"/>
<path fill-rule="evenodd" clip-rule="evenodd" d="M185.9 37.2501L210.03 27.6001L224.57 63.9601L200.44 73.6101L185.9 37.2501Z" fill="black"/>
<path fill-rule="evenodd" clip-rule="evenodd" d="M272.07 10.2301L297.21 0.320068L307.13 25.4501L281.99 35.3701L272.07 10.2301Z" fill="black"/>
<path fill-rule="evenodd" clip-rule="evenodd" d="M294.17 83.0801L325.03 71.3501L334.73 96.8701L303.87 108.6L294.17 83.0801Z" fill="black"/>
<path fill-rule="evenodd" clip-rule="evenodd" d="M324.69 151.43L355.02 139.7L364.86 165.15L334.53 176.88L324.69 151.43Z" fill="black"/>
<path fill-rule="evenodd" clip-rule="evenodd" d="M359.82 217.33L384.26 207.41L394.17 231.85L369.73 241.76L359.82 217.33Z" fill="black"/>
<path fill-rule="evenodd" clip-rule="evenodd" d="M267.47 219.16L292.27 209.27L304.69 240.43L279.89 250.32L267.47 219.16Z" fill="black"/>
<path fill-rule="evenodd" clip-rule="evenodd" d="M179.49 219.16L204.29 209.27L216.71 240.43L191.91 250.32L179.49 219.16Z" fill="black"/>
<path fill-rule="evenodd" clip-rule="evenodd" d="M88.45 226.97L113.25 217.08L125.67 248.24L100.87 258.13L88.45 226.97Z" fill="black"/>
<path fill-rule="evenodd" clip-rule="evenodd" d="M0.27002 238.84L24.71 228.92L34.63 253.36L10.1899 263.27L0.27002 238.84Z" fill="black"/>
</svg>
