<svg width="265" height="264" viewBox="0 0 265 264" fill="none" xmlns="http://www.w3.org/2000/svg">
<path fill-rule="evenodd" clip-rule="evenodd" d="M50.21 131.82L50.66 140.4L52 148.89L54.22 157.19L57.3 165.21L61.2 172.86L65.88 180.07L71.29 186.75L77.37 192.82L84.05 198.23L91.26 202.91L98.91 206.81L106.93 209.89L115.23 212.11L123.72 213.45L132.3 213.9L140.88 213.45L149.37 212.11L157.67 209.89L165.69 206.81L173.34 202.91L180.55 198.23L187.23 192.82L193.3 186.75L198.71 180.07L203.39 172.86L207.29 165.21L210.37 157.19L212.59 148.89L213.94 140.4L214.39 131.82L213.94 123.24L212.59 114.75L210.37 106.45L207.29 98.4301L203.39 90.7801L198.71 83.5701L193.3 76.8901L187.23 70.8201L180.55 65.41L173.34 60.73L165.69 56.8301L157.67 53.7501L149.37 51.5301L140.88 50.1901L132.3 49.7401L123.72 50.1901L115.23 51.5301L106.93 53.7501L98.91 56.8301L91.26 60.73L84.05 65.41L77.37 70.8201L71.29 76.8901L65.88 83.5701L61.2 90.7801L57.3 98.4301L54.22 106.45L52 114.75L50.66 123.24L50.21 131.82M234.37 215.23L226.95 223.57L218.85 231.25L210.13 238.21L200.85 244.42L191.08 249.82L180.89 254.37L170.35 258.04L159.53 260.81L148.52 262.65L137.39 263.55L126.23 263.51L115.11 262.52L104.11 260.6L93.32 257.75L82.81 254L72.65 249.37L62.92 243.9L53.69 237.63L45.02 230.6L36.98 222.86L29.62 214.47L23 205.48L17.16 195.97L12.14 186L7.99 175.64L4.73 164.96L2.38 154.05L0.97 142.98L0.5 131.83L0.89 121.7L2.06 111.62L4 101.66L6.7 91.8801L10.14 82.3401L14.31 73.0901L19.18 64.1901L24.72 55.6901L30.89 47.6401L52.44 65.5301L57.83 59.5301L63.67 53.97L69.92 48.8801L76.55 44.29L83.51 40.22L70.34 15.5001L79.76 10.9501L89.51 7.16003L99.53 4.16003L109.76 1.96008L120.13 0.580078L122.72 28.47L130.86 28.0301L139.01 28.2401L147.12 29.0801L155.14 30.5601L163.02 32.67L171.3 5.91003L181.81 9.66003L191.97 14.29L201.7 19.7601L210.93 26.0301L219.6 33.0601L227.64 40.8L235 49.1901L241.62 58.1801L247.46 67.6901L252.47 77.66L256.62 88.0201L259.88 98.7001L262.22 109.61L263.63 120.68L264.1 131.83L263.73 141.72L262.62 151.55L260.77 161.27L258.2 170.82L231.44 162.54L228.79 170.07L225.56 177.38L221.78 184.42L217.47 191.15L212.66 197.53L234.35 215.25" fill="black"/>
</svg>
