<svg width="321" height="264" viewBox="0 0 321 264" fill="none" xmlns="http://www.w3.org/2000/svg">
<path fill-rule="evenodd" clip-rule="evenodd" d="M244.42 263.41L227.94 256.6L240.99 212.82L65.2299 102.71L41.2198 133.35L25.8198 127.97L0.399902 108.01L6.34985 90.9899L19.6599 73.8299L29.0599 0.449951L47.0299 0.899933L51.1599 53.7099L83.9398 74.2499L117.56 23.0899L133.51 31.4699L110.26 90.7399L142.83 111.14L181.81 60.8099L197.24 70.4699L169.03 127.55L201.71 148.02L244.72 101.03L259.16 111.9L227.89 164.42L257.34 182.87L308.18 144.33L320.21 157.51L271.53 213.5L244.42 263.41Z" fill="black"/>
</svg>
