<?xml version="1.0" encoding="utf-8"?>
<!-- Generator: Adobe Illustrator 26.4.1, SVG Export Plug-In . SVG Version: 6.00 Build 0)  -->
<svg version="1.1" id="Layer_1" xmlns="http://www.w3.org/2000/svg" xmlns:xlink="http://www.w3.org/1999/xlink" x="0px" y="0px"
	 viewBox="0 0 1275.6 935.4" style="enable-background:new 0 0 1275.6 935.4;" xml:space="preserve">
<style type="text/css">
	.st0{fill-rule:evenodd;clip-rule:evenodd;}
	.st1{fill:none;stroke:#000000;stroke-width:0.25;stroke-linecap:round;stroke-linejoin:round;}
</style>
<g>
	<polyline class="st0" points="654.3,376.6 558.4,382.9 523.8,380.6 518.5,380.3 523.8,299 619,293.1 658.7,295.3 654.3,376.6 	"/>
	<polyline class="st0" points="523.8,381.2 558.4,383.5 653.8,377.3 653.8,474.2 618,474.2 618,542.1 523.8,542.1 523.8,381.2 	"/>
	<line class="st1" x1="643.4" y1="910.7" x2="649.4" y2="932.6"/>
	<line class="st1" x1="649.4" y1="932.6" x2="682.3" y2="923.7"/>
	<line class="st1" x1="682.3" y1="923.7" x2="676.4" y2="901.7"/>
	<line class="st1" x1="676.4" y1="901.7" x2="643.4" y2="910.7"/>
	<line class="st1" x1="696.3" y1="830.9" x2="656.9" y2="834.5"/>
	<line class="st1" x1="656.9" y1="834.5" x2="659.2" y2="859.8"/>
	<line class="st1" x1="659.2" y1="859.8" x2="698.7" y2="856.2"/>
	<line class="st1" x1="698.7" y1="856.2" x2="696.3" y2="830.9"/>
	<line class="st1" x1="1230.6" y1="685.1" x2="1207.2" y2="688.7"/>
	<line class="st1" x1="1207.2" y1="688.7" x2="1210.4" y2="709.3"/>
	<line class="st1" x1="1210.4" y1="709.3" x2="1234.2" y2="705.7"/>
	<line class="st1" x1="1234.2" y1="705.7" x2="1230.6" y2="685.1"/>
	<line class="st1" x1="1206.8" y1="742.8" x2="1211.1" y2="771.4"/>
	<line class="st1" x1="1211.1" y1="771.4" x2="1238" y2="767.7"/>
	<line class="st1" x1="1238" y1="767.7" x2="1236.2" y2="755.2"/>
	<line class="st1" x1="1236.2" y1="755.2" x2="1241.1" y2="754.1"/>
	<line class="st1" x1="1241.1" y1="754.1" x2="1240" y2="748.5"/>
	<line class="st1" x1="1240" y1="748.5" x2="1235.5" y2="748.9"/>
	<line class="st1" x1="1235.5" y1="748.9" x2="1233.4" y2="739.1"/>
	<line class="st1" x1="1233.4" y1="739.1" x2="1206.8" y2="742.8"/>
	<line class="st1" x1="1105.6" y1="774.1" x2="1108.2" y2="793.8"/>
	<line class="st1" x1="1108.2" y1="793.8" x2="1127.5" y2="790.8"/>
	<line class="st1" x1="1127.5" y1="790.8" x2="1124.9" y2="771.3"/>
	<line class="st1" x1="1124.9" y1="771.3" x2="1105.6" y2="774.1"/>
	<line class="st1" x1="1080.5" y1="776.1" x2="1059.6" y2="779.1"/>
	<line class="st1" x1="1059.6" y1="779.1" x2="1063" y2="803.4"/>
	<line class="st1" x1="1063" y1="803.4" x2="1084.2" y2="800.3"/>
	<line class="st1" x1="1084.2" y1="800.3" x2="1080.5" y2="776.1"/>
	<line class="st1" x1="1059.1" y1="708.8" x2="1060.9" y2="720"/>
	<line class="st1" x1="1060.9" y1="720" x2="1075.4" y2="718.5"/>
	<line class="st1" x1="1075.4" y1="718.5" x2="1073.7" y2="706.9"/>
	<line class="st1" x1="1073.7" y1="706.9" x2="1059.1" y2="708.8"/>
	<line class="st1" x1="1032.3" y1="711.6" x2="1015.3" y2="714.5"/>
	<line class="st1" x1="1015.3" y1="714.5" x2="1017.2" y2="728.2"/>
	<line class="st1" x1="1017.2" y1="728.2" x2="1034.9" y2="725.5"/>
	<line class="st1" x1="1034.9" y1="725.5" x2="1032.3" y2="711.6"/>
	<line class="st1" x1="1024.3" y1="772.4" x2="1011.2" y2="774.2"/>
	<line class="st1" x1="1011.2" y1="774.2" x2="1013.2" y2="789.3"/>
	<line class="st1" x1="1013.2" y1="789.3" x2="1021" y2="788.7"/>
	<line class="st1" x1="1021" y1="788.7" x2="1024.6" y2="814.1"/>
	<line class="st1" x1="1024.6" y1="814.1" x2="1049.4" y2="810.7"/>
	<line class="st1" x1="1049.4" y1="810.7" x2="1046.6" y2="792.7"/>
	<line class="st1" x1="1046.6" y1="792.7" x2="1043.9" y2="792.8"/>
	<line class="st1" x1="1043.9" y1="792.8" x2="1039.4" y2="763.4"/>
	<line class="st1" x1="1039.4" y1="763.4" x2="1024" y2="765.6"/>
	<line class="st1" x1="1024" y1="765.6" x2="1024.3" y2="772.4"/>
	<line class="st1" x1="1156.5" y1="706.3" x2="1148.5" y2="707.8"/>
	<line class="st1" x1="1148.5" y1="707.8" x2="1150.5" y2="721.5"/>
	<line class="st1" x1="1150.5" y1="721.5" x2="1180.9" y2="717.1"/>
	<line class="st1" x1="1180.9" y1="717.1" x2="1181" y2="717.6"/>
	<line class="st1" x1="1181" y1="717.6" x2="1182.7" y2="717.4"/>
	<line class="st1" x1="1182.7" y1="717.4" x2="1182.4" y2="715.5"/>
	<line class="st1" x1="1182.4" y1="715.5" x2="1181.7" y2="715.5"/>
	<line class="st1" x1="1181.7" y1="715.5" x2="1179" y2="697"/>
	<line class="st1" x1="1179" y1="697" x2="1155.6" y2="700.5"/>
	<line class="st1" x1="1155.6" y1="700.5" x2="1156.5" y2="706.3"/>
	<line class="st1" x1="1092.1" y1="751.1" x2="1084" y2="752.4"/>
	<line class="st1" x1="1084" y1="752.4" x2="1086.6" y2="769"/>
	<line class="st1" x1="1086.6" y1="769" x2="1094.7" y2="767.8"/>
	<line class="st1" x1="1094.7" y1="767.8" x2="1092.1" y2="751.1"/>
	<line class="st1" x1="972" y1="891.9" x2="976.8" y2="912.7"/>
	<line class="st1" x1="976.8" y1="912.7" x2="986" y2="910.8"/>
	<line class="st1" x1="986" y1="910.8" x2="986.3" y2="912.2"/>
	<line class="st1" x1="986.3" y1="912.2" x2="1009" y2="907.3"/>
	<line class="st1" x1="1009" y1="907.3" x2="1003.3" y2="880.5"/>
	<line class="st1" x1="1003.3" y1="880.5" x2="981.8" y2="885"/>
	<line class="st1" x1="981.8" y1="885" x2="982.6" y2="888.8"/>
	<line class="st1" x1="982.6" y1="888.8" x2="981.5" y2="889"/>
	<line class="st1" x1="981.5" y1="889" x2="981.7" y2="889.8"/>
	<line class="st1" x1="981.7" y1="889.8" x2="972" y2="891.9"/>
	<line class="st1" x1="987.4" y1="869.3" x2="988.5" y2="877.2"/>
	<line class="st1" x1="988.5" y1="877.2" x2="1005.3" y2="874.8"/>
	<line class="st1" x1="1005.3" y1="874.8" x2="1003.9" y2="866.7"/>
	<line class="st1" x1="1003.9" y1="866.7" x2="987.4" y2="869.3"/>
	<line class="st1" x1="216.9" y1="902.6" x2="248.3" y2="905"/>
	<line class="st1" x1="248.3" y1="905" x2="251.8" y2="862.4"/>
	<line class="st1" x1="251.8" y1="862.4" x2="220.2" y2="860.2"/>
	<line class="st1" x1="220.2" y1="860.2" x2="216.9" y2="902.6"/>
	<line class="st1" x1="118.4" y1="888" x2="112.9" y2="898.8"/>
	<line class="st1" x1="112.9" y1="898.8" x2="130.2" y2="907.9"/>
	<line class="st1" x1="130.2" y1="907.9" x2="150.7" y2="868.4"/>
	<line class="st1" x1="150.7" y1="868.4" x2="154.1" y2="870"/>
	<line class="st1" x1="154.1" y1="870" x2="156.8" y2="864.8"/>
	<line class="st1" x1="156.8" y1="864.8" x2="136.6" y2="852.7"/>
	<line class="st1" x1="136.6" y1="852.7" x2="134.7" y2="855.5"/>
	<line class="st1" x1="134.7" y1="855.5" x2="130.4" y2="853.2"/>
	<line class="st1" x1="130.4" y1="853.2" x2="128.5" y2="856.7"/>
	<line class="st1" x1="128.5" y1="856.7" x2="128" y2="856.5"/>
	<line class="st1" x1="128" y1="856.5" x2="113.1" y2="885.3"/>
	<line class="st1" x1="113.1" y1="885.3" x2="118.4" y2="888"/>
	<line class="st1" x1="470.3" y1="852.4" x2="470.6" y2="885.1"/>
	<line class="st1" x1="470.6" y1="885.1" x2="510.5" y2="884.8"/>
	<line class="st1" x1="510.5" y1="884.8" x2="510.2" y2="851.9"/>
	<line class="st1" x1="510.2" y1="851.9" x2="470.3" y2="852.2"/>
	<line class="st1" x1="470.3" y1="852.2" x2="470.3" y2="852.4"/>
	<line class="st1" x1="440.2" y1="842.7" x2="440.6" y2="862.6"/>
	<line class="st1" x1="440.6" y1="862.6" x2="459.4" y2="862.4"/>
	<line class="st1" x1="459.4" y1="862.4" x2="459.3" y2="852.5"/>
	<line class="st1" x1="459.3" y1="852.5" x2="470.3" y2="852.4"/>
	<line class="st1" x1="470.3" y1="852.4" x2="470.3" y2="852.2"/>
	<line class="st1" x1="470.3" y1="852.2" x2="470.2" y2="842.4"/>
	<line class="st1" x1="470.2" y1="842.4" x2="440.2" y2="842.7"/>
	<line class="st1" x1="530.3" y1="832.5" x2="530.4" y2="850.3"/>
	<line class="st1" x1="530.4" y1="850.3" x2="548.3" y2="850.2"/>
	<line class="st1" x1="548.3" y1="850.2" x2="548.2" y2="832.3"/>
	<line class="st1" x1="548.2" y1="832.3" x2="530.3" y2="832.5"/>
	<line class="st1" x1="556.9" y1="871.2" x2="591.9" y2="871"/>
	<line class="st1" x1="591.9" y1="871" x2="591.7" y2="841.4"/>
	<line class="st1" x1="591.7" y1="841.4" x2="556.7" y2="841.6"/>
	<line class="st1" x1="556.7" y1="841.6" x2="556.9" y2="871.2"/>
	<line class="st1" x1="756.7" y1="887.2" x2="760.2" y2="918"/>
	<line class="st1" x1="760.2" y1="918" x2="783.3" y2="915.4"/>
	<line class="st1" x1="783.3" y1="915.4" x2="780.1" y2="885.9"/>
	<line class="st1" x1="780.1" y1="885.9" x2="782.4" y2="885.7"/>
	<line class="st1" x1="782.4" y1="885.7" x2="782.2" y2="884.3"/>
	<line class="st1" x1="782.2" y1="884.3" x2="756.7" y2="887.2"/>
	<line class="st1" x1="809.4" y1="878.4" x2="811.4" y2="895.6"/>
	<line class="st1" x1="811.4" y1="895.6" x2="820.2" y2="894.6"/>
	<line class="st1" x1="820.2" y1="894.6" x2="818.3" y2="877.2"/>
	<line class="st1" x1="818.3" y1="877.2" x2="809.4" y2="878.4"/>
	<line class="st1" x1="827.4" y1="812.8" x2="819.2" y2="813.5"/>
	<line class="st1" x1="819.2" y1="813.5" x2="821.1" y2="836.4"/>
	<line class="st1" x1="821.1" y1="836.4" x2="844.1" y2="834.7"/>
	<line class="st1" x1="844.1" y1="834.7" x2="841.9" y2="811.7"/>
	<line class="st1" x1="841.9" y1="811.7" x2="840.4" y2="811.7"/>
	<line class="st1" x1="840.4" y1="811.7" x2="840.1" y2="808.2"/>
	<line class="st1" x1="840.1" y1="808.2" x2="827.2" y2="809.3"/>
	<line class="st1" x1="827.2" y1="809.3" x2="827.4" y2="812.8"/>
	<line class="st1" x1="871.3" y1="807.8" x2="873.3" y2="833.2"/>
	<line class="st1" x1="873.3" y1="833.2" x2="902" y2="831"/>
	<line class="st1" x1="902" y1="831" x2="901.1" y2="819.5"/>
	<line class="st1" x1="901.1" y1="819.5" x2="911.1" y2="818.9"/>
	<line class="st1" x1="911.1" y1="818.9" x2="909.9" y2="801.7"/>
	<line class="st1" x1="909.9" y1="801.7" x2="899.6" y2="802.5"/>
	<line class="st1" x1="899.6" y1="802.5" x2="899.8" y2="805.6"/>
	<line class="st1" x1="899.8" y1="805.6" x2="871.3" y2="807.8"/>
	<line class="st1" x1="918.2" y1="805.6" x2="918.3" y2="812.6"/>
	<line class="st1" x1="918.3" y1="812.6" x2="923" y2="812.6"/>
	<line class="st1" x1="923" y1="812.6" x2="923.5" y2="837.9"/>
	<line class="st1" x1="923.5" y1="837.9" x2="939.7" y2="837.8"/>
	<line class="st1" x1="939.7" y1="837.8" x2="939.4" y2="832.4"/>
	<line class="st1" x1="939.4" y1="832.4" x2="964.9" y2="832"/>
	<line class="st1" x1="964.9" y1="832" x2="964.5" y2="808.3"/>
	<line class="st1" x1="964.5" y1="808.3" x2="952.3" y2="808.6"/>
	<line class="st1" x1="952.3" y1="808.6" x2="950.9" y2="803.2"/>
	<line class="st1" x1="950.9" y1="803.2" x2="941.6" y2="803.2"/>
	<line class="st1" x1="941.6" y1="803.2" x2="941.6" y2="805"/>
	<line class="st1" x1="941.6" y1="805" x2="918.2" y2="805.6"/>
	<line class="st1" x1="89.6" y1="793.8" x2="111" y2="802.3"/>
	<line class="st1" x1="111" y1="802.3" x2="122.7" y2="772.2"/>
	<line class="st1" x1="122.7" y1="772.2" x2="95.8" y2="761.6"/>
	<line class="st1" x1="95.8" y1="761.6" x2="92.5" y2="770.3"/>
	<line class="st1" x1="92.5" y1="770.3" x2="97.8" y2="772.5"/>
	<line class="st1" x1="97.8" y1="772.5" x2="89.6" y2="793.8"/>
	<line class="st1" x1="61.8" y1="752.9" x2="58.3" y2="760.8"/>
	<line class="st1" x1="58.3" y1="760.8" x2="69.3" y2="765.9"/>
	<line class="st1" x1="69.3" y1="765.9" x2="77.7" y2="747.8"/>
	<line class="st1" x1="77.7" y1="747.8" x2="64.8" y2="741.9"/>
	<line class="st1" x1="64.8" y1="741.9" x2="60.2" y2="752.2"/>
	<line class="st1" x1="60.2" y1="752.2" x2="61.8" y2="752.9"/>
	<line class="st1" x1="357.1" y1="899.8" x2="374.2" y2="899.9"/>
	<line class="st1" x1="374.2" y1="899.9" x2="374.1" y2="890.9"/>
	<line class="st1" x1="374.1" y1="890.9" x2="389.5" y2="890.9"/>
	<line class="st1" x1="389.5" y1="890.9" x2="389.5" y2="865.7"/>
	<line class="st1" x1="389.5" y1="865.7" x2="374.2" y2="865.7"/>
	<line class="st1" x1="374.2" y1="865.7" x2="374.2" y2="856.8"/>
	<line class="st1" x1="374.2" y1="856.8" x2="357.2" y2="856.8"/>
	<line class="st1" x1="357.2" y1="856.8" x2="357.1" y2="899.8"/>
	<line class="st1" x1="715.3" y1="895.6" x2="698" y2="900.3"/>
	<line class="st1" x1="698" y1="900.3" x2="702.7" y2="917.6"/>
	<line class="st1" x1="702.7" y1="917.6" x2="720.1" y2="912.8"/>
	<line class="st1" x1="720.1" y1="912.8" x2="715.3" y2="895.6"/>
	<line class="st1" x1="1017.8" y1="884.2" x2="1020.2" y2="896.6"/>
	<line class="st1" x1="1020.2" y1="896.6" x2="1029.9" y2="894.9"/>
	<line class="st1" x1="1029.9" y1="894.9" x2="1027.6" y2="882.5"/>
	<line class="st1" x1="1027.6" y1="882.5" x2="1017.8" y2="884.2"/>
	<line class="st1" x1="1065.3" y1="881.2" x2="1057.7" y2="904.6"/>
	<line class="st1" x1="1057.7" y1="904.6" x2="1080.4" y2="912.3"/>
	<line class="st1" x1="1080.4" y1="912.3" x2="1088.2" y2="888.9"/>
	<line class="st1" x1="1088.2" y1="888.9" x2="1065.3" y2="881.2"/>
	<line class="st1" x1="343.7" y1="598.9" x2="376.4" y2="599.9"/>
	<line class="st1" x1="376.4" y1="599.9" x2="375.8" y2="624"/>
	<line class="st1" x1="375.8" y1="624" x2="343" y2="623.1"/>
	<line class="st1" x1="343" y1="623.1" x2="343.7" y2="598.9"/>
	<line class="st1" x1="405.1" y1="599.7" x2="424.8" y2="599.8"/>
	<line class="st1" x1="424.8" y1="599.8" x2="424.7" y2="620.2"/>
	<line class="st1" x1="424.7" y1="620.2" x2="405" y2="620.1"/>
	<line class="st1" x1="405" y1="620.1" x2="405.1" y2="599.7"/>
	<line class="st1" x1="454.2" y1="602.6" x2="473.9" y2="602.5"/>
	<line class="st1" x1="473.9" y1="602.5" x2="474" y2="622.8"/>
	<line class="st1" x1="474" y1="622.8" x2="454.3" y2="622.9"/>
	<line class="st1" x1="454.3" y1="622.9" x2="454.2" y2="602.6"/>
	<line class="st1" x1="502" y1="600.3" x2="522.2" y2="599.9"/>
	<line class="st1" x1="522.2" y1="599.9" x2="522.6" y2="619.1"/>
	<line class="st1" x1="522.6" y1="619.1" x2="502.4" y2="619.5"/>
	<line class="st1" x1="502.4" y1="619.5" x2="502" y2="600.3"/>
	<line class="st1" x1="550.7" y1="600.6" x2="571" y2="600.6"/>
	<line class="st1" x1="571" y1="600.6" x2="571" y2="619.5"/>
	<line class="st1" x1="571" y1="619.5" x2="550.7" y2="619.5"/>
	<line class="st1" x1="550.7" y1="619.5" x2="550.7" y2="600.6"/>
	<line class="st1" x1="607.8" y1="599.7" x2="633.3" y2="599.6"/>
	<line class="st1" x1="633.3" y1="599.6" x2="633.5" y2="626.9"/>
	<line class="st1" x1="633.5" y1="626.9" x2="607.9" y2="627"/>
	<line class="st1" x1="607.9" y1="627" x2="607.8" y2="599.7"/>
	<line class="st1" x1="646.5" y1="621.7" x2="664.4" y2="621.7"/>
	<line class="st1" x1="664.4" y1="621.7" x2="664.4" y2="645.5"/>
	<line class="st1" x1="664.4" y1="645.5" x2="646.5" y2="645.5"/>
	<line class="st1" x1="646.5" y1="645.5" x2="646.5" y2="621.7"/>
	<line class="st1" x1="526" y1="588.8" x2="535.1" y2="588.7"/>
	<line class="st1" x1="535.1" y1="588.7" x2="535.2" y2="605.7"/>
	<line class="st1" x1="535.2" y1="605.7" x2="526.2" y2="605.8"/>
	<line class="st1" x1="526.2" y1="605.8" x2="526" y2="588.8"/>
	<line class="st1" x1="574.9" y1="588.9" x2="583.6" y2="588.6"/>
	<line class="st1" x1="583.6" y1="588.6" x2="583.7" y2="606"/>
	<line class="st1" x1="583.7" y1="606" x2="575" y2="606"/>
	<line class="st1" x1="575" y1="606" x2="574.9" y2="588.9"/>
	<line class="st1" x1="586.7" y1="587.7" x2="586.8" y2="604.2"/>
	<line class="st1" x1="586.8" y1="604.2" x2="595.2" y2="604"/>
	<line class="st1" x1="595.2" y1="604" x2="595.4" y2="587.5"/>
	<line class="st1" x1="595.4" y1="587.5" x2="586.7" y2="587.7"/>
	<line class="st1" x1="692.5" y1="600.9" x2="731.5" y2="601.4"/>
	<line class="st1" x1="731.5" y1="601.4" x2="731.2" y2="628"/>
	<line class="st1" x1="731.2" y1="628" x2="692.2" y2="627.5"/>
	<line class="st1" x1="692.2" y1="627.5" x2="692.5" y2="600.9"/>
	<line class="st1" x1="774.8" y1="601.4" x2="797.1" y2="601.5"/>
	<line class="st1" x1="797.1" y1="601.5" x2="797" y2="622.5"/>
	<line class="st1" x1="797" y1="622.5" x2="774.6" y2="622.3"/>
	<line class="st1" x1="774.6" y1="622.3" x2="774.8" y2="601.4"/>
	<line class="st1" x1="821" y1="589.4" x2="832.5" y2="589.2"/>
	<line class="st1" x1="832.5" y1="589.2" x2="832.7" y2="602.3"/>
	<line class="st1" x1="832.7" y1="602.3" x2="821.3" y2="602.5"/>
	<line class="st1" x1="821.3" y1="602.5" x2="821" y2="589.4"/>
	<line class="st1" x1="844.5" y1="601.6" x2="871.8" y2="601.7"/>
	<line class="st1" x1="871.8" y1="601.7" x2="871.7" y2="626.2"/>
	<line class="st1" x1="871.7" y1="626.2" x2="844.4" y2="626.1"/>
	<line class="st1" x1="844.4" y1="626.1" x2="844.5" y2="601.6"/>
	<line class="st1" x1="920.1" y1="602.4" x2="941.2" y2="602.2"/>
	<line class="st1" x1="941.2" y1="602.2" x2="941.3" y2="622.1"/>
	<line class="st1" x1="941.3" y1="622.1" x2="920.3" y2="622.2"/>
	<line class="st1" x1="920.3" y1="622.2" x2="920.1" y2="602.4"/>
	<line class="st1" x1="939.9" y1="630.2" x2="954.1" y2="630.2"/>
	<line class="st1" x1="954.1" y1="630.2" x2="954.1" y2="647.2"/>
	<line class="st1" x1="954.1" y1="647.2" x2="939.9" y2="647.2"/>
	<line class="st1" x1="939.9" y1="647.2" x2="939.9" y2="630.2"/>
	<line class="st1" x1="984" y1="554.6" x2="1001.1" y2="554.8"/>
	<line class="st1" x1="1001.1" y1="554.8" x2="1001.1" y2="572"/>
	<line class="st1" x1="1001.1" y1="572" x2="983.9" y2="571.9"/>
	<line class="st1" x1="983.9" y1="571.9" x2="984" y2="554.6"/>
	<line class="st1" x1="970.6" y1="602.3" x2="970.4" y2="620.7"/>
	<line class="st1" x1="970.4" y1="620.7" x2="993.5" y2="620.8"/>
	<line class="st1" x1="993.5" y1="620.8" x2="993.8" y2="602"/>
	<line class="st1" x1="993.8" y1="602" x2="970.6" y2="602.3"/>
	<line class="st1" x1="984.7" y1="590.2" x2="1008.3" y2="590.2"/>
	<line class="st1" x1="1008.3" y1="590.2" x2="1008.2" y2="606.7"/>
	<line class="st1" x1="1008.2" y1="606.7" x2="998.5" y2="606.7"/>
	<line class="st1" x1="998.5" y1="606.7" x2="998.6" y2="598.9"/>
	<line class="st1" x1="998.6" y1="598.9" x2="984.6" y2="598.8"/>
	<line class="st1" x1="984.6" y1="598.8" x2="984.7" y2="590.2"/>
	<line class="st1" x1="917.7" y1="459.5" x2="940.3" y2="459.5"/>
	<line class="st1" x1="940.3" y1="459.5" x2="940.3" y2="452.4"/>
	<line class="st1" x1="940.3" y1="452.4" x2="970.9" y2="452.4"/>
	<line class="st1" x1="970.9" y1="452.4" x2="970.9" y2="459.4"/>
	<line class="st1" x1="970.9" y1="459.4" x2="993.4" y2="459.5"/>
	<line class="st1" x1="993.4" y1="459.5" x2="993.4" y2="486.7"/>
	<line class="st1" x1="993.4" y1="486.7" x2="917.5" y2="486.9"/>
	<line class="st1" x1="917.5" y1="486.9" x2="917.7" y2="459.5"/>
	<line class="st1" x1="961.8" y1="312.5" x2="971.5" y2="313.6"/>
	<line class="st1" x1="971.5" y1="313.6" x2="969.4" y2="333.3"/>
	<line class="st1" x1="969.4" y1="333.3" x2="959.6" y2="332.5"/>
	<line class="st1" x1="959.6" y1="332.5" x2="961.8" y2="312.5"/>
	<line class="st1" x1="980.5" y1="301.1" x2="979.4" y2="311.9"/>
	<line class="st1" x1="979.4" y1="311.9" x2="981.9" y2="312"/>
	<line class="st1" x1="981.9" y1="312" x2="981.2" y2="323.9"/>
	<line class="st1" x1="981.2" y1="323.9" x2="1009.7" y2="326.6"/>
	<line class="st1" x1="1009.7" y1="326.6" x2="1011.9" y2="297.2"/>
	<line class="st1" x1="1011.9" y1="297.2" x2="1004.3" y2="296.9"/>
	<line class="st1" x1="1004.3" y1="296.9" x2="1003.5" y2="302.9"/>
	<line class="st1" x1="1003.5" y1="302.9" x2="980.5" y2="301.1"/>
	<line class="st1" x1="1039.8" y1="327.2" x2="1038" y2="345.7"/>
	<line class="st1" x1="1038" y1="345.7" x2="1061.6" y2="348.5"/>
	<line class="st1" x1="1061.6" y1="348.5" x2="1063.3" y2="329.8"/>
	<line class="st1" x1="1063.3" y1="329.8" x2="1039.8" y2="327.2"/>
	<line class="st1" x1="272.1" y1="624.1" x2="281.4" y2="625.4"/>
	<line class="st1" x1="281.4" y1="625.4" x2="279.4" y2="643.3"/>
	<line class="st1" x1="279.4" y1="643.3" x2="269.8" y2="641.9"/>
	<line class="st1" x1="269.8" y1="641.9" x2="272.1" y2="624.1"/>
	<line class="st1" x1="220.5" y1="581.1" x2="260.2" y2="587.7"/>
	<line class="st1" x1="260.2" y1="587.7" x2="258.8" y2="596.7"/>
	<line class="st1" x1="258.8" y1="596.7" x2="270.5" y2="598.6"/>
	<line class="st1" x1="270.5" y1="598.6" x2="266.6" y2="622.1"/>
	<line class="st1" x1="266.6" y1="622.1" x2="254.3" y2="620"/>
	<line class="st1" x1="254.3" y1="620" x2="254.9" y2="616.2"/>
	<line class="st1" x1="254.9" y1="616.2" x2="215.7" y2="609.7"/>
	<line class="st1" x1="215.7" y1="609.7" x2="220.5" y2="581.1"/>
	<line class="st1" x1="190.3" y1="569.5" x2="201.2" y2="572.6"/>
	<line class="st1" x1="201.2" y1="572.6" x2="198.1" y2="583.5"/>
	<line class="st1" x1="198.1" y1="583.5" x2="187.2" y2="580.5"/>
	<line class="st1" x1="187.2" y1="580.5" x2="190.3" y2="569.5"/>
	<line class="st1" x1="274.3" y1="559" x2="283.7" y2="562.5"/>
	<line class="st1" x1="283.7" y1="562.5" x2="280.8" y2="570.4"/>
	<line class="st1" x1="280.8" y1="570.4" x2="271.3" y2="566.8"/>
	<line class="st1" x1="271.3" y1="566.8" x2="274.3" y2="559"/>
	<line class="st1" x1="210.4" y1="528.7" x2="222.6" y2="533.7"/>
	<line class="st1" x1="222.6" y1="533.7" x2="228.1" y2="520.2"/>
	<line class="st1" x1="228.1" y1="520.2" x2="229.5" y2="520.7"/>
	<line class="st1" x1="229.5" y1="520.7" x2="233.3" y2="511.2"/>
	<line class="st1" x1="233.3" y1="511.2" x2="254.9" y2="519.8"/>
	<line class="st1" x1="254.9" y1="519.8" x2="247.9" y2="536.7"/>
	<line class="st1" x1="247.9" y1="536.7" x2="248.7" y2="537"/>
	<line class="st1" x1="248.7" y1="537" x2="244.5" y2="547.4"/>
	<line class="st1" x1="244.5" y1="547.4" x2="243.7" y2="547.1"/>
	<line class="st1" x1="243.7" y1="547.1" x2="240.5" y2="554.8"/>
	<line class="st1" x1="240.5" y1="554.8" x2="237.7" y2="553.9"/>
	<line class="st1" x1="237.7" y1="553.9" x2="236.9" y2="555.4"/>
	<line class="st1" x1="236.9" y1="555.4" x2="204.9" y2="542"/>
	<line class="st1" x1="204.9" y1="542" x2="210.4" y2="528.7"/>
	<line class="st1" x1="274.1" y1="403.8" x2="303.5" y2="425.8"/>
	<line class="st1" x1="303.5" y1="425.8" x2="296" y2="436.4"/>
	<line class="st1" x1="296" y1="436.4" x2="293.2" y2="434.5"/>
	<line class="st1" x1="293.2" y1="434.5" x2="275" y2="458.6"/>
	<line class="st1" x1="275" y1="458.6" x2="273.2" y2="457.5"/>
	<line class="st1" x1="273.2" y1="457.5" x2="255.8" y2="480.9"/>
	<line class="st1" x1="255.8" y1="480.9" x2="234.3" y2="464.8"/>
	<line class="st1" x1="234.3" y1="464.8" x2="249.8" y2="444"/>
	<line class="st1" x1="249.8" y1="444" x2="243.1" y2="439"/>
	<line class="st1" x1="243.1" y1="439" x2="256.3" y2="421.8"/>
	<line class="st1" x1="256.3" y1="421.8" x2="263" y2="426.6"/>
	<line class="st1" x1="263" y1="426.6" x2="270.7" y2="416.2"/>
	<line class="st1" x1="270.7" y1="416.2" x2="267" y2="413.4"/>
	<line class="st1" x1="267" y1="413.4" x2="274.1" y2="403.8"/>
	<line class="st1" x1="769" y1="426.8" x2="769" y2="473.8"/>
	<line class="st1" x1="769" y1="473.8" x2="745.9" y2="473.8"/>
	<line class="st1" x1="745.9" y1="473.8" x2="745.9" y2="496.6"/>
	<line class="st1" x1="745.9" y1="496.6" x2="792.1" y2="496.6"/>
	<line class="st1" x1="792.1" y1="496.6" x2="792" y2="457.8"/>
	<line class="st1" x1="792" y1="457.8" x2="792.1" y2="450.4"/>
	<line class="st1" x1="792.1" y1="450.4" x2="838.2" y2="450.3"/>
	<line class="st1" x1="838.2" y1="450.3" x2="838.2" y2="543"/>
	<line class="st1" x1="838.2" y1="543" x2="653.6" y2="543"/>
	<line class="st1" x1="653.6" y1="543" x2="653.6" y2="426.8"/>
	<line class="st1" x1="653.6" y1="426.8" x2="769" y2="426.8"/>
	<line class="st1" x1="735" y1="254.8" x2="735" y2="312.5"/>
	<line class="st1" x1="735" y1="312.5" x2="776.8" y2="312.5"/>
	<line class="st1" x1="776.8" y1="312.5" x2="776.8" y2="254.8"/>
	<line class="st1" x1="776.8" y1="254.8" x2="735" y2="254.8"/>
	<line class="st1" x1="857.1" y1="312.5" x2="898.9" y2="312.5"/>
	<line class="st1" x1="898.9" y1="312.5" x2="898.9" y2="370.1"/>
	<line class="st1" x1="898.9" y1="370.1" x2="857.1" y2="370.1"/>
	<line class="st1" x1="857.1" y1="370.1" x2="857.1" y2="312.5"/>
	<line class="st1" x1="223.2" y1="386.2" x2="209.2" y2="403.6"/>
	<line class="st1" x1="209.2" y1="403.6" x2="224.3" y2="415.1"/>
	<line class="st1" x1="224.3" y1="415.1" x2="237.8" y2="397.6"/>
	<line class="st1" x1="237.8" y1="397.6" x2="223.2" y2="386.2"/>
	<line class="st1" x1="236.6" y1="308.9" x2="257.1" y2="319"/>
	<line class="st1" x1="257.1" y1="319" x2="246.9" y2="340.1"/>
	<line class="st1" x1="246.9" y1="340.1" x2="225.9" y2="329.9"/>
	<line class="st1" x1="225.9" y1="329.9" x2="236.6" y2="308.9"/>
	<line class="st1" x1="327.1" y1="268.1" x2="349.8" y2="268.1"/>
	<line class="st1" x1="349.8" y1="268.1" x2="349.4" y2="300.2"/>
	<line class="st1" x1="349.4" y1="300.2" x2="304.2" y2="300.5"/>
	<line class="st1" x1="304.2" y1="300.5" x2="304.5" y2="278.4"/>
	<line class="st1" x1="304.5" y1="278.4" x2="327.3" y2="278.3"/>
	<line class="st1" x1="327.3" y1="278.3" x2="327.1" y2="268.1"/>
	<line class="st1" x1="323.7" y1="169.9" x2="355.2" y2="173.9"/>
	<line class="st1" x1="355.2" y1="173.9" x2="349" y2="219.4"/>
	<line class="st1" x1="349" y1="219.4" x2="317.6" y2="215.5"/>
	<line class="st1" x1="317.6" y1="215.5" x2="323.7" y2="169.9"/>
	<line class="st1" x1="213.9" y1="663.1" x2="229.5" y2="669.1"/>
	<line class="st1" x1="229.5" y1="669.1" x2="223.7" y2="684.2"/>
	<line class="st1" x1="223.7" y1="684.2" x2="208.1" y2="678.2"/>
	<line class="st1" x1="208.1" y1="678.2" x2="213.9" y2="663.1"/>
	<line class="st1" x1="244.6" y1="680.7" x2="262.9" y2="683.2"/>
	<line class="st1" x1="262.9" y1="683.2" x2="261.3" y2="694.2"/>
	<line class="st1" x1="261.3" y1="694.2" x2="243" y2="691.7"/>
	<line class="st1" x1="243" y1="691.7" x2="244.6" y2="680.7"/>
	<line class="st1" x1="290.8" y1="673.3" x2="306.9" y2="673.5"/>
	<line class="st1" x1="306.9" y1="673.5" x2="306.8" y2="681.6"/>
	<line class="st1" x1="306.8" y1="681.6" x2="290.7" y2="681.5"/>
	<line class="st1" x1="290.7" y1="681.5" x2="290.8" y2="673.3"/>
	<line class="st1" x1="131" y1="559.3" x2="153" y2="564.8"/>
	<line class="st1" x1="153" y1="564.8" x2="147.5" y2="586.6"/>
	<line class="st1" x1="147.5" y1="586.6" x2="125.5" y2="581.1"/>
	<line class="st1" x1="125.5" y1="581.1" x2="131" y2="559.3"/>
	<line class="st1" x1="100.3" y1="544.7" x2="106.9" y2="552.1"/>
	<line class="st1" x1="106.9" y1="552.1" x2="95.3" y2="562.5"/>
	<line class="st1" x1="95.3" y1="562.5" x2="88.7" y2="555.1"/>
	<line class="st1" x1="88.7" y1="555.1" x2="100.3" y2="544.7"/>
	<line class="st1" x1="89.4" y1="576.4" x2="102.6" y2="589.7"/>
	<line class="st1" x1="102.6" y1="589.7" x2="90.5" y2="601.7"/>
	<line class="st1" x1="90.5" y1="601.7" x2="77.3" y2="588.4"/>
	<line class="st1" x1="77.3" y1="588.4" x2="89.4" y2="576.4"/>
	<line class="st1" x1="51.9" y1="623.5" x2="65.2" y2="635.4"/>
	<line class="st1" x1="65.2" y1="635.4" x2="52.2" y2="649.8"/>
	<line class="st1" x1="52.2" y1="649.8" x2="39" y2="637.9"/>
	<line class="st1" x1="39" y1="637.9" x2="51.9" y2="623.5"/>
	<line class="st1" x1="570.1" y1="687.7" x2="539.5" y2="688"/>
	<line class="st1" x1="539.5" y1="688" x2="539.8" y2="711.9"/>
	<line class="st1" x1="539.8" y1="711.9" x2="570.4" y2="711.6"/>
	<line class="st1" x1="570.4" y1="711.6" x2="570.1" y2="687.7"/>
	<line class="st1" x1="300.8" y1="684.6" x2="329.5" y2="684.5"/>
	<line class="st1" x1="329.5" y1="684.5" x2="329.6" y2="681.2"/>
	<line class="st1" x1="329.6" y1="681.2" x2="339.1" y2="681.3"/>
	<line class="st1" x1="339.1" y1="681.3" x2="339.1" y2="690.9"/>
	<line class="st1" x1="339.1" y1="690.9" x2="329.7" y2="690.8"/>
	<line class="st1" x1="329.7" y1="690.8" x2="329.4" y2="707"/>
	<line class="st1" x1="329.4" y1="707" x2="300.7" y2="706.8"/>
	<line class="st1" x1="300.7" y1="706.8" x2="300.8" y2="684.6"/>
	<line class="st1" x1="367.9" y1="695.9" x2="389.5" y2="695.7"/>
	<line class="st1" x1="389.5" y1="695.7" x2="389.7" y2="700.4"/>
	<line class="st1" x1="389.7" y1="700.4" x2="402.2" y2="700.2"/>
	<line class="st1" x1="402.2" y1="700.2" x2="402" y2="722.5"/>
	<line class="st1" x1="402" y1="722.5" x2="367.7" y2="722.5"/>
	<line class="st1" x1="367.7" y1="722.5" x2="367.9" y2="695.9"/>
	<line class="st1" x1="443.8" y1="685.8" x2="471.8" y2="686.1"/>
	<line class="st1" x1="471.8" y1="686.1" x2="471.8" y2="711.4"/>
	<line class="st1" x1="471.8" y1="711.4" x2="443.2" y2="710.9"/>
	<line class="st1" x1="443.2" y1="710.9" x2="443.8" y2="685.8"/>
	<line class="st1" x1="726.5" y1="711.5" x2="756.2" y2="711.8"/>
	<line class="st1" x1="756.2" y1="711.8" x2="756.2" y2="717.6"/>
	<line class="st1" x1="756.2" y1="717.6" x2="794.5" y2="717.9"/>
	<line class="st1" x1="794.5" y1="717.9" x2="794" y2="774.6"/>
	<line class="st1" x1="794" y1="774.6" x2="740.1" y2="773.9"/>
	<line class="st1" x1="740.1" y1="773.9" x2="740.5" y2="738.7"/>
	<line class="st1" x1="740.5" y1="738.7" x2="726.3" y2="738.6"/>
	<line class="st1" x1="726.3" y1="738.6" x2="726.5" y2="711.5"/>
	<line class="st1" x1="486.7" y1="765.5" x2="486.7" y2="771.5"/>
	<line class="st1" x1="486.7" y1="771.5" x2="529.3" y2="771.5"/>
	<line class="st1" x1="529.3" y1="771.5" x2="529.4" y2="799.7"/>
	<line class="st1" x1="529.4" y1="799.7" x2="478.3" y2="799.6"/>
	<line class="st1" x1="478.3" y1="799.6" x2="478.4" y2="765.5"/>
	<line class="st1" x1="478.4" y1="765.5" x2="486.7" y2="765.5"/>
	<line class="st1" x1="174" y1="774.2" x2="202.8" y2="773.6"/>
	<line class="st1" x1="202.8" y1="773.6" x2="203.7" y2="798.4"/>
	<line class="st1" x1="203.7" y1="798.4" x2="168.2" y2="798.9"/>
	<line class="st1" x1="168.2" y1="798.9" x2="167.8" y2="783"/>
	<line class="st1" x1="167.8" y1="783" x2="174.1" y2="782.8"/>
	<line class="st1" x1="174.1" y1="782.8" x2="174" y2="774.2"/>
	<line class="st1" x1="166.9" y1="676.4" x2="196.2" y2="686.7"/>
	<line class="st1" x1="196.2" y1="686.7" x2="179.6" y2="733.8"/>
	<line class="st1" x1="179.6" y1="733.8" x2="162.8" y2="728.3"/>
	<line class="st1" x1="162.8" y1="728.3" x2="160.9" y2="733"/>
	<line class="st1" x1="160.9" y1="733" x2="146.6" y2="728.5"/>
	<line class="st1" x1="146.6" y1="728.5" x2="151.3" y2="715.2"/>
	<line class="st1" x1="151.3" y1="715.2" x2="152.3" y2="715.5"/>
	<line class="st1" x1="152.3" y1="715.5" x2="166.9" y2="676.4"/>
	<line class="st1" x1="79.9" y1="674.5" x2="104.2" y2="680.7"/>
	<line class="st1" x1="104.2" y1="680.7" x2="97.2" y2="706.8"/>
	<line class="st1" x1="97.2" y1="706.8" x2="72.5" y2="700.3"/>
	<line class="st1" x1="72.5" y1="700.3" x2="79.9" y2="674.5"/>
	<line class="st1" x1="911.1" y1="702" x2="928.1" y2="702.1"/>
	<line class="st1" x1="928.1" y1="702.1" x2="928" y2="710.4"/>
	<line class="st1" x1="928" y1="710.4" x2="911" y2="710.4"/>
	<line class="st1" x1="911" y1="710.4" x2="911.1" y2="702"/>
	<line class="st1" x1="936" y1="696.3" x2="936.1" y2="713.7"/>
	<line class="st1" x1="936.1" y1="713.7" x2="952.2" y2="713.6"/>
	<line class="st1" x1="952.2" y1="713.6" x2="952.2" y2="704.8"/>
	<line class="st1" x1="952.2" y1="704.8" x2="975.2" y2="704.7"/>
	<line class="st1" x1="975.2" y1="704.7" x2="975.4" y2="684.3"/>
	<line class="st1" x1="975.4" y1="684.3" x2="951.7" y2="684.3"/>
	<line class="st1" x1="951.7" y1="684.3" x2="951.7" y2="696.2"/>
	<line class="st1" x1="951.7" y1="696.2" x2="936" y2="696.3"/>
	<line class="st1" x1="1038.2" y1="657.7" x2="1069.8" y2="652.5"/>
	<line class="st1" x1="1069.8" y1="652.5" x2="1072.8" y2="674.9"/>
	<line class="st1" x1="1072.8" y1="674.9" x2="1050.6" y2="678.4"/>
	<line class="st1" x1="1050.6" y1="678.4" x2="1049.3" y2="670.9"/>
	<line class="st1" x1="1049.3" y1="670.9" x2="1040.6" y2="672.1"/>
	<line class="st1" x1="1040.6" y1="672.1" x2="1038.2" y2="657.7"/>
	<line class="st1" x1="1015.3" y1="714.5" x2="1017.2" y2="728.2"/>
	<line class="st1" x1="1017.2" y1="728.2" x2="1034.9" y2="725.5"/>
	<line class="st1" x1="1034.9" y1="725.5" x2="1032.3" y2="711.6"/>
	<line class="st1" x1="1032.3" y1="711.6" x2="1015.3" y2="714.5"/>
	<line class="st1" x1="1059.1" y1="708.8" x2="1073.7" y2="706.9"/>
	<line class="st1" x1="1073.7" y1="706.9" x2="1075.4" y2="718.5"/>
	<line class="st1" x1="1075.4" y1="718.5" x2="1060.9" y2="720"/>
	<line class="st1" x1="1060.9" y1="720" x2="1059.1" y2="708.8"/>
	<line class="st1" x1="1056.8" y1="548.3" x2="1054.3" y2="569"/>
	<line class="st1" x1="1054.3" y1="569" x2="1091.8" y2="574.4"/>
	<line class="st1" x1="1091.8" y1="574.4" x2="1094.8" y2="552.9"/>
	<line class="st1" x1="1094.8" y1="552.9" x2="1056.8" y2="548.3"/>
	<line class="st1" x1="1078.7" y1="549.9" x2="1081.5" y2="533.2"/>
	<line class="st1" x1="1081.5" y1="533.2" x2="1098.3" y2="535.8"/>
	<line class="st1" x1="1098.3" y1="535.8" x2="1095.7" y2="553"/>
	<line class="st1" x1="1095.7" y1="553" x2="1078.7" y2="549.9"/>
	<line class="st1" x1="1080" y1="466.3" x2="1090.4" y2="465.8"/>
	<line class="st1" x1="1090.4" y1="465.8" x2="1092.2" y2="502.2"/>
	<line class="st1" x1="1092.2" y1="502.2" x2="1083.6" y2="502.3"/>
	<line class="st1" x1="1083.6" y1="502.3" x2="1083" y2="495"/>
	<line class="st1" x1="1083" y1="495" x2="1066.2" y2="495.1"/>
	<line class="st1" x1="1066.2" y1="495.1" x2="1065.7" y2="474.6"/>
	<line class="st1" x1="1065.7" y1="474.6" x2="1080" y2="473.5"/>
	<line class="st1" x1="1080" y1="473.5" x2="1080" y2="466.3"/>
	<line class="st1" x1="1043.1" y1="443.7" x2="1060.8" y2="440.6"/>
	<line class="st1" x1="1060.8" y1="440.6" x2="1062.5" y2="449.5"/>
	<line class="st1" x1="1062.5" y1="449.5" x2="1044.8" y2="452.7"/>
	<line class="st1" x1="1044.8" y1="452.7" x2="1043.1" y2="443.7"/>
	<line class="st1" x1="905.4" y1="424.9" x2="931.4" y2="424.7"/>
	<line class="st1" x1="931.4" y1="424.7" x2="931.5" y2="441.3"/>
	<line class="st1" x1="931.5" y1="441.3" x2="905.5" y2="441.3"/>
	<line class="st1" x1="905.5" y1="441.3" x2="905.4" y2="424.9"/>
	<line class="st1" x1="1057.1" y1="427.9" x2="1072.4" y2="425.3"/>
	<line class="st1" x1="1072.4" y1="425.3" x2="1073.6" y2="433.9"/>
	<line class="st1" x1="1073.6" y1="433.9" x2="1058.6" y2="435.8"/>
	<line class="st1" x1="1058.6" y1="435.8" x2="1057.1" y2="427.9"/>
	<line class="st1" x1="1108.4" y1="378.4" x2="1128.8" y2="380.3"/>
	<line class="st1" x1="1128.8" y1="380.3" x2="1127.6" y2="398.1"/>
	<line class="st1" x1="1127.6" y1="398.1" x2="1106.9" y2="396.5"/>
	<line class="st1" x1="1106.9" y1="396.5" x2="1108.4" y2="378.4"/>
	<line class="st1" x1="1138.8" y1="307.4" x2="1154.6" y2="320.9"/>
	<line class="st1" x1="1154.6" y1="320.9" x2="1142.5" y2="335"/>
	<line class="st1" x1="1142.5" y1="335" x2="1126.8" y2="321"/>
	<line class="st1" x1="1126.8" y1="321" x2="1138.8" y2="307.4"/>
	<line class="st1" x1="994.9" y1="221" x2="994.7" y2="239.4"/>
	<line class="st1" x1="994.7" y1="239.4" x2="1028.7" y2="239.7"/>
	<line class="st1" x1="1028.7" y1="239.7" x2="1028.7" y2="221.2"/>
	<line class="st1" x1="1028.7" y1="221.2" x2="994.9" y2="221"/>
	<line class="st1" x1="1069.8" y1="226.9" x2="1066.9" y2="244.7"/>
	<line class="st1" x1="1066.9" y1="244.7" x2="1090.9" y2="248.6"/>
	<line class="st1" x1="1090.9" y1="248.6" x2="1093.5" y2="231.5"/>
	<line class="st1" x1="1093.5" y1="231.5" x2="1090.6" y2="230.8"/>
	<line class="st1" x1="1090.6" y1="230.8" x2="1090.9" y2="230"/>
	<line class="st1" x1="1090.9" y1="230" x2="1080" y2="228.6"/>
	<line class="st1" x1="1080" y1="228.6" x2="1080.2" y2="225.5"/>
	<line class="st1" x1="1080.2" y1="225.5" x2="1073.9" y2="224.5"/>
	<line class="st1" x1="1073.9" y1="224.5" x2="1073.5" y2="227.3"/>
	<line class="st1" x1="1073.5" y1="227.3" x2="1069.8" y2="226.9"/>
	<line class="st1" x1="1137.8" y1="263.8" x2="1154.6" y2="246.8"/>
	<line class="st1" x1="1154.6" y1="246.8" x2="1185.1" y2="276.8"/>
	<line class="st1" x1="1185.1" y1="276.8" x2="1179" y2="283.6"/>
	<line class="st1" x1="1179" y1="283.6" x2="1183.9" y2="288.1"/>
	<line class="st1" x1="1183.9" y1="288.1" x2="1178" y2="293.8"/>
	<line class="st1" x1="1178" y1="293.8" x2="1157.8" y2="274"/>
	<line class="st1" x1="1157.8" y1="274" x2="1152.9" y2="278.6"/>
	<line class="st1" x1="1152.9" y1="278.6" x2="1137.8" y2="263.8"/>
	<line class="st1" x1="256.6" y1="174.6" x2="285.2" y2="174.6"/>
	<line class="st1" x1="285.2" y1="174.6" x2="284.8" y2="202.3"/>
	<line class="st1" x1="284.8" y1="202.3" x2="256.4" y2="201.6"/>
	<line class="st1" x1="256.4" y1="201.6" x2="256.6" y2="174.6"/>
	<line class="st1" x1="238.4" y1="139" x2="250.9" y2="140.2"/>
	<line class="st1" x1="250.9" y1="140.2" x2="249.6" y2="152"/>
	<line class="st1" x1="249.6" y1="152" x2="237.6" y2="150.9"/>
	<line class="st1" x1="237.6" y1="150.9" x2="238.4" y2="139"/>
	<line class="st1" x1="1137.8" y1="181.6" x2="1154.3" y2="190.2"/>
	<line class="st1" x1="1154.3" y1="190.2" x2="1145.3" y2="208.7"/>
	<line class="st1" x1="1145.3" y1="208.7" x2="1150.3" y2="210.9"/>
	<line class="st1" x1="1150.3" y1="210.9" x2="1146" y2="219.2"/>
	<line class="st1" x1="1146" y1="219.2" x2="1128.8" y2="210.3"/>
	<line class="st1" x1="1128.8" y1="210.3" x2="1133.1" y2="201.9"/>
	<line class="st1" x1="1133.1" y1="201.9" x2="1128.5" y2="199.4"/>
	<line class="st1" x1="1128.5" y1="199.4" x2="1137.8" y2="181.6"/>
	<line class="st1" x1="1200.1" y1="172.5" x2="1222.8" y2="189.9"/>
	<line class="st1" x1="1222.8" y1="189.9" x2="1204.9" y2="212.2"/>
	<line class="st1" x1="1204.9" y1="212.2" x2="1182.9" y2="195"/>
	<line class="st1" x1="1182.9" y1="195" x2="1200.1" y2="172.5"/>
	<line class="st1" x1="84.9" y1="490.4" x2="99.2" y2="499.8"/>
	<line class="st1" x1="99.2" y1="499.8" x2="93.6" y2="508.5"/>
	<line class="st1" x1="93.6" y1="508.5" x2="78.9" y2="499.2"/>
	<line class="st1" x1="78.9" y1="499.2" x2="84.9" y2="490.4"/>
	<line class="st1" x1="25" y1="511.3" x2="60.8" y2="508.2"/>
	<line class="st1" x1="60.8" y1="508.2" x2="61.5" y2="515"/>
	<line class="st1" x1="61.5" y1="515" x2="63" y2="514.8"/>
	<line class="st1" x1="63" y1="514.8" x2="64.2" y2="528.1"/>
	<line class="st1" x1="64.2" y1="528.1" x2="26.9" y2="530.9"/>
	<line class="st1" x1="26.9" y1="530.9" x2="25.1" y2="511.3"/>
	<line class="st1" x1="95.8" y1="604.4" x2="120.7" y2="611.7"/>
	<line class="st1" x1="120.7" y1="611.7" x2="118.1" y2="620.2"/>
	<line class="st1" x1="118.1" y1="620.2" x2="115" y2="619.2"/>
	<line class="st1" x1="115" y1="619.2" x2="111.8" y2="629.8"/>
	<line class="st1" x1="111.8" y1="629.8" x2="89.9" y2="623.3"/>
	<line class="st1" x1="89.9" y1="623.3" x2="95.8" y2="604.4"/>
	<line class="st1" x1="909.8" y1="784.3" x2="918.8" y2="783.4"/>
	<line class="st1" x1="918.8" y1="783.4" x2="919.8" y2="794.8"/>
	<line class="st1" x1="919.8" y1="794.8" x2="910.8" y2="795.6"/>
	<line class="st1" x1="910.8" y1="795.6" x2="909.8" y2="784.3"/>
	<line class="st1" x1="73.5" y1="893" x2="57.3" y2="869.4"/>
	<line class="st1" x1="57.3" y1="869.4" x2="23.4" y2="892.8"/>
	<line class="st1" x1="23.4" y1="892.8" x2="40.2" y2="916.3"/>
	<line class="st1" x1="40.2" y1="916.3" x2="73.5" y2="893"/>
	<line class="st1" x1="66.3" y1="835.1" x2="75.5" y2="823.1"/>
	<line class="st1" x1="75.5" y1="823.1" x2="62.1" y2="812.8"/>
	<line class="st1" x1="62.1" y1="812.8" x2="58" y2="817.4"/>
	<line class="st1" x1="58" y1="817.4" x2="51.9" y2="812.7"/>
	<line class="st1" x1="51.9" y1="812.7" x2="48.6" y2="816.7"/>
	<line class="st1" x1="48.6" y1="816.7" x2="54.9" y2="821.8"/>
	<line class="st1" x1="54.9" y1="821.8" x2="52.6" y2="824.6"/>
	<line class="st1" x1="52.6" y1="824.6" x2="66.3" y2="835.1"/>
	<line class="st1" x1="877.9" y1="908.1" x2="892.8" y2="898.3"/>
	<line class="st1" x1="892.8" y1="898.3" x2="887.4" y2="889.2"/>
	<line class="st1" x1="887.4" y1="889.2" x2="872.5" y2="898.7"/>
	<line class="st1" x1="872.5" y1="898.7" x2="877.9" y2="908.1"/>
	<line class="st1" x1="39.2" y1="870.9" x2="55.3" y2="854.6"/>
	<line class="st1" x1="55.3" y1="854.6" x2="39.7" y2="839"/>
	<line class="st1" x1="39.7" y1="839" x2="23.4" y2="855.4"/>
	<line class="st1" x1="23.4" y1="855.4" x2="39.2" y2="870.9"/>
</g>
</svg>
