<?xml version="1.0" encoding="utf-8"?>
<!-- Generator: Adobe Illustrator 27.0.1, SVG Export Plug-In . SVG Version: 6.00 Build 0)  -->
<svg version="1.1" id="Layer_1" xmlns="http://www.w3.org/2000/svg" xmlns:xlink="http://www.w3.org/1999/xlink" x="0px" y="0px"
	 viewBox="0 0 1190.6 841.9" style="enable-background:new 0 0 1190.6 841.9;" xml:space="preserve">
<style type="text/css">
	.st0{fill-rule:evenodd;clip-rule:evenodd;}
	.st1{fill:none;stroke:#000000;stroke-width:0.25;stroke-linecap:round;stroke-linejoin:round;}
</style>
<polyline class="st0" points="525.2,384.9 562.2,348.1 658.7,445 621.7,481.8 525.2,384.9 "/>
<line class="st1" x1="381.7" y1="488.9" x2="411.6" y2="519"/>
<line class="st1" x1="411.6" y1="519" x2="465.9" y2="464.8"/>
<line class="st1" x1="465.9" y1="464.8" x2="490" y2="489.2"/>
<line class="st1" x1="490" y1="489.2" x2="483.5" y2="495.7"/>
<line class="st1" x1="483.5" y1="495.7" x2="509.3" y2="522"/>
<line class="st1" x1="509.3" y1="522" x2="515.9" y2="515.3"/>
<line class="st1" x1="515.9" y1="515.3" x2="540.1" y2="539.4"/>
<line class="st1" x1="540.1" y1="539.4" x2="485.4" y2="593.4"/>
<line class="st1" x1="485.4" y1="593.4" x2="515.3" y2="623.4"/>
<line class="st1" x1="515.3" y1="623.4" x2="600.5" y2="539.2"/>
<line class="st1" x1="600.5" y1="539.2" x2="466.6" y2="404.6"/>
<line class="st1" x1="466.6" y1="404.6" x2="381.7" y2="488.9"/>
<line class="st1" x1="350.4" y1="409.5" x2="357.7" y2="402.1"/>
<line class="st1" x1="357.7" y1="402.1" x2="351" y2="395.5"/>
<line class="st1" x1="351" y1="395.5" x2="384.6" y2="362.3"/>
<line class="st1" x1="384.6" y1="362.3" x2="390.8" y2="368.7"/>
<line class="st1" x1="390.8" y1="368.7" x2="390.9" y2="368"/>
<line class="st1" x1="390.9" y1="368" x2="394.4" y2="366.1"/>
<line class="st1" x1="394.4" y1="366.1" x2="398.7" y2="367.3"/>
<line class="st1" x1="398.7" y1="367.3" x2="400.7" y2="371"/>
<line class="st1" x1="400.7" y1="371" x2="405.1" y2="371.4"/>
<line class="st1" x1="405.1" y1="371.4" x2="407.8" y2="374.2"/>
<line class="st1" x1="407.8" y1="374.2" x2="408.1" y2="378.6"/>
<line class="st1" x1="408.1" y1="378.6" x2="411.8" y2="380.6"/>
<line class="st1" x1="411.8" y1="380.6" x2="412.9" y2="384.7"/>
<line class="st1" x1="412.9" y1="384.7" x2="410.9" y2="388.4"/>
<line class="st1" x1="410.9" y1="388.4" x2="410.3" y2="388.5"/>
<line class="st1" x1="410.3" y1="388.5" x2="416.4" y2="394.6"/>
<line class="st1" x1="416.4" y1="394.6" x2="382.9" y2="427.7"/>
<line class="st1" x1="382.9" y1="427.7" x2="376.3" y2="421"/>
<line class="st1" x1="376.3" y1="421" x2="368.7" y2="428.3"/>
<line class="st1" x1="368.7" y1="428.3" x2="350.4" y2="409.5"/>
<line class="st1" x1="171.7" y1="265" x2="173.2" y2="264.1"/>
<line class="st1" x1="173.2" y1="264.1" x2="174.9" y2="263.9"/>
<line class="st1" x1="174.9" y1="263.9" x2="176.6" y2="264.5"/>
<line class="st1" x1="176.6" y1="264.5" x2="185.9" y2="255.2"/>
<line class="st1" x1="185.9" y1="255.2" x2="213.2" y2="282.8"/>
<line class="st1" x1="213.2" y1="282.8" x2="241.5" y2="254.4"/>
<line class="st1" x1="241.5" y1="254.4" x2="312.7" y2="326.6"/>
<line class="st1" x1="312.7" y1="326.6" x2="298.6" y2="340.6"/>
<line class="st1" x1="298.6" y1="340.6" x2="298.1" y2="340.1"/>
<line class="st1" x1="298.1" y1="340.1" x2="282.7" y2="355.5"/>
<line class="st1" x1="282.7" y1="355.5" x2="306.3" y2="379.1"/>
<line class="st1" x1="306.3" y1="379.1" x2="320.1" y2="365.5"/>
<line class="st1" x1="320.1" y1="365.5" x2="320" y2="365.3"/>
<line class="st1" x1="320" y1="365.3" x2="374.6" y2="311.9"/>
<line class="st1" x1="374.6" y1="311.9" x2="279.8" y2="216.7"/>
<line class="st1" x1="279.8" y1="216.7" x2="282.8" y2="213.7"/>
<line class="st1" x1="282.8" y1="213.7" x2="242.9" y2="173.8"/>
<line class="st1" x1="242.9" y1="173.8" x2="173.6" y2="242.9"/>
<line class="st1" x1="173.6" y1="242.9" x2="174.1" y2="243.4"/>
<line class="st1" x1="174.1" y1="243.4" x2="164.5" y2="253.1"/>
<line class="st1" x1="164.5" y1="253.1" x2="165" y2="254.5"/>
<line class="st1" x1="165" y1="254.5" x2="165" y2="256.1"/>
<line class="st1" x1="165" y1="256.1" x2="164.4" y2="257.4"/>
<line class="st1" x1="164.4" y1="257.4" x2="171.7" y2="265"/>
<line class="st1" x1="482.6" y1="0.1" x2="468.3" y2="14.2"/>
<line class="st1" x1="468.3" y1="14.2" x2="468" y2="52.7"/>
<line class="st1" x1="468" y1="52.7" x2="580" y2="166.2"/>
<line class="st1" x1="580" y1="166.2" x2="547.8" y2="197.9"/>
<line class="st1" x1="547.8" y1="197.9" x2="422.7" y2="71.2"/>
<line class="st1" x1="422.7" y1="71.2" x2="423.1" y2="0.1"/>
<line class="st1" x1="443.9" y1="0.1" x2="446.7" y2="2.9"/>
<line class="st1" x1="446.7" y1="2.9" x2="468.3" y2="14.2"/>
<line class="st1" x1="430.4" y1="79" x2="445.9" y2="63.8"/>
<line class="st1" x1="445.9" y1="63.8" x2="468" y2="52.7"/>
<line class="st1" x1="459.9" y1="108.9" x2="492" y2="77.1"/>
<line class="st1" x1="507.8" y1="157.4" x2="540" y2="125.7"/>
<line class="st1" x1="201.8" y1="214.8" x2="241.5" y2="254.4"/>
<line class="st1" x1="241.5" y1="254.4" x2="279.8" y2="216.7"/>
<line class="st1" x1="275.1" y1="287.5" x2="312.8" y2="249.8"/>
<line class="st1" x1="307.4" y1="321.2" x2="345.9" y2="283"/>
<line class="st1" x1="312.7" y1="326.6" x2="335.9" y2="349.9"/>
<line class="st1" x1="545.4" y1="653.6" x2="630.6" y2="570"/>
<line class="st1" x1="630.6" y1="570" x2="675.6" y2="615.9"/>
<line class="st1" x1="675.6" y1="615.9" x2="590.3" y2="699.5"/>
<line class="st1" x1="590.3" y1="699.5" x2="545.4" y2="653.6"/>
<line class="st1" x1="587.6" y1="611.6" x2="633.1" y2="658.1"/>
<line class="st1" x1="636.8" y1="127.4" x2="627.9" y2="155.1"/>
<line class="st1" x1="627.9" y1="155.1" x2="670" y2="168"/>
<line class="st1" x1="670" y1="168" x2="680.7" y2="134.4"/>
<line class="st1" x1="680.7" y1="134.4" x2="636.8" y2="127.4"/>
<line class="st1" x1="627.9" y1="155.1" x2="614.6" y2="197.4"/>
<line class="st1" x1="614.6" y1="197.4" x2="622.4" y2="222.3"/>
<line class="st1" x1="622.4" y1="222.3" x2="662.4" y2="210"/>
<line class="st1" x1="662.4" y1="210" x2="657.9" y2="196"/>
<line class="st1" x1="657.9" y1="196" x2="669" y2="167.7"/>
<line class="st1" x1="622.4" y1="222.3" x2="634.6" y2="260.7"/>
<line class="st1" x1="634.6" y1="260.7" x2="675.4" y2="248"/>
<line class="st1" x1="675.4" y1="248" x2="662.4" y2="210"/>
<line class="st1" x1="634.6" y1="260.7" x2="642.6" y2="286"/>
<line class="st1" x1="642.6" y1="286" x2="688.9" y2="306.4"/>
<line class="st1" x1="688.9" y1="306.4" x2="701" y2="279.3"/>
<line class="st1" x1="701" y1="279.3" x2="698.2" y2="277.8"/>
<line class="st1" x1="698.2" y1="277.8" x2="703.5" y2="266.4"/>
<line class="st1" x1="703.5" y1="266.4" x2="677.6" y2="254.9"/>
<line class="st1" x1="677.6" y1="254.9" x2="675.4" y2="248"/>
<line class="st1" x1="707.5" y1="314.9" x2="719" y2="289"/>
<line class="st1" x1="719" y1="289" x2="709.9" y2="284.8"/>
<line class="st1" x1="709.9" y1="284.8" x2="715.6" y2="271.6"/>
<line class="st1" x1="715.6" y1="271.6" x2="779" y2="281.2"/>
<line class="st1" x1="779" y1="281.2" x2="754.8" y2="335.9"/>
<line class="st1" x1="754.8" y1="335.9" x2="707.5" y2="314.9"/>
<line class="st1" x1="754.8" y1="335.9" x2="784" y2="348.8"/>
<line class="st1" x1="784" y1="348.8" x2="817.6" y2="273.7"/>
<line class="st1" x1="817.6" y1="273.7" x2="788.1" y2="260.5"/>
<line class="st1" x1="788.1" y1="260.5" x2="779" y2="281.2"/>
<line class="st1" x1="786.9" y1="342.3" x2="826" y2="360.3"/>
<line class="st1" x1="826" y1="360.3" x2="838.8" y2="331.3"/>
<line class="st1" x1="838.8" y1="331.3" x2="813.2" y2="320.2"/>
<line class="st1" x1="813.2" y1="320.2" x2="822.3" y2="299.8"/>
<line class="st1" x1="822.3" y1="299.8" x2="808.6" y2="293.5"/>
<line class="st1" x1="820.5" y1="303.7" x2="884.8" y2="334.2"/>
<line class="st1" x1="884.8" y1="334.2" x2="865.1" y2="377.7"/>
<line class="st1" x1="865.1" y1="377.7" x2="826" y2="360.3"/>
<line class="st1" x1="838.8" y1="331.3" x2="842.6" y2="322.7"/>
<line class="st1" x1="842.6" y1="322.7" x2="881.6" y2="340.9"/>
<line class="st1" x1="865.1" y1="377.7" x2="875.1" y2="381.7"/>
<line class="st1" x1="875.1" y1="381.7" x2="885.3" y2="384.8"/>
<line class="st1" x1="885.3" y1="384.8" x2="895.8" y2="387.1"/>
<line class="st1" x1="895.8" y1="387.1" x2="906.5" y2="388.5"/>
<line class="st1" x1="906.5" y1="388.5" x2="917.2" y2="389"/>
<line class="st1" x1="917.2" y1="389" x2="928" y2="388.6"/>
<line class="st1" x1="928" y1="388.6" x2="938.6" y2="387.3"/>
<line class="st1" x1="938.6" y1="387.3" x2="937.9" y2="383.1"/>
<line class="st1" x1="937.9" y1="383.1" x2="947.3" y2="380.9"/>
<line class="st1" x1="947.3" y1="380.9" x2="934.9" y2="337.2"/>
<line class="st1" x1="934.9" y1="337.2" x2="901.1" y2="346.7"/>
<line class="st1" x1="901.1" y1="346.7" x2="882.9" y2="338.2"/>
<line class="st1" x1="817.9" y1="275" x2="850" y2="275.7"/>
<line class="st1" x1="850" y1="275.7" x2="912.2" y2="257.3"/>
<line class="st1" x1="912.2" y1="257.3" x2="934.9" y2="337.2"/>
<line class="st1" x1="866.2" y1="271" x2="844.1" y2="196.6"/>
<line class="st1" x1="844.1" y1="196.6" x2="897.2" y2="204.5"/>
<line class="st1" x1="897.2" y1="204.5" x2="912.2" y2="257.3"/>
<line class="st1" x1="844.1" y1="196.6" x2="849.5" y2="160.2"/>
<line class="st1" x1="849.5" y1="160.2" x2="849.7" y2="159.3"/>
<line class="st1" x1="849.7" y1="159.3" x2="885.9" y2="164.8"/>
<line class="st1" x1="885.9" y1="164.8" x2="897.2" y2="204.5"/>
<line class="st1" x1="849.2" y1="162.7" x2="798.3" y2="155.1"/>
<line class="st1" x1="798.3" y1="155.1" x2="792.8" y2="191.4"/>
<line class="st1" x1="792.8" y1="191.4" x2="843.7" y2="199"/>
<line class="st1" x1="843.7" y1="199" x2="844.1" y2="196.6"/>
<line class="st1" x1="738.6" y1="172" x2="794.5" y2="180.3"/>
<line class="st1" x1="794.5" y1="180.3" x2="786.6" y2="233.3"/>
<line class="st1" x1="786.6" y1="233.3" x2="730.7" y2="224.6"/>
<line class="st1" x1="730.7" y1="224.6" x2="738.6" y2="172"/>
<line class="st1" x1="679.9" y1="136.8" x2="705.1" y2="140.4"/>
<line class="st1" x1="705.1" y1="140.4" x2="700.1" y2="175.5"/>
<line class="st1" x1="700.1" y1="175.5" x2="694.7" y2="174.7"/>
<line class="st1" x1="694.7" y1="174.7" x2="670" y2="168"/>
<line class="st1" x1="705" y1="141.1" x2="742.4" y2="146.7"/>
<line class="st1" x1="742.4" y1="146.7" x2="736.8" y2="183.2"/>
<line class="st1" x1="736.8" y1="183.2" x2="699.8" y2="177.7"/>
<line class="st1" x1="699.8" y1="177.7" x2="700.1" y2="175.5"/>
<line class="st1" x1="709.9" y1="284.8" x2="700.5" y2="280.5"/>
<line class="st1" x1="702.8" y1="266.1" x2="707.6" y2="253.6"/>
<line class="st1" x1="707.6" y1="253.6" x2="711.5" y2="252.8"/>
<line class="st1" x1="711.5" y1="252.8" x2="715.6" y2="271.6"/>
<line class="st1" x1="701.2" y1="569.1" x2="710.7" y2="545.8"/>
<line class="st1" x1="710.7" y1="545.8" x2="714" y2="521.2"/>
<line class="st1" x1="714" y1="521.2" x2="710.5" y2="495.5"/>
<line class="st1" x1="710.5" y1="495.5" x2="725" y2="493.5"/>
<line class="st1" x1="725" y1="493.5" x2="729.8" y2="520.8"/>
<line class="st1" x1="729.8" y1="520.8" x2="726.1" y2="547.9"/>
<line class="st1" x1="726.1" y1="547.9" x2="715.2" y2="574.7"/>
<line class="st1" x1="715.2" y1="574.7" x2="701.2" y2="569.1"/>
<line class="st1" x1="525.5" y1="7.2" x2="606.2" y2="87.9"/>
<line class="st1" x1="606.2" y1="87.9" x2="593.1" y2="130.4"/>
<line class="st1" x1="593.1" y1="130.4" x2="587.6" y2="128.7"/>
<line class="st1" x1="587.6" y1="128.7" x2="501.9" y2="43.1"/>
<line class="st1" x1="501.9" y1="43.1" x2="501.9" y2="30.9"/>
<line class="st1" x1="501.9" y1="30.9" x2="525.5" y2="7.2"/>
<line class="st1" x1="743.2" y1="722.4" x2="690.4" y2="691.5"/>
<line class="st1" x1="690.4" y1="691.5" x2="689.1" y2="689.1"/>
<line class="st1" x1="689.1" y1="689.1" x2="688.4" y2="686.6"/>
<line class="st1" x1="688.4" y1="686.6" x2="688.4" y2="683.9"/>
<line class="st1" x1="688.4" y1="683.9" x2="689.1" y2="681.3"/>
<line class="st1" x1="689.1" y1="681.3" x2="690.4" y2="679"/>
<line class="st1" x1="690.4" y1="679" x2="725.3" y2="644.1"/>
<line class="st1" x1="725.3" y1="644.1" x2="754.8" y2="684.1"/>
<line class="st1" x1="754.8" y1="684.1" x2="746.3" y2="695.7"/>
<line class="st1" x1="746.3" y1="695.7" x2="755.1" y2="702.1"/>
<line class="st1" x1="755.1" y1="702.1" x2="743.2" y2="722.4"/>
<line class="st1" x1="725.3" y1="644.1" x2="781.3" y2="602.7"/>
<line class="st1" x1="781.3" y1="602.7" x2="807.3" y2="644.9"/>
<line class="st1" x1="807.3" y1="644.9" x2="754.8" y2="684.1"/>
<line class="st1" x1="781.3" y1="602.7" x2="932.8" y2="519.6"/>
<line class="st1" x1="932.8" y1="519.6" x2="936.9" y2="517.9"/>
<line class="st1" x1="936.9" y1="517.9" x2="941.3" y2="517"/>
<line class="st1" x1="941.3" y1="517" x2="945.7" y2="516.8"/>
<line class="st1" x1="945.7" y1="516.8" x2="950.2" y2="517.5"/>
<line class="st1" x1="950.2" y1="517.5" x2="954.4" y2="519"/>
<line class="st1" x1="954.4" y1="519" x2="958.3" y2="521.2"/>
<line class="st1" x1="958.3" y1="521.2" x2="961.7" y2="524"/>
<line class="st1" x1="961.7" y1="524" x2="1120.6" y2="812"/>
<line class="st1" x1="1120.6" y1="812" x2="1102.6" y2="841.9"/>
<line class="st1" x1="894" y1="822.6" x2="897.3" y2="822.6"/>
<line class="st1" x1="897.3" y1="822.6" x2="900.7" y2="817.1"/>
<line class="st1" x1="900.7" y1="817.1" x2="915.2" y2="825.9"/>
<line class="st1" x1="915.2" y1="825.9" x2="911.8" y2="831.4"/>
<line class="st1" x1="911.8" y1="831.4" x2="912.5" y2="833.9"/>
<line class="st1" x1="894" y1="822.6" x2="858" y2="800.7"/>
<line class="st1" x1="858" y1="800.7" x2="862.2" y2="793.7"/>
<line class="st1" x1="862.2" y1="793.7" x2="832.5" y2="775.6"/>
<line class="st1" x1="832.5" y1="775.6" x2="833.8" y2="773.4"/>
<line class="st1" x1="833.8" y1="773.4" x2="809" y2="758.5"/>
<line class="st1" x1="809" y1="758.5" x2="804.4" y2="758.5"/>
<line class="st1" x1="804.4" y1="758.5" x2="795.9" y2="753.5"/>
<line class="st1" x1="795.9" y1="753.5" x2="794.1" y2="749.5"/>
<line class="st1" x1="794.1" y1="749.5" x2="767.8" y2="733.7"/>
<line class="st1" x1="767.8" y1="733.7" x2="791.8" y2="693.8"/>
<line class="st1" x1="791.8" y1="693.8" x2="817.4" y2="709.2"/>
<line class="st1" x1="817.4" y1="709.2" x2="819.5" y2="705.8"/>
<line class="st1" x1="819.5" y1="705.8" x2="835" y2="715.1"/>
<line class="st1" x1="835" y1="715.1" x2="831" y2="721.8"/>
<line class="st1" x1="831" y1="721.8" x2="855.9" y2="737"/>
<line class="st1" x1="855.9" y1="737" x2="853.1" y2="741.2"/>
<line class="st1" x1="853.1" y1="741.2" x2="922.4" y2="781.8"/>
<line class="st1" x1="922.4" y1="781.8" x2="918.3" y2="788.7"/>
<line class="st1" x1="918.3" y1="788.7" x2="942.1" y2="802.6"/>
<line class="st1" x1="942.1" y1="802.6" x2="945.6" y2="797.3"/>
<line class="st1" x1="945.6" y1="797.3" x2="988.8" y2="823.3"/>
<line class="st1" x1="988.8" y1="823.3" x2="993.1" y2="816.2"/>
<line class="st1" x1="993.1" y1="816.2" x2="995.2" y2="807.2"/>
<line class="st1" x1="995.2" y1="807.2" x2="988.9" y2="800.9"/>
<line class="st1" x1="988.9" y1="800.9" x2="986.8" y2="803.1"/>
<line class="st1" x1="986.8" y1="803.1" x2="891.7" y2="745.2"/>
<line class="st1" x1="891.7" y1="745.2" x2="883.6" y2="737.1"/>
<line class="st1" x1="883.6" y1="737.1" x2="891.2" y2="725.7"/>
<line class="st1" x1="891.2" y1="725.7" x2="881.8" y2="719.4"/>
<line class="st1" x1="881.8" y1="719.4" x2="865.2" y2="686.3"/>
<line class="st1" x1="865.2" y1="686.3" x2="813.4" y2="655.9"/>
<line class="st1" x1="813.4" y1="655.9" x2="807.3" y2="644.9"/>
<line class="st1" x1="925.8" y1="841.9" x2="912.5" y2="833.9"/>
<line class="st1" x1="833.8" y1="773.4" x2="853.1" y2="741.2"/>
<line class="st1" x1="877.1" y1="812.3" x2="902.7" y2="770.2"/>
<line class="st1" x1="942.2" y1="841.9" x2="962.7" y2="807.6"/>
<line class="st1" x1="1000" y1="841.9" x2="1022.4" y2="805"/>
<line class="st1" x1="1022.4" y1="805" x2="1056.8" y2="825.8"/>
<line class="st1" x1="1056.8" y1="825.8" x2="1064.5" y2="813.1"/>
<line class="st1" x1="1064.5" y1="813.1" x2="1041.2" y2="770.6"/>
<line class="st1" x1="1041.2" y1="770.6" x2="1019.8" y2="782.3"/>
<line class="st1" x1="1019.8" y1="782.3" x2="1010.5" y2="797.8"/>
<line class="st1" x1="1010.5" y1="797.8" x2="1022.4" y2="805"/>
<line class="st1" x1="1056.8" y1="825.8" x2="1083.8" y2="841.9"/>
<line class="st1" x1="1041.2" y1="770.6" x2="1084.6" y2="746.7"/>
<line class="st1" x1="829" y1="665.1" x2="936.1" y2="605.1"/>
<line class="st1" x1="936.1" y1="605.1" x2="899.3" y2="538"/>
<line class="st1" x1="848.8" y1="565.7" x2="886.4" y2="632.9"/>
<line class="st1" x1="924.7" y1="611.5" x2="1019.8" y2="782.3"/>
<line class="st1" x1="985.4" y1="720.5" x2="1050.3" y2="684.6"/>
<line class="st1" x1="965.2" y1="684.2" x2="1030.3" y2="648.3"/>
<line class="st1" x1="944.5" y1="647" x2="1009.7" y2="611"/>
<line class="st1" x1="929.8" y1="593.6" x2="983.7" y2="563.8"/>
<line class="st1" x1="924.7" y1="584.2" x2="933.5" y2="579.3"/>
<line class="st1" x1="933.5" y1="579.3" x2="938.6" y2="588.7"/>
<line class="st1" x1="886.3" y1="591.8" x2="891.6" y2="601"/>
<line class="st1" x1="891.6" y1="601" x2="900.9" y2="595.7"/>
<line class="st1" x1="900.9" y1="595.7" x2="895.5" y2="586.5"/>
<line class="st1" x1="895.5" y1="586.5" x2="886.3" y2="591.8"/>
<line class="st1" x1="818.1" y1="621" x2="821.4" y2="627.1"/>
<line class="st1" x1="821.4" y1="627.1" x2="849.4" y2="611.7"/>
<line class="st1" x1="849.4" y1="611.7" x2="846.1" y2="605.6"/>
<line class="st1" x1="846.1" y1="605.6" x2="818.1" y2="621"/>
<line class="st1" x1="986.8" y1="275.8" x2="982.7" y2="311.3"/>
<line class="st1" x1="982.7" y1="311.3" x2="1017" y2="315.2"/>
<line class="st1" x1="1017" y1="315.2" x2="1019.4" y2="294.9"/>
<line class="st1" x1="1019.4" y1="294.9" x2="1040.3" y2="303.4"/>
<line class="st1" x1="1040.3" y1="303.4" x2="1048.3" y2="291.4"/>
<line class="st1" x1="1048.3" y1="291.4" x2="1021.2" y2="279.8"/>
<line class="st1" x1="1021.2" y1="279.8" x2="986.8" y2="275.8"/>
<line class="st1" x1="271.5" y1="147.9" x2="313.4" y2="106"/>
<line class="st1" x1="313.4" y1="106" x2="334.3" y2="126.9"/>
<line class="st1" x1="334.3" y1="126.9" x2="292.4" y2="168.7"/>
<line class="st1" x1="292.4" y1="168.7" x2="271.5" y2="147.9"/>
<line class="st1" x1="156.5" y1="320.9" x2="208.4" y2="372.8"/>
<line class="st1" x1="208.4" y1="372.8" x2="181.3" y2="399.8"/>
<line class="st1" x1="181.3" y1="399.8" x2="141.5" y2="360"/>
<line class="st1" x1="141.5" y1="360" x2="160.6" y2="340.9"/>
<line class="st1" x1="160.6" y1="340.9" x2="148.6" y2="328.9"/>
<line class="st1" x1="148.6" y1="328.9" x2="156.5" y2="320.9"/>
<line class="st1" x1="181.3" y1="399.8" x2="176.5" y2="404.6"/>
<line class="st1" x1="176.5" y1="404.6" x2="188.7" y2="416.8"/>
<line class="st1" x1="188.7" y1="416.8" x2="185.6" y2="419.9"/>
<line class="st1" x1="185.6" y1="419.9" x2="205.8" y2="440"/>
<line class="st1" x1="205.8" y1="440" x2="215.6" y2="430.2"/>
<line class="st1" x1="215.6" y1="430.2" x2="209.9" y2="424.5"/>
<line class="st1" x1="209.9" y1="424.5" x2="225.5" y2="408.9"/>
<line class="st1" x1="225.5" y1="408.9" x2="231.2" y2="414.6"/>
<line class="st1" x1="231.2" y1="414.6" x2="239.9" y2="405.8"/>
<line class="st1" x1="239.9" y1="405.8" x2="208.1" y2="374"/>
<line class="st1" x1="257" y1="490.5" x2="289.8" y2="523.3"/>
<line class="st1" x1="289.8" y1="523.3" x2="322.9" y2="490.2"/>
<line class="st1" x1="322.9" y1="490.2" x2="290.1" y2="457.4"/>
<line class="st1" x1="290.1" y1="457.4" x2="257" y2="490.5"/>
<line class="st1" x1="376" y1="591.9" x2="353.5" y2="569.3"/>
<line class="st1" x1="327.2" y1="543.1" x2="323.6" y2="546.6"/>
<line class="st1" x1="323.6" y1="546.6" x2="349.9" y2="572.9"/>
<line class="st1" x1="349.9" y1="572.9" x2="353.5" y2="569.3"/>
<line class="st1" x1="376" y1="591.9" x2="372.5" y2="595.5"/>
<line class="st1" x1="372.5" y1="595.5" x2="398.7" y2="621.7"/>
<line class="st1" x1="398.7" y1="621.7" x2="402.3" y2="618.2"/>
<line class="st1" x1="327.2" y1="543.1" x2="352.7" y2="517.5"/>
<line class="st1" x1="352.7" y1="517.5" x2="484.6" y2="649.4"/>
<line class="st1" x1="484.6" y1="649.4" x2="459" y2="674.9"/>
<line class="st1" x1="459" y1="674.9" x2="402.3" y2="618.2"/>
<line class="st1" x1="481.8" y1="716.5" x2="515.4" y2="682.9"/>
<line class="st1" x1="515.4" y1="682.9" x2="561.2" y2="728.7"/>
<line class="st1" x1="561.2" y1="728.7" x2="527.6" y2="762.3"/>
<line class="st1" x1="527.6" y1="762.3" x2="481.8" y2="716.5"/>
<line class="st1" x1="564.2" y1="830" x2="590.8" y2="800.6"/>
<line class="st1" x1="590.8" y1="800.6" x2="620.6" y2="827.6"/>
<line class="st1" x1="620.6" y1="827.6" x2="607.7" y2="841.9"/>
<line class="st1" x1="577.3" y1="841.9" x2="564.2" y2="830"/>
<line class="st1" x1="591.8" y1="801.6" x2="642" y2="746.2"/>
<line class="st1" x1="642" y1="746.2" x2="639.6" y2="743.8"/>
<line class="st1" x1="639.6" y1="743.8" x2="648.8" y2="734.6"/>
<line class="st1" x1="648.8" y1="734.6" x2="666.6" y2="732.3"/>
<line class="st1" x1="666.6" y1="732.3" x2="679" y2="739.5"/>
<line class="st1" x1="679" y1="739.5" x2="677.5" y2="742.2"/>
<line class="st1" x1="677.5" y1="742.2" x2="820.3" y2="828.9"/>
<line class="st1" x1="820.3" y1="828.9" x2="821.4" y2="827.1"/>
<line class="st1" x1="821.4" y1="827.1" x2="845.8" y2="841.9"/>
<line class="st1" x1="772.7" y1="841.9" x2="755.8" y2="831.7"/>
<line class="st1" x1="755.8" y1="831.7" x2="751.5" y2="838.8"/>
<line class="st1" x1="751.5" y1="838.8" x2="739.7" y2="831.7"/>
<line class="st1" x1="739.7" y1="831.7" x2="744" y2="824.5"/>
<line class="st1" x1="744" y1="824.5" x2="671" y2="780.2"/>
<line class="st1" x1="671" y1="780.2" x2="660.3" y2="782.3"/>
<line class="st1" x1="660.3" y1="782.3" x2="619.3" y2="826.4"/>
<line class="st1" x1="611.7" y1="779.7" x2="639.1" y2="804.5"/>
<line class="st1" x1="632.3" y1="756.8" x2="660.5" y2="782.3"/>
<line class="st1" x1="685.8" y1="789.2" x2="704.4" y2="758.5"/>
<line class="st1" x1="714.9" y1="806.9" x2="733.5" y2="776.2"/>
<line class="st1" x1="744" y1="824.5" x2="762.6" y2="793.9"/>
<line class="st1" x1="772.8" y1="841.9" x2="791.4" y2="811.3"/>
<line class="st1" x1="812.4" y1="841.9" x2="820.3" y2="828.9"/>
<line class="st1" x1="578.2" y1="0.1" x2="609.9" y2="32.1"/>
<line class="st1" x1="609.9" y1="32.1" x2="625.8" y2="28.7"/>
<line class="st1" x1="625.8" y1="28.7" x2="634.7" y2="0.1"/>
<line class="st1" x1="579.3" y1="0.1" x2="578.5" y2="0.8"/>
<line class="st1" x1="677.2" y1="0.1" x2="645.9" y2="99.1"/>
<line class="st1" x1="645.9" y1="99.1" x2="701.7" y2="108.1"/>
<line class="st1" x1="701.7" y1="108.1" x2="702.1" y2="106.6"/>
<line class="st1" x1="702.1" y1="106.6" x2="734" y2="111.2"/>
<line class="st1" x1="734" y1="111.2" x2="732.9" y2="117.1"/>
<line class="st1" x1="732.9" y1="117.1" x2="783" y2="124.4"/>
<line class="st1" x1="783" y1="124.4" x2="783.8" y2="120.1"/>
<line class="st1" x1="783.8" y1="120.1" x2="820" y2="125.4"/>
<line class="st1" x1="820" y1="125.4" x2="823.5" y2="128.8"/>
<line class="st1" x1="823.5" y1="128.8" x2="876.6" y2="137"/>
<line class="st1" x1="876.6" y1="137" x2="878.3" y2="135.3"/>
<line class="st1" x1="878.3" y1="135.3" x2="865.1" y2="90"/>
<line class="st1" x1="865.1" y1="90" x2="867" y2="90.3"/>
<line class="st1" x1="867" y1="90.3" x2="852.8" y2="35.1"/>
<line class="st1" x1="852.8" y1="35.1" x2="843.5" y2="0.1"/>
<line class="st1" x1="722.5" y1="0.1" x2="717.2" y2="16.9"/>
<line class="st1" x1="717.2" y1="16.9" x2="674.7" y2="8.7"/>
<line class="st1" x1="716.2" y1="16.7" x2="698.2" y2="72.4"/>
<line class="st1" x1="657.5" y1="63.5" x2="739.8" y2="81.6"/>
<line class="st1" x1="739.8" y1="81.6" x2="734" y2="111.2"/>
<line class="st1" x1="739.8" y1="81.6" x2="743.9" y2="60.2"/>
<line class="st1" x1="743.9" y1="60.2" x2="770.2" y2="63.7"/>
<line class="st1" x1="770.2" y1="63.7" x2="769.8" y2="66"/>
<line class="st1" x1="769.8" y1="66" x2="793.2" y2="67.9"/>
<line class="st1" x1="793.2" y1="67.9" x2="791.8" y2="77.3"/>
<line class="st1" x1="791.8" y1="77.3" x2="789.5" y2="84.7"/>
<line class="st1" x1="789.5" y1="84.7" x2="783.8" y2="120.1"/>
<line class="st1" x1="791.8" y1="77.3" x2="865.1" y2="90"/>
<line class="st1" x1="805" y1="79.6" x2="808.6" y2="34.5"/>
<line class="st1" x1="808.6" y1="34.5" x2="841.1" y2="40.5"/>
<line class="st1" x1="841.1" y1="40.5" x2="841.7" y2="38"/>
<line class="st1" x1="841.7" y1="38" x2="852.8" y2="35.1"/>
<line class="st1" x1="808.6" y1="34.5" x2="803.6" y2="33.6"/>
<line class="st1" x1="803.6" y1="33.6" x2="805.7" y2="23.8"/>
<line class="st1" x1="805.7" y1="23.8" x2="799.2" y2="0.1"/>
<line class="st1" x1="0.2" y1="480.6" x2="81.1" y2="399.7"/>
<line class="st1" x1="81.1" y1="399.7" x2="114.9" y2="433.5"/>
<line class="st1" x1="114.9" y1="433.5" x2="0.2" y2="548.2"/>
<line class="st1" x1="138" y1="531" x2="124.7" y2="544.3"/>
<line class="st1" x1="124.7" y1="544.3" x2="122.1" y2="541.7"/>
<line class="st1" x1="122.1" y1="541.7" x2="110.5" y2="553.2"/>
<line class="st1" x1="0.2" y1="500.7" x2="24" y2="524.5"/>
<line class="st1" x1="26" y1="454.7" x2="59.9" y2="488.6"/>
<line class="st1" x1="54" y1="426.8" x2="87.8" y2="460.6"/>
<line class="st1" x1="100.8" y1="504.6" x2="104.5" y2="508.3"/>
<line class="st1" x1="104.5" y1="508.3" x2="139.2" y2="473.7"/>
<line class="st1" x1="139.2" y1="473.7" x2="135.4" y2="469.9"/>
<line class="st1" x1="47.9" y1="557.5" x2="77.1" y2="586.7"/>
<line class="st1" x1="70" y1="535.3" x2="103.9" y2="569.2"/>
<line class="st1" x1="92.9" y1="512.5" x2="122.1" y2="541.7"/>
<line class="st1" x1="118.2" y1="494.7" x2="152.6" y2="529.2"/>
<line class="st1" x1="152.6" y1="529.2" x2="144.4" y2="537.4"/>
<line class="st1" x1="144.4" y1="537.4" x2="138" y2="531"/>
<line class="st1" x1="176.2" y1="492.9" x2="186.3" y2="502.9"/>
<line class="st1" x1="186.3" y1="502.9" x2="175.9" y2="513.3"/>
<line class="st1" x1="175.9" y1="513.3" x2="165.9" y2="503.2"/>
<line class="st1" x1="165.9" y1="503.2" x2="146.3" y2="522.8"/>
<line class="st1" x1="135.4" y1="469.9" x2="144.4" y2="461"/>
<line class="st1" x1="144.4" y1="461" x2="176.2" y2="492.9"/>
<line class="st1" x1="87.9" y1="575.8" x2="92.6" y2="580.5"/>
<line class="st1" x1="92.6" y1="580.5" x2="115.2" y2="557.9"/>
<line class="st1" x1="115.2" y1="557.9" x2="110.5" y2="553.2"/>
<line class="st1" x1="87.9" y1="575.8" x2="55.6" y2="608.1"/>
<line class="st1" x1="47.2" y1="616.5" x2="53.4" y2="622.7"/>
<line class="st1" x1="53.4" y1="622.7" x2="61.8" y2="614.3"/>
<line class="st1" x1="61.8" y1="614.3" x2="55.6" y2="608.1"/>
<line class="st1" x1="47.2" y1="616.5" x2="18.1" y2="587.3"/>
<line class="st1" x1="18.1" y1="587.3" x2="100.8" y2="504.6"/>
<line class="st1" x1="289.1" y1="609.1" x2="405.5" y2="725.4"/>
<line class="st1" x1="405.5" y1="725.4" x2="385.4" y2="745.5"/>
<line class="st1" x1="385.4" y1="745.5" x2="392" y2="752.2"/>
<line class="st1" x1="392" y1="752.2" x2="378.9" y2="765.3"/>
<line class="st1" x1="378.9" y1="765.3" x2="356.4" y2="742.8"/>
<line class="st1" x1="356.4" y1="742.8" x2="353.7" y2="745.5"/>
<line class="st1" x1="353.7" y1="745.5" x2="344" y2="735.8"/>
<line class="st1" x1="344" y1="735.8" x2="379.9" y2="699.9"/>
<line class="st1" x1="289.1" y1="609.1" x2="258.1" y2="640.1"/>
<line class="st1" x1="258.1" y1="640.1" x2="278.2" y2="660.2"/>
<line class="st1" x1="278.2" y1="660.2" x2="273.8" y2="664.6"/>
<line class="st1" x1="273.8" y1="664.6" x2="288.1" y2="678.9"/>
<line class="st1" x1="288.1" y1="678.9" x2="323.5" y2="643.5"/>
<line class="st1" x1="291.4" y1="675.6" x2="300.6" y2="684.8"/>
<line class="st1" x1="300.6" y1="684.8" x2="295.8" y2="689.6"/>
<line class="st1" x1="295.8" y1="689.6" x2="309.1" y2="702.9"/>
<line class="st1" x1="309.1" y1="702.9" x2="313.9" y2="698.1"/>
<line class="st1" x1="313.9" y1="698.1" x2="322.8" y2="707"/>
<line class="st1" x1="322.8" y1="707" x2="354.9" y2="674.9"/>
<line class="st1" x1="322.8" y1="707" x2="313.4" y2="716.4"/>
<line class="st1" x1="313.4" y1="716.4" x2="321.8" y2="724.7"/>
<line class="st1" x1="321.8" y1="724.7" x2="329.8" y2="716.7"/>
<line class="st1" x1="329.8" y1="716.7" x2="346.4" y2="733.4"/>
<line class="st1" x1="360.8" y1="841.9" x2="441.3" y2="761.4"/>
<line class="st1" x1="441.3" y1="761.4" x2="483" y2="803.1"/>
<line class="st1" x1="483" y1="803.1" x2="475.8" y2="810.3"/>
<line class="st1" x1="475.8" y1="810.3" x2="467.9" y2="802.5"/>
<line class="st1" x1="467.9" y1="802.5" x2="451.4" y2="819"/>
<line class="st1" x1="451.4" y1="819" x2="417.6" y2="785.1"/>
<line class="st1" x1="451" y1="818.5" x2="441.6" y2="827.9"/>
<line class="st1" x1="441.6" y1="827.9" x2="447.2" y2="833.5"/>
<line class="st1" x1="447.2" y1="833.5" x2="438.8" y2="841.9"/>
<line class="st1" x1="431.3" y1="841.9" x2="396" y2="806.7"/>
<line class="st1" x1="387.9" y1="841.9" x2="374.3" y2="828.4"/>
<line class="st1" x1="169.3" y1="702.7" x2="198.1" y2="674"/>
<line class="st1" x1="198.1" y1="674" x2="321.7" y2="797.6"/>
<line class="st1" x1="321.7" y1="797.6" x2="315.4" y2="803.9"/>
<line class="st1" x1="315.4" y1="803.9" x2="321.7" y2="810.2"/>
<line class="st1" x1="321.7" y1="810.2" x2="303.3" y2="828.5"/>
<line class="st1" x1="303.3" y1="828.5" x2="309.4" y2="834.7"/>
<line class="st1" x1="309.4" y1="834.7" x2="302.1" y2="841.9"/>
<line class="st1" x1="277.3" y1="841.9" x2="282.2" y2="837.1"/>
<line class="st1" x1="282.2" y1="837.1" x2="250.9" y2="805.8"/>
<line class="st1" x1="250.9" y1="805.8" x2="290.4" y2="766.4"/>
<line class="st1" x1="252.7" y1="804.1" x2="237.4" y2="788.9"/>
<line class="st1" x1="237.4" y1="788.9" x2="228.2" y2="798"/>
<line class="st1" x1="228.2" y1="798" x2="221.4" y2="791.2"/>
<line class="st1" x1="221.4" y1="791.2" x2="268.3" y2="744.3"/>
<line class="st1" x1="169.3" y1="702.7" x2="185.3" y2="718.7"/>
<line class="st1" x1="185.3" y1="718.7" x2="180.1" y2="723.9"/>
<line class="st1" x1="180.1" y1="723.9" x2="193.1" y2="737"/>
<line class="st1" x1="193.1" y1="737" x2="198.5" y2="731.6"/>
<line class="st1" x1="198.5" y1="731.6" x2="207.4" y2="740.8"/>
<line class="st1" x1="207.4" y1="740.8" x2="197.8" y2="749.9"/>
<line class="st1" x1="197.8" y1="749.9" x2="208" y2="760.5"/>
<line class="st1" x1="208" y1="760.5" x2="246.3" y2="722.2"/>
<line class="st1" x1="208" y1="760.5" x2="223.6" y2="776.1"/>
<line class="st1" x1="223.6" y1="776.1" x2="215" y2="784.8"/>
<line class="st1" x1="215" y1="784.8" x2="221.4" y2="791.2"/>
<line class="st1" x1="78.1" y1="792.6" x2="119.6" y2="756.1"/>
<line class="st1" x1="119.6" y1="756.1" x2="148.8" y2="785.4"/>
<line class="st1" x1="148.8" y1="785.4" x2="146.5" y2="787.7"/>
<line class="st1" x1="146.5" y1="787.7" x2="200.7" y2="841.9"/>
<line class="st1" x1="78.1" y1="792.6" x2="99.9" y2="814.5"/>
<line class="st1" x1="99.9" y1="814.5" x2="105.2" y2="809.2"/>
<line class="st1" x1="105.2" y1="809.2" x2="114.3" y2="818.3"/>
<line class="st1" x1="114.3" y1="818.3" x2="146.5" y2="787.7"/>
<line class="st1" x1="114.3" y1="818.3" x2="107.4" y2="825.3"/>
<line class="st1" x1="107.4" y1="825.3" x2="121.5" y2="839.4"/>
<line class="st1" x1="121.5" y1="839.4" x2="129.5" y2="831.4"/>
<line class="st1" x1="129.5" y1="831.4" x2="139.8" y2="841.7"/>
<line class="st1" x1="139.8" y1="841.7" x2="170.1" y2="811.3"/>
<line class="st1" x1="139.8" y1="841.7" x2="139.5" y2="841.9"/>
<line class="st1" x1="187.6" y1="841.9" x2="194.2" y2="835.4"/>
<line class="st1" x1="0.2" y1="636.3" x2="25.1" y2="661.2"/>
<line class="st1" x1="25.1" y1="661.2" x2="0.2" y2="686.1"/>
<line class="st1" x1="1017.9" y1="188.7" x2="937.3" y2="188.7"/>
<line class="st1" x1="937.3" y1="188.7" x2="951.2" y2="238.4"/>
<line class="st1" x1="951.2" y1="238.4" x2="969" y2="238.4"/>
<line class="st1" x1="969" y1="238.4" x2="984.5" y2="235.7"/>
<line class="st1" x1="984.5" y1="235.7" x2="984.5" y2="188.7"/>
<line class="st1" x1="984.5" y1="235.7" x2="1012.9" y2="240"/>
<line class="st1" x1="1012.9" y1="240" x2="1012.9" y2="234.1"/>
<line class="st1" x1="1012.9" y1="234.1" x2="1022.4" y2="235.1"/>
<line class="st1" x1="1022.4" y1="235.1" x2="1021.6" y2="242.7"/>
<line class="st1" x1="1021.6" y1="242.7" x2="1055.7" y2="261.3"/>
<line class="st1" x1="1055.7" y1="261.3" x2="1056.8" y2="259.2"/>
<line class="st1" x1="1056.8" y1="259.2" x2="1082.8" y2="278"/>
<line class="st1" x1="1082.8" y1="278" x2="1110.3" y2="240"/>
<line class="st1" x1="1110.3" y1="240" x2="1067.1" y2="208.7"/>
<line class="st1" x1="1067.1" y1="208.7" x2="1063.9" y2="213.1"/>
<line class="st1" x1="1063.9" y1="213.1" x2="1027.9" y2="193.5"/>
<line class="st1" x1="1027.9" y1="193.5" x2="1022.4" y2="235.1"/>
<line class="st1" x1="1017.9" y1="188.7" x2="1017.9" y2="196.5"/>
<line class="st1" x1="1017.9" y1="196.5" x2="1027.3" y2="197.8"/>
<line class="st1" x1="1063.9" y1="213.1" x2="1041.7" y2="253.7"/>
<line class="st1" x1="986.4" y1="148.4" x2="928.6" y2="148.4"/>
<line class="st1" x1="928.6" y1="148.4" x2="928.6" y2="170.2"/>
<line class="st1" x1="928.6" y1="170.2" x2="1036.7" y2="171.6"/>
<line class="st1" x1="1036.7" y1="171.6" x2="1036.9" y2="157.6"/>
<line class="st1" x1="1036.9" y1="157.6" x2="1028.8" y2="157.5"/>
<line class="st1" x1="1028.8" y1="157.5" x2="1024" y2="88.3"/>
<line class="st1" x1="1024" y1="88.3" x2="982.8" y2="90"/>
<line class="st1" x1="982.8" y1="90" x2="987.9" y2="171"/>
<line class="st1" x1="931.5" y1="93.3" x2="966.3" y2="89.6"/>
<line class="st1" x1="966.3" y1="89.6" x2="970.6" y2="131.3"/>
<line class="st1" x1="970.6" y1="131.3" x2="935.9" y2="134.9"/>
<line class="st1" x1="935.9" y1="134.9" x2="931.5" y2="93.3"/>
<line class="st1" x1="898.2" y1="21.7" x2="1010.1" y2="61.3"/>
<line class="st1" x1="1010.1" y1="61.3" x2="1013" y2="53"/>
<line class="st1" x1="1013" y1="53" x2="1030.1" y2="59.1"/>
<line class="st1" x1="1030.1" y1="59.1" x2="1044.3" y2="19"/>
<line class="st1" x1="1044.3" y1="19" x2="1034.9" y2="15.6"/>
<line class="st1" x1="1034.9" y1="15.6" x2="1040.2" y2="0.6"/>
<line class="st1" x1="1040.2" y1="0.6" x2="1038.8" y2="0.1"/>
<line class="st1" x1="1018.2" y1="0.1" x2="1017.8" y2="1.3"/>
<line class="st1" x1="1017.8" y1="1.3" x2="1014.3" y2="0.1"/>
<line class="st1" x1="889.3" y1="0.1" x2="889.7" y2="0.9"/>
<line class="st1" x1="889.7" y1="0.9" x2="894.9" y2="2.8"/>
<line class="st1" x1="894.9" y1="2.8" x2="891.7" y2="11.5"/>
<line class="st1" x1="891.7" y1="11.5" x2="900.6" y2="14.7"/>
<line class="st1" x1="900.6" y1="14.7" x2="898.2" y2="21.7"/>
<line class="st1" x1="972.1" y1="0.1" x2="957" y2="42.5"/>
<line class="st1" x1="1046.7" y1="123.1" x2="1065.8" y2="123.1"/>
<line class="st1" x1="1065.8" y1="123.1" x2="1065.8" y2="112.7"/>
<line class="st1" x1="1065.8" y1="112.7" x2="1086.5" y2="112.7"/>
<line class="st1" x1="1086.5" y1="112.7" x2="1086.5" y2="97.5"/>
<line class="st1" x1="1086.5" y1="97.5" x2="1062.3" y2="87.8"/>
<line class="st1" x1="1062.3" y1="87.8" x2="1065.8" y2="72.9"/>
<line class="st1" x1="1065.8" y1="72.9" x2="1113.9" y2="60.2"/>
<line class="st1" x1="1113.9" y1="60.2" x2="1115.8" y2="109.2"/>
<line class="st1" x1="1115.8" y1="109.2" x2="1136.9" y2="108.4"/>
<line class="st1" x1="1136.9" y1="108.4" x2="1137.4" y2="120.8"/>
<line class="st1" x1="1137.4" y1="120.8" x2="1092.7" y2="120.8"/>
<line class="st1" x1="1092.7" y1="120.8" x2="1092.7" y2="153.5"/>
<line class="st1" x1="1092.7" y1="153.5" x2="1133" y2="153.5"/>
<line class="st1" x1="1133" y1="153.5" x2="1133" y2="132.9"/>
<line class="st1" x1="1133" y1="132.9" x2="1145.7" y2="132.9"/>
<line class="st1" x1="1145.7" y1="132.9" x2="1145.7" y2="136.9"/>
<line class="st1" x1="1145.7" y1="136.9" x2="1156.8" y2="136.9"/>
<line class="st1" x1="1156.8" y1="136.9" x2="1162.5" y2="0.1"/>
<line class="st1" x1="1076.8" y1="0.1" x2="1079.5" y2="1"/>
<line class="st1" x1="1079.5" y1="1" x2="1080.8" y2="0.1"/>
<line class="st1" x1="1113.7" y1="0.1" x2="1113.1" y2="39.6"/>
<line class="st1" x1="1113.1" y1="39.6" x2="1097.1" y2="43.2"/>
<line class="st1" x1="1097.1" y1="43.2" x2="1093.9" y2="39.4"/>
<line class="st1" x1="1093.9" y1="39.4" x2="1090.1" y2="36.1"/>
<line class="st1" x1="1090.1" y1="36.1" x2="1085.8" y2="33.4"/>
<line class="st1" x1="1085.8" y1="33.4" x2="1081.1" y2="31.5"/>
<line class="st1" x1="1081.1" y1="31.5" x2="1076.2" y2="30.4"/>
<line class="st1" x1="1076.2" y1="30.4" x2="1071.2" y2="30"/>
<line class="st1" x1="1071.2" y1="30" x2="1066.2" y2="30.6"/>
<line class="st1" x1="1066.2" y1="30.6" x2="1061.3" y2="31.9"/>
<line class="st1" x1="1061.3" y1="31.9" x2="1056.7" y2="33.9"/>
<line class="st1" x1="1056.7" y1="33.9" x2="1052.5" y2="36.7"/>
<line class="st1" x1="1052.5" y1="36.7" x2="1048.8" y2="40.2"/>
<line class="st1" x1="1048.8" y1="40.2" x2="1045.8" y2="44.2"/>
<line class="st1" x1="1045.8" y1="44.2" x2="1043.4" y2="48.6"/>
<line class="st1" x1="1043.4" y1="48.6" x2="1042.2" y2="54"/>
<line class="st1" x1="1042.2" y1="54" x2="1041.6" y2="59.6"/>
<line class="st1" x1="1041.6" y1="59.6" x2="1041.6" y2="65.1"/>
<line class="st1" x1="1041.6" y1="65.1" x2="1042.2" y2="70.6"/>
<line class="st1" x1="1042.2" y1="70.6" x2="1046.1" y2="71.4"/>
<line class="st1" x1="1046.1" y1="71.4" x2="1043.9" y2="81.7"/>
<line class="st1" x1="1043.9" y1="81.7" x2="1046.7" y2="123.1"/>
</svg>
