<?xml version="1.0" encoding="UTF-8"?><svg id="Layer_1" xmlns="http://www.w3.org/2000/svg" viewBox="0 0 1190.55 841.89"><defs><style>.cls-1{fill:none;stroke:#000;stroke-linecap:round;stroke-linejoin:round;stroke-width:.25px;}.cls-2{fill-rule:evenodd;}</style></defs><polyline class="cls-2" points="525.21 384.93 562.16 348.12 658.68 445.03 621.73 481.84 525.21 384.93"/><line class="cls-1" x1="381.67" y1="488.9" x2="411.57" y2="518.95"/><line class="cls-1" x1="411.57" y1="518.95" x2="465.88" y2="464.8"/><line class="cls-1" x1="465.88" y1="464.8" x2="490.01" y2="489.24"/><line class="cls-1" x1="490.01" y1="489.24" x2="483.46" y2="495.73"/><line class="cls-1" x1="483.46" y1="495.73" x2="509.31" y2="521.98"/><line class="cls-1" x1="509.31" y1="521.98" x2="515.91" y2="515.29"/><line class="cls-1" x1="515.91" y1="515.29" x2="540.09" y2="539.41"/><line class="cls-1" x1="540.09" y1="539.41" x2="485.41" y2="593.44"/><line class="cls-1" x1="485.41" y1="593.44" x2="515.29" y2="623.4"/><line class="cls-1" x1="515.29" y1="623.4" x2="600.47" y2="539.21"/><line class="cls-1" x1="600.47" y1="539.21" x2="466.64" y2="404.63"/><line class="cls-1" x1="466.64" y1="404.63" x2="381.67" y2="488.9"/><line class="cls-1" x1="350.37" y1="409.51" x2="357.74" y2="402.06"/><line class="cls-1" x1="357.74" y1="402.06" x2="351.02" y2="395.48"/><line class="cls-1" x1="351.02" y1="395.48" x2="384.61" y2="362.32"/><line class="cls-1" x1="384.61" y1="362.32" x2="390.82" y2="368.69"/><line class="cls-1" x1="390.82" y1="368.69" x2="390.9" y2="368.04"/><line class="cls-1" x1="390.9" y1="368.04" x2="394.39" y2="366.06"/><line class="cls-1" x1="394.39" y1="366.06" x2="398.67" y2="367.33"/><line class="cls-1" x1="398.67" y1="367.33" x2="400.68" y2="371.04"/><line class="cls-1" x1="400.68" y1="371.04" x2="405.07" y2="371.36"/><line class="cls-1" x1="405.07" y1="371.36" x2="407.8" y2="374.19"/><line class="cls-1" x1="407.8" y1="374.19" x2="408.11" y2="378.56"/><line class="cls-1" x1="408.11" y1="378.56" x2="411.82" y2="380.57"/><line class="cls-1" x1="411.82" y1="380.57" x2="412.93" y2="384.71"/><line class="cls-1" x1="412.93" y1="384.71" x2="410.94" y2="388.39"/><line class="cls-1" x1="410.94" y1="388.39" x2="410.26" y2="388.45"/><line class="cls-1" x1="410.26" y1="388.45" x2="416.38" y2="394.63"/><line class="cls-1" x1="416.38" y1="394.63" x2="382.91" y2="427.71"/><line class="cls-1" x1="382.91" y1="427.71" x2="376.34" y2="420.99"/><line class="cls-1" x1="376.34" y1="420.99" x2="368.68" y2="428.3"/><line class="cls-1" x1="368.68" y1="428.3" x2="350.37" y2="409.51"/><line class="cls-1" x1="171.68" y1="265.04" x2="173.18" y2="264.12"/><line class="cls-1" x1="173.18" y1="264.12" x2="174.93" y2="263.94"/><line class="cls-1" x1="174.93" y1="263.94" x2="176.58" y2="264.53"/><line class="cls-1" x1="176.58" y1="264.53" x2="185.88" y2="255.23"/><line class="cls-1" x1="185.88" y1="255.23" x2="213.16" y2="282.82"/><line class="cls-1" x1="213.16" y1="282.82" x2="241.53" y2="254.45"/><line class="cls-1" x1="241.53" y1="254.45" x2="312.73" y2="326.59"/><line class="cls-1" x1="312.73" y1="326.59" x2="298.64" y2="340.58"/><line class="cls-1" x1="298.64" y1="340.58" x2="298.1" y2="340.15"/><line class="cls-1" x1="298.1" y1="340.15" x2="282.71" y2="355.49"/><line class="cls-1" x1="282.71" y1="355.49" x2="306.29" y2="379.08"/><line class="cls-1" x1="306.29" y1="379.08" x2="320.1" y2="365.52"/><line class="cls-1" x1="320.1" y1="365.52" x2="319.96" y2="365.32"/><line class="cls-1" x1="319.96" y1="365.32" x2="374.65" y2="311.92"/><line class="cls-1" x1="374.65" y1="311.92" x2="279.79" y2="216.66"/><line class="cls-1" x1="279.79" y1="216.66" x2="282.84" y2="213.68"/><line class="cls-1" x1="282.84" y1="213.68" x2="242.85" y2="173.85"/><line class="cls-1" x1="242.85" y1="173.85" x2="173.6" y2="242.92"/><line class="cls-1" x1="173.6" y1="242.92" x2="174.1" y2="243.45"/><line class="cls-1" x1="174.1" y1="243.45" x2="164.48" y2="253.14"/><line class="cls-1" x1="164.48" y1="253.14" x2="165" y2="254.55"/><line class="cls-1" x1="165" y1="254.55" x2="164.96" y2="256.06"/><line class="cls-1" x1="164.96" y1="256.06" x2="164.37" y2="257.44"/><line class="cls-1" x1="164.37" y1="257.44" x2="171.68" y2="265.04"/><line class="cls-1" x1="482.59" y1=".06" x2="468.31" y2="14.22"/><line class="cls-1" x1="468.31" y1="14.22" x2="468.05" y2="52.71"/><line class="cls-1" x1="468.05" y1="52.71" x2="580.01" y2="166.16"/><line class="cls-1" x1="580.01" y1="166.16" x2="547.78" y2="197.9"/><line class="cls-1" x1="547.78" y1="197.9" x2="422.66" y2="71.2"/><line class="cls-1" x1="422.66" y1="71.2" x2="423.13" y2=".06"/><line class="cls-1" x1="443.85" y1=".06" x2="446.72" y2="2.93"/><line class="cls-1" x1="446.72" y1="2.93" x2="468.31" y2="14.22"/><line class="cls-1" x1="430.43" y1="79.05" x2="445.85" y2="63.85"/><line class="cls-1" x1="445.85" y1="63.85" x2="468.05" y2="52.71"/><line class="cls-1" x1="459.88" y1="108.87" x2="491.99" y2="77.11"/><line class="cls-1" x1="507.75" y1="157.37" x2="539.95" y2="125.67"/><line class="cls-1" x1="201.78" y1="214.81" x2="241.53" y2="254.45"/><line class="cls-1" x1="241.53" y1="254.45" x2="279.79" y2="216.66"/><line class="cls-1" x1="275.08" y1="287.5" x2="312.81" y2="249.8"/><line class="cls-1" x1="307.43" y1="321.2" x2="345.86" y2="282.99"/><line class="cls-1" x1="312.73" y1="326.59" x2="335.88" y2="349.9"/><line class="cls-1" x1="545.37" y1="653.59" x2="630.64" y2="570.04"/><line class="cls-1" x1="630.64" y1="570.04" x2="675.58" y2="615.9"/><line class="cls-1" x1="675.58" y1="615.9" x2="590.3" y2="699.45"/><line class="cls-1" x1="590.3" y1="699.45" x2="545.37" y2="653.59"/><line class="cls-1" x1="587.57" y1="611.64" x2="633.07" y2="658.07"/><line class="cls-1" x1="636.78" y1="127.44" x2="627.94" y2="155.08"/><line class="cls-1" x1="627.94" y1="155.08" x2="670.01" y2="167.96"/><line class="cls-1" x1="670.01" y1="167.96" x2="680.72" y2="134.4"/><line class="cls-1" x1="680.72" y1="134.4" x2="636.78" y2="127.44"/><line class="cls-1" x1="627.94" y1="155.08" x2="614.59" y2="197.37"/><line class="cls-1" x1="614.59" y1="197.37" x2="622.44" y2="222.28"/><line class="cls-1" x1="622.44" y1="222.28" x2="662.41" y2="210.03"/><line class="cls-1" x1="662.41" y1="210.03" x2="657.9" y2="196.05"/><line class="cls-1" x1="657.9" y1="196.05" x2="669.04" y2="167.68"/><line class="cls-1" x1="622.44" y1="222.28" x2="634.6" y2="260.68"/><line class="cls-1" x1="634.6" y1="260.68" x2="675.42" y2="248.05"/><line class="cls-1" x1="675.42" y1="248.05" x2="662.41" y2="210.03"/><line class="cls-1" x1="634.6" y1="260.68" x2="642.57" y2="285.97"/><line class="cls-1" x1="642.57" y1="285.97" x2="688.86" y2="306.4"/><line class="cls-1" x1="688.86" y1="306.4" x2="700.99" y2="279.3"/><line class="cls-1" x1="700.99" y1="279.3" x2="698.18" y2="277.8"/><line class="cls-1" x1="698.18" y1="277.8" x2="703.48" y2="266.44"/><line class="cls-1" x1="703.48" y1="266.44" x2="677.63" y2="254.91"/><line class="cls-1" x1="677.63" y1="254.91" x2="675.42" y2="248.05"/><line class="cls-1" x1="707.48" y1="314.88" x2="718.99" y2="288.98"/><line class="cls-1" x1="718.99" y1="288.98" x2="709.89" y2="284.77"/><line class="cls-1" x1="709.89" y1="284.77" x2="715.59" y2="271.59"/><line class="cls-1" x1="715.59" y1="271.59" x2="779.03" y2="281.18"/><line class="cls-1" x1="779.03" y1="281.18" x2="754.79" y2="335.86"/><line class="cls-1" x1="754.79" y1="335.86" x2="707.48" y2="314.88"/><line class="cls-1" x1="754.79" y1="335.86" x2="783.96" y2="348.84"/><line class="cls-1" x1="783.96" y1="348.84" x2="817.6" y2="273.73"/><line class="cls-1" x1="817.6" y1="273.73" x2="788.07" y2="260.51"/><line class="cls-1" x1="788.07" y1="260.51" x2="779.03" y2="281.18"/><line class="cls-1" x1="786.88" y1="342.32" x2="825.97" y2="360.26"/><line class="cls-1" x1="825.97" y1="360.26" x2="838.81" y2="331.29"/><line class="cls-1" x1="838.81" y1="331.29" x2="813.15" y2="320.22"/><line class="cls-1" x1="813.15" y1="320.22" x2="822.34" y2="299.8"/><line class="cls-1" x1="822.34" y1="299.8" x2="808.59" y2="293.48"/><line class="cls-1" x1="820.47" y1="303.74" x2="884.75" y2="334.19"/><line class="cls-1" x1="884.75" y1="334.19" x2="865.08" y2="377.73"/><line class="cls-1" x1="865.08" y1="377.73" x2="825.97" y2="360.26"/><line class="cls-1" x1="838.81" y1="331.29" x2="842.61" y2="322.67"/><line class="cls-1" x1="842.61" y1="322.67" x2="881.58" y2="340.9"/><line class="cls-1" x1="865.08" y1="377.73" x2="875.06" y2="381.7"/><line class="cls-1" x1="875.06" y1="381.7" x2="885.34" y2="384.83"/><line class="cls-1" x1="885.34" y1="384.83" x2="895.84" y2="387.09"/><line class="cls-1" x1="895.84" y1="387.09" x2="906.5" y2="388.47"/><line class="cls-1" x1="906.5" y1="388.47" x2="917.23" y2="388.97"/><line class="cls-1" x1="917.23" y1="388.97" x2="927.97" y2="388.57"/><line class="cls-1" x1="927.97" y1="388.57" x2="938.63" y2="387.28"/><line class="cls-1" x1="938.63" y1="387.28" x2="937.91" y2="383.08"/><line class="cls-1" x1="937.91" y1="383.08" x2="947.31" y2="380.89"/><line class="cls-1" x1="947.31" y1="380.89" x2="934.88" y2="337.16"/><line class="cls-1" x1="934.88" y1="337.16" x2="901.09" y2="346.74"/><line class="cls-1" x1="901.09" y1="346.74" x2="882.86" y2="338.18"/><line class="cls-1" x1="817.89" y1="275.02" x2="850.03" y2="275.68"/><line class="cls-1" x1="850.03" y1="275.68" x2="912.2" y2="257.28"/><line class="cls-1" x1="912.2" y1="257.28" x2="934.88" y2="337.16"/><line class="cls-1" x1="866.22" y1="271.03" x2="844.14" y2="196.59"/><line class="cls-1" x1="844.14" y1="196.59" x2="897.22" y2="204.52"/><line class="cls-1" x1="897.22" y1="204.52" x2="912.2" y2="257.28"/><line class="cls-1" x1="844.14" y1="196.59" x2="849.55" y2="160.19"/><line class="cls-1" x1="849.55" y1="160.19" x2="849.66" y2="159.33"/><line class="cls-1" x1="849.66" y1="159.33" x2="885.86" y2="164.78"/><line class="cls-1" x1="885.86" y1="164.78" x2="897.22" y2="204.52"/><line class="cls-1" x1="849.21" y1="162.69" x2="798.3" y2="155.11"/><line class="cls-1" x1="798.3" y1="155.11" x2="792.83" y2="191.43"/><line class="cls-1" x1="792.83" y1="191.43" x2="843.69" y2="199"/><line class="cls-1" x1="843.69" y1="199" x2="844.14" y2="196.59"/><line class="cls-1" x1="738.6" y1="172.01" x2="794.55" y2="180.31"/><line class="cls-1" x1="794.55" y1="180.31" x2="786.6" y2="233.3"/><line class="cls-1" x1="786.6" y1="233.3" x2="730.72" y2="224.62"/><line class="cls-1" x1="730.72" y1="224.62" x2="738.6" y2="172.01"/><line class="cls-1" x1="679.93" y1="136.81" x2="705.12" y2="140.37"/><line class="cls-1" x1="705.12" y1="140.37" x2="700.13" y2="175.49"/><line class="cls-1" x1="700.13" y1="175.49" x2="694.74" y2="174.7"/><line class="cls-1" x1="694.74" y1="174.7" x2="670.01" y2="167.96"/><line class="cls-1" x1="705.01" y1="141.1" x2="742.37" y2="146.74"/><line class="cls-1" x1="742.37" y1="146.74" x2="736.76" y2="183.18"/><line class="cls-1" x1="736.76" y1="183.18" x2="699.8" y2="177.67"/><line class="cls-1" x1="699.8" y1="177.67" x2="700.13" y2="175.49"/><line class="cls-1" x1="709.89" y1="284.77" x2="700.45" y2="280.47"/><line class="cls-1" x1="702.78" y1="266.12" x2="707.62" y2="253.63"/><line class="cls-1" x1="707.62" y1="253.63" x2="711.47" y2="252.81"/><line class="cls-1" x1="711.47" y1="252.81" x2="715.59" y2="271.59"/><line class="cls-1" x1="701.24" y1="569.06" x2="710.7" y2="545.8"/><line class="cls-1" x1="710.7" y1="545.8" x2="714.05" y2="521.16"/><line class="cls-1" x1="714.05" y1="521.16" x2="710.51" y2="495.54"/><line class="cls-1" x1="710.51" y1="495.54" x2="724.98" y2="493.53"/><line class="cls-1" x1="724.98" y1="493.53" x2="729.82" y2="520.76"/><line class="cls-1" x1="729.82" y1="520.76" x2="726.13" y2="547.9"/><line class="cls-1" x1="726.13" y1="547.9" x2="715.21" y2="574.74"/><line class="cls-1" x1="715.21" y1="574.74" x2="701.24" y2="569.06"/><line class="cls-1" x1="525.54" y1="7.25" x2="606.15" y2="87.86"/><line class="cls-1" x1="606.15" y1="87.86" x2="593.09" y2="130.44"/><line class="cls-1" x1="593.09" y1="130.44" x2="587.59" y2="128.75"/><line class="cls-1" x1="587.59" y1="128.75" x2="501.92" y2="43.08"/><line class="cls-1" x1="501.92" y1="43.08" x2="501.92" y2="30.87"/><line class="cls-1" x1="501.92" y1="30.87" x2="525.54" y2="7.25"/><line class="cls-1" x1="743.19" y1="722.4" x2="690.4" y2="691.46"/><line class="cls-1" x1="690.4" y1="691.46" x2="689.06" y2="689.14"/><line class="cls-1" x1="689.06" y1="689.14" x2="688.37" y2="686.56"/><line class="cls-1" x1="688.37" y1="686.56" x2="688.37" y2="683.88"/><line class="cls-1" x1="688.37" y1="683.88" x2="689.06" y2="681.29"/><line class="cls-1" x1="689.06" y1="681.29" x2="690.4" y2="678.97"/><line class="cls-1" x1="690.4" y1="678.97" x2="725.31" y2="644.06"/><line class="cls-1" x1="725.31" y1="644.06" x2="754.83" y2="684.08"/><line class="cls-1" x1="754.83" y1="684.08" x2="746.32" y2="695.72"/><line class="cls-1" x1="746.32" y1="695.72" x2="755.07" y2="702.13"/><line class="cls-1" x1="755.07" y1="702.13" x2="743.19" y2="722.4"/><line class="cls-1" x1="725.31" y1="644.06" x2="781.33" y2="602.74"/><line class="cls-1" x1="781.33" y1="602.74" x2="807.34" y2="644.91"/><line class="cls-1" x1="807.34" y1="644.91" x2="754.83" y2="684.08"/><line class="cls-1" x1="781.33" y1="602.74" x2="932.77" y2="519.63"/><line class="cls-1" x1="932.77" y1="519.63" x2="936.9" y2="517.92"/><line class="cls-1" x1="936.9" y1="517.92" x2="941.27" y2="516.98"/><line class="cls-1" x1="941.27" y1="516.98" x2="945.74" y2="516.85"/><line class="cls-1" x1="945.74" y1="516.85" x2="950.16" y2="517.52"/><line class="cls-1" x1="950.16" y1="517.52" x2="954.38" y2="518.98"/><line class="cls-1" x1="954.38" y1="518.98" x2="958.27" y2="521.18"/><line class="cls-1" x1="958.27" y1="521.18" x2="961.71" y2="524.04"/><line class="cls-1" x1="961.71" y1="524.04" x2="1120.62" y2="811.95"/><line class="cls-1" x1="1120.62" y1="811.95" x2="1102.63" y2="841.94"/><line class="cls-1" x1="893.95" y1="822.59" x2="897.35" y2="822.59"/><line class="cls-1" x1="897.35" y1="822.59" x2="900.69" y2="817.09"/><line class="cls-1" x1="900.69" y1="817.09" x2="915.16" y2="825.9"/><line class="cls-1" x1="915.16" y1="825.9" x2="911.81" y2="831.39"/><line class="cls-1" x1="911.81" y1="831.39" x2="912.46" y2="833.86"/><line class="cls-1" x1="893.95" y1="822.59" x2="857.97" y2="800.69"/><line class="cls-1" x1="857.97" y1="800.69" x2="862.23" y2="793.68"/><line class="cls-1" x1="862.23" y1="793.68" x2="832.46" y2="775.56"/><line class="cls-1" x1="832.46" y1="775.56" x2="833.78" y2="773.36"/><line class="cls-1" x1="833.78" y1="773.36" x2="808.98" y2="758.46"/><line class="cls-1" x1="808.98" y1="758.46" x2="804.38" y2="758.46"/><line class="cls-1" x1="804.38" y1="758.46" x2="795.87" y2="753.55"/><line class="cls-1" x1="795.87" y1="753.55" x2="794.14" y2="749.54"/><line class="cls-1" x1="794.14" y1="749.54" x2="767.8" y2="733.72"/><line class="cls-1" x1="767.8" y1="733.72" x2="791.79" y2="693.79"/><line class="cls-1" x1="791.79" y1="693.79" x2="817.43" y2="709.2"/><line class="cls-1" x1="817.43" y1="709.2" x2="819.49" y2="705.76"/><line class="cls-1" x1="819.49" y1="705.76" x2="835.04" y2="715.11"/><line class="cls-1" x1="835.04" y1="715.11" x2="830.99" y2="721.85"/><line class="cls-1" x1="830.99" y1="721.85" x2="855.91" y2="737.03"/><line class="cls-1" x1="855.91" y1="737.03" x2="853.1" y2="741.22"/><line class="cls-1" x1="853.1" y1="741.22" x2="922.4" y2="781.75"/><line class="cls-1" x1="922.4" y1="781.75" x2="918.34" y2="788.69"/><line class="cls-1" x1="918.34" y1="788.69" x2="942.06" y2="802.57"/><line class="cls-1" x1="942.06" y1="802.57" x2="945.57" y2="797.35"/><line class="cls-1" x1="945.57" y1="797.35" x2="988.85" y2="823.31"/><line class="cls-1" x1="988.85" y1="823.31" x2="993.09" y2="816.24"/><line class="cls-1" x1="993.09" y1="816.24" x2="995.15" y2="807.15"/><line class="cls-1" x1="995.15" y1="807.15" x2="988.94" y2="800.94"/><line class="cls-1" x1="988.94" y1="800.94" x2="986.78" y2="803.11"/><line class="cls-1" x1="986.78" y1="803.11" x2="891.72" y2="745.24"/><line class="cls-1" x1="891.72" y1="745.24" x2="883.62" y2="737.14"/><line class="cls-1" x1="883.62" y1="737.14" x2="891.22" y2="725.74"/><line class="cls-1" x1="891.22" y1="725.74" x2="881.76" y2="719.44"/><line class="cls-1" x1="881.76" y1="719.44" x2="865.2" y2="686.32"/><line class="cls-1" x1="865.2" y1="686.32" x2="813.4" y2="655.92"/><line class="cls-1" x1="813.4" y1="655.92" x2="807.34" y2="644.91"/><line class="cls-1" x1="925.75" y1="841.94" x2="912.46" y2="833.86"/><line class="cls-1" x1="833.78" y1="773.36" x2="853.1" y2="741.22"/><line class="cls-1" x1="877.07" y1="812.32" x2="902.69" y2="770.23"/><line class="cls-1" x1="942.15" y1="841.94" x2="962.73" y2="807.64"/><line class="cls-1" x1="1000.04" y1="841.94" x2="1022.41" y2="804.96"/><line class="cls-1" x1="1022.41" y1="804.96" x2="1056.82" y2="825.77"/><line class="cls-1" x1="1056.82" y1="825.77" x2="1064.5" y2="813.07"/><line class="cls-1" x1="1064.5" y1="813.07" x2="1041.16" y2="770.61"/><line class="cls-1" x1="1041.16" y1="770.61" x2="1019.85" y2="782.33"/><line class="cls-1" x1="1019.85" y1="782.33" x2="1010.52" y2="797.76"/><line class="cls-1" x1="1010.52" y1="797.76" x2="1022.41" y2="804.96"/><line class="cls-1" x1="1056.82" y1="825.77" x2="1083.8" y2="841.94"/><line class="cls-1" x1="1041.16" y1="770.61" x2="1084.58" y2="746.65"/><line class="cls-1" x1="828.97" y1="665.06" x2="936.13" y2="605.09"/><line class="cls-1" x1="936.13" y1="605.09" x2="899.31" y2="537.99"/><line class="cls-1" x1="848.82" y1="565.7" x2="886.42" y2="632.9"/><line class="cls-1" x1="924.67" y1="611.5" x2="1019.85" y2="782.33"/><line class="cls-1" x1="985.39" y1="720.47" x2="1050.34" y2="684.62"/><line class="cls-1" x1="965.2" y1="684.24" x2="1030.3" y2="648.3"/><line class="cls-1" x1="944.47" y1="647.04" x2="1009.72" y2="611.03"/><line class="cls-1" x1="929.81" y1="593.58" x2="983.68" y2="563.84"/><line class="cls-1" x1="924.65" y1="584.16" x2="933.45" y2="579.33"/><line class="cls-1" x1="933.45" y1="579.33" x2="938.63" y2="588.71"/><line class="cls-1" x1="886.29" y1="591.78" x2="891.61" y2="601.05"/><line class="cls-1" x1="891.61" y1="601.05" x2="900.87" y2="595.72"/><line class="cls-1" x1="900.87" y1="595.72" x2="895.55" y2="586.46"/><line class="cls-1" x1="895.55" y1="586.46" x2="886.29" y2="591.78"/><line class="cls-1" x1="818.09" y1="620.95" x2="821.44" y2="627.06"/><line class="cls-1" x1="821.44" y1="627.06" x2="849.42" y2="611.72"/><line class="cls-1" x1="849.42" y1="611.72" x2="846.07" y2="605.61"/><line class="cls-1" x1="846.07" y1="605.61" x2="818.09" y2="620.95"/><line class="cls-1" x1="986.75" y1="275.79" x2="982.65" y2="311.27"/><line class="cls-1" x1="982.65" y1="311.27" x2="1017.05" y2="315.25"/><line class="cls-1" x1="1017.05" y1="315.25" x2="1019.4" y2="294.92"/><line class="cls-1" x1="1019.4" y1="294.92" x2="1040.3" y2="303.38"/><line class="cls-1" x1="1040.3" y1="303.38" x2="1048.35" y2="291.39"/><line class="cls-1" x1="1048.35" y1="291.39" x2="1021.15" y2="279.77"/><line class="cls-1" x1="1021.15" y1="279.77" x2="986.75" y2="275.79"/><line class="cls-1" x1="271.49" y1="147.86" x2="313.38" y2="105.97"/><line class="cls-1" x1="313.38" y1="105.97" x2="334.27" y2="126.87"/><line class="cls-1" x1="334.27" y1="126.87" x2="292.39" y2="168.75"/><line class="cls-1" x1="292.39" y1="168.75" x2="271.49" y2="147.86"/><line class="cls-1" x1="156.51" y1="320.93" x2="208.37" y2="372.79"/><line class="cls-1" x1="208.37" y1="372.79" x2="181.32" y2="399.84"/><line class="cls-1" x1="181.32" y1="399.84" x2="141.47" y2="359.99"/><line class="cls-1" x1="141.47" y1="359.99" x2="160.57" y2="340.89"/><line class="cls-1" x1="160.57" y1="340.89" x2="148.56" y2="328.88"/><line class="cls-1" x1="148.56" y1="328.88" x2="156.51" y2="320.93"/><line class="cls-1" x1="181.32" y1="399.84" x2="176.53" y2="404.63"/><line class="cls-1" x1="176.53" y1="404.63" x2="188.72" y2="416.82"/><line class="cls-1" x1="188.72" y1="416.82" x2="185.64" y2="419.89"/><line class="cls-1" x1="185.64" y1="419.89" x2="205.75" y2="440"/><line class="cls-1" x1="205.75" y1="440" x2="215.56" y2="430.18"/><line class="cls-1" x1="215.56" y1="430.18" x2="209.89" y2="424.5"/><line class="cls-1" x1="209.89" y1="424.5" x2="225.5" y2="408.89"/><line class="cls-1" x1="225.5" y1="408.89" x2="231.17" y2="414.57"/><line class="cls-1" x1="231.17" y1="414.57" x2="239.93" y2="405.82"/><line class="cls-1" x1="239.93" y1="405.82" x2="208.1" y2="374"/><line class="cls-1" x1="257" y1="490.48" x2="289.82" y2="523.3"/><line class="cls-1" x1="289.82" y1="523.3" x2="322.93" y2="490.18"/><line class="cls-1" x1="322.93" y1="490.18" x2="290.12" y2="457.36"/><line class="cls-1" x1="290.12" y1="457.36" x2="257" y2="490.48"/><line class="cls-1" x1="376.01" y1="591.91" x2="353.45" y2="569.35"/><line class="cls-1" x1="327.19" y1="543.09" x2="323.64" y2="546.64"/><line class="cls-1" x1="323.64" y1="546.64" x2="349.9" y2="572.89"/><line class="cls-1" x1="349.9" y1="572.89" x2="353.45" y2="569.35"/><line class="cls-1" x1="376.01" y1="591.91" x2="372.46" y2="595.46"/><line class="cls-1" x1="372.46" y1="595.46" x2="398.72" y2="621.72"/><line class="cls-1" x1="398.72" y1="621.72" x2="402.27" y2="618.17"/><line class="cls-1" x1="327.19" y1="543.09" x2="352.74" y2="517.55"/><line class="cls-1" x1="352.74" y1="517.55" x2="484.58" y2="649.39"/><line class="cls-1" x1="484.58" y1="649.39" x2="459.03" y2="674.93"/><line class="cls-1" x1="459.03" y1="674.93" x2="402.27" y2="618.17"/><line class="cls-1" x1="481.75" y1="716.5" x2="515.38" y2="682.86"/><line class="cls-1" x1="515.38" y1="682.86" x2="561.22" y2="728.7"/><line class="cls-1" x1="561.22" y1="728.7" x2="527.59" y2="762.34"/><line class="cls-1" x1="527.59" y1="762.34" x2="481.75" y2="716.5"/><line class="cls-1" x1="564.18" y1="830.03" x2="590.79" y2="800.63"/><line class="cls-1" x1="590.79" y1="800.63" x2="620.62" y2="827.63"/><line class="cls-1" x1="620.62" y1="827.63" x2="607.67" y2="841.94"/><line class="cls-1" x1="577.34" y1="841.94" x2="564.18" y2="830.03"/><line class="cls-1" x1="591.84" y1="801.58" x2="642" y2="746.15"/><line class="cls-1" x1="642" y1="746.15" x2="639.64" y2="743.8"/><line class="cls-1" x1="639.64" y1="743.8" x2="648.83" y2="734.61"/><line class="cls-1" x1="648.83" y1="734.61" x2="666.57" y2="732.31"/><line class="cls-1" x1="666.57" y1="732.31" x2="679.05" y2="739.54"/><line class="cls-1" x1="679.05" y1="739.54" x2="677.52" y2="742.2"/><line class="cls-1" x1="677.52" y1="742.2" x2="820.35" y2="828.87"/><line class="cls-1" x1="820.35" y1="828.87" x2="821.41" y2="827.14"/><line class="cls-1" x1="821.41" y1="827.14" x2="845.81" y2="841.94"/><line class="cls-1" x1="772.71" y1="841.94" x2="755.84" y2="831.71"/><line class="cls-1" x1="755.84" y1="831.71" x2="751.51" y2="838.84"/><line class="cls-1" x1="751.51" y1="838.84" x2="739.7" y2="831.67"/><line class="cls-1" x1="739.7" y1="831.67" x2="744.03" y2="824.54"/><line class="cls-1" x1="744.03" y1="824.54" x2="671.02" y2="780.24"/><line class="cls-1" x1="671.02" y1="780.24" x2="660.27" y2="782.35"/><line class="cls-1" x1="660.27" y1="782.35" x2="619.26" y2="826.39"/><line class="cls-1" x1="611.66" y1="779.67" x2="639.07" y2="804.51"/><line class="cls-1" x1="632.35" y1="756.82" x2="660.5" y2="782.3"/><line class="cls-1" x1="685.81" y1="789.22" x2="704.43" y2="758.54"/><line class="cls-1" x1="714.9" y1="806.87" x2="733.52" y2="776.19"/><line class="cls-1" x1="744.03" y1="824.54" x2="762.64" y2="793.86"/><line class="cls-1" x1="772.78" y1="841.94" x2="791.38" y2="811.29"/><line class="cls-1" x1="812.42" y1="841.94" x2="820.35" y2="828.87"/><line class="cls-1" x1="578.21" y1=".06" x2="609.86" y2="32.15"/><line class="cls-1" x1="609.86" y1="32.15" x2="625.79" y2="28.66"/><line class="cls-1" x1="625.79" y1="28.66" x2="634.71" y2=".06"/><line class="cls-1" x1="579.28" y1=".06" x2="578.52" y2=".81"/><line class="cls-1" x1="677.22" y1=".06" x2="645.94" y2="99.08"/><line class="cls-1" x1="645.94" y1="99.08" x2="701.73" y2="108.12"/><line class="cls-1" x1="701.73" y1="108.12" x2="702.09" y2="106.59"/><line class="cls-1" x1="702.09" y1="106.59" x2="734.04" y2="111.21"/><line class="cls-1" x1="734.04" y1="111.21" x2="732.88" y2="117.13"/><line class="cls-1" x1="732.88" y1="117.13" x2="783.05" y2="124.45"/><line class="cls-1" x1="783.05" y1="124.45" x2="783.78" y2="120.07"/><line class="cls-1" x1="783.78" y1="120.07" x2="820.04" y2="125.37"/><line class="cls-1" x1="820.04" y1="125.37" x2="823.46" y2="128.79"/><line class="cls-1" x1="823.46" y1="128.79" x2="876.57" y2="137.01"/><line class="cls-1" x1="876.57" y1="137.01" x2="878.28" y2="135.29"/><line class="cls-1" x1="878.28" y1="135.29" x2="865.06" y2="89.98"/><line class="cls-1" x1="865.06" y1="89.98" x2="866.99" y2="90.31"/><line class="cls-1" x1="866.99" y1="90.31" x2="852.83" y2="35.06"/><line class="cls-1" x1="852.83" y1="35.06" x2="843.53" y2=".06"/><line class="cls-1" x1="722.5" y1=".06" x2="717.2" y2="16.9"/><line class="cls-1" x1="717.2" y1="16.9" x2="674.68" y2="8.68"/><line class="cls-1" x1="716.15" y1="16.73" x2="698.22" y2="72.45"/><line class="cls-1" x1="657.51" y1="63.53" x2="739.8" y2="81.56"/><line class="cls-1" x1="739.8" y1="81.56" x2="734.04" y2="111.21"/><line class="cls-1" x1="739.8" y1="81.56" x2="743.88" y2="60.16"/><line class="cls-1" x1="743.88" y1="60.16" x2="770.15" y2="63.73"/><line class="cls-1" x1="770.15" y1="63.73" x2="769.84" y2="65.97"/><line class="cls-1" x1="769.84" y1="65.97" x2="793.17" y2="67.95"/><line class="cls-1" x1="793.17" y1="67.95" x2="791.84" y2="77.34"/><line class="cls-1" x1="791.84" y1="77.34" x2="789.46" y2="84.71"/><line class="cls-1" x1="789.46" y1="84.71" x2="783.78" y2="120.07"/><line class="cls-1" x1="791.85" y1="77.32" x2="865.06" y2="89.98"/><line class="cls-1" x1="805.02" y1="79.6" x2="808.59" y2="34.48"/><line class="cls-1" x1="808.59" y1="34.48" x2="841.11" y2="40.49"/><line class="cls-1" x1="841.11" y1="40.49" x2="841.67" y2="37.99"/><line class="cls-1" x1="841.67" y1="37.99" x2="852.83" y2="35.06"/><line class="cls-1" x1="808.59" y1="34.48" x2="803.63" y2="33.57"/><line class="cls-1" x1="803.63" y1="33.57" x2="805.7" y2="23.76"/><line class="cls-1" x1="805.7" y1="23.76" x2="799.18" y2=".06"/><line class="cls-1" x1=".22" y1="480.57" x2="81.08" y2="399.71"/><line class="cls-1" x1="81.08" y1="399.71" x2="114.92" y2="433.55"/><line class="cls-1" x1="114.92" y1="433.55" x2=".22" y2="548.25"/><line class="cls-1" x1="138.04" y1="531" x2="124.7" y2="544.34"/><line class="cls-1" x1="124.7" y1="544.34" x2="122.05" y2="541.69"/><line class="cls-1" x1="122.05" y1="541.69" x2="110.52" y2="553.22"/><line class="cls-1" x1=".22" y1="500.73" x2="23.98" y2="524.49"/><line class="cls-1" x1="26.05" y1="454.74" x2="59.89" y2="488.59"/><line class="cls-1" x1="54.01" y1="426.78" x2="87.85" y2="460.63"/><line class="cls-1" x1="100.81" y1="504.56" x2="104.54" y2="508.29"/><line class="cls-1" x1="104.54" y1="508.29" x2="139.17" y2="473.66"/><line class="cls-1" x1="139.17" y1="473.66" x2="135.44" y2="469.93"/><line class="cls-1" x1="47.88" y1="557.49" x2="77.06" y2="586.68"/><line class="cls-1" x1="70.01" y1="535.35" x2="103.89" y2="569.23"/><line class="cls-1" x1="92.86" y1="512.5" x2="122.05" y2="541.69"/><line class="cls-1" x1="118.17" y1="494.67" x2="152.65" y2="529.15"/><line class="cls-1" x1="152.65" y1="529.15" x2="144.42" y2="537.38"/><line class="cls-1" x1="144.42" y1="537.38" x2="138.04" y2="531"/><line class="cls-1" x1="176.18" y1="492.85" x2="186.26" y2="502.93"/><line class="cls-1" x1="186.26" y1="502.93" x2="175.93" y2="513.26"/><line class="cls-1" x1="175.93" y1="513.26" x2="165.85" y2="503.18"/><line class="cls-1" x1="165.85" y1="503.18" x2="146.27" y2="522.77"/><line class="cls-1" x1="135.44" y1="469.93" x2="144.35" y2="461.02"/><line class="cls-1" x1="144.35" y1="461.02" x2="176.18" y2="492.85"/><line class="cls-1" x1="87.95" y1="575.79" x2="92.64" y2="580.48"/><line class="cls-1" x1="92.64" y1="580.48" x2="115.21" y2="557.91"/><line class="cls-1" x1="115.21" y1="557.91" x2="110.52" y2="553.22"/><line class="cls-1" x1="87.95" y1="575.79" x2="55.62" y2="608.11"/><line class="cls-1" x1="47.24" y1="616.5" x2="53.41" y2="622.66"/><line class="cls-1" x1="53.41" y1="622.66" x2="61.79" y2="614.28"/><line class="cls-1" x1="61.79" y1="614.28" x2="55.62" y2="608.11"/><line class="cls-1" x1="47.24" y1="616.5" x2="18.06" y2="587.31"/><line class="cls-1" x1="18.06" y1="587.31" x2="100.81" y2="504.56"/><line class="cls-1" x1="289.15" y1="609.11" x2="405.46" y2="725.43"/><line class="cls-1" x1="405.46" y1="725.43" x2="385.36" y2="745.52"/><line class="cls-1" x1="385.36" y1="745.52" x2="392.01" y2="752.16"/><line class="cls-1" x1="392.01" y1="752.16" x2="378.89" y2="765.28"/><line class="cls-1" x1="378.89" y1="765.28" x2="356.41" y2="742.8"/><line class="cls-1" x1="356.41" y1="742.8" x2="353.69" y2="745.52"/><line class="cls-1" x1="353.69" y1="745.52" x2="343.98" y2="735.82"/><line class="cls-1" x1="343.98" y1="735.82" x2="379.91" y2="699.88"/><line class="cls-1" x1="289.15" y1="609.11" x2="258.15" y2="640.11"/><line class="cls-1" x1="258.15" y1="640.11" x2="278.25" y2="660.2"/><line class="cls-1" x1="278.25" y1="660.2" x2="273.82" y2="664.63"/><line class="cls-1" x1="273.82" y1="664.63" x2="288.12" y2="678.94"/><line class="cls-1" x1="288.12" y1="678.94" x2="323.54" y2="643.51"/><line class="cls-1" x1="291.43" y1="675.62" x2="300.57" y2="684.77"/><line class="cls-1" x1="300.57" y1="684.77" x2="295.78" y2="689.56"/><line class="cls-1" x1="295.78" y1="689.56" x2="309.13" y2="702.91"/><line class="cls-1" x1="309.13" y1="702.91" x2="313.92" y2="698.11"/><line class="cls-1" x1="313.92" y1="698.11" x2="322.82" y2="707.01"/><line class="cls-1" x1="322.82" y1="707.01" x2="354.93" y2="674.9"/><line class="cls-1" x1="322.82" y1="707.01" x2="313.44" y2="716.39"/><line class="cls-1" x1="313.44" y1="716.39" x2="321.79" y2="724.74"/><line class="cls-1" x1="321.79" y1="724.74" x2="329.8" y2="716.73"/><line class="cls-1" x1="329.8" y1="716.73" x2="346.43" y2="733.36"/><line class="cls-1" x1="360.76" y1="841.94" x2="441.28" y2="761.43"/><line class="cls-1" x1="441.28" y1="761.43" x2="482.97" y2="803.12"/><line class="cls-1" x1="482.97" y1="803.12" x2="475.77" y2="810.31"/><line class="cls-1" x1="475.77" y1="810.31" x2="467.92" y2="802.46"/><line class="cls-1" x1="467.92" y1="802.46" x2="451.43" y2="818.95"/><line class="cls-1" x1="451.43" y1="818.95" x2="417.59" y2="785.11"/><line class="cls-1" x1="451.02" y1="818.54" x2="441.65" y2="827.9"/><line class="cls-1" x1="441.65" y1="827.9" x2="447.23" y2="833.48"/><line class="cls-1" x1="447.23" y1="833.48" x2="438.77" y2="841.94"/><line class="cls-1" x1="431.28" y1="841.94" x2="396.02" y2="806.68"/><line class="cls-1" x1="387.88" y1="841.94" x2="374.32" y2="828.38"/><line class="cls-1" x1="169.33" y1="702.72" x2="198.05" y2="673.99"/><line class="cls-1" x1="198.05" y1="673.99" x2="321.66" y2="797.6"/><line class="cls-1" x1="321.66" y1="797.6" x2="315.36" y2="803.9"/><line class="cls-1" x1="315.36" y1="803.9" x2="321.66" y2="810.21"/><line class="cls-1" x1="321.66" y1="810.21" x2="303.31" y2="828.55"/><line class="cls-1" x1="303.31" y1="828.55" x2="309.43" y2="834.67"/><line class="cls-1" x1="309.43" y1="834.67" x2="302.15" y2="841.94"/><line class="cls-1" x1="277.32" y1="841.94" x2="282.19" y2="837.07"/><line class="cls-1" x1="282.19" y1="837.07" x2="250.94" y2="805.83"/><line class="cls-1" x1="250.94" y1="805.83" x2="290.41" y2="766.36"/><line class="cls-1" x1="252.66" y1="804.11" x2="237.4" y2="788.86"/><line class="cls-1" x1="237.4" y1="788.86" x2="228.23" y2="798.03"/><line class="cls-1" x1="228.23" y1="798.03" x2="221.4" y2="791.19"/><line class="cls-1" x1="221.4" y1="791.19" x2="268.32" y2="744.27"/><line class="cls-1" x1="169.33" y1="702.72" x2="185.27" y2="718.66"/><line class="cls-1" x1="185.27" y1="718.66" x2="180.05" y2="723.88"/><line class="cls-1" x1="180.05" y1="723.88" x2="193.13" y2="736.96"/><line class="cls-1" x1="193.13" y1="736.96" x2="198.54" y2="731.56"/><line class="cls-1" x1="198.54" y1="731.56" x2="207.35" y2="740.75"/><line class="cls-1" x1="207.35" y1="740.75" x2="197.84" y2="749.88"/><line class="cls-1" x1="197.84" y1="749.88" x2="208.02" y2="760.49"/><line class="cls-1" x1="208.02" y1="760.49" x2="246.28" y2="722.23"/><line class="cls-1" x1="208.02" y1="760.49" x2="223.62" y2="776.1"/><line class="cls-1" x1="223.62" y1="776.1" x2="214.96" y2="784.76"/><line class="cls-1" x1="214.96" y1="784.76" x2="221.4" y2="791.19"/><line class="cls-1" x1="78.08" y1="792.61" x2="119.56" y2="756.11"/><line class="cls-1" x1="119.56" y1="756.11" x2="148.83" y2="785.37"/><line class="cls-1" x1="148.83" y1="785.37" x2="146.47" y2="787.73"/><line class="cls-1" x1="146.47" y1="787.73" x2="200.69" y2="841.94"/><line class="cls-1" x1="78.08" y1="792.61" x2="99.93" y2="814.46"/><line class="cls-1" x1="99.93" y1="814.46" x2="105.2" y2="809.19"/><line class="cls-1" x1="105.2" y1="809.19" x2="114.32" y2="818.31"/><line class="cls-1" x1="114.32" y1="818.31" x2="146.47" y2="787.73"/><line class="cls-1" x1="114.32" y1="818.31" x2="107.36" y2="825.27"/><line class="cls-1" x1="107.36" y1="825.27" x2="121.53" y2="839.43"/><line class="cls-1" x1="121.53" y1="839.43" x2="129.53" y2="831.44"/><line class="cls-1" x1="129.53" y1="831.44" x2="139.76" y2="841.67"/><line class="cls-1" x1="139.76" y1="841.67" x2="170.09" y2="811.35"/><line class="cls-1" x1="139.76" y1="841.67" x2="139.49" y2="841.94"/><line class="cls-1" x1="187.63" y1="841.94" x2="194.16" y2="835.42"/><line class="cls-1" x1=".22" y1="636.29" x2="25.15" y2="661.22"/><line class="cls-1" x1="25.15" y1="661.22" x2=".22" y2="686.14"/><line class="cls-1" x1="1017.87" y1="188.67" x2="937.28" y2="188.67"/><line class="cls-1" x1="937.28" y1="188.67" x2="951.21" y2="238.42"/><line class="cls-1" x1="951.21" y1="238.42" x2="969.05" y2="238.42"/><line class="cls-1" x1="969.05" y1="238.42" x2="984.52" y2="235.74"/><line class="cls-1" x1="984.52" y1="235.74" x2="984.52" y2="188.67"/><line class="cls-1" x1="984.52" y1="235.74" x2="1012.91" y2="240.01"/><line class="cls-1" x1="1012.91" y1="240.01" x2="1012.91" y2="234.14"/><line class="cls-1" x1="1012.91" y1="234.14" x2="1022.37" y2="235.08"/><line class="cls-1" x1="1022.37" y1="235.08" x2="1021.62" y2="242.72"/><line class="cls-1" x1="1021.62" y1="242.72" x2="1055.69" y2="261.33"/><line class="cls-1" x1="1055.69" y1="261.33" x2="1056.84" y2="259.23"/><line class="cls-1" x1="1056.84" y1="259.23" x2="1082.75" y2="278"/><line class="cls-1" x1="1082.75" y1="278" x2="1110.26" y2="240.01"/><line class="cls-1" x1="1110.26" y1="240.01" x2="1067.06" y2="208.73"/><line class="cls-1" x1="1067.06" y1="208.73" x2="1063.89" y2="213.1"/><line class="cls-1" x1="1063.89" y1="213.1" x2="1027.87" y2="193.51"/><line class="cls-1" x1="1027.87" y1="193.51" x2="1022.37" y2="235.08"/><line class="cls-1" x1="1017.87" y1="188.67" x2="1017.87" y2="196.55"/><line class="cls-1" x1="1017.87" y1="196.55" x2="1027.31" y2="197.8"/><line class="cls-1" x1="1063.89" y1="213.1" x2="1041.71" y2="253.7"/><line class="cls-1" x1="986.41" y1="148.36" x2="928.64" y2="148.36"/><line class="cls-1" x1="928.64" y1="148.36" x2="928.64" y2="170.25"/><line class="cls-1" x1="928.64" y1="170.25" x2="1036.7" y2="171.59"/><line class="cls-1" x1="1036.7" y1="171.59" x2="1036.87" y2="157.58"/><line class="cls-1" x1="1036.87" y1="157.58" x2="1028.83" y2="157.48"/><line class="cls-1" x1="1028.83" y1="157.48" x2="1024.03" y2="88.29"/><line class="cls-1" x1="1024.03" y1="88.29" x2="982.76" y2="90.02"/><line class="cls-1" x1="982.76" y1="90.02" x2="987.94" y2="170.98"/><line class="cls-1" x1="931.51" y1="93.28" x2="966.26" y2="89.63"/><line class="cls-1" x1="966.26" y1="89.63" x2="970.63" y2="131.28"/><line class="cls-1" x1="970.63" y1="131.28" x2="935.89" y2="134.92"/><line class="cls-1" x1="935.89" y1="134.92" x2="931.51" y2="93.28"/><line class="cls-1" x1="898.15" y1="21.66" x2="1010.09" y2="61.35"/><line class="cls-1" x1="1010.09" y1="61.35" x2="1013.04" y2="53.04"/><line class="cls-1" x1="1013.04" y1="53.04" x2="1030.11" y2="59.09"/><line class="cls-1" x1="1030.11" y1="59.09" x2="1044.34" y2="18.96"/><line class="cls-1" x1="1044.34" y1="18.96" x2="1034.88" y2="15.61"/><line class="cls-1" x1="1034.88" y1="15.61" x2="1040.21" y2=".57"/><line class="cls-1" x1="1040.21" y1=".57" x2="1038.76" y2=".06"/><line class="cls-1" x1="1018.24" y1=".06" x2="1017.8" y2="1.29"/><line class="cls-1" x1="1017.8" y1="1.29" x2="1014.33" y2=".06"/><line class="cls-1" x1="889.29" y1=".06" x2="889.74" y2=".86"/><line class="cls-1" x1="889.74" y1=".86" x2="894.92" y2="2.78"/><line class="cls-1" x1="894.92" y1="2.78" x2="891.69" y2="11.5"/><line class="cls-1" x1="891.69" y1="11.5" x2="900.63" y2="14.67"/><line class="cls-1" x1="900.63" y1="14.67" x2="898.15" y2="21.66"/><line class="cls-1" x1="972.06" y1=".06" x2="957" y2="42.53"/><line class="cls-1" x1="1046.67" y1="123.09" x2="1065.78" y2="123.09"/><line class="cls-1" x1="1065.78" y1="123.09" x2="1065.78" y2="112.73"/><line class="cls-1" x1="1065.78" y1="112.73" x2="1086.51" y2="112.73"/><line class="cls-1" x1="1086.51" y1="112.73" x2="1086.51" y2="97.53"/><line class="cls-1" x1="1086.51" y1="97.53" x2="1062.33" y2="87.85"/><line class="cls-1" x1="1062.33" y1="87.85" x2="1065.78" y2="72.88"/><line class="cls-1" x1="1065.78" y1="72.88" x2="1113.92" y2="60.22"/><line class="cls-1" x1="1113.92" y1="60.22" x2="1115.82" y2="109.25"/><line class="cls-1" x1="1115.82" y1="109.25" x2="1136.93" y2="108.43"/><line class="cls-1" x1="1136.93" y1="108.43" x2="1137.41" y2="120.8"/><line class="cls-1" x1="1137.41" y1="120.8" x2="1092.73" y2="120.8"/><line class="cls-1" x1="1092.73" y1="120.8" x2="1092.73" y2="153.5"/><line class="cls-1" x1="1092.73" y1="153.5" x2="1133.04" y2="153.5"/><line class="cls-1" x1="1133.04" y1="153.5" x2="1133.04" y2="132.86"/><line class="cls-1" x1="1133.04" y1="132.86" x2="1145.71" y2="132.86"/><line class="cls-1" x1="1145.71" y1="132.86" x2="1145.71" y2="136.91"/><line class="cls-1" x1="1145.71" y1="136.91" x2="1156.76" y2="136.91"/><line class="cls-1" x1="1156.76" y1="136.91" x2="1162.48" y2=".06"/><line class="cls-1" x1="1076.75" y1=".06" x2="1079.46" y2="1.02"/><line class="cls-1" x1="1079.46" y1="1.02" x2="1080.78" y2=".06"/><line class="cls-1" x1="1113.65" y1=".06" x2="1113.12" y2="39.61"/><line class="cls-1" x1="1113.12" y1="39.61" x2="1097.12" y2="43.25"/><line class="cls-1" x1="1097.12" y1="43.25" x2="1093.9" y2="39.37"/><line class="cls-1" x1="1093.9" y1="39.37" x2="1090.09" y2="36.06"/><line class="cls-1" x1="1090.09" y1="36.06" x2="1085.8" y2="33.42"/><line class="cls-1" x1="1085.8" y1="33.42" x2="1081.14" y2="31.5"/><line class="cls-1" x1="1081.14" y1="31.5" x2="1076.22" y2="30.37"/><line class="cls-1" x1="1076.22" y1="30.37" x2="1071.19" y2="30.05"/><line class="cls-1" x1="1071.19" y1="30.05" x2="1066.17" y2="30.56"/><line class="cls-1" x1="1066.17" y1="30.56" x2="1061.31" y2="31.86"/><line class="cls-1" x1="1061.31" y1="31.86" x2="1056.71" y2="33.95"/><line class="cls-1" x1="1056.71" y1="33.95" x2="1052.52" y2="36.75"/><line class="cls-1" x1="1052.52" y1="36.75" x2="1048.84" y2="40.19"/><line class="cls-1" x1="1048.84" y1="40.19" x2="1045.76" y2="44.18"/><line class="cls-1" x1="1045.76" y1="44.18" x2="1043.38" y2="48.62"/><line class="cls-1" x1="1043.38" y1="48.62" x2="1042.15" y2="54.04"/><line class="cls-1" x1="1042.15" y1="54.04" x2="1041.55" y2="59.56"/><line class="cls-1" x1="1041.55" y1="59.56" x2="1041.57" y2="65.11"/><line class="cls-1" x1="1041.57" y1="65.11" x2="1042.22" y2="70.62"/><line class="cls-1" x1="1042.22" y1="70.62" x2="1046.06" y2="71.43"/><line class="cls-1" x1="1046.06" y1="71.43" x2="1043.88" y2="81.72"/><line class="cls-1" x1="1043.88" y1="81.72" x2="1046.67" y2="123.09"/><line class="cls-1" x1="1023.23" y1="550.98" x2="1071.99" y2="522.46"/><line class="cls-1" x1="1071.99" y1="522.46" x2="1190.78" y2="561.89"/><line class="cls-1" x1="1023.23" y1="550.98" x2="1048.08" y2="593.45"/><line class="cls-1" x1="1048.08" y1="593.45" x2="1071.67" y2="579.65"/><line class="cls-1" x1="1071.67" y1="579.65" x2="1068.67" y2="574.53"/><line class="cls-1" x1="1068.67" y1="574.53" x2="1073.97" y2="571.43"/><line class="cls-1" x1="1073.97" y1="571.43" x2="1079.54" y2="573.28"/><line class="cls-1" x1="1079.54" y1="573.28" x2="1093.98" y2="529.76"/><line class="cls-1" x1="1079.54" y1="573.28" x2="1132.59" y2="590.89"/><line class="cls-1" x1="1132.59" y1="590.89" x2="1147.04" y2="547.37"/><line class="cls-1" x1="1132.59" y1="590.89" x2="1129.79" y2="599.33"/><line class="cls-1" x1="1129.79" y1="599.33" x2="1138.57" y2="608.11"/><line class="cls-1" x1="1138.57" y1="608.11" x2="1168.83" y2="617.64"/><line class="cls-1" x1="1168.83" y1="617.64" x2="1187.68" y2="560.86"/><line class="cls-1" x1="1063.36" y1="623.61" x2="1097.53" y2="685.3"/><line class="cls-1" x1="1097.53" y1="685.3" x2="1119.31" y2="673.24"/><line class="cls-1" x1="1119.31" y1="673.24" x2="1123.59" y2="669.5"/><line class="cls-1" x1="1123.59" y1="669.5" x2="1127.22" y2="665.14"/><line class="cls-1" x1="1127.22" y1="665.14" x2="1130.11" y2="660.24"/><line class="cls-1" x1="1130.11" y1="660.24" x2="1132.18" y2="654.96"/><line class="cls-1" x1="1132.18" y1="654.96" x2="1133.39" y2="649.4"/><line class="cls-1" x1="1133.39" y1="649.4" x2="1133.7" y2="643.73"/><line class="cls-1" x1="1133.7" y1="643.73" x2="1133.09" y2="638.08"/><line class="cls-1" x1="1133.09" y1="638.08" x2="1131.6" y2="632.6"/><line class="cls-1" x1="1131.6" y1="632.6" x2="1129.26" y2="627.43"/><line class="cls-1" x1="1129.26" y1="627.43" x2="1126.12" y2="622.7"/><line class="cls-1" x1="1126.12" y1="622.7" x2="1122.26" y2="618.52"/><line class="cls-1" x1="1122.26" y1="618.52" x2="1117.79" y2="615.01"/><line class="cls-1" x1="1117.79" y1="615.01" x2="1112.82" y2="612.26"/><line class="cls-1" x1="1112.82" y1="612.26" x2="1107.48" y2="610.34"/><line class="cls-1" x1="1107.48" y1="610.34" x2="1101.89" y2="609.29"/><line class="cls-1" x1="1101.89" y1="609.29" x2="1096.22" y2="609.14"/><line class="cls-1" x1="1096.22" y1="609.14" x2="1090.59" y2="609.9"/><line class="cls-1" x1="1090.59" y1="609.9" x2="1085.15" y2="611.55"/><line class="cls-1" x1="1085.15" y1="611.55" x2="1063.36" y2="623.61"/><line class="cls-1" x1="1110.1" y1="707.66" x2="1135.89" y2="755.34"/><line class="cls-1" x1="1135.89" y1="755.34" x2="1148.1" y2="762.25"/><line class="cls-1" x1="1148.1" y1="762.25" x2="1178.73" y2="714.8"/><line class="cls-1" x1="1178.73" y1="714.8" x2="1137.29" y2="688.04"/><line class="cls-1" x1="1137.29" y1="688.04" x2="1134.02" y2="694.72"/><line class="cls-1" x1="1134.02" y1="694.72" x2="1110.1" y2="707.66"/><line class="cls-1" x1="1139.06" y1="689.19" x2="1169.29" y2="639.49"/><line class="cls-1" x1="1169.29" y1="639.49" x2="1190.78" y2="652.55"/><line class="cls-1" x1="1190.78" y1="695.8" x2="1178.73" y2="714.8"/><line class="cls-1" x1="1172.37" y1="641.36" x2="1182.41" y2="624.85"/><line class="cls-1" x1="1182.41" y1="624.85" x2="1187.74" y2="627.81"/><line class="cls-1" x1="1187.74" y1="627.81" x2="1190.78" y2="622.35"/><line class="cls-1" x1="1190.78" y1="597.53" x2="1189.35" y2="596.95"/><line class="cls-1" x1="1189.35" y1="596.95" x2="1187.59" y2="601.27"/><line class="cls-1" x1="1187.59" y1="601.27" x2="1175.59" y2="597.29"/></svg>