<?xml version="1.0" encoding="UTF-8"?><svg id="Layer_2" xmlns="http://www.w3.org/2000/svg" viewBox="0 0 876.51 779.39"><defs><style>.cls-1{fill:none;stroke:#080504;stroke-linecap:round;stroke-linejoin:round;stroke-width:.25px;}.cls-2{fill:#27252f;fill-rule:evenodd;}</style></defs><g id="Layer_1-2"><polyline class="cls-2" points="322.11 361.59 342.71 337.65 369.02 352.04 349.67 383.1 322.11 361.59"/><line class="cls-1" x1="383.51" y1="285.44" x2="418.25" y2="328.1"/><line class="cls-1" x1="418.25" y1="328.1" x2="439.31" y2="310.96"/><line class="cls-1" x1="439.31" y1="310.96" x2="404.57" y2="268.29"/><line class="cls-1" x1="404.57" y1="268.29" x2="383.51" y2="285.44"/><line class="cls-1" x1="418.25" y1="328.1" x2="441.82" y2="357.06"/><line class="cls-1" x1="441.82" y1="357.06" x2="462.88" y2="339.91"/><line class="cls-1" x1="462.88" y1="339.91" x2="439.31" y2="310.96"/><line class="cls-1" x1="439.31" y1="310.96" x2="418.25" y2="328.1"/><line class="cls-1" x1="441.82" y1="357.06" x2="465.4" y2="386.01"/><line class="cls-1" x1="465.4" y1="386.01" x2="486.46" y2="368.87"/><line class="cls-1" x1="486.46" y1="368.87" x2="462.88" y2="339.91"/><line class="cls-1" x1="462.88" y1="339.91" x2="441.82" y2="357.06"/><line class="cls-1" x1="465.4" y1="386.01" x2="488.82" y2="414.78"/><line class="cls-1" x1="488.82" y1="414.78" x2="509.88" y2="397.62"/><line class="cls-1" x1="509.88" y1="397.62" x2="486.46" y2="368.87"/><line class="cls-1" x1="486.46" y1="368.87" x2="465.4" y2="386.01"/><line class="cls-1" x1="380.74" y1="502.78" x2="205.38" y2="430.49"/><line class="cls-1" x1="205.38" y1="430.49" x2="185.9" y2="446.35"/><line class="cls-1" x1="185.9" y1="446.35" x2="384.1" y2="528.07"/><line class="cls-1" x1="384.1" y1="528.07" x2="473.8" y2="455.03"/><line class="cls-1" x1="473.8" y1="455.03" x2="460.07" y2="438.18"/><line class="cls-1" x1="460.07" y1="438.18" x2="380.74" y2="502.78"/><line class="cls-1" x1="444.77" y1="450.65" x2="458.5" y2="467.49"/><line class="cls-1" x1="431.05" y1="461.82" x2="444.76" y2="478.66"/><line class="cls-1" x1="423.88" y1="467.65" x2="437.61" y2="484.5"/><line class="cls-1" x1="410.15" y1="478.84" x2="423.87" y2="495.68"/><line class="cls-1" x1="403" y1="484.66" x2="416.71" y2="501.51"/><line class="cls-1" x1="389.26" y1="495.84" x2="402.99" y2="512.69"/><line class="cls-1" x1="227.01" y1="439.4" x2="218.58" y2="459.84"/><line class="cls-1" x1="235.85" y1="443.06" x2="227.43" y2="463.47"/><line class="cls-1" x1="252.21" y1="449.81" x2="243.8" y2="470.22"/><line class="cls-1" x1="261.08" y1="453.47" x2="252.67" y2="473.88"/><line class="cls-1" x1="277.46" y1="460.21" x2="269.04" y2="480.64"/><line class="cls-1" x1="286.33" y1="463.87" x2="277.9" y2="484.29"/><line class="cls-1" x1="302.7" y1="470.62" x2="294.27" y2="491.04"/><line class="cls-1" x1="311.57" y1="474.28" x2="303.15" y2="494.7"/><line class="cls-1" x1="327.94" y1="481.01" x2="319.52" y2="501.45"/><line class="cls-1" x1="336.81" y1="484.68" x2="328.38" y2="505.1"/><line class="cls-1" x1="353.18" y1="491.43" x2="344.76" y2="511.85"/><line class="cls-1" x1="362.06" y1="495.08" x2="353.63" y2="515.51"/><line class="cls-1" x1="380.74" y1="502.78" x2="394.44" y2="519.64"/><line class="cls-1" x1="504.58" y1="236.22" x2="584.75" y2="333.12"/><line class="cls-1" x1="584.75" y1="333.12" x2="604.64" y2="316.65"/><line class="cls-1" x1="604.64" y1="316.65" x2="524.48" y2="219.76"/><line class="cls-1" x1="524.48" y1="219.76" x2="504.58" y2="236.22"/><line class="cls-1" x1="549.33" y1="456.56" x2="634.43" y2="386.72"/><line class="cls-1" x1="634.43" y1="386.72" x2="651.49" y2="407.5"/><line class="cls-1" x1="651.49" y1="407.5" x2="566.39" y2="477.34"/><line class="cls-1" x1="566.39" y1="477.34" x2="549.33" y2="456.56"/><line class="cls-1" x1="657.3" y1="456.41" x2="734.01" y2="549.37"/><line class="cls-1" x1="734.01" y1="549.37" x2="755.24" y2="531.85"/><line class="cls-1" x1="755.24" y1="531.85" x2="678.51" y2="438.9"/><line class="cls-1" x1="678.51" y1="438.9" x2="657.3" y2="456.41"/><line class="cls-1" x1="391.26" y1="90.6" x2="481.54" y2="199.74"/><line class="cls-1" x1="481.54" y1="199.74" x2="501.29" y2="183.4"/><line class="cls-1" x1="501.29" y1="183.4" x2="411.01" y2="74.26"/><line class="cls-1" x1="411.01" y1="74.26" x2="415.15" y2="70.82"/><line class="cls-1" x1="415.15" y1="70.82" x2="402.3" y2="55.28"/><line class="cls-1" x1="402.3" y1="55.28" x2="354.49" y2="94.82"/><line class="cls-1" x1="354.49" y1="94.82" x2="367.35" y2="110.38"/><line class="cls-1" x1="367.35" y1="110.38" x2="391.26" y2="90.6"/><line class="cls-1" x1="228.73" y1="101.63" x2="352.07" y2=".12"/><line class="cls-1" x1="352.07" y1=".12" x2="367.88" y2="19.32"/><line class="cls-1" x1="367.88" y1="19.32" x2="244.54" y2="120.83"/><line class="cls-1" x1="244.54" y1="120.83" x2="228.73" y2="101.63"/><line class="cls-1" x1="247.15" y1="201.4" x2="261.18" y2="219.57"/><line class="cls-1" x1="261.18" y1="219.57" x2="316.04" y2="177.24"/><line class="cls-1" x1="316.04" y1="177.24" x2="337.04" y2="204.46"/><line class="cls-1" x1="337.04" y1="204.46" x2="322.21" y2="215.9"/><line class="cls-1" x1="322.21" y1="215.9" x2="335.67" y2="233.34"/><line class="cls-1" x1="335.67" y1="233.34" x2="378.4" y2="200.35"/><line class="cls-1" x1="378.4" y1="200.35" x2="364.94" y2="182.91"/><line class="cls-1" x1="364.94" y1="182.91" x2="367.44" y2="180.99"/><line class="cls-1" x1="367.44" y1="180.99" x2="355.06" y2="164.94"/><line class="cls-1" x1="355.06" y1="164.94" x2="339.75" y2="176.76"/><line class="cls-1" x1="339.75" y1="176.76" x2="346.17" y2="185.07"/><line class="cls-1" x1="346.17" y1="185.07" x2="340.69" y2="189.3"/><line class="cls-1" x1="340.69" y1="189.3" x2="320.18" y2="162.72"/><line class="cls-1" x1="320.18" y1="162.72" x2="326.92" y2="157.52"/><line class="cls-1" x1="326.92" y1="157.52" x2="314.96" y2="142.04"/><line class="cls-1" x1="314.96" y1="142.04" x2="298.61" y2="154.65"/><line class="cls-1" x1="298.61" y1="154.65" x2="302.01" y2="159.05"/><line class="cls-1" x1="302.01" y1="159.05" x2="247.15" y2="201.4"/><line class="cls-1" x1="138.14" y1="392.12" x2="171.65" y2="406"/><line class="cls-1" x1="171.65" y1="406" x2="178.29" y2="389.99"/><line class="cls-1" x1="178.29" y1="389.99" x2="160.42" y2="382.59"/><line class="cls-1" x1="160.42" y1="382.59" x2="163.18" y2="375.9"/><line class="cls-1" x1="163.18" y1="375.9" x2="167.55" y2="377.71"/><line class="cls-1" x1="167.55" y1="377.71" x2="208.86" y2="277.97"/><line class="cls-1" x1="208.86" y1="277.97" x2="176.3" y2="264.49"/><line class="cls-1" x1="176.3" y1="264.49" x2="134.99" y2="364.22"/><line class="cls-1" x1="134.99" y1="364.22" x2="138.45" y2="365.65"/><line class="cls-1" x1="138.45" y1="365.65" x2="135.68" y2="372.34"/><line class="cls-1" x1="135.68" y1="372.34" x2="64.9" y2="343.01"/><line class="cls-1" x1="64.9" y1="343.01" x2="67.65" y2="336.34"/><line class="cls-1" x1="67.65" y1="336.34" x2="71.32" y2="337.85"/><line class="cls-1" x1="71.32" y1="337.85" x2="112.62" y2="238.12"/><line class="cls-1" x1="112.62" y1="238.12" x2="78.9" y2="224.15"/><line class="cls-1" x1="78.9" y1="224.15" x2="37.59" y2="323.88"/><line class="cls-1" x1="37.59" y1="323.88" x2="42.92" y2="326.09"/><line class="cls-1" x1="42.92" y1="326.09" x2="40.15" y2="332.78"/><line class="cls-1" x1="40.15" y1="332.78" x2="6.76" y2="318.94"/><line class="cls-1" x1="6.76" y1="318.94" x2=".12" y2="334.96"/><line class="cls-1" x1=".12" y1="334.96" x2="24.45" y2="345.03"/><line class="cls-1" x1="24.45" y1="345.03" x2="21.22" y2="352.84"/><line class="cls-1" x1="21.22" y1="352.84" x2="16.04" y2="350.71"/><line class="cls-1" x1="16.04" y1="350.71" x2=".81" y2="387.49"/><line class="cls-1" x1=".81" y1="387.49" x2="23.43" y2="396.85"/><line class="cls-1" x1="23.43" y1="396.85" x2="38.65" y2="360.07"/><line class="cls-1" x1="38.65" y1="360.07" x2="34.45" y2="358.32"/><line class="cls-1" x1="34.45" y1="358.32" x2="37.69" y2="350.51"/><line class="cls-1" x1="37.69" y1="350.51" x2="75.35" y2="366.12"/><line class="cls-1" x1="75.35" y1="366.12" x2="72.12" y2="373.93"/><line class="cls-1" x1="72.12" y1="373.93" x2="66.93" y2="371.78"/><line class="cls-1" x1="66.93" y1="371.78" x2="51.71" y2="408.56"/><line class="cls-1" x1="51.71" y1="408.56" x2="74.32" y2="417.94"/><line class="cls-1" x1="74.32" y1="417.94" x2="89.55" y2="381.15"/><line class="cls-1" x1="89.55" y1="381.15" x2="85.35" y2="379.4"/><line class="cls-1" x1="85.35" y1="379.4" x2="88.58" y2="371.59"/><line class="cls-1" x1="88.58" y1="371.59" x2="124.9" y2="386.63"/><line class="cls-1" x1="124.9" y1="386.63" x2="121.67" y2="394.44"/><line class="cls-1" x1="121.67" y1="394.44" x2="116.49" y2="392.31"/><line class="cls-1" x1="116.49" y1="392.31" x2="101.26" y2="429.09"/><line class="cls-1" x1="101.26" y1="429.09" x2="123.88" y2="438.46"/><line class="cls-1" x1="123.88" y1="438.46" x2="139.11" y2="401.68"/><line class="cls-1" x1="139.11" y1="401.68" x2="134.9" y2="399.94"/><line class="cls-1" x1="134.9" y1="399.94" x2="138.14" y2="392.12"/><line class="cls-1" x1="120.37" y1="270.9" x2="105.05" y2="307.87"/><line class="cls-1" x1="105.05" y1="307.87" x2="131.82" y2="318.94"/><line class="cls-1" x1="131.82" y1="318.94" x2="147.12" y2="282"/><line class="cls-1" x1="147.12" y1="282" x2="120.37" y2="270.9"/><line class="cls-1" x1="312.46" y1="530.14" x2="338.68" y2="540.77"/><line class="cls-1" x1="338.68" y1="540.77" x2="333.08" y2="554.54"/><line class="cls-1" x1="333.08" y1="554.54" x2="306.88" y2="543.93"/><line class="cls-1" x1="306.88" y1="543.93" x2="312.46" y2="530.14"/><line class="cls-1" x1="365.04" y1="557.26" x2="368.12" y2="564.39"/><line class="cls-1" x1="368.12" y1="564.39" x2="377.24" y2="560.44"/><line class="cls-1" x1="377.24" y1="560.44" x2="374.14" y2="553.32"/><line class="cls-1" x1="374.14" y1="553.32" x2="365.04" y2="557.26"/><line class="cls-1" x1="428.13" y1="548.72" x2="422.68" y2="562.01"/><line class="cls-1" x1="422.68" y1="562.01" x2="445.86" y2="571.53"/><line class="cls-1" x1="445.86" y1="571.53" x2="451.31" y2="558.25"/><line class="cls-1" x1="451.31" y1="558.25" x2="428.13" y2="548.72"/><line class="cls-1" x1="393.56" y1="648.78" x2="407.29" y2="655.93"/><line class="cls-1" x1="407.29" y1="655.93" x2="411.65" y2="647.52"/><line class="cls-1" x1="411.65" y1="647.52" x2="397.93" y2="640.39"/><line class="cls-1" x1="397.93" y1="640.39" x2="393.56" y2="648.78"/><line class="cls-1" x1="450.67" y1="534.43" x2="481.15" y2="572.78"/><line class="cls-1" x1="481.15" y1="572.78" x2="536.23" y2="529.01"/><line class="cls-1" x1="536.23" y1="529.01" x2="505.74" y2="490.65"/><line class="cls-1" x1="505.74" y1="490.65" x2="450.67" y2="534.43"/><line class="cls-1" x1="549.55" y1="137.96" x2="686.76" y2="23.38"/><line class="cls-1" x1="686.76" y1="23.38" x2="704.37" y2="44.44"/><line class="cls-1" x1="704.37" y1="44.44" x2="567.14" y2="159.04"/><line class="cls-1" x1="567.14" y1="159.04" x2="549.55" y2="137.96"/><line class="cls-1" x1="630.48" y1="234.87" x2="774.98" y2="114.21"/><line class="cls-1" x1="774.98" y1="114.21" x2="792.57" y2="135.27"/><line class="cls-1" x1="792.57" y1="135.27" x2="648.07" y2="255.96"/><line class="cls-1" x1="648.07" y1="255.96" x2="630.48" y2="234.87"/><line class="cls-1" x1="708.7" y1="328.54" x2="858.79" y2="203.21"/><line class="cls-1" x1="858.79" y1="203.21" x2="876.39" y2="224.28"/><line class="cls-1" x1="876.39" y1="224.28" x2="726.31" y2="349.62"/><line class="cls-1" x1="726.31" y1="349.62" x2="708.7" y2="328.54"/><line class="cls-1" x1="839.39" y1="463.56" x2="761.93" y2="368.4"/><line class="cls-1" x1="761.93" y1="368.4" x2="782.54" y2="351.62"/><line class="cls-1" x1="782.54" y1="351.62" x2="860" y2="446.78"/><line class="cls-1" x1="860" y1="446.78" x2="839.39" y2="463.56"/><line class="cls-1" x1="50.89" y1="512.09" x2="2.11" y2="589.57"/><line class="cls-1" x1="2.11" y1="589.57" x2="23.26" y2="602.88"/><line class="cls-1" x1="23.26" y1="602.88" x2="21.03" y2="607.35"/><line class="cls-1" x1="21.03" y1="607.35" x2="19.62" y2="612.15"/><line class="cls-1" x1="19.62" y1="612.15" x2="19.07" y2="617.13"/><line class="cls-1" x1="19.07" y1="617.13" x2="19.42" y2="622.12"/><line class="cls-1" x1="19.42" y1="622.12" x2="20.64" y2="626.96"/><line class="cls-1" x1="20.64" y1="626.96" x2="22.71" y2="631.52"/><line class="cls-1" x1="22.71" y1="631.52" x2="25.54" y2="635.64"/><line class="cls-1" x1="25.54" y1="635.64" x2="29.06" y2="639.2"/><line class="cls-1" x1="29.06" y1="639.2" x2="33.15" y2="642.08"/><line class="cls-1" x1="33.15" y1="642.08" x2="7.15" y2="683.38"/><line class="cls-1" x1="7.15" y1="683.38" x2="76.12" y2="726.81"/><line class="cls-1" x1="76.12" y1="726.81" x2="176.3" y2="567.7"/><line class="cls-1" x1="176.3" y1="567.7" x2="141.24" y2="545.62"/><line class="cls-1" x1="141.24" y1="545.62" x2="137.7" y2="551.24"/><line class="cls-1" x1="137.7" y1="551.24" x2="106.27" y2="531.45"/><line class="cls-1" x1="106.27" y1="531.45" x2="102.83" y2="536.9"/><line class="cls-1" x1="102.83" y1="536.9" x2="97.39" y2="533.47"/><line class="cls-1" x1="97.39" y1="533.47" x2="93.83" y2="539.14"/><line class="cls-1" x1="93.83" y1="539.14" x2="50.89" y2="512.09"/><line class="cls-1" x1="194.24" y1="589.87" x2="254.02" y2="639.34"/><line class="cls-1" x1="254.02" y1="639.34" x2="267.24" y2="623.35"/><line class="cls-1" x1="267.24" y1="623.35" x2="207.46" y2="573.89"/><line class="cls-1" x1="207.46" y1="573.89" x2="194.24" y2="589.87"/><line class="cls-1" x1="292.2" y1="620.08" x2="407.08" y2="714.39"/><line class="cls-1" x1="407.08" y1="714.39" x2="353.82" y2="779.26"/><line class="cls-1" x1="353.82" y1="779.26" x2="308.07" y2="741.7"/><line class="cls-1" x1="308.07" y1="741.7" x2="296.71" y2="755.52"/><line class="cls-1" x1="296.71" y1="755.52" x2="227.6" y2="698.78"/><line class="cls-1" x1="227.6" y1="698.78" x2="292.2" y2="620.08"/><line class="cls-1" x1="476.57" y1="725.03" x2="500.88" y2="743.76"/><line class="cls-1" x1="500.88" y1="743.76" x2="513.07" y2="727.95"/><line class="cls-1" x1="513.07" y1="727.95" x2="488.76" y2="709.22"/><line class="cls-1" x1="488.76" y1="709.22" x2="476.57" y2="725.03"/><line class="cls-1" x1="509.25" y1="699.14" x2="521.19" y2="683.2"/><line class="cls-1" x1="521.19" y1="683.2" x2="532.67" y2="691.79"/><line class="cls-1" x1="532.67" y1="691.79" x2="534.37" y2="689.52"/><line class="cls-1" x1="534.37" y1="689.52" x2="554.83" y2="704.89"/><line class="cls-1" x1="554.83" y1="704.89" x2="544.01" y2="719.33"/><line class="cls-1" x1="544.01" y1="719.33" x2="537.01" y2="714.08"/><line class="cls-1" x1="537.01" y1="714.08" x2="531" y2="722.1"/><line class="cls-1" x1="531" y1="722.1" x2="521.71" y2="715.14"/><line class="cls-1" x1="521.71" y1="715.14" x2="528" y2="706.77"/><line class="cls-1" x1="528" y1="706.77" x2="522.6" y2="702.71"/><line class="cls-1" x1="522.6" y1="702.71" x2="519.51" y2="706.83"/><line class="cls-1" x1="519.51" y1="706.83" x2="509.25" y2="699.14"/></g></svg>