<?xml version="1.0" encoding="UTF-8"?><svg id="Layer_1" xmlns="http://www.w3.org/2000/svg" xmlns:xlink="http://www.w3.org/1999/xlink" viewBox="0 0 1127 841.89"><defs><style>.cls-1,.cls-2,.cls-3,.cls-4,.cls-5,.cls-6,.cls-7{fill:none;}.cls-8{fill:#fff;font-family:ArialMT, Arial;font-size:4px;}.cls-2,.cls-3{stroke-width:.03px;}.cls-2,.cls-3,.cls-4,.cls-6,.cls-7{stroke-linecap:round;stroke-linejoin:round;}.cls-2,.cls-4,.cls-6,.cls-7{stroke:#000;}.cls-9{clip-path:url(#clippath);}.cls-3{stroke:#807f7f;}.cls-4{stroke-width:1.13px;}.cls-5{clip-rule:evenodd;}.cls-10{clip-path:url(#clippath-1);}.cls-6{stroke-width:.26px;}.cls-7{stroke-width:.51px;}</style><clipPath id="clippath"><rect class="cls-1" x="-15.78" width="1190.55" height="841.89"/></clipPath><clipPath id="clippath-1"><polyline class="cls-5" points="-16.78 -1 1176.23 -1 1176.23 843 -16.78 843 -16.78 -1"/></clipPath></defs><g class="cls-9"><text class="cls-8" transform="translate(-1.1 842)"><tspan x="0" y="0">s</tspan></text><text class="cls-8" transform="translate(.9 842)"><tspan x="0" y="0">h</tspan></text><text class="cls-8" transform="translate(3.12 842)"><tspan x="0" y="0">e</tspan></text><text class="cls-8" transform="translate(5.35 842)"><tspan x="0" y="0">r</tspan></text><text class="cls-8" transform="translate(6.68 842)"><tspan x="0" y="0">V</tspan></text><text class="cls-8" transform="translate(9.13 842)"><tspan x="0" y="0">e</tspan></text><text class="cls-8" transform="translate(11.35 842)"><tspan x="0" y="0">r</tspan></text><text class="cls-8" transform="translate(12.68 842)"><tspan x="0" y="0">s</tspan></text><text class="cls-8" transform="translate(14.68 842)"><tspan x="0" y="0">i</tspan></text><text class="cls-8" transform="translate(15.57 842)"><tspan x="0" y="0">o</tspan></text><text class="cls-8" transform="translate(17.8 842)"><tspan x="0" y="0">n</tspan></text><text class="cls-8" transform="translate(20.02 842)"><tspan x="0" y="0"> </tspan></text><text class="cls-8" transform="translate(21.13 842)"><tspan x="0" y="0">1</tspan></text><text class="cls-8" transform="translate(23.06 842)"><tspan x="0" y="0">1</tspan></text><text class="cls-8" transform="translate(24.99 842)"><tspan x="0" y="0">1</tspan></text><text class="cls-8" transform="translate(27.21 842)"><tspan x="0" y="0">5</tspan></text><text class="cls-8" transform="translate(29.44 842)"><tspan x="0" y="0">.</tspan></text><text class="cls-8" transform="translate(30.55 842)"><tspan x="0" y="0">7</tspan></text><text class="cls-8" transform="translate(32.77 842)"><tspan x="0" y="0">6</tspan></text><text class="cls-8" transform="translate(35 842)"><tspan x="0" y="0">.</tspan></text><text class="cls-8" transform="translate(36.11 842)"><tspan x="0" y="0">8</tspan></text><text class="cls-8" transform="translate(38.33 842)"><tspan x="0" y="0">2</tspan></text><text class="cls-8" transform="translate(40.56 842)"><tspan x="0" y="0">.</tspan></text><text class="cls-8" transform="translate(41.67 842)"><tspan x="0" y="0">1</tspan></text><text class="cls-8" transform="translate(43.9 842)"><tspan x="0" y="0">0</tspan></text><text class="cls-8" transform="translate(46.12 842)"><tspan x="0" y="0">0</tspan></text><g class="cls-10"><line class="cls-3" x1="508.26" y1="306.96" x2="581.05" y2="305.84"/><line class="cls-3" x1="508.3" y1="309.92" x2="581.09" y2="308.79"/><line class="cls-3" x1="508.35" y1="312.87" x2="581.14" y2="311.75"/><line class="cls-3" x1="508.4" y1="315.83" x2="581.19" y2="314.7"/><line class="cls-3" x1="508.44" y1="318.78" x2="581.23" y2="317.66"/><line class="cls-3" x1="508.49" y1="321.74" x2="581.28" y2="320.61"/><line class="cls-3" x1="508.53" y1="324.69" x2="581.32" y2="323.57"/><line class="cls-3" x1="508.58" y1="327.65" x2="581.37" y2="326.53"/><line class="cls-3" x1="508.62" y1="330.61" x2="581.41" y2="329.48"/><line class="cls-3" x1="508.67" y1="333.56" x2="581.46" y2="332.44"/><line class="cls-3" x1="508.71" y1="336.52" x2="581.51" y2="335.39"/><line class="cls-3" x1="508.76" y1="339.47" x2="581.55" y2="338.35"/><line class="cls-3" x1="508.81" y1="342.43" x2="581.6" y2="341.31"/><line class="cls-3" x1="508.85" y1="345.39" x2="581.64" y2="344.26"/><line class="cls-3" x1="508.9" y1="348.34" x2="581.69" y2="347.22"/><line class="cls-3" x1="508.94" y1="351.3" x2="581.74" y2="350.17"/><line class="cls-3" x1="508.99" y1="354.25" x2="581.78" y2="353.13"/><line class="cls-3" x1="509.03" y1="357.21" x2="581.83" y2="356.08"/><line class="cls-3" x1="509.08" y1="360.16" x2="581.87" y2="359.04"/><line class="cls-3" x1="509.13" y1="363.12" x2="581.92" y2="362"/><line class="cls-3" x1="509.17" y1="366.08" x2="581.96" y2="364.95"/><line class="cls-3" x1="509.22" y1="369.03" x2="582.01" y2="367.91"/><line class="cls-3" x1="509.26" y1="371.99" x2="582.06" y2="370.86"/><line class="cls-3" x1="509.31" y1="374.94" x2="582.1" y2="373.82"/><line class="cls-3" x1="509.36" y1="377.9" x2="582.15" y2="376.77"/><line class="cls-3" x1="509.4" y1="380.85" x2="582.19" y2="379.73"/><line class="cls-3" x1="509.45" y1="383.81" x2="582.24" y2="382.69"/><line class="cls-3" x1="486.89" y1="387.11" x2="505.89" y2="386.82"/><line class="cls-3" x1="486.93" y1="390.07" x2="505.93" y2="389.78"/><line class="cls-3" x1="486.98" y1="393.02" x2="582.37" y2="391.55"/><line class="cls-3" x1="487.03" y1="395.98" x2="582.42" y2="394.51"/><line class="cls-3" x1="487.07" y1="398.94" x2="582.46" y2="397.46"/><line class="cls-3" x1="487.12" y1="401.89" x2="582.51" y2="400.42"/><line class="cls-3" x1="487.16" y1="404.85" x2="582.56" y2="403.38"/><line class="cls-3" x1="487.21" y1="407.8" x2="582.6" y2="406.33"/><line class="cls-3" x1="487.25" y1="410.76" x2="582.65" y2="409.29"/><line class="cls-3" x1="487.3" y1="413.72" x2="582.69" y2="412.24"/><line class="cls-3" x1="487.34" y1="416.67" x2="582.74" y2="415.2"/><line class="cls-3" x1="487.39" y1="419.63" x2="582.78" y2="418.15"/><line class="cls-3" x1="487.43" y1="422.58" x2="582.83" y2="421.11"/><line class="cls-3" x1="487.48" y1="425.54" x2="582.87" y2="424.07"/><line class="cls-3" x1="487.53" y1="428.49" x2="582.92" y2="427.02"/><line class="cls-3" x1="487.57" y1="431.45" x2="582.97" y2="429.98"/><line class="cls-3" x1="487.62" y1="434.41" x2="583.01" y2="432.93"/><line class="cls-3" x1="487.66" y1="437.36" x2="583.06" y2="435.89"/><line class="cls-3" x1="487.71" y1="440.32" x2="583.1" y2="438.85"/><line class="cls-3" x1="487.76" y1="443.27" x2="583.15" y2="441.8"/><line class="cls-3" x1="487.8" y1="446.23" x2="583.2" y2="444.76"/><line class="cls-3" x1="487.85" y1="449.18" x2="583.24" y2="447.71"/><line class="cls-3" x1="487.89" y1="452.14" x2="583.29" y2="450.67"/><line class="cls-3" x1="487.94" y1="455.1" x2="583.33" y2="453.62"/><line class="cls-3" x1="487.98" y1="458.05" x2="583.38" y2="456.58"/><line class="cls-3" x1="509.49" y1="386.77" x2="582.28" y2="385.64"/><line class="cls-3" x1="509.54" y1="389.72" x2="582.33" y2="388.6"/><line class="cls-4" x1="2.82" y1="503.84" x2="26.61" y2="728.67"/><line class="cls-4" x1="26.61" y1="728.67" x2="374.75" y2="689.88"/><line class="cls-4" x1="374.75" y1="689.88" x2="370.64" y2="652.68"/><line class="cls-4" x1="370.64" y1="652.68" x2="436.2" y2="652.77"/><line class="cls-4" x1="436.2" y1="652.77" x2="436.2" y2="642.86"/><line class="cls-4" x1="436.2" y1="642.86" x2="366.51" y2="642.86"/><line class="cls-4" x1="366.51" y1="642.86" x2="362.48" y2="574.22"/><line class="cls-4" x1="362.48" y1="574.22" x2="263.19" y2="583.37"/><line class="cls-4" x1="263.19" y1="583.37" x2="252.09" y2="483.8"/><line class="cls-4" x1="252.09" y1="483.8" x2="342.78" y2="473.27"/><line class="cls-4" x1="342.78" y1="473.27" x2="351.17" y2="547.18"/><line class="cls-6" x1="485.63" y1="305.98" x2="488.03" y2="461.1"/><line class="cls-6" x1="488.03" y1="461.1" x2="482.38" y2="461.19"/><line class="cls-6" x1="482.38" y1="461.19" x2="479.89" y2="300.25"/><line class="cls-6" x1="479.89" y1="300.25" x2="485.55" y2="300.16"/><line class="cls-2" x1="504.64" y1="306.48" x2="485.65" y2="306.8"/><line class="cls-2" x1="504.73" y1="311.66" x2="485.73" y2="311.98"/><line class="cls-2" x1="504.83" y1="317.18" x2="485.81" y2="317.51"/><line class="cls-2" x1="504.92" y1="322.71" x2="485.9" y2="323.03"/><line class="cls-2" x1="505.02" y1="328.24" x2="485.98" y2="328.56"/><line class="cls-2" x1="505.11" y1="333.76" x2="486.07" y2="334.09"/><line class="cls-2" x1="505.2" y1="339.29" x2="486.16" y2="339.61"/><line class="cls-2" x1="505.3" y1="344.82" x2="486.24" y2="345.14"/><line class="cls-2" x1="498.96" y1="350.45" x2="486.33" y2="350.67"/><line class="cls-2" x1="492.63" y1="356.09" x2="486.2" y2="356.2"/><line class="cls-2" x1="505.58" y1="361.39" x2="486.5" y2="361.72"/><line class="cls-2" x1="505.67" y1="366.92" x2="486.58" y2="367.24"/><line class="cls-2" x1="505.77" y1="372.44" x2="486.67" y2="372.77"/><line class="cls-2" x1="505.86" y1="377.97" x2="486.75" y2="378.3"/><line class="cls-2" x1="505.96" y1="383.5" x2="486.84" y2="383.82"/><line class="cls-2" x1="505.49" y1="355.87" x2="492.63" y2="356.09"/><line class="cls-2" x1="505.39" y1="350.34" x2="498.96" y2="350.45"/><line class="cls-4" x1="359.95" y1="471.38" x2="361.99" y2="545.52"/><line class="cls-4" x1="361.99" y1="545.52" x2="351.17" y2="547.18"/><line class="cls-2" x1="475.91" y1="257.39" x2="478.59" y2="257.35"/><line class="cls-2" x1="478.59" y1="257.35" x2="478.59" y2="257.55"/><line class="cls-2" x1="478.59" y1="257.55" x2="477.62" y2="257.56"/><line class="cls-2" x1="477.62" y1="257.56" x2="477.41" y2="257.65"/><line class="cls-2" x1="477.41" y1="257.65" x2="477.32" y2="257.86"/><line class="cls-2" x1="477.32" y1="257.86" x2="477.39" y2="262.22"/><line class="cls-2" x1="477.39" y1="262.22" x2="477.48" y2="262.43"/><line class="cls-2" x1="477.48" y1="262.43" x2="477.69" y2="262.51"/><line class="cls-2" x1="477.69" y1="262.51" x2="478.67" y2="262.5"/><line class="cls-2" x1="478.67" y1="262.5" x2="478.67" y2="262.7"/><line class="cls-2" x1="478.67" y1="262.7" x2="475.99" y2="262.74"/><line class="cls-2" x1="475.99" y1="262.74" x2="475.99" y2="262.54"/><line class="cls-2" x1="475.99" y1="262.54" x2="476.97" y2="262.52"/><line class="cls-2" x1="476.97" y1="262.52" x2="477.18" y2="262.43"/><line class="cls-2" x1="477.18" y1="262.43" x2="477.26" y2="262.22"/><line class="cls-2" x1="477.26" y1="262.22" x2="477.19" y2="257.87"/><line class="cls-2" x1="477.19" y1="257.87" x2="477.1" y2="257.66"/><line class="cls-2" x1="477.1" y1="257.66" x2="476.89" y2="257.57"/><line class="cls-2" x1="476.89" y1="257.57" x2="475.91" y2="257.59"/><line class="cls-2" x1="475.91" y1="257.59" x2="475.91" y2="257.39"/><line class="cls-2" x1="585.93" y1="255.69" x2="588.61" y2="255.65"/><line class="cls-2" x1="588.61" y1="255.65" x2="588.61" y2="255.85"/><line class="cls-2" x1="588.61" y1="255.85" x2="587.63" y2="255.86"/><line class="cls-2" x1="587.63" y1="255.86" x2="587.43" y2="255.96"/><line class="cls-2" x1="587.43" y1="255.96" x2="587.34" y2="256.17"/><line class="cls-2" x1="587.34" y1="256.17" x2="587.41" y2="260.52"/><line class="cls-2" x1="587.41" y1="260.52" x2="587.5" y2="260.73"/><line class="cls-2" x1="587.5" y1="260.73" x2="587.71" y2="260.81"/><line class="cls-2" x1="587.71" y1="260.81" x2="588.69" y2="260.8"/><line class="cls-2" x1="588.69" y1="260.8" x2="588.69" y2="261"/><line class="cls-2" x1="588.69" y1="261" x2="586.01" y2="261.04"/><line class="cls-2" x1="586.01" y1="261.04" x2="586.01" y2="260.84"/><line class="cls-2" x1="586.01" y1="260.84" x2="586.98" y2="260.83"/><line class="cls-2" x1="586.98" y1="260.83" x2="587.19" y2="260.74"/><line class="cls-2" x1="587.19" y1="260.74" x2="587.28" y2="260.52"/><line class="cls-2" x1="587.28" y1="260.52" x2="587.21" y2="256.17"/><line class="cls-2" x1="587.21" y1="256.17" x2="587.12" y2="255.96"/><line class="cls-2" x1="587.12" y1="255.96" x2="586.91" y2="255.88"/><line class="cls-2" x1="586.91" y1="255.88" x2="585.93" y2="255.89"/><line class="cls-2" x1="585.93" y1="255.89" x2="585.93" y2="255.69"/><line class="cls-2" x1="689.59" y1="254.07" x2="692.26" y2="254.05"/><line class="cls-2" x1="692.26" y1="254.05" x2="692.26" y2="254.25"/><line class="cls-2" x1="692.26" y1="254.25" x2="691.29" y2="254.26"/><line class="cls-2" x1="691.29" y1="254.26" x2="691.08" y2="254.35"/><line class="cls-2" x1="691.08" y1="254.35" x2="690.99" y2="254.56"/><line class="cls-2" x1="690.99" y1="254.56" x2="691.03" y2="258.91"/><line class="cls-2" x1="691.03" y1="258.91" x2="691.12" y2="259.12"/><line class="cls-2" x1="691.12" y1="259.12" x2="691.33" y2="259.21"/><line class="cls-2" x1="691.33" y1="259.21" x2="692.31" y2="259.2"/><line class="cls-2" x1="692.31" y1="259.2" x2="692.31" y2="259.4"/><line class="cls-2" x1="692.31" y1="259.4" x2="689.63" y2="259.43"/><line class="cls-2" x1="689.63" y1="259.43" x2="689.63" y2="259.22"/><line class="cls-2" x1="689.63" y1="259.22" x2="690.61" y2="259.22"/><line class="cls-2" x1="690.61" y1="259.22" x2="690.82" y2="259.13"/><line class="cls-2" x1="690.82" y1="259.13" x2="690.9" y2="258.91"/><line class="cls-2" x1="690.9" y1="258.91" x2="690.86" y2="254.56"/><line class="cls-2" x1="690.86" y1="254.56" x2="690.77" y2="254.35"/><line class="cls-2" x1="690.77" y1="254.35" x2="690.56" y2="254.26"/><line class="cls-2" x1="690.56" y1="254.26" x2="689.59" y2="254.27"/><line class="cls-2" x1="689.59" y1="254.27" x2="689.59" y2="254.07"/><line class="cls-2" x1="692.62" y1="448.1" x2="695.3" y2="448.06"/><line class="cls-2" x1="695.3" y1="448.06" x2="695.3" y2="448.26"/><line class="cls-2" x1="695.3" y1="448.26" x2="694.32" y2="448.28"/><line class="cls-2" x1="694.32" y1="448.28" x2="694.12" y2="448.37"/><line class="cls-2" x1="694.12" y1="448.37" x2="694.03" y2="448.58"/><line class="cls-2" x1="694.03" y1="448.58" x2="694.1" y2="452.93"/><line class="cls-2" x1="694.1" y1="452.93" x2="694.19" y2="453.14"/><line class="cls-2" x1="694.19" y1="453.14" x2="694.4" y2="453.23"/><line class="cls-2" x1="694.4" y1="453.23" x2="695.38" y2="453.21"/><line class="cls-2" x1="695.38" y1="453.21" x2="695.38" y2="453.42"/><line class="cls-2" x1="695.38" y1="453.42" x2="692.71" y2="453.46"/><line class="cls-2" x1="692.71" y1="453.46" x2="692.7" y2="453.25"/><line class="cls-2" x1="692.7" y1="453.25" x2="693.68" y2="453.24"/><line class="cls-2" x1="693.68" y1="453.24" x2="693.89" y2="453.15"/><line class="cls-2" x1="693.89" y1="453.15" x2="693.97" y2="452.94"/><line class="cls-2" x1="693.97" y1="452.94" x2="693.9" y2="448.58"/><line class="cls-2" x1="693.9" y1="448.58" x2="693.81" y2="448.37"/><line class="cls-2" x1="693.81" y1="448.37" x2="693.6" y2="448.29"/><line class="cls-2" x1="693.6" y1="448.29" x2="692.62" y2="448.31"/><line class="cls-2" x1="692.62" y1="448.31" x2="692.62" y2="448.1"/><line class="cls-2" x1="589.37" y1="448.21" x2="592.05" y2="448.18"/><line class="cls-2" x1="592.05" y1="448.18" x2="592.05" y2="448.39"/><line class="cls-2" x1="592.05" y1="448.39" x2="591.08" y2="448.4"/><line class="cls-2" x1="591.08" y1="448.4" x2="590.87" y2="448.49"/><line class="cls-2" x1="590.87" y1="448.49" x2="590.78" y2="448.7"/><line class="cls-2" x1="590.78" y1="448.7" x2="590.82" y2="453.05"/><line class="cls-2" x1="590.82" y1="453.05" x2="590.91" y2="453.26"/><line class="cls-2" x1="590.91" y1="453.26" x2="591.12" y2="453.35"/><line class="cls-2" x1="591.12" y1="453.35" x2="592.1" y2="453.34"/><line class="cls-2" x1="592.1" y1="453.34" x2="592.1" y2="453.54"/><line class="cls-2" x1="592.1" y1="453.54" x2="589.42" y2="453.56"/><line class="cls-2" x1="589.42" y1="453.56" x2="589.42" y2="453.36"/><line class="cls-2" x1="589.42" y1="453.36" x2="590.4" y2="453.35"/><line class="cls-2" x1="590.4" y1="453.35" x2="590.6" y2="453.26"/><line class="cls-2" x1="590.6" y1="453.26" x2="590.69" y2="453.05"/><line class="cls-2" x1="590.69" y1="453.05" x2="590.65" y2="448.7"/><line class="cls-2" x1="590.65" y1="448.7" x2="590.56" y2="448.49"/><line class="cls-2" x1="590.56" y1="448.49" x2="590.35" y2="448.4"/><line class="cls-2" x1="590.35" y1="448.4" x2="589.37" y2="448.41"/><line class="cls-2" x1="589.37" y1="448.41" x2="589.37" y2="448.21"/><line class="cls-2" x1="479.23" y1="449.93" x2="481.91" y2="449.9"/><line class="cls-2" x1="481.91" y1="449.9" x2="481.91" y2="450.1"/><line class="cls-2" x1="481.91" y1="450.1" x2="480.94" y2="450.11"/><line class="cls-2" x1="480.94" y1="450.11" x2="480.73" y2="450.2"/><line class="cls-2" x1="480.73" y1="450.2" x2="480.64" y2="450.41"/><line class="cls-2" x1="480.64" y1="450.41" x2="480.68" y2="454.77"/><line class="cls-2" x1="480.68" y1="454.77" x2="480.77" y2="454.98"/><line class="cls-2" x1="480.77" y1="454.98" x2="480.98" y2="455.06"/><line class="cls-2" x1="480.98" y1="455.06" x2="481.96" y2="455.05"/><line class="cls-2" x1="481.96" y1="455.05" x2="481.96" y2="455.26"/><line class="cls-2" x1="481.96" y1="455.26" x2="479.28" y2="455.28"/><line class="cls-2" x1="479.28" y1="455.28" x2="479.28" y2="455.08"/><line class="cls-2" x1="479.28" y1="455.08" x2="480.26" y2="455.07"/><line class="cls-2" x1="480.26" y1="455.07" x2="480.47" y2="454.98"/><line class="cls-2" x1="480.47" y1="454.98" x2="480.55" y2="454.77"/><line class="cls-2" x1="480.55" y1="454.77" x2="480.51" y2="450.41"/><line class="cls-2" x1="480.51" y1="450.41" x2="480.42" y2="450.2"/><line class="cls-2" x1="480.42" y1="450.2" x2="480.21" y2="450.12"/><line class="cls-2" x1="480.21" y1="450.12" x2="479.24" y2="450.13"/><line class="cls-2" x1="479.24" y1="450.13" x2="479.23" y2="449.93"/><line class="cls-2" x1="353.33" y1="452.3" x2="356" y2="452.23"/><line class="cls-2" x1="356" y1="452.23" x2="356.01" y2="452.43"/><line class="cls-2" x1="356.01" y1="452.43" x2="355.03" y2="452.46"/><line class="cls-2" x1="355.03" y1="452.46" x2="354.83" y2="452.55"/><line class="cls-2" x1="354.83" y1="452.55" x2="354.74" y2="452.76"/><line class="cls-2" x1="354.74" y1="452.76" x2="354.86" y2="457.11"/><line class="cls-2" x1="354.86" y1="457.11" x2="354.96" y2="457.32"/><line class="cls-2" x1="354.96" y1="457.32" x2="355.17" y2="457.4"/><line class="cls-2" x1="355.17" y1="457.4" x2="356.15" y2="457.38"/><line class="cls-2" x1="356.15" y1="457.38" x2="356.15" y2="457.58"/><line class="cls-2" x1="356.15" y1="457.58" x2="353.47" y2="457.65"/><line class="cls-2" x1="353.47" y1="457.65" x2="353.47" y2="457.45"/><line class="cls-2" x1="353.47" y1="457.45" x2="354.44" y2="457.42"/><line class="cls-2" x1="354.44" y1="457.42" x2="354.65" y2="457.33"/><line class="cls-2" x1="354.65" y1="457.33" x2="354.73" y2="457.12"/><line class="cls-2" x1="354.73" y1="457.12" x2="354.61" y2="452.76"/><line class="cls-2" x1="354.61" y1="452.76" x2="354.52" y2="452.55"/><line class="cls-2" x1="354.52" y1="452.55" x2="354.31" y2="452.48"/><line class="cls-2" x1="354.31" y1="452.48" x2="353.33" y2="452.5"/><line class="cls-2" x1="353.33" y1="452.5" x2="353.33" y2="452.3"/><line class="cls-2" x1="546.89" y1="620.79" x2="577.13" y2="620.79"/><line class="cls-2" x1="522.11" y1="639.7" x2="522.11" y2="620.78"/><line class="cls-2" x1="516.56" y1="639.7" x2="516.56" y2="620.78"/><line class="cls-2" x1="511" y1="639.69" x2="511" y2="625.6"/><line class="cls-2" x1="505.45" y1="639.69" x2="505.45" y2="635.06"/><line class="cls-2" x1="499.89" y1="639.69" x2="499.89" y2="620.78"/><line class="cls-2" x1="522.11" y1="620.78" x2="522.11" y2="603.33"/><line class="cls-2" x1="516.56" y1="620.78" x2="516.56" y2="603.33"/><line class="cls-2" x1="511" y1="620.78" x2="511" y2="603.33"/><line class="cls-2" x1="505.45" y1="620.78" x2="505.45" y2="603.33"/><line class="cls-2" x1="499.89" y1="620.78" x2="499.89" y2="603.33"/><line class="cls-2" x1="482.84" y1="603.33" x2="544.33" y2="603.33"/><line class="cls-2" x1="511" y1="625.6" x2="511" y2="620.78"/><line class="cls-2" x1="505.45" y1="635.06" x2="505.45" y2="620.78"/><line class="cls-4" x1="13.49" y1="510.42" x2="243.23" y2="484.82"/><line class="cls-4" x1="243.23" y1="484.82" x2="266.32" y2="692.08"/><line class="cls-4" x1="266.32" y1="692.08" x2="35.43" y2="717.8"/><line class="cls-4" x1="263.59" y1="586.92" x2="275.19" y2="691.09"/><line class="cls-4" x1="275.19" y1="691.09" x2="359.85" y2="681.66"/><line class="cls-4" x1="359.85" y1="681.66" x2="353.92" y2="578.59"/><line class="cls-4" x1="353.92" y1="578.59" x2="263.59" y2="586.92"/><line class="cls-7" x1="362.48" y1="574.22" x2="362.16" y2="570.66"/><line class="cls-7" x1="362.16" y1="570.66" x2="266.94" y2="579.44"/><line class="cls-7" x1="266.94" y1="579.44" x2="256.85" y2="488.84"/><line class="cls-7" x1="256.85" y1="488.84" x2="307.94" y2="482.91"/><line class="cls-7" x1="307.94" y1="482.91" x2="314.39" y2="539.65"/><line class="cls-7" x1="314.39" y1="539.65" x2="316.75" y2="539.38"/><line class="cls-7" x1="316.75" y1="539.38" x2="309.95" y2="479.48"/><line class="cls-7" x1="309.95" y1="479.48" x2="338.75" y2="476.13"/><line class="cls-7" x1="338.75" y1="476.13" x2="345.5" y2="532.33"/><line class="cls-7" x1="345.5" y1="532.33" x2="332.08" y2="533.71"/><line class="cls-7" x1="332.08" y1="533.71" x2="332.28" y2="535.69"/><line class="cls-7" x1="332.28" y1="535.69" x2="348.48" y2="534.01"/><line class="cls-7" x1="348.48" y1="534.01" x2="350.18" y2="548.98"/><line class="cls-7" x1="350.18" y1="548.98" x2="374.24" y2="547.25"/><line class="cls-7" x1="374.24" y1="547.25" x2="373.86" y2="533.12"/><line class="cls-7" x1="373.86" y1="533.12" x2="361.67" y2="533.44"/><line class="cls-4" x1="464.3" y1="642.99" x2="464.36" y2="652.81"/><line class="cls-4" x1="464.36" y1="652.81" x2="496.23" y2="652.86"/><line class="cls-4" x1="496.23" y1="652.86" x2="496.24" y2="643"/><line class="cls-4" x1="496.24" y1="643" x2="464.3" y2="642.99"/><line class="cls-4" x1="359.95" y1="471.38" x2="402.03" y2="470.74"/><line class="cls-4" x1="402.03" y1="470.74" x2="401.88" y2="462.43"/><line class="cls-4" x1="401.88" y1="462.43" x2="359.72" y2="463.08"/><line class="cls-4" x1="461.75" y1="461.5" x2="502.96" y2="460.87"/><line class="cls-4" x1="502.96" y1="460.87" x2="503.09" y2="469.17"/><line class="cls-4" x1="503.09" y1="469.17" x2="461.87" y2="469.81"/><line class="cls-4" x1="461.87" y1="469.81" x2="461.75" y2="461.5"/><line class="cls-4" x1="588.55" y1="468.47" x2="588.05" y2="493.73"/><line class="cls-4" x1="588.05" y1="493.73" x2="584.22" y2="493.73"/><line class="cls-4" x1="584.22" y1="493.73" x2="584.22" y2="496.21"/><line class="cls-4" x1="584.22" y1="496.21" x2="579.27" y2="496.21"/><line class="cls-4" x1="579.27" y1="496.21" x2="579.26" y2="491.25"/><line class="cls-4" x1="579.26" y1="491.25" x2="579.78" y2="491.25"/><line class="cls-4" x1="579.78" y1="491.25" x2="580.23" y2="467.99"/><line class="cls-4" x1="580.23" y1="467.99" x2="562.89" y2="468.26"/><line class="cls-4" x1="562.89" y1="468.26" x2="562.81" y2="459.94"/><line class="cls-4" x1="562.81" y1="459.94" x2="588.72" y2="459.54"/><line class="cls-4" x1="468.57" y1="491.25" x2="473.53" y2="491.25"/><line class="cls-4" x1="473.53" y1="491.25" x2="473.54" y2="496.21"/><line class="cls-4" x1="473.54" y1="496.21" x2="468.58" y2="496.21"/><line class="cls-4" x1="468.58" y1="496.21" x2="468.57" y2="491.25"/><line class="cls-4" x1="468.57" y1="568.6" x2="473.53" y2="568.6"/><line class="cls-4" x1="473.53" y1="568.6" x2="473.54" y2="573.56"/><line class="cls-4" x1="473.54" y1="573.56" x2="468.58" y2="573.56"/><line class="cls-4" x1="468.58" y1="573.56" x2="468.57" y2="568.6"/><line class="cls-4" x1="578.63" y1="568.6" x2="583.59" y2="568.6"/><line class="cls-4" x1="583.59" y1="568.6" x2="583.6" y2="573.56"/><line class="cls-4" x1="583.6" y1="573.56" x2="578.64" y2="573.56"/><line class="cls-4" x1="578.64" y1="573.56" x2="578.63" y2="568.6"/><line class="cls-2" x1="527.66" y1="620.78" x2="527.66" y2="603.33"/><line class="cls-2" x1="533.22" y1="620.78" x2="533.22" y2="603.33"/><line class="cls-2" x1="538.77" y1="620.78" x2="538.77" y2="603.33"/><line class="cls-2" x1="544.33" y1="620.78" x2="544.33" y2="603.33"/><line class="cls-2" x1="546.89" y1="620.79" x2="499.89" y2="620.79"/><line class="cls-7" x1="360.01" y1="474.96" x2="402.07" y2="474.49"/><line class="cls-7" x1="402.07" y1="474.49" x2="402.03" y2="470.74"/><line class="cls-7" x1="461.87" y1="469.81" x2="461.93" y2="473.82"/><line class="cls-7" x1="461.93" y1="473.82" x2="503.14" y2="473.36"/><line class="cls-7" x1="503.14" y1="473.36" x2="503.09" y2="469.17"/><line class="cls-7" x1="562.89" y1="468.26" x2="562.97" y2="472.69"/><line class="cls-7" x1="562.97" y1="472.69" x2="580.14" y2="472.5"/><line class="cls-4" x1="588.42" y1="468.47" x2="604.14" y2="468.3"/><line class="cls-4" x1="604.14" y1="468.3" x2="604.04" y2="459.31"/><line class="cls-4" x1="604.04" y1="459.31" x2="588.72" y2="459.54"/><line class="cls-4" x1="694.12" y1="457.92" x2="663.91" y2="458.42"/><line class="cls-4" x1="663.91" y1="458.42" x2="663.98" y2="467.63"/><line class="cls-4" x1="663.98" y1="467.63" x2="691.57" y2="467.32"/><line class="cls-4" x1="691.57" y1="467.32" x2="691.48" y2="509.97"/><line class="cls-4" x1="691.48" y1="509.97" x2="696.04" y2="509.98"/><line class="cls-4" x1="696.04" y1="509.98" x2="696.27" y2="457.93"/><line class="cls-4" x1="696.27" y1="457.93" x2="694.12" y2="457.92"/><line class="cls-4" x1="695.74" y1="577.46" x2="695.86" y2="549.68"/><line class="cls-4" x1="695.86" y1="549.68" x2="691.67" y2="549.65"/><line class="cls-4" x1="691.67" y1="549.65" x2="691.45" y2="577.42"/><line class="cls-4" x1="691.45" y1="577.42" x2="695.74" y2="577.46"/><line class="cls-4" x1="695.25" y1="609.17" x2="695.42" y2="593.3"/><line class="cls-4" x1="695.42" y1="593.3" x2="691.46" y2="593.27"/><line class="cls-4" x1="691.46" y1="593.27" x2="691.28" y2="609.14"/><line class="cls-4" x1="691.28" y1="609.14" x2="695.25" y2="609.17"/><line class="cls-4" x1="694.99" y1="631" x2="691.04" y2="631"/><line class="cls-4" x1="691.04" y1="631" x2="690.82" y2="651.54"/><line class="cls-4" x1="690.82" y1="651.54" x2="668.83" y2="651.35"/><line class="cls-4" x1="668.83" y1="651.35" x2="668.83" y2="653.22"/><line class="cls-4" x1="668.83" y1="653.22" x2="694.76" y2="653.36"/><line class="cls-4" x1="694.76" y1="653.36" x2="694.99" y2="631"/><line class="cls-6" x1="485.55" y1="300.16" x2="586.59" y2="298.57"/><line class="cls-6" x1="586.59" y1="298.57" x2="589.08" y2="459.55"/><line class="cls-6" x1="583.42" y1="459.62" x2="581.03" y2="304.51"/><line class="cls-6" x1="581.03" y1="304.51" x2="508.24" y2="305.63"/><line class="cls-6" x1="508.24" y1="305.63" x2="509.54" y2="389.76"/><line class="cls-6" x1="509.54" y1="389.76" x2="505.93" y2="389.81"/><line class="cls-6" x1="505.93" y1="389.81" x2="504.63" y2="305.69"/><line class="cls-6" x1="504.63" y1="305.69" x2="485.63" y2="305.98"/><line class="cls-2" x1="496.4" y1="383.66" x2="494.29" y2="381.56"/><line class="cls-2" x1="496.4" y1="383.66" x2="498.43" y2="381.48"/><line class="cls-2" x1="350.79" y1="463.62" x2="350.75" y2="256.72"/><line class="cls-2" x1="350.75" y1="256.72" x2="694.82" y2="251.41"/><line class="cls-2" x1="694.82" y1="251.41" x2="698.05" y2="457.86"/><line class="cls-2" x1="352.34" y1="463.62" x2="352.34" y2="258.3"/><line class="cls-2" x1="352.34" y1="258.3" x2="693.24" y2="253.04"/><line class="cls-2" x1="693.24" y1="253.04" x2="696.45" y2="457.88"/><line class="cls-7" x1="696.27" y1="457.88" x2="698.05" y2="457.86"/><line class="cls-7" x1="698.05" y1="457.86" x2="698.05" y2="509.98"/><line class="cls-7" x1="698.05" y1="509.98" x2="696.04" y2="509.98"/><line class="cls-2" x1="461.93" y1="473.82" x2="402.07" y2="474.49"/><line class="cls-6" x1="461.87" y1="469.81" x2="402.01" y2="470.74"/><line class="cls-2" x1="464.95" y1="461.45" x2="401.88" y2="462.43"/><line class="cls-2" x1="562.97" y1="472.69" x2="503.11" y2="473.36"/><line class="cls-6" x1="562.96" y1="468.25" x2="503.09" y2="469.17"/><line class="cls-2" x1="566.03" y1="459.89" x2="502.96" y2="460.87"/><line class="cls-2" x1="664.02" y1="471.56" x2="604.16" y2="472.23"/><line class="cls-6" x1="663.98" y1="467.63" x2="604.16" y2="468.3"/><line class="cls-2" x1="663.91" y1="458.42" x2="600.84" y2="459.39"/><line class="cls-7" x1="588.47" y1="472.41" x2="604.16" y2="472.23"/><line class="cls-7" x1="604.16" y1="472.23" x2="604.16" y2="468.3"/><line class="cls-7" x1="663.98" y1="467.63" x2="664.01" y2="471.56"/><line class="cls-7" x1="664.01" y1="471.56" x2="689.64" y2="471.27"/><line class="cls-7" x1="689.64" y1="471.27" x2="689.64" y2="509.97"/><line class="cls-7" x1="689.64" y1="509.97" x2="691.48" y2="509.97"/><line class="cls-7" x1="691.45" y1="577.42" x2="689.52" y2="577.42"/><line class="cls-7" x1="689.52" y1="577.42" x2="689.52" y2="549.64"/><line class="cls-7" x1="689.52" y1="549.64" x2="691.67" y2="549.65"/><line class="cls-7" x1="691.46" y1="593.27" x2="689.32" y2="593.25"/><line class="cls-7" x1="689.32" y1="593.25" x2="689.19" y2="609.13"/><line class="cls-7" x1="689.19" y1="609.13" x2="691.28" y2="609.14"/><line class="cls-7" x1="691.24" y1="631" x2="688.53" y2="630.98"/><line class="cls-7" x1="688.53" y1="630.98" x2="688.46" y2="649.14"/><line class="cls-7" x1="688.46" y1="649.14" x2="668.84" y2="649.07"/><line class="cls-7" x1="668.84" y1="649.07" x2="668.83" y2="651.49"/><line class="cls-7" x1="669.55" y1="649.07" x2="669.55" y2="635.62"/><line class="cls-7" x1="669.55" y1="635.62" x2="670.74" y2="635.62"/><line class="cls-7" x1="670.74" y1="635.62" x2="670.74" y2="649.08"/><line class="cls-2" x1="669.55" y1="635.62" x2="628.2" y2="635.62"/><line class="cls-7" x1="627.01" y1="649.07" x2="627.01" y2="635.62"/><line class="cls-7" x1="627.01" y1="635.62" x2="628.2" y2="635.62"/><line class="cls-7" x1="628.2" y1="635.62" x2="628.2" y2="649.07"/><line class="cls-6" x1="627.01" y1="635.62" x2="583.08" y2="635.62"/><line class="cls-7" x1="628.2" y1="652.97" x2="628.2" y2="654.3"/><line class="cls-7" x1="628.2" y1="654.3" x2="577.38" y2="654.13"/><line class="cls-7" x1="577.38" y1="654.13" x2="554.8" y2="654.13"/><line class="cls-7" x1="554.8" y1="654.13" x2="554.8" y2="652.89"/><line class="cls-7" x1="668.83" y1="654.41" x2="696.44" y2="654.56"/><line class="cls-7" x1="696.44" y1="654.56" x2="696.62" y2="631.02"/><line class="cls-7" x1="696.62" y1="631.02" x2="695.01" y2="631"/><line class="cls-7" x1="668.83" y1="653.34" x2="668.83" y2="653.56"/><line class="cls-7" x1="668.83" y1="653.56" x2="668.83" y2="654.41"/><line class="cls-7" x1="366.29" y1="639.03" x2="436.2" y2="639.45"/><line class="cls-7" x1="436.2" y1="639.45" x2="436.2" y2="642.86"/><line class="cls-7" x1="464.3" y1="642.99" x2="464.3" y2="639.45"/><line class="cls-7" x1="464.3" y1="639.45" x2="480.84" y2="639.46"/><line class="cls-7" x1="468.58" y1="600.12" x2="482.84" y2="600.12"/><line class="cls-7" x1="482.84" y1="600.12" x2="482.83" y2="639.46"/><line class="cls-7" x1="468.58" y1="600.12" x2="468.58" y2="602.1"/><line class="cls-7" x1="468.58" y1="602.1" x2="480.85" y2="602.1"/><line class="cls-7" x1="480.85" y1="602.1" x2="480.84" y2="639.46"/><line class="cls-6" x1="436.2" y1="642.86" x2="464.3" y2="642.99"/><line class="cls-2" x1="436.2" y1="639.45" x2="464.3" y2="639.45"/><line class="cls-2" x1="436.2" y1="652.77" x2="464.36" y2="652.81"/><line class="cls-4" x1="628.2" y1="652.97" x2="554.8" y2="652.89"/><line class="cls-4" x1="554.8" y1="652.89" x2="554.81" y2="650.96"/><line class="cls-4" x1="554.81" y1="650.96" x2="628.2" y2="650.96"/><line class="cls-4" x1="628.2" y1="650.96" x2="628.2" y2="652.97"/><line class="cls-6" x1="688.51" y1="635.62" x2="670.74" y2="635.62"/><line class="cls-7" x1="628.2" y1="650.96" x2="628.2" y2="649.07"/><line class="cls-7" x1="628.2" y1="649.07" x2="575.52" y2="649.07"/><line class="cls-7" x1="575.52" y1="649.07" x2="554.81" y2="649.07"/><line class="cls-7" x1="554.81" y1="649.07" x2="554.81" y2="650.96"/><line class="cls-7" x1="489.59" y1="643" x2="489.58" y2="643"/><line class="cls-7" x1="583.01" y1="649.1" x2="583.29" y2="600.12"/><line class="cls-7" x1="583.29" y1="600.12" x2="577.21" y2="600.12"/><line class="cls-7" x1="577.21" y1="600.12" x2="577.06" y2="639.71"/><line class="cls-7" x1="577.06" y1="639.71" x2="556.74" y2="639.68"/><line class="cls-7" x1="556.74" y1="639.68" x2="556.74" y2="649.07"/><line class="cls-6" x1="496.23" y1="650.67" x2="554.81" y2="650.96"/><line class="cls-2" x1="496.23" y1="639.68" x2="556.74" y2="639.68"/><line class="cls-2" x1="496.23" y1="653.91" x2="554.8" y2="654.13"/><line class="cls-7" x1="496.23" y1="652.86" x2="496.23" y2="653.91"/><line class="cls-7" x1="496.23" y1="653.91" x2="473.3" y2="653.91"/><line class="cls-7" x1="473.3" y1="653.91" x2="473.3" y2="652.82"/><line class="cls-7" x1="482.83" y1="639.46" x2="496.23" y2="639.46"/><line class="cls-7" x1="496.23" y1="639.46" x2="496.23" y2="643"/><line class="cls-6" x1="628.2" y1="650.96" x2="668.83" y2="651.35"/><line class="cls-6" x1="691.28" y1="609.14" x2="691.04" y2="631"/><line class="cls-6" x1="691.46" y1="593.27" x2="691.45" y2="577.42"/><line class="cls-6" x1="691.48" y1="509.97" x2="691.67" y2="549.65"/><line class="cls-2" x1="628.2" y1="654.3" x2="668.83" y2="654.41"/><line class="cls-2" x1="689.19" y1="609.13" x2="689.19" y2="630.98"/><line class="cls-2" x1="696.79" y1="609.19" x2="696.62" y2="631.02"/><line class="cls-7" x1="695.25" y1="609.17" x2="696.79" y2="609.19"/><line class="cls-7" x1="696.79" y1="609.19" x2="696.91" y2="593.31"/><line class="cls-7" x1="696.91" y1="593.31" x2="695.42" y2="593.3"/><line class="cls-2" x1="696.91" y1="593.31" x2="697.04" y2="577.47"/><line class="cls-2" x1="689.52" y1="577.42" x2="689.32" y2="593.25"/><line class="cls-7" x1="695.86" y1="549.68" x2="697.25" y2="549.69"/><line class="cls-7" x1="697.25" y1="549.69" x2="697.04" y2="577.47"/><line class="cls-7" x1="697.04" y1="577.47" x2="695.74" y2="577.46"/><line class="cls-2" x1="689.64" y1="509.97" x2="689.64" y2="549.64"/><line class="cls-2" x1="697.25" y1="509.97" x2="697.25" y2="549.64"/><line class="cls-3" x1="332.28" y1="535.69" x2="316.52" y2="537.32"/><line class="cls-3" x1="332.08" y1="533.71" x2="316.31" y2="535.34"/><line class="cls-4" x1="2.85" y1="504.11" x2="252.07" y2="474.91"/><line class="cls-4" x1="252.07" y1="474.91" x2="341.78" y2="464.4"/><line class="cls-4" x1="341.78" y1="464.4" x2="359.62" y2="463.08"/><line class="cls-2" x1="244.94" y1="475.35" x2="232.38" y2="14.04"/><line class="cls-2" x1="232.38" y1="14.04" x2="345.6" y2="10.96"/><line class="cls-2" x1="345.6" y1="10.96" x2="352.34" y2="256.7"/><line class="cls-2" x1="374.53" y1="687.89" x2="384.97" y2="782.13"/><line class="cls-2" x1="384.97" y1="782.13" x2="36.23" y2="819.64"/><line class="cls-2" x1="36.23" y1="819.64" x2="2.82" y2="503.84"/><line class="cls-2" x1="2.82" y1="503.84" x2="35.89" y2="500.24"/><line class="cls-4" x1="35.43" y1="717.8" x2="13.49" y2="510.42"/></g></g></svg>