<?xml version="1.0" encoding="UTF-8"?><svg id="Layer_1" xmlns="http://www.w3.org/2000/svg" xmlns:xlink="http://www.w3.org/1999/xlink" viewBox="0 0 944.14 841.89"><defs><style>.cls-1,.cls-2,.cls-3,.cls-4{fill:none;}.cls-5{clip-path:url(#clippath);}.cls-2{stroke-width:1.13px;}.cls-2,.cls-4{stroke:#000;stroke-linecap:round;stroke-linejoin:round;}.cls-3{clip-rule:evenodd;}.cls-6{clip-path:url(#clippath-1);}.cls-4{stroke-width:.26px;}.cls-7{fill-rule:evenodd;}</style><clipPath id="clippath"><rect class="cls-1" x="-204.78" width="1190.55" height="841.89"/></clipPath><clipPath id="clippath-1"><polyline class="cls-3" points="-205.78 -1 987.22 -1 987.22 843 -205.78 843 -205.78 -1"/></clipPath></defs><g class="cls-5"><g class="cls-6"><polyline class="cls-7" points="387.87 350.7 431.72 362.8 425.28 386.12 421.41 400.14 377.56 388.04 387.87 350.7"/><line class="cls-2" x1="387.87" y1="350.7" x2="377.56" y2="388.04"/><line class="cls-2" x1="377.56" y1="388.04" x2="421.41" y2="400.14"/><line class="cls-2" x1="421.41" y1="400.14" x2="425.28" y2="386.12"/><line class="cls-2" x1="425.28" y1="386.12" x2="431.72" y2="362.8"/><line class="cls-2" x1="431.72" y1="362.8" x2="387.87" y2="350.7"/><polyline class="cls-7" points="422.98 400.77 421.41 400.14 425.28 386.12 486.42 408.04 481.5 421.75 422.98 400.77"/><line class="cls-2" x1="422.98" y1="400.77" x2="481.5" y2="421.75"/><line class="cls-2" x1="481.5" y1="421.75" x2="486.42" y2="408.04"/><line class="cls-2" x1="486.42" y1="408.04" x2="425.28" y2="386.12"/><line class="cls-2" x1="425.28" y1="386.12" x2="421.41" y2="400.14"/><line class="cls-2" x1="421.41" y1="400.14" x2="422.98" y2="400.77"/><polyline class="cls-7" points="422.98 400.77 415.95 418.24 436.99 426.7 431.54 440.25 410.5 431.79 404.77 446.05 379.39 435.84 396.5 393.27 421.41 400.14 422.98 400.77"/><line class="cls-2" x1="422.98" y1="400.77" x2="421.41" y2="400.14"/><line class="cls-2" x1="421.41" y1="400.14" x2="396.5" y2="393.27"/><line class="cls-2" x1="396.5" y1="393.27" x2="379.39" y2="435.84"/><line class="cls-2" x1="379.39" y1="435.84" x2="404.77" y2="446.05"/><line class="cls-2" x1="404.77" y1="446.05" x2="410.5" y2="431.79"/><line class="cls-2" x1="410.5" y1="431.79" x2="431.54" y2="440.25"/><line class="cls-2" x1="431.54" y1="440.25" x2="436.99" y2="426.7"/><line class="cls-2" x1="436.99" y1="426.7" x2="415.95" y2="418.24"/><line class="cls-2" x1="415.95" y1="418.24" x2="422.98" y2="400.77"/><line class="cls-4" x1="390.62" y1="340.74" x2="434.47" y2="352.84"/><line class="cls-4" x1="434.47" y1="352.84" x2="421.41" y2="400.14"/><line class="cls-4" x1="421.41" y1="400.14" x2="377.56" y2="388.04"/><line class="cls-4" x1="377.56" y1="388.04" x2="390.62" y2="340.74"/><line class="cls-4" x1="396.5" y1="393.27" x2="379.39" y2="435.84"/><line class="cls-4" x1="379.39" y1="435.84" x2="404.77" y2="446.05"/><line class="cls-4" x1="404.77" y1="446.05" x2="410.5" y2="431.79"/><line class="cls-4" x1="410.5" y1="431.79" x2="431.54" y2="440.25"/><line class="cls-4" x1="431.54" y1="440.25" x2="436.99" y2="426.7"/><line class="cls-4" x1="436.99" y1="426.7" x2="415.95" y2="418.24"/><line class="cls-4" x1="415.95" y1="418.24" x2="422.98" y2="400.77"/><line class="cls-4" x1="422.98" y1="400.77" x2="421.41" y2="400.14"/><line class="cls-4" x1="425.28" y1="386.12" x2="486.42" y2="408.04"/><line class="cls-4" x1="486.42" y1="408.04" x2="481.5" y2="421.75"/><line class="cls-4" x1="481.5" y1="421.75" x2="422.98" y2="400.77"/><line class="cls-4" x1="521.26" y1="438.49" x2="509.01" y2="470.03"/><line class="cls-4" x1="509.01" y1="470.03" x2="575.56" y2="495.88"/><line class="cls-4" x1="575.56" y1="495.88" x2="587.81" y2="464.34"/><line class="cls-4" x1="587.81" y1="464.34" x2="521.26" y2="438.49"/><line class="cls-4" x1="545.19" y1="447.79" x2="558.27" y2="452.87"/><line class="cls-4" x1="558.27" y1="452.87" x2="562.18" y2="442.82"/><line class="cls-4" x1="562.18" y1="442.82" x2="549.09" y2="437.74"/><line class="cls-4" x1="549.09" y1="437.74" x2="545.19" y2="447.79"/><line class="cls-4" x1="488.6" y1="408.58" x2="482.87" y2="424.58"/><line class="cls-4" x1="482.87" y1="424.58" x2="490.39" y2="427.28"/><line class="cls-4" x1="490.39" y1="427.28" x2="496.13" y2="411.28"/><line class="cls-4" x1="496.13" y1="411.28" x2="488.6" y2="408.58"/><line class="cls-4" x1="354.52" y1="554.08" x2="338.58" y2="588.52"/><line class="cls-4" x1="338.58" y1="588.52" x2="380.01" y2="607.7"/><line class="cls-4" x1="380.01" y1="607.7" x2="395.96" y2="573.26"/><line class="cls-4" x1="395.96" y1="573.26" x2="354.52" y2="554.08"/><line class="cls-4" x1="118.38" y1="580.75" x2="138.22" y2="554.29"/><line class="cls-4" x1="138.22" y1="554.29" x2="169.25" y2="577.57"/><line class="cls-4" x1="169.25" y1="577.57" x2="149.41" y2="604.02"/><line class="cls-4" x1="149.41" y1="604.02" x2="118.38" y2="580.75"/><line class="cls-4" x1="375.77" y1="450.34" x2="431.26" y2="471.6"/><line class="cls-4" x1="431.26" y1="471.6" x2="426.69" y2="483.51"/><line class="cls-4" x1="426.69" y1="483.51" x2="435.03" y2="486.71"/><line class="cls-4" x1="435.03" y1="486.71" x2="426.17" y2="509.84"/><line class="cls-4" x1="426.17" y1="509.84" x2="362.34" y2="485.38"/><line class="cls-4" x1="362.34" y1="485.38" x2="375.77" y2="450.34"/><line class="cls-4" x1="419.28" y1="348.65" x2="430.71" y2="307.28"/><line class="cls-4" x1="430.71" y1="307.28" x2="465.42" y2="316.86"/><line class="cls-4" x1="465.42" y1="316.86" x2="460.42" y2="334.95"/><line class="cls-4" x1="460.42" y1="334.95" x2="453.24" y2="332.96"/><line class="cls-4" x1="453.24" y1="332.96" x2="446.81" y2="356.25"/><line class="cls-4" x1="446.81" y1="356.25" x2="434.47" y2="352.84"/><line class="cls-4" x1="430.71" y1="307.28" x2="437.36" y2="283.18"/><line class="cls-4" x1="437.36" y1="283.18" x2="400.11" y2="270.57"/><line class="cls-4" x1="400.11" y1="270.57" x2="405.72" y2="249.75"/><line class="cls-4" x1="405.72" y1="249.75" x2="456.37" y2="266.14"/><line class="cls-4" x1="456.37" y1="266.14" x2="452.23" y2="281.93"/><line class="cls-4" x1="452.23" y1="281.93" x2="459.57" y2="283.86"/><line class="cls-4" x1="459.57" y1="283.86" x2="451.52" y2="313.02"/><line class="cls-4" x1="412.62" y1="230.59" x2="424.84" y2="232.19"/><line class="cls-4" x1="424.84" y1="232.19" x2="422.51" y2="250.12"/><line class="cls-4" x1="422.51" y1="250.12" x2="410.28" y2="248.53"/><line class="cls-4" x1="410.28" y1="248.53" x2="412.62" y2="230.59"/><line class="cls-4" x1="456.2" y1="226.34" x2="447.88" y2="257.7"/><line class="cls-4" x1="447.88" y1="257.7" x2="456.81" y2="260.07"/><line class="cls-4" x1="456.81" y1="260.07" x2="465.14" y2="228.71"/><line class="cls-4" x1="465.14" y1="228.71" x2="456.2" y2="226.34"/><line class="cls-4" x1="331.32" y1="317.1" x2="360.02" y2="326.67"/><line class="cls-4" x1="360.02" y1="326.67" x2="380.84" y2="264.22"/><line class="cls-4" x1="380.84" y1="264.22" x2="352.14" y2="254.65"/><line class="cls-4" x1="352.14" y1="254.65" x2="331.32" y2="317.1"/><line class="cls-4" x1="380.84" y1="264.22" x2="392.14" y2="230.3"/><line class="cls-4" x1="392.14" y1="230.3" x2="371.68" y2="223.48"/><line class="cls-4" x1="371.68" y1="223.48" x2="362.04" y2="226.18"/><line class="cls-4" x1="362.04" y1="226.18" x2="352.14" y2="254.65"/><line class="cls-4" x1="345.92" y1="273.3" x2="325.35" y2="266.45"/><line class="cls-4" x1="325.35" y1="266.45" x2="335.27" y2="236.68"/><line class="cls-4" x1="335.27" y1="236.68" x2="355.89" y2="243.86"/><line class="cls-4" x1="325.35" y1="266.45" x2="299.99" y2="258"/><line class="cls-4" x1="299.99" y1="258" x2="309.92" y2="228.23"/><line class="cls-4" x1="309.92" y1="228.23" x2="335.27" y2="236.68"/><line class="cls-4" x1="337.78" y1="412.34" x2="315.46" y2="406.14"/><line class="cls-4" x1="315.46" y1="406.14" x2="311.08" y2="421.92"/><line class="cls-4" x1="311.08" y1="421.92" x2="287.7" y2="415.43"/><line class="cls-4" x1="287.7" y1="415.43" x2="283.79" y2="429.51"/><line class="cls-4" x1="283.79" y1="429.51" x2="329.01" y2="443.92"/><line class="cls-4" x1="329.01" y1="443.92" x2="337.78" y2="412.34"/><line class="cls-4" x1="329.01" y1="443.92" x2="314.55" y2="489.3"/><line class="cls-4" x1="314.55" y1="489.3" x2="263.48" y2="473.02"/><line class="cls-4" x1="263.48" y1="473.02" x2="270.61" y2="450.63"/><line class="cls-4" x1="270.61" y1="450.63" x2="276.53" y2="452.51"/><line class="cls-4" x1="276.53" y1="452.51" x2="283.79" y2="429.51"/><line class="cls-4" x1="312.32" y1="488.59" x2="308.38" y2="504.31"/><line class="cls-4" x1="308.38" y1="504.31" x2="266.74" y2="495.27"/><line class="cls-4" x1="266.74" y1="495.27" x2="241.41" y2="485.71"/><line class="cls-4" x1="241.41" y1="485.71" x2="250.8" y2="468.17"/><line class="cls-4" x1="250.8" y1="468.17" x2="263.48" y2="473.02"/><line class="cls-4" x1="231.13" y1="464.27" x2="226.17" y2="476.14"/><line class="cls-4" x1="226.17" y1="476.14" x2="233.16" y2="479.06"/><line class="cls-4" x1="233.16" y1="479.06" x2="238.93" y2="465.26"/><line class="cls-4" x1="238.93" y1="465.26" x2="231.13" y2="464.27"/><line class="cls-4" x1="314.44" y1="512.67" x2="330.93" y2="526.09"/><line class="cls-4" x1="330.93" y1="526.09" x2="319.69" y2="539.9"/><line class="cls-4" x1="319.69" y1="539.9" x2="316.99" y2="537.2"/><line class="cls-4" x1="316.99" y1="537.2" x2="310.56" y2="543.62"/><line class="cls-4" x1="310.56" y1="543.62" x2="298.82" y2="531.88"/><line class="cls-4" x1="298.82" y1="531.88" x2="303.76" y2="526.94"/><line class="cls-4" x1="303.76" y1="526.94" x2="297.92" y2="522.19"/><line class="cls-4" x1="297.92" y1="522.19" x2="306.94" y2="513.17"/><line class="cls-4" x1="306.94" y1="513.17" x2="314.44" y2="512.67"/><line class="cls-4" x1="167.3" y1="527.64" x2="212.48" y2="559.09"/><line class="cls-4" x1="212.48" y1="559.09" x2="229.79" y2="534.22"/><line class="cls-4" x1="229.79" y1="534.22" x2="207.71" y2="518.85"/><line class="cls-4" x1="207.71" y1="518.85" x2="199.59" y2="530.51"/><line class="cls-4" x1="199.59" y1="530.51" x2="176.49" y2="514.43"/><line class="cls-4" x1="176.49" y1="514.43" x2="167.3" y2="527.64"/><line class="cls-4" x1="184.46" y1="519.98" x2="211.3" y2="481.43"/><line class="cls-4" x1="211.3" y1="481.43" x2="227.09" y2="492.42"/><line class="cls-4" x1="227.09" y1="492.42" x2="216.81" y2="507.2"/><line class="cls-4" x1="216.81" y1="507.2" x2="238.22" y2="522.1"/><line class="cls-4" x1="238.22" y1="522.1" x2="229.79" y2="534.22"/><line class="cls-4" x1="501.35" y1="193.74" x2="539.11" y2="205.22"/><line class="cls-4" x1="539.11" y1="205.22" x2="550.83" y2="166.67"/><line class="cls-4" x1="550.83" y1="166.67" x2="513.07" y2="155.19"/><line class="cls-4" x1="513.07" y1="155.19" x2="501.35" y2="193.74"/><line class="cls-4" x1="516.91" y1="137.58" x2="554.67" y2="149.06"/><line class="cls-4" x1="554.67" y1="149.06" x2="562.76" y2="122.46"/><line class="cls-4" x1="562.76" y1="122.46" x2="525" y2="110.98"/><line class="cls-4" x1="525" y1="110.98" x2="516.91" y2="137.58"/><line class="cls-4" x1="383.1" y1="175.04" x2="374.17" y2="195.45"/><line class="cls-4" x1="374.17" y1="195.45" x2="325.58" y2="174.19"/><line class="cls-4" x1="325.58" y1="174.19" x2="334.51" y2="153.78"/><line class="cls-4" x1="334.51" y1="153.78" x2="383.1" y2="175.04"/><line class="cls-4" x1="383.1" y1="175.04" x2="388.5" y2="177.4"/><line class="cls-4" x1="388.5" y1="177.4" x2="402.31" y2="145.82"/><line class="cls-4" x1="402.31" y1="145.82" x2="348.32" y2="122.2"/><line class="cls-4" x1="348.32" y1="122.2" x2="334.51" y2="153.78"/><line class="cls-4" x1="404.77" y1="446.05" x2="404.77" y2="446.05"/><line class="cls-4" x1="405.28" y1="446.25" x2="405.28" y2="446.25"/><line class="cls-4" x1="406.21" y1="446.62" x2="406.21" y2="446.62"/><line class="cls-4" x1="407.13" y1="447" x2="407.13" y2="447"/><line class="cls-4" x1="408.06" y1="447.37" x2="408.06" y2="447.37"/><line class="cls-4" x1="408.99" y1="447.74" x2="408.99" y2="447.74"/><line class="cls-4" x1="409.92" y1="448.12" x2="409.92" y2="448.12"/><line class="cls-4" x1="410.84" y1="448.49" x2="410.84" y2="448.49"/><line class="cls-4" x1="411.77" y1="448.86" x2="411.77" y2="448.86"/><line class="cls-4" x1="412.7" y1="449.24" x2="412.7" y2="449.24"/><line class="cls-4" x1="413.63" y1="449.61" x2="413.63" y2="449.61"/><line class="cls-4" x1="414.55" y1="449.98" x2="414.55" y2="449.98"/><line class="cls-4" x1="415.48" y1="450.36" x2="415.48" y2="450.36"/><line class="cls-4" x1="416.41" y1="450.73" x2="416.41" y2="450.73"/><line class="cls-4" x1="417.34" y1="451.1" x2="417.34" y2="451.1"/><line class="cls-4" x1="418.27" y1="451.47" x2="418.27" y2="451.47"/><line class="cls-4" x1="419.19" y1="451.85" x2="419.19" y2="451.85"/><line class="cls-4" x1="420.12" y1="452.22" x2="420.12" y2="452.22"/><line class="cls-4" x1="421.05" y1="452.59" x2="421.05" y2="452.59"/><line class="cls-4" x1="421.98" y1="452.97" x2="421.98" y2="452.97"/><line class="cls-4" x1="422.9" y1="453.34" x2="422.9" y2="453.34"/><line class="cls-4" x1="423.83" y1="453.71" x2="423.83" y2="453.71"/><line class="cls-4" x1="424.76" y1="454.09" x2="424.76" y2="454.09"/><line class="cls-4" x1="425.69" y1="454.46" x2="425.69" y2="454.46"/><line class="cls-4" x1="426.62" y1="454.83" x2="426.62" y2="454.83"/><line class="cls-4" x1="427.55" y1="455.21" x2="427.55" y2="455.21"/><line class="cls-4" x1="428.47" y1="455.58" x2="428.47" y2="455.58"/><line class="cls-4" x1="429.4" y1="455.95" x2="429.4" y2="455.95"/><line class="cls-4" x1="430.33" y1="456.32" x2="430.33" y2="456.32"/><line class="cls-4" x1="431.26" y1="456.7" x2="431.26" y2="456.7"/><line class="cls-4" x1="431.76" y1="456.9" x2="431.76" y2="456.9"/><line class="cls-4" x1="431.76" y1="456.9" x2="431.76" y2="456.9"/><line class="cls-4" x1="432.12" y1="456.02" x2="432.12" y2="456.02"/><line class="cls-4" x1="432.49" y1="455.09" x2="432.49" y2="455.09"/><line class="cls-4" x1="432.86" y1="454.16" x2="432.86" y2="454.16"/><line class="cls-4" x1="433.24" y1="453.23" x2="433.24" y2="453.23"/><line class="cls-4" x1="433.61" y1="452.31" x2="433.61" y2="452.31"/><line class="cls-4" x1="433.98" y1="451.38" x2="433.98" y2="451.38"/><line class="cls-4" x1="434.36" y1="450.45" x2="434.36" y2="450.45"/><line class="cls-4" x1="434.73" y1="449.52" x2="434.73" y2="449.52"/><line class="cls-4" x1="435.1" y1="448.59" x2="435.1" y2="448.59"/><line class="cls-4" x1="435.47" y1="447.66" x2="435.47" y2="447.66"/><line class="cls-4" x1="435.85" y1="446.74" x2="435.85" y2="446.74"/><line class="cls-4" x1="436.22" y1="445.81" x2="436.22" y2="445.81"/><line class="cls-4" x1="436.59" y1="444.88" x2="436.59" y2="444.88"/><line class="cls-4" x1="436.97" y1="443.95" x2="436.97" y2="443.95"/><line class="cls-4" x1="437.34" y1="443.03" x2="437.34" y2="443.03"/><line class="cls-4" x1="437.71" y1="442.1" x2="437.71" y2="442.1"/><line class="cls-4" x1="438.09" y1="441.17" x2="438.09" y2="441.17"/><line class="cls-4" x1="438.46" y1="440.24" x2="438.46" y2="440.24"/><line class="cls-4" x1="438.83" y1="439.31" x2="438.83" y2="439.31"/><line class="cls-4" x1="439.2" y1="438.39" x2="439.2" y2="438.39"/><line class="cls-4" x1="439.58" y1="437.46" x2="439.58" y2="437.46"/><line class="cls-4" x1="439.95" y1="436.53" x2="439.95" y2="436.53"/><line class="cls-4" x1="440.32" y1="435.6" x2="440.32" y2="435.6"/><line class="cls-4" x1="440.7" y1="434.68" x2="440.7" y2="434.68"/><line class="cls-4" x1="441.07" y1="433.75" x2="441.07" y2="433.75"/><line class="cls-4" x1="441.44" y1="432.82" x2="441.44" y2="432.82"/><line class="cls-4" x1="441.82" y1="431.89" x2="441.82" y2="431.89"/><line class="cls-4" x1="442.19" y1="430.97" x2="442.19" y2="430.97"/><line class="cls-4" x1="442.56" y1="430.04" x2="442.56" y2="430.04"/><line class="cls-4" x1="442.94" y1="429.11" x2="442.94" y2="429.11"/><line class="cls-4" x1="443.31" y1="428.18" x2="443.31" y2="428.18"/><line class="cls-4" x1="443.68" y1="427.25" x2="443.68" y2="427.25"/><line class="cls-4" x1="444.05" y1="426.33" x2="444.05" y2="426.33"/><line class="cls-4" x1="444.43" y1="425.4" x2="444.43" y2="425.4"/><line class="cls-4" x1="444.8" y1="424.47" x2="444.8" y2="424.47"/><line class="cls-4" x1="445.17" y1="423.54" x2="445.17" y2="423.54"/><line class="cls-4" x1="445.55" y1="422.62" x2="445.55" y2="422.62"/><line class="cls-4" x1="445.92" y1="421.69" x2="445.92" y2="421.69"/><line class="cls-4" x1="446.29" y1="420.76" x2="446.29" y2="420.76"/><line class="cls-4" x1="446.67" y1="419.83" x2="446.67" y2="419.83"/><line class="cls-4" x1="447.04" y1="418.9" x2="447.04" y2="418.9"/><line class="cls-4" x1="447.41" y1="417.97" x2="447.41" y2="417.97"/><line class="cls-4" x1="447.78" y1="417.05" x2="447.78" y2="417.05"/><line class="cls-4" x1="448.16" y1="416.12" x2="448.16" y2="416.12"/><line class="cls-4" x1="448.53" y1="415.19" x2="448.53" y2="415.19"/><line class="cls-4" x1="448.9" y1="414.26" x2="448.9" y2="414.26"/><line class="cls-4" x1="449.28" y1="413.34" x2="449.28" y2="413.34"/><line class="cls-4" x1="449.65" y1="412.41" x2="449.65" y2="412.41"/><line class="cls-4" x1="450.02" y1="411.48" x2="450.02" y2="411.48"/><line class="cls-4" x1="450.38" y1="410.6" x2="450.38" y2="410.6"/><line class="cls-4" x1="240.96" y1="704.66" x2="315.64" y2="738.91"/><line class="cls-4" x1="315.64" y1="738.91" x2="331.35" y2="704.66"/><line class="cls-4" x1="331.35" y1="704.66" x2="256.67" y2="670.41"/><line class="cls-4" x1="256.67" y1="670.41" x2="240.96" y2="704.66"/><line class="cls-4" x1="216.57" y1="383.2" x2="225.61" y2="346.09"/><line class="cls-4" x1="225.61" y1="346.09" x2="279.64" y2="359.26"/><line class="cls-4" x1="279.64" y1="359.26" x2="276.23" y2="373.26"/><line class="cls-4" x1="276.23" y1="373.26" x2="254.74" y2="368.02"/><line class="cls-4" x1="254.74" y1="368.02" x2="249.12" y2="391.12"/><line class="cls-4" x1="249.12" y1="391.12" x2="216.57" y2="383.2"/><line class="cls-4" x1="348.32" y1="122.2" x2="359.21" y2="97.31"/><line class="cls-4" x1="359.21" y1="97.31" x2="347.73" y2="92.29"/><line class="cls-4" x1="347.73" y1="92.29" x2="372.29" y2="36.16"/><line class="cls-4" x1="372.29" y1="36.16" x2="348.07" y2="25.57"/><line class="cls-4" x1="348.07" y1="25.57" x2="355.24" y2="9.18"/><line class="cls-4" x1="355.24" y1="9.18" x2="413.95" y2="34.87"/><line class="cls-4" x1="413.95" y1="34.87" x2="389.58" y2="90.57"/><line class="cls-4" x1="389.58" y1="90.57" x2="423.88" y2="102.52"/><line class="cls-4" x1="423.88" y1="102.52" x2="408.08" y2="147.83"/><line class="cls-4" x1="408.08" y1="147.83" x2="402.31" y2="145.82"/><line class="cls-4" x1="549.73" y1="2.7" x2="521.59" y2="94.73"/><line class="cls-4" x1="521.59" y1="94.73" x2="564.88" y2="107.97"/><line class="cls-4" x1="564.88" y1="107.97" x2="593.02" y2="15.94"/><line class="cls-4" x1="593.02" y1="15.94" x2="549.73" y2="2.7"/><line class="cls-4" x1="639.86" y1="264.34" x2="659.26" y2="192.09"/><line class="cls-4" x1="659.26" y1="192.09" x2="683.5" y2="198.59"/><line class="cls-4" x1="683.5" y1="198.59" x2="664.11" y2="270.85"/><line class="cls-4" x1="664.11" y1="270.85" x2="639.86" y2="264.34"/><line class="cls-4" x1="650.88" y1="22.38" x2="689.44" y2="25.55"/><line class="cls-4" x1="689.44" y1="25.55" x2="686.92" y2="56.19"/><line class="cls-4" x1="686.92" y1="56.19" x2="648.36" y2="53.02"/><line class="cls-4" x1="648.36" y1="53.02" x2="650.88" y2="22.38"/><line class="cls-4" x1="747.97" y1="48.54" x2="802.63" y2="63.07"/><line class="cls-4" x1="802.63" y1="63.07" x2="791.84" y2="103.69"/><line class="cls-4" x1="791.84" y1="103.69" x2="737.17" y2="89.17"/><line class="cls-4" x1="737.17" y1="89.17" x2="747.97" y2="48.54"/><line class="cls-4" x1="811.88" y1="75.74" x2="850.96" y2="81.02"/><line class="cls-4" x1="850.96" y1="81.02" x2="847.84" y2="104.08"/><line class="cls-4" x1="847.84" y1="104.08" x2="808.76" y2="98.8"/><line class="cls-4" x1="808.76" y1="98.8" x2="811.88" y2="75.74"/><line class="cls-4" x1="754.3" y1="18.44" x2="770.94" y2="24.77"/><line class="cls-4" x1="770.94" y1="24.77" x2="762.22" y2="47.67"/><line class="cls-4" x1="762.22" y1="47.67" x2="745.58" y2="41.33"/><line class="cls-4" x1="745.58" y1="41.33" x2="754.3" y2="18.44"/><line class="cls-4" x1="797.35" y1="31.64" x2="812.4" y2="36.39"/><line class="cls-4" x1="812.4" y1="36.39" x2="805.54" y2="58.12"/><line class="cls-4" x1="805.54" y1="58.12" x2="790.49" y2="53.37"/><line class="cls-4" x1="790.49" y1="53.37" x2="797.35" y2="31.64"/><line class="cls-4" x1="879.63" y1="104.84" x2="935.09" y2="119.92"/><line class="cls-4" x1="935.09" y1="119.92" x2="926.81" y2="150.33"/><line class="cls-4" x1="926.81" y1="150.33" x2="897.32" y2="142.31"/><line class="cls-4" x1="897.32" y1="142.31" x2="895.81" y2="147.85"/><line class="cls-4" x1="895.81" y1="147.85" x2="869.85" y2="140.79"/><line class="cls-4" x1="869.85" y1="140.79" x2="879.63" y2="104.84"/><line class="cls-4" x1="886.25" y1="264.99" x2="876.93" y2="291.61"/><line class="cls-4" x1="876.93" y1="291.61" x2="897.54" y2="298.83"/><line class="cls-4" x1="897.54" y1="298.83" x2="906.86" y2="272.2"/><line class="cls-4" x1="906.86" y1="272.2" x2="886.25" y2="264.99"/><line class="cls-4" x1="141.72" y1="647.41" x2="121.39" y2="697.32"/><line class="cls-4" x1="121.39" y1="697.32" x2="137.34" y2="703.83"/><line class="cls-4" x1="137.34" y1="703.83" x2="131.27" y2="718.73"/><line class="cls-4" x1="131.27" y1="718.73" x2="162.62" y2="731.5"/><line class="cls-4" x1="162.62" y1="731.5" x2="189.03" y2="666.68"/><line class="cls-4" x1="189.03" y1="666.68" x2="178.08" y2="662.22"/><line class="cls-4" x1="178.08" y1="662.22" x2="183.87" y2="648.01"/><line class="cls-4" x1="183.87" y1="648.01" x2="163.47" y2="639.7"/><line class="cls-4" x1="163.47" y1="639.7" x2="157.68" y2="653.91"/><line class="cls-4" x1="157.68" y1="653.91" x2="141.72" y2="647.41"/><line class="cls-4" x1="37.09" y1="730.23" x2="6.4" y2="818.96"/><line class="cls-4" x1="6.4" y1="818.96" x2="47.68" y2="833.24"/><line class="cls-4" x1="47.68" y1="833.24" x2="55.94" y2="809.35"/><line class="cls-4" x1="55.94" y1="809.35" x2="118.45" y2="830.97"/><line class="cls-4" x1="118.45" y1="830.97" x2="126.22" y2="808.49"/><line class="cls-4" x1="126.22" y1="808.49" x2="57.7" y2="784.8"/><line class="cls-4" x1="57.7" y1="784.8" x2="72.36" y2="742.43"/><line class="cls-4" x1="72.36" y1="742.43" x2="37.09" y2="730.23"/></g></g></svg>