<?xml version="1.0" encoding="UTF-8"?><svg id="Layer_2" xmlns="http://www.w3.org/2000/svg" viewBox="0 0 1130.22 802.51"><defs><style>.cls-1{fill:none;stroke:#000;stroke-linecap:round;stroke-linejoin:round;stroke-width:.25px;}.cls-2{fill-rule:evenodd;}</style></defs><g id="Layer_1-2"><g><polyline class="cls-2" points="484.5 376.31 482.38 389.62 483.79 390.4 478.13 400.62 442.93 381.14 448.07 372.25 464.86 380.45 468.15 373.7 484.5 376.31"/><line class="cls-1" x1="482.69" y1="387.67" x2="503.68" y2="391.02"/><line class="cls-1" x1="503.68" y1="391.02" x2="505.36" y2="380.46"/><line class="cls-1" x1="505.36" y1="380.46" x2="517.58" y2="380.64"/><line class="cls-1" x1="517.58" y1="380.64" x2="517.79" y2="366.33"/><line class="cls-1" x1="517.79" y1="366.33" x2="486.88" y2="361.41"/><line class="cls-1" x1="486.88" y1="361.41" x2="482.69" y2="387.67"/><line class="cls-1" x1="561.83" y1="278.91" x2="549.09" y2="306.7"/><line class="cls-1" x1="549.09" y1="306.7" x2="527.31" y2="296.72"/><line class="cls-1" x1="527.31" y1="296.72" x2="531.97" y2="286.54"/><line class="cls-1" x1="531.97" y1="286.54" x2="534.14" y2="286.89"/><line class="cls-1" x1="534.14" y1="286.89" x2="541.68" y2="271.65"/><line class="cls-1" x1="541.68" y1="271.65" x2="561.83" y2="278.91"/><line class="cls-1" x1="499.27" y1="243.43" x2="470.3" y2="231.73"/><line class="cls-1" x1="470.3" y1="231.73" x2="460.79" y2="255.28"/><line class="cls-1" x1="460.79" y1="255.28" x2="457.06" y2="254.68"/><line class="cls-1" x1="457.06" y1="254.68" x2="453" y2="264.11"/><line class="cls-1" x1="453" y1="264.11" x2="480.79" y2="276.08"/><line class="cls-1" x1="480.79" y1="276.08" x2="489.06" y2="256.86"/><line class="cls-1" x1="489.06" y1="256.86" x2="492.27" y2="258.25"/><line class="cls-1" x1="492.27" y1="258.25" x2="499.27" y2="243.43"/><line class="cls-1" x1="407.68" y1="211.6" x2="394.94" y2="239.39"/><line class="cls-1" x1="394.94" y1="239.39" x2="373.16" y2="229.41"/><line class="cls-1" x1="373.16" y1="229.41" x2="377.83" y2="219.23"/><line class="cls-1" x1="377.83" y1="219.23" x2="380" y2="219.57"/><line class="cls-1" x1="380" y1="219.57" x2="387.54" y2="204.34"/><line class="cls-1" x1="387.54" y1="204.34" x2="407.68" y2="211.6"/><line class="cls-1" x1="627.53" y1="305.22" x2="646.66" y2="313.57"/><line class="cls-1" x1="646.66" y1="313.57" x2="633.92" y2="342.77"/><line class="cls-1" x1="633.92" y1="342.77" x2="611.63" y2="333.04"/><line class="cls-1" x1="611.63" y1="333.04" x2="612.23" y2="329.28"/><line class="cls-1" x1="612.23" y1="329.28" x2="616.82" y2="319.04"/><line class="cls-1" x1="616.82" y1="319.04" x2="620.73" y2="320.8"/><line class="cls-1" x1="620.73" y1="320.8" x2="627.53" y2="305.22"/><line class="cls-1" x1="709.6" y1="341.05" x2="728.73" y2="349.4"/><line class="cls-1" x1="728.73" y1="349.4" x2="715.98" y2="378.59"/><line class="cls-1" x1="715.98" y1="378.59" x2="693.69" y2="368.86"/><line class="cls-1" x1="693.69" y1="368.86" x2="694.29" y2="365.11"/><line class="cls-1" x1="694.29" y1="365.11" x2="697.38" y2="358.23"/><line class="cls-1" x1="697.38" y1="358.23" x2="701.32" y2="359.99"/><line class="cls-1" x1="701.32" y1="359.99" x2="709.6" y2="341.05"/><line class="cls-1" x1="811.87" y1="378.57" x2="790.19" y2="369.18"/><line class="cls-1" x1="790.19" y1="369.18" x2="779.93" y2="393.09"/><line class="cls-1" x1="779.93" y1="393.09" x2="777.46" y2="391.9"/><line class="cls-1" x1="777.46" y1="391.9" x2="772.58" y2="402.62"/><line class="cls-1" x1="772.58" y1="402.62" x2="798.37" y2="414.35"/><line class="cls-1" x1="798.37" y1="414.35" x2="803.03" y2="404.09"/><line class="cls-1" x1="803.03" y1="404.09" x2="801.2" y2="403.22"/><line class="cls-1" x1="801.2" y1="403.22" x2="811.87" y2="378.57"/><line class="cls-1" x1="582.52" y1="397.16" x2="572.68" y2="415.47"/><line class="cls-1" x1="572.68" y1="415.47" x2="563.82" y2="410.71"/><line class="cls-1" x1="563.82" y1="410.71" x2="573.67" y2="392.41"/><line class="cls-1" x1="573.67" y1="392.41" x2="582.52" y2="397.16"/><line class="cls-1" x1="611.69" y1="410.16" x2="599.91" y2="432.78"/><line class="cls-1" x1="599.91" y1="432.78" x2="579.26" y2="422.03"/><line class="cls-1" x1="579.26" y1="422.03" x2="591.04" y2="399.41"/><line class="cls-1" x1="591.04" y1="399.41" x2="611.69" y2="410.16"/><line class="cls-1" x1="670.36" y1="438.44" x2="647.81" y2="478.28"/><line class="cls-1" x1="647.81" y1="478.28" x2="632.05" y2="469.35"/><line class="cls-1" x1="632.05" y1="469.35" x2="654.59" y2="429.52"/><line class="cls-1" x1="654.59" y1="429.52" x2="670.36" y2="438.44"/><line class="cls-1" x1="708.19" y1="456.61" x2="686.7" y2="494.57"/><line class="cls-1" x1="686.7" y1="494.57" x2="670.93" y2="485.65"/><line class="cls-1" x1="670.93" y1="485.65" x2="692.42" y2="447.68"/><line class="cls-1" x1="692.42" y1="447.68" x2="708.19" y2="456.61"/><line class="cls-1" x1="748.46" y1="474.48" x2="726.97" y2="512.44"/><line class="cls-1" x1="726.97" y1="512.44" x2="711.2" y2="503.52"/><line class="cls-1" x1="711.2" y1="503.52" x2="732.69" y2="465.56"/><line class="cls-1" x1="732.69" y1="465.56" x2="748.46" y2="474.48"/><line class="cls-1" x1="797.59" y1="475.93" x2="783.31" y2="468.84"/><line class="cls-1" x1="783.31" y1="468.84" x2="779.55" y2="476.44"/><line class="cls-1" x1="779.55" y1="476.44" x2="793.82" y2="483.52"/><line class="cls-1" x1="793.82" y1="483.52" x2="797.59" y2="475.93"/><line class="cls-1" x1="776.2" y1="502.6" x2="756.58" y2="538.3"/><line class="cls-1" x1="756.58" y1="538.3" x2="778.19" y2="550.17"/><line class="cls-1" x1="778.19" y1="550.17" x2="795.39" y2="518.87"/><line class="cls-1" x1="795.39" y1="518.87" x2="781.65" y2="511.32"/><line class="cls-1" x1="781.65" y1="511.32" x2="784.07" y2="506.92"/><line class="cls-1" x1="784.07" y1="506.92" x2="776.2" y2="502.6"/><line class="cls-1" x1="766.14" y1="618.08" x2="753.51" y2="640.1"/><line class="cls-1" x1="753.51" y1="640.1" x2="719.21" y2="620.42"/><line class="cls-1" x1="719.21" y1="620.42" x2="731.85" y2="598.4"/><line class="cls-1" x1="731.85" y1="598.4" x2="766.14" y2="618.08"/><line class="cls-1" x1="733.73" y1="677.03" x2="708.47" y2="662.27"/><line class="cls-1" x1="708.47" y1="662.27" x2="696.35" y2="683.01"/><line class="cls-1" x1="696.35" y1="683.01" x2="721.6" y2="697.78"/><line class="cls-1" x1="721.6" y1="697.78" x2="733.73" y2="677.03"/><line class="cls-1" x1="685.16" y1="725.73" x2="662.38" y2="714.73"/><line class="cls-1" x1="662.38" y1="714.73" x2="651.38" y2="737.52"/><line class="cls-1" x1="651.38" y1="737.52" x2="674.17" y2="748.51"/><line class="cls-1" x1="674.17" y1="748.51" x2="685.16" y2="725.73"/><line class="cls-1" x1="622.66" y1="794.78" x2="605.82" y2="786.79"/><line class="cls-1" x1="605.82" y1="786.79" x2="598.43" y2="802.39"/><line class="cls-1" x1="619.05" y1="802.39" x2="622.66" y2="794.78"/><line class="cls-1" x1="373.97" y1="549.97" x2="350.64" y2="535.65"/><line class="cls-1" x1="350.64" y1="535.65" x2="336.31" y2="558.98"/><line class="cls-1" x1="336.31" y1="558.98" x2="359.65" y2="573.3"/><line class="cls-1" x1="359.65" y1="573.3" x2="373.97" y2="549.97"/><line class="cls-1" x1="394.34" y1="314.26" x2="357.51" y2="298.67"/><line class="cls-1" x1="357.51" y1="298.67" x2="347.74" y2="321.75"/><line class="cls-1" x1="347.74" y1="321.75" x2="384.57" y2="337.34"/><line class="cls-1" x1="384.57" y1="337.34" x2="394.34" y2="314.26"/><line class="cls-1" x1="319.71" y1="153.51" x2="304.74" y2="186.46"/><line class="cls-1" x1="304.74" y1="186.46" x2="281.99" y2="176.12"/><line class="cls-1" x1="281.99" y1="176.12" x2="296.96" y2="143.17"/><line class="cls-1" x1="296.96" y1="143.17" x2="319.71" y2="153.51"/><line class="cls-1" x1="386.16" y1=".12" x2="358.6" y2="67.08"/><line class="cls-1" x1="358.6" y1="67.08" x2="325.47" y2="53.45"/><line class="cls-1" x1="325.47" y1="53.45" x2="347.42" y2=".12"/><line class="cls-1" x1="560.93" y1=".12" x2="555.68" y2="12.83"/><line class="cls-1" x1="555.68" y1="12.83" x2="524.91" y2=".12"/><line class="cls-1" x1="136.28" y1="212.43" x2="122.74" y2="241.93"/><line class="cls-1" x1="122.74" y1="241.93" x2="104.21" y2="233.42"/><line class="cls-1" x1="104.21" y1="233.42" x2="117.75" y2="203.93"/><line class="cls-1" x1="117.75" y1="203.93" x2="136.28" y2="212.43"/><line class="cls-1" x1="103.31" y1="283" x2="89.84" y2="314.34"/><line class="cls-1" x1="89.84" y1="314.34" x2="71.14" y2="306.31"/><line class="cls-1" x1="71.14" y1="306.31" x2="84.61" y2="274.97"/><line class="cls-1" x1="84.61" y1="274.97" x2="103.31" y2="283"/><line class="cls-1" x1="138.67" y1="420.87" x2="152.81" y2="460.45"/><line class="cls-1" x1="152.81" y1="460.45" x2="122.32" y2="471.34"/><line class="cls-1" x1="122.32" y1="471.34" x2="108.18" y2="431.76"/><line class="cls-1" x1="108.18" y1="431.76" x2="138.67" y2="420.87"/><line class="cls-1" x1="155.63" y1="468.36" x2="169.77" y2="507.93"/><line class="cls-1" x1="169.77" y1="507.93" x2="139.28" y2="518.82"/><line class="cls-1" x1="139.28" y1="518.82" x2="125.14" y2="479.25"/><line class="cls-1" x1="125.14" y1="479.25" x2="155.63" y2="468.36"/><line class="cls-1" x1="172.2" y1="514.74" x2="186.34" y2="554.31"/><line class="cls-1" x1="186.34" y1="554.31" x2="155.85" y2="565.21"/><line class="cls-1" x1="155.85" y1="565.21" x2="141.71" y2="525.63"/><line class="cls-1" x1="141.71" y1="525.63" x2="172.2" y2="514.74"/><line class="cls-1" x1="60.79" y1="448.69" x2="74.93" y2="488.27"/><line class="cls-1" x1="74.93" y1="488.27" x2="44.44" y2="499.16"/><line class="cls-1" x1="44.44" y1="499.16" x2="30.3" y2="459.58"/><line class="cls-1" x1="30.3" y1="459.58" x2="60.79" y2="448.69"/><line class="cls-1" x1="77.76" y1="496.18" x2="91.89" y2="535.75"/><line class="cls-1" x1="91.89" y1="535.75" x2="61.4" y2="546.64"/><line class="cls-1" x1="61.4" y1="546.64" x2="47.27" y2="507.07"/><line class="cls-1" x1="47.27" y1="507.07" x2="77.76" y2="496.18"/><line class="cls-1" x1="94.33" y1="542.56" x2="108.46" y2="582.13"/><line class="cls-1" x1="108.46" y1="582.13" x2="77.97" y2="593.03"/><line class="cls-1" x1="77.97" y1="593.03" x2="63.84" y2="553.45"/><line class="cls-1" x1="63.84" y1="553.45" x2="94.33" y2="542.56"/><line class="cls-1" x1="147.97" y1="627.92" x2="107.59" y2="642.96"/><line class="cls-1" x1="107.59" y1="642.96" x2="96.1" y2="612.11"/><line class="cls-1" x1="96.1" y1="612.11" x2="136.49" y2="597.07"/><line class="cls-1" x1="136.49" y1="597.07" x2="147.97" y2="627.92"/><line class="cls-1" x1="196.45" y1="609.87" x2="156.07" y2="624.91"/><line class="cls-1" x1="156.07" y1="624.91" x2="144.58" y2="594.05"/><line class="cls-1" x1="144.58" y1="594.05" x2="184.97" y2="579.02"/><line class="cls-1" x1="184.97" y1="579.02" x2="196.45" y2="609.87"/><line class="cls-1" x1="467.54" y1="483.54" x2="441.83" y2="470.15"/><line class="cls-1" x1="441.83" y1="470.15" x2="429.77" y2="492.34"/><line class="cls-1" x1="429.77" y1="492.34" x2="455.64" y2="506.4"/><line class="cls-1" x1="455.64" y1="506.4" x2="467.54" y2="483.54"/><line class="cls-1" x1="464.41" y1="489.55" x2="490.66" y2="503.21"/><line class="cls-1" x1="490.66" y1="503.21" x2="478.69" y2="526.2"/><line class="cls-1" x1="478.69" y1="526.2" x2="452.44" y2="512.54"/><line class="cls-1" x1="452.44" y1="512.54" x2="455.64" y2="506.4"/><line class="cls-1" x1="521.12" y1="495.29" x2="505.96" y2="486.99"/><line class="cls-1" x1="505.96" y1="486.99" x2="497.6" y2="502.28"/><line class="cls-1" x1="497.6" y1="502.28" x2="512.76" y2="510.56"/><line class="cls-1" x1="512.76" y1="510.56" x2="521.12" y2="495.29"/><line class="cls-1" x1="519" y1="499.15" x2="534.24" y2="507.48"/><line class="cls-1" x1="534.24" y1="507.48" x2="526.14" y2="522.3"/><line class="cls-1" x1="526.14" y1="522.3" x2="510.9" y2="513.97"/><line class="cls-1" x1="510.9" y1="513.97" x2="512.76" y2="510.56"/><line class="cls-1" x1="532.52" y1="520.02" x2="519.54" y2="543.81"/><line class="cls-1" x1="519.54" y1="543.81" x2="540.87" y2="555.45"/><line class="cls-1" x1="540.87" y1="555.45" x2="554.35" y2="530.75"/><line class="cls-1" x1="554.35" y1="530.75" x2="532.52" y2="520.02"/><line class="cls-1" x1="554.35" y1="530.75" x2="557.25" y2="525.42"/><line class="cls-1" x1="557.25" y1="525.42" x2="578.37" y2="536.94"/><line class="cls-1" x1="578.37" y1="536.94" x2="563.92" y2="563.41"/><line class="cls-1" x1="563.92" y1="563.41" x2="559.94" y2="561.23"/><line class="cls-1" x1="559.94" y1="561.23" x2="560.5" y2="557.77"/><line class="cls-1" x1="560.5" y1="557.77" x2="544.4" y2="548.98"/><line class="cls-1" x1="648.28" y1="561.29" x2="639.86" y2="556.7"/><line class="cls-1" x1="639.86" y1="556.7" x2="641.96" y2="552.85"/><line class="cls-1" x1="641.96" y1="552.85" x2="633.91" y2="548.46"/><line class="cls-1" x1="633.91" y1="548.46" x2="631.81" y2="552.31"/><line class="cls-1" x1="631.81" y1="552.31" x2="623.4" y2="547.72"/><line class="cls-1" x1="623.4" y1="547.72" x2="610.79" y2="570.86"/><line class="cls-1" x1="610.79" y1="570.86" x2="635.66" y2="584.42"/><line class="cls-1" x1="635.66" y1="584.42" x2="648.28" y2="561.29"/><line class="cls-1" x1="645.1" y1="567.11" x2="671.4" y2="581.45"/><line class="cls-1" x1="671.4" y1="581.45" x2="659.01" y2="604.17"/><line class="cls-1" x1="659.01" y1="604.17" x2="663.2" y2="606.46"/><line class="cls-1" x1="663.2" y1="606.46" x2="657.78" y2="616.41"/><line class="cls-1" x1="657.78" y1="616.41" x2="655.14" y2="617.27"/><line class="cls-1" x1="655.14" y1="617.27" x2="640.44" y2="609.47"/><line class="cls-1" x1="640.44" y1="609.47" x2="646.79" y2="597.51"/><line class="cls-1" x1="646.79" y1="597.51" x2="632.71" y2="589.83"/><line class="cls-1" x1="632.71" y1="589.83" x2="635.66" y2="584.42"/><line class="cls-1" x1="617.52" y1="545.02" x2="608.96" y2="540.41"/><line class="cls-1" x1="608.96" y1="540.41" x2="605.97" y2="545.96"/><line class="cls-1" x1="605.97" y1="545.96" x2="614.53" y2="550.57"/><line class="cls-1" x1="614.53" y1="550.57" x2="617.52" y2="545.02"/><line class="cls-1" x1="387.77" y1="434.34" x2="405.36" y2="444.01"/><line class="cls-1" x1="405.36" y1="444.01" x2="386.48" y2="478.38"/><line class="cls-1" x1="386.48" y1="478.38" x2="375.39" y2="472.29"/><line class="cls-1" x1="375.39" y1="472.29" x2="380.23" y2="463.47"/><line class="cls-1" x1="380.23" y1="463.47" x2="373.73" y2="459.9"/><line class="cls-1" x1="373.73" y1="459.9" x2="387.77" y2="434.34"/><line class="cls-1" x1="386.11" y1="437.37" x2="378.39" y2="433.13"/><line class="cls-1" x1="378.39" y1="433.13" x2="384.06" y2="422.8"/><line class="cls-1" x1="384.06" y1="422.8" x2="365.04" y2="412.35"/><line class="cls-1" x1="365.04" y1="412.35" x2="351.07" y2="437.77"/><line class="cls-1" x1="351.07" y1="437.77" x2="359.42" y2="442.35"/><line class="cls-1" x1="359.42" y1="442.35" x2="355.43" y2="449.6"/><line class="cls-1" x1="355.43" y1="449.6" x2="367.61" y2="456.3"/><line class="cls-1" x1="367.61" y1="456.3" x2="371.6" y2="449.04"/><line class="cls-1" x1="371.6" y1="449.04" x2="377.82" y2="452.46"/><line class="cls-1" x1="359.67" y1="422.12" x2="342.76" y2="412.83"/><line class="cls-1" x1="342.76" y1="412.83" x2="328.87" y2="438.13"/><line class="cls-1" x1="328.87" y1="438.13" x2="345.77" y2="447.41"/><line class="cls-1" x1="345.77" y1="447.41" x2="351.07" y2="437.77"/><line class="cls-1" x1="320.34" y1="391.27" x2="343.61" y2="403.83"/><line class="cls-1" x1="343.61" y1="403.83" x2="334.64" y2="418.46"/><line class="cls-1" x1="334.64" y1="418.46" x2="313.81" y2="407.99"/><line class="cls-1" x1="313.81" y1="407.99" x2="311.53" y2="412.53"/><line class="cls-1" x1="311.53" y1="412.53" x2="306.96" y2="409.17"/><line class="cls-1" x1="306.96" y1="409.17" x2="320.34" y2="391.27"/><line class="cls-1" x1="313.63" y1="392.36" x2="304.23" y2="409.16"/><line class="cls-1" x1="304.23" y1="409.16" x2="279.15" y2="396.01"/><line class="cls-1" x1="279.15" y1="396.01" x2="281.96" y2="390.65"/><line class="cls-1" x1="281.96" y1="390.65" x2="269.51" y2="384.13"/><line class="cls-1" x1="269.51" y1="384.13" x2="280.81" y2="362.58"/><line class="cls-1" x1="280.81" y1="362.58" x2="273.86" y2="358.93"/><line class="cls-1" x1="273.86" y1="358.93" x2="281.98" y2="343.44"/><line class="cls-1" x1="281.98" y1="343.44" x2="287.37" y2="346.26"/><line class="cls-1" x1="287.37" y1="346.26" x2="289.17" y2="342.82"/><line class="cls-1" x1="289.17" y1="342.82" x2="309.04" y2="353.23"/><line class="cls-1" x1="309.04" y1="353.23" x2="294.23" y2="381.49"/><line class="cls-1" x1="294.23" y1="381.49" x2="313.63" y2="392.36"/><line class="cls-1" x1="294.23" y1="381.49" x2="275.92" y2="371.89"/><line class="cls-1" x1="309.61" y1="329.82" x2="293.32" y2="320.63"/><line class="cls-1" x1="293.32" y1="320.63" x2="284.83" y2="335.68"/><line class="cls-1" x1="284.83" y1="335.68" x2="301.13" y2="344.88"/><line class="cls-1" x1="301.13" y1="344.88" x2="309.61" y2="329.82"/><line class="cls-1" x1="296.77" y1="269.88" x2="283.65" y2="293.23"/><line class="cls-1" x1="283.65" y1="293.23" x2="250.76" y2="274.76"/><line class="cls-1" x1="250.76" y1="274.76" x2="255.96" y2="265.5"/><line class="cls-1" x1="255.96" y1="265.5" x2="253.1" y2="263.89"/><line class="cls-1" x1="253.1" y1="263.89" x2="257.64" y2="255.81"/><line class="cls-1" x1="257.64" y1="255.81" x2="282.81" y2="268.51"/><line class="cls-1" x1="282.81" y1="268.51" x2="285.35" y2="263.47"/><line class="cls-1" x1="285.35" y1="263.47" x2="296.77" y2="269.88"/><line class="cls-1" x1="158.42" y1="208.77" x2="169.27" y2="213.78"/><line class="cls-1" x1="169.27" y1="213.78" x2="162.81" y2="271.8"/><line class="cls-1" x1="162.81" y1="271.8" x2="131.36" y2="256.73"/><line class="cls-1" x1="131.36" y1="256.73" x2="139.87" y2="238.97"/><line class="cls-1" x1="139.87" y1="238.97" x2="143.65" y2="240.72"/><line class="cls-1" x1="143.65" y1="240.72" x2="158.42" y2="208.77"/><line class="cls-1" x1="184.15" y1="202.91" x2="177.3" y2="199.63"/><line class="cls-1" x1="177.3" y1="199.63" x2="174.02" y2="206.48"/><line class="cls-1" x1="174.02" y1="206.48" x2="180.87" y2="209.76"/><line class="cls-1" x1="180.87" y1="209.76" x2="184.15" y2="202.91"/><line class="cls-1" x1="130.48" y1="263.46" x2="123.74" y2="260.19"/><line class="cls-1" x1="123.74" y1="260.19" x2="120.31" y2="267.27"/><line class="cls-1" x1="120.31" y1="267.27" x2="127.06" y2="270.53"/><line class="cls-1" x1="127.06" y1="270.53" x2="130.48" y2="263.46"/><line class="cls-1" x1="245.63" y1="51.92" x2="245.13" y2="73.59"/><line class="cls-1" x1="245.13" y1="73.59" x2="233.5" y2="73.32"/><line class="cls-1" x1="233.5" y1="73.32" x2="232.45" y2="89.97"/><line class="cls-1" x1="232.45" y1="89.97" x2="215.52" y2="88.89"/><line class="cls-1" x1="215.52" y1="88.89" x2="217.91" y2="51.27"/><line class="cls-1" x1="217.91" y1="51.27" x2="245.63" y2="51.92"/><line class="cls-1" x1="183.26" y1="106.17" x2="175.94" y2="145.29"/><line class="cls-1" x1="175.94" y1="145.29" x2="166.38" y2="143.77"/><line class="cls-1" x1="166.38" y1="143.77" x2="172.69" y2="104.19"/><line class="cls-1" x1="172.69" y1="104.19" x2="183.26" y2="106.17"/><line class="cls-1" x1="179.6" y1="125.73" x2="169.57" y2="123.77"/><line class="cls-1" x1="127.38" y1="76.3" x2="163.26" y2="77.78"/><line class="cls-1" x1="163.26" y1="77.78" x2="162.06" y2="107.05"/><line class="cls-1" x1="162.06" y1="107.05" x2="126.17" y2="105.57"/><line class="cls-1" x1="126.17" y1="105.57" x2="126.68" y2="93.15"/><line class="cls-1" x1="126.68" y1="93.15" x2="116.72" y2="92.74"/><line class="cls-1" x1="116.72" y1="92.74" x2="117.41" y2="75.89"/><line class="cls-1" x1="117.41" y1="75.89" x2="127.38" y2="76.3"/><line class="cls-1" x1="126.68" y1="93.15" x2="127.38" y2="76.3"/><line class="cls-1" x1="144.4" y1="47.05" x2="133.71" y2="46.42"/><line class="cls-1" x1="133.71" y1="46.42" x2="133.28" y2="53.7"/><line class="cls-1" x1="133.28" y1="53.7" x2="143.98" y2="54.32"/><line class="cls-1" x1="143.98" y1="54.32" x2="144.4" y2="47.05"/><line class="cls-1" x1="127.8" y1="43.78" x2="111.32" y2="43.62"/><line class="cls-1" x1="111.32" y1="43.62" x2="111.15" y2="61.22"/><line class="cls-1" x1="111.15" y1="61.22" x2="127.63" y2="61.38"/><line class="cls-1" x1="127.63" y1="61.38" x2="127.8" y2="43.78"/><line class="cls-1" x1="109.94" y1="25.2" x2="110.65" y2="36.26"/><line class="cls-1" x1="110.65" y1="36.26" x2="102.62" y2="36.77"/><line class="cls-1" x1="102.62" y1="36.77" x2="101.92" y2="25.71"/><line class="cls-1" x1="101.92" y1="25.71" x2="109.94" y2="25.2"/><line class="cls-1" x1="127.06" y1=".12" x2="128.24" y2="13"/><line class="cls-1" x1="128.24" y1="13" x2="154.07" y2="10.64"/><line class="cls-1" x1="154.07" y1="10.64" x2="153.11" y2=".12"/><line class="cls-1" x1="478.62" y1="632.46" x2="457.07" y2="620.34"/><line class="cls-1" x1="457.07" y1="620.34" x2="438.72" y2="652.93"/><line class="cls-1" x1="438.72" y1="652.93" x2="483.68" y2="678.23"/><line class="cls-1" x1="483.68" y1="678.23" x2="502.03" y2="645.64"/><line class="cls-1" x1="502.03" y1="645.64" x2="486.79" y2="637.06"/><line class="cls-1" x1="486.79" y1="637.06" x2="488.46" y2="634.09"/><line class="cls-1" x1="488.46" y1="634.09" x2="480.29" y2="629.49"/><line class="cls-1" x1="480.29" y1="629.49" x2="478.62" y2="632.46"/><line class="cls-1" x1="525.36" y1="654.59" x2="503.82" y2="642.47"/><line class="cls-1" x1="503.82" y1="642.47" x2="502.03" y2="645.64"/><line class="cls-1" x1="533.53" y1="659.19" x2="535.21" y2="656.22"/><line class="cls-1" x1="535.21" y1="656.22" x2="527.04" y2="651.62"/><line class="cls-1" x1="527.04" y1="651.62" x2="525.36" y2="654.59"/><line class="cls-1" x1="571.58" y1="677.66" x2="550.04" y2="665.53"/><line class="cls-1" x1="550.04" y1="665.53" x2="531.69" y2="698.12"/><line class="cls-1" x1="531.69" y1="698.12" x2="576.64" y2="723.43"/><line class="cls-1" x1="576.64" y1="723.43" x2="594.99" y2="690.84"/><line class="cls-1" x1="594.99" y1="690.84" x2="579.75" y2="682.26"/><line class="cls-1" x1="579.75" y1="682.26" x2="581.42" y2="679.29"/><line class="cls-1" x1="581.42" y1="679.29" x2="573.25" y2="674.69"/><line class="cls-1" x1="573.25" y1="674.69" x2="571.58" y2="677.66"/><line class="cls-1" x1="485.47" y1="675.06" x2="530.43" y2="700.36"/><line class="cls-1" x1="530.43" y1="700.36" x2="531.69" y2="698.12"/><line class="cls-1" x1="548.77" y1="667.77" x2="533.53" y2="659.19"/><line class="cls-1" x1="496.86" y1="602.4" x2="508.36" y2="609.02"/><line class="cls-1" x1="508.36" y1="609.02" x2="504.32" y2="616.03"/><line class="cls-1" x1="504.32" y1="616.03" x2="492.83" y2="609.42"/><line class="cls-1" x1="492.83" y1="609.42" x2="496.86" y2="602.4"/><line class="cls-1" x1="536.63" y1="625.28" x2="548.13" y2="631.9"/><line class="cls-1" x1="548.13" y1="631.9" x2="544.09" y2="638.91"/><line class="cls-1" x1="544.09" y1="638.91" x2="532.59" y2="632.3"/><line class="cls-1" x1="532.59" y1="632.3" x2="536.63" y2="625.28"/><line class="cls-1" x1="581.35" y1="651.02" x2="592.85" y2="657.63"/><line class="cls-1" x1="592.85" y1="657.63" x2="588.82" y2="664.65"/><line class="cls-1" x1="588.82" y1="664.65" x2="577.32" y2="658.03"/><line class="cls-1" x1="577.32" y1="658.03" x2="581.35" y2="651.02"/><line class="cls-1" x1="450.56" y1="795.06" x2="429.02" y2="782.93"/><line class="cls-1" x1="429.02" y1="782.93" x2="418.07" y2="802.39"/><line class="cls-1" x1="458.73" y1="799.66" x2="460.41" y2="796.69"/><line class="cls-1" x1="460.41" y1="796.69" x2="452.23" y2="792.09"/><line class="cls-1" x1="452.23" y1="792.09" x2="450.56" y2="795.06"/><line class="cls-1" x1="456.98" y1="755.39" x2="470.78" y2="763.59"/><line class="cls-1" x1="470.78" y1="763.59" x2="464.08" y2="774.88"/><line class="cls-1" x1="464.08" y1="774.88" x2="450.28" y2="766.69"/><line class="cls-1" x1="450.28" y1="766.69" x2="456.98" y2="755.39"/><line class="cls-1" x1="526.04" y1="798.26" x2="532.9" y2="802.39"/><line class="cls-1" x1="523.56" y1="802.39" x2="526.04" y2="798.26"/><line class="cls-1" x1="379.62" y1="714.63" x2="358.66" y2="749.66"/><line class="cls-1" x1="358.66" y1="749.66" x2="376.83" y2="760.53"/><line class="cls-1" x1="376.83" y1="760.53" x2="397.79" y2="725.5"/><line class="cls-1" x1="397.79" y1="725.5" x2="379.62" y2="714.63"/><line class="cls-1" x1="378.97" y1="652.32" x2="389.74" y2="658.54"/><line class="cls-1" x1="389.74" y1="658.54" x2="384.53" y2="667.56"/><line class="cls-1" x1="384.53" y1="667.56" x2="373.76" y2="661.33"/><line class="cls-1" x1="373.76" y1="661.33" x2="378.97" y2="652.32"/><line class="cls-1" x1="352.4" y1="697.76" x2="359.22" y2="687.59"/><line class="cls-1" x1="359.22" y1="687.59" x2="369.66" y2="694.58"/><line class="cls-1" x1="369.66" y1="694.58" x2="362.85" y2="704.76"/><line class="cls-1" x1="362.85" y1="704.76" x2="352.4" y2="697.76"/><line class="cls-1" x1="463.57" y1="802.39" x2="458.73" y2="799.66"/><line class="cls-1" x1="693.99" y1="780.71" x2="709.49" y2="753.27"/><line class="cls-1" x1="709.49" y1="753.27" x2="727.04" y2="763.19"/><line class="cls-1" x1="727.04" y1="763.19" x2="722.06" y2="772.01"/><line class="cls-1" x1="722.06" y1="772.01" x2="738.42" y2="781.25"/><line class="cls-1" x1="738.42" y1="781.25" x2="743.41" y2="772.43"/><line class="cls-1" x1="743.41" y1="772.43" x2="762.33" y2="783.12"/><line class="cls-1" x1="762.33" y1="783.12" x2="751.44" y2="802.39"/><line class="cls-1" x1="735.46" y1="802.39" x2="730.53" y2="799.61"/><line class="cls-1" x1="730.53" y1="799.61" x2="727.75" y2="802.39"/><line class="cls-1" x1="727.06" y1="802.39" x2="710.26" y2="792.9"/><line class="cls-1" x1="710.26" y1="792.9" x2="711.54" y2="790.62"/><line class="cls-1" x1="711.54" y1="790.62" x2="693.99" y2="780.71"/><line class="cls-1" x1="719.51" y1="798.12" x2="730.87" y2="776.99"/><line class="cls-1" x1="784.41" y1="802.39" x2="791.62" y2="789.17"/><line class="cls-1" x1="791.62" y1="789.17" x2="773.94" y2="779.52"/><line class="cls-1" x1="773.94" y1="779.52" x2="768.63" y2="789.25"/><line class="cls-1" x1="768.63" y1="789.25" x2="761.23" y2="785.07"/><line class="cls-1" x1="913.19" y1="727.88" x2="935.03" y2="740.15"/><line class="cls-1" x1="935.03" y1="740.15" x2="924.09" y2="759.61"/><line class="cls-1" x1="924.09" y1="759.61" x2="902.26" y2="747.34"/><line class="cls-1" x1="902.26" y1="747.34" x2="913.19" y2="727.88"/><line class="cls-1" x1="958.13" y1="756.39" x2="981.42" y2="770.29"/><line class="cls-1" x1="981.42" y1="770.29" x2="995.29" y2="747.04"/><line class="cls-1" x1="995.29" y1="747.04" x2="972.01" y2="733.14"/><line class="cls-1" x1="972.01" y1="733.14" x2="958.13" y2="756.39"/><line class="cls-1" x1="953.45" y1="802.39" x2="936.21" y2="791.84"/><line class="cls-1" x1="936.21" y1="791.84" x2="929.75" y2="802.39"/><line class="cls-1" x1="925.47" y1="779.68" x2="933.59" y2="767.95"/><line class="cls-1" x1="933.59" y1="767.95" x2="937.91" y2="770.93"/><line class="cls-1" x1="937.91" y1="770.93" x2="929.78" y2="782.67"/><line class="cls-1" x1="929.78" y1="782.67" x2="925.47" y2="779.68"/><line class="cls-1" x1="997.27" y1="802.39" x2="998.38" y2="800.61"/><line class="cls-1" x1="998.38" y1="800.61" x2="1001.21" y2="802.39"/><line class="cls-1" x1="1019.09" y1="781.32" x2="1006.63" y2="801.35"/><line class="cls-1" x1="1006.63" y1="801.35" x2="1008.3" y2="802.39"/><line class="cls-1" x1="1038.72" y1="802.39" x2="1042.69" y2="795.99"/><line class="cls-1" x1="1042.69" y1="795.99" x2="1040.09" y2="794.38"/><line class="cls-1" x1="1040.09" y1="794.38" x2="1043.81" y2="788.9"/><line class="cls-1" x1="1043.81" y1="788.9" x2="1052.92" y2="779.54"/><line class="cls-1" x1="1052.92" y1="779.54" x2="1056.26" y2="766.34"/><line class="cls-1" x1="1056.26" y1="766.34" x2="1042.18" y2="759.48"/><line class="cls-1" x1="1042.18" y1="759.48" x2="1025.96" y2="785.59"/><line class="cls-1" x1="1025.96" y1="785.59" x2="1019.09" y2="781.32"/><line class="cls-1" x1="47.75" y1="680.29" x2="60.67" y2="661.06"/><line class="cls-1" x1="60.67" y1="661.06" x2="86.91" y2="678.7"/><line class="cls-1" x1="86.91" y1="678.7" x2="73.99" y2="697.92"/><line class="cls-1" x1="73.99" y1="697.92" x2="47.75" y2="680.29"/><line class="cls-1" x1="102.1" y1="741.15" x2="121.56" y2="712.73"/><line class="cls-1" x1="121.56" y1="712.73" x2="146.92" y2="730.09"/><line class="cls-1" x1="146.92" y1="730.09" x2="127.46" y2="758.51"/><line class="cls-1" x1="127.46" y1="758.51" x2="102.1" y2="741.15"/><line class="cls-1" x1="138.34" y1="715.21" x2="148.45" y2="700.71"/><line class="cls-1" x1="148.45" y1="700.71" x2="167.28" y2="713.84"/><line class="cls-1" x1="167.28" y1="713.84" x2="157.17" y2="728.34"/><line class="cls-1" x1="157.17" y1="728.34" x2="138.34" y2="715.21"/><line class="cls-1" x1="162.67" y1="759.56" x2="175.26" y2="767.57"/><line class="cls-1" x1="175.26" y1="767.57" x2="163.96" y2="785.32"/><line class="cls-1" x1="163.96" y1="785.32" x2="151.37" y2="777.31"/><line class="cls-1" x1="151.37" y1="777.31" x2="162.67" y2="759.56"/><line class="cls-1" x1="163.62" y1="786.46" x2="185.18" y2="800.76"/><line class="cls-1" x1="185.18" y1="800.76" x2="198.19" y2="781.15"/><line class="cls-1" x1="198.19" y1="781.15" x2="176.64" y2="766.85"/><line class="cls-1" x1="176.64" y1="766.85" x2="163.62" y2="786.46"/><line class="cls-1" x1="230.19" y1="752.12" x2="219.89" y2="766.24"/><line class="cls-1" x1="219.89" y1="766.24" x2="227.5" y2="771.79"/><line class="cls-1" x1="227.5" y1="771.79" x2="237.8" y2="757.67"/><line class="cls-1" x1="237.8" y1="757.67" x2="230.19" y2="752.12"/><line class="cls-1" x1="209.78" y1="738.01" x2="205.97" y2="745.25"/><line class="cls-1" x1="205.97" y1="745.25" x2="220.62" y2="752.96"/><line class="cls-1" x1="220.62" y1="752.96" x2="223.64" y2="747.21"/><line class="cls-1" x1="223.64" y1="747.21" x2="209.78" y2="738.01"/><line class="cls-1" x1="239.78" y1="802.39" x2="243.93" y2="788.56"/><line class="cls-1" x1="243.93" y1="788.56" x2="268.92" y2="794.66"/><line class="cls-1" x1="268.92" y1="794.66" x2="266.74" y2="802.39"/><line class="cls-1" x1="65.87" y1="797.42" x2="73.12" y2="802.39"/><line class="cls-1" x1="98.06" y1="802.39" x2="103.08" y2="795.06"/><line class="cls-1" x1="103.08" y1="795.06" x2="78.85" y2="778.46"/><line class="cls-1" x1="78.85" y1="778.46" x2="65.87" y2="797.42"/><line class="cls-1" x1="21.23" y1="723.02" x2="45.65" y2="739.24"/><line class="cls-1" x1="45.65" y1="739.24" x2="24.54" y2="771.01"/><line class="cls-1" x1="24.54" y1="771.01" x2=".12" y2="754.8"/><line class="cls-1" x1=".12" y1="754.8" x2="21.23" y2="723.02"/><line class="cls-1" x1="458.53" y1="37.89" x2="455.32" y2="46.36"/><line class="cls-1" x1="455.32" y1="46.36" x2="463.79" y2="49.57"/><line class="cls-1" x1="463.79" y1="49.57" x2="467" y2="41.1"/><line class="cls-1" x1="467" y1="41.1" x2="458.53" y2="37.89"/><line class="cls-1" x1="437.24" y1="81.39" x2="465.85" y2="93.06"/><line class="cls-1" x1="465.85" y1="93.06" x2="471.44" y2="79.38"/><line class="cls-1" x1="471.44" y1="79.38" x2="467.02" y2="77.57"/><line class="cls-1" x1="467.02" y1="77.57" x2="473.15" y2="62.55"/><line class="cls-1" x1="473.15" y1="62.55" x2="454.06" y2="53.87"/><line class="cls-1" x1="454.06" y1="53.87" x2="446.99" y2="69.4"/><line class="cls-1" x1="446.99" y1="69.4" x2="442.82" y2="67.7"/><line class="cls-1" x1="442.82" y1="67.7" x2="437.24" y2="81.39"/><line class="cls-1" x1="521.97" y1="77.45" x2="513.09" y2="98.04"/><line class="cls-1" x1="513.09" y1="98.04" x2="545.26" y2="111.91"/><line class="cls-1" x1="545.26" y1="111.91" x2="550.66" y2="99.4"/><line class="cls-1" x1="550.66" y1="99.4" x2="545.1" y2="97.01"/><line class="cls-1" x1="545.1" y1="97.01" x2="548.58" y2="88.93"/><line class="cls-1" x1="548.58" y1="88.93" x2="521.97" y2="77.45"/><line class="cls-1" x1="471.47" y1="102.52" x2="467.77" y2="110.31"/><line class="cls-1" x1="467.77" y1="110.31" x2="478.12" y2="115.23"/><line class="cls-1" x1="478.12" y1="115.23" x2="481.82" y2="107.44"/><line class="cls-1" x1="481.82" y1="107.44" x2="471.47" y2="102.52"/><line class="cls-1" x1="670.25" y1="166.81" x2="680.34" y2="145.62"/><line class="cls-1" x1="680.34" y1="145.62" x2="705.37" y2="156.31"/><line class="cls-1" x1="705.37" y1="156.31" x2="701.58" y2="165.18"/><line class="cls-1" x1="701.58" y1="165.18" x2="706.11" y2="167.12"/><line class="cls-1" x1="706.11" y1="167.12" x2="700.73" y2="179.72"/><line class="cls-1" x1="700.73" y1="179.72" x2="705.7" y2="181.85"/><line class="cls-1" x1="705.7" y1="181.85" x2="697.9" y2="200.11"/><line class="cls-1" x1="697.9" y1="200.11" x2="672.88" y2="189.41"/><line class="cls-1" x1="672.88" y1="189.41" x2="680.68" y2="171.16"/><line class="cls-1" x1="680.68" y1="171.16" x2="670.25" y2="166.81"/><line class="cls-1" x1="589.12" y1="114.13" x2="577.82" y2="141.98"/><line class="cls-1" x1="577.82" y1="141.98" x2="602.85" y2="153.49"/><line class="cls-1" x1="602.85" y1="153.49" x2="598.68" y2="162.56"/><line class="cls-1" x1="598.68" y1="162.56" x2="612.74" y2="169.03"/><line class="cls-1" x1="612.74" y1="169.03" x2="627.92" y2="136"/><line class="cls-1" x1="627.92" y1="136" x2="618.99" y2="131.89"/><line class="cls-1" x1="618.99" y1="131.89" x2="628.23" y2="111.79"/><line class="cls-1" x1="628.23" y1="111.79" x2="608.3" y2="102.63"/><line class="cls-1" x1="608.3" y1="102.63" x2="600.83" y2="118.88"/><line class="cls-1" x1="600.83" y1="118.88" x2="589.12" y2="114.13"/><line class="cls-1" x1="647.85" y1="102.03" x2="667.83" y2="111.11"/><line class="cls-1" x1="667.83" y1="111.11" x2="660.59" y2="127.04"/><line class="cls-1" x1="660.59" y1="127.04" x2="640.61" y2="117.96"/><line class="cls-1" x1="640.61" y1="117.96" x2="647.85" y2="102.03"/><line class="cls-1" x1="753.64" y1="157.1" x2="769.04" y2="163.79"/><line class="cls-1" x1="769.04" y1="163.79" x2="765.32" y2="172.37"/><line class="cls-1" x1="765.32" y1="172.37" x2="749.92" y2="165.68"/><line class="cls-1" x1="749.92" y1="165.68" x2="753.64" y2="157.1"/><line class="cls-1" x1="773.02" y1="175.84" x2="791.85" y2="184.08"/><line class="cls-1" x1="791.85" y1="184.08" x2="793.65" y2="179.97"/><line class="cls-1" x1="793.65" y1="179.97" x2="811.7" y2="187.86"/><line class="cls-1" x1="811.7" y1="187.86" x2="799.65" y2="215.39"/><line class="cls-1" x1="799.65" y1="215.39" x2="779.38" y2="206.52"/><line class="cls-1" x1="779.38" y1="206.52" x2="774.9" y2="216.75"/><line class="cls-1" x1="774.9" y1="216.75" x2="758.02" y2="209.37"/><line class="cls-1" x1="758.02" y1="209.37" x2="773.02" y2="175.84"/><line class="cls-1" x1="814.43" y1="300.02" x2="808.43" y2="314.46"/><line class="cls-1" x1="808.43" y1="314.46" x2="779.67" y2="302.52"/><line class="cls-1" x1="779.67" y1="302.52" x2="784.08" y2="291.9"/><line class="cls-1" x1="784.08" y1="291.9" x2="788.98" y2="293.93"/><line class="cls-1" x1="788.98" y1="293.93" x2="792.08" y2="286.47"/><line class="cls-1" x1="792.08" y1="286.47" x2="787.18" y2="284.44"/><line class="cls-1" x1="814.43" y1="300.02" x2="810.82" y2="298.52"/><line class="cls-1" x1="810.82" y1="298.52" x2="813.91" y2="291.05"/><line class="cls-1" x1="813.91" y1="291.05" x2="817.53" y2="292.55"/><line class="cls-1" x1="787.18" y1="284.44" x2="792.18" y2="272.4"/><line class="cls-1" x1="792.18" y1="272.4" x2="820.94" y2="284.34"/><line class="cls-1" x1="820.94" y1="284.34" x2="817.53" y2="292.55"/><line class="cls-1" x1="952.82" y1="147.91" x2="896.12" y2="122.69"/><line class="cls-1" x1="896.12" y1="122.69" x2="889.86" y2="141.65"/><line class="cls-1" x1="889.86" y1="141.65" x2="896.34" y2="143.79"/><line class="cls-1" x1="896.34" y1="143.79" x2="894.7" y2="155.38"/><line class="cls-1" x1="894.7" y1="155.38" x2="950.4" y2="164.86"/><line class="cls-1" x1="950.4" y1="164.86" x2="952.82" y2="147.91"/><line class="cls-1" x1="950.4" y1="164.86" x2="970.12" y2="168.22"/><line class="cls-1" x1="970.12" y1="168.22" x2="932.37" y2="379.23"/><line class="cls-1" x1="932.37" y1="379.23" x2="914.93" y2="432.06"/><line class="cls-1" x1="914.93" y1="432.06" x2="961.07" y2="453.02"/><line class="cls-1" x1="961.07" y1="453.02" x2="953.84" y2="468.94"/><line class="cls-1" x1="953.84" y1="468.94" x2="959.85" y2="471.67"/><line class="cls-1" x1="959.85" y1="471.67" x2="955.38" y2="481.52"/><line class="cls-1" x1="955.38" y1="481.52" x2="960.87" y2="484.01"/><line class="cls-1" x1="960.87" y1="484.01" x2="950.77" y2="506.24"/><line class="cls-1" x1="950.77" y1="506.24" x2="918.68" y2="491.67"/><line class="cls-1" x1="918.68" y1="491.67" x2="926.21" y2="475.12"/><line class="cls-1" x1="926.21" y1="475.12" x2="884.43" y2="456.14"/><line class="cls-1" x1="884.43" y1="456.14" x2="895.21" y2="423.1"/><line class="cls-1" x1="895.21" y1="423.1" x2="883.11" y2="419.15"/><line class="cls-1" x1="883.11" y1="419.15" x2="899.83" y2="368.49"/><line class="cls-1" x1="899.83" y1="368.49" x2="934.95" y2="162.23"/><line class="cls-1" x1="908.81" y1="315.76" x2="942.64" y2="321.81"/><line class="cls-1" x1="899.83" y1="368.49" x2="932.37" y2="379.23"/><line class="cls-1" x1="895.21" y1="423.1" x2="915.66" y2="429.85"/><line class="cls-1" x1="1087.24" y1="336.44" x2="973.73" y2="302.12"/><line class="cls-1" x1="973.73" y1="302.12" x2="980.06" y2="265.15"/><line class="cls-1" x1="980.06" y1="265.15" x2="1098.01" y2="300.81"/><line class="cls-1" x1="1098.01" y1="300.81" x2="1087.24" y2="336.44"/><line class="cls-1" x1="1119.45" y1="248.26" x2="986.93" y2="211.83"/><line class="cls-1" x1="986.93" y1="211.83" x2="994.32" y2="172.23"/><line class="cls-1" x1="994.32" y1="172.23" x2="1130.09" y2="209.55"/><line class="cls-1" x1="1130.09" y1="209.55" x2="1119.45" y2="248.26"/><line class="cls-1" x1="864.41" y1="600.22" x2="855.48" y2="615.68"/><line class="cls-1" x1="855.48" y1="615.68" x2="875.29" y2="625.7"/><line class="cls-1" x1="875.29" y1="625.7" x2="878.28" y2="619.79"/><line class="cls-1" x1="878.28" y1="619.79" x2="871.91" y2="616.57"/><line class="cls-1" x1="871.91" y1="616.57" x2="876.61" y2="607.27"/><line class="cls-1" x1="876.61" y1="607.27" x2="864.41" y2="600.22"/><line class="cls-1" x1="866.59" y1="584.77" x2="887.49" y2="547.76"/><line class="cls-1" x1="887.49" y1="547.76" x2="893.84" y2="551.34"/><line class="cls-1" x1="893.84" y1="551.34" x2="892.24" y2="554.17"/><line class="cls-1" x1="892.24" y1="554.17" x2="903.44" y2="560.49"/><line class="cls-1" x1="903.44" y1="560.49" x2="887.27" y2="589.12"/><line class="cls-1" x1="887.27" y1="589.12" x2="877.72" y2="583.73"/><line class="cls-1" x1="877.72" y1="583.73" x2="874.58" y2="589.28"/><line class="cls-1" x1="874.58" y1="589.28" x2="866.59" y2="584.77"/><line class="cls-1" x1="899.35" y1="685.72" x2="905.67" y2="673.53"/><line class="cls-1" x1="905.67" y1="673.53" x2="895.13" y2="668.08"/><line class="cls-1" x1="895.13" y1="668.08" x2="901.19" y2="656.37"/><line class="cls-1" x1="901.19" y1="656.37" x2="912.63" y2="662.3"/><line class="cls-1" x1="912.63" y1="662.3" x2="916.73" y2="652.16"/><line class="cls-1" x1="916.73" y1="652.16" x2="933.32" y2="660.69"/><line class="cls-1" x1="933.32" y1="660.69" x2="922.43" y2="681.86"/><line class="cls-1" x1="922.43" y1="681.86" x2="918.37" y2="680.11"/><line class="cls-1" x1="918.37" y1="680.11" x2="912.72" y2="692.05"/><line class="cls-1" x1="912.72" y1="692.05" x2="899.35" y2="685.72"/><line class="cls-1" x1="1007.34" y1="640.66" x2="994.49" y2="659.16"/><line class="cls-1" x1="994.49" y1="659.16" x2="996.82" y2="660.78"/><line class="cls-1" x1="996.82" y1="660.78" x2="994.62" y2="663.96"/><line class="cls-1" x1="994.62" y1="663.96" x2="1015.62" y2="678.54"/><line class="cls-1" x1="1015.62" y1="678.54" x2="1025.61" y2="664.14"/><line class="cls-1" x1="1025.61" y1="664.14" x2="1018.68" y2="659.33"/><line class="cls-1" x1="1018.68" y1="659.33" x2="1021.93" y2="652.41"/><line class="cls-1" x1="1021.93" y1="652.41" x2="1007.34" y2="640.66"/><line class="cls-1" x1="782.77" y1="732.31" x2="786.47" y2="726"/><line class="cls-1" x1="786.47" y1="726" x2="790.21" y2="728.2"/><line class="cls-1" x1="790.21" y1="728.2" x2="795.25" y2="719.6"/><line class="cls-1" x1="795.25" y1="719.6" x2="812.12" y2="729.49"/><line class="cls-1" x1="812.12" y1="729.49" x2="803.38" y2="744.4"/><line class="cls-1" x1="803.38" y1="744.4" x2="782.77" y2="732.31"/><line class="cls-1" x1="766.22" y1="738.63" x2="772.31" y2="729.05"/><line class="cls-1" x1="772.31" y1="729.05" x2="780.68" y2="734.37"/><line class="cls-1" x1="780.68" y1="734.37" x2="774.59" y2="743.95"/><line class="cls-1" x1="774.59" y1="743.95" x2="766.22" y2="738.63"/><line class="cls-1" x1="806.93" y1="670.05" x2="815.64" y2="654.81"/><line class="cls-1" x1="815.64" y1="654.81" x2="824.88" y2="660.09"/><line class="cls-1" x1="824.88" y1="660.09" x2="816.17" y2="675.33"/><line class="cls-1" x1="816.17" y1="675.33" x2="806.93" y2="670.05"/><line class="cls-1" x1="824.88" y1="660.09" x2="843.17" y2="670.54"/><line class="cls-1" x1="843.17" y1="670.54" x2="862.03" y2="637.52"/><line class="cls-1" x1="862.03" y1="637.52" x2="843.74" y2="627.07"/><line class="cls-1" x1="843.74" y1="627.07" x2="824.88" y2="660.09"/><line class="cls-1" x1="944.64" y1="608.69" x2="959.01" y2="594.33"/><line class="cls-1" x1="959.01" y1="594.33" x2="973.38" y2="608.69"/><line class="cls-1" x1="973.38" y1="608.69" x2="959.01" y2="623.06"/><line class="cls-1" x1="959.01" y1="623.06" x2="944.64" y2="608.69"/><line class="cls-1" x1="1037.17" y1="688.6" x2="1028.03" y2="704.49"/><line class="cls-1" x1="1028.03" y1="704.49" x2="1040.99" y2="711.95"/><line class="cls-1" x1="1040.99" y1="711.95" x2="1050.14" y2="696.06"/><line class="cls-1" x1="1050.14" y1="696.06" x2="1037.17" y2="688.6"/><line class="cls-1" x1="696.6" y1="57.23" x2="769.39" y2="87.22"/><line class="cls-1" x1="769.39" y1="87.22" x2="776.68" y2="90.23"/><line class="cls-1" x1="776.68" y1="90.23" x2="835.11" y2="97.67"/><line class="cls-1" x1="835.11" y1="97.67" x2="839.82" y2="60.94"/><line class="cls-1" x1="839.82" y1="60.94" x2="783.22" y2="53.67"/><line class="cls-1" x1="783.22" y1="53.67" x2="710.42" y2="23.67"/><line class="cls-1" x1="710.42" y1="23.67" x2="696.6" y2="57.23"/><line class="cls-1" x1="776.11" y1="50.74" x2="768.52" y2="69.14"/><line class="cls-1" x1="768.52" y1="69.14" x2="773.77" y2="69.14"/><line class="cls-1" x1="773.77" y1="69.14" x2="769.39" y2="87.22"/><line class="cls-1" x1="975.66" y1="51.8" x2="984.9" y2="86.86"/><line class="cls-1" x1="984.9" y1="86.86" x2="1000.01" y2="82.87"/><line class="cls-1" x1="1000.01" y1="82.87" x2="990.78" y2="47.82"/><line class="cls-1" x1="990.78" y1="47.82" x2="975.66" y2="51.8"/><line class="cls-1" x1="990.78" y1="47.82" x2="1000.01" y2="82.87"/><line class="cls-1" x1="1000.01" y1="82.87" x2="1015.13" y2="78.89"/><line class="cls-1" x1="1015.13" y1="78.89" x2="1005.89" y2="43.84"/><line class="cls-1" x1="1005.89" y1="43.84" x2="990.78" y2="47.82"/><line class="cls-1" x1="1012.11" y1="67.47" x2="1027.23" y2="63.48"/><line class="cls-1" x1="1027.23" y1="63.48" x2="1017.99" y2="28.43"/><line class="cls-1" x1="1017.99" y1="28.43" x2="1002.88" y2="32.41"/><line class="cls-1" x1="1027.23" y1="63.48" x2="1042.34" y2="59.5"/><line class="cls-1" x1="1042.34" y1="59.5" x2="1033.1" y2="24.45"/><line class="cls-1" x1="1033.1" y1="24.45" x2="1017.99" y2="28.43"/><line class="cls-1" x1="1042.34" y1="59.5" x2="1057.45" y2="55.52"/><line class="cls-1" x1="1057.45" y1="55.52" x2="1048.21" y2="20.46"/><line class="cls-1" x1="1048.21" y1="20.46" x2="1033.1" y2="24.45"/><line class="cls-1" x1="1002.88" y1="32.41" x2="1005.89" y2="43.84"/><line class="cls-1" x1="988.5" y1="377.91" x2="988.5" y2="417.18"/><line class="cls-1" x1="988.5" y1="417.18" x2="998.83" y2="417.18"/><line class="cls-1" x1="998.83" y1="417.18" x2="998.83" y2="397.79"/><line class="cls-1" x1="998.83" y1="397.79" x2="1005.51" y2="399.85"/><line class="cls-1" x1="1005.51" y1="399.85" x2="1010.25" y2="384.54"/><line class="cls-1" x1="1010.25" y1="384.54" x2="988.5" y2="377.91"/></g></g></svg>