<?xml version="1.0" encoding="UTF-8"?><svg id="Layer_2" xmlns="http://www.w3.org/2000/svg" viewBox="0 0 805.92 772.35"><defs><style>.cls-1{fill:none;stroke:#000;stroke-linecap:round;stroke-linejoin:round;stroke-width:.25px;}.cls-2{fill:#252530;fill-rule:evenodd;}</style></defs><g id="Layer_1-2"><g><polyline class="cls-2" points="270.71 431.2 270.71 384.17 304.78 384.16 304.78 376.32 345.94 376.32 345.94 384.16 391.9 384.17 391.9 376.33 433.07 376.33 433.07 384.17 479.02 384.16 479.02 376.32 520.19 376.32 520.19 384.16 550.6 384.17 550.6 431.2 270.71 431.2"/><line class="cls-1" x1="100.43" y1="312.7" x2="111.04" y2="312.66"/><line class="cls-1" x1="111.04" y1="312.66" x2="121.63" y2="312.42"/><line class="cls-1" x1="121.63" y1="312.42" x2="132.22" y2="312.04"/><line class="cls-1" x1="132.22" y1="312.04" x2="142.8" y2="311.57"/><line class="cls-1" x1="142.8" y1="311.57" x2="153.41" y2="310.92"/><line class="cls-1" x1="153.41" y1="310.92" x2="163.96" y2="310.15"/><line class="cls-1" x1="163.96" y1="310.15" x2="174.54" y2="309.21"/><line class="cls-1" x1="174.54" y1="309.21" x2="185.06" y2="308.16"/><line class="cls-1" x1="185.06" y1="308.16" x2="195.6" y2="306.97"/><line class="cls-1" x1="195.6" y1="306.97" x2="200.39" y2="306.38"/><line class="cls-1" x1="200.39" y1="306.38" x2="211.96" y2="304.93"/><line class="cls-1" x1="211.96" y1="304.93" x2="216.31" y2="304.4"/><line class="cls-1" x1="216.31" y1="304.4" x2="229.74" y2="302.82"/><line class="cls-1" x1="229.74" y1="302.82" x2="244.75" y2="301.15"/><line class="cls-1" x1="244.75" y1="301.15" x2="254.33" y2="300.11"/><line class="cls-1" x1="254.33" y1="300.11" x2="267.77" y2="298.77"/><line class="cls-1" x1="267.77" y1="298.77" x2="281.2" y2="297.57"/><line class="cls-1" x1="281.2" y1="297.57" x2="294.66" y2="296.52"/><line class="cls-1" x1="294.66" y1="296.52" x2="308.13" y2="295.56"/><line class="cls-1" x1="308.13" y1="295.56" x2="321.63" y2="294.81"/><line class="cls-1" x1="321.63" y1="294.81" x2="335.07" y2="294.17"/><line class="cls-1" x1="335.07" y1="294.17" x2="348.57" y2="293.65"/><line class="cls-1" x1="348.57" y1="293.65" x2="362.08" y2="293.31"/><line class="cls-1" x1="362.08" y1="293.31" x2="375.56" y2="293.06"/><line class="cls-1" x1="375.56" y1="293.06" x2="389.07" y2="293.01"/><line class="cls-1" x1="478.02" y1="273.75" x2="294.73" y2="273.92"/><line class="cls-1" x1="294.73" y1="273.92" x2="109.94" y2="274.11"/><line class="cls-1" x1="521.52" y1="273.7" x2="478.02" y2="273.75"/><line class="cls-1" x1="389.07" y1="293.01" x2="244.31" y2="293.15"/><line class="cls-1" x1="244.31" y1="293.15" x2="110.75" y2="293.29"/><line class="cls-1" x1="805.08" y1="249.34" x2="110.91" y2="241.33"/><line class="cls-1" x1="2.37" y1="238.48" x2="157.91" y2="232.74"/><line class="cls-1" x1="157.91" y1="232.74" x2="171.14" y2="231.83"/><line class="cls-1" x1="171.14" y1="231.83" x2="186.7" y2="230.89"/><line class="cls-1" x1="186.7" y1="230.89" x2="202.25" y2="230.12"/><line class="cls-1" x1="202.25" y1="230.12" x2="217.85" y2="229.47"/><line class="cls-1" x1="217.85" y1="229.47" x2="233.4" y2="228.94"/><line class="cls-1" x1="233.4" y1="228.94" x2="248.98" y2="228.56"/><line class="cls-1" x1="248.98" y1="228.56" x2="264.6" y2="228.34"/><line class="cls-1" x1="264.6" y1="228.34" x2="280.16" y2="228.27"/><line class="cls-1" x1="280.16" y1="228.27" x2="805.33" y2="227.53"/><line class="cls-1" x1="478.02" y1="273.75" x2="460.6" y2="273.7"/><line class="cls-1" x1="460.6" y1="273.7" x2="443.13" y2="273.5"/><line class="cls-1" x1="443.13" y1="273.5" x2="425.73" y2="273.14"/><line class="cls-1" x1="425.73" y1="273.14" x2="408.32" y2="272.68"/><line class="cls-1" x1="408.32" y1="272.68" x2="390.92" y2="272.08"/><line class="cls-1" x1="390.92" y1="272.08" x2="373.48" y2="271.33"/><line class="cls-1" x1="373.48" y1="271.33" x2="356.09" y2="270.45"/><line class="cls-1" x1="356.09" y1="270.45" x2="338.71" y2="269.44"/><line class="cls-1" x1="338.71" y1="269.44" x2="322.8" y2="268.34"/><line class="cls-1" x1="322.8" y1="268.34" x2="269.81" y2="263.96"/><line class="cls-1" x1="269.81" y1="263.96" x2="110.5" y2="248.87"/><line class="cls-1" x1="110.5" y1="248.87" x2="103.7" y2="248.23"/><line class="cls-1" x1="103.7" y1="248.23" x2="86.33" y2="246.71"/><line class="cls-1" x1="86.33" y1="246.71" x2="68.99" y2="245.34"/><line class="cls-1" x1="68.99" y1="245.34" x2="58.91" y2="244.62"/><line class="cls-1" x1="58.91" y1="244.62" x2="1.3" y2="241.71"/><line class="cls-1" x1="110.75" y1="293.29" x2=".12" y2="293.36"/><line class="cls-1" x1="805.12" y1="292.57" x2="389.07" y2="293.01"/><line class="cls-1" x1="805.1" y1="273.37" x2="521.52" y2="273.7"/><line class="cls-1" x1="805.79" y1="313.28" x2="510.98" y2="312.21"/><line class="cls-1" x1="510.98" y1="312.21" x2="476.1" y2="312.15"/><line class="cls-1" x1="476.1" y1="312.15" x2="452.07" y2="312.18"/><line class="cls-1" x1="452.07" y1="312.18" x2="341.88" y2="312.45"/><line class="cls-1" x1="341.88" y1="312.45" x2="277.15" y2="312.53"/><line class="cls-1" x1="277.15" y1="312.53" x2="212.42" y2="312.61"/><line class="cls-1" x1="212.42" y1="312.61" x2="100.43" y2="312.7"/><line class="cls-1" x1="110.91" y1="241.33" x2=".52" y2="240.06"/><line class="cls-1" x1="109.94" y1="274.11" x2=".12" y2="274.17"/><line class="cls-1" x1="805.25" y1="290.73" x2="704.55" y2="281.03"/><line class="cls-1" x1="704.55" y1="281.03" x2="676.71" y2="279.05"/><line class="cls-1" x1="676.71" y1="279.05" x2="660.84" y2="278.01"/><line class="cls-1" x1="660.84" y1="278.01" x2="643.41" y2="276.98"/><line class="cls-1" x1="643.41" y1="276.98" x2="626.03" y2="276.07"/><line class="cls-1" x1="626.03" y1="276.07" x2="608.64" y2="275.33"/><line class="cls-1" x1="608.64" y1="275.33" x2="591.19" y2="274.72"/><line class="cls-1" x1="591.19" y1="274.72" x2="573.78" y2="274.26"/><line class="cls-1" x1="573.78" y1="274.26" x2="556.36" y2="273.94"/><line class="cls-1" x1="556.36" y1="273.94" x2="538.95" y2="273.75"/><line class="cls-1" x1="538.95" y1="273.75" x2="521.52" y2="273.7"/><line class="cls-1" x1="485.25" y1="38.38" x2="485.27" y2="96.2"/><line class="cls-1" x1="485.27" y1="96.2" x2="520.1" y2="96.19"/><line class="cls-1" x1="520.1" y1="96.19" x2="520.1" y2="110.57"/><line class="cls-1" x1="520.1" y1="110.57" x2="553.8" y2="110.57"/><line class="cls-1" x1="553.8" y1="110.57" x2="593.17" y2="148.42"/><line class="cls-1" x1="593.17" y1="148.42" x2="661.47" y2="146.42"/><line class="cls-1" x1="661.47" y1="146.42" x2="661.09" y2="133.62"/><line class="cls-1" x1="661.09" y1="133.62" x2="521.94" y2=".12"/><line class="cls-1" x1="521.94" y1=".12" x2="485.25" y2="38.38"/><line class="cls-1" x1="520.1" y1="96.19" x2="485.27" y2="96.2"/><line class="cls-1" x1="485.27" y1="96.2" x2="485.27" y2="93.76"/><line class="cls-1" x1="485.27" y1="93.76" x2="473.93" y2="93.76"/><line class="cls-1" x1="473.93" y1="93.76" x2="473.93" y2="96.21"/><line class="cls-1" x1="473.93" y1="96.21" x2="392.01" y2="96.24"/><line class="cls-1" x1="392.01" y1="96.24" x2="392.02" y2="93.76"/><line class="cls-1" x1="392.02" y1="93.76" x2="380.2" y2="93.76"/><line class="cls-1" x1="380.2" y1="93.76" x2="380.2" y2="96.21"/><line class="cls-1" x1="380.2" y1="96.21" x2="371.63" y2="96.18"/><line class="cls-1" x1="371.63" y1="96.18" x2="369.2" y2="93.76"/><line class="cls-1" x1="369.2" y1="93.76" x2="358.26" y2="93.76"/><line class="cls-1" x1="358.26" y1="93.76" x2="355.87" y2="96.14"/><line class="cls-1" x1="355.87" y1="96.14" x2="346.58" y2="96.12"/><line class="cls-1" x1="346.58" y1="96.12" x2="346.44" y2="148.83"/><line class="cls-1" x1="346.44" y1="148.83" x2="520.1" y2="148.11"/><line class="cls-1" x1="520.1" y1="148.11" x2="520.1" y2="96.19"/><line class="cls-1" x1="314.66" y1="61.38" x2="283.84" y2="60.73"/><line class="cls-1" x1="283.84" y1="60.73" x2="283.09" y2="96.19"/><line class="cls-1" x1="283.09" y1="96.19" x2="313.91" y2="96.84"/><line class="cls-1" x1="313.91" y1="96.84" x2="314.66" y2="61.38"/><line class="cls-1" x1="224.59" y1="90.74" x2="188.49" y2="90.74"/><line class="cls-1" x1="188.49" y1="90.74" x2="188.49" y2="124.41"/><line class="cls-1" x1="188.49" y1="124.41" x2="192.4" y2="124.41"/><line class="cls-1" x1="192.4" y1="124.41" x2="192.4" y2="138.38"/><line class="cls-1" x1="192.4" y1="138.38" x2="220.57" y2="138.38"/><line class="cls-1" x1="220.57" y1="138.38" x2="220.57" y2="134.42"/><line class="cls-1" x1="220.57" y1="134.42" x2="224.59" y2="134.42"/><line class="cls-1" x1="224.59" y1="134.42" x2="224.59" y2="90.74"/><line class="cls-1" x1="119.75" y1="53.49" x2="91.43" y2="53.49"/><line class="cls-1" x1="91.43" y1="53.49" x2="91.43" y2="76.26"/><line class="cls-1" x1="91.43" y1="76.26" x2="119.75" y2="76.26"/><line class="cls-1" x1="119.75" y1="76.26" x2="119.75" y2="53.49"/><line class="cls-1" x1="40.61" y1="134.94" x2="79.14" y2="134.94"/><line class="cls-1" x1="79.14" y1="134.94" x2="79.14" y2="96.41"/><line class="cls-1" x1="79.14" y1="96.41" x2="40.61" y2="96.41"/><line class="cls-1" x1="40.61" y1="96.41" x2="40.61" y2="134.94"/><line class="cls-1" x1=".15" y1="397.95" x2="106.41" y2="397.95"/><line class="cls-1" x1="106.41" y1="397.95" x2="106.41" y2="377.62"/><line class="cls-1" x1="106.41" y1="377.62" x2="154.89" y2="377.62"/><line class="cls-1" x1="154.89" y1="377.62" x2="154.89" y2="335.6"/><line class="cls-1" x1="154.89" y1="335.6" x2=".15" y2="335.6"/><line class="cls-1" x1=".15" y1="335.6" x2=".15" y2="397.95"/><line class="cls-1" x1="209.35" y1="615.15" x2="84.34" y2="618.56"/><line class="cls-1" x1="84.34" y1="618.56" x2="85.5" y2="654.64"/><line class="cls-1" x1="85.5" y1="654.64" x2="168.56" y2="652.34"/><line class="cls-1" x1="168.56" y1="652.34" x2="168.73" y2="658.35"/><line class="cls-1" x1="168.73" y1="658.35" x2="160.77" y2="658.59"/><line class="cls-1" x1="160.77" y1="658.59" x2="160.99" y2="666.79"/><line class="cls-1" x1="160.99" y1="666.79" x2="168.94" y2="666.62"/><line class="cls-1" x1="168.94" y1="666.62" x2="169.06" y2="671.24"/><line class="cls-1" x1="169.06" y1="671.24" x2="208.38" y2="670.21"/><line class="cls-1" x1="208.38" y1="670.21" x2="207.86" y2="651.34"/><line class="cls-1" x1="207.86" y1="651.34" x2="210.32" y2="651.25"/><line class="cls-1" x1="210.32" y1="651.25" x2="209.35" y2="615.15"/><line class="cls-1" x1="168.63" y1="706.66" x2="211.82" y2="705.56"/><line class="cls-1" x1="211.82" y1="705.56" x2="210.92" y2="670.14"/><line class="cls-1" x1="210.92" y1="670.14" x2="208.38" y2="670.21"/><line class="cls-1" x1="208.38" y1="670.21" x2="169.06" y2="671.24"/><line class="cls-1" x1="169.06" y1="671.24" x2="167.71" y2="671.28"/><line class="cls-1" x1="167.71" y1="671.28" x2="168.63" y2="706.66"/><line class="cls-1" x1="338.1" y1="594.42" x2="318.73" y2="594.94"/><line class="cls-1" x1="318.73" y1="594.94" x2="318.17" y2="575.08"/><line class="cls-1" x1="318.17" y1="575.08" x2="295.29" y2="575.75"/><line class="cls-1" x1="295.29" y1="575.75" x2="295.84" y2="595.64"/><line class="cls-1" x1="295.84" y1="595.64" x2="276.47" y2="596.16"/><line class="cls-1" x1="276.47" y1="596.16" x2="276.51" y2="597.62"/><line class="cls-1" x1="276.51" y1="597.62" x2="261.32" y2="597.96"/><line class="cls-1" x1="261.32" y1="597.96" x2="262.23" y2="631.15"/><line class="cls-1" x1="262.23" y1="631.15" x2="268.74" y2="631.08"/><line class="cls-1" x1="268.74" y1="631.08" x2="277.47" y2="630.83"/><line class="cls-1" x1="277.47" y1="630.83" x2="277.71" y2="639.12"/><line class="cls-1" x1="277.71" y1="639.12" x2="278.33" y2="660.41"/><line class="cls-1" x1="278.33" y1="660.41" x2="279.58" y2="703.66"/><line class="cls-1" x1="279.58" y1="703.66" x2="294.87" y2="703.21"/><line class="cls-1" x1="294.87" y1="703.21" x2="294.95" y2="707.02"/><line class="cls-1" x1="294.95" y1="707.02" x2="298.62" y2="706.93"/><line class="cls-1" x1="298.62" y1="706.93" x2="298.54" y2="704.1"/><line class="cls-1" x1="298.54" y1="704.1" x2="322.32" y2="703.5"/><line class="cls-1" x1="322.32" y1="703.5" x2="322.41" y2="706.34"/><line class="cls-1" x1="322.41" y1="706.34" x2="326.04" y2="706.23"/><line class="cls-1" x1="326.04" y1="706.23" x2="325.93" y2="702.37"/><line class="cls-1" x1="325.93" y1="702.37" x2="341.2" y2="701.96"/><line class="cls-1" x1="341.2" y1="701.96" x2="341.16" y2="700.56"/><line class="cls-1" x1="341.16" y1="700.56" x2="338.1" y2="594.42"/><line class="cls-1" x1="441.84" y1="517.43" x2="430.34" y2="518.95"/><line class="cls-1" x1="430.34" y1="518.95" x2="427.89" y2="501.69"/><line class="cls-1" x1="427.89" y1="501.69" x2="390.82" y2="507.18"/><line class="cls-1" x1="390.82" y1="507.18" x2="396.29" y2="544.57"/><line class="cls-1" x1="396.29" y1="544.57" x2="409.29" y2="542.61"/><line class="cls-1" x1="409.29" y1="542.61" x2="411.21" y2="554.4"/><line class="cls-1" x1="411.21" y1="554.4" x2="458.12" y2="547.08"/><line class="cls-1" x1="458.12" y1="547.08" x2="462.95" y2="546.36"/><line class="cls-1" x1="462.95" y1="546.36" x2="459.19" y2="521.93"/><line class="cls-1" x1="459.19" y1="521.93" x2="443.07" y2="524.2"/><line class="cls-1" x1="443.07" y1="524.2" x2="441.84" y2="517.43"/><line class="cls-1" x1="458.12" y1="547.08" x2="411.21" y2="554.4"/><line class="cls-1" x1="411.21" y1="554.4" x2="417.1" y2="590.34"/><line class="cls-1" x1="417.1" y1="590.34" x2="434.51" y2="587.5"/><line class="cls-1" x1="434.51" y1="587.5" x2="435.42" y2="593.02"/><line class="cls-1" x1="435.42" y1="593.02" x2="464.48" y2="588.56"/><line class="cls-1" x1="464.48" y1="588.56" x2="458.12" y2="547.08"/><line class="cls-1" x1="456.6" y1="701.03" x2="458.55" y2="771.33"/><line class="cls-1" x1="458.55" y1="771.33" x2="458.58" y2="772.23"/><line class="cls-1" x1="458.58" y1="772.23" x2="486.73" y2="771.45"/><line class="cls-1" x1="486.73" y1="771.45" x2="487.02" y2="771.45"/><line class="cls-1" x1="487.02" y1="771.45" x2="486.88" y2="766.44"/><line class="cls-1" x1="486.88" y1="766.44" x2="503.86" y2="765.97"/><line class="cls-1" x1="503.86" y1="765.97" x2="504" y2="770.97"/><line class="cls-1" x1="504" y1="770.97" x2="505.23" y2="770.94"/><line class="cls-1" x1="505.23" y1="770.94" x2="517.4" y2="770.6"/><line class="cls-1" x1="517.4" y1="770.6" x2="517.67" y2="770.59"/><line class="cls-1" x1="517.67" y1="770.59" x2="517.54" y2="765.59"/><line class="cls-1" x1="517.54" y1="765.59" x2="534.52" y2="765.12"/><line class="cls-1" x1="534.52" y1="765.12" x2="534.66" y2="770.13"/><line class="cls-1" x1="534.66" y1="770.13" x2="536.36" y2="770.08"/><line class="cls-1" x1="536.36" y1="770.08" x2="559.61" y2="769.44"/><line class="cls-1" x1="559.61" y1="769.44" x2="556.87" y2="668.38"/><line class="cls-1" x1="556.87" y1="668.38" x2="533.49" y2="669.04"/><line class="cls-1" x1="533.49" y1="669.04" x2="531.83" y2="669.09"/><line class="cls-1" x1="531.83" y1="669.09" x2="531.98" y2="674.1"/><line class="cls-1" x1="531.98" y1="674.1" x2="514.99" y2="674.58"/><line class="cls-1" x1="514.99" y1="674.58" x2="514.85" y2="669.57"/><line class="cls-1" x1="514.85" y1="669.57" x2="514.42" y2="669.58"/><line class="cls-1" x1="514.42" y1="669.58" x2="511.76" y2="669.66"/><line class="cls-1" x1="511.76" y1="669.66" x2="501.14" y2="669.96"/><line class="cls-1" x1="501.14" y1="669.96" x2="501.28" y2="674.96"/><line class="cls-1" x1="501.28" y1="674.96" x2="484.34" y2="675.44"/><line class="cls-1" x1="484.34" y1="675.44" x2="484.2" y2="670.44"/><line class="cls-1" x1="484.2" y1="670.44" x2="482.86" y2="670.47"/><line class="cls-1" x1="482.86" y1="670.47" x2="455.77" y2="671.24"/><line class="cls-1" x1="455.77" y1="671.24" x2="456.6" y2="701.03"/><line class="cls-1" x1="559.86" y1="579.17" x2="592.61" y2="578.22"/><line class="cls-1" x1="592.61" y1="578.22" x2="600.45" y2="577.99"/><line class="cls-1" x1="600.45" y1="577.99" x2="620.1" y2="577.42"/><line class="cls-1" x1="620.1" y1="577.42" x2="626.63" y2="577.31"/><line class="cls-1" x1="626.63" y1="577.31" x2="624.72" y2="510.47"/><line class="cls-1" x1="624.72" y1="510.47" x2="611.81" y2="510.83"/><line class="cls-1" x1="611.81" y1="510.83" x2="611.49" y2="510.84"/><line class="cls-1" x1="611.49" y1="510.84" x2="611.55" y2="512.85"/><line class="cls-1" x1="611.55" y1="512.85" x2="596.18" y2="513.27"/><line class="cls-1" x1="596.18" y1="513.27" x2="596.12" y2="511.27"/><line class="cls-1" x1="596.12" y1="511.27" x2="595.74" y2="511.28"/><line class="cls-1" x1="595.74" y1="511.28" x2="557.97" y2="512.33"/><line class="cls-1" x1="557.97" y1="512.33" x2="558.55" y2="532.56"/><line class="cls-1" x1="558.55" y1="532.56" x2="559.86" y2="579.17"/><line class="cls-1" x1="626.63" y1="577.31" x2="652.66" y2="576.6"/><line class="cls-1" x1="652.66" y1="576.6" x2="660.54" y2="576.39"/><line class="cls-1" x1="660.54" y1="576.39" x2="689.23" y2="575.61"/><line class="cls-1" x1="689.23" y1="575.61" x2="687.31" y2="508.74"/><line class="cls-1" x1="687.31" y1="508.74" x2="673.15" y2="509.13"/><line class="cls-1" x1="673.15" y1="509.13" x2="672.89" y2="509.14"/><line class="cls-1" x1="672.89" y1="509.14" x2="672.95" y2="511.14"/><line class="cls-1" x1="672.95" y1="511.14" x2="637.89" y2="512.11"/><line class="cls-1" x1="637.89" y1="512.11" x2="637.84" y2="510.11"/><line class="cls-1" x1="637.84" y1="510.11" x2="637.57" y2="510.12"/><line class="cls-1" x1="637.57" y1="510.12" x2="624.72" y2="510.47"/><line class="cls-1" x1="624.72" y1="510.47" x2="626.63" y2="577.31"/><line class="cls-1" x1="676.78" y1="428.16" x2="674.14" y2="387.41"/><line class="cls-1" x1="674.14" y1="387.41" x2="665.88" y2="388.02"/><line class="cls-1" x1="665.88" y1="388.02" x2="656.31" y2="388.79"/><line class="cls-1" x1="656.31" y1="388.79" x2="638.06" y2="390.15"/><line class="cls-1" x1="638.06" y1="390.15" x2="637.42" y2="390.24"/><line class="cls-1" x1="637.42" y1="390.24" x2="640.27" y2="430.79"/><line class="cls-1" x1="640.27" y1="430.79" x2="661.79" y2="429.28"/><line class="cls-1" x1="661.79" y1="429.28" x2="676.78" y2="428.16"/><line class="cls-1" x1="576.38" y1="370.32" x2="577.04" y2="378.22"/><line class="cls-1" x1="577.04" y1="378.22" x2="615.57" y2="376.5"/><line class="cls-1" x1="615.57" y1="376.5" x2="614.96" y2="361.3"/><line class="cls-1" x1="614.96" y1="361.3" x2="649.04" y2="360.12"/><line class="cls-1" x1="649.04" y1="360.12" x2="648.29" y2="340.75"/><line class="cls-1" x1="648.29" y1="340.75" x2="653.07" y2="340.58"/><line class="cls-1" x1="653.07" y1="340.58" x2="652.34" y2="331.53"/><line class="cls-1" x1="652.34" y1="331.53" x2="602.05" y2="332.02"/><line class="cls-1" x1="602.05" y1="332.02" x2="573.44" y2="332.3"/><line class="cls-1" x1="573.44" y1="332.3" x2="576.38" y2="370.32"/><line class="cls-1" x1="674.14" y1="387.41" x2="676.78" y2="428.16"/><line class="cls-1" x1="676.78" y1="428.16" x2="692.58" y2="427.01"/><line class="cls-1" x1="692.58" y1="427.01" x2="689.62" y2="386.32"/><line class="cls-1" x1="689.62" y1="386.32" x2="674.14" y2="387.41"/><line class="cls-1" x1="709.47" y1="384.92" x2="689.62" y2="386.32"/><line class="cls-1" x1="689.62" y1="386.32" x2="692.58" y2="427.01"/><line class="cls-1" x1="692.58" y1="427.01" x2="712.43" y2="425.56"/><line class="cls-1" x1="712.43" y1="425.56" x2="709.47" y2="384.92"/><line class="cls-1" x1="723.13" y1="383.96" x2="709.47" y2="384.92"/><line class="cls-1" x1="709.47" y1="384.92" x2="712.43" y2="425.56"/><line class="cls-1" x1="712.43" y1="425.56" x2="725.82" y2="424.59"/><line class="cls-1" x1="725.82" y1="424.59" x2="723.13" y2="383.96"/><line class="cls-1" x1="723.13" y1="383.96" x2="725.82" y2="424.59"/><line class="cls-1" x1="725.82" y1="424.59" x2="739.23" y2="423.66"/><line class="cls-1" x1="739.23" y1="423.66" x2="736.49" y2="383.06"/><line class="cls-1" x1="736.49" y1="383.06" x2="723.13" y2="383.96"/><line class="cls-1" x1="100.43" y1="312.7" x2=".21" y2="313.12"/></g></g></svg>