<?xml version="1.0" encoding="UTF-8"?><svg id="Layer_2" xmlns="http://www.w3.org/2000/svg" viewBox="0 0 980.88 826.56"><defs><style>.cls-1{fill:none;stroke:#000;stroke-linecap:round;stroke-linejoin:round;stroke-width:.25px;}.cls-2{fill-rule:evenodd;}</style></defs><g id="Layer_1-2"><g><line class="cls-1" x1="387.27" y1="376.41" x2="390.71" y2="374.92"/><line class="cls-1" x1="390.71" y1="374.92" x2="392.18" y2="378.31"/><line class="cls-1" x1="417.3" y1="377.67" x2="420.74" y2="376.18"/><line class="cls-1" x1="382.27" y1="357.85" x2="357.55" y2="367.56"/><line class="cls-1" x1="357.55" y1="367.56" x2="364.54" y2="385.36"/><line class="cls-1" x1="364.54" y1="385.36" x2="348.11" y2="391.49"/><line class="cls-1" x1="348.11" y1="391.49" x2="331.29" y2="346.43"/><line class="cls-1" x1="331.29" y1="346.43" x2="425.83" y2="309.29"/><line class="cls-1" x1="425.83" y1="309.29" x2="444.86" y2="357.73"/><line class="cls-1" x1="444.86" y1="357.73" x2="428.46" y2="364.18"/><line class="cls-1" x1="428.46" y1="364.18" x2="420.13" y2="342.98"/><line class="cls-1" x1="420.13" y1="342.98" x2="394.87" y2="352.9"/><line class="cls-1" x1="382.27" y1="357.85" x2="384.74" y2="364.15"/><line class="cls-1" x1="384.74" y1="364.15" x2="397.35" y2="359.19"/><line class="cls-1" x1="397.35" y1="359.19" x2="394.87" y2="352.9"/><line class="cls-1" x1="448.94" y1="368.03" x2="460.63" y2="397.74"/><line class="cls-1" x1="460.63" y1="397.74" x2="443.46" y2="404.49"/><line class="cls-1" x1="443.46" y1="404.49" x2="431.77" y2="374.78"/><line class="cls-1" x1="431.77" y1="374.78" x2="448.94" y2="368.03"/><line class="cls-1" x1="453.1" y1="358.32" x2="476.28" y2="348.42"/><line class="cls-1" x1="476.28" y1="348.42" x2="480.87" y2="359.15"/><line class="cls-1" x1="480.87" y1="359.15" x2="457.69" y2="369.06"/><line class="cls-1" x1="457.69" y1="369.06" x2="453.1" y2="358.32"/><line class="cls-1" x1="253.43" y1="555.58" x2="250.58" y2="576.4"/><line class="cls-1" x1="250.58" y1="576.4" x2="257.49" y2="577.35"/><line class="cls-1" x1="257.49" y1="577.35" x2="260.34" y2="556.53"/><line class="cls-1" x1="260.34" y1="556.53" x2="253.43" y2="555.58"/><line class="cls-1" x1="480.75" y1="364.84" x2="485.88" y2="346.59"/><line class="cls-1" x1="485.88" y1="346.59" x2="506.14" y2="337.74"/><line class="cls-1" x1="506.14" y1="337.74" x2="494.76" y2="366.91"/><line class="cls-1" x1="494.76" y1="366.91" x2="480.75" y2="364.84"/><line class="cls-1" x1="505.85" y1="365.98" x2="496.72" y2="391.08"/><line class="cls-1" x1="496.72" y1="391.08" x2="495.3" y2="399.35"/><line class="cls-1" x1="495.3" y1="399.35" x2="516.32" y2="402.98"/><line class="cls-1" x1="516.32" y1="402.98" x2="520.4" y2="392.79"/><line class="cls-1" x1="520.4" y1="392.79" x2="534.94" y2="395.65"/><line class="cls-1" x1="534.94" y1="395.65" x2="539.1" y2="374.46"/><line class="cls-1" x1="539.1" y1="374.46" x2="524.34" y2="372.7"/><line class="cls-1" x1="524.34" y1="372.7" x2="505.85" y2="365.98"/><line class="cls-1" x1="334.23" y1="405.13" x2="358.71" y2="405.13"/><line class="cls-1" x1="358.71" y1="405.13" x2="358.71" y2="419.39"/><line class="cls-1" x1="358.71" y1="419.39" x2="415.28" y2="421.77"/><line class="cls-1" x1="415.28" y1="421.77" x2="415.28" y2="415.59"/><line class="cls-1" x1="415.28" y1="415.59" x2="477.56" y2="417.25"/><line class="cls-1" x1="477.56" y1="417.25" x2="477.26" y2="424.37"/><line class="cls-1" x1="477.26" y1="424.37" x2="531.27" y2="426.64"/><line class="cls-1" x1="531.27" y1="426.64" x2="530.41" y2="447.19"/><line class="cls-1" x1="530.41" y1="447.19" x2="460.47" y2="444.26"/><line class="cls-1" x1="460.47" y1="444.26" x2="460.47" y2="453.14"/><line class="cls-1" x1="460.47" y1="453.14" x2="462.82" y2="453.14"/><line class="cls-1" x1="462.82" y1="453.14" x2="460.47" y2="500.77"/><line class="cls-1" x1="460.47" y1="500.77" x2="456.67" y2="500.58"/><line class="cls-1" x1="456.67" y1="500.58" x2="456.67" y2="510.12"/><line class="cls-1" x1="456.67" y1="510.12" x2="472.47" y2="510.12"/><line class="cls-1" x1="472.47" y1="510.12" x2="472.47" y2="517.96"/><line class="cls-1" x1="472.47" y1="517.96" x2="514.7" y2="519.48"/><line class="cls-1" x1="514.7" y1="519.48" x2="513.98" y2="539.3"/><line class="cls-1" x1="513.98" y1="539.3" x2="344.19" y2="533.22"/><line class="cls-1" x1="344.19" y1="533.22" x2="344.96" y2="511.85"/><line class="cls-1" x1="344.96" y1="511.85" x2="347.98" y2="511.85"/><line class="cls-1" x1="347.98" y1="511.85" x2="353.1" y2="471.75"/><line class="cls-1" x1="353.1" y1="471.75" x2="327.52" y2="467.29"/><line class="cls-1" x1="327.52" y1="467.29" x2="335.37" y2="418.41"/><line class="cls-1" x1="335.37" y1="418.41" x2="334.23" y2="405.13"/><line class="cls-1" x1="363.99" y1="440.16" x2="362.52" y2="485.56"/><line class="cls-1" x1="362.52" y1="485.56" x2="382.35" y2="486.21"/><line class="cls-1" x1="382.35" y1="486.21" x2="381.58" y2="509.96"/><line class="cls-1" x1="381.58" y1="509.96" x2="410.17" y2="510.89"/><line class="cls-1" x1="410.17" y1="510.89" x2="410.33" y2="505.83"/><line class="cls-1" x1="410.33" y1="505.83" x2="423.47" y2="505.83"/><line class="cls-1" x1="423.47" y1="505.83" x2="423.47" y2="499.25"/><line class="cls-1" x1="423.47" y1="499.25" x2="420.28" y2="499.25"/><line class="cls-1" x1="420.28" y1="499.25" x2="422.76" y2="452.38"/><line class="cls-1" x1="422.76" y1="452.38" x2="426.68" y2="452.38"/><line class="cls-1" x1="426.68" y1="452.38" x2="427.01" y2="442.2"/><line class="cls-1" x1="427.01" y1="442.2" x2="363.99" y2="440.16"/><line class="cls-1" x1="326.52" y1="473.83" x2="322.88" y2="495.33"/><line class="cls-1" x1="322.88" y1="495.33" x2="343.03" y2="498.75"/><line class="cls-1" x1="343.03" y1="498.75" x2="346.68" y2="477.25"/><line class="cls-1" x1="346.68" y1="477.25" x2="326.52" y2="473.83"/><line class="cls-1" x1="415.92" y1="313.18" x2="405.81" y2="287.43"/><line class="cls-1" x1="405.81" y1="287.43" x2="412.92" y2="284.64"/><line class="cls-1" x1="412.92" y1="284.64" x2="395.48" y2="240.22"/><line class="cls-1" x1="395.48" y1="240.22" x2="388.36" y2="243.02"/><line class="cls-1" x1="388.36" y1="243.02" x2="380.01" y2="221.76"/><line class="cls-1" x1="380.01" y1="221.76" x2="427.87" y2="200.86"/><line class="cls-1" x1="427.87" y1="200.86" x2="450.81" y2="187.98"/><line class="cls-1" x1="450.81" y1="187.98" x2="474.25" y2="177.58"/><line class="cls-1" x1="474.25" y1="177.58" x2="467.63" y2="160.73"/><line class="cls-1" x1="467.63" y1="160.73" x2="471.01" y2="159.4"/><line class="cls-1" x1="471.01" y1="159.4" x2="467.17" y2="149.61"/><line class="cls-1" x1="467.17" y1="149.61" x2="467.92" y2="147.93"/><line class="cls-1" x1="467.92" y1="147.93" x2="465.34" y2="142.49"/><line class="cls-1" x1="465.34" y1="142.49" x2="471.71" y2="139.47"/><line class="cls-1" x1="471.71" y1="139.47" x2="468.89" y2="131.55"/><line class="cls-1" x1="468.89" y1="131.55" x2="473.19" y2="127.25"/><line class="cls-1" x1="473.19" y1="127.25" x2="491.24" y2="119.82"/><line class="cls-1" x1="491.24" y1="119.82" x2="495.06" y2="127.28"/><line class="cls-1" x1="495.06" y1="127.28" x2="511.68" y2="119.82"/><line class="cls-1" x1="511.68" y1="119.82" x2="543.57" y2="198.7"/><line class="cls-1" x1="543.57" y1="198.7" x2="526.88" y2="206.45"/><line class="cls-1" x1="526.88" y1="206.45" x2="531.71" y2="218.2"/><line class="cls-1" x1="531.71" y1="218.2" x2="527.87" y2="230.57"/><line class="cls-1" x1="527.87" y1="230.57" x2="539.75" y2="261.07"/><line class="cls-1" x1="539.75" y1="261.07" x2="424.52" y2="305.95"/><line class="cls-1" x1="424.52" y1="305.95" x2="425.83" y2="309.29"/><line class="cls-1" x1="415.54" y1="228.9" x2="435.39" y2="278.53"/><line class="cls-1" x1="435.39" y1="278.53" x2="461.65" y2="268.03"/><line class="cls-1" x1="461.65" y1="268.03" x2="442.97" y2="218.59"/><line class="cls-1" x1="442.97" y1="218.59" x2="415.54" y2="228.9"/><line class="cls-1" x1="463.98" y1="206.87" x2="495.17" y2="194.51"/><line class="cls-1" x1="495.17" y1="194.51" x2="506.86" y2="224"/><line class="cls-1" x1="506.86" y1="224" x2="498.74" y2="227.22"/><line class="cls-1" x1="498.74" y1="227.22" x2="507.36" y2="248.98"/><line class="cls-1" x1="507.36" y1="248.98" x2="481.14" y2="259.37"/><line class="cls-1" x1="481.14" y1="259.37" x2="479.99" y2="256.48"/><line class="cls-1" x1="479.99" y1="256.48" x2="483.43" y2="255.12"/><line class="cls-1" x1="483.43" y1="255.12" x2="478.85" y2="243.55"/><line class="cls-1" x1="478.85" y1="243.55" x2="476.63" y2="244.43"/><line class="cls-1" x1="476.63" y1="244.43" x2="469.72" y2="227"/><line class="cls-1" x1="469.72" y1="227" x2="463.98" y2="206.87"/><line class="cls-1" x1="535.56" y1="109.37" x2="519.86" y2="112.92"/><line class="cls-1" x1="519.86" y1="112.92" x2="528.69" y2="134.82"/><line class="cls-1" x1="528.69" y1="134.82" x2="542.9" y2="128.17"/><line class="cls-1" x1="542.9" y1="128.17" x2="549.38" y2="126.48"/><line class="cls-1" x1="549.38" y1="126.48" x2="545.19" y2="106.16"/><line class="cls-1" x1="545.19" y1="106.16" x2="539.67" y2="93.66"/><line class="cls-1" x1="539.67" y1="93.66" x2="527.33" y2="99.12"/><line class="cls-1" x1="527.33" y1="99.12" x2="530.39" y2="106.04"/><line class="cls-1" x1="530.39" y1="106.04" x2="534.81" y2="106.04"/><line class="cls-1" x1="534.81" y1="106.04" x2="535.56" y2="109.37"/><line class="cls-1" x1="439.41" y1="558.36" x2="467.34" y2="559.36"/><line class="cls-1" x1="467.34" y1="559.36" x2="466.35" y2="587.05"/><line class="cls-1" x1="466.35" y1="587.05" x2="438.42" y2="586.05"/><line class="cls-1" x1="438.42" y1="586.05" x2="439.41" y2="558.36"/><line class="cls-1" x1="481.52" y1="580.26" x2="502.43" y2="580.26"/><line class="cls-1" x1="502.43" y1="580.26" x2="502.43" y2="632.4"/><line class="cls-1" x1="502.43" y1="632.4" x2="487.99" y2="632.4"/><line class="cls-1" x1="487.99" y1="632.4" x2="485.1" y2="616.72"/><line class="cls-1" x1="485.1" y1="616.72" x2="485.1" y2="597.73"/><line class="cls-1" x1="485.1" y1="597.73" x2="481.6" y2="597.73"/><line class="cls-1" x1="481.6" y1="597.73" x2="481.52" y2="580.26"/><line class="cls-1" x1="418.8" y1="557.92" x2="420.7" y2="584.07"/><line class="cls-1" x1="420.7" y1="584.07" x2="398.12" y2="584.07"/><line class="cls-1" x1="398.12" y1="584.07" x2="398.12" y2="559.43"/><line class="cls-1" x1="398.12" y1="559.43" x2="418.8" y2="557.92"/><line class="cls-1" x1="431.53" y1="651.9" x2="430.92" y2="661"/><line class="cls-1" x1="430.92" y1="661" x2="369.97" y2="656.88"/><line class="cls-1" x1="369.97" y1="656.88" x2="372.58" y2="618.31"/><line class="cls-1" x1="372.58" y1="618.31" x2="433.53" y2="622.43"/><line class="cls-1" x1="433.53" y1="622.43" x2="432.91" y2="631.54"/><line class="cls-1" x1="431.53" y1="651.9" x2="439.6" y2="652.44"/><line class="cls-1" x1="439.6" y1="652.44" x2="444.88" y2="647.16"/><line class="cls-1" x1="444.88" y1="647.16" x2="445.19" y2="642.59"/><line class="cls-1" x1="432.91" y1="631.54" x2="440.98" y2="632.08"/><line class="cls-1" x1="440.98" y1="632.08" x2="445.5" y2="638.03"/><line class="cls-1" x1="445.5" y1="638.03" x2="445.19" y2="642.59"/><line class="cls-1" x1="439.31" y1="600.68" x2="471.16" y2="600.68"/><line class="cls-1" x1="471.16" y1="600.68" x2="471.16" y2="616.6"/><line class="cls-1" x1="471.16" y1="616.6" x2="439.31" y2="616.6"/><line class="cls-1" x1="439.31" y1="616.6" x2="439.31" y2="600.68"/><line class="cls-1" x1="363.49" y1="594.97" x2="353.5" y2="615.89"/><line class="cls-1" x1="353.5" y1="615.89" x2="365.22" y2="621.48"/><line class="cls-1" x1="365.22" y1="621.48" x2="375.2" y2="600.56"/><line class="cls-1" x1="375.2" y1="600.56" x2="363.49" y2="594.97"/><line class="cls-1" x1="469.26" y1="632.05" x2="474.49" y2="651.31"/><line class="cls-1" x1="474.49" y1="651.31" x2="487.73" y2="647.71"/><line class="cls-1" x1="487.73" y1="647.71" x2="482.5" y2="628.46"/><line class="cls-1" x1="482.5" y1="628.46" x2="469.26" y2="632.05"/><line class="cls-1" x1="566.18" y1="402.47" x2="566.18" y2="433.13"/><line class="cls-1" x1="566.18" y1="433.13" x2="577.59" y2="433.13"/><line class="cls-1" x1="577.59" y1="433.13" x2="577.59" y2="402.47"/><line class="cls-1" x1="577.59" y1="402.47" x2="566.18" y2="402.47"/><line class="cls-1" x1="577.59" y1="433.13" x2="589" y2="433.13"/><line class="cls-1" x1="589" y1="433.13" x2="589" y2="402.47"/><line class="cls-1" x1="589" y1="402.47" x2="577.59" y2="402.47"/><line class="cls-1" x1="589" y1="433.13" x2="620.85" y2="433.13"/><line class="cls-1" x1="620.85" y1="433.13" x2="620.85" y2="417.92"/><line class="cls-1" x1="620.85" y1="417.92" x2="589" y2="417.92"/><line class="cls-1" x1="620.85" y1="417.92" x2="620.85" y2="402.71"/><line class="cls-1" x1="620.85" y1="402.71" x2="589" y2="402.71"/><line class="cls-1" x1="576.66" y1="335.12" x2="576.66" y2="366.21"/><line class="cls-1" x1="576.66" y1="366.21" x2="593.48" y2="366.21"/><line class="cls-1" x1="593.48" y1="366.21" x2="593.48" y2="335.12"/><line class="cls-1" x1="593.48" y1="335.12" x2="576.66" y2="335.12"/><line class="cls-1" x1="593.48" y1="335.12" x2="624.58" y2="335.12"/><line class="cls-1" x1="624.58" y1="335.12" x2="624.58" y2="366.21"/><line class="cls-1" x1="624.58" y1="366.21" x2="593.48" y2="366.21"/><line class="cls-1" x1="630.65" y1="250.8" x2="591.96" y2="248.86"/><line class="cls-1" x1="591.96" y1="248.86" x2="591.49" y2="258.11"/><line class="cls-1" x1="591.49" y1="258.11" x2="630.19" y2="260.06"/><line class="cls-1" x1="630.19" y1="260.06" x2="630.65" y2="250.8"/><line class="cls-1" x1="591.49" y1="258.11" x2="591.03" y2="267.37"/><line class="cls-1" x1="591.03" y1="267.37" x2="629.72" y2="269.31"/><line class="cls-1" x1="629.72" y1="269.31" x2="630.19" y2="260.06"/><line class="cls-1" x1="591.03" y1="267.37" x2="590.66" y2="274.72"/><line class="cls-1" x1="590.66" y1="274.72" x2="629.35" y2="276.67"/><line class="cls-1" x1="629.35" y1="276.67" x2="629.72" y2="269.31"/><line class="cls-1" x1="590.66" y1="274.72" x2="590.29" y2="282.07"/><line class="cls-1" x1="590.29" y1="282.07" x2="628.98" y2="284.02"/><line class="cls-1" x1="628.98" y1="284.02" x2="629.35" y2="276.67"/><line class="cls-1" x1="590.29" y1="282.07" x2="589.92" y2="289.42"/><line class="cls-1" x1="589.92" y1="289.42" x2="628.61" y2="291.37"/><line class="cls-1" x1="628.61" y1="291.37" x2="628.98" y2="284.02"/><line class="cls-1" x1="585.07" y1="335.12" x2="585.07" y2="325.83"/><line class="cls-1" x1="585.07" y1="325.83" x2="627.74" y2="327.42"/><line class="cls-1" x1="627.74" y1="327.42" x2="627.74" y2="336.73"/><line class="cls-1" x1="627.74" y1="336.73" x2="624.58" y2="336.73"/><line class="cls-1" x1="627.74" y1="327.42" x2="628.16" y2="315.93"/><line class="cls-1" x1="628.16" y1="315.93" x2="587.1" y2="314.41"/><line class="cls-1" x1="587.1" y1="314.41" x2="586.67" y2="325.89"/><line class="cls-1" x1="587.1" y1="314.41" x2="587.1" y2="301.47"/><line class="cls-1" x1="587.1" y1="301.47" x2="626.74" y2="301.47"/><line class="cls-1" x1="626.74" y1="301.47" x2="626.74" y2="315.88"/><line class="cls-1" x1="587.1" y1="301.47" x2="587.1" y2="289.42"/><line class="cls-1" x1="587.1" y1="289.42" x2="589.92" y2="289.42"/><line class="cls-1" x1="628.61" y1="291.37" x2="628.12" y2="301.3"/><line class="cls-1" x1="628.12" y1="301.3" x2="626.74" y2="301.47"/><line class="cls-1" x1="591.31" y1="261.79" x2="572.52" y2="260.85"/><line class="cls-1" x1="572.52" y1="260.85" x2="572.52" y2="290.29"/><line class="cls-1" x1="572.52" y1="290.29" x2="587.1" y2="291.95"/><line class="cls-1" x1="563.91" y1="202.24" x2="563.91" y2="235.52"/><line class="cls-1" x1="563.91" y1="235.52" x2="633.08" y2="235.52"/><line class="cls-1" x1="633.08" y1="235.52" x2="633.08" y2="129.08"/><line class="cls-1" x1="633.08" y1="129.08" x2="594.89" y2="129.08"/><line class="cls-1" x1="594.89" y1="129.08" x2="594.89" y2="159.47"/><line class="cls-1" x1="563.91" y1="202.24" x2="574.3" y2="202.24"/><line class="cls-1" x1="574.3" y1="202.24" x2="574.3" y2="213.81"/><line class="cls-1" x1="574.3" y1="213.81" x2="584" y2="213.81"/><line class="cls-1" x1="584" y1="213.81" x2="584" y2="207.87"/><line class="cls-1" x1="584" y1="207.87" x2="601.23" y2="207.87"/><line class="cls-1" x1="601.23" y1="207.87" x2="601.23" y2="213.81"/><line class="cls-1" x1="601.23" y1="213.81" x2="606.98" y2="213.81"/><line class="cls-1" x1="606.98" y1="213.81" x2="606.98" y2="159.47"/><line class="cls-1" x1="606.98" y1="159.47" x2="594.89" y2="159.47"/><line class="cls-1" x1="583.39" y1="159.47" x2="583.39" y2="146.33"/><line class="cls-1" x1="583.39" y1="146.33" x2="583.39" y2="129.08"/><line class="cls-1" x1="583.39" y1="129.08" x2="560.3" y2="129.08"/><line class="cls-1" x1="560.3" y1="129.08" x2="560.3" y2="146.33"/><line class="cls-1" x1="560.3" y1="146.33" x2="563.91" y2="146.33"/><line class="cls-1" x1="563.91" y1="146.33" x2="563.91" y2="159.47"/><line class="cls-1" x1="563.91" y1="159.47" x2="560.3" y2="159.47"/><line class="cls-1" x1="560.3" y1="159.47" x2="560.3" y2="197.09"/><line class="cls-1" x1="560.3" y1="197.09" x2="578.79" y2="197.09"/><line class="cls-1" x1="578.79" y1="197.09" x2="578.79" y2="181.41"/><line class="cls-1" x1="578.79" y1="181.41" x2="582.42" y2="181.41"/><line class="cls-1" x1="582.42" y1="181.41" x2="583.39" y2="159.47"/><line class="cls-1" x1="578.79" y1="181.41" x2="560.3" y2="181.41"/><line class="cls-1" x1="563.91" y1="159.47" x2="583.39" y2="159.47"/><line class="cls-1" x1="563.91" y1="146.33" x2="583.39" y2="146.33"/><line class="cls-1" x1="574.3" y1="213.81" x2="563.91" y2="213.81"/><line class="cls-1" x1="584" y1="213.81" x2="584" y2="235.52"/><line class="cls-1" x1="601.23" y1="213.81" x2="601.23" y2="235.52"/><line class="cls-1" x1="606.98" y1="213.81" x2="633.08" y2="213.81"/><line class="cls-1" x1="606.98" y1="203.51" x2="633.08" y2="203.51"/><line class="cls-1" x1="606.98" y1="173.6" x2="633.08" y2="173.6"/><line class="cls-1" x1="606.98" y1="159.47" x2="633.08" y2="159.47"/><line class="cls-1" x1="576.36" y1="402.47" x2="577.35" y2="380.99"/><line class="cls-1" x1="577.35" y1="380.99" x2="595.84" y2="381.84"/><line class="cls-1" x1="595.84" y1="381.84" x2="594.88" y2="402.71"/><line class="cls-1" x1="595.84" y1="381.84" x2="596.02" y2="378.01"/><line class="cls-1" x1="596.02" y1="378.01" x2="623.24" y2="379.27"/><line class="cls-1" x1="623.24" y1="379.27" x2="622.42" y2="397.02"/><line class="cls-1" x1="622.42" y1="397.02" x2="595.14" y2="397.02"/><line class="cls-1" x1="571.06" y1="455.47" x2="571.06" y2="437.97"/><line class="cls-1" x1="571.06" y1="437.97" x2="620.58" y2="437.97"/><line class="cls-1" x1="620.58" y1="437.97" x2="620.58" y2="455.47"/><line class="cls-1" x1="620.58" y1="455.47" x2="571.06" y2="455.47"/><line class="cls-1" x1="620.58" y1="455.47" x2="620.58" y2="475.79"/><line class="cls-1" x1="620.58" y1="475.79" x2="580.24" y2="475.79"/><line class="cls-1" x1="580.24" y1="475.79" x2="580.24" y2="455.47"/><line class="cls-1" x1="600.41" y1="475.79" x2="600.41" y2="483.22"/><line class="cls-1" x1="600.41" y1="483.22" x2="620.58" y2="483.22"/><line class="cls-1" x1="620.58" y1="483.22" x2="620.58" y2="475.79"/><line class="cls-1" x1="619.36" y1="483.22" x2="618.2" y2="514.58"/><line class="cls-1" x1="618.2" y1="514.58" x2="593.43" y2="513.67"/><line class="cls-1" x1="593.43" y1="513.67" x2="594.58" y2="482.3"/><line class="cls-1" x1="594.58" y1="482.3" x2="600.41" y2="482.3"/><line class="cls-1" x1="577.93" y1="485.03" x2="577.93" y2="481.57"/><line class="cls-1" x1="577.93" y1="481.57" x2="591.13" y2="481.57"/><line class="cls-1" x1="591.13" y1="481.57" x2="591.13" y2="498.57"/><line class="cls-1" x1="591.13" y1="498.57" x2="579.58" y2="498.57"/><line class="cls-1" x1="579.58" y1="498.57" x2="579.58" y2="512.6"/><line class="cls-1" x1="579.58" y1="512.6" x2="547.39" y2="510.62"/><line class="cls-1" x1="547.39" y1="510.62" x2="553.66" y2="482.89"/><line class="cls-1" x1="553.66" y1="482.89" x2="577.93" y2="485.03"/><line class="cls-1" x1="554.68" y1="602" x2="535.08" y2="602"/><line class="cls-1" x1="535.08" y1="602" x2="534.05" y2="561.66"/><line class="cls-1" x1="534.05" y1="561.66" x2="565.91" y2="562.34"/><line class="cls-1" x1="565.91" y1="562.34" x2="569.69" y2="565.1"/><line class="cls-1" x1="569.69" y1="565.1" x2="569.69" y2="588.59"/><line class="cls-1" x1="569.69" y1="588.59" x2="554.68" y2="588.59"/><line class="cls-1" x1="554.68" y1="588.59" x2="554.68" y2="602"/><line class="cls-1" x1="537.6" y1="619.83" x2="536.02" y2="639.24"/><line class="cls-1" x1="536.02" y1="639.24" x2="555.23" y2="639.24"/><line class="cls-1" x1="555.23" y1="639.24" x2="555.23" y2="619.83"/><line class="cls-1" x1="555.23" y1="619.83" x2="537.6" y2="619.83"/><line class="cls-1" x1="584.15" y1="572.68" x2="582.76" y2="623.99"/><line class="cls-1" x1="582.76" y1="623.99" x2="610.49" y2="623.99"/><line class="cls-1" x1="610.49" y1="623.99" x2="611.86" y2="573.43"/><line class="cls-1" x1="611.86" y1="573.43" x2="584.15" y2="572.68"/><line class="cls-1" x1="582.74" y1="632.61" x2="609.36" y2="632.61"/><line class="cls-1" x1="609.36" y1="632.61" x2="607.94" y2="671.12"/><line class="cls-1" x1="607.94" y1="671.12" x2="580.36" y2="668.5"/><line class="cls-1" x1="580.36" y1="668.5" x2="582.74" y2="632.61"/><line class="cls-1" x1="434.86" y1="682.34" x2="439.14" y2="707.06"/><line class="cls-1" x1="439.14" y1="707.06" x2="486.92" y2="696.36"/><line class="cls-1" x1="486.92" y1="696.36" x2="480.47" y2="667.58"/><line class="cls-1" x1="480.47" y1="667.58" x2="454.76" y2="673.34"/><line class="cls-1" x1="454.76" y1="673.34" x2="455.69" y2="678.73"/><line class="cls-1" x1="455.69" y1="678.73" x2="434.86" y2="682.34"/><line class="cls-1" x1="343.53" y1="625.34" x2="339.77" y2="635.84"/><line class="cls-1" x1="339.77" y1="635.84" x2="339.77" y2="659.41"/><line class="cls-1" x1="339.77" y1="659.41" x2="358.19" y2="657.63"/><line class="cls-1" x1="358.19" y1="657.63" x2="362.74" y2="630.49"/><line class="cls-1" x1="362.74" y1="630.49" x2="343.53" y2="625.34"/><line class="cls-1" x1="468.14" y1="738.44" x2="492.78" y2="734.33"/><line class="cls-1" x1="492.78" y1="734.33" x2="497.57" y2="750.76"/><line class="cls-1" x1="497.57" y1="750.76" x2="471.46" y2="758.38"/><line class="cls-1" x1="471.46" y1="758.38" x2="468.14" y2="738.44"/><line class="cls-1" x1="439.47" y1="755.83" x2="435.18" y2="729.26"/><line class="cls-1" x1="435.18" y1="729.26" x2="407.04" y2="733.8"/><line class="cls-1" x1="407.04" y1="733.8" x2="412.23" y2="771.52"/><line class="cls-1" x1="412.23" y1="771.52" x2="435.03" y2="768.38"/><line class="cls-1" x1="435.03" y1="768.38" x2="433.44" y2="756.81"/><line class="cls-1" x1="433.44" y1="756.81" x2="439.47" y2="755.83"/><line class="cls-1" x1="412.23" y1="771.52" x2="418.75" y2="818.89"/><line class="cls-1" x1="418.75" y1="818.89" x2="441.55" y2="815.76"/><line class="cls-1" x1="441.55" y1="815.76" x2="435.03" y2="768.38"/><line class="cls-1" x1="446.07" y1="790.89" x2="474.14" y2="786.1"/><line class="cls-1" x1="474.14" y1="786.1" x2="478.28" y2="810.39"/><line class="cls-1" x1="478.28" y1="810.39" x2="450.22" y2="815.18"/><line class="cls-1" x1="450.22" y1="815.18" x2="446.07" y2="790.89"/><line class="cls-1" x1="481.67" y1="793.97" x2="507" y2="789.86"/><line class="cls-1" x1="507" y1="789.86" x2="511.3" y2="816.4"/><line class="cls-1" x1="511.3" y1="816.4" x2="485.97" y2="820.51"/><line class="cls-1" x1="485.97" y1="820.51" x2="481.67" y2="793.97"/><line class="cls-1" x1="577.4" y1="31.5" x2="581.68" y2="5.35"/><line class="cls-1" x1="581.68" y1="5.35" x2="610.92" y2=".12"/><line class="cls-1" x1="610.92" y1=".12" x2="621.85" y2="22.94"/><line class="cls-1" x1="621.85" y1="22.94" x2="633.26" y2="80.94"/><line class="cls-1" x1="633.26" y1="80.94" x2="582.39" y2="95.68"/><line class="cls-1" x1="582.39" y1="95.68" x2="576.39" y2="74.95"/><line class="cls-1" x1="576.39" y1="74.95" x2="604.43" y2="66.82"/><line class="cls-1" x1="604.43" y1="66.82" x2="600.22" y2="29.6"/><line class="cls-1" x1="600.22" y1="29.6" x2="577.4" y2="31.5"/><line class="cls-1" x1="640.42" y1="5.57" x2="643.28" y2="22.44"/><line class="cls-1" x1="643.28" y1="22.44" x2="667.52" y2="22.44"/><line class="cls-1" x1="667.52" y1="22.44" x2="665.77" y2="1.28"/><line class="cls-1" x1="665.77" y1="1.28" x2="640.42" y2="5.57"/><line class="cls-1" x1="647.72" y1="79.35" x2="686.23" y2="72.22"/><line class="cls-1" x1="686.23" y1="72.22" x2="693.93" y2="96.47"/><line class="cls-1" x1="693.93" y1="96.47" x2="646.86" y2="99.89"/><line class="cls-1" x1="646.86" y1="99.89" x2="647.72" y2="79.35"/><line class="cls-1" x1="642.45" y1="128.72" x2="643.69" y2="107.13"/><line class="cls-1" x1="643.69" y1="107.13" x2="670.92" y2="105.2"/><line class="cls-1" x1="670.92" y1="105.2" x2="673.26" y2="125.01"/><line class="cls-1" x1="673.26" y1="125.01" x2="642.45" y2="128.72"/><line class="cls-1" x1="644.35" y1="128.49" x2="644.35" y2="152.54"/><line class="cls-1" x1="644.35" y1="152.54" x2="686.28" y2="152.54"/><line class="cls-1" x1="686.28" y1="152.54" x2="685.18" y2="123.11"/><line class="cls-1" x1="685.18" y1="123.11" x2="673.09" y2="123.56"/><line class="cls-1" x1="644.35" y1="152.54" x2="644.35" y2="167.81"/><line class="cls-1" x1="644.35" y1="167.81" x2="664.96" y2="168.5"/><line class="cls-1" x1="664.96" y1="168.5" x2="665.14" y2="163.13"/><line class="cls-1" x1="665.14" y1="163.13" x2="673.9" y2="163.13"/><line class="cls-1" x1="673.9" y1="163.13" x2="676.52" y2="152.54"/><line class="cls-1" x1="644.35" y1="167.81" x2="643.47" y2="194.31"/><line class="cls-1" x1="643.47" y1="194.31" x2="671.17" y2="195.24"/><line class="cls-1" x1="671.17" y1="195.24" x2="671.39" y2="188.84"/><line class="cls-1" x1="671.39" y1="188.84" x2="689.48" y2="188.84"/><line class="cls-1" x1="689.48" y1="188.84" x2="689.48" y2="168.5"/><line class="cls-1" x1="689.48" y1="168.5" x2="664.96" y2="168.5"/><line class="cls-1" x1="689.48" y1="168.5" x2="720.02" y2="170.87"/><line class="cls-1" x1="720.02" y1="170.87" x2="717.05" y2="190.35"/><line class="cls-1" x1="717.05" y1="190.35" x2="689.48" y2="188.84"/><line class="cls-1" x1="671.17" y1="195.24" x2="671.17" y2="211.64"/><line class="cls-1" x1="671.17" y1="211.64" x2="685.69" y2="211.64"/><line class="cls-1" x1="685.69" y1="211.64" x2="686.68" y2="219.4"/><line class="cls-1" x1="686.68" y1="219.4" x2="716.72" y2="221.55"/><line class="cls-1" x1="716.72" y1="221.55" x2="713.25" y2="243.33"/><line class="cls-1" x1="713.25" y1="243.33" x2="711.16" y2="256.5"/><line class="cls-1" x1="711.16" y1="256.5" x2="688" y2="257.53"/><line class="cls-1" x1="688" y1="257.53" x2="688" y2="274.27"/><line class="cls-1" x1="688" y1="274.27" x2="715.92" y2="274.27"/><line class="cls-1" x1="715.92" y1="274.27" x2="715.92" y2="287.94"/><line class="cls-1" x1="715.92" y1="287.94" x2="638.48" y2="287.94"/><line class="cls-1" x1="638.48" y1="287.94" x2="642.29" y2="232.04"/><line class="cls-1" x1="642.29" y1="232.04" x2="643.47" y2="194.31"/><line class="cls-1" x1="667.4" y1="230.89" x2="667.4" y2="239.41"/><line class="cls-1" x1="667.4" y1="239.41" x2="687.61" y2="240.88"/><line class="cls-1" x1="687.61" y1="240.88" x2="688.75" y2="232.66"/><line class="cls-1" x1="688.75" y1="232.66" x2="674.52" y2="230.89"/><line class="cls-1" x1="674.52" y1="230.89" x2="667.4" y2="230.89"/><line class="cls-1" x1="665.26" y1="251.76" x2="665.26" y2="273.64"/><line class="cls-1" x1="665.26" y1="273.64" x2="670.7" y2="273.64"/><line class="cls-1" x1="670.7" y1="273.64" x2="670.7" y2="251.76"/><line class="cls-1" x1="670.7" y1="251.76" x2="665.26" y2="251.76"/><line class="cls-1" x1="717.05" y1="190.35" x2="715.74" y2="214.27"/><line class="cls-1" x1="715.74" y1="214.27" x2="685.69" y2="211.64"/><line class="cls-1" x1="638.48" y1="287.94" x2="638.48" y2="297.52"/><line class="cls-1" x1="638.48" y1="297.52" x2="670.35" y2="297.52"/><line class="cls-1" x1="670.35" y1="297.52" x2="670.35" y2="287.94"/><line class="cls-1" x1="638.48" y1="297.52" x2="638.48" y2="314.99"/><line class="cls-1" x1="638.48" y1="314.99" x2="676.81" y2="313.34"/><line class="cls-1" x1="676.81" y1="313.34" x2="676.81" y2="301.37"/><line class="cls-1" x1="676.81" y1="301.37" x2="669.25" y2="301.37"/><line class="cls-1" x1="669.25" y1="301.37" x2="669.25" y2="297.52"/><line class="cls-1" x1="638.48" y1="314.99" x2="637.47" y2="339.89"/><line class="cls-1" x1="637.47" y1="339.89" x2="670.62" y2="339.89"/><line class="cls-1" x1="670.62" y1="339.89" x2="670.62" y2="335.35"/><line class="cls-1" x1="670.62" y1="335.35" x2="676.81" y2="335.35"/><line class="cls-1" x1="676.81" y1="335.35" x2="676.81" y2="313.34"/><line class="cls-1" x1="684.1" y1="292.02" x2="713.68" y2="290.78"/><line class="cls-1" x1="713.68" y1="290.78" x2="714.58" y2="312.4"/><line class="cls-1" x1="714.58" y1="312.4" x2="685.01" y2="313.63"/><line class="cls-1" x1="685.01" y1="313.63" x2="684.1" y2="292.02"/><line class="cls-1" x1="716.84" y1="293.26" x2="716.84" y2="336.17"/><line class="cls-1" x1="716.84" y1="336.17" x2="735.82" y2="336.17"/><line class="cls-1" x1="735.82" y1="336.17" x2="735.82" y2="311.41"/><line class="cls-1" x1="735.82" y1="311.41" x2="728.94" y2="311.41"/><line class="cls-1" x1="728.94" y1="311.41" x2="728.94" y2="293.26"/><line class="cls-1" x1="728.94" y1="293.26" x2="716.84" y2="293.26"/><line class="cls-1" x1="634.82" y1="366.26" x2="634.82" y2="392.8"/><line class="cls-1" x1="634.82" y1="392.8" x2="662.16" y2="394.39"/><line class="cls-1" x1="662.16" y1="394.39" x2="662.74" y2="384.27"/><line class="cls-1" x1="662.74" y1="384.27" x2="654.81" y2="383.81"/><line class="cls-1" x1="654.81" y1="383.81" x2="654.81" y2="366.26"/><line class="cls-1" x1="654.81" y1="366.26" x2="634.82" y2="366.26"/><line class="cls-1" x1="634.82" y1="392.8" x2="634.16" y2="404.3"/><line class="cls-1" x1="634.16" y1="404.3" x2="665.34" y2="406.11"/><line class="cls-1" x1="665.34" y1="406.11" x2="666" y2="394.61"/><line class="cls-1" x1="666" y1="394.61" x2="662.16" y2="394.39"/><line class="cls-1" x1="634.16" y1="404.3" x2="633.19" y2="420.97"/><line class="cls-1" x1="633.19" y1="420.97" x2="664.37" y2="422.77"/><line class="cls-1" x1="664.37" y1="422.77" x2="665.34" y2="406.11"/><line class="cls-1" x1="633.19" y1="420.97" x2="633.19" y2="429.99"/><line class="cls-1" x1="633.19" y1="429.99" x2="664.01" y2="431.23"/><line class="cls-1" x1="664.01" y1="431.23" x2="664.37" y2="422.77"/><line class="cls-1" x1="633.19" y1="429.99" x2="632.48" y2="447.73"/><line class="cls-1" x1="632.48" y1="447.73" x2="663.3" y2="448.97"/><line class="cls-1" x1="663.3" y1="448.97" x2="664.01" y2="431.23"/><line class="cls-1" x1="632.48" y1="447.73" x2="631.74" y2="466.01"/><line class="cls-1" x1="631.74" y1="466.01" x2="662.57" y2="467.25"/><line class="cls-1" x1="662.57" y1="467.25" x2="663.3" y2="448.97"/><line class="cls-1" x1="630.99" y1="475.41" x2="629.04" y2="510.14"/><line class="cls-1" x1="629.04" y1="510.14" x2="667.9" y2="510.71"/><line class="cls-1" x1="667.9" y1="510.71" x2="668.93" y2="485.03"/><line class="cls-1" x1="668.93" y1="485.03" x2="662.17" y2="485.03"/><line class="cls-1" x1="662.17" y1="485.03" x2="662.17" y2="475.06"/><line class="cls-1" x1="662.17" y1="475.06" x2="630.99" y2="475.41"/><line class="cls-1" x1="629.91" y1="494.54" x2="668.52" y2="495.12"/><line class="cls-1" x1="629.04" y1="510.14" x2="629.04" y2="530.63"/><line class="cls-1" x1="629.04" y1="530.63" x2="654.23" y2="531.62"/><line class="cls-1" x1="654.23" y1="531.62" x2="656.22" y2="510.54"/><line class="cls-1" x1="657.47" y1="536.18" x2="632.21" y2="536.18"/><line class="cls-1" x1="632.21" y1="536.18" x2="629.9" y2="568.53"/><line class="cls-1" x1="629.9" y1="568.53" x2="631.39" y2="578.44"/><line class="cls-1" x1="631.39" y1="578.44" x2="633.7" y2="582.9"/><line class="cls-1" x1="633.7" y1="582.9" x2="644.1" y2="588.84"/><line class="cls-1" x1="644.1" y1="588.84" x2="654.33" y2="588.84"/><line class="cls-1" x1="654.33" y1="588.84" x2="686.85" y2="586.86"/><line class="cls-1" x1="686.85" y1="586.86" x2="715.89" y2="585.09"/><line class="cls-1" x1="715.89" y1="585.09" x2="714.37" y2="560.1"/><line class="cls-1" x1="714.37" y1="560.1" x2="709.79" y2="560.1"/><line class="cls-1" x1="709.79" y1="560.1" x2="707.32" y2="529.08"/><line class="cls-1" x1="707.32" y1="529.08" x2="681.18" y2="531.17"/><line class="cls-1" x1="681.18" y1="531.17" x2="686.85" y2="586.86"/><line class="cls-1" x1="657.47" y1="536.18" x2="657.47" y2="562.43"/><line class="cls-1" x1="657.47" y1="562.43" x2="684.36" y2="562.43"/><line class="cls-1" x1="131.7" y1="456.21" x2="150.18" y2="478.46"/><line class="cls-1" x1="150.18" y1="478.46" x2="140.71" y2="486.32"/><line class="cls-1" x1="140.71" y1="486.32" x2="122.23" y2="464.08"/><line class="cls-1" x1="122.23" y1="464.08" x2="131.7" y2="456.21"/><line class="cls-1" x1="160.79" y1="484.62" x2="173.46" y2="500.02"/><line class="cls-1" x1="173.46" y1="500.02" x2="163.3" y2="508.37"/><line class="cls-1" x1="163.3" y1="508.37" x2="150.64" y2="492.97"/><line class="cls-1" x1="150.64" y1="492.97" x2="160.79" y2="484.62"/><line class="cls-1" x1="180.3" y1="529.11" x2="158.74" y2="567.11"/><line class="cls-1" x1="158.74" y1="567.11" x2="171.54" y2="574.37"/><line class="cls-1" x1="171.54" y1="574.37" x2="193.1" y2="536.38"/><line class="cls-1" x1="193.1" y1="536.38" x2="180.3" y2="529.11"/><line class="cls-1" x1="98.16" y1="539.72" x2="69.06" y2="577.38"/><line class="cls-1" x1="69.06" y1="577.38" x2="90.01" y2="593.56"/><line class="cls-1" x1="90.01" y1="593.56" x2="119.1" y2="555.91"/><line class="cls-1" x1="119.1" y1="555.91" x2="98.16" y2="539.72"/><line class="cls-1" x1="8.97" y1="607.95" x2=".12" y2="619.64"/><line class="cls-1" x1=".12" y1="619.64" x2="11.82" y2="628.48"/><line class="cls-1" x1="11.82" y1="628.48" x2="20.66" y2="616.79"/><line class="cls-1" x1="20.66" y1="616.79" x2="8.97" y2="607.95"/><line class="cls-1" x1="53.75" y1="623.92" x2="71.15" y2="602.53"/><line class="cls-1" x1="71.15" y1="602.53" x2="60.37" y2="593.77"/><line class="cls-1" x1="60.37" y1="593.77" x2="42.97" y2="615.16"/><line class="cls-1" x1="42.97" y1="615.16" x2="53.75" y2="623.92"/><line class="cls-1" x1="32.64" y1="612.23" x2="13.82" y2="598.54"/><line class="cls-1" x1="13.82" y1="598.54" x2="21.5" y2="587.97"/><line class="cls-1" x1="21.5" y1="587.97" x2="40.33" y2="601.66"/><line class="cls-1" x1="40.33" y1="601.66" x2="32.64" y2="612.23"/><line class="cls-1" x1="33.21" y1="586.56" x2="50.61" y2="564.02"/><line class="cls-1" x1="50.61" y1="564.02" x2="64.1" y2="574.44"/><line class="cls-1" x1="64.1" y1="574.44" x2="46.7" y2="596.97"/><line class="cls-1" x1="46.7" y1="596.97" x2="33.21" y2="586.56"/><line class="cls-1" x1="110.65" y1="523.54" x2="87.12" y2="512.4"/><line class="cls-1" x1="87.12" y1="512.4" x2="94.82" y2="496.14"/><line class="cls-1" x1="94.82" y1="496.14" x2="107.94" y2="491.29"/><line class="cls-1" x1="107.94" y1="491.29" x2="125.06" y2="498.99"/><line class="cls-1" x1="125.06" y1="498.99" x2="116.51" y2="517.99"/><line class="cls-1" x1="121.01" y1="608.76" x2="135.04" y2="583.32"/><line class="cls-1" x1="135.04" y1="583.32" x2="161.4" y2="597.86"/><line class="cls-1" x1="161.4" y1="597.86" x2="154.91" y2="609.63"/><line class="cls-1" x1="154.91" y1="609.63" x2="138.27" y2="600.46"/><line class="cls-1" x1="138.27" y1="600.46" x2="130.74" y2="614.12"/><line class="cls-1" x1="130.74" y1="614.12" x2="121.01" y2="608.76"/><line class="cls-1" x1="116.51" y1="517.99" x2="113.85" y2="516.79"/><line class="cls-1" x1="113.85" y1="516.79" x2="110.65" y2="523.54"/><line class="cls-1" x1="130.06" y1="657.87" x2="127" y2="700.37"/><line class="cls-1" x1="127" y1="700.37" x2="116.55" y2="699.62"/><line class="cls-1" x1="116.55" y1="699.62" x2="102.82" y2="701.61"/><line class="cls-1" x1="102.82" y1="701.61" x2="92.15" y2="713.76"/><line class="cls-1" x1="92.15" y1="713.76" x2="87.75" y2="728.1"/><line class="cls-1" x1="87.75" y1="728.1" x2="90.16" y2="743.65"/><line class="cls-1" x1="90.16" y1="743.65" x2="98.02" y2="756.85"/><line class="cls-1" x1="98.02" y1="756.85" x2="107.31" y2="763.52"/><line class="cls-1" x1="107.31" y1="763.52" x2="120.36" y2="764.56"/><line class="cls-1" x1="120.36" y1="764.56" x2="120.2" y2="805.25"/><line class="cls-1" x1="120.2" y1="805.25" x2="116.66" y2="805.25"/><line class="cls-1" x1="116.66" y1="805.25" x2="115.33" y2="819.9"/><line class="cls-1" x1="115.33" y1="819.9" x2="76.01" y2="805.25"/><line class="cls-1" x1="76.01" y1="805.25" x2="82.55" y2="796.53"/><line class="cls-1" x1="82.55" y1="796.53" x2="68.71" y2="786.16"/><line class="cls-1" x1="68.71" y1="786.16" x2="55.96" y2="773.41"/><line class="cls-1" x1="55.96" y1="773.41" x2="50.79" y2="757.25"/><line class="cls-1" x1="50.79" y1="757.25" x2="46.5" y2="735.33"/><line class="cls-1" x1="46.5" y1="735.33" x2="48.38" y2="713.23"/><line class="cls-1" x1="48.38" y1="713.23" x2="53.66" y2="698.21"/><line class="cls-1" x1="53.66" y1="698.21" x2="64.23" y2="681.87"/><line class="cls-1" x1="64.23" y1="681.87" x2="78.51" y2="667.59"/><line class="cls-1" x1="78.51" y1="667.59" x2="93.44" y2="662.55"/><line class="cls-1" x1="93.44" y1="662.55" x2="106.01" y2="658.32"/><line class="cls-1" x1="106.01" y1="658.32" x2="118.51" y2="656.81"/><line class="cls-1" x1="118.51" y1="656.81" x2="130.06" y2="657.87"/><line class="cls-1" x1="31.12" y1="821.52" x2="24.85" y2="774.46"/><line class="cls-1" x1="24.85" y1="774.46" x2="44.8" y2="771.8"/><line class="cls-1" x1="44.8" y1="771.8" x2="49.17" y2="804.55"/><line class="cls-1" x1="49.17" y1="804.55" x2="58.79" y2="803.27"/><line class="cls-1" x1="58.79" y1="803.27" x2="60.7" y2="817.58"/><line class="cls-1" x1="60.7" y1="817.58" x2="31.12" y2="821.52"/><line class="cls-1" x1="340.46" y1="826.44" x2="339.34" y2="803.81"/><line class="cls-1" x1="339.34" y1="803.81" x2="355.57" y2="803.01"/><line class="cls-1" x1="355.57" y1="803.01" x2="365.83" y2="826.44"/><line class="cls-1" x1="681.6" y1="407.52" x2="717.85" y2="403.36"/><line class="cls-1" x1="717.85" y1="403.36" x2="719.55" y2="418.16"/><line class="cls-1" x1="719.55" y1="418.16" x2="683.3" y2="422.32"/><line class="cls-1" x1="683.3" y1="422.32" x2="681.6" y2="407.52"/><line class="cls-1" x1="680.61" y1="419.8" x2="684.18" y2="447.13"/><line class="cls-1" x1="684.18" y1="447.13" x2="670.48" y2="448.92"/><line class="cls-1" x1="670.48" y1="448.92" x2="666.92" y2="421.58"/><line class="cls-1" x1="666.92" y1="421.58" x2="680.61" y2="419.8"/><line class="cls-1" x1="723.99" y1="405.73" x2="731.71" y2="468.72"/><line class="cls-1" x1="731.71" y1="468.72" x2="760.88" y2="465.14"/><line class="cls-1" x1="760.88" y1="465.14" x2="753.16" y2="402.15"/><line class="cls-1" x1="753.16" y1="402.15" x2="723.99" y2="405.73"/><line class="cls-1" x1="776.97" y1="395.32" x2="778.96" y2="420.7"/><line class="cls-1" x1="778.96" y1="420.7" x2="802.32" y2="418.87"/><line class="cls-1" x1="802.32" y1="418.87" x2="800.32" y2="393.48"/><line class="cls-1" x1="800.32" y1="393.48" x2="776.97" y2="395.32"/><line class="cls-1" x1="777.82" y1="431.54" x2="807.77" y2="422.7"/><line class="cls-1" x1="807.77" y1="422.7" x2="815.02" y2="447.27"/><line class="cls-1" x1="815.02" y1="447.27" x2="785.08" y2="456.11"/><line class="cls-1" x1="785.08" y1="456.11" x2="777.82" y2="431.54"/><line class="cls-1" x1="848.03" y1="368.1" x2="879.64" y2="365.49"/><line class="cls-1" x1="879.64" y1="365.49" x2="881.32" y2="385.83"/><line class="cls-1" x1="881.32" y1="385.83" x2="849.71" y2="388.44"/><line class="cls-1" x1="849.71" y1="388.44" x2="848.03" y2="368.1"/><line class="cls-1" x1="843.75" y1="394.25" x2="899.13" y2="389.73"/><line class="cls-1" x1="899.13" y1="389.73" x2="902.96" y2="436.7"/><line class="cls-1" x1="902.96" y1="436.7" x2="847.58" y2="441.21"/><line class="cls-1" x1="847.58" y1="441.21" x2="843.75" y2="394.25"/><line class="cls-1" x1="854.21" y1="444.4" x2="876.55" y2="442.26"/><line class="cls-1" x1="876.55" y1="442.26" x2="878.19" y2="459.37"/><line class="cls-1" x1="878.19" y1="459.37" x2="855.85" y2="461.51"/><line class="cls-1" x1="855.85" y1="461.51" x2="854.21" y2="444.4"/><line class="cls-1" x1="679.4" y1="490.79" x2="715.45" y2="493.56"/><line class="cls-1" x1="715.45" y1="493.56" x2="713.3" y2="521.5"/><line class="cls-1" x1="713.3" y1="521.5" x2="677.25" y2="518.72"/><line class="cls-1" x1="677.25" y1="518.72" x2="679.4" y2="490.79"/><line class="cls-1" x1="719.22" y1="490.59" x2="818.45" y2="478.71"/><line class="cls-1" x1="818.45" y1="478.71" x2="821.1" y2="500.81"/><line class="cls-1" x1="821.1" y1="500.81" x2="721.86" y2="512.69"/><line class="cls-1" x1="721.86" y1="512.69" x2="719.22" y2="490.59"/><line class="cls-1" x1="678.71" y1="612.63" x2="723.48" y2="606.89"/><line class="cls-1" x1="723.48" y1="606.89" x2="726.1" y2="627.35"/><line class="cls-1" x1="726.1" y1="627.35" x2="681.34" y2="633.1"/><line class="cls-1" x1="681.34" y1="633.1" x2="678.71" y2="612.63"/><line class="cls-1" x1="736.35" y1="603.32" x2="781.71" y2="599.56"/><line class="cls-1" x1="781.71" y1="599.56" x2="783.48" y2="620.83"/><line class="cls-1" x1="783.48" y1="620.83" x2="738.12" y2="624.6"/><line class="cls-1" x1="738.12" y1="624.6" x2="736.35" y2="603.32"/><line class="cls-1" x1="727.84" y1="547.92" x2="731.6" y2="581"/><line class="cls-1" x1="731.6" y1="581" x2="740.54" y2="579.98"/><line class="cls-1" x1="740.54" y1="579.98" x2="740.86" y2="582.85"/><line class="cls-1" x1="740.86" y1="582.85" x2="773.26" y2="579.16"/><line class="cls-1" x1="773.26" y1="579.16" x2="770.49" y2="554.84"/><line class="cls-1" x1="770.49" y1="554.84" x2="762.3" y2="555.77"/><line class="cls-1" x1="762.3" y1="555.77" x2="760.83" y2="542.88"/><line class="cls-1" x1="760.83" y1="542.88" x2="727.84" y2="547.92"/><line class="cls-1" x1="781.92" y1="541.78" x2="785.88" y2="574.46"/><line class="cls-1" x1="785.88" y1="574.46" x2="820.9" y2="570.21"/><line class="cls-1" x1="820.9" y1="570.21" x2="819.49" y2="558.6"/><line class="cls-1" x1="819.49" y1="558.6" x2="824.96" y2="557.93"/><line class="cls-1" x1="824.96" y1="557.93" x2="821.61" y2="530.3"/><line class="cls-1" x1="821.61" y1="530.3" x2="803.27" y2="532.53"/><line class="cls-1" x1="803.27" y1="532.53" x2="804.76" y2="544.84"/><line class="cls-1" x1="804.76" y1="544.84" x2="794.37" y2="546.1"/><line class="cls-1" x1="794.37" y1="546.1" x2="793.67" y2="540.35"/><line class="cls-1" x1="793.67" y1="540.35" x2="781.92" y2="541.78"/><line class="cls-1" x1="685.36" y1="127.9" x2="711.55" y2="124.79"/><line class="cls-1" x1="711.55" y1="124.79" x2="714.33" y2="148.19"/><line class="cls-1" x1="714.33" y1="148.19" x2="725.81" y2="148.19"/><line class="cls-1" x1="725.81" y1="148.19" x2="723.44" y2="166.86"/><line class="cls-1" x1="723.44" y1="166.86" x2="701.57" y2="166.86"/><line class="cls-1" x1="701.57" y1="166.86" x2="701.57" y2="161.93"/><line class="cls-1" x1="701.57" y1="161.93" x2="687.46" y2="162.28"/><line class="cls-1" x1="687.46" y1="162.28" x2="686.28" y2="152.54"/><line class="cls-1" x1="727.96" y1="44.2" x2="753.87" y2="44.2"/><line class="cls-1" x1="753.87" y1="44.2" x2="753.87" y2="127.87"/><line class="cls-1" x1="753.87" y1="127.87" x2="726.54" y2="127.87"/><line class="cls-1" x1="726.54" y1="127.87" x2="726.54" y2="104.81"/><line class="cls-1" x1="726.54" y1="104.81" x2="732.01" y2="104.81"/><line class="cls-1" x1="732.01" y1="104.81" x2="732.01" y2="86.27"/><line class="cls-1" x1="732.01" y1="86.27" x2="720.83" y2="86.27"/><line class="cls-1" x1="720.83" y1="86.27" x2="720.83" y2="67.5"/><line class="cls-1" x1="720.83" y1="67.5" x2="727.96" y2="67.5"/><line class="cls-1" x1="727.96" y1="67.5" x2="727.96" y2="44.2"/><line class="cls-1" x1="740.99" y1="150.63" x2="794.23" y2="158"/><line class="cls-1" x1="794.23" y1="158" x2="790.9" y2="200.78"/><line class="cls-1" x1="790.9" y1="200.78" x2="809.92" y2="205.06"/><line class="cls-1" x1="809.92" y1="205.06" x2="805.78" y2="223.47"/><line class="cls-1" x1="805.78" y1="223.47" x2="785.79" y2="218.98"/><line class="cls-1" x1="785.79" y1="218.98" x2="786.98" y2="210.41"/><line class="cls-1" x1="786.98" y1="210.41" x2="754.69" y2="205.94"/><line class="cls-1" x1="754.69" y1="205.94" x2="754.07" y2="210.42"/><line class="cls-1" x1="754.07" y1="210.42" x2="738.85" y2="206.01"/><line class="cls-1" x1="738.85" y1="206.01" x2="740.68" y2="199.71"/><line class="cls-1" x1="740.68" y1="199.71" x2="731.01" y2="198.17"/><line class="cls-1" x1="731.01" y1="198.17" x2="731.01" y2="187.31"/><line class="cls-1" x1="731.01" y1="187.31" x2="741" y2="189.56"/><line class="cls-1" x1="741" y1="189.56" x2="746.77" y2="163.91"/><line class="cls-1" x1="746.77" y1="163.91" x2="739.3" y2="162.87"/><line class="cls-1" x1="739.3" y1="162.87" x2="740.99" y2="150.63"/><line class="cls-1" x1="761.67" y1="169.41" x2="758.58" y2="187.71"/><line class="cls-1" x1="758.58" y1="187.71" x2="772.14" y2="190"/><line class="cls-1" x1="772.14" y1="190" x2="775.23" y2="171.7"/><line class="cls-1" x1="775.23" y1="171.7" x2="761.67" y2="169.41"/><line class="cls-1" x1="814.95" y1="222.84" x2="825.64" y2="224.26"/><line class="cls-1" x1="825.64" y1="224.26" x2="824.55" y2="232.44"/><line class="cls-1" x1="824.55" y1="232.44" x2="813.86" y2="231.02"/><line class="cls-1" x1="813.86" y1="231.02" x2="814.95" y2="222.84"/><line class="cls-1" x1="845.61" y1="205.49" x2="847.51" y2="225.21"/><line class="cls-1" x1="847.51" y1="225.21" x2="854.03" y2="224.59"/><line class="cls-1" x1="854.03" y1="224.59" x2="852.13" y2="204.86"/><line class="cls-1" x1="852.13" y1="204.86" x2="845.61" y2="205.49"/><line class="cls-1" x1="786.66" y1="226.4" x2="786.66" y2="243.04"/><line class="cls-1" x1="786.66" y1="243.04" x2="802.35" y2="244.23"/><line class="cls-1" x1="802.35" y1="244.23" x2="803.52" y2="228.74"/><line class="cls-1" x1="803.52" y1="228.74" x2="786.66" y2="226.4"/><line class="cls-1" x1="783.1" y1="274.65" x2="806.39" y2="272.99"/><line class="cls-1" x1="806.39" y1="272.99" x2="807.91" y2="294.22"/><line class="cls-1" x1="807.91" y1="294.22" x2="784.61" y2="295.89"/><line class="cls-1" x1="784.61" y1="295.89" x2="783.1" y2="274.65"/><line class="cls-1" x1="737.22" y1="223.79" x2="735.56" y2="255.16"/><line class="cls-1" x1="735.56" y1="255.16" x2="739.84" y2="271.8"/><line class="cls-1" x1="739.84" y1="271.8" x2="764.79" y2="269.43"/><line class="cls-1" x1="764.79" y1="269.43" x2="759.56" y2="251.36"/><line class="cls-1" x1="759.56" y1="251.36" x2="760.56" y2="225.03"/><line class="cls-1" x1="760.56" y1="225.03" x2="737.22" y2="223.79"/><line class="cls-1" x1="790.26" y1="341.7" x2="798.18" y2="358.34"/><line class="cls-1" x1="798.18" y1="358.34" x2="823.23" y2="346.41"/><line class="cls-1" x1="823.23" y1="346.41" x2="814.57" y2="328.25"/><line class="cls-1" x1="814.57" y1="328.25" x2="790.26" y2="341.7"/><line class="cls-1" x1="790.26" y1="341.7" x2="788.13" y2="337.22"/><line class="cls-1" x1="788.13" y1="337.22" x2="781.33" y2="340.46"/><line class="cls-1" x1="781.33" y1="340.46" x2="776.83" y2="331.01"/><line class="cls-1" x1="776.83" y1="331.01" x2="778.79" y2="329.04"/><line class="cls-1" x1="778.79" y1="329.04" x2="775.6" y2="324.07"/><line class="cls-1" x1="775.6" y1="324.07" x2="798.78" y2="311.59"/><line class="cls-1" x1="798.78" y1="311.59" x2="809.54" y2="331.03"/><line class="cls-1" x1="824.13" y1="301.49" x2="882.57" y2="297.92"/><line class="cls-1" x1="882.57" y1="297.92" x2="884.94" y2="317.73"/><line class="cls-1" x1="884.94" y1="317.73" x2="867.11" y2="319.87"/><line class="cls-1" x1="867.11" y1="319.87" x2="867.11" y2="325.85"/><line class="cls-1" x1="867.11" y1="325.85" x2="852.46" y2="328.03"/><line class="cls-1" x1="852.46" y1="328.03" x2="851.52" y2="321.74"/><line class="cls-1" x1="851.52" y1="321.74" x2="826.71" y2="321.74"/><line class="cls-1" x1="826.71" y1="321.74" x2="824.13" y2="301.49"/><line class="cls-1" x1="266.04" y1="659.67" x2="275.46" y2="659.67"/><line class="cls-1" x1="275.46" y1="659.67" x2="275.46" y2="646.84"/><line class="cls-1" x1="275.46" y1="646.84" x2="293.43" y2="646.84"/><line class="cls-1" x1="293.43" y1="646.84" x2="288.29" y2="681.35"/><line class="cls-1" x1="288.29" y1="681.35" x2="283.73" y2="726.71"/><line class="cls-1" x1="283.73" y1="726.71" x2="280.35" y2="760.28"/><line class="cls-1" x1="280.35" y1="760.28" x2="282.3" y2="790.31"/><line class="cls-1" x1="282.3" y1="790.31" x2="298.85" y2="790.31"/><line class="cls-1" x1="298.85" y1="790.31" x2="298.85" y2="826.44"/><line class="cls-1" x1="261.3" y1="826.44" x2="259.91" y2="765.87"/><line class="cls-1" x1="259.91" y1="765.87" x2="262.98" y2="703.13"/><line class="cls-1" x1="262.98" y1="703.13" x2="266.04" y2="659.67"/><line class="cls-1" x1="283.92" y1="724.76" x2="299.42" y2="726.32"/><line class="cls-1" x1="299.42" y1="726.32" x2="304.5" y2="675.85"/><line class="cls-1" x1="304.5" y1="675.85" x2="289.44" y2="673.62"/><line class="cls-1" x1="285.52" y1="750.22" x2="285.52" y2="764.09"/><line class="cls-1" x1="285.52" y1="764.09" x2="296.41" y2="764.09"/><line class="cls-1" x1="296.41" y1="764.09" x2="296.41" y2="750.22"/><line class="cls-1" x1="296.41" y1="750.22" x2="285.52" y2="750.22"/><line class="cls-1" x1="739.35" y1="639.6" x2="766.74" y2="639.6"/><line class="cls-1" x1="766.74" y1="639.6" x2="766.74" y2="670.06"/><line class="cls-1" x1="766.74" y1="670.06" x2="739.35" y2="670.06"/><line class="cls-1" x1="739.35" y1="670.06" x2="739.35" y2="639.6"/><line class="cls-1" x1="784.79" y1="706.93" x2="788.74" y2="749.32"/><line class="cls-1" x1="788.74" y1="749.32" x2="803.53" y2="747.95"/><line class="cls-1" x1="803.53" y1="747.95" x2="799.59" y2="705.56"/><line class="cls-1" x1="799.59" y1="705.56" x2="784.79" y2="706.93"/><line class="cls-1" x1="857.95" y1="761.78" x2="866.98" y2="716.14"/><line class="cls-1" x1="866.98" y1="716.14" x2="890.72" y2="720.84"/><line class="cls-1" x1="890.72" y1="720.84" x2="881.68" y2="766.48"/><line class="cls-1" x1="881.68" y1="766.48" x2="857.95" y2="761.78"/><line class="cls-1" x1="825.86" y1="700.46" x2="825.86" y2="734.68"/><line class="cls-1" x1="825.86" y1="734.68" x2="850.81" y2="734.68"/><line class="cls-1" x1="850.81" y1="734.68" x2="850.81" y2="700.46"/><line class="cls-1" x1="850.81" y1="700.46" x2="825.86" y2="700.46"/><line class="cls-1" x1="619.14" y1="718.23" x2="656.79" y2="723.02"/><line class="cls-1" x1="656.79" y1="723.02" x2="659.66" y2="700.49"/><line class="cls-1" x1="659.66" y1="700.49" x2="622.01" y2="695.7"/><line class="cls-1" x1="622.01" y1="695.7" x2="619.14" y2="718.23"/><line class="cls-1" x1="649.63" y1="699.21" x2="651.83" y2="681.95"/><line class="cls-1" x1="651.83" y1="681.95" x2="624.21" y2="678.43"/><line class="cls-1" x1="624.21" y1="678.43" x2="622.01" y2="695.7"/><line class="cls-1" x1="712.18" y1="696.68" x2="712.18" y2="713.23"/><line class="cls-1" x1="712.18" y1="713.23" x2="756.11" y2="710.94"/><line class="cls-1" x1="756.11" y1="710.94" x2="756.11" y2="687.56"/><line class="cls-1" x1="756.11" y1="687.56" x2="736.14" y2="687.56"/><line class="cls-1" x1="736.14" y1="687.56" x2="736.14" y2="696.68"/><line class="cls-1" x1="736.14" y1="696.68" x2="712.18" y2="696.68"/><line class="cls-1" x1="860.64" y1="521.2" x2="860.64" y2="571.18"/><line class="cls-1" x1="860.64" y1="571.18" x2="896.58" y2="571.18"/><line class="cls-1" x1="896.58" y1="571.18" x2="896.58" y2="564.67"/><line class="cls-1" x1="896.58" y1="564.67" x2="906.84" y2="564.67"/><line class="cls-1" x1="906.84" y1="564.67" x2="906.84" y2="549.61"/><line class="cls-1" x1="906.84" y1="549.61" x2="939.7" y2="549.61"/><line class="cls-1" x1="939.7" y1="549.61" x2="939.7" y2="521.2"/><line class="cls-1" x1="939.7" y1="521.2" x2="860.64" y2="521.2"/><line class="cls-1" x1="816.07" y1="122.01" x2="881.45" y2="115.17"/><line class="cls-1" x1="881.45" y1="115.17" x2="884.1" y2="140.54"/><line class="cls-1" x1="884.1" y1="140.54" x2="874.6" y2="140.54"/><line class="cls-1" x1="874.6" y1="140.54" x2="874.6" y2="158.29"/><line class="cls-1" x1="874.6" y1="158.29" x2="900.96" y2="155.21"/><line class="cls-1" x1="900.96" y1="155.21" x2="902.24" y2="166.18"/><line class="cls-1" x1="902.24" y1="166.18" x2="838.69" y2="173.6"/><line class="cls-1" x1="838.69" y1="173.6" x2="836.9" y2="158.29"/><line class="cls-1" x1="836.9" y1="158.29" x2="855.08" y2="156.17"/><line class="cls-1" x1="855.08" y1="156.17" x2="853.26" y2="140.54"/><line class="cls-1" x1="853.26" y1="140.54" x2="801.95" y2="146.54"/><line class="cls-1" x1="801.95" y1="146.54" x2="800.33" y2="132.62"/><line class="cls-1" x1="800.33" y1="132.62" x2="816.98" y2="130.68"/><line class="cls-1" x1="816.98" y1="130.68" x2="816.07" y2="122.01"/><line class="cls-1" x1="847.04" y1="483.11" x2="881.26" y2="481.4"/><line class="cls-1" x1="881.26" y1="481.4" x2="882.7" y2="510.15"/><line class="cls-1" x1="882.7" y1="510.15" x2="848.48" y2="511.86"/><line class="cls-1" x1="848.48" y1="511.86" x2="847.04" y2="483.11"/><line class="cls-1" x1="888.11" y1="502.5" x2="885.26" y2="464.57"/><line class="cls-1" x1="885.26" y1="464.57" x2="912.94" y2="462.49"/><line class="cls-1" x1="912.94" y1="462.49" x2="915.79" y2="500.42"/><line class="cls-1" x1="915.79" y1="500.42" x2="888.11" y2="502.5"/><line class="cls-1" x1="952.29" y1="406.1" x2="955.71" y2="473.13"/><line class="cls-1" x1="955.71" y1="473.13" x2="980.76" y2="471.85"/><line class="cls-1" x1="980.76" y1="471.85" x2="977.34" y2="404.82"/><line class="cls-1" x1="977.34" y1="404.82" x2="952.29" y2="406.1"/><line class="cls-1" x1="918.04" y1="356.8" x2="929.45" y2="356.8"/><line class="cls-1" x1="929.45" y1="356.8" x2="929.45" y2="363.94"/><line class="cls-1" x1="929.45" y1="363.94" x2="918.04" y2="363.94"/><line class="cls-1" x1="918.04" y1="363.94" x2="918.04" y2="356.8"/><line class="cls-1" x1="941.81" y1="360.13" x2="970.57" y2="356.33"/><line class="cls-1" x1="970.57" y1="356.33" x2="972.75" y2="372.84"/><line class="cls-1" x1="972.75" y1="372.84" x2="943.99" y2="376.64"/><line class="cls-1" x1="943.99" y1="376.64" x2="941.81" y2="360.13"/><line class="cls-1" x1="909.4" y1="322.3" x2="937" y2="322.3"/><line class="cls-1" x1="937" y1="322.3" x2="937" y2="303.57"/><line class="cls-1" x1="937" y1="303.57" x2="909.4" y2="303.57"/><line class="cls-1" x1="909.4" y1="303.57" x2="909.4" y2="322.3"/><line class="cls-1" x1="554.39" y1="717.72" x2="574.59" y2="714.63"/><line class="cls-1" x1="574.59" y1="714.63" x2="585.05" y2="714.63"/><line class="cls-1" x1="585.05" y1="714.63" x2="592.65" y2="719.62"/><line class="cls-1" x1="592.65" y1="719.62" x2="596.93" y2="727.7"/><line class="cls-1" x1="596.93" y1="727.7" x2="609.61" y2="815.62"/><line class="cls-1" x1="609.61" y1="815.62" x2="585.05" y2="819.16"/><line class="cls-1" x1="585.05" y1="819.16" x2="582.94" y2="804.52"/><line class="cls-1" x1="582.94" y1="804.52" x2="551.65" y2="809.03"/><line class="cls-1" x1="551.65" y1="809.03" x2="548.13" y2="784.59"/><line class="cls-1" x1="548.13" y1="784.59" x2="579.41" y2="780.08"/><line class="cls-1" x1="579.41" y1="780.08" x2="573.64" y2="740.03"/><line class="cls-1" x1="573.64" y1="740.03" x2="558.16" y2="742.4"/><line class="cls-1" x1="558.16" y1="742.4" x2="554.39" y2="717.72"/><line class="cls-1" x1="684.03" y1="773.41" x2="696.19" y2="772.38"/><line class="cls-1" x1="696.19" y1="772.38" x2="693.31" y2="738.33"/><line class="cls-1" x1="693.31" y1="738.33" x2="703.91" y2="737.44"/><line class="cls-1" x1="703.91" y1="737.44" x2="706.26" y2="765.25"/><line class="cls-1" x1="706.26" y1="765.25" x2="757.46" y2="760.91"/><line class="cls-1" x1="757.46" y1="760.91" x2="758.19" y2="769.6"/><line class="cls-1" x1="758.19" y1="769.6" x2="776.2" y2="768.08"/><line class="cls-1" x1="776.2" y1="768.08" x2="778.16" y2="791.16"/><line class="cls-1" x1="778.16" y1="791.16" x2="828.78" y2="788.12"/><line class="cls-1" x1="828.78" y1="788.12" x2="830.26" y2="812.76"/><line class="cls-1" x1="830.26" y1="812.76" x2="756.59" y2="817.2"/><line class="cls-1" x1="756.59" y1="817.2" x2="755.69" y2="802.2"/><line class="cls-1" x1="755.69" y1="802.2" x2="767.23" y2="801.51"/><line class="cls-1" x1="767.23" y1="801.51" x2="766.29" y2="785.93"/><line class="cls-1" x1="766.29" y1="785.93" x2="684.19" y2="790.88"/><line class="cls-1" x1="684.19" y1="790.88" x2="684.03" y2="773.41"/><polyline class="cls-2" points="412.37 366.44 415.81 364.95 417.28 368.34 413.84 369.83 412.37 366.44"/><line class="cls-1" x1="412.37" y1="366.44" x2="415.81" y2="364.95"/><line class="cls-1" x1="415.81" y1="364.95" x2="417.28" y2="368.34"/><line class="cls-1" x1="417.28" y1="368.34" x2="413.84" y2="369.83"/><line class="cls-1" x1="413.84" y1="369.83" x2="412.37" y2="366.44"/><polyline class="cls-2" points="400.31 371.67 403.76 370.17 405.22 373.56 401.78 375.05 400.31 371.67"/><line class="cls-1" x1="400.31" y1="371.67" x2="403.76" y2="370.17"/><line class="cls-1" x1="403.76" y1="370.17" x2="405.22" y2="373.56"/><line class="cls-1" x1="405.22" y1="373.56" x2="401.78" y2="375.05"/><line class="cls-1" x1="401.78" y1="375.05" x2="400.31" y2="371.67"/><polyline class="cls-2" points="387.27 376.41 390.71 374.92 392.18 378.31 388.74 379.8 387.27 376.41"/><line class="cls-1" x1="392.18" y1="378.31" x2="388.74" y2="379.8"/><line class="cls-1" x1="388.74" y1="379.8" x2="387.27" y2="376.41"/><polyline class="cls-2" points="375.34 381.58 378.78 380.09 380.25 383.48 376.81 384.97 375.34 381.58"/><line class="cls-1" x1="375.34" y1="381.58" x2="378.78" y2="380.09"/><line class="cls-1" x1="378.78" y1="380.09" x2="380.25" y2="383.48"/><line class="cls-1" x1="380.25" y1="383.48" x2="376.81" y2="384.97"/><line class="cls-1" x1="376.81" y1="384.97" x2="375.34" y2="381.58"/><polyline class="cls-2" points="371.68 402.09 375.12 400.6 376.59 403.99 373.15 405.48 371.68 402.09"/><line class="cls-1" x1="371.68" y1="402.09" x2="375.12" y2="400.6"/><line class="cls-1" x1="375.12" y1="400.6" x2="376.59" y2="403.99"/><line class="cls-1" x1="376.59" y1="403.99" x2="373.15" y2="405.48"/><line class="cls-1" x1="373.15" y1="405.48" x2="371.68" y2="402.09"/><polyline class="cls-2" points="385.55 400.42 388.99 398.93 390.46 402.32 387.02 403.81 385.55 400.42"/><line class="cls-1" x1="385.55" y1="400.42" x2="388.99" y2="398.93"/><line class="cls-1" x1="388.99" y1="398.93" x2="390.46" y2="402.32"/><line class="cls-1" x1="390.46" y1="402.32" x2="387.02" y2="403.81"/><line class="cls-1" x1="387.02" y1="403.81" x2="385.55" y2="400.42"/><polyline class="cls-2" points="399.19 400.42 402.63 398.93 404.1 402.32 400.66 403.81 399.19 400.42"/><line class="cls-1" x1="399.19" y1="400.42" x2="402.63" y2="398.93"/><line class="cls-1" x1="402.63" y1="398.93" x2="404.1" y2="402.32"/><line class="cls-1" x1="404.1" y1="402.32" x2="400.66" y2="403.81"/><line class="cls-1" x1="400.66" y1="403.81" x2="399.19" y2="400.42"/><polyline class="cls-2" points="412.6 398.93 416.04 397.44 417.51 400.83 414.07 402.32 412.6 398.93"/><line class="cls-1" x1="412.6" y1="398.93" x2="416.04" y2="397.44"/><line class="cls-1" x1="416.04" y1="397.44" x2="417.51" y2="400.83"/><line class="cls-1" x1="417.51" y1="400.83" x2="414.07" y2="402.32"/><line class="cls-1" x1="414.07" y1="402.32" x2="412.6" y2="398.93"/><polyline class="cls-2" points="425.78 397.96 429.22 396.47 430.69 399.86 427.25 401.35 425.78 397.96"/><line class="cls-1" x1="425.78" y1="397.96" x2="429.22" y2="396.47"/><line class="cls-1" x1="429.22" y1="396.47" x2="430.69" y2="399.86"/><line class="cls-1" x1="430.69" y1="399.86" x2="427.25" y2="401.35"/><line class="cls-1" x1="427.25" y1="401.35" x2="425.78" y2="397.96"/><polyline class="cls-2" points="421.66 387.76 425.1 386.27 426.56 389.66 423.13 391.15 421.66 387.76"/><line class="cls-1" x1="421.66" y1="387.76" x2="425.1" y2="386.27"/><line class="cls-1" x1="425.1" y1="386.27" x2="426.56" y2="389.66"/><line class="cls-1" x1="426.56" y1="389.66" x2="423.13" y2="391.15"/><line class="cls-1" x1="423.13" y1="391.15" x2="421.66" y2="387.76"/><polyline class="cls-2" points="417.3 377.67 420.74 376.18 422.21 379.57 418.77 381.06 417.3 377.67"/><line class="cls-1" x1="420.74" y1="376.18" x2="422.21" y2="379.57"/><line class="cls-1" x1="422.21" y1="379.57" x2="418.77" y2="381.06"/><line class="cls-1" x1="418.77" y1="381.06" x2="417.3" y2="377.67"/></g></g></svg>