<?xml version="1.0" encoding="UTF-8"?><svg id="Layer_2" xmlns="http://www.w3.org/2000/svg" viewBox="0 0 711.69 464.36"><defs><style>.cls-1{stroke-width:.25px;}.cls-1,.cls-2{fill:none;stroke:#000;stroke-linecap:round;stroke-linejoin:round;}.cls-2{stroke-width:.5px;}.cls-3{fill-rule:evenodd;}</style></defs><g id="Layer_1-2"><g><polyline class="cls-3" points="354.75 64.95 376.72 92.56 368.72 100.38 347.02 82.28 241.5 155.48 253.16 176.51 246.39 183.97 228.63 193.45 220.49 186.04 214.06 174.36 174.51 151.14 179.16 140.96 210.21 151.52 229.9 137.86 209.02 106.33 217.68 99.24 245.57 126.98 265.17 113.39 246.14 78.95 255.34 72.56 280.93 102.46 300.53 88.86 284.31 53.01 293.99 47.38 316.21 77.98 333.92 65.69 324.29 27.56 334.8 23.73 354.75 64.95"/><line class="cls-2" x1="354.75" y1="64.95" x2="376.72" y2="92.56"/><line class="cls-2" x1="376.72" y1="92.56" x2="368.72" y2="100.38"/><line class="cls-2" x1="368.72" y1="100.38" x2="347.02" y2="82.28"/><line class="cls-2" x1="347.02" y1="82.28" x2="241.5" y2="155.48"/><line class="cls-2" x1="241.5" y1="155.48" x2="253.16" y2="176.51"/><line class="cls-2" x1="253.16" y1="176.51" x2="246.39" y2="183.97"/><line class="cls-2" x1="246.39" y1="183.97" x2="228.63" y2="193.45"/><line class="cls-2" x1="228.63" y1="193.45" x2="220.49" y2="186.04"/><line class="cls-2" x1="220.49" y1="186.04" x2="214.06" y2="174.36"/><line class="cls-2" x1="214.06" y1="174.36" x2="174.51" y2="151.14"/><line class="cls-2" x1="174.51" y1="151.14" x2="179.16" y2="140.96"/><line class="cls-2" x1="179.16" y1="140.96" x2="210.21" y2="151.52"/><line class="cls-2" x1="210.21" y1="151.52" x2="229.9" y2="137.86"/><line class="cls-2" x1="229.9" y1="137.86" x2="209.02" y2="106.33"/><line class="cls-2" x1="209.02" y1="106.33" x2="217.68" y2="99.24"/><line class="cls-2" x1="217.68" y1="99.24" x2="245.57" y2="126.98"/><line class="cls-2" x1="245.57" y1="126.98" x2="265.17" y2="113.39"/><line class="cls-2" x1="265.17" y1="113.39" x2="246.14" y2="78.95"/><line class="cls-2" x1="246.14" y1="78.95" x2="255.34" y2="72.56"/><line class="cls-2" x1="255.34" y1="72.56" x2="280.93" y2="102.46"/><line class="cls-2" x1="280.93" y1="102.46" x2="300.53" y2="88.86"/><line class="cls-2" x1="300.53" y1="88.86" x2="284.31" y2="53.01"/><line class="cls-2" x1="284.31" y1="53.01" x2="293.99" y2="47.38"/><line class="cls-2" x1="293.99" y1="47.38" x2="316.21" y2="77.98"/><line class="cls-2" x1="316.21" y1="77.98" x2="333.92" y2="65.69"/><line class="cls-2" x1="333.92" y1="65.69" x2="324.29" y2="27.56"/><line class="cls-2" x1="324.29" y1="27.56" x2="334.8" y2="23.73"/><line class="cls-2" x1="334.8" y1="23.73" x2="354.75" y2="64.95"/><polyline class="cls-3" points="266.67 151.82 284.22 139.64 301.69 164.83 284.14 177.01 266.67 151.82"/><line class="cls-2" x1="266.67" y1="151.82" x2="284.14" y2="177.01"/><line class="cls-2" x1="284.14" y1="177.01" x2="301.69" y2="164.83"/><line class="cls-2" x1="301.69" y1="164.83" x2="284.22" y2="139.64"/><line class="cls-2" x1="284.22" y1="139.64" x2="266.67" y2="151.82"/><polyline class="cls-3" points="166.48 195.85 172.26 191.84 184.37 202.74 201.66 234.23 195.89 238.24 183.78 227.35 166.48 195.85"/><line class="cls-2" x1="166.48" y1="195.85" x2="183.78" y2="227.35"/><line class="cls-2" x1="183.78" y1="227.35" x2="195.89" y2="238.24"/><line class="cls-2" x1="195.89" y1="238.24" x2="201.66" y2="234.23"/><line class="cls-2" x1="201.66" y1="234.23" x2="184.37" y2="202.74"/><line class="cls-2" x1="184.37" y1="202.74" x2="172.26" y2="191.84"/><line class="cls-2" x1="172.26" y1="191.84" x2="166.48" y2="195.85"/><line class="cls-2" x1="166.48" y1="195.85" x2="145.66" y2="165.22"/><line class="cls-2" x1="145.66" y1="165.22" x2="161.27" y2="128.21"/><line class="cls-2" x1="161.27" y1="128.21" x2="182.37" y2="108.63"/><line class="cls-2" x1="182.37" y1="108.63" x2="196.48" y2="82.78"/><line class="cls-2" x1="196.48" y1="82.78" x2="224.87" y2="70.25"/><line class="cls-2" x1="224.87" y1="70.25" x2="236.44" y2="56.03"/><line class="cls-2" x1="236.44" y1="56.03" x2="262.48" y2="45.98"/><line class="cls-2" x1="262.48" y1="45.98" x2="277.06" y2="29.38"/><line class="cls-2" x1="277.06" y1="29.38" x2="300.71" y2="20.87"/><line class="cls-2" x1="300.71" y1="20.87" x2="320.79" y2="1.59"/><line class="cls-2" x1="320.79" y1="1.59" x2="349.88" y2=".25"/><line class="cls-2" x1="349.88" y1=".25" x2="359.31" y2="27.29"/><line class="cls-2" x1="359.31" y1="27.29" x2="377.79" y2="45.39"/><line class="cls-2" x1="377.79" y1="45.39" x2="389.71" y2="69.25"/><line class="cls-2" x1="389.71" y1="69.25" x2="406.91" y2="91.84"/><line class="cls-2" x1="406.91" y1="91.84" x2="418.31" y2="110.04"/><line class="cls-2" x1="418.31" y1="110.04" x2="207.98" y2="255.96"/><line class="cls-2" x1="207.98" y1="255.96" x2="195.89" y2="238.24"/><line class="cls-1" x1="279.76" y1="240.78" x2="328.79" y2="206.56"/><line class="cls-1" x1="328.79" y1="206.56" x2="371.61" y2="268.18"/><line class="cls-1" x1="371.61" y1="268.18" x2="322.79" y2="302.2"/><line class="cls-1" x1="322.79" y1="302.2" x2="316.51" y2="293.78"/><line class="cls-1" x1="316.51" y1="293.78" x2="358.41" y2="264.71"/><line class="cls-1" x1="358.41" y1="264.71" x2="327.69" y2="219.96"/><line class="cls-1" x1="327.69" y1="219.96" x2="285.65" y2="249.31"/><line class="cls-1" x1="285.65" y1="249.31" x2="279.76" y2="240.78"/><line class="cls-1" x1="271.63" y1="258.64" x2="279.32" y2="253.17"/><line class="cls-1" x1="279.32" y1="253.17" x2="311.11" y2="297.98"/><line class="cls-1" x1="311.11" y1="297.98" x2="302.96" y2="303.73"/><line class="cls-1" x1="302.96" y1="303.73" x2="290.24" y2="285.4"/><line class="cls-1" x1="290.24" y1="285.4" x2="278.92" y2="293.22"/><line class="cls-1" x1="278.92" y1="293.22" x2="280.41" y2="295.31"/><line class="cls-1" x1="280.41" y1="295.31" x2="272.67" y2="300.71"/><line class="cls-1" x1="272.67" y1="300.71" x2="263.99" y2="288.18"/><line class="cls-1" x1="263.99" y1="288.18" x2="271.46" y2="282.9"/><line class="cls-1" x1="271.46" y1="282.9" x2="272.92" y2="285.07"/><line class="cls-1" x1="272.92" y1="285.07" x2="284.36" y2="277.12"/><line class="cls-1" x1="284.36" y1="277.12" x2="271.63" y2="258.64"/><line class="cls-1" x1="257.23" y1="325.73" x2="250.47" y2="316.54"/><line class="cls-1" x1="250.47" y1="316.54" x2="255.59" y2="312.88"/><line class="cls-1" x1="255.59" y1="312.88" x2="258.04" y2="316.44"/><line class="cls-1" x1="258.04" y1="316.44" x2="256.2" y2="317.8"/><line class="cls-1" x1="256.2" y1="317.8" x2="260.22" y2="323.49"/><line class="cls-1" x1="260.22" y1="323.49" x2="257.23" y2="325.73"/><line class="cls-1" x1="237.21" y1="297.06" x2="241.38" y2="303.1"/><line class="cls-1" x1="241.38" y1="303.1" x2="246.46" y2="299.59"/><line class="cls-1" x1="246.46" y1="299.59" x2="244.06" y2="296.16"/><line class="cls-1" x1="244.06" y1="296.16" x2="242.13" y2="297.45"/><line class="cls-1" x1="242.13" y1="297.45" x2="240.3" y2="294.93"/><line class="cls-1" x1="240.3" y1="294.93" x2="237.21" y2="297.06"/><line class="cls-1" x1="278.07" y1="409.73" x2="309.36" y2="452.11"/><line class="cls-1" x1="309.36" y1="452.11" x2="300.76" y2="458.46"/><line class="cls-1" x1="300.76" y1="458.46" x2="269.47" y2="416.08"/><line class="cls-1" x1="269.47" y1="416.08" x2="278.07" y2="409.73"/><line class="cls-1" x1="322.33" y1="397.43" x2="331.17" y2="390.85"/><line class="cls-1" x1="331.17" y1="390.85" x2="335.11" y2="396.16"/><line class="cls-1" x1="335.11" y1="396.16" x2="326.28" y2="402.73"/><line class="cls-1" x1="326.28" y1="402.73" x2="322.33" y2="397.43"/><line class="cls-1" x1="330.02" y1="408.07" x2="338.86" y2="401.49"/><line class="cls-1" x1="338.86" y1="401.49" x2="342.8" y2="406.8"/><line class="cls-1" x1="342.8" y1="406.8" x2="333.97" y2="413.37"/><line class="cls-1" x1="333.97" y1="413.37" x2="330.02" y2="408.07"/><line class="cls-1" x1="338.2" y1="419.05" x2="347.04" y2="412.48"/><line class="cls-1" x1="347.04" y1="412.48" x2="350.99" y2="417.79"/><line class="cls-1" x1="350.99" y1="417.79" x2="342.15" y2="424.36"/><line class="cls-1" x1="342.15" y1="424.36" x2="338.2" y2="419.05"/><line class="cls-1" x1="334.67" y1="436.25" x2="339.85" y2="432.42"/><line class="cls-1" x1="339.85" y1="432.42" x2="342.17" y2="435.56"/><line class="cls-1" x1="342.17" y1="435.56" x2="336.99" y2="439.38"/><line class="cls-1" x1="336.99" y1="439.38" x2="334.67" y2="436.25"/><line class="cls-1" x1="389.29" y1="321.94" x2="401.77" y2="313.27"/><line class="cls-1" x1="401.77" y1="313.27" x2="412.69" y2="328.98"/><line class="cls-1" x1="412.69" y1="328.98" x2="400.22" y2="337.66"/><line class="cls-1" x1="400.22" y1="337.66" x2="389.29" y2="321.94"/><line class="cls-1" x1="382.68" y1="454.6" x2="396.86" y2="443.83"/><line class="cls-1" x1="396.86" y1="443.83" x2="404.19" y2="453.47"/><line class="cls-1" x1="404.19" y1="453.47" x2="390.01" y2="464.24"/><line class="cls-1" x1="390.01" y1="464.24" x2="382.68" y2="454.6"/><line class="cls-1" x1="491.13" y1="180.5" x2="511.58" y2="168.61"/><line class="cls-1" x1="511.58" y1="168.61" x2="516.45" y2="176.98"/><line class="cls-1" x1="516.45" y1="176.98" x2="496.01" y2="188.88"/><line class="cls-1" x1="496.01" y1="188.88" x2="491.13" y2="180.5"/><line class="cls-1" x1="498.94" y1="200.4" x2="509.38" y2="194.32"/><line class="cls-1" x1="509.38" y1="194.32" x2="530.89" y2="231.29"/><line class="cls-1" x1="530.89" y1="231.29" x2="520.45" y2="237.37"/><line class="cls-1" x1="520.45" y1="237.37" x2="498.94" y2="200.4"/><line class="cls-1" x1="485.73" y1="297.41" x2="512.16" y2="276.89"/><line class="cls-1" x1="512.16" y1="276.89" x2="518.63" y2="285.23"/><line class="cls-1" x1="518.63" y1="285.23" x2="492.21" y2="305.75"/><line class="cls-1" x1="492.21" y1="305.75" x2="485.73" y2="297.41"/><line class="cls-1" x1="417.04" y1="314.32" x2="428.05" y2="306.81"/><line class="cls-1" x1="428.05" y1="306.81" x2="431.88" y2="312.42"/><line class="cls-1" x1="431.88" y1="312.42" x2="420.87" y2="319.93"/><line class="cls-1" x1="420.87" y1="319.93" x2="417.04" y2="314.32"/><line class="cls-1" x1="524.81" y1="244.47" x2="534.09" y2="260.53"/><line class="cls-1" x1="534.09" y1="260.53" x2="542.16" y2="255.86"/><line class="cls-1" x1="542.16" y1="255.86" x2="532.88" y2="239.81"/><line class="cls-1" x1="532.88" y1="239.81" x2="524.81" y2="244.47"/><line class="cls-1" x1="550.28" y1="247.11" x2="567.17" y2="273.01"/><line class="cls-1" x1="567.17" y1="273.01" x2="572.14" y2="269.77"/><line class="cls-1" x1="572.14" y1="269.77" x2="555.25" y2="243.87"/><line class="cls-1" x1="555.25" y1="243.87" x2="550.28" y2="247.11"/><line class="cls-1" x1="584.64" y1="253.9" x2="613.92" y2="233.92"/><line class="cls-1" x1="613.92" y1="233.92" x2="618.04" y2="239.96"/><line class="cls-1" x1="618.04" y1="239.96" x2="588.76" y2="259.94"/><line class="cls-1" x1="588.76" y1="259.94" x2="584.64" y2="253.9"/><line class="cls-1" x1="607.64" y1="178.91" x2="630.91" y2="162.74"/><line class="cls-1" x1="630.91" y1="162.74" x2="638.63" y2="173.86"/><line class="cls-1" x1="638.63" y1="173.86" x2="615.36" y2="190.02"/><line class="cls-1" x1="615.36" y1="190.02" x2="607.64" y2="178.91"/><line class="cls-1" x1="642.62" y1="179.65" x2="619.31" y2="195.86"/><line class="cls-1" x1="619.31" y1="195.86" x2="628.56" y2="209.17"/><line class="cls-1" x1="628.56" y1="209.17" x2="651.88" y2="192.96"/><line class="cls-1" x1="651.88" y1="192.96" x2="642.62" y2="179.65"/><line class="cls-1" x1="634.65" y1="217.9" x2="661.7" y2="199.01"/><line class="cls-1" x1="661.7" y1="199.01" x2="667.56" y2="207.39"/><line class="cls-1" x1="667.56" y1="207.39" x2="640.5" y2="226.28"/><line class="cls-1" x1="640.5" y1="226.28" x2="634.65" y2="217.9"/><line class="cls-1" x1="663.83" y1="196.03" x2="676.46" y2="187.58"/><line class="cls-1" x1="676.46" y1="187.58" x2="679.6" y2="192.28"/><line class="cls-1" x1="679.6" y1="192.28" x2="666.97" y2="200.72"/><line class="cls-1" x1="666.97" y1="200.72" x2="663.83" y2="196.03"/><line class="cls-1" x1="683.95" y1="185.45" x2="708.11" y2="169.84"/><line class="cls-1" x1="708.11" y1="169.84" x2="711.56" y2="175.18"/><line class="cls-1" x1="711.56" y1="175.18" x2="687.4" y2="190.79"/><line class="cls-1" x1="687.4" y1="190.79" x2="683.95" y2="185.45"/><line class="cls-1" x1="5.04" y1="215.79" x2="2.34" y2="233.58"/><line class="cls-1" x1="2.34" y1="233.58" x2="8.58" y2="234.53"/><line class="cls-1" x1="8.58" y1="234.53" x2="11.27" y2="216.73"/><line class="cls-1" x1="11.27" y1="216.73" x2="5.04" y2="215.79"/><line class="cls-1" x1="21.1" y1="220.34" x2="17.87" y2="241.75"/><line class="cls-1" x1="17.87" y1="241.75" x2="26.77" y2="243.1"/><line class="cls-1" x1="26.77" y1="243.1" x2="30.01" y2="221.69"/><line class="cls-1" x1="30.01" y1="221.69" x2="21.1" y2="220.34"/><line class="cls-1" x1="61.08" y1="217.47" x2="56.83" y2="245.58"/><line class="cls-1" x1="56.83" y1="245.58" x2="67.4" y2="247.18"/><line class="cls-1" x1="67.4" y1="247.18" x2="71.65" y2="219.07"/><line class="cls-1" x1="71.65" y1="219.07" x2="61.08" y2="217.47"/><line class="cls-1" x1=".83" y1="246.29" x2="12.52" y2="248.07"/><line class="cls-1" x1="12.52" y1="248.07" x2="11.82" y2="252.73"/><line class="cls-1" x1="11.82" y1="252.73" x2=".12" y2="250.96"/><line class="cls-1" x1=".12" y1="250.96" x2=".83" y2="246.29"/><line class="cls-1" x1="31.63" y1="246.06" x2="39.18" y2="247.25"/><line class="cls-1" x1="39.18" y1="247.25" x2="38.39" y2="252.28"/><line class="cls-1" x1="38.39" y1="252.28" x2="30.83" y2="251.08"/><line class="cls-1" x1="30.83" y1="251.08" x2="31.63" y2="246.06"/><line class="cls-1" x1="18.42" y1="248.31" x2="20.51" y2="248.62"/><line class="cls-1" x1="20.51" y1="248.62" x2="20.2" y2="250.69"/><line class="cls-1" x1="20.2" y1="250.69" x2="18.1" y2="250.38"/><line class="cls-1" x1="18.1" y1="250.38" x2="18.42" y2="248.31"/><line class="cls-1" x1="27.22" y1="243.39" x2="30.19" y2="243.84"/><line class="cls-1" x1="30.19" y1="243.84" x2="30.6" y2="241.15"/><line class="cls-1" x1="30.6" y1="241.15" x2="27.63" y2="240.7"/><line class="cls-1" x1="27.63" y1="240.7" x2="27.22" y2="243.39"/><line class="cls-1" x1="575.1" y1="148.8" x2="601.35" y2="192.14"/><line class="cls-1" x1="601.35" y1="192.14" x2="595.77" y2="195.52"/><line class="cls-1" x1="595.77" y1="195.52" x2="569.52" y2="152.18"/><line class="cls-1" x1="569.52" y1="152.18" x2="575.1" y2="148.8"/><line class="cls-1" x1="592.56" y1="197.46" x2="566.3" y2="154.13"/><line class="cls-1" x1="566.3" y1="154.13" x2="554.28" y2="161.42"/><line class="cls-1" x1="554.28" y1="161.42" x2="580.55" y2="204.75"/><line class="cls-1" x1="580.55" y1="204.75" x2="592.56" y2="197.46"/><line class="cls-1" x1="555.6" y1="163.61" x2="562.44" y2="174.89"/><line class="cls-1" x1="562.44" y1="174.89" x2="557.91" y2="177.64"/><line class="cls-1" x1="557.91" y1="177.64" x2="551.07" y2="166.37"/><line class="cls-1" x1="551.07" y1="166.37" x2="555.6" y2="163.61"/><line class="cls-1" x1="390.09" y1="300.03" x2="397.02" y2="310.15"/><line class="cls-1" x1="397.02" y1="310.15" x2="400.89" y2="307.5"/><line class="cls-1" x1="400.89" y1="307.5" x2="393.95" y2="297.38"/><line class="cls-1" x1="393.95" y1="297.38" x2="390.09" y2="300.03"/><line class="cls-1" x1="443.89" y1="349.43" x2="456.29" y2="339.96"/><line class="cls-1" x1="456.29" y1="339.96" x2="455.81" y2="339.34"/><line class="cls-1" x1="455.81" y1="339.34" x2="462.62" y2="334.16"/><line class="cls-1" x1="462.62" y1="334.16" x2="469.05" y2="342.54"/><line class="cls-1" x1="469.05" y1="342.54" x2="462.35" y2="347.68"/><line class="cls-1" x1="462.35" y1="347.68" x2="461.89" y2="347.13"/><line class="cls-1" x1="461.89" y1="347.13" x2="449.46" y2="356.75"/><line class="cls-1" x1="449.46" y1="356.75" x2="443.89" y2="349.43"/><line class="cls-1" x1="474.18" y1="335.13" x2="518.34" y2="303.28"/><line class="cls-1" x1="518.34" y1="303.28" x2="523.51" y2="310.34"/><line class="cls-1" x1="523.51" y1="310.34" x2="479.31" y2="342.23"/><line class="cls-1" x1="479.31" y1="342.23" x2="477.49" y2="339.72"/><line class="cls-1" x1="477.49" y1="339.72" x2="476.14" y2="340.73"/><line class="cls-1" x1="476.14" y1="340.73" x2="474.45" y2="338.47"/><line class="cls-1" x1="474.45" y1="338.47" x2="475.85" y2="337.41"/><line class="cls-1" x1="475.85" y1="337.41" x2="474.18" y2="335.13"/><line class="cls-1" x1="426.41" y1="267.07" x2="456.26" y2="246.95"/><line class="cls-1" x1="456.26" y1="246.95" x2="458.59" y2="250.41"/><line class="cls-1" x1="458.59" y1="250.41" x2="461.82" y2="248.23"/><line class="cls-1" x1="461.82" y1="248.23" x2="462.97" y2="250"/><line class="cls-1" x1="462.97" y1="250" x2="459.77" y2="252.14"/><line class="cls-1" x1="459.77" y1="252.14" x2="462.06" y2="255.56"/><line class="cls-1" x1="462.06" y1="255.56" x2="447.83" y2="265.16"/><line class="cls-1" x1="447.83" y1="265.16" x2="449.85" y2="268.19"/><line class="cls-1" x1="449.85" y1="268.19" x2="452.65" y2="266.29"/><line class="cls-1" x1="452.65" y1="266.29" x2="462.38" y2="280.6"/><line class="cls-1" x1="462.38" y1="280.6" x2="473.98" y2="272.69"/><line class="cls-1" x1="473.98" y1="272.69" x2="479.11" y2="280.44"/><line class="cls-1" x1="479.11" y1="280.44" x2="467.4" y2="288.39"/><line class="cls-1" x1="467.4" y1="288.39" x2="471.31" y2="294.12"/><line class="cls-1" x1="471.31" y1="294.12" x2="463.93" y2="299.21"/><line class="cls-1" x1="463.93" y1="299.21" x2="460.25" y2="293.36"/><line class="cls-1" x1="460.25" y1="293.36" x2="446.06" y2="302.76"/><line class="cls-1" x1="446.06" y1="302.76" x2="440.84" y2="295.07"/><line class="cls-1" x1="440.84" y1="295.07" x2="454.95" y2="285.56"/><line class="cls-1" x1="454.95" y1="285.56" x2="445.37" y2="271.23"/><line class="cls-1" x1="445.37" y1="271.23" x2="448.03" y2="269.43"/><line class="cls-1" x1="448.03" y1="269.43" x2="446" y2="266.39"/><line class="cls-1" x1="446" y1="266.39" x2="432.21" y2="275.68"/><line class="cls-1" x1="432.21" y1="275.68" x2="426.41" y2="267.07"/><line class="cls-1" x1="173.14" y1="43.22" x2="152.41" y2="56.5"/><line class="cls-1" x1="152.41" y1="56.5" x2="158.44" y2="65.91"/><line class="cls-1" x1="158.44" y1="65.91" x2="179.17" y2="52.63"/><line class="cls-1" x1="179.17" y1="52.63" x2="173.14" y2="43.22"/><line class="cls-1" x1="547.59" y1="272.97" x2="542.73" y2="265.99"/><line class="cls-1" x1="542.73" y1="265.99" x2="527.22" y2="276.95"/><line class="cls-1" x1="527.22" y1="276.95" x2="538.34" y2="292.82"/><line class="cls-1" x1="538.34" y1="292.82" x2="553.91" y2="282.03"/><line class="cls-1" x1="553.91" y1="282.03" x2="548.66" y2="274.41"/><line class="cls-1" x1="547.59" y1="272.97" x2="535.86" y2="281.16"/><line class="cls-1" x1="535.86" y1="281.16" x2="537.94" y2="284.11"/><line class="cls-1" x1="537.94" y1="284.11" x2="539.27" y2="283.27"/><line class="cls-1" x1="539.27" y1="283.27" x2="538.28" y2="281.7"/><line class="cls-1" x1="538.28" y1="281.7" x2="548.66" y2="274.41"/><line class="cls-1" x1="385.12" y1="365.22" x2="389.19" y2="362.18"/><line class="cls-1" x1="389.19" y1="362.18" x2="390.25" y2="363.59"/><line class="cls-1" x1="390.25" y1="363.59" x2="394.18" y2="360.67"/><line class="cls-1" x1="394.18" y1="360.67" x2="398.92" y2="367.05"/><line class="cls-1" x1="398.92" y1="367.05" x2="390.92" y2="372.99"/><line class="cls-1" x1="390.92" y1="372.99" x2="385.12" y2="365.22"/><line class="cls-1" x1="158.62" y1="353.13" x2="157.18" y2="351.11"/><line class="cls-1" x1="157.18" y1="351.11" x2="150.16" y2="356.01"/><line class="cls-1" x1="150.16" y1="356.01" x2="152.86" y2="359.83"/><line class="cls-1" x1="152.86" y1="359.83" x2="155.77" y2="357.77"/><line class="cls-1" x1="155.77" y1="357.77" x2="154.54" y2="356.04"/><line class="cls-1" x1="154.54" y1="356.04" x2="158.62" y2="353.13"/><line class="cls-1" x1="162.38" y1="360.37" x2="167.43" y2="356.88"/><line class="cls-1" x1="167.43" y1="356.88" x2="174.54" y2="367.09"/><line class="cls-1" x1="174.54" y1="367.09" x2="165.03" y2="373.7"/><line class="cls-1" x1="165.03" y1="373.7" x2="164.4" y2="372.81"/><line class="cls-1" x1="164.4" y1="372.81" x2="163.5" y2="373.43"/><line class="cls-1" x1="163.5" y1="373.43" x2="158.68" y2="366.5"/><line class="cls-1" x1="158.68" y1="366.5" x2="164.05" y2="362.76"/><line class="cls-1" x1="164.05" y1="362.76" x2="162.38" y2="360.37"/><line class="cls-1" x1="237.02" y1="402.16" x2="231.87" y2="406.17"/><line class="cls-1" x1="231.87" y1="406.17" x2="236.08" y2="411.57"/><line class="cls-1" x1="236.08" y1="411.57" x2="241.21" y2="407.6"/><line class="cls-1" x1="241.21" y1="407.6" x2="239.82" y2="405.77"/><line class="cls-1" x1="239.82" y1="405.77" x2="240.75" y2="405.05"/><line class="cls-1" x1="240.75" y1="405.05" x2="239.51" y2="403.43"/><line class="cls-1" x1="239.51" y1="403.43" x2="238.59" y2="404.15"/><line class="cls-1" x1="238.59" y1="404.15" x2="237.02" y2="402.16"/><line class="cls-1" x1="244.18" y1="409.37" x2="246.59" y2="412.85"/><line class="cls-1" x1="246.59" y1="412.85" x2="248.24" y2="411.71"/><line class="cls-1" x1="248.24" y1="411.71" x2="245.83" y2="408.22"/><line class="cls-1" x1="245.83" y1="408.22" x2="244.18" y2="409.37"/></g></g></svg>