<?xml version="1.0" encoding="UTF-8"?><svg id="Layer_2" xmlns="http://www.w3.org/2000/svg" viewBox="0 0 684.5 592.15"><defs><style>.cls-1{fill:none;stroke:#000;stroke-linecap:round;stroke-linejoin:round;stroke-width:.25px;}.cls-2{fill-rule:evenodd;}</style></defs><g id="Layer_1-2"><polyline class="cls-2" points="378.07 328.68 388.09 322.28 393.81 331.24 383.79 337.64 378.07 328.68"/><line class="cls-1" x1="378.07" y1="328.68" x2="383.79" y2="337.64"/><line class="cls-1" x1="383.79" y1="337.64" x2="393.81" y2="331.24"/><line class="cls-1" x1="393.81" y1="331.24" x2="388.09" y2="322.28"/><line class="cls-1" x1="388.09" y1="322.28" x2="378.07" y2="328.68"/><line class="cls-1" x1="414.31" y1="253.49" x2="408.78" y2="259.02"/><line class="cls-1" x1="408.78" y1="259.02" x2="414.97" y2="265.22"/><line class="cls-1" x1="414.97" y1="265.22" x2="420.51" y2="259.69"/><line class="cls-1" x1="420.51" y1="259.69" x2="414.31" y2="253.49"/><line class="cls-1" x1="412.4" y1="373.82" x2="418.88" y2="380.3"/><line class="cls-1" x1="418.88" y1="380.3" x2="426.32" y2="372.86"/><line class="cls-1" x1="426.32" y1="372.86" x2="419.84" y2="366.38"/><line class="cls-1" x1="419.84" y1="366.38" x2="412.4" y2="373.82"/><line class="cls-1" x1="548.38" y1="288.06" x2="540.18" y2="296.26"/><line class="cls-1" x1="540.18" y1="296.26" x2="533.69" y2="289.78"/><line class="cls-1" x1="533.69" y1="289.78" x2="541.89" y2="281.57"/><line class="cls-1" x1="541.89" y1="281.57" x2="548.38" y2="288.06"/><line class="cls-1" x1="535.41" y1="166.01" x2="528.92" y2="177.46"/><line class="cls-1" x1="528.92" y1="177.46" x2="541.16" y2="184.39"/><line class="cls-1" x1="541.16" y1="184.39" x2="547.64" y2="172.95"/><line class="cls-1" x1="547.64" y1="172.95" x2="535.41" y2="166.01"/><line class="cls-1" x1="676.17" y1="160.64" x2="684.37" y2="165.22"/><line class="cls-1" x1="684.37" y1="165.22" x2="680.43" y2="172.28"/><line class="cls-1" x1="680.43" y1="172.28" x2="672.23" y2="167.71"/><line class="cls-1" x1="672.23" y1="167.71" x2="676.17" y2="160.64"/><line class="cls-1" x1="408.14" y1="574.99" x2="419.58" y2="581.17"/><line class="cls-1" x1="419.58" y1="581.17" x2="413.72" y2="592.03"/><line class="cls-1" x1="413.72" y1="592.03" x2="402.28" y2="585.85"/><line class="cls-1" x1="402.28" y1="585.85" x2="408.14" y2="574.99"/><line class="cls-1" x1="361.13" y1="111.79" x2="371.34" y2="118.71"/><line class="cls-1" x1="371.34" y1="118.71" x2="365.75" y2="126.97"/><line class="cls-1" x1="365.75" y1="126.97" x2="355.53" y2="120.05"/><line class="cls-1" x1="355.53" y1="120.05" x2="361.13" y2="111.79"/><line class="cls-1" x1="255.02" y1="211.64" x2="245.46" y2="216.58"/><line class="cls-1" x1="245.46" y1="216.58" x2="250.41" y2="226.14"/><line class="cls-1" x1="250.41" y1="226.14" x2="259.96" y2="221.19"/><line class="cls-1" x1="259.96" y1="221.19" x2="255.02" y2="211.64"/><line class="cls-1" x1="162.45" y1="537.73" x2="174.31" y2="544.85"/><line class="cls-1" x1="174.31" y1="544.85" x2="167.86" y2="555.61"/><line class="cls-1" x1="167.86" y1="555.61" x2="155.99" y2="548.49"/><line class="cls-1" x1="155.99" y1="548.49" x2="162.45" y2="537.73"/><line class="cls-1" x1="80.2" y1="529.43" x2="90.88" y2="536.15"/><line class="cls-1" x1="90.88" y1="536.15" x2="84.87" y2="545.7"/><line class="cls-1" x1="84.87" y1="545.7" x2="74.19" y2="538.97"/><line class="cls-1" x1="74.19" y1="538.97" x2="80.2" y2="529.43"/><line class="cls-1" x1="8.23" y1="504.12" x2="14.76" y2="510.65"/><line class="cls-1" x1="14.76" y1="510.65" x2="6.65" y2="518.75"/><line class="cls-1" x1="6.65" y1="518.75" x2=".12" y2="512.23"/><line class="cls-1" x1=".12" y1="512.23" x2="8.23" y2="504.12"/><line class="cls-1" x1="97.6" y1="399.73" x2="106.3" y2="403.68"/><line class="cls-1" x1="106.3" y1="403.68" x2="100.27" y2="416.94"/><line class="cls-1" x1="100.27" y1="416.94" x2="91.57" y2="412.99"/><line class="cls-1" x1="91.57" y1="412.99" x2="97.6" y2="399.73"/><line class="cls-1" x1="111.41" y1="430.11" x2="126.28" y2="436.98"/><line class="cls-1" x1="126.28" y1="436.98" x2="133.89" y2="420.48"/><line class="cls-1" x1="133.89" y1="420.48" x2="126.45" y2="417.05"/><line class="cls-1" x1="126.45" y1="417.05" x2="124.44" y2="421.4"/><line class="cls-1" x1="124.44" y1="421.4" x2="116.55" y2="418.96"/><line class="cls-1" x1="116.55" y1="418.96" x2="111.41" y2="430.11"/><line class="cls-1" x1="148.23" y1="310.51" x2="160.88" y2="313.27"/><line class="cls-1" x1="160.88" y1="313.27" x2="159.11" y2="321.38"/><line class="cls-1" x1="159.11" y1="321.38" x2="146.45" y2="318.61"/><line class="cls-1" x1="146.45" y1="318.61" x2="148.23" y2="310.51"/><line class="cls-1" x1="181.44" y1="164.59" x2="184.21" y2="176.45"/><line class="cls-1" x1="184.21" y1="176.45" x2="175.52" y2="178.48"/><line class="cls-1" x1="175.52" y1="178.48" x2="172.75" y2="166.62"/><line class="cls-1" x1="172.75" y1="166.62" x2="181.44" y2="164.59"/><line class="cls-1" x1="192.81" y1="38.8" x2="201.87" y2="47.87"/><line class="cls-1" x1="201.87" y1="47.87" x2="192.15" y2="57.59"/><line class="cls-1" x1="192.15" y1="57.59" x2="183.09" y2="48.52"/><line class="cls-1" x1="183.09" y1="48.52" x2="192.81" y2="38.8"/><line class="cls-1" x1="632.63" y1=".12" x2="642.85" y2="4.41"/><line class="cls-1" x1="642.85" y1="4.41" x2="636.24" y2="20.17"/><line class="cls-1" x1="636.24" y1="20.17" x2="626.02" y2="15.89"/><line class="cls-1" x1="626.02" y1="15.89" x2="632.63" y2=".12"/><line class="cls-1" x1="646.8" y1="25.17" x2="653.88" y2="32.25"/><line class="cls-1" x1="653.88" y1="32.25" x2="648.28" y2="37.86"/><line class="cls-1" x1="648.28" y1="37.86" x2="641.2" y2="30.77"/><line class="cls-1" x1="641.2" y1="30.77" x2="646.8" y2="25.17"/></g></svg>