<?xml version="1.0" encoding="UTF-8"?><svg id="Layer_2" xmlns="http://www.w3.org/2000/svg" viewBox="0 0 1125.07 708.28"><defs><style>.cls-1{fill:none;stroke:#000;stroke-linecap:round;stroke-linejoin:round;stroke-width:.25px;}.cls-2{fill-rule:evenodd;}</style></defs><g id="Layer_1-2"><line class="cls-1" x1="596.28" y1="370.83" x2="615" y2="360.39"/><line class="cls-1" x1="615" y1="360.39" x2="621.78" y2="372.55"/><line class="cls-1" x1="621.78" y1="372.55" x2="603.06" y2="382.99"/><line class="cls-1" x1="603.06" y1="382.99" x2="596.28" y2="370.83"/><line class="cls-1" x1="673.62" y1="328.86" x2="664.84" y2="312.35"/><line class="cls-1" x1="664.84" y1="312.35" x2="642.37" y2="324.3"/><line class="cls-1" x1="642.37" y1="324.3" x2="658.92" y2="355.42"/><line class="cls-1" x1="658.92" y1="355.43" x2="665.17" y2="366.71"/><line class="cls-1" x1="665.17" y1="366.71" x2="738.97" y2="325.86"/><line class="cls-1" x1="738.97" y1="325.86" x2="724.92" y2="300.47"/><line class="cls-1" x1="724.92" y1="300.47" x2="673.62" y2="328.86"/><line class="cls-1" x1="695.97" y1="420.85" x2="725.3" y2="404.72"/><line class="cls-1" x1="725.3" y1="404.72" x2="716.39" y2="388.51"/><line class="cls-1" x1="716.39" y1="388.51" x2="687.06" y2="404.63"/><line class="cls-1" x1="687.06" y1="404.63" x2="695.97" y2="420.85"/><line class="cls-1" x1="493.48" y1="319.75" x2="521.34" y2="363.61"/><line class="cls-1" x1="521.34" y1="363.61" x2="508.8" y2="371.58"/><line class="cls-1" x1="508.8" y1="371.58" x2="480.93" y2="327.72"/><line class="cls-1" x1="480.93" y1="327.72" x2="493.48" y2="319.75"/><line class="cls-1" x1="446.06" y1="330.12" x2="460.29" y2="352.05"/><line class="cls-1" x1="460.29" y1="352.05" x2="444.69" y2="362.17"/><line class="cls-1" x1="444.69" y1="362.17" x2="430.47" y2="340.23"/><line class="cls-1" x1="430.47" y1="340.23" x2="446.06" y2="330.12"/><line class="cls-1" x1="457.19" y1="354.06" x2="471.42" y2="375.99"/><line class="cls-1" x1="471.42" y1="375.99" x2="455.82" y2="386.11"/><line class="cls-1" x1="455.82" y1="386.11" x2="441.6" y2="364.18"/><line class="cls-1" x1="441.6" y1="364.18" x2="444.69" y2="362.17"/><line class="cls-1" x1="401.34" y1="351.83" x2="415.17" y2="374.31"/><line class="cls-1" x1="415.17" y1="374.31" x2="401.34" y2="382.82"/><line class="cls-1" x1="401.34" y1="382.82" x2="387.5" y2="360.34"/><line class="cls-1" x1="387.5" y1="360.34" x2="401.34" y2="351.83"/><line class="cls-1" x1="342.8" y1="327.13" x2="356.38" y2="347.14"/><line class="cls-1" x1="356.38" y1="347.14" x2="338.31" y2="359.41"/><line class="cls-1" x1="338.31" y1="359.41" x2="324.72" y2="339.4"/><line class="cls-1" x1="324.72" y1="339.4" x2="342.8" y2="327.13"/><line class="cls-1" x1="425.46" y1="391.09" x2="433.1" y2="403.7"/><line class="cls-1" x1="433.1" y1="403.7" x2="420.29" y2="411.47"/><line class="cls-1" x1="420.29" y1="411.47" x2="412.64" y2="398.86"/><line class="cls-1" x1="412.64" y1="398.86" x2="425.46" y2="391.09"/><line class="cls-1" x1="460.55" y1="439.1" x2="484.74" y2="424.34"/><line class="cls-1" x1="484.74" y1="424.34" x2="475.77" y2="409.64"/><line class="cls-1" x1="475.77" y1="409.64" x2="451.59" y2="424.4"/><line class="cls-1" x1="451.59" y1="424.4" x2="460.55" y2="439.1"/><line class="cls-1" x1="512.35" y1="399.82" x2="543.74" y2="442.35"/><line class="cls-1" x1="543.74" y1="442.35" x2="528.9" y2="453.3"/><line class="cls-1" x1="528.9" y1="453.3" x2="497.52" y2="410.77"/><line class="cls-1" x1="497.52" y1="410.77" x2="512.35" y2="399.82"/><line class="cls-1" x1="438.47" y1="506.02" x2="457.83" y2="494.21"/><line class="cls-1" x1="457.83" y1="494.21" x2="429.54" y2="447.84"/><line class="cls-1" x1="429.54" y1="447.84" x2="410.18" y2="459.65"/><line class="cls-1" x1="410.18" y1="459.65" x2="438.47" y2="506.02"/><line class="cls-1" x1="495.08" y1="276.27" x2="528.01" y2="273.18"/><line class="cls-1" x1="528.01" y1="273.18" x2="529.28" y2="286.69"/><line class="cls-1" x1="529.28" y1="286.69" x2="496.35" y2="289.77"/><line class="cls-1" x1="496.35" y1="289.77" x2="495.08" y2="276.27"/><line class="cls-1" x1="483.14" y1="278.74" x2="449.6" y2="282.86"/><line class="cls-1" x1="449.6" y1="282.86" x2="392.38" y2="291.71"/><line class="cls-1" x1="392.38" y1="291.71" x2="394.05" y2="302.55"/><line class="cls-1" x1="394.05" y1="302.55" x2="446.72" y2="294.4"/><line class="cls-1" x1="446.72" y1="294.4" x2="484.35" y2="288.58"/><line class="cls-1" x1="484.35" y1="288.58" x2="483.14" y2="278.74"/><line class="cls-1" x1="549.1" y1="138.18" x2="583.19" y2="192.52"/><line class="cls-1" x1="583.19" y1="192.52" x2="564.93" y2="203.97"/><line class="cls-1" x1="564.93" y1="203.97" x2="530.85" y2="149.63"/><line class="cls-1" x1="530.85" y1="149.63" x2="549.1" y2="138.18"/><line class="cls-1" x1="527.61" y1="208.82" x2="537.99" y2="225.86"/><line class="cls-1" x1="537.99" y1="225.86" x2="523.85" y2="234.47"/><line class="cls-1" x1="523.85" y1="234.47" x2="513.48" y2="217.42"/><line class="cls-1" x1="513.48" y1="217.42" x2="527.61" y2="208.82"/><line class="cls-1" x1="493.53" y1="210.05" x2="498.96" y2="228.33"/><line class="cls-1" x1="498.96" y1="228.33" x2="487.1" y2="231.86"/><line class="cls-1" x1="487.1" y1="231.86" x2="481.66" y2="213.58"/><line class="cls-1" x1="481.66" y1="213.58" x2="493.53" y2="210.05"/><line class="cls-1" x1="593.48" y1="233.58" x2="611.26" y2="221.97"/><line class="cls-1" x1="611.26" y1="221.97" x2="621.15" y2="237.13"/><line class="cls-1" x1="621.15" y1="237.13" x2="603.37" y2="248.73"/><line class="cls-1" x1="603.37" y1="248.73" x2="593.48" y2="233.58"/><line class="cls-1" x1="655.17" y1="273.13" x2="634.42" y2="285.99"/><line class="cls-1" x1="634.42" y1="285.99" x2="646.63" y2="305.69"/><line class="cls-1" x1="646.63" y1="305.69" x2="667.38" y2="292.83"/><line class="cls-1" x1="667.38" y1="292.83" x2="655.17" y2="273.13"/><line class="cls-1" x1="670.38" y1="180.42" x2="716.98" y2="254.76"/><line class="cls-1" x1="716.98" y1="254.76" x2="700.43" y2="265.13"/><line class="cls-1" x1="700.43" y1="265.13" x2="653.84" y2="190.8"/><line class="cls-1" x1="653.84" y1="190.8" x2="670.38" y2="180.42"/><line class="cls-1" x1="711.12" y1="308.11" x2="697.94" y2="284.29"/><line class="cls-1" x1="697.94" y1="284.29" x2="720.22" y2="271.96"/><line class="cls-1" x1="720.22" y1="271.96" x2="733.4" y2="295.78"/><line class="cls-1" x1="733.4" y1="295.78" x2="724.92" y2="300.47"/><line class="cls-1" x1="736.66" y1="363.97" x2="760.12" y2="350.38"/><line class="cls-1" x1="760.12" y1="350.38" x2="766.96" y2="362.19"/><line class="cls-1" x1="766.96" y1="362.19" x2="743.5" y2="375.78"/><line class="cls-1" x1="743.5" y1="375.78" x2="736.66" y2="363.97"/><line class="cls-1" x1="772.47" y1="401.01" x2="788.77" y2="390.39"/><line class="cls-1" x1="788.77" y1="390.39" x2="797.74" y2="404.16"/><line class="cls-1" x1="797.74" y1="404.16" x2="781.44" y2="414.78"/><line class="cls-1" x1="781.44" y1="414.78" x2="772.47" y2="401.01"/><line class="cls-1" x1="821.13" y1="352.6" x2="843.36" y2="337.79"/><line class="cls-1" x1="843.36" y1="337.79" x2="819.27" y2="301.65"/><line class="cls-1" x1="819.27" y1="301.65" x2="781.14" y2="327.07"/><line class="cls-1" x1="781.14" y1="327.07" x2="809.18" y2="369.13"/><line class="cls-1" x1="809.18" y1="369.13" x2="825.08" y2="358.53"/><line class="cls-1" x1="825.08" y1="358.53" x2="821.13" y2="352.6"/><line class="cls-1" x1="845.46" y1="250.67" x2="870.9" y2="279.07"/><line class="cls-1" x1="870.9" y1="279.07" x2="856.93" y2="291.58"/><line class="cls-1" x1="856.93" y1="291.58" x2="831.49" y2="263.18"/><line class="cls-1" x1="831.49" y1="263.18" x2="845.46" y2="250.67"/><line class="cls-1" x1="743.28" y1="472.8" x2="763.73" y2="459.76"/><line class="cls-1" x1="763.73" y1="459.76" x2="774.16" y2="476.1"/><line class="cls-1" x1="774.16" y1="476.1" x2="753.71" y2="489.14"/><line class="cls-1" x1="753.71" y1="489.14" x2="743.28" y2="472.8"/><line class="cls-1" x1="788.26" y1="438.53" x2="804.56" y2="427.91"/><line class="cls-1" x1="804.56" y1="427.91" x2="813.53" y2="441.68"/><line class="cls-1" x1="813.53" y1="441.68" x2="797.22" y2="452.3"/><line class="cls-1" x1="797.22" y1="452.3" x2="788.26" y2="438.53"/><line class="cls-1" x1="819.75" y1="466.48" x2="833.9" y2="457.25"/><line class="cls-1" x1="833.9" y1="457.25" x2="845.98" y2="475.79"/><line class="cls-1" x1="845.98" y1="475.79" x2="831.82" y2="485.01"/><line class="cls-1" x1="831.82" y1="485.01" x2="819.75" y2="466.48"/><line class="cls-1" x1="987.95" y1="453.92" x2="945.07" y2="478.96"/><line class="cls-1" x1="945.07" y1="478.96" x2="954.08" y2="494.39"/><line class="cls-1" x1="954.08" y1="494.39" x2="996.96" y2="469.35"/><line class="cls-1" x1="996.96" y1="469.35" x2="987.95" y2="453.92"/><line class="cls-1" x1="1044.61" y1="477.15" x2="1014.38" y2="507.39"/><line class="cls-1" x1="1014.38" y1="507.39" x2="1033.94" y2="526.95"/><line class="cls-1" x1="1033.94" y1="526.95" x2="1064.17" y2="496.72"/><line class="cls-1" x1="1064.17" y1="496.72" x2="1044.61" y2="477.15"/><line class="cls-1" x1="987.95" y1="453.92" x2="985.55" y2="449.81"/><line class="cls-1" x1="985.55" y1="449.81" x2="988.67" y2="446.68"/><line class="cls-1" x1="988.67" y1="446.68" x2="984.44" y2="442.45"/><line class="cls-1" x1="984.44" y1="442.45" x2="995.66" y2="431.23"/><line class="cls-1" x1="995.66" y1="431.23" x2="1027.77" y2="463.34"/><line class="cls-1" x1="1027.77" y1="463.34" x2="1013.43" y2="477.68"/><line class="cls-1" x1="1013.43" y1="477.68" x2="996.96" y2="469.35"/><line class="cls-1" x1="860.78" y1="538.34" x2="824.47" y2="548.22"/><line class="cls-1" x1="824.47" y1="548.22" x2="831.23" y2="573.05"/><line class="cls-1" x1="831.23" y1="573.05" x2="867.54" y2="563.17"/><line class="cls-1" x1="867.54" y1="563.17" x2="860.78" y2="538.34"/><line class="cls-1" x1="873.99" y1="549.86" x2="895.63" y2="537.71"/><line class="cls-1" x1="895.63" y1="537.71" x2="887.52" y2="523.28"/><line class="cls-1" x1="887.52" y1="523.28" x2="918.19" y2="506.06"/><line class="cls-1" x1="918.19" y1="506.06" x2="926.29" y2="520.49"/><line class="cls-1" x1="926.29" y1="520.49" x2="947.91" y2="508.35"/><line class="cls-1" x1="947.91" y1="508.35" x2="973.25" y2="553.47"/><line class="cls-1" x1="973.25" y1="553.47" x2="983.04" y2="547.98"/><line class="cls-1" x1="983.04" y1="547.98" x2="1003.05" y2="583.61"/><line class="cls-1" x1="1003.05" y1="583.61" x2="976.01" y2="598.8"/><line class="cls-1" x1="976.01" y1="598.8" x2="966.81" y2="582.44"/><line class="cls-1" x1="966.81" y1="582.44" x2="917.33" y2="610.22"/><line class="cls-1" x1="917.33" y1="610.22" x2="908.88" y2="595.17"/><line class="cls-1" x1="908.88" y1="595.17" x2="914.62" y2="591.94"/><line class="cls-1" x1="914.62" y1="591.94" x2="897.45" y2="561.36"/><line class="cls-1" x1="897.45" y1="561.36" x2="884.53" y2="568.62"/><line class="cls-1" x1="884.53" y1="568.62" x2="873.99" y2="549.86"/><line class="cls-1" x1="918.15" y1="550.75" x2="941.27" y2="535.04"/><line class="cls-1" x1="941.27" y1="535.04" x2="960.53" y2="563.39"/><line class="cls-1" x1="960.53" y1="563.39" x2="937.41" y2="579.1"/><line class="cls-1" x1="937.41" y1="579.1" x2="918.15" y2="550.75"/><line class="cls-1" x1="551.5" y1="482.39" x2="583.87" y2="463.18"/><line class="cls-1" x1="583.87" y1="463.18" x2="593.97" y2="480.2"/><line class="cls-1" x1="593.97" y1="480.2" x2="561.6" y2="499.41"/><line class="cls-1" x1="561.6" y1="499.41" x2="551.5" y2="482.39"/><line class="cls-1" x1="463.97" y1="470.12" x2="489.76" y2="455.59"/><line class="cls-1" x1="489.76" y1="455.59" x2="497.94" y2="470.12"/><line class="cls-1" x1="497.94" y1="470.12" x2="472.15" y2="484.64"/><line class="cls-1" x1="472.15" y1="484.64" x2="463.97" y2="470.12"/><line class="cls-1" x1="465.16" y1="529.99" x2="495.98" y2="511.61"/><line class="cls-1" x1="495.98" y1="511.61" x2="508.24" y2="532.17"/><line class="cls-1" x1="508.24" y1="532.17" x2="477.41" y2="550.54"/><line class="cls-1" x1="477.41" y1="550.54" x2="465.16" y2="529.99"/><line class="cls-1" x1="474.24" y1="568.07" x2="492.03" y2="593.75"/><line class="cls-1" x1="492.03" y1="593.75" x2="472.84" y2="607.04"/><line class="cls-1" x1="472.84" y1="607.04" x2="455.05" y2="581.35"/><line class="cls-1" x1="455.05" y1="581.35" x2="474.24" y2="568.07"/><line class="cls-1" x1="319.27" y1="617.02" x2="419.56" y2="555.14"/><line class="cls-1" x1="419.56" y1="555.14" x2="435.1" y2="580.32"/><line class="cls-1" x1="435.1" y1="580.32" x2="334.8" y2="642.2"/><line class="cls-1" x1="334.8" y1="642.2" x2="319.27" y2="617.02"/><line class="cls-1" x1="357.32" y1="673.93" x2="467.22" y2="625.2"/><line class="cls-1" x1="467.22" y1="625.2" x2="475.89" y2="644.75"/><line class="cls-1" x1="475.89" y1="644.75" x2="365.99" y2="693.47"/><line class="cls-1" x1="365.99" y1="693.47" x2="357.32" y2="673.93"/><line class="cls-1" x1="273.5" y1="610.77" x2="239.35" y2="556.35"/><line class="cls-1" x1="239.35" y1="556.35" x2="222.61" y2="566.86"/><line class="cls-1" x1="222.61" y1="566.86" x2="256.76" y2="621.27"/><line class="cls-1" x1="256.76" y1="621.27" x2="273.5" y2="610.77"/><line class="cls-1" x1="276.48" y1="505.83" x2="299.14" y2="491.33"/><line class="cls-1" x1="299.14" y1="491.33" x2="313.25" y2="513.39"/><line class="cls-1" x1="313.25" y1="513.39" x2="254.86" y2="550.73"/><line class="cls-1" x1="254.86" y1="550.73" x2="240.76" y2="528.67"/><line class="cls-1" x1="240.76" y1="528.67" x2="267.39" y2="511.64"/><line class="cls-1" x1="263.91" y1="506.2" x2="249.91" y2="515.16"/><line class="cls-1" x1="249.91" y1="515.16" x2="235.8" y2="493.1"/><line class="cls-1" x1="235.8" y1="493.1" x2="272.89" y2="469.38"/><line class="cls-1" x1="272.89" y1="469.38" x2="287" y2="491.43"/><line class="cls-1" x1="287" y1="491.43" x2="273" y2="500.39"/><line class="cls-1" x1="263.91" y1="506.2" x2="267.39" y2="511.64"/><line class="cls-1" x1="273" y1="500.39" x2="276.48" y2="505.83"/><line class="cls-1" x1="536.66" y1="621.22" x2="499.67" y2="564.31"/><line class="cls-1" x1="499.67" y1="564.31" x2="512.23" y2="556.15"/><line class="cls-1" x1="512.23" y1="556.15" x2="518.05" y2="565.1"/><line class="cls-1" x1="518.05" y1="565.1" x2="527.01" y2="559.27"/><line class="cls-1" x1="527.01" y1="559.27" x2="521.2" y2="550.32"/><line class="cls-1" x1="521.2" y1="550.32" x2="541.51" y2="537.12"/><line class="cls-1" x1="541.51" y1="537.12" x2="578.5" y2="594.02"/><line class="cls-1" x1="578.5" y1="594.02" x2="536.66" y2="621.22"/><line class="cls-1" x1="639.26" y1="599.49" x2="649.93" y2="593.45"/><line class="cls-1" x1="649.93" y1="593.45" x2="660.37" y2="611.87"/><line class="cls-1" x1="660.37" y1="611.87" x2="632.55" y2="627.63"/><line class="cls-1" x1="632.55" y1="627.63" x2="610.1" y2="595.22"/><line class="cls-1" x1="610.1" y1="595.22" x2="629.82" y2="582.83"/><line class="cls-1" x1="629.82" y1="582.83" x2="639.26" y2="599.49"/><line class="cls-1" x1="668.74" y1="536.57" x2="702.18" y2="515.94"/><line class="cls-1" x1="702.18" y1="515.94" x2="715.18" y2="537.02"/><line class="cls-1" x1="715.18" y1="537.02" x2="720.11" y2="533.97"/><line class="cls-1" x1="720.11" y1="533.97" x2="746.41" y2="576.59"/><line class="cls-1" x1="746.41" y1="576.59" x2="722.21" y2="591.52"/><line class="cls-1" x1="722.21" y1="591.52" x2="702.17" y2="559.06"/><line class="cls-1" x1="702.17" y1="559.06" x2="688.01" y2="567.79"/><line class="cls-1" x1="688.01" y1="567.79" x2="668.74" y2="536.57"/><line class="cls-1" x1="669.3" y1="634.93" x2="698.69" y2="623.07"/><line class="cls-1" x1="698.69" y1="623.07" x2="711.66" y2="655.24"/><line class="cls-1" x1="711.66" y1="655.24" x2="682.27" y2="667.09"/><line class="cls-1" x1="682.27" y1="667.09" x2="669.3" y2="634.93"/><line class="cls-1" x1="724.74" y1="610.23" x2="752.32" y2="655.1"/><line class="cls-1" x1="752.32" y1="655.1" x2="762.09" y2="649.1"/><line class="cls-1" x1="762.09" y1="649.1" x2="734.51" y2="604.23"/><line class="cls-1" x1="734.51" y1="604.23" x2="724.74" y2="610.23"/><line class="cls-1" x1="549.91" y1="669.98" x2="567.34" y2="695.95"/><line class="cls-1" x1="567.34" y1="695.95" x2="549.15" y2="708.16"/><line class="cls-1" x1="549.15" y1="708.16" x2="531.72" y2="682.19"/><line class="cls-1" x1="531.72" y1="682.19" x2="549.91" y2="669.98"/><line class="cls-1" x1="261.66" y1="649.76" x2="287.56" y2="634.15"/><line class="cls-1" x1="287.56" y1="634.15" x2="289.86" y2="637.98"/><line class="cls-1" x1="289.86" y1="637.98" x2="293.79" y2="635.61"/><line class="cls-1" x1="293.79" y1="635.61" x2="309.25" y2="661.27"/><line class="cls-1" x1="309.25" y1="661.27" x2="275.74" y2="681.46"/><line class="cls-1" x1="275.74" y1="681.46" x2="260.28" y2="655.8"/><line class="cls-1" x1="260.28" y1="655.8" x2="263.97" y2="653.59"/><line class="cls-1" x1="263.97" y1="653.59" x2="261.66" y2="649.76"/><line class="cls-1" x1="148.15" y1="630.57" x2="200.78" y2="630.57"/><line class="cls-1" x1="200.78" y1="630.57" x2="200.78" y2="646.94"/><line class="cls-1" x1="200.78" y1="646.94" x2="148.15" y2="646.94"/><line class="cls-1" x1="148.15" y1="646.94" x2="148.15" y2="630.57"/><line class="cls-1" x1="132.5" y1="628.08" x2="121.11" y2="609.95"/><line class="cls-1" x1="121.11" y1="609.95" x2="102.98" y2="621.33"/><line class="cls-1" x1="102.98" y1="621.33" x2="114.36" y2="639.47"/><line class="cls-1" x1="114.36" y1="639.47" x2="132.5" y2="628.08"/><line class="cls-1" x1="93.15" y1="619.08" x2="81.77" y2="600.94"/><line class="cls-1" x1="81.77" y1="600.94" x2="63.63" y2="612.32"/><line class="cls-1" x1="63.63" y1="612.32" x2="75.02" y2="630.46"/><line class="cls-1" x1="75.02" y1="630.46" x2="93.15" y2="619.08"/><line class="cls-1" x1="91.24" y1="662.23" x2="109.02" y2="692.81"/><line class="cls-1" x1="109.02" y1="692.81" x2="125.73" y2="683.1"/><line class="cls-1" x1="125.73" y1="683.1" x2="107.95" y2="652.51"/><line class="cls-1" x1="107.95" y1="652.51" x2="91.24" y2="662.23"/><line class="cls-1" x1="22.12" y1="499.63" x2="28.05" y2="518.4"/><line class="cls-1" x1="28.05" y1="518.4" x2="48.02" y2="512.09"/><line class="cls-1" x1="48.02" y1="512.09" x2="42.09" y2="493.32"/><line class="cls-1" x1="42.09" y1="493.32" x2="22.12" y2="499.63"/><line class="cls-1" x1="9.53" y1="459.12" x2="24.59" y2="459.12"/><line class="cls-1" x1="24.59" y1="459.12" x2="24.59" y2="468.26"/><line class="cls-1" x1="24.59" y1="468.26" x2="9.53" y2="468.26"/><line class="cls-1" x1="9.53" y1="468.26" x2="9.53" y2="459.12"/><line class="cls-1" x1="59.42" y1="523.59" x2="28.3" y2="533.71"/><line class="cls-1" x1="28.3" y1="533.71" x2="33.45" y2="549.55"/><line class="cls-1" x1="33.45" y1="549.55" x2="64.57" y2="539.43"/><line class="cls-1" x1="64.57" y1="539.43" x2="59.42" y2="523.59"/><line class="cls-1" x1="188.25" y1="450.77" x2="180.96" y2="469.61"/><line class="cls-1" x1="180.96" y1="469.61" x2="182.91" y2="473.89"/><line class="cls-1" x1="182.91" y1="473.89" x2="190.56" y2="473.32"/><line class="cls-1" x1="190.56" y1="473.32" x2="194.83" y2="500.05"/><line class="cls-1" x1="194.83" y1="500.05" x2="147.35" y2="518.35"/><line class="cls-1" x1="147.35" y1="518.35" x2="138.18" y2="514.45"/><line class="cls-1" x1="188.25" y1="450.77" x2="149.28" y2="434.21"/><line class="cls-1" x1="149.28" y1="434.21" x2="140.78" y2="452.53"/><line class="cls-1" x1="140.78" y1="452.53" x2="136.34" y2="454.09"/><line class="cls-1" x1="136.34" y1="454.09" x2="131.44" y2="448.19"/><line class="cls-1" x1="131.44" y1="448.19" x2="109.23" y2="463.67"/><line class="cls-1" x1="109.23" y1="463.67" x2="129.01" y2="510.55"/><line class="cls-1" x1="129.01" y1="510.55" x2="138.18" y2="514.45"/><line class="cls-1" x1="143.08" y1="365.61" x2="120.36" y2="375.98"/><line class="cls-1" x1="120.36" y1="375.98" x2="126.56" y2="389.58"/><line class="cls-1" x1="126.56" y1="389.58" x2="149.29" y2="379.21"/><line class="cls-1" x1="149.29" y1="379.21" x2="143.08" y2="365.61"/><line class="cls-1" x1="266.2" y1="380.97" x2="250.14" y2="384.18"/><line class="cls-1" x1="250.14" y1="384.18" x2="252.91" y2="398"/><line class="cls-1" x1="252.91" y1="398" x2="268.96" y2="394.8"/><line class="cls-1" x1="268.96" y1="394.8" x2="266.2" y2="380.97"/><line class="cls-1" x1="276.32" y1="336.02" x2="284.48" y2="349.36"/><line class="cls-1" x1="284.48" y1="349.36" x2="274.1" y2="355.69"/><line class="cls-1" x1="274.1" y1="355.69" x2="265.95" y2="342.36"/><line class="cls-1" x1="265.95" y1="342.36" x2="276.32" y2="336.02"/><line class="cls-1" x1="267.79" y1="262.64" x2="267.79" y2="307.34"/><line class="cls-1" x1="267.79" y1="307.34" x2="246.3" y2="307.34"/><line class="cls-1" x1="246.3" y1="307.34" x2="246.3" y2="262.64"/><line class="cls-1" x1="246.3" y1="262.64" x2="267.79" y2="262.64"/><line class="cls-1" x1="295.94" y1="261.65" x2="295.94" y2="306.85"/><line class="cls-1" x1="295.94" y1="306.85" x2="323.11" y2="306.85"/><line class="cls-1" x1="323.11" y1="306.85" x2="323.11" y2="261.65"/><line class="cls-1" x1="323.11" y1="261.65" x2="295.94" y2="261.65"/><line class="cls-1" x1="359.25" y1="286.69" x2="386.67" y2="286.69"/><line class="cls-1" x1="386.67" y1="286.69" x2="386.67" y2="263.23"/><line class="cls-1" x1="386.67" y1="263.23" x2="359.25" y2="263.23"/><line class="cls-1" x1="359.25" y1="263.23" x2="359.25" y2="286.69"/><line class="cls-1" x1="414.33" y1="276.07" x2="435.82" y2="276.07"/><line class="cls-1" x1="435.82" y1="276.07" x2="435.82" y2="262.98"/><line class="cls-1" x1="435.82" y1="262.98" x2="414.33" y2="262.98"/><line class="cls-1" x1="414.33" y1="262.98" x2="414.33" y2="276.07"/><line class="cls-1" x1="377.28" y1="347.16" x2="372.14" y2="300.23"/><line class="cls-1" x1="372.14" y1="300.23" x2="381.2" y2="299.24"/><line class="cls-1" x1="381.2" y1="299.24" x2="383.9" y2="323.92"/><line class="cls-1" x1="383.9" y1="323.92" x2="393.75" y2="323.92"/><line class="cls-1" x1="393.75" y1="323.92" x2="393.75" y2="337.9"/><line class="cls-1" x1="393.75" y1="337.9" x2="418.45" y2="329.46"/><line class="cls-1" x1="418.45" y1="329.46" x2="421.33" y2="337.9"/><line class="cls-1" x1="421.33" y1="337.9" x2="392.56" y2="347.73"/><line class="cls-1" x1="392.56" y1="347.73" x2="377.28" y2="347.16"/><line class="cls-1" x1="255.27" y1="215.78" x2="273.35" y2="218.44"/><line class="cls-1" x1="273.35" y1="218.44" x2="270.77" y2="235.94"/><line class="cls-1" x1="270.77" y1="235.94" x2="252.69" y2="233.28"/><line class="cls-1" x1="252.69" y1="233.28" x2="255.27" y2="215.78"/><line class="cls-1" x1="288.47" y1="204.51" x2="288.47" y2="230.6"/><line class="cls-1" x1="288.47" y1="230.6" x2="314.55" y2="230.6"/><line class="cls-1" x1="314.55" y1="230.6" x2="314.55" y2="204.51"/><line class="cls-1" x1="314.55" y1="204.51" x2="288.47" y2="204.51"/><line class="cls-1" x1="335.89" y1="206.89" x2="357.23" y2="206.89"/><line class="cls-1" x1="357.23" y1="206.89" x2="357.23" y2="228.23"/><line class="cls-1" x1="357.23" y1="228.23" x2="335.89" y2="228.23"/><line class="cls-1" x1="335.89" y1="228.23" x2="335.89" y2="206.89"/><line class="cls-1" x1="376.2" y1="206.89" x2="424.21" y2="206.89"/><line class="cls-1" x1="424.21" y1="206.89" x2="424.21" y2="228.52"/><line class="cls-1" x1="424.21" y1="228.52" x2="376.2" y2="228.52"/><line class="cls-1" x1="376.2" y1="228.52" x2="376.2" y2="206.89"/><line class="cls-1" x1="223.08" y1="237.75" x2="196.66" y2="237.75"/><line class="cls-1" x1="196.66" y1="237.75" x2="196.66" y2="270.6"/><line class="cls-1" x1="196.66" y1="270.6" x2="217.65" y2="270.6"/><line class="cls-1" x1="217.65" y1="270.6" x2="217.65" y2="254.54"/><line class="cls-1" x1="217.65" y1="254.54" x2="223.08" y2="254.54"/><line class="cls-1" x1="223.08" y1="254.54" x2="223.08" y2="237.75"/><line class="cls-1" x1="26.71" y1="220.73" x2="22.76" y2="193.31"/><line class="cls-1" x1="22.76" y1="193.31" x2="34.3" y2="191.65"/><line class="cls-1" x1="34.3" y1="191.65" x2="35.2" y2="197.89"/><line class="cls-1" x1="35.2" y1="197.89" x2="60.88" y2="194.18"/><line class="cls-1" x1="60.88" y1="194.18" x2="59.98" y2="187.95"/><line class="cls-1" x1="59.98" y1="187.95" x2="72.61" y2="186.13"/><line class="cls-1" x1="72.61" y1="186.13" x2="76.56" y2="213.54"/><line class="cls-1" x1="76.56" y1="213.54" x2="26.71" y2="220.73"/><line class="cls-1" x1="357.59" y1="155.67" x2="399.38" y2="130.77"/><line class="cls-1" x1="399.38" y1="130.77" x2="393.86" y2="121.51"/><line class="cls-1" x1="393.86" y1="121.51" x2="385.28" y2="126.63"/><line class="cls-1" x1="385.28" y1="126.63" x2="377.8" y2="114.08"/><line class="cls-1" x1="377.8" y1="114.08" x2="411.28" y2="94.13"/><line class="cls-1" x1="411.28" y1="94.13" x2="417.15" y2="103.98"/><line class="cls-1" x1="417.15" y1="103.98" x2="402.17" y2="112.91"/><line class="cls-1" x1="402.17" y1="112.91" x2="409.29" y2="124.86"/><line class="cls-1" x1="409.29" y1="124.86" x2="449.68" y2="100.8"/><line class="cls-1" x1="449.68" y1="100.8" x2="426.72" y2="62.26"/><line class="cls-1" x1="426.72" y1="62.26" x2="334.63" y2="117.12"/><line class="cls-1" x1="334.63" y1="117.12" x2="344.59" y2="133.86"/><line class="cls-1" x1="344.59" y1="133.86" x2="352.34" y2="129.24"/><line class="cls-1" x1="352.34" y1="129.24" x2="358.21" y2="139.09"/><line class="cls-1" x1="358.21" y1="139.09" x2="350.46" y2="143.71"/><line class="cls-1" x1="350.46" y1="143.71" x2="357.59" y2="155.67"/><line class="cls-1" x1="294.85" y1="162.45" x2="270.55" y2="122.74"/><line class="cls-1" x1="270.55" y1="122.74" x2="293.1" y2="108.94"/><line class="cls-1" x1="293.1" y1="108.94" x2="325.15" y2="161.3"/><line class="cls-1" x1="325.15" y1="161.3" x2="308.2" y2="171.67"/><line class="cls-1" x1="308.2" y1="171.67" x2="300.47" y2="159.02"/><line class="cls-1" x1="300.47" y1="159.02" x2="294.85" y2="162.45"/><line class="cls-1" x1="315.54" y1="43.07" x2="350.4" y2="96.06"/><line class="cls-1" x1="350.4" y1="96.06" x2="331.61" y2="108.42"/><line class="cls-1" x1="331.61" y1="108.42" x2="296.75" y2="55.43"/><line class="cls-1" x1="296.75" y1="55.43" x2="315.54" y2="43.07"/><line class="cls-1" x1="384.12" y1=".12" x2="418.98" y2="53.12"/><line class="cls-1" x1="418.98" y1="53.12" x2="400.19" y2="65.48"/><line class="cls-1" x1="400.19" y1="65.48" x2="365.33" y2="12.48"/><line class="cls-1" x1="365.33" y1="12.48" x2="384.12" y2=".12"/><line class="cls-1" x1="184.47" y1="177.43" x2="204.92" y2="206.18"/><line class="cls-1" x1="204.92" y1="206.18" x2="190.1" y2="216.72"/><line class="cls-1" x1="190.1" y1="216.72" x2="169.65" y2="187.97"/><line class="cls-1" x1="169.65" y1="187.97" x2="184.47" y2="177.43"/><line class="cls-1" x1="230.71" y1="193.73" x2="211.74" y2="164.68"/><line class="cls-1" x1="211.74" y1="164.68" x2="224.89" y2="156.1"/><line class="cls-1" x1="224.89" y1="156.1" x2="243.86" y2="185.14"/><line class="cls-1" x1="243.86" y1="185.14" x2="230.71" y2="193.73"/><line class="cls-1" x1="87.55" y1="176.84" x2="132.3" y2="148.98"/><line class="cls-1" x1="132.3" y1="148.98" x2="141.63" y2="163.96"/><line class="cls-1" x1="141.63" y1="163.96" x2="96.88" y2="191.82"/><line class="cls-1" x1="96.88" y1="191.82" x2="87.55" y2="176.84"/><line class="cls-1" x1="180.66" y1="252.89" x2="185.12" y2="270.73"/><line class="cls-1" x1="185.12" y1="270.73" x2="170.95" y2="274.27"/><line class="cls-1" x1="170.95" y1="274.27" x2="166.49" y2="256.43"/><line class="cls-1" x1="166.49" y1="256.43" x2="180.66" y2="252.89"/><line class="cls-1" x1="3.79" y1="357.73" x2="24.17" y2="352.99"/><line class="cls-1" x1="24.17" y1="352.99" x2="20.5" y2="337.21"/><line class="cls-1" x1="20.5" y1="337.21" x2=".12" y2="341.94"/><line class="cls-1" x1=".12" y1="341.94" x2="3.79" y2="357.73"/><line class="cls-1" x1="26.23" y1="324.38" x2="30.34" y2="339.2"/><line class="cls-1" x1="30.34" y1="339.2" x2="42.31" y2="335.88"/><line class="cls-1" x1="42.31" y1="335.88" x2="38.19" y2="321.06"/><line class="cls-1" x1="38.19" y1="321.06" x2="26.23" y2="324.38"/><line class="cls-1" x1="56.28" y1="311.42" x2="61.01" y2="330.97"/><line class="cls-1" x1="61.01" y1="330.97" x2="80.16" y2="326.33"/><line class="cls-1" x1="80.16" y1="326.33" x2="75.42" y2="306.78"/><line class="cls-1" x1="75.42" y1="306.78" x2="56.28" y2="311.42"/><line class="cls-1" x1="133.39" y1="275.13" x2="113.63" y2="279.57"/><line class="cls-1" x1="113.63" y1="279.57" x2="117.4" y2="296.33"/><line class="cls-1" x1="117.4" y1="296.33" x2="137.16" y2="291.88"/><line class="cls-1" x1="137.16" y1="291.88" x2="133.39" y2="275.13"/><line class="cls-1" x1="91.4" y1="260.8" x2="73.87" y2="263.77"/><line class="cls-1" x1="73.87" y1="263.77" x2="76.38" y2="278.66"/><line class="cls-1" x1="76.38" y1="278.66" x2="93.92" y2="275.7"/><line class="cls-1" x1="93.92" y1="275.7" x2="91.4" y2="260.8"/><line class="cls-1" x1="66.21" y1="276.86" x2="72.14" y2="296.37"/><line class="cls-1" x1="72.14" y1="296.37" x2="61.79" y2="299.51"/><line class="cls-1" x1="61.79" y1="299.51" x2="55.86" y2="280"/><line class="cls-1" x1="55.86" y1="280" x2="66.21" y2="276.86"/><line class="cls-1" x1="787.07" y1="19.23" x2="771.39" y2="29.99"/><line class="cls-1" x1="771.39" y1="29.99" x2="793.84" y2="62.71"/><line class="cls-1" x1="793.84" y1="62.71" x2="826.73" y2="40.13"/><line class="cls-1" x1="826.73" y1="40.13" x2="815.5" y2="23.78"/><line class="cls-1" x1="801.85" y1="96.7" x2="824.62" y2="136.15"/><line class="cls-1" x1="824.62" y1="136.15" x2="841.8" y2="126.23"/><line class="cls-1" x1="841.8" y1="126.23" x2="819.03" y2="86.79"/><line class="cls-1" x1="819.03" y1="86.79" x2="801.85" y2="96.7"/><line class="cls-1" x1="845.15" y1="70.08" x2="868.56" y2="109.53"/><line class="cls-1" x1="868.56" y1="109.53" x2="891.22" y2="96.08"/><line class="cls-1" x1="891.22" y1="96.08" x2="867.8" y2="56.64"/><line class="cls-1" x1="867.8" y1="56.64" x2="845.15" y2="70.08"/><line class="cls-1" x1="896.78" y1="40.58" x2="920.83" y2="80.67"/><line class="cls-1" x1="920.83" y1="80.67" x2="944.32" y2="66.57"/><line class="cls-1" x1="944.32" y1="66.57" x2="920.27" y2="26.48"/><line class="cls-1" x1="920.27" y1="26.48" x2="896.78" y2="40.58"/><line class="cls-1" x1="904.8" y1="114.66" x2="930.14" y2="156.35"/><line class="cls-1" x1="930.14" y1="156.35" x2="953.37" y2="142.23"/><line class="cls-1" x1="953.37" y1="142.23" x2="928.03" y2="100.54"/><line class="cls-1" x1="928.03" y1="100.54" x2="904.8" y2="114.66"/><line class="cls-1" x1="904.27" y1="237.61" x2="928.82" y2="263.5"/><line class="cls-1" x1="928.82" y1="263.5" x2="952.64" y2="251.43"/><line class="cls-1" x1="952.64" y1="251.43" x2="944.89" y2="236.13"/><line class="cls-1" x1="944.89" y1="236.13" x2="936.33" y2="240.47"/><line class="cls-1" x1="936.33" y1="240.47" x2="919.26" y2="223.4"/><line class="cls-1" x1="919.26" y1="223.4" x2="904.27" y2="237.61"/><line class="cls-1" x1="986.11" y1="296.7" x2="960.58" y2="322.22"/><line class="cls-1" x1="960.58" y1="322.22" x2="980.76" y2="348.81"/><line class="cls-1" x1="980.76" y1="348.81" x2="1017.37" y2="315.14"/><line class="cls-1" x1="1017.37" y1="315.14" x2="1000.03" y2="292.29"/><line class="cls-1" x1="1000.03" y1="292.29" x2="1004.36" y2="287.96"/><line class="cls-1" x1="1004.36" y1="287.96" x2="992.52" y2="270.77"/><line class="cls-1" x1="992.52" y1="270.77" x2="976.22" y2="280.13"/><line class="cls-1" x1="976.22" y1="280.13" x2="986.11" y2="296.7"/><line class="cls-1" x1="987.83" y1="273.46" x2="979.6" y2="261.64"/><line class="cls-1" x1="979.6" y1="261.64" x2="938" y2="287.61"/><line class="cls-1" x1="938" y1="287.61" x2="948.42" y2="301.78"/><line class="cls-1" x1="948.42" y1="301.78" x2="978.44" y2="283.86"/><line class="cls-1" x1="1043.73" y1="316.93" x2="1057.52" y2="310.83"/><line class="cls-1" x1="1057.52" y1="310.83" x2="1062.97" y2="323.16"/><line class="cls-1" x1="1062.97" y1="323.16" x2="1049.18" y2="329.26"/><line class="cls-1" x1="1049.18" y1="329.26" x2="1043.73" y2="316.93"/><line class="cls-1" x1="1064.26" y1="282.29" x2="1080.29" y2="308.91"/><line class="cls-1" x1="1080.29" y1="308.91" x2="1095.89" y2="299.52"/><line class="cls-1" x1="1095.89" y1="299.52" x2="1079.85" y2="272.9"/><line class="cls-1" x1="1079.85" y1="272.9" x2="1064.26" y2="282.29"/><line class="cls-1" x1="993.32" y1="252.19" x2="1000.93" y2="263.32"/><line class="cls-1" x1="1000.93" y1="263.32" x2="1012.44" y2="255.46"/><line class="cls-1" x1="1012.44" y1="255.46" x2="1004.83" y2="244.32"/><line class="cls-1" x1="1004.83" y1="244.32" x2="993.32" y2="252.19"/><line class="cls-1" x1="1030.07" y1="245.14" x2="1042.13" y2="262.03"/><line class="cls-1" x1="1042.13" y1="262.03" x2="1059.33" y2="249.74"/><line class="cls-1" x1="1059.33" y1="249.74" x2="1047.27" y2="232.86"/><line class="cls-1" x1="1047.27" y1="232.86" x2="1030.07" y2="245.14"/><line class="cls-1" x1="936.72" y1="204.02" x2="959.81" y2="198.94"/><line class="cls-1" x1="959.81" y1="198.94" x2="962.71" y2="212.11"/><line class="cls-1" x1="962.71" y1="212.11" x2="939.62" y2="217.19"/><line class="cls-1" x1="939.62" y1="217.19" x2="936.72" y2="204.02"/><line class="cls-1" x1="1025.41" y1="151.5" x2="1033.95" y2="186.95"/><line class="cls-1" x1="1033.95" y1="186.95" x2="1013.11" y2="191.97"/><line class="cls-1" x1="1013.11" y1="191.97" x2="1004.57" y2="156.52"/><line class="cls-1" x1="1004.57" y1="156.52" x2="1025.41" y2="151.5"/><line class="cls-1" x1="1015.78" y1="64.04" x2="994.4" y2="69.39"/><line class="cls-1" x1="994.4" y1="69.39" x2="997.83" y2="83.12"/><line class="cls-1" x1="997.83" y1="83.12" x2="1019.21" y2="77.77"/><line class="cls-1" x1="1019.21" y1="77.77" x2="1015.78" y2="64.04"/><line class="cls-1" x1="1039.61" y1="84.75" x2="1027.8" y2="86.98"/><line class="cls-1" x1="1027.8" y1="86.98" x2="1029.55" y2="96.23"/><line class="cls-1" x1="1029.55" y1="96.23" x2="1041.35" y2="94"/><line class="cls-1" x1="1041.35" y1="94" x2="1039.61" y2="84.75"/><line class="cls-1" x1="1038.49" y1="103.24" x2="1026.69" y2="104.8"/><line class="cls-1" x1="1026.69" y1="104.8" x2="1027.89" y2="113.85"/><line class="cls-1" x1="1027.89" y1="113.85" x2="1039.69" y2="112.29"/><line class="cls-1" x1="1039.69" y1="112.29" x2="1038.49" y2="103.24"/><line class="cls-1" x1="1039.16" y1="124.4" x2="1028.25" y2="125.96"/><line class="cls-1" x1="1028.25" y1="125.96" x2="1029.81" y2="136.87"/><line class="cls-1" x1="1029.81" y1="136.87" x2="1040.72" y2="135.31"/><line class="cls-1" x1="1040.72" y1="135.31" x2="1039.16" y2="124.4"/><line class="cls-1" x1="1089.2" y1="130.31" x2="1083.18" y2="127.2"/><line class="cls-1" x1="1083.18" y1="127.2" x2="1076.05" y2="143.68"/><line class="cls-1" x1="1076.05" y1="143.68" x2="1091.76" y2="150.47"/><line class="cls-1" x1="1091.76" y1="150.47" x2="1093.56" y2="146.31"/><line class="cls-1" x1="1093.56" y1="146.31" x2="1106.02" y2="151.7"/><line class="cls-1" x1="1106.02" y1="151.7" x2="1112.37" y2="137.03"/><line class="cls-1" x1="1112.37" y1="137.03" x2="1106.23" y2="134.37"/><line class="cls-1" x1="1106.23" y1="134.37" x2="1112.37" y2="120.17"/><line class="cls-1" x1="1112.37" y1="120.17" x2="1098.25" y2="112.85"/><line class="cls-1" x1="1098.25" y1="112.85" x2="1089.2" y2="130.31"/><line class="cls-1" x1="1042.22" y1="420.32" x2="1070.12" y2="370.3"/><line class="cls-1" x1="1070.12" y1="370.3" x2="1075.02" y2="373.03"/><line class="cls-1" x1="1075.02" y1="373.03" x2="1093.96" y2="339.07"/><line class="cls-1" x1="1093.96" y1="339.07" x2="1124.94" y2="356.35"/><line class="cls-1" x1="1124.94" y1="356.35" x2="1105.72" y2="396.59"/><line class="cls-1" x1="1105.72" y1="396.59" x2="1097.94" y2="392.88"/><line class="cls-1" x1="1097.94" y1="392.88" x2="1075.87" y2="439.09"/><line class="cls-1" x1="1075.87" y1="439.09" x2="1042.22" y2="420.32"/><line class="cls-1" x1="787.07" y1="19.23" x2="798.12" y2="35.34"/><line class="cls-1" x1="798.12" y1="35.34" x2="815.5" y2="23.78"/><polyline class="cls-2" points="540.28 337.79 581.73 311.06 589.48 323.08 559.34 342.52 563.61 349.16 552.31 356.45 540.28 337.79"/><line class="cls-1" x1="540.28" y1="337.79" x2="581.73" y2="311.06"/><line class="cls-1" x1="581.73" y1="311.06" x2="589.48" y2="323.08"/><line class="cls-1" x1="589.48" y1="323.08" x2="559.34" y2="342.52"/><line class="cls-1" x1="559.34" y1="342.52" x2="563.61" y2="349.16"/><line class="cls-1" x1="563.61" y1="349.16" x2="552.31" y2="356.45"/><line class="cls-1" x1="552.31" y1="356.45" x2="540.28" y2="337.79"/></g></svg>