<?xml version="1.0" encoding="UTF-8"?><svg id="Layer_2" xmlns="http://www.w3.org/2000/svg" viewBox="0 0 868.28 826.81"><defs><style>.cls-1{fill:none;stroke:#000;stroke-linecap:round;stroke-linejoin:round;stroke-width:.25px;}.cls-2{fill-rule:evenodd;}</style></defs><g id="Layer_1-2"><g><polyline class="cls-2" points="572.66 463.71 578.42 471.6 576.52 473 565.84 471.97 556.05 475.36 554.28 470.24 559.51 468.43 564.82 464.4 572.66 463.71"/><polyline class="cls-2" points="592.19 484.77 585.93 478.65 587.55 476.74 595.34 478.59 604.96 475.29 606.53 479.81 592.19 484.77"/><line class="cls-1" x1="714.5" y1="392.86" x2="704.99" y2="395.35"/><line class="cls-1" x1="704.99" y1="395.35" x2="696.15" y2="401.36"/><line class="cls-1" x1="696.15" y1="401.36" x2="698.42" y2="406.91"/><line class="cls-1" x1="698.42" y1="406.91" x2="706.23" y2="404.53"/><line class="cls-1" x1="706.23" y1="404.53" x2="717.03" y2="402.51"/><line class="cls-1" x1="717.03" y1="402.51" x2="714.5" y2="392.86"/><line class="cls-1" x1="584.08" y1="330.33" x2="577.98" y2="335.51"/><line class="cls-1" x1="577.98" y1="335.51" x2="581.89" y2="339.43"/><line class="cls-1" x1="581.89" y1="339.43" x2="583.3" y2="338.38"/><line class="cls-1" x1="583.3" y1="338.38" x2="585.95" y2="341.43"/><line class="cls-1" x1="585.95" y1="341.43" x2="589.63" y2="339.66"/><line class="cls-1" x1="589.63" y1="339.66" x2="587.93" y2="334.38"/><line class="cls-1" x1="587.93" y1="334.38" x2="584.08" y2="330.33"/><line class="cls-1" x1="781.4" y1="269.54" x2="769.74" y2="274.85"/><line class="cls-1" x1="769.74" y1="274.85" x2="773.63" y2="283.4"/><line class="cls-1" x1="773.63" y1="283.4" x2="785.29" y2="278.09"/><line class="cls-1" x1="785.29" y1="278.09" x2="781.4" y2="269.54"/><line class="cls-1" x1="625.11" y1="551.96" x2="615.95" y2="540.73"/><line class="cls-1" x1="615.95" y1="540.73" x2="622.56" y2="535.34"/><line class="cls-1" x1="622.56" y1="535.34" x2="640.38" y2="557.21"/><line class="cls-1" x1="640.38" y1="557.21" x2="634.55" y2="561.96"/><line class="cls-1" x1="634.55" y1="561.96" x2="630.55" y2="557.06"/><line class="cls-1" x1="630.55" y1="557.06" x2="627.84" y2="559.27"/><line class="cls-1" x1="627.84" y1="559.27" x2="623.17" y2="553.54"/><line class="cls-1" x1="623.17" y1="553.54" x2="625.11" y2="551.96"/><line class="cls-1" x1="454.14" y1="688.79" x2="446.16" y2="704.52"/><line class="cls-1" x1="446.16" y1="704.52" x2="477.07" y2="720.21"/><line class="cls-1" x1="477.07" y1="720.21" x2="481.82" y2="710.84"/><line class="cls-1" x1="481.82" y1="710.84" x2="458.63" y2="699.07"/><line class="cls-1" x1="458.63" y1="699.07" x2="461.86" y2="692.7"/><line class="cls-1" x1="461.86" y1="692.7" x2="454.14" y2="688.79"/><line class="cls-1" x1="416.8" y1="683.85" x2="412.57" y2="689.02"/><line class="cls-1" x1="412.57" y1="689.02" x2="433.24" y2="707.57"/><line class="cls-1" x1="433.24" y1="707.57" x2="438.89" y2="701.93"/><line class="cls-1" x1="438.89" y1="701.93" x2="416.8" y2="683.85"/><line class="cls-1" x1=".99" y1="503.57" x2="14.3" y2="495.45"/><line class="cls-1" x1="14.3" y1="495.45" x2="23.64" y2="512.16"/><line class="cls-1" x1="197.44" y1="459.66" x2="193.38" y2="465.32"/><line class="cls-1" x1="193.38" y1="465.32" x2="197.07" y2="470.71"/><line class="cls-1" x1="197.07" y1="470.71" x2="192.18" y2="474.05"/><line class="cls-1" x1="192.18" y1="474.05" x2="195.46" y2="481.09"/><line class="cls-1" x1="195.46" y1="481.09" x2="188.85" y2="487.7"/><line class="cls-1" x1="188.85" y1="487.7" x2="195.65" y2="491.94"/><line class="cls-1" x1="195.65" y1="491.94" x2="201.12" y2="485.33"/><line class="cls-1" x1="201.12" y1="485.33" x2="202.64" y2="486.59"/><line class="cls-1" x1="202.64" y1="486.59" x2="207.23" y2="482"/><line class="cls-1" x1="207.23" y1="482" x2="203.93" y2="478.7"/><line class="cls-1" x1="203.93" y1="478.7" x2="207.94" y2="474.69"/><line class="cls-1" x1="207.94" y1="474.69" x2="202.07" y2="469.45"/><line class="cls-1" x1="202.07" y1="469.45" x2="205.14" y2="465.18"/><line class="cls-1" x1="205.14" y1="465.18" x2="197.44" y2="459.66"/><line class="cls-1" x1="143.38" y1="501.85" x2="140.83" y2="511.86"/><line class="cls-1" x1="140.83" y1="511.86" x2="149.71" y2="513.27"/><line class="cls-1" x1="149.71" y1="513.27" x2="156.88" y2="519.12"/><line class="cls-1" x1="156.88" y1="519.12" x2="163.57" y2="510.92"/><line class="cls-1" x1="163.57" y1="510.92" x2="157.62" y2="504.98"/><line class="cls-1" x1="157.62" y1="504.98" x2="160.37" y2="495.15"/><line class="cls-1" x1="160.37" y1="495.15" x2="150.65" y2="493.26"/><line class="cls-1" x1="150.65" y1="493.26" x2="148.12" y2="502.32"/><line class="cls-1" x1="148.12" y1="502.32" x2="143.38" y2="501.85"/><line class="cls-1" x1="75.39" y1="545.72" x2="87.28" y2="541.98"/><line class="cls-1" x1="87.28" y1="541.98" x2="92.95" y2="550.59"/><line class="cls-1" x1="92.95" y1="550.59" x2="80.71" y2="554.44"/><line class="cls-1" x1="80.71" y1="554.44" x2="75.39" y2="545.72"/><line class="cls-1" x1="23.85" y1="548.09" x2="40.5" y2="537.56"/><line class="cls-1" x1="40.5" y1="537.56" x2="52.85" y2="545.6"/><line class="cls-1" x1="52.85" y1="545.6" x2="46.85" y2="556.59"/><line class="cls-1" x1="46.85" y1="556.59" x2="34.95" y2="550.09"/><line class="cls-1" x1="34.95" y1="550.09" x2="26.7" y2="552.6"/><line class="cls-1" x1="26.7" y1="552.6" x2="23.85" y2="548.09"/><line class="cls-1" x1="23.64" y1="512.16" x2="11.89" y2="518.73"/><line class="cls-1" x1="11.89" y1="518.73" x2="10.16" y2="515.64"/><line class="cls-1" x1="10.16" y1="515.64" x2="3.65" y2="519.28"/><line class="cls-1" x1="3.65" y1="519.28" x2=".12" y2="512.98"/><line class="cls-1" x1=".12" y1="512.98" x2="3.58" y2="511.04"/><line class="cls-1" x1="3.58" y1="511.04" x2=".99" y2="503.57"/><line class="cls-1" x1="25.04" y1="580.14" x2="35.91" y2="586.71"/><line class="cls-1" x1="35.91" y1="586.71" x2="43.05" y2="592.6"/><line class="cls-1" x1="43.05" y1="592.6" x2="53.01" y2="579.57"/><line class="cls-1" x1="53.01" y1="579.57" x2="47.58" y2="575.41"/><line class="cls-1" x1="47.58" y1="575.41" x2="46.56" y2="576.74"/><line class="cls-1" x1="46.56" y1="576.74" x2="38.26" y2="570.39"/><line class="cls-1" x1="38.26" y1="570.39" x2="34.08" y2="574.57"/><line class="cls-1" x1="34.08" y1="574.57" x2="30.81" y2="573"/><line class="cls-1" x1="30.81" y1="573" x2="25.04" y2="580.14"/><line class="cls-1" x1="8.16" y1="567" x2="19.15" y2="557.03"/><line class="cls-1" x1="19.15" y1="557.03" x2="29.07" y2="567.98"/><line class="cls-1" x1="29.07" y1="567.98" x2="21.71" y2="575.34"/><line class="cls-1" x1="21.71" y1="575.34" x2="15.13" y2="568.76"/><line class="cls-1" x1="15.13" y1="568.76" x2="10.77" y2="571.98"/><line class="cls-1" x1="10.77" y1="571.98" x2="8.16" y2="567"/><line class="cls-1" x1="387.44" y1="666.64" x2="378.33" y2="670.44"/><line class="cls-1" x1="378.33" y1="670.44" x2="382.28" y2="677.1"/><line class="cls-1" x1="382.28" y1="677.1" x2="391.25" y2="673.3"/><line class="cls-1" x1="391.25" y1="673.3" x2="387.44" y2="666.64"/><line class="cls-1" x1="357.81" y1="659.02" x2="351.56" y2="663.65"/><line class="cls-1" x1="351.56" y1="663.65" x2="357.34" y2="669.42"/><line class="cls-1" x1="357.34" y1="669.42" x2="354.07" y2="672.69"/><line class="cls-1" x1="354.07" y1="672.69" x2="361.75" y2="678.6"/><line class="cls-1" x1="361.75" y1="678.6" x2="367.19" y2="670.31"/><line class="cls-1" x1="367.19" y1="670.31" x2="357.81" y2="659.02"/><line class="cls-1" x1="351.97" y1="684.17" x2="340" y2="693.55"/><line class="cls-1" x1="340" y1="693.55" x2="344.23" y2="698.95"/><line class="cls-1" x1="344.23" y1="698.95" x2="347.36" y2="696.5"/><line class="cls-1" x1="347.36" y1="696.5" x2="349.26" y2="698.92"/><line class="cls-1" x1="349.26" y1="698.92" x2="343.66" y2="703.31"/><line class="cls-1" x1="343.66" y1="703.31" x2="351.22" y2="710.88"/><line class="cls-1" x1="351.22" y1="710.88" x2="364.61" y2="699.12"/><line class="cls-1" x1="364.61" y1="699.12" x2="351.97" y2="684.17"/><line class="cls-1" x1="287.27" y1="672.35" x2="294.06" y2="663.38"/><line class="cls-1" x1="294.06" y1="663.38" x2="301.33" y2="670.65"/><line class="cls-1" x1="301.33" y1="670.65" x2="300.59" y2="674.79"/><line class="cls-1" x1="300.59" y1="674.79" x2="301.27" y2="678.87"/><line class="cls-1" x1="301.27" y1="678.87" x2="294.88" y2="682.81"/><line class="cls-1" x1="294.88" y1="682.81" x2="287.36" y2="677"/><line class="cls-1" x1="287.36" y1="677" x2="287.27" y2="672.35"/><line class="cls-1" x1="308.21" y1="743.25" x2="303.64" y2="733.14"/><line class="cls-1" x1="303.64" y1="733.14" x2="309.19" y2="730.63"/><line class="cls-1" x1="309.19" y1="730.63" x2="312.12" y2="735.1"/><line class="cls-1" x1="312.12" y1="735.1" x2="319.73" y2="730.1"/><line class="cls-1" x1="319.73" y1="730.1" x2="325.8" y2="739.35"/><line class="cls-1" x1="325.8" y1="739.35" x2="319.96" y2="743.19"/><line class="cls-1" x1="319.96" y1="743.19" x2="324.16" y2="749.58"/><line class="cls-1" x1="324.16" y1="749.58" x2="309.51" y2="756.47"/><line class="cls-1" x1="309.51" y1="756.47" x2="304.17" y2="745.08"/><line class="cls-1" x1="304.17" y1="745.08" x2="308.21" y2="743.25"/><line class="cls-1" x1="268.25" y1="702.86" x2="276.84" y2="698.14"/><line class="cls-1" x1="276.84" y1="698.14" x2="279.5" y2="702.98"/><line class="cls-1" x1="279.5" y1="702.98" x2="275.6" y2="705.12"/><line class="cls-1" x1="275.6" y1="705.12" x2="280.24" y2="713.57"/><line class="cls-1" x1="280.24" y1="713.57" x2="275.55" y2="716.15"/><line class="cls-1" x1="275.55" y1="716.15" x2="268.25" y2="702.86"/><line class="cls-1" x1="318.17" y1="779.53" x2="311.65" y2="783.07"/><line class="cls-1" x1="311.65" y1="783.07" x2="316.9" y2="792.78"/><line class="cls-1" x1="316.9" y1="792.78" x2="333.15" y2="783.98"/><line class="cls-1" x1="333.15" y1="783.98" x2="325" y2="768.94"/><line class="cls-1" x1="325" y1="768.94" x2="321.24" y2="770.97"/><line class="cls-1" x1="321.24" y1="770.97" x2="318.95" y2="766.76"/><line class="cls-1" x1="318.95" y1="766.76" x2="313" y2="769.99"/><line class="cls-1" x1="313" y1="769.99" x2="318.17" y2="779.53"/><line class="cls-1" x1="165.05" y1="646.07" x2="162.9" y2="651.06"/><line class="cls-1" x1="162.9" y1="651.06" x2="170.48" y2="654.33"/><line class="cls-1" x1="170.48" y1="654.33" x2="172.63" y2="649.34"/><line class="cls-1" x1="172.63" y1="649.34" x2="165.05" y2="646.07"/><line class="cls-1" x1="175.58" y1="647.54" x2="171.73" y2="657.4"/><line class="cls-1" x1="171.73" y1="657.4" x2="180.12" y2="660.67"/><line class="cls-1" x1="180.12" y1="660.67" x2="181.22" y2="657.87"/><line class="cls-1" x1="181.22" y1="657.87" x2="189.68" y2="661.17"/><line class="cls-1" x1="189.68" y1="661.17" x2="191.8" y2="653.88"/><line class="cls-1" x1="191.8" y1="653.88" x2="175.58" y2="647.54"/><line class="cls-1" x1="191.1" y1="691.15" x2="190.31" y2="702.59"/><line class="cls-1" x1="190.31" y1="702.59" x2="196.66" y2="703.03"/><line class="cls-1" x1="196.66" y1="703.03" x2="199.63" y2="691.74"/><line class="cls-1" x1="199.63" y1="691.74" x2="191.1" y2="691.15"/><line class="cls-1" x1="258.62" y1="727.24" x2="261.68" y2="720.33"/><line class="cls-1" x1="261.68" y1="720.33" x2="279.12" y2="727.35"/><line class="cls-1" x1="279.12" y1="727.35" x2="276.06" y2="734.96"/><line class="cls-1" x1="276.06" y1="734.96" x2="258.62" y2="727.24"/><line class="cls-1" x1="276.18" y1="736.98" x2="282.07" y2="739.47"/><line class="cls-1" x1="282.07" y1="739.47" x2="279.61" y2="745.28"/><line class="cls-1" x1="279.61" y1="745.28" x2="263.33" y2="738.4"/><line class="cls-1" x1="263.33" y1="738.4" x2="265.79" y2="732.59"/><line class="cls-1" x1="265.79" y1="732.59" x2="276.18" y2="736.98"/><line class="cls-1" x1="233.82" y1="760.13" x2="229.2" y2="771.28"/><line class="cls-1" x1="229.2" y1="771.28" x2="234.49" y2="773.47"/><line class="cls-1" x1="234.49" y1="773.47" x2="239.11" y2="762.33"/><line class="cls-1" x1="239.11" y1="762.33" x2="233.82" y2="760.13"/><line class="cls-1" x1="237.08" y1="771.14" x2="233.27" y2="781.88"/><line class="cls-1" x1="233.27" y1="781.88" x2="239.8" y2="783.37"/><line class="cls-1" x1="239.8" y1="783.37" x2="244.05" y2="773.61"/><line class="cls-1" x1="244.05" y1="773.61" x2="237.08" y2="771.14"/><line class="cls-1" x1="164.87" y1="755.85" x2="157.4" y2="762.23"/><line class="cls-1" x1="157.4" y1="762.23" x2="170.32" y2="777.35"/><line class="cls-1" x1="170.32" y1="777.35" x2="174.66" y2="773.24"/><line class="cls-1" x1="174.66" y1="773.24" x2="167.32" y2="764.27"/><line class="cls-1" x1="167.32" y1="764.27" x2="170.07" y2="761.92"/><line class="cls-1" x1="170.07" y1="761.92" x2="164.87" y2="755.85"/><line class="cls-1" x1="145.71" y1="748.23" x2="135.79" y2="755.44"/><line class="cls-1" x1="135.79" y1="755.44" x2="138.78" y2="758.43"/><line class="cls-1" x1="138.78" y1="758.43" x2="148.16" y2="751.61"/><line class="cls-1" x1="148.16" y1="751.61" x2="145.71" y2="748.23"/><line class="cls-1" x1="71.93" y1="761.64" x2="79.76" y2="776.84"/><line class="cls-1" x1="79.76" y1="776.84" x2="101.75" y2="765.51"/><line class="cls-1" x1="101.75" y1="765.51" x2="93.91" y2="750.31"/><line class="cls-1" x1="93.91" y1="750.31" x2="71.93" y2="761.64"/><line class="cls-1" x1="123.93" y1="756.36" x2="117.8" y2="760.51"/><line class="cls-1" x1="117.8" y1="760.51" x2="121.6" y2="766.12"/><line class="cls-1" x1="121.6" y1="766.12" x2="118.05" y2="768.53"/><line class="cls-1" x1="118.05" y1="768.53" x2="124.35" y2="777.85"/><line class="cls-1" x1="124.35" y1="777.85" x2="134.04" y2="771.29"/><line class="cls-1" x1="134.04" y1="771.29" x2="123.93" y2="756.36"/><line class="cls-1" x1="141.49" y1="780.52" x2="144.13" y2="784.3"/><line class="cls-1" x1="144.13" y1="784.3" x2="133.51" y2="791.73"/><line class="cls-1" x1="133.51" y1="791.73" x2="139.86" y2="800.81"/><line class="cls-1" x1="139.86" y1="800.81" x2="144.36" y2="797.66"/><line class="cls-1" x1="144.36" y1="797.66" x2="140.28" y2="791.83"/><line class="cls-1" x1="140.28" y1="791.83" x2="150.77" y2="784.49"/><line class="cls-1" x1="150.77" y1="784.49" x2="145.86" y2="777.47"/><line class="cls-1" x1="145.86" y1="777.47" x2="141.49" y2="780.52"/><line class="cls-1" x1="137.62" y1="761.64" x2="132.52" y2="764.57"/><line class="cls-1" x1="132.52" y1="764.57" x2="141.87" y2="777.03"/><line class="cls-1" x1="141.87" y1="777.03" x2="146.97" y2="773.2"/><line class="cls-1" x1="146.97" y1="773.2" x2="137.62" y2="761.64"/><line class="cls-1" x1="444" y1="771.08" x2="441.97" y2="761.83"/><line class="cls-1" x1="441.97" y1="761.83" x2="433.81" y2="765.23"/><line class="cls-1" x1="433.81" y1="765.23" x2="437.6" y2="774.31"/><line class="cls-1" x1="437.6" y1="774.31" x2="444" y2="771.08"/><line class="cls-1" x1="437.6" y1="774.31" x2="434.94" y2="775.65"/><line class="cls-1" x1="434.94" y1="775.65" x2="439.94" y2="785.55"/><line class="cls-1" x1="439.94" y1="785.55" x2="447.66" y2="781.65"/><line class="cls-1" x1="447.66" y1="781.65" x2="442.66" y2="771.76"/><line class="cls-1" x1="439.94" y1="785.55" x2="446.86" y2="797.31"/><line class="cls-1" x1="446.86" y1="797.31" x2="454.77" y2="792.66"/><line class="cls-1" x1="454.77" y1="792.66" x2="447.66" y2="781.65"/><line class="cls-1" x1="448.67" y1="796.24" x2="454.01" y2="805.33"/><line class="cls-1" x1="454.01" y1="805.33" x2="462.12" y2="800.56"/><line class="cls-1" x1="462.12" y1="800.56" x2="456.78" y2="791.47"/><line class="cls-1" x1="456.78" y1="791.47" x2="454.77" y2="792.66"/><line class="cls-1" x1="201.29" y1="698.15" x2="197.7" y2="717.23"/><line class="cls-1" x1="197.7" y1="717.23" x2="204.55" y2="717.23"/><line class="cls-1" x1="204.55" y1="717.23" x2="207.9" y2="699.4"/><line class="cls-1" x1="207.9" y1="699.4" x2="201.29" y2="698.15"/><line class="cls-1" x1="416.99" y1="116.39" x2="416.99" y2="126.72"/><line class="cls-1" x1="416.99" y1="126.72" x2="432.02" y2="126.72"/><line class="cls-1" x1="432.02" y1="126.72" x2="432.02" y2="116.39"/><line class="cls-1" x1="432.02" y1="116.39" x2="416.99" y2="116.39"/><line class="cls-1" x1="21.26" y1="310.17" x2="14.6" y2="315.6"/><line class="cls-1" x1="14.6" y1="315.6" x2="21.13" y2="322.13"/><line class="cls-1" x1="21.13" y1="322.13" x2="26.58" y2="316.68"/><line class="cls-1" x1="26.58" y1="316.68" x2="21.26" y2="310.17"/><line class="cls-1" x1="23.23" y1="320.02" x2="32.41" y2="329.2"/><line class="cls-1" x1="32.41" y1="329.2" x2="38.39" y2="323.22"/><line class="cls-1" x1="38.39" y1="323.22" x2="29.21" y2="314.04"/><line class="cls-1" x1="29.21" y1="314.04" x2="23.23" y2="320.02"/><line class="cls-1" x1="32.41" y1="329.2" x2="30.55" y2="331.92"/><line class="cls-1" x1="30.55" y1="331.92" x2="36.27" y2="337.64"/><line class="cls-1" x1="36.27" y1="337.64" x2="42.56" y2="331.35"/><line class="cls-1" x1="42.56" y1="331.35" x2="36.41" y2="325.2"/><line class="cls-1" x1="36.27" y1="337.64" x2="33.5" y2="340.41"/><line class="cls-1" x1="33.5" y1="340.41" x2="39.9" y2="346.81"/><line class="cls-1" x1="39.9" y1="346.81" x2="46.41" y2="340.3"/><line class="cls-1" x1="46.41" y1="340.3" x2="40.01" y2="333.9"/><line class="cls-1" x1="23" y1="363.03" x2="19.89" y2="366.13"/><line class="cls-1" x1="19.89" y1="366.13" x2="27.84" y2="374.08"/><line class="cls-1" x1="27.84" y1="374.08" x2="25.75" y2="376.16"/><line class="cls-1" x1="25.75" y1="376.16" x2="35.55" y2="385.96"/><line class="cls-1" x1="35.55" y1="385.96" x2="43.18" y2="378.33"/><line class="cls-1" x1="43.18" y1="378.33" x2="33.97" y2="369.13"/><line class="cls-1" x1="33.97" y1="369.13" x2="35.63" y2="367.47"/><line class="cls-1" x1="35.63" y1="367.47" x2="32.56" y2="364.41"/><line class="cls-1" x1="32.56" y1="364.41" x2="28.47" y2="368.5"/><line class="cls-1" x1="28.47" y1="368.5" x2="23" y2="363.03"/><line class="cls-1" x1="95.29" y1="451.49" x2="88.94" y2="454.21"/><line class="cls-1" x1="88.94" y1="454.21" x2="91.46" y2="460.08"/><line class="cls-1" x1="91.46" y1="460.08" x2="97.8" y2="457.36"/><line class="cls-1" x1="97.8" y1="457.36" x2="95.29" y2="451.49"/><line class="cls-1" x1="66.95" y1="589.53" x2="66.28" y2="601.14"/><line class="cls-1" x1="66.28" y1="601.14" x2="61.55" y2="600.87"/><line class="cls-1" x1="61.55" y1="600.87" x2="62.21" y2="589.26"/><line class="cls-1" x1="62.21" y1="589.26" x2="66.95" y2="589.53"/><line class="cls-1" x1="31.8" y1="592.75" x2="29.65" y2="596.94"/><line class="cls-1" x1="29.65" y1="596.94" x2="37.67" y2="601.06"/><line class="cls-1" x1="37.67" y1="601.06" x2="39.83" y2="596.87"/><line class="cls-1" x1="39.83" y1="596.87" x2="31.8" y2="592.75"/><line class="cls-1" x1="5.37" y1="637.18" x2="5.49" y2="631.52"/><line class="cls-1" x1="5.49" y1="631.52" x2="14.55" y2="631.7"/><line class="cls-1" x1="14.55" y1="631.7" x2="14.55" y2="639.11"/><line class="cls-1" x1="14.55" y1="639.11" x2="10.7" y2="639.11"/><line class="cls-1" x1="10.7" y1="639.11" x2="10.7" y2="644.09"/><line class="cls-1" x1="10.7" y1="644.09" x2="2.09" y2="644.09"/><line class="cls-1" x1="2.09" y1="644.09" x2="2.23" y2="637.12"/><line class="cls-1" x1="2.23" y1="637.12" x2="5.37" y2="637.18"/><line class="cls-1" x1="736.36" y1="436.75" x2="745.5" y2="428.27"/><line class="cls-1" x1="745.5" y1="428.27" x2="747.78" y2="430.74"/><line class="cls-1" x1="747.78" y1="430.74" x2="738.96" y2="439.56"/><line class="cls-1" x1="738.96" y1="439.56" x2="736.36" y2="436.75"/><line class="cls-1" x1="750.32" y1="412.46" x2="748.79" y2="413.49"/><line class="cls-1" x1="748.79" y1="413.49" x2="751.78" y2="417.91"/><line class="cls-1" x1="751.78" y1="417.91" x2="759.16" y2="412.91"/><line class="cls-1" x1="759.16" y1="412.91" x2="755.78" y2="407.32"/><line class="cls-1" x1="755.78" y1="407.32" x2="749.44" y2="410.33"/><line class="cls-1" x1="749.44" y1="410.33" x2="750.32" y2="412.46"/><line class="cls-1" x1="855.73" y1="675.07" x2="849.41" y2="681.39"/><line class="cls-1" x1="849.41" y1="681.39" x2="855.94" y2="687.91"/><line class="cls-1" x1="855.94" y1="687.91" x2="862.25" y2="681.59"/><line class="cls-1" x1="862.25" y1="681.59" x2="855.73" y2="675.07"/><line class="cls-1" x1="829.07" y1="307.75" x2="824.43" y2="310.5"/><line class="cls-1" x1="824.43" y1="310.5" x2="828.28" y2="314.35"/><line class="cls-1" x1="828.28" y1="314.35" x2="826.04" y2="316.6"/><line class="cls-1" x1="826.04" y1="316.6" x2="830.32" y2="319.62"/><line class="cls-1" x1="830.32" y1="319.62" x2="834.81" y2="314.2"/><line class="cls-1" x1="834.81" y1="314.2" x2="829.07" y2="307.75"/><line class="cls-1" x1="860.61" y1="335.59" x2="859.11" y2="340.39"/><line class="cls-1" x1="859.11" y1="340.39" x2="866.51" y2="344.01"/><line class="cls-1" x1="866.51" y1="344.01" x2="868.16" y2="339.13"/><line class="cls-1" x1="868.16" y1="339.13" x2="860.61" y2="335.59"/><line class="cls-1" x1="497.4" y1="47.99" x2="492.7" y2="56.21"/><line class="cls-1" x1="492.7" y1="56.21" x2="504.87" y2="63.16"/><line class="cls-1" x1="504.87" y1="63.16" x2="511.81" y2="56.23"/><line class="cls-1" x1="511.81" y1="56.23" x2="497.4" y2="47.99"/><line class="cls-1" x1="511.25" y1="64.1" x2="506.62" y2="72.78"/><line class="cls-1" x1="506.62" y1="72.78" x2="516.25" y2="76.56"/><line class="cls-1" x1="516.25" y1="76.56" x2="520.31" y2="68.93"/><line class="cls-1" x1="520.31" y1="68.93" x2="511.25" y2="64.1"/><line class="cls-1" x1="548.53" y1="66.46" x2="543.9" y2="74.01"/><line class="cls-1" x1="543.9" y1="74.01" x2="551.08" y2="79.01"/><line class="cls-1" x1="551.08" y1="79.01" x2="553.55" y2="75.47"/><line class="cls-1" x1="553.55" y1="75.47" x2="558.01" y2="78.58"/><line class="cls-1" x1="558.01" y1="78.58" x2="560.82" y2="73.99"/><line class="cls-1" x1="560.82" y1="73.99" x2="548.53" y2="66.46"/><line class="cls-1" x1="617.8" y1="83.02" x2="613.08" y2="81.04"/><line class="cls-1" x1="613.08" y1="81.04" x2="609.61" y2="89.31"/><line class="cls-1" x1="609.61" y1="89.31" x2="624.79" y2="97.93"/><line class="cls-1" x1="624.79" y1="97.93" x2="628.91" y2="90.67"/><line class="cls-1" x1="628.91" y1="90.67" x2="626.75" y2="88.51"/><line class="cls-1" x1="626.75" y1="88.51" x2="629.41" y2="84.15"/><line class="cls-1" x1="629.41" y1="84.15" x2="620.61" y2="78.78"/><line class="cls-1" x1="620.61" y1="78.78" x2="617.8" y2="83.02"/><line class="cls-1" x1="681.78" y1="52.6" x2="670.85" y2="41.67"/><line class="cls-1" x1="670.85" y1="41.67" x2="674.02" y2="38.5"/><line class="cls-1" x1="674.02" y1="38.5" x2="684.95" y2="49.43"/><line class="cls-1" x1="684.95" y1="49.43" x2="681.78" y2="52.6"/><line class="cls-1" x1="692.88" y1="46.6" x2="708.17" y2="55.32"/><line class="cls-1" x1="708.17" y1="55.32" x2="715.42" y2="46.94"/><line class="cls-1" x1="715.42" y1="46.94" x2="709.7" y2="41.22"/><line class="cls-1" x1="709.7" y1="41.22" x2="706.36" y2="44.56"/><line class="cls-1" x1="706.36" y1="44.56" x2="698.88" y2="38.21"/><line class="cls-1" x1="698.88" y1="38.21" x2="692.88" y2="46.6"/><line class="cls-1" x1="689.4" y1="50" x2="684.16" y2="55.24"/><line class="cls-1" x1="684.16" y1="55.24" x2="686.9" y2="57.98"/><line class="cls-1" x1="686.9" y1="57.98" x2="692.14" y2="52.74"/><line class="cls-1" x1="692.14" y1="52.74" x2="689.4" y2="50"/><line class="cls-1" x1="479.3" y1="38.75" x2="472.62" y2="47.36"/><line class="cls-1" x1="472.62" y1="47.36" x2="477.56" y2="51.19"/><line class="cls-1" x1="477.56" y1="51.19" x2="484.24" y2="42.58"/><line class="cls-1" x1="484.24" y1="42.58" x2="479.3" y2="38.75"/><line class="cls-1" x1="446" y1="2.73" x2="441.25" y2=".12"/><line class="cls-1" x1="441.25" y1=".12" x2="438.79" y2="4.61"/><line class="cls-1" x1="438.79" y1="4.61" x2="452.27" y2="11.99"/><line class="cls-1" x1="452.27" y1="11.99" x2="454.4" y2="8.1"/><line class="cls-1" x1="454.4" y1="8.1" x2="461.18" y2="12.47"/><line class="cls-1" x1="461.18" y1="12.47" x2="463.75" y2="8.48"/><line class="cls-1" x1="463.75" y1="8.48" x2="448.49" y2=".12"/><line class="cls-1" x1="448.49" y1=".12" x2="446" y2="2.73"/><line class="cls-1" x1="126.16" y1="796.37" x2="112.03" y2="777.75"/><line class="cls-1" x1="112.03" y1="777.75" x2="102.72" y2="784.81"/><line class="cls-1" x1="102.72" y1="784.81" x2="116.86" y2="803.43"/><line class="cls-1" x1="116.86" y1="803.43" x2="126.16" y2="796.37"/><line class="cls-1" x1="77.37" y1="801.67" x2="72.75" y2="803.84"/><line class="cls-1" x1="72.75" y1="803.84" x2="73.94" y2="806.38"/><line class="cls-1" x1="73.94" y1="806.38" x2="68.84" y2="808.78"/><line class="cls-1" x1="68.84" y1="808.78" x2="73.74" y2="819.18"/><line class="cls-1" x1="73.74" y1="819.18" x2="83.46" y2="814.61"/><line class="cls-1" x1="83.46" y1="814.61" x2="77.37" y2="801.67"/><line class="cls-1" x1="180.81" y1="790.79" x2="174.35" y2="797.25"/><line class="cls-1" x1="174.35" y1="797.25" x2="179.24" y2="802.14"/><line class="cls-1" x1="179.24" y1="802.14" x2="185.7" y2="795.69"/><line class="cls-1" x1="185.7" y1="795.69" x2="180.81" y2="790.79"/><line class="cls-1" x1="165.45" y1="806.42" x2="148.18" y2="808.06"/><line class="cls-1" x1="148.18" y1="808.06" x2="148.78" y2="814.34"/><line class="cls-1" x1="148.78" y1="814.34" x2="166.04" y2="812.71"/><line class="cls-1" x1="166.04" y1="812.71" x2="165.45" y2="806.42"/><line class="cls-1" x1="145.19" y1="803.98" x2="145.19" y2="809.28"/><line class="cls-1" x1="145.19" y1="809.28" x2="132.69" y2="808.33"/><line class="cls-1" x1="132.69" y1="808.33" x2="134.18" y2="803.98"/><line class="cls-1" x1="134.18" y1="803.98" x2="145.19" y2="803.98"/><line class="cls-1" x1="130.79" y1="813.09" x2="133.03" y2="810.84"/><line class="cls-1" x1="133.03" y1="810.84" x2="144.24" y2="820.56"/><line class="cls-1" x1="144.24" y1="820.56" x2="138.93" y2="826.69"/><line class="cls-1" x1="138.93" y1="826.69" x2="130.41" y2="819.3"/><line class="cls-1" x1="130.41" y1="819.3" x2="127.93" y2="821.78"/><line class="cls-1" x1="127.93" y1="821.78" x2="118.83" y2="812.68"/><line class="cls-1" x1="118.83" y1="812.68" x2="124.19" y2="807.31"/><line class="cls-1" x1="124.19" y1="807.31" x2="130.79" y2="813.09"/></g></g></svg>