<?xml version="1.0" encoding="utf-8"?>
<!-- Generator: Adobe Illustrator 26.4.1, SVG Export Plug-In . SVG Version: 6.00 Build 0)  -->
<svg version="1.1" id="Layer_1" xmlns="http://www.w3.org/2000/svg" xmlns:xlink="http://www.w3.org/1999/xlink" x="0px" y="0px"
	 viewBox="0 0 1190.6 841.9" style="enable-background:new 0 0 1190.6 841.9;" xml:space="preserve">
<style type="text/css">
	.st0{fill-rule:evenodd;clip-rule:evenodd;fill:#252530;}
	.st1{fill:none;stroke:#000000;stroke-width:0.25;stroke-linecap:round;stroke-linejoin:round;}
	.st2{fill:none;stroke:#000000;stroke-width:1.42;stroke-linecap:round;stroke-linejoin:round;}
</style>
<polyline class="st0" points="593.1,446.3 563.3,424.6 589.5,388.7 619.2,410.3 593.1,446.3 "/>
<line class="st1" x1="608.6" y1="362.5" x2="537.2" y2="460.5"/>
<line class="st1" x1="537.2" y1="460.5" x2="567" y2="482.1"/>
<line class="st1" x1="567" y1="482.1" x2="638.3" y2="384.1"/>
<line class="st1" x1="638.3" y1="384.1" x2="608.6" y2="362.5"/>
<line class="st1" x1="499.1" y1="444.1" x2="520.4" y2="414.8"/>
<line class="st1" x1="520.4" y1="414.8" x2="440.6" y2="356.7"/>
<line class="st1" x1="440.6" y1="356.7" x2="419.3" y2="386"/>
<line class="st1" x1="419.3" y1="386" x2="499.1" y2="444.1"/>
<line class="st1" x1="394.9" y1="353.7" x2="465.3" y2="257"/>
<line class="st1" x1="465.3" y1="257" x2="434.1" y2="234.3"/>
<line class="st1" x1="434.1" y1="234.3" x2="363.7" y2="331.1"/>
<line class="st1" x1="363.7" y1="331.1" x2="394.9" y2="353.7"/>
<line class="st1" x1="388.1" y1="297.5" x2="419.3" y2="320.2"/>
<line class="st1" x1="410.8" y1="266.4" x2="441.9" y2="289.1"/>
<line class="st1" x1="563.3" y1="424.6" x2="593.1" y2="446.3"/>
<line class="st1" x1="589.5" y1="388.7" x2="619.2" y2="410.3"/>
<line class="st1" x1="459.2" y1="415.1" x2="480.5" y2="385.8"/>
<line class="st1" x1="458.2" y1="509.4" x2="475.5" y2="504.4"/>
<line class="st1" x1="475.5" y1="504.4" x2="485" y2="532"/>
<line class="st1" x1="485" y1="532" x2="509.5" y2="532"/>
<line class="st1" x1="509.5" y1="532" x2="509.5" y2="545.6"/>
<line class="st1" x1="509.5" y1="545.6" x2="502.8" y2="545.6"/>
<line class="st1" x1="502.8" y1="545.6" x2="502.8" y2="549.8"/>
<line class="st1" x1="502.8" y1="549.8" x2="475.9" y2="549.8"/>
<line class="st1" x1="475.9" y1="549.8" x2="471.8" y2="537.9"/>
<line class="st1" x1="471.8" y1="537.9" x2="468.2" y2="539.1"/>
<line class="st1" x1="468.2" y1="539.1" x2="458.2" y2="509.4"/>
<line class="st1" x1="546.3" y1="564.9" x2="578.6" y2="522"/>
<line class="st1" x1="578.6" y1="522" x2="585.8" y2="527.3"/>
<line class="st1" x1="585.8" y1="527.3" x2="619.4" y2="482.7"/>
<line class="st1" x1="619.4" y1="482.7" x2="627.8" y2="489.1"/>
<line class="st1" x1="627.8" y1="489.1" x2="658.8" y2="448"/>
<line class="st1" x1="658.8" y1="448" x2="650.4" y2="441.6"/>
<line class="st1" x1="650.4" y1="441.6" x2="654.2" y2="436.5"/>
<line class="st1" x1="654.2" y1="436.5" x2="647.1" y2="431.1"/>
<line class="st1" x1="647.1" y1="431.1" x2="668.6" y2="402.6"/>
<line class="st1" x1="668.6" y1="402.6" x2="757.5" y2="469.6"/>
<line class="st1" x1="757.5" y1="469.6" x2="720.1" y2="519.2"/>
<line class="st1" x1="720.1" y1="519.2" x2="670.3" y2="481.6"/>
<line class="st1" x1="670.3" y1="481.6" x2="642" y2="519"/>
<line class="st1" x1="642" y1="519" x2="635.8" y2="514.3"/>
<line class="st1" x1="635.8" y1="514.3" x2="595.8" y2="567.3"/>
<line class="st1" x1="595.8" y1="567.3" x2="585.9" y2="559.9"/>
<line class="st1" x1="585.9" y1="559.9" x2="569.1" y2="582.1"/>
<line class="st1" x1="569.1" y1="582.1" x2="546.3" y2="564.9"/>
<line class="st1" x1="561.1" y1="602.2" x2="577.7" y2="580.2"/>
<line class="st1" x1="577.7" y1="580.2" x2="585.9" y2="586.4"/>
<line class="st1" x1="585.9" y1="586.4" x2="588.5" y2="583"/>
<line class="st1" x1="588.5" y1="583" x2="597.3" y2="589.7"/>
<line class="st1" x1="597.3" y1="589.7" x2="604.7" y2="579.9"/>
<line class="st1" x1="604.7" y1="579.9" x2="608.1" y2="582.4"/>
<line class="st1" x1="608.1" y1="582.4" x2="614.7" y2="573.7"/>
<line class="st1" x1="614.7" y1="573.7" x2="637.6" y2="591"/>
<line class="st1" x1="637.6" y1="591" x2="604.5" y2="634.9"/>
<line class="st1" x1="604.5" y1="634.9" x2="561.1" y2="602.2"/>
<line class="st1" x1="531.8" y1="633.4" x2="553" y2="647.1"/>
<line class="st1" x1="553" y1="647.1" x2="562.7" y2="632.2"/>
<line class="st1" x1="562.7" y1="632.2" x2="541.5" y2="618.5"/>
<line class="st1" x1="541.5" y1="618.5" x2="531.8" y2="633.4"/>
<line class="st1" x1="591" y1="654.8" x2="579.8" y2="671.3"/>
<line class="st1" x1="579.8" y1="671.3" x2="604.3" y2="688"/>
<line class="st1" x1="604.3" y1="688" x2="615.5" y2="671.5"/>
<line class="st1" x1="615.5" y1="671.5" x2="591" y2="654.8"/>
<line class="st1" x1="608.9" y1="652" x2="622.5" y2="661.3"/>
<line class="st1" x1="622.5" y1="661.3" x2="618.7" y2="666.9"/>
<line class="st1" x1="618.7" y1="666.9" x2="605" y2="657.7"/>
<line class="st1" x1="605" y1="657.7" x2="608.9" y2="652"/>
<line class="st1" x1="680.6" y1="524.4" x2="672" y2="533"/>
<line class="st1" x1="672" y1="533" x2="684.9" y2="541.8"/>
<line class="st1" x1="684.9" y1="541.8" x2="690.6" y2="532.1"/>
<line class="st1" x1="690.6" y1="532.1" x2="680.6" y2="524.4"/>
<line class="st1" x1="324.7" y1="302.7" x2="395.1" y2="205.9"/>
<line class="st1" x1="395.1" y1="205.9" x2="363.9" y2="183.2"/>
<line class="st1" x1="363.9" y1="183.2" x2="293.5" y2="280"/>
<line class="st1" x1="293.5" y1="280" x2="324.7" y2="302.7"/>
<line class="st1" x1="317.9" y1="246.5" x2="349.1" y2="269.2"/>
<line class="st1" x1="340.6" y1="215.3" x2="371.7" y2="238"/>
<line class="st1" x1="250.5" y1="248.7" x2="320.9" y2="151.9"/>
<line class="st1" x1="320.9" y1="151.9" x2="293.5" y2="132.1"/>
<line class="st1" x1="293.5" y1="132.1" x2="286.7" y2="141.5"/>
<line class="st1" x1="286.7" y1="141.5" x2="282.8" y2="138.7"/>
<line class="st1" x1="282.8" y1="138.7" x2="226.1" y2="216.6"/>
<line class="st1" x1="226.1" y1="216.6" x2="228.4" y2="221.6"/>
<line class="st1" x1="228.4" y1="221.6" x2="223.2" y2="228.8"/>
<line class="st1" x1="223.2" y1="228.8" x2="250.5" y2="248.7"/>
<line class="st1" x1="243.7" y1="192.5" x2="274.9" y2="215.2"/>
<line class="st1" x1="266.3" y1="161.3" x2="297.5" y2="184"/>
<line class="st1" x1="644.3" y1="165.2" x2="669.5" y2="129.7"/>
<line class="st1" x1="669.5" y1="129.7" x2="700.9" y2="152"/>
<line class="st1" x1="700.9" y1="152" x2="675.7" y2="187.5"/>
<line class="st1" x1="675.7" y1="187.5" x2="644.3" y2="165.2"/>
<line class="st1" x1="624" y1="198.6" x2="646.5" y2="166.8"/>
<line class="st1" x1="646.5" y1="166.8" x2="671.5" y2="184.5"/>
<line class="st1" x1="671.5" y1="184.5" x2="663.3" y2="196.2"/>
<line class="st1" x1="663.3" y1="196.2" x2="664.5" y2="197"/>
<line class="st1" x1="664.5" y1="197" x2="657.1" y2="207.4"/>
<line class="st1" x1="657.1" y1="207.4" x2="655.9" y2="206.6"/>
<line class="st1" x1="655.9" y1="206.6" x2="649" y2="216.3"/>
<line class="st1" x1="649" y1="216.3" x2="624" y2="198.6"/>
<line class="st1" x1="601.5" y1="230.4" x2="624" y2="198.6"/>
<line class="st1" x1="624" y1="198.6" x2="649" y2="216.3"/>
<line class="st1" x1="649" y1="216.3" x2="640.8" y2="228"/>
<line class="st1" x1="640.8" y1="228" x2="641.9" y2="228.8"/>
<line class="st1" x1="641.9" y1="228.8" x2="634.5" y2="239.2"/>
<line class="st1" x1="634.5" y1="239.2" x2="633.4" y2="238.4"/>
<line class="st1" x1="633.4" y1="238.4" x2="626.5" y2="248.1"/>
<line class="st1" x1="626.5" y1="248.1" x2="601.5" y2="230.4"/>
<line class="st1" x1="579" y1="262.2" x2="601.5" y2="230.4"/>
<line class="st1" x1="601.5" y1="230.4" x2="626.5" y2="248.1"/>
<line class="st1" x1="626.5" y1="248.1" x2="618.3" y2="259.8"/>
<line class="st1" x1="618.3" y1="259.8" x2="619.4" y2="260.6"/>
<line class="st1" x1="619.4" y1="260.6" x2="612" y2="271.1"/>
<line class="st1" x1="612" y1="271.1" x2="610.9" y2="270.2"/>
<line class="st1" x1="610.9" y1="270.2" x2="604" y2="280"/>
<line class="st1" x1="604" y1="280" x2="579" y2="262.2"/>
<line class="st1" x1="567" y1="102.4" x2="589.1" y2="71.9"/>
<line class="st1" x1="589.1" y1="71.9" x2="620.3" y2="94.6"/>
<line class="st1" x1="620.3" y1="94.6" x2="598.1" y2="125"/>
<line class="st1" x1="598.1" y1="125" x2="594" y2="122"/>
<line class="st1" x1="594" y1="122" x2="591.4" y2="125.6"/>
<line class="st1" x1="591.4" y1="125.6" x2="566.6" y2="107.5"/>
<line class="st1" x1="566.6" y1="107.5" x2="569.2" y2="104"/>
<line class="st1" x1="569.2" y1="104" x2="567" y2="102.4"/>
<line class="st1" x1="543.7" y1="139.1" x2="566.6" y2="107.5"/>
<line class="st1" x1="566.6" y1="107.5" x2="591.4" y2="125.6"/>
<line class="st1" x1="591.4" y1="125.6" x2="583" y2="137.1"/>
<line class="st1" x1="583" y1="137.1" x2="584.2" y2="137.9"/>
<line class="st1" x1="584.2" y1="137.9" x2="576.6" y2="148.3"/>
<line class="st1" x1="576.6" y1="148.3" x2="575.5" y2="147.4"/>
<line class="st1" x1="575.5" y1="147.4" x2="568.5" y2="157.1"/>
<line class="st1" x1="568.5" y1="157.1" x2="543.7" y2="139.1"/>
<line class="st1" x1="520.8" y1="170.6" x2="543.7" y2="139.1"/>
<line class="st1" x1="543.7" y1="139.1" x2="568.5" y2="157.1"/>
<line class="st1" x1="568.5" y1="157.1" x2="560.1" y2="168.6"/>
<line class="st1" x1="560.1" y1="168.6" x2="561.2" y2="169.5"/>
<line class="st1" x1="561.2" y1="169.5" x2="553.7" y2="179.8"/>
<line class="st1" x1="553.7" y1="179.8" x2="552.6" y2="179"/>
<line class="st1" x1="552.6" y1="179" x2="545.6" y2="188.6"/>
<line class="st1" x1="545.6" y1="188.6" x2="520.8" y2="170.6"/>
<line class="st1" x1="497.9" y1="202.1" x2="520.8" y2="170.6"/>
<line class="st1" x1="520.8" y1="170.6" x2="545.6" y2="188.6"/>
<line class="st1" x1="545.6" y1="188.6" x2="537.2" y2="200.1"/>
<line class="st1" x1="537.2" y1="200.1" x2="538.3" y2="201"/>
<line class="st1" x1="538.3" y1="201" x2="530.8" y2="211.3"/>
<line class="st1" x1="530.8" y1="211.3" x2="529.6" y2="210.5"/>
<line class="st1" x1="529.6" y1="210.5" x2="522.6" y2="220.1"/>
<line class="st1" x1="522.6" y1="220.1" x2="497.9" y2="202.1"/>
<line class="st1" x1="463.1" y1="80.5" x2="486.1" y2="49"/>
<line class="st1" x1="486.1" y1="49" x2="510.9" y2="67"/>
<line class="st1" x1="510.9" y1="67" x2="502.5" y2="78.5"/>
<line class="st1" x1="502.5" y1="78.5" x2="503.6" y2="79.4"/>
<line class="st1" x1="503.6" y1="79.4" x2="496.1" y2="89.7"/>
<line class="st1" x1="496.1" y1="89.7" x2="494.9" y2="88.9"/>
<line class="st1" x1="494.9" y1="88.9" x2="487.9" y2="98.5"/>
<line class="st1" x1="487.9" y1="98.5" x2="463.1" y2="80.5"/>
<line class="st1" x1="440.2" y1="112" x2="463.1" y2="80.5"/>
<line class="st1" x1="463.1" y1="80.5" x2="487.9" y2="98.5"/>
<line class="st1" x1="487.9" y1="98.5" x2="479.5" y2="110"/>
<line class="st1" x1="479.5" y1="110" x2="480.7" y2="110.9"/>
<line class="st1" x1="480.7" y1="110.9" x2="473.2" y2="121.2"/>
<line class="st1" x1="473.2" y1="121.2" x2="472" y2="120.4"/>
<line class="st1" x1="472" y1="120.4" x2="465" y2="130"/>
<line class="st1" x1="465" y1="130" x2="440.2" y2="112"/>
<line class="st1" x1="417.3" y1="143.5" x2="440.2" y2="112"/>
<line class="st1" x1="440.2" y1="112" x2="465" y2="130"/>
<line class="st1" x1="465" y1="130" x2="456.6" y2="141.6"/>
<line class="st1" x1="456.6" y1="141.6" x2="457.8" y2="142.4"/>
<line class="st1" x1="457.8" y1="142.4" x2="450.2" y2="152.7"/>
<line class="st1" x1="450.2" y1="152.7" x2="449.1" y2="151.9"/>
<line class="st1" x1="449.1" y1="151.9" x2="442.1" y2="161.5"/>
<line class="st1" x1="442.1" y1="161.5" x2="417.3" y2="143.5"/>
<line class="st1" x1="756.8" y1="309.2" x2="789.7" y2="331"/>
<line class="st1" x1="789.7" y1="331" x2="800" y2="315.5"/>
<line class="st1" x1="800" y1="315.5" x2="799.5" y2="310"/>
<line class="st1" x1="799.5" y1="310" x2="807.5" y2="298"/>
<line class="st1" x1="807.5" y1="298" x2="775" y2="276.4"/>
<line class="st1" x1="775" y1="276.4" x2="764.6" y2="291.9"/>
<line class="st1" x1="764.6" y1="291.9" x2="765.1" y2="296.8"/>
<line class="st1" x1="765.1" y1="296.8" x2="756.8" y2="309.2"/>
<line class="st1" x1="775" y1="276.4" x2="803.4" y2="295.2"/>
<line class="st1" x1="803.4" y1="295.2" x2="815.1" y2="277.6"/>
<line class="st1" x1="815.1" y1="277.6" x2="812.2" y2="275.7"/>
<line class="st1" x1="812.2" y1="275.7" x2="817.8" y2="267.4"/>
<line class="st1" x1="817.8" y1="267.4" x2="789.2" y2="248.4"/>
<line class="st1" x1="789.2" y1="248.4" x2="778.7" y2="264.2"/>
<line class="st1" x1="778.7" y1="264.2" x2="781.7" y2="266.2"/>
<line class="st1" x1="781.7" y1="266.2" x2="775" y2="276.4"/>
<line class="st1" x1="786.4" y1="246.6" x2="814.8" y2="265.5"/>
<line class="st1" x1="814.8" y1="265.5" x2="826.6" y2="247.8"/>
<line class="st1" x1="826.6" y1="247.8" x2="823.7" y2="245.9"/>
<line class="st1" x1="823.7" y1="245.9" x2="830.8" y2="235.2"/>
<line class="st1" x1="830.8" y1="235.2" x2="802.8" y2="216.6"/>
<line class="st1" x1="802.8" y1="216.6" x2="790.7" y2="234.8"/>
<line class="st1" x1="790.7" y1="234.8" x2="793.1" y2="236.4"/>
<line class="st1" x1="793.1" y1="236.4" x2="786.4" y2="246.6"/>
<line class="st1" x1="802.8" y1="216.6" x2="830.8" y2="235.2"/>
<line class="st1" x1="830.8" y1="235.2" x2="844.2" y2="215"/>
<line class="st1" x1="844.2" y1="215" x2="816.2" y2="196.4"/>
<line class="st1" x1="816.2" y1="196.4" x2="802.8" y2="216.6"/>
<line class="st1" x1="816.2" y1="196.4" x2="821.8" y2="187.9"/>
<line class="st1" x1="821.8" y1="187.9" x2="819.4" y2="186.3"/>
<line class="st1" x1="819.4" y1="186.3" x2="828.8" y2="172.1"/>
<line class="st1" x1="828.8" y1="172.1" x2="833.5" y2="172.1"/>
<line class="st1" x1="833.5" y1="172.1" x2="852.1" y2="184.5"/>
<line class="st1" x1="852.1" y1="184.5" x2="850.7" y2="186.7"/>
<line class="st1" x1="850.7" y1="186.7" x2="859.3" y2="192.4"/>
<line class="st1" x1="859.3" y1="192.4" x2="857.6" y2="194.9"/>
<line class="st1" x1="857.6" y1="194.9" x2="865.2" y2="200"/>
<line class="st1" x1="865.2" y1="200" x2="860.9" y2="206.5"/>
<line class="st1" x1="860.9" y1="206.5" x2="853.3" y2="201.4"/>
<line class="st1" x1="853.3" y1="201.4" x2="844.2" y2="215"/>
<line class="st2" x1="589.5" y1="388.7" x2="563.3" y2="424.6"/>
<line class="st2" x1="563.3" y1="424.6" x2="593.1" y2="446.3"/>
<line class="st2" x1="593.1" y1="446.3" x2="619.2" y2="410.3"/>
<line class="st2" x1="619.2" y1="410.3" x2="589.5" y2="388.7"/>
<line class="st1" x1="660.3" y1="330.7" x2="662" y2="328.2"/>
<line class="st1" x1="662" y1="328.2" x2="661.2" y2="326.9"/>
<line class="st1" x1="661.2" y1="326.9" x2="661.1" y2="325.3"/>
<line class="st1" x1="661.1" y1="325.3" x2="661.7" y2="323.8"/>
<line class="st1" x1="661.7" y1="323.8" x2="662.8" y2="322.7"/>
<line class="st1" x1="662.8" y1="322.7" x2="664.3" y2="322.2"/>
<line class="st1" x1="664.3" y1="322.2" x2="665.9" y2="322.4"/>
<line class="st1" x1="665.9" y1="322.4" x2="667" y2="320.7"/>
<line class="st1" x1="660.3" y1="330.7" x2="661.2" y2="336.2"/>
<line class="st1" x1="673.8" y1="310.8" x2="679.2" y2="309.5"/>
<line class="st1" x1="679.2" y1="309.5" x2="698.1" y2="322.4"/>
<line class="st1" x1="698.1" y1="322.4" x2="696.5" y2="324.7"/>
<line class="st1" x1="696.5" y1="324.7" x2="700.5" y2="327.5"/>
<line class="st1" x1="700.5" y1="327.5" x2="703.2" y2="325.8"/>
<line class="st1" x1="703.2" y1="325.8" x2="706.7" y2="328.1"/>
<line class="st1" x1="706.7" y1="328.1" x2="705.8" y2="331"/>
<line class="st1" x1="705.8" y1="331" x2="708.3" y2="332.7"/>
<line class="st1" x1="690.6" y1="358.8" x2="688.6" y2="357.5"/>
<line class="st1" x1="688.6" y1="357.5" x2="685.5" y2="358.9"/>
<line class="st1" x1="685.5" y1="358.9" x2="682.1" y2="356.6"/>
<line class="st1" x1="682.1" y1="356.6" x2="682.7" y2="353.4"/>
<line class="st1" x1="682.7" y1="353.4" x2="676.6" y2="349.3"/>
<line class="st1" x1="676.6" y1="349.3" x2="677.8" y2="347.5"/>
<line class="st1" x1="677.8" y1="347.5" x2="661.2" y2="336.2"/>
<line class="st1" x1="708.3" y1="332.7" x2="690.6" y2="358.8"/>
<line class="st1" x1="673.8" y1="310.8" x2="672.1" y2="313.2"/>
<line class="st1" x1="672.1" y1="313.2" x2="670.5" y2="313"/>
<line class="st1" x1="670.5" y1="313" x2="669" y2="313.5"/>
<line class="st1" x1="669" y1="313.5" x2="667.9" y2="314.6"/>
<line class="st1" x1="667.9" y1="314.6" x2="667.3" y2="316.1"/>
<line class="st1" x1="667.3" y1="316.1" x2="667.4" y2="317.7"/>
<line class="st1" x1="667.4" y1="317.7" x2="668.2" y2="319.1"/>
<line class="st1" x1="668.2" y1="319.1" x2="667" y2="320.7"/>
<line class="st1" x1="728" y1="376.5" x2="729.6" y2="374"/>
<line class="st1" x1="729.6" y1="374" x2="731.2" y2="374.2"/>
<line class="st1" x1="731.2" y1="374.2" x2="732.7" y2="373.7"/>
<line class="st1" x1="732.7" y1="373.7" x2="733.8" y2="372.6"/>
<line class="st1" x1="733.8" y1="372.6" x2="734.4" y2="371.2"/>
<line class="st1" x1="734.4" y1="371.2" x2="734.3" y2="369.6"/>
<line class="st1" x1="734.3" y1="369.6" x2="733.6" y2="368.2"/>
<line class="st1" x1="733.6" y1="368.2" x2="734.7" y2="366.5"/>
<line class="st1" x1="728" y1="376.5" x2="722.6" y2="377.7"/>
<line class="st1" x1="741.4" y1="356.6" x2="740.6" y2="351.1"/>
<line class="st1" x1="740.6" y1="351.1" x2="721.6" y2="338.3"/>
<line class="st1" x1="721.6" y1="338.3" x2="720" y2="340.6"/>
<line class="st1" x1="720" y1="340.6" x2="716" y2="337.9"/>
<line class="st1" x1="716" y1="337.9" x2="716.6" y2="334.9"/>
<line class="st1" x1="716.6" y1="334.9" x2="713.1" y2="332.5"/>
<line class="st1" x1="713.1" y1="332.5" x2="710.8" y2="334.4"/>
<line class="st1" x1="710.8" y1="334.4" x2="708.3" y2="332.7"/>
<line class="st1" x1="690.6" y1="358.8" x2="692.6" y2="360.1"/>
<line class="st1" x1="692.6" y1="360.1" x2="692.4" y2="363.5"/>
<line class="st1" x1="692.4" y1="363.5" x2="695.8" y2="365.8"/>
<line class="st1" x1="695.8" y1="365.8" x2="698.5" y2="364.1"/>
<line class="st1" x1="698.5" y1="364.1" x2="704.6" y2="368.3"/>
<line class="st1" x1="704.6" y1="368.3" x2="705.9" y2="366.4"/>
<line class="st1" x1="705.9" y1="366.4" x2="722.6" y2="377.7"/>
<line class="st1" x1="741.4" y1="356.6" x2="739.8" y2="359"/>
<line class="st1" x1="739.8" y1="359" x2="740.5" y2="360.4"/>
<line class="st1" x1="740.5" y1="360.4" x2="740.6" y2="362"/>
<line class="st1" x1="740.6" y1="362" x2="740" y2="363.5"/>
<line class="st1" x1="740" y1="363.5" x2="738.9" y2="364.6"/>
<line class="st1" x1="738.9" y1="364.6" x2="737.4" y2="365"/>
<line class="st1" x1="737.4" y1="365" x2="735.8" y2="364.9"/>
<line class="st1" x1="735.8" y1="364.9" x2="734.7" y2="366.5"/>
<line class="st1" x1="767.5" y1="381.2" x2="750.1" y2="407.9"/>
<line class="st1" x1="750.1" y1="407.9" x2="768.3" y2="419.7"/>
<line class="st1" x1="768.3" y1="419.7" x2="771.8" y2="414.4"/>
<line class="st1" x1="771.8" y1="414.4" x2="778.1" y2="412.5"/>
<line class="st1" x1="778.1" y1="412.5" x2="779.9" y2="409.7"/>
<line class="st1" x1="779.9" y1="409.7" x2="783.2" y2="411.9"/>
<line class="st1" x1="783.2" y1="411.9" x2="787.9" y2="404.6"/>
<line class="st1" x1="787.9" y1="404.6" x2="771.8" y2="394.1"/>
<line class="st1" x1="771.8" y1="394.1" x2="776.4" y2="387.1"/>
<line class="st1" x1="776.4" y1="387.1" x2="767.5" y2="381.2"/>
<line class="st1" x1="858.1" y1="488.2" x2="836.1" y2="472.8"/>
<line class="st1" x1="836.1" y1="472.8" x2="830" y2="481.5"/>
<line class="st1" x1="830" y1="481.5" x2="832.7" y2="483.4"/>
<line class="st1" x1="832.7" y1="483.4" x2="822.7" y2="497.6"/>
<line class="st1" x1="822.7" y1="497.6" x2="842.1" y2="511.1"/>
<line class="st1" x1="842.1" y1="511.1" x2="858.1" y2="488.2"/>
<line class="st1" x1="779.9" y1="558.5" x2="796" y2="535.8"/>
<line class="st1" x1="796" y1="535.8" x2="814.7" y2="549.2"/>
<line class="st1" x1="814.7" y1="549.2" x2="815.5" y2="551"/>
<line class="st1" x1="815.5" y1="551" x2="815.5" y2="553.1"/>
<line class="st1" x1="815.5" y1="553.1" x2="814.6" y2="554.9"/>
<line class="st1" x1="814.6" y1="554.9" x2="813.2" y2="556.3"/>
<line class="st1" x1="813.2" y1="556.3" x2="811.2" y2="557"/>
<line class="st1" x1="811.2" y1="557" x2="809.2" y2="556.9"/>
<line class="st1" x1="809.2" y1="556.9" x2="804.1" y2="564"/>
<line class="st1" x1="804.1" y1="564" x2="801.5" y2="562.1"/>
<line class="st1" x1="801.5" y1="562.1" x2="795.9" y2="569.9"/>
<line class="st1" x1="795.9" y1="569.9" x2="779.9" y2="558.5"/>
<line class="st1" x1="726" y1="635.3" x2="736" y2="622.7"/>
<line class="st1" x1="736" y1="622.7" x2="749.9" y2="633.7"/>
<line class="st1" x1="749.9" y1="633.7" x2="759.6" y2="621.5"/>
<line class="st1" x1="759.6" y1="621.5" x2="768.8" y2="628.7"/>
<line class="st1" x1="768.8" y1="628.7" x2="749" y2="653.6"/>
<line class="st1" x1="749" y1="653.6" x2="726" y2="635.3"/>
<line class="st1" x1="486.4" y1="43.8" x2="508.6" y2="13.3"/>
<line class="st1" x1="508.6" y1="13.3" x2="539.7" y2="36"/>
<line class="st1" x1="539.7" y1="36" x2="517.5" y2="66.4"/>
<line class="st1" x1="517.5" y1="66.4" x2="513.4" y2="63.4"/>
<line class="st1" x1="513.4" y1="63.4" x2="510.9" y2="67"/>
<line class="st1" x1="510.9" y1="67" x2="486.1" y2="49"/>
<line class="st1" x1="486.1" y1="49" x2="488.6" y2="45.4"/>
<line class="st1" x1="488.6" y1="45.4" x2="486.4" y2="43.8"/>
<line class="st1" x1="667.5" y1="0.1" x2="769.3" y2="72.7"/>
<line class="st1" x1="769.3" y1="72.7" x2="746.8" y2="104.3"/>
<line class="st1" x1="746.8" y1="104.3" x2="619.9" y2="13.8"/>
<line class="st1" x1="619.9" y1="13.8" x2="629.8" y2="0.1"/>
<line class="st1" x1="375.8" y1="16.4" x2="387.9" y2="0.1"/>
<line class="st1" x1="438" y1="0.1" x2="408.2" y2="40.3"/>
<line class="st1" x1="408.2" y1="40.3" x2="375.8" y2="16.4"/>
<line class="st1" x1="404.7" y1="37.7" x2="354.4" y2="105.7"/>
<line class="st1" x1="354.4" y1="105.7" x2="330.2" y2="87.8"/>
<line class="st1" x1="330.2" y1="87.8" x2="380.5" y2="19.8"/>
<line class="st1" x1="380.5" y1="19.8" x2="404.7" y2="37.7"/>
<line class="st1" x1="100.6" y1="26.9" x2="31.7" y2="176.4"/>
<line class="st1" x1="31.7" y1="176.4" x2="59.5" y2="189.2"/>
<line class="st1" x1="59.5" y1="189.2" x2="128.4" y2="39.7"/>
<line class="st1" x1="128.4" y1="39.7" x2="100.6" y2="26.9"/>
<line class="st1" x1="728.3" y1="91.1" x2="750.8" y2="59.5"/>
<line class="st1" x1="694.7" y1="67.2" x2="717.3" y2="35.6"/>
<line class="st1" x1="660.7" y1="42.9" x2="683.2" y2="11.3"/>
<line class="st1" x1="423.6" y1="0.1" x2="432.9" y2="6.9"/>
<line class="st1" x1="354.7" y1="54.6" x2="379" y2="72.5"/>
<line class="st1" x1="51.9" y1="132.6" x2="79.7" y2="145.4"/>
<line class="st1" x1="66.2" y1="101.7" x2="93.9" y2="114.5"/>
<line class="st1" x1="81.1" y1="69.3" x2="108.9" y2="82.1"/>
<line class="st1" x1="213.4" y1="65.4" x2="186" y2="99.2"/>
<line class="st1" x1="186" y1="99.2" x2="206" y2="112.4"/>
<line class="st1" x1="206" y1="112.4" x2="225.9" y2="87.3"/>
<line class="st1" x1="225.9" y1="87.3" x2="243.7" y2="101.4"/>
<line class="st1" x1="243.7" y1="101.4" x2="249.3" y2="94.5"/>
<line class="st1" x1="249.3" y1="94.5" x2="213.4" y2="65.4"/>
<line class="st1" x1="204.4" y1="0.1" x2="263" y2="35.6"/>
<line class="st1" x1="263" y1="35.6" x2="291.8" y2="57.8"/>
<line class="st1" x1="291.8" y1="57.8" x2="311.3" y2="32.5"/>
<line class="st1" x1="311.3" y1="32.5" x2="282.1" y2="8.4"/>
<line class="st1" x1="282.1" y1="8.4" x2="279.2" y2="11.9"/>
<line class="st1" x1="279.2" y1="11.9" x2="260.4" y2="0.1"/>
<line class="st1" x1="0.2" y1="110.1" x2="51.2" y2="0.1"/>
<line class="st1" x1="0.2" y1="27.1" x2="12.3" y2="0.1"/>
<line class="st1" x1="11.7" y1="1.3" x2="43.8" y2="16.1"/>
<line class="st1" x1="1" y1="25.4" x2="32.7" y2="40.1"/>
<line class="st1" x1="0.2" y1="56.6" x2="20.6" y2="66"/>
<line class="st1" x1="0.2" y1="94.2" x2="6.3" y2="97"/>
<line class="st1" x1="279.2" y1="11.9" x2="263" y2="35.6"/>
<line class="st1" x1="240.1" y1="0.1" x2="230.5" y2="15.9"/>
<line class="st1" x1="241.5" y1="113.8" x2="254.6" y2="126.9"/>
<line class="st1" x1="254.6" y1="126.9" x2="244.8" y2="136.7"/>
<line class="st1" x1="244.8" y1="136.7" x2="231.7" y2="123.6"/>
<line class="st1" x1="231.7" y1="123.6" x2="241.5" y2="113.8"/>
<line class="st1" x1="903.8" y1="91" x2="890.2" y2="109.6"/>
<line class="st1" x1="890.2" y1="109.6" x2="917" y2="129.3"/>
<line class="st1" x1="917" y1="129.3" x2="930.7" y2="110.8"/>
<line class="st1" x1="930.7" y1="110.8" x2="903.8" y2="91"/>
<line class="st1" x1="926.2" y1="107.5" x2="949.9" y2="75.2"/>
<line class="st1" x1="949.9" y1="75.2" x2="922.7" y2="55.3"/>
<line class="st1" x1="922.7" y1="55.3" x2="899" y2="87.5"/>
<line class="st1" x1="899" y1="87.5" x2="926.2" y2="107.5"/>
<line class="st1" x1="946" y1="72.4" x2="969.5" y2="40.4"/>
<line class="st1" x1="969.5" y1="40.4" x2="942.7" y2="20.7"/>
<line class="st1" x1="942.7" y1="20.7" x2="919.1" y2="52.7"/>
<line class="st1" x1="919.1" y1="52.7" x2="946" y2="72.4"/>
<line class="st1" x1="965.1" y1="37.1" x2="988.3" y2="5.5"/>
<line class="st1" x1="988.3" y1="5.5" x2="980.9" y2="0.1"/>
<line class="st1" x1="950" y1="0.1" x2="937.6" y2="16.9"/>
<line class="st1" x1="937.6" y1="16.9" x2="965.1" y2="37.1"/>
<line class="st1" x1="984.3" y1="2.6" x2="986.2" y2="0.1"/>
<line class="st1" x1="980.9" y1="0.1" x2="984.3" y2="2.6"/>
<line class="st1" x1="1049.4" y1="234.3" x2="1139.9" y2="110.4"/>
<line class="st1" x1="1139.9" y1="110.4" x2="1110" y2="88.5"/>
<line class="st1" x1="1110" y1="88.5" x2="1019.4" y2="212.4"/>
<line class="st1" x1="1019.4" y1="212.4" x2="1049.4" y2="234.3"/>
<line class="st1" x1="1145.2" y1="319.6" x2="1182.4" y2="266.8"/>
<line class="st1" x1="1182.4" y1="266.8" x2="1150.9" y2="244.6"/>
<line class="st1" x1="1150.9" y1="244.6" x2="1113.7" y2="297.4"/>
<line class="st1" x1="1113.7" y1="297.4" x2="1145.2" y2="319.6"/>
<line class="st1" x1="1087.2" y1="119.6" x2="1117.2" y2="141.5"/>
<line class="st1" x1="1069.8" y1="143.5" x2="1099.8" y2="165.4"/>
<line class="st1" x1="1042.5" y1="180.8" x2="1072.5" y2="202.7"/>
<line class="st1" x1="1132.3" y1="271" x2="1163.8" y2="293.2"/>
<line class="st1" x1="773.3" y1="14.3" x2="805.1" y2="48.7"/>
<line class="st1" x1="805.1" y1="48.7" x2="809.3" y2="48.7"/>
<line class="st1" x1="809.3" y1="48.7" x2="842.7" y2="0.1"/>
<line class="st1" x1="773.3" y1="14.3" x2="788.7" y2="0.1"/>
<line class="st1" x1="792.2" y1="0.1" x2="802.8" y2="10.6"/>
<line class="st1" x1="802.8" y1="10.6" x2="799.7" y2="13.7"/>
<line class="st1" x1="799.7" y1="13.7" x2="806.4" y2="20.4"/>
<line class="st1" x1="806.4" y1="20.4" x2="815.3" y2="11.6"/>
<line class="st1" x1="815.3" y1="11.6" x2="808.5" y2="4.8"/>
<line class="st1" x1="808.5" y1="4.8" x2="811.8" y2="0.1"/>
<line class="st1" x1="812.2" y1="14.6" x2="826.2" y2="24.2"/>
<line class="st1" x1="643.3" y1="468.5" x2="666.8" y2="486.2"/>
<line class="st1" x1="879.7" y1="475.3" x2="938" y2="391.8"/>
<line class="st1" x1="938" y1="391.8" x2="966.2" y2="411.5"/>
<line class="st1" x1="966.2" y1="411.5" x2="933.1" y2="458.9"/>
<line class="st1" x1="933.1" y1="458.9" x2="926.8" y2="454.5"/>
<line class="st1" x1="926.8" y1="454.5" x2="901.7" y2="490.6"/>
<line class="st1" x1="901.7" y1="490.6" x2="879.7" y2="475.3"/>
<line class="st1" x1="922.9" y1="350.3" x2="918.7" y2="370.3"/>
<line class="st1" x1="918.7" y1="370.3" x2="929" y2="384.4"/>
<line class="st1" x1="929" y1="384.4" x2="947" y2="387.3"/>
<line class="st1" x1="947" y1="387.3" x2="960.6" y2="379"/>
<line class="st1" x1="960.6" y1="379" x2="965.6" y2="360.9"/>
<line class="st1" x1="965.6" y1="360.9" x2="955.6" y2="343.4"/>
<line class="st1" x1="955.6" y1="343.4" x2="937.7" y2="341.3"/>
<line class="st1" x1="937.7" y1="341.3" x2="922.9" y2="350.3"/>
<line class="st1" x1="943.3" y1="386.7" x2="943.3" y2="395.5"/>
<line class="st1" x1="965.6" y1="360.9" x2="974.2" y2="361.2"/>
<line class="st1" x1="974.2" y1="361.2" x2="982.7" y2="362.4"/>
<line class="st1" x1="982.7" y1="362.4" x2="991" y2="364.2"/>
<line class="st1" x1="991" y1="364.2" x2="999.1" y2="366.9"/>
<line class="st1" x1="999.1" y1="366.9" x2="1007" y2="370.3"/>
<line class="st1" x1="992.5" y1="391" x2="1022.8" y2="347.5"/>
<line class="st1" x1="1022.8" y1="347.5" x2="1036.3" y2="356.8"/>
<line class="st1" x1="1036.3" y1="356.8" x2="1039.3" y2="352.5"/>
<line class="st1" x1="1039.3" y1="352.5" x2="1051.2" y2="360.8"/>
<line class="st1" x1="1051.2" y1="360.8" x2="1020.8" y2="404.6"/>
<line class="st1" x1="1020.8" y1="404.6" x2="1006.4" y2="394.6"/>
<line class="st1" x1="1006.4" y1="394.6" x2="1003.6" y2="398.7"/>
<line class="st1" x1="1003.6" y1="398.7" x2="992.5" y2="391"/>
<line class="st1" x1="966.2" y1="411.5" x2="1002.9" y2="437.1"/>
<line class="st1" x1="1002.9" y1="437.1" x2="1021.2" y2="410.9"/>
<line class="st1" x1="1021.2" y1="410.9" x2="1018" y2="408.7"/>
<line class="st1" x1="832" y1="591.5" x2="891.8" y2="503.5"/>
<line class="st1" x1="891.8" y1="503.5" x2="915.2" y2="519.4"/>
<line class="st1" x1="915.2" y1="519.4" x2="855.4" y2="607.4"/>
<line class="st1" x1="855.4" y1="607.4" x2="832" y2="591.5"/>
<line class="st1" x1="848.7" y1="566.9" x2="872.1" y2="582.8"/>
<line class="st1" x1="938.1" y1="576" x2="972.1" y2="525.8"/>
<line class="st1" x1="972.1" y1="525.8" x2="986.6" y2="535.7"/>
<line class="st1" x1="986.6" y1="535.7" x2="1037.7" y2="460.3"/>
<line class="st1" x1="1037.7" y1="460.3" x2="1065.2" y2="478.9"/>
<line class="st1" x1="1065.2" y1="478.9" x2="980.2" y2="604.5"/>
<line class="st1" x1="980.2" y1="604.5" x2="938.1" y2="576"/>
<line class="st1" x1="1057.4" y1="415.6" x2="1093.3" y2="365"/>
<line class="st1" x1="1093.3" y1="365" x2="1145.7" y2="402.2"/>
<line class="st1" x1="1145.7" y1="402.2" x2="1109.8" y2="452.8"/>
<line class="st1" x1="1109.8" y1="452.8" x2="1099.9" y2="445.8"/>
<line class="st1" x1="1099.9" y1="445.8" x2="1097.3" y2="449.5"/>
<line class="st1" x1="1097.3" y1="449.5" x2="1101" y2="452.2"/>
<line class="st1" x1="1101" y1="452.2" x2="1093" y2="463.5"/>
<line class="st1" x1="1093" y1="463.5" x2="1053" y2="435.2"/>
<line class="st1" x1="1053" y1="435.2" x2="1061.1" y2="423.8"/>
<line class="st1" x1="1061.1" y1="423.8" x2="1065" y2="426.6"/>
<line class="st1" x1="1065" y1="426.6" x2="1067.7" y2="422.9"/>
<line class="st1" x1="1067.7" y1="422.9" x2="1057.4" y2="415.6"/>
<line class="st1" x1="853.3" y1="682" x2="876.8" y2="705.5"/>
<line class="st1" x1="876.8" y1="705.5" x2="855.2" y2="727.1"/>
<line class="st1" x1="855.2" y1="727.1" x2="838.9" y2="710.7"/>
<line class="st1" x1="838.9" y1="710.7" x2="843.6" y2="706"/>
<line class="st1" x1="843.6" y1="706" x2="836.5" y2="698.9"/>
<line class="st1" x1="836.5" y1="698.9" x2="853.3" y2="682"/>
<line class="st1" x1="692.6" y1="776" x2="744.3" y2="786.4"/>
<line class="st1" x1="744.3" y1="786.4" x2="739.5" y2="810.5"/>
<line class="st1" x1="739.5" y1="810.5" x2="687.8" y2="800.1"/>
<line class="st1" x1="687.8" y1="800.1" x2="692.6" y2="776"/>
<line class="st1" x1="704.9" y1="778.4" x2="700.1" y2="802.5"/>
<line class="st1" x1="717.1" y1="780.9" x2="712.2" y2="805"/>
<line class="st1" x1="730" y1="783.5" x2="725.1" y2="807.6"/>
<line class="st1" x1="590.9" y1="736.7" x2="613.1" y2="760.9"/>
<line class="st1" x1="613.1" y1="760.9" x2="611.1" y2="762.9"/>
<line class="st1" x1="611.1" y1="762.9" x2="617.1" y2="770.8"/>
<line class="st1" x1="617.1" y1="770.8" x2="602.7" y2="783.5"/>
<line class="st1" x1="602.7" y1="783.5" x2="595.1" y2="774.9"/>
<line class="st1" x1="595.1" y1="774.9" x2="590.2" y2="778.7"/>
<line class="st1" x1="590.2" y1="778.7" x2="575.1" y2="763.6"/>
<line class="st1" x1="575.1" y1="763.6" x2="590.4" y2="748.3"/>
<line class="st1" x1="590.4" y1="748.3" x2="584.8" y2="742.2"/>
<line class="st1" x1="584.8" y1="742.2" x2="590.9" y2="736.7"/>
<line class="st1" x1="702" y1="729.3" x2="753.8" y2="739.8"/>
<line class="st1" x1="753.8" y1="739.8" x2="748.9" y2="763.8"/>
<line class="st1" x1="748.9" y1="763.8" x2="697.2" y2="753.4"/>
<line class="st1" x1="697.2" y1="753.4" x2="702" y2="729.3"/>
<line class="st1" x1="714.4" y1="731.8" x2="709.5" y2="755.9"/>
<line class="st1" x1="726.5" y1="734.2" x2="721.7" y2="758.3"/>
<line class="st1" x1="739.4" y1="736.8" x2="734.6" y2="761"/>
<line class="st1" x1="756.7" y1="789" x2="891.6" y2="816.3"/>
<line class="st1" x1="891.6" y1="816.3" x2="886.7" y2="840.4"/>
<line class="st1" x1="886.7" y1="840.4" x2="751.8" y2="813.1"/>
<line class="st1" x1="751.8" y1="813.1" x2="756.7" y2="789"/>
<line class="st1" x1="769" y1="791.5" x2="764.1" y2="815.6"/>
<line class="st1" x1="781.1" y1="794" x2="776.3" y2="818.1"/>
<line class="st1" x1="794" y1="796.6" x2="789.2" y2="820.7"/>
<line class="st1" x1="806.9" y1="799.2" x2="802" y2="823.3"/>
<line class="st1" x1="819.8" y1="801.8" x2="814.9" y2="825.9"/>
<line class="st1" x1="832.7" y1="804.4" x2="827.8" y2="828.5"/>
<line class="st1" x1="845.6" y1="807" x2="840.7" y2="831.1"/>
<line class="st1" x1="858.5" y1="809.6" x2="853.6" y2="833.7"/>
<line class="st1" x1="871.4" y1="812.2" x2="866.5" y2="836.3"/>
<line class="st1" x1="886.5" y1="713.5" x2="907" y2="729.1"/>
<line class="st1" x1="907" y1="729.1" x2="913" y2="733.6"/>
<line class="st1" x1="913" y1="733.6" x2="916.8" y2="741.2"/>
<line class="st1" x1="916.8" y1="741.2" x2="916.8" y2="747.6"/>
<line class="st1" x1="916.8" y1="747.6" x2="910.1" y2="772.4"/>
<line class="st1" x1="910.1" y1="772.4" x2="897.3" y2="769"/>
<line class="st1" x1="897.3" y1="769" x2="902.8" y2="743.8"/>
<line class="st1" x1="902.8" y1="743.8" x2="908.5" y2="745.4"/>
<line class="st1" x1="908.5" y1="745.4" x2="907.3" y2="741.2"/>
<line class="st1" x1="907.3" y1="741.2" x2="880.8" y2="721.1"/>
<line class="st1" x1="880.8" y1="721.1" x2="886.5" y2="713.5"/>
<line class="st1" x1="907.3" y1="741.2" x2="913" y2="733.6"/>
<line class="st1" x1="900.4" y1="754.9" x2="913.9" y2="758.5"/>
<line class="st1" x1="907.8" y1="683.9" x2="893.6" y2="698.1"/>
<line class="st1" x1="893.6" y1="698.1" x2="933.7" y2="732.9"/>
<line class="st1" x1="933.7" y1="732.9" x2="946.9" y2="717.6"/>
<line class="st1" x1="946.9" y1="717.6" x2="907.8" y2="683.9"/>
<line class="st1" x1="932.7" y1="705.3" x2="919.5" y2="720.6"/>
<line class="st1" x1="950.5" y1="758.8" x2="958.4" y2="764.2"/>
<line class="st1" x1="958.4" y1="764.2" x2="960.7" y2="760.8"/>
<line class="st1" x1="960.7" y1="760.8" x2="978.5" y2="772.7"/>
<line class="st1" x1="978.5" y1="772.7" x2="963.7" y2="794.8"/>
<line class="st1" x1="963.7" y1="794.8" x2="945.7" y2="782.7"/>
<line class="st1" x1="945.7" y1="782.7" x2="950.8" y2="775.3"/>
<line class="st1" x1="950.8" y1="775.3" x2="942.9" y2="769.9"/>
<line class="st1" x1="942.9" y1="769.9" x2="950.5" y2="758.8"/>
<line class="st1" x1="997" y1="678.2" x2="1009.5" y2="685.3"/>
<line class="st1" x1="1009.5" y1="685.3" x2="1006.1" y2="691.3"/>
<line class="st1" x1="1006.1" y1="691.3" x2="993.6" y2="684.3"/>
<line class="st1" x1="993.6" y1="684.3" x2="997" y2="678.2"/>
<line class="st1" x1="1037.2" y1="747.4" x2="1015" y2="777"/>
<line class="st1" x1="1015" y1="777" x2="1028.3" y2="786.9"/>
<line class="st1" x1="1028.3" y1="786.9" x2="1050.5" y2="757.3"/>
<line class="st1" x1="1050.5" y1="757.3" x2="1037.2" y2="747.4"/>
<line class="st1" x1="995.4" y1="774.4" x2="1005.3" y2="779.8"/>
<line class="st1" x1="1005.3" y1="779.8" x2="1001.7" y2="786.6"/>
<line class="st1" x1="1001.7" y1="786.6" x2="991.7" y2="781.1"/>
<line class="st1" x1="991.7" y1="781.1" x2="995.4" y2="774.4"/>
<line class="st1" x1="1055.5" y1="638.5" x2="1038.5" y2="663.2"/>
<line class="st1" x1="1038.5" y1="663.2" x2="1058" y2="676.7"/>
<line class="st1" x1="1058" y1="676.7" x2="1075" y2="651.9"/>
<line class="st1" x1="1075" y1="651.9" x2="1055.5" y2="638.5"/>
<line class="st1" x1="1126.1" y1="678.3" x2="1117.2" y2="693.1"/>
<line class="st1" x1="1117.2" y1="693.1" x2="1139.1" y2="706.1"/>
<line class="st1" x1="1139.1" y1="706.1" x2="1147.9" y2="691.3"/>
<line class="st1" x1="1147.9" y1="691.3" x2="1126.1" y2="678.3"/>
<line class="st1" x1="1082.6" y1="577.4" x2="1102.8" y2="590.9"/>
<line class="st1" x1="1102.8" y1="590.9" x2="1097.2" y2="599.2"/>
<line class="st1" x1="1097.2" y1="599.2" x2="1102.5" y2="602.8"/>
<line class="st1" x1="1102.5" y1="602.8" x2="1095.4" y2="613.5"/>
<line class="st1" x1="1095.4" y1="613.5" x2="1072.7" y2="598.4"/>
<line class="st1" x1="1072.7" y1="598.4" x2="1077.1" y2="591.8"/>
<line class="st1" x1="1077.1" y1="591.8" x2="1074.2" y2="589.9"/>
<line class="st1" x1="1074.2" y1="589.9" x2="1082.6" y2="577.4"/>
<line class="st1" x1="1150.1" y1="639.9" x2="1165.2" y2="619.9"/>
<line class="st1" x1="1165.2" y1="619.9" x2="1182.7" y2="633.2"/>
<line class="st1" x1="1182.7" y1="633.2" x2="1178.7" y2="638.5"/>
<line class="st1" x1="1178.7" y1="638.5" x2="1173.3" y2="634.4"/>
<line class="st1" x1="1173.3" y1="634.4" x2="1162.2" y2="649"/>
<line class="st1" x1="1162.2" y1="649" x2="1150.1" y2="639.9"/>
<line class="st1" x1="1144.2" y1="780.4" x2="1130.7" y2="802"/>
<line class="st1" x1="1130.7" y1="802" x2="1144.2" y2="810.4"/>
<line class="st1" x1="1144.2" y1="810.4" x2="1157.7" y2="788.9"/>
<line class="st1" x1="1157.7" y1="788.9" x2="1144.2" y2="780.4"/>
<line class="st1" x1="1142.8" y1="466.7" x2="1150.2" y2="456.8"/>
<line class="st1" x1="1150.2" y1="456.8" x2="1176.2" y2="476"/>
<line class="st1" x1="1176.2" y1="476" x2="1169.8" y2="484.6"/>
<line class="st1" x1="1169.8" y1="484.6" x2="1164.3" y2="482.7"/>
<line class="st1" x1="1164.3" y1="482.7" x2="1155" y2="494.7"/>
<line class="st1" x1="1155" y1="494.7" x2="1144.9" y2="486.8"/>
<line class="st1" x1="1144.9" y1="486.8" x2="1153.8" y2="474.9"/>
<line class="st1" x1="1153.8" y1="474.9" x2="1142.8" y2="466.7"/>
<line class="st1" x1="57" y1="684.8" x2="124.2" y2="719.3"/>
<line class="st1" x1="124.2" y1="719.3" x2="87.1" y2="791.5"/>
<line class="st1" x1="87.1" y1="791.5" x2="19.9" y2="756.9"/>
<line class="st1" x1="19.9" y1="756.9" x2="57" y2="684.8"/>
<line class="st1" x1="0.2" y1="332" x2="1" y2="332.1"/>
<line class="st1" x1="1" y1="332.1" x2="21.7" y2="338.2"/>
<line class="st1" x1="21.7" y1="338.2" x2="47.7" y2="347.9"/>
<line class="st1" x1="47.7" y1="347.9" x2="78.8" y2="354.9"/>
<line class="st1" x1="78.8" y1="354.9" x2="117.8" y2="376.4"/>
<line class="st1" x1="117.8" y1="376.4" x2="155.7" y2="401.6"/>
<line class="st1" x1="155.7" y1="401.6" x2="202.1" y2="432.3"/>
<line class="st1" x1="202.1" y1="432.3" x2="249.4" y2="479.7"/>
<line class="st1" x1="249.4" y1="479.7" x2="287.4" y2="539.8"/>
<line class="st1" x1="287.4" y1="539.8" x2="318.7" y2="608.4"/>
<line class="st1" x1="318.7" y1="608.4" x2="338" y2="660.4"/>
<line class="st1" x1="338" y1="660.4" x2="366" y2="735.7"/>
<line class="st1" x1="366" y1="735.7" x2="372" y2="785.8"/>
<line class="st1" x1="372" y1="785.8" x2="372" y2="821.8"/>
<line class="st1" x1="372" y1="821.8" x2="363.1" y2="841.9"/>
<line class="st1" x1="233.5" y1="841.9" x2="235.1" y2="836.6"/>
<line class="st1" x1="235.1" y1="836.6" x2="235.1" y2="801.1"/>
<line class="st1" x1="235.1" y1="801.1" x2="235.1" y2="772.3"/>
<line class="st1" x1="235.1" y1="772.3" x2="235.1" y2="728.1"/>
<line class="st1" x1="235.1" y1="728.1" x2="231.2" y2="698"/>
<line class="st1" x1="231.2" y1="698" x2="212.5" y2="648.6"/>
<line class="st1" x1="212.5" y1="648.6" x2="192.7" y2="596.2"/>
<line class="st1" x1="192.7" y1="596.2" x2="149.9" y2="542"/>
<line class="st1" x1="149.9" y1="542" x2="114.5" y2="515.9"/>
<line class="st1" x1="114.5" y1="515.9" x2="82.3" y2="492.2"/>
<line class="st1" x1="82.3" y1="492.2" x2="46.5" y2="475.9"/>
<line class="st1" x1="46.5" y1="475.9" x2="11.7" y2="460.1"/>
<line class="st1" x1="11.7" y1="460.1" x2="0.2" y2="458.1"/>
</svg>
