<?xml version="1.0" encoding="UTF-8"?>
<svg id="Layer_1" data-name="Layer 1" xmlns="http://www.w3.org/2000/svg" xmlns:xlink="http://www.w3.org/1999/xlink" viewBox="0 0 1190.55 841.89">
  <defs>
    <style>
      .cls-1, .cls-2, .cls-3, .cls-4 {
        fill: none;
      }

      .cls-2 {
        stroke: #029e21;
      }

      .cls-2, .cls-3, .cls-4 {
        stroke-linecap: round;
        stroke-linejoin: round;
        stroke-width: .25px;
      }

      .cls-5 {
        fill: #fff;
      }

      .cls-5, .cls-6, .cls-7 {
        fill-rule: evenodd;
      }

      .cls-3 {
        stroke: #000;
      }

      .cls-7 {
        fill: #b3b3b3;
      }

      .cls-4 {
        stroke: silver;
      }

      .cls-8 {
        clip-path: url(#clippath);
      }
    </style>
    <clipPath id="clippath">
      <rect class="cls-1" x="-272.21" width="1298.26" height="833.8"/>
    </clipPath>
  </defs>
  <g class="cls-8">
    <g>
      <polyline class="cls-5" points="589.76 476.86 588.18 454.51 552.51 457.02 517.25 459.5 517.41 461.83 518.68 480.21 550.2 480.21 480.1 486.15 480.1 478.12 490.47 477.29 490.47 432.46 584.63 432.24 584.79 406.32 620.12 406.54 618.05 431.09 614.81 474.03 589.76 476.86"/>
      <line class="cls-3" x1="589.76" y1="476.86" x2="588.18" y2="454.51"/>
      <line class="cls-3" x1="588.18" y1="454.51" x2="552.51" y2="457.02"/>
      <line class="cls-3" x1="552.51" y1="457.02" x2="552.51" y2="457.02"/>
      <line class="cls-3" x1="552.51" y1="457.02" x2="517.25" y2="459.5"/>
      <line class="cls-3" x1="517.25" y1="459.5" x2="517.41" y2="461.83"/>
      <line class="cls-3" x1="517.41" y1="461.83" x2="518.68" y2="480.21"/>
      <line class="cls-3" x1="518.68" y1="480.21" x2="550.2" y2="480.21"/>
      <line class="cls-3" x1="550.2" y1="480.21" x2="480.1" y2="486.15"/>
      <line class="cls-3" x1="480.1" y1="486.15" x2="480.1" y2="478.12"/>
      <line class="cls-3" x1="480.1" y1="478.12" x2="490.47" y2="477.29"/>
      <line class="cls-3" x1="490.47" y1="477.29" x2="490.47" y2="432.46"/>
      <line class="cls-3" x1="490.47" y1="432.46" x2="584.63" y2="432.24"/>
      <line class="cls-3" x1="584.63" y1="432.24" x2="584.79" y2="406.32"/>
      <line class="cls-3" x1="584.79" y1="406.32" x2="620.12" y2="406.54"/>
      <line class="cls-3" x1="620.12" y1="406.54" x2="618.05" y2="431.09"/>
      <line class="cls-3" x1="618.05" y1="431.09" x2="614.81" y2="474.03"/>
      <line class="cls-3" x1="614.81" y1="474.03" x2="589.76" y2="476.86"/>
      <line class="cls-3" x1="297.84" y1="531.31" x2="610.68" y2="531.31"/>
      <line class="cls-3" x1="642.26" y1="88.35" x2="631.04"/>
      <line class="cls-3" x1="732.75" x2="741.42" y2="57.12"/>
      <line class="cls-3" x1="741.42" y1="57.12" x2="642.26" y2="88.35"/>
      <line class="cls-3" x1="741.42" y1="57.12" x2="899.44" y2="9.56"/>
      <line class="cls-3" x1="899.44" y1="9.56" x2="925.6"/>
      <line class="cls-3" x1="1012.51" x2="993.11" y2="7.03"/>
      <line class="cls-3" x1="993.11" y1="7.03" x2="909.24" y2="37.42"/>
      <line class="cls-3" x1="909.24" y1="37.42" x2="739.53" y2="89.66"/>
      <line class="cls-3" x1="739.53" y1="89.66" x2="646.25" y2="118.73"/>
      <polyline class="cls-5" points="175.61 419.07 176.36 432.65 156.25 433.4 155.45 419.98 175.61 419.07"/>
      <line class="cls-3" x1="175.61" y1="419.07" x2="155.45" y2="419.98"/>
      <line class="cls-3" x1="155.45" y1="419.98" x2="156.25" y2="433.4"/>
      <line class="cls-3" x1="156.25" y1="433.4" x2="176.36" y2="432.65"/>
      <line class="cls-3" x1="176.36" y1="432.65" x2="175.61" y2="419.07"/>
      <polyline class="cls-5" points="703.4 596.31 660.62 594.41 657.94 594.29 658.74 572.73 659.97 527.91 708.43 529.77 705.88 596.22 703.4 596.31"/>
      <line class="cls-3" x1="703.4" y1="596.31" x2="705.88" y2="596.22"/>
      <line class="cls-3" x1="705.88" y1="596.22" x2="708.43" y2="529.77"/>
      <line class="cls-3" x1="708.43" y1="529.77" x2="659.97" y2="527.91"/>
      <line class="cls-3" x1="659.97" y1="527.91" x2="658.74" y2="572.73"/>
      <line class="cls-3" x1="658.74" y1="572.73" x2="657.94" y2="594.29"/>
      <line class="cls-3" x1="657.94" y1="594.29" x2="660.62" y2="594.41"/>
      <line class="cls-3" x1="660.62" y1="594.41" x2="660.62" y2="594.41"/>
      <line class="cls-3" x1="660.62" y1="594.41" x2="703.4" y2="596.31"/>
      <polyline class="cls-5" points="128.92 300.37 136.62 351.99 68.18 361.96 60.51 310.45 128.92 300.37"/>
      <line class="cls-3" x1="128.92" y1="300.37" x2="60.51" y2="310.45"/>
      <line class="cls-3" x1="60.51" y1="310.45" x2="68.18" y2="361.96"/>
      <line class="cls-3" x1="68.18" y1="361.96" x2="136.62" y2="351.99"/>
      <line class="cls-3" x1="136.62" y1="351.99" x2="128.92" y2="300.37"/>
      <polyline class="cls-5" points="244.52 306.62 245.05 243.55 307.85 241.43 307.52 306.12 244.52 306.62"/>
      <line class="cls-3" x1="244.52" y1="306.62" x2="307.52" y2="306.12"/>
      <line class="cls-3" x1="307.52" y1="306.12" x2="307.85" y2="241.43"/>
      <line class="cls-3" x1="307.85" y1="241.43" x2="245.05" y2="243.55"/>
      <line class="cls-3" x1="245.05" y1="243.55" x2="244.52" y2="306.62"/>
      <polyline class="cls-5" points="729.68 295.34 701.92 296.9 699.43 257.54 727.32 255.81 789.19 251.97 791.61 291.84 729.68 295.34"/>
      <line class="cls-3" x1="729.68" y1="295.34" x2="791.61" y2="291.84"/>
      <line class="cls-3" x1="791.61" y1="291.84" x2="789.19" y2="251.97"/>
      <line class="cls-3" x1="789.19" y1="251.97" x2="727.32" y2="255.81"/>
      <line class="cls-3" x1="727.32" y1="255.81" x2="699.43" y2="257.54"/>
      <line class="cls-3" x1="699.43" y1="257.54" x2="701.92" y2="296.9"/>
      <line class="cls-3" x1="701.92" y1="296.9" x2="729.68" y2="295.34"/>
      <polyline class="cls-5" points="394.46 287.42 364.79 288.99 363.78 270.15 331.54 271.18 330.17 234.83 364.43 233.47 364.48 235.27 381.92 234.65 383.23 255.71 393.09 255.14 394.46 287.42"/>
      <line class="cls-3" x1="394.46" y1="287.42" x2="393.09" y2="255.14"/>
      <line class="cls-3" x1="393.09" y1="255.14" x2="383.23" y2="255.71"/>
      <line class="cls-3" x1="383.23" y1="255.71" x2="381.92" y2="234.65"/>
      <line class="cls-3" x1="381.92" y1="234.65" x2="364.48" y2="235.27"/>
      <line class="cls-3" x1="364.48" y1="235.27" x2="364.43" y2="233.47"/>
      <line class="cls-3" x1="364.43" y1="233.47" x2="330.17" y2="234.83"/>
      <line class="cls-3" x1="330.17" y1="234.83" x2="331.54" y2="271.18"/>
      <line class="cls-3" x1="331.54" y1="271.18" x2="363.78" y2="270.15"/>
      <line class="cls-3" x1="363.78" y1="270.15" x2="364.79" y2="288.99"/>
      <line class="cls-3" x1="364.79" y1="288.99" x2="394.46" y2="287.42"/>
      <polyline class="cls-5" points="372.7 144.81 377.56 183.45 316.44 188.45 312.52 148.48 372.7 144.81"/>
      <line class="cls-3" x1="372.7" y1="144.81" x2="312.52" y2="148.48"/>
      <line class="cls-3" x1="312.52" y1="148.48" x2="316.44" y2="188.45"/>
      <line class="cls-3" x1="316.44" y1="188.45" x2="377.56" y2="183.45"/>
      <line class="cls-3" x1="377.56" y1="183.45" x2="372.7" y2="144.81"/>
      <polyline class="cls-5" points="805.31 456.14 802.73 472.63 786.37 470.07 788.92 453.83 805.31 456.14"/>
      <line class="cls-3" x1="805.31" y1="456.14" x2="788.92" y2="453.83"/>
      <line class="cls-3" x1="788.92" y1="453.83" x2="786.37" y2="470.07"/>
      <line class="cls-3" x1="786.37" y1="470.07" x2="802.73" y2="472.63"/>
      <line class="cls-3" x1="802.73" y1="472.63" x2="805.31" y2="456.14"/>
      <polyline class="cls-7" points="657.93 594.31 657.94 594.29 660.62 594.41 657.93 594.31"/>
      <polyline class="cls-5" points="170.12 760.16 145.54 761.5 139.58 765.83 129.08 766.6 126.07 736.2 143.37 734.07 156.72 725.68 161.71 705.46 165.67 689.47 176.4 645.32 186.27 577.43 194.18 484.64 197.53 413.12 199.11 379.44 208.15 276.82 203.09 248.99 227.97 245.26 220.12 344.38 210.11 462.32 190.19 657.33 180.99 704.51 180.17 708.72 177.05 724.67 176.07 729.68 170.12 760.16"/>
      <polyline class="cls-5" points="835.66 541.68 854.44 542.3 854.11 552.2 852.25 553.4 835.28 552.84 835.66 541.68"/>
      <line class="cls-3" x1="835.66" y1="541.68" x2="835.28" y2="552.84"/>
      <line class="cls-3" x1="835.28" y1="552.84" x2="852.25" y2="553.4"/>
      <line class="cls-3" x1="852.25" y1="553.4" x2="854.11" y2="552.2"/>
      <line class="cls-3" x1="854.11" y1="552.2" x2="854.44" y2="542.3"/>
      <line class="cls-3" x1="854.44" y1="542.3" x2="835.66" y2="541.68"/>
      <polyline class="cls-5" points="43.39 759.77 56.73 759.12 57.36 772.2 44.03 772.85 43.39 759.77"/>
      <line class="cls-3" x1="43.39" y1="759.77" x2="44.03" y2="772.85"/>
      <line class="cls-3" x1="44.03" y1="772.85" x2="57.36" y2="772.2"/>
      <line class="cls-3" x1="57.36" y1="772.2" x2="56.73" y2="759.12"/>
      <line class="cls-3" x1="56.73" y1="759.12" x2="43.39" y2="759.77"/>
      <polyline class="cls-5" points="922.34 134.53 902.01 75.41 972.17 51.38 992.48 110.95 922.34 134.53"/>
      <line class="cls-3" x1="922.34" y1="134.53" x2="992.48" y2="110.95"/>
      <line class="cls-3" x1="992.48" y1="110.95" x2="972.17" y2="51.38"/>
      <line class="cls-3" x1="972.17" y1="51.38" x2="902.01" y2="75.41"/>
      <line class="cls-3" x1="902.01" y1="75.41" x2="922.34" y2="134.53"/>
      <polyline class="cls-6" points="554.35 480.21 518.68 480.21 517.25 459.5 552.71 457.01 554.35 480.21"/>
      <line class="cls-3" x1="554.35" y1="480.21" x2="552.71" y2="457.01"/>
      <line class="cls-3" x1="552.71" y1="457.01" x2="517.25" y2="459.5"/>
      <line class="cls-3" x1="517.25" y1="459.5" x2="518.68" y2="480.21"/>
      <line class="cls-3" x1="518.68" y1="480.21" x2="554.35" y2="480.21"/>
      <polyline class="cls-6" points="589.82 477.71 554.35 480.21 552.71 457.01 588.18 454.51 589.82 477.71"/>
      <line class="cls-3" x1="589.82" y1="477.71" x2="588.18" y2="454.51"/>
      <line class="cls-3" x1="588.18" y1="454.51" x2="552.71" y2="457.01"/>
      <line class="cls-3" x1="552.71" y1="457.01" x2="554.35" y2="480.21"/>
      <line class="cls-3" x1="554.35" y1="480.21" x2="589.82" y2="477.71"/>
      <polyline class="cls-6" points="520.85 477.89 519.73 461.66 552.68 459.34 553.99 477.9 520.85 477.89"/>
      <line class="cls-4" x1="520.85" y1="477.89" x2="519.73" y2="461.66"/>
      <line class="cls-4" x1="519.73" y1="461.66" x2="552.68" y2="459.34"/>
      <line class="cls-4" x1="552.68" y1="459.34" x2="553.99" y2="477.9"/>
      <line class="cls-4" x1="553.99" y1="477.9" x2="520.85" y2="477.89"/>
      <polyline class="cls-5" points="508.82 411.83 502.18 411.78 494.2 411.73 486.16 411.68 480.75 411.65 480.75 405.67 584.79 406.32 584.76 412.3 508.82 411.83"/>
      <line class="cls-3" x1="508.82" y1="411.83" x2="584.76" y2="412.3"/>
      <line class="cls-3" x1="584.76" y1="412.3" x2="584.79" y2="406.32"/>
      <line class="cls-3" x1="584.79" y1="406.32" x2="480.75" y2="405.67"/>
      <line class="cls-3" x1="480.75" y1="405.67" x2="480.75" y2="411.65"/>
      <line class="cls-3" x1="480.75" y1="411.65" x2="486.16" y2="411.68"/>
      <line class="cls-3" x1="486.16" y1="411.68" x2="494.2" y2="411.73"/>
      <line class="cls-3" x1="494.2" y1="411.73" x2="502.18" y2="411.78"/>
      <line class="cls-3" x1="502.18" y1="411.78" x2="508.82" y2="411.83"/>
      <polyline class="cls-5" points="508.82 432.42 502.05 432.45 502.18 411.78 508.82 411.83 508.82 432.42"/>
      <line class="cls-3" x1="508.82" y1="432.42" x2="508.82" y2="411.83"/>
      <line class="cls-3" x1="508.82" y1="411.83" x2="502.18" y2="411.78"/>
      <line class="cls-3" x1="502.18" y1="411.78" x2="502.05" y2="432.45"/>
      <line class="cls-3" x1="502.05" y1="432.45" x2="508.82" y2="432.42"/>
      <polyline class="cls-5" points="494.17 416.68 493.64 416.68 486.66 416.63 486.13 416.63 486.16 411.68 494.2 411.73 494.17 416.68"/>
      <line class="cls-3" x1="494.17" y1="416.68" x2="494.2" y2="411.73"/>
      <line class="cls-3" x1="494.2" y1="411.73" x2="486.16" y2="411.68"/>
      <line class="cls-3" x1="486.16" y1="411.68" x2="486.13" y2="416.63"/>
      <line class="cls-3" x1="486.13" y1="416.63" x2="486.66" y2="416.63"/>
      <line class="cls-3" x1="486.66" y1="416.63" x2="493.64" y2="416.68"/>
      <line class="cls-3" x1="493.64" y1="416.68" x2="494.17" y2="416.68"/>
      <polyline class="cls-5" points="448.84 281.38 444.52 243.85 510.12 236.3 514.43 273.8 448.84 281.38"/>
      <line class="cls-3" x1="448.84" y1="281.38" x2="444.52" y2="243.85"/>
      <line class="cls-3" x1="444.52" y1="243.85" x2="510.12" y2="236.3"/>
      <line class="cls-3" x1="510.12" y1="236.3" x2="514.43" y2="273.8"/>
      <line class="cls-3" x1="514.43" y1="273.8" x2="448.84" y2="281.38"/>
      <polyline class="cls-6" points="552.68 459.34 586.03 456.99 587.34 475.55 553.99 477.9 552.68 459.34"/>
      <line class="cls-4" x1="552.68" y1="459.34" x2="586.03" y2="456.99"/>
      <line class="cls-4" x1="586.03" y1="456.99" x2="587.34" y2="475.55"/>
      <line class="cls-4" x1="587.34" y1="475.55" x2="553.99" y2="477.9"/>
      <line class="cls-4" x1="553.99" y1="477.9" x2="552.68" y2="459.34"/>
      <line class="cls-2" x1="514.47" y1="377.96" x2="514.54" y2="377.68"/>
      <line class="cls-3" x1="684.2" y1="528.84" x2="682.01" y2="595.36"/>
      <line class="cls-3" x1="700.57" y1="275.57" x2="790.3" y2="270.11"/>
      <line class="cls-3" x1="330.86" y1="253" x2="382.94" y2="251.04"/>
      <line class="cls-3" x1="276.45" y1="242.49" x2="275.66" y2="306.76"/>
      <line class="cls-3" x1="342.61" y1="146.65" x2="345.84" y2="186.04"/>
      <line class="cls-3" x1="797.12" y1="454.98" x2="794.55" y2="471.35"/>
      <line class="cls-3" x1="937.09" y1="63.39" x2="957.41" y2="122.74"/>
      <line class="cls-3" x1="94.71" y1="305.41" x2="102.22" y2="357"/>
      <line class="cls-3" x1="165.53" y1="419.53" x2="166.03" y2="433.04"/>
      <line class="cls-3" x1="354.91" y1="3.28" x2="249.29" y2="16.8"/>
      <line class="cls-3" x1="249.29" y1="16.8" x2="247.18"/>
      <line class="cls-3" x1="394.7" y1="186.1" x2="396.17" y2="184.57"/>
      <line class="cls-3" x1="396.17" y1="184.57" x2="397.6" y2="183"/>
      <line class="cls-3" x1="397.6" y1="183" x2="398.99" y2="181.4"/>
      <line class="cls-3" x1="398.99" y1="181.4" x2="400.34" y2="179.77"/>
      <line class="cls-3" x1="400.34" y1="179.77" x2="401.65" y2="178.1"/>
      <line class="cls-3" x1="401.65" y1="178.1" x2="402.91" y2="176.4"/>
      <line class="cls-3" x1="402.91" y1="176.4" x2="405.29" y2="172.92"/>
      <line class="cls-3" x1="405.29" y1="172.92" x2="407.48" y2="169.33"/>
      <line class="cls-3" x1="407.48" y1="169.33" x2="409.5" y2="165.63"/>
      <line class="cls-3" x1="409.5" y1="165.63" x2="411.32" y2="161.83"/>
      <line class="cls-3" x1="411.32" y1="161.83" x2="412.95" y2="157.95"/>
      <line class="cls-3" x1="412.95" y1="157.95" x2="414.38" y2="153.99"/>
      <line class="cls-3" x1="180.99" y1="704.51" x2="177.05" y2="724.67"/>
      <line class="cls-3" x1="177.05" y1="724.67" x2="170.12" y2="760.16"/>
      <line class="cls-3" x1="170.12" y1="760.16" x2="145.54" y2="761.5"/>
      <line class="cls-3" x1="145.54" y1="761.5" x2="139.58" y2="765.83"/>
      <line class="cls-3" x1="139.58" y1="765.83" x2="129.08" y2="766.6"/>
      <line class="cls-3" x1="129.08" y1="766.6" x2="126.07" y2="736.2"/>
      <line class="cls-3" x1="126.07" y1="736.2" x2="143.37" y2="734.07"/>
      <line class="cls-3" x1="143.37" y1="734.07" x2="156.72" y2="725.68"/>
      <line class="cls-3" x1="156.72" y1="725.68" x2="161.71" y2="705.46"/>
      <line class="cls-3" x1="619.65" y1="768.32" x2="617.79" y2="764.32"/>
      <line class="cls-3" x1="617.79" y1="764.32" x2="617.13" y2="716.04"/>
      <line class="cls-3" x1="617.13" y1="716.04" x2="652.88" y2="731.47"/>
      <line class="cls-3" x1="652.88" y1="731.47" x2="693.49" y2="736.04"/>
      <line class="cls-3" x1="693.49" y1="736.04" x2="691.01" y2="796.28"/>
      <line class="cls-3" x1="691.01" y1="796.28" x2="664.42" y2="796.55"/>
      <line class="cls-3" x1="664.42" y1="796.55" x2="664.78" y2="822.59"/>
      <line class="cls-3" x1="664.78" y1="822.59" x2="654.97" y2="822.78"/>
      <line class="cls-3" x1="654.97" y1="822.78" x2="638.3" y2="823.13"/>
      <line class="cls-3" x1="12.55" y1="244.22" x2="-4.03" y2="238.32"/>
      <line class="cls-3" x1="-16.41" y1="211.02" x2="8.89" y2="213.36"/>
      <line class="cls-3" x1="8.89" y1="213.36" x2="12.09" y2="219.17"/>
      <line class="cls-3" x1="12.09" y1="219.17" x2="60.91" y2="217.58"/>
      <line class="cls-3" x1="60.91" y1="217.58" x2="120.47" y2="208.27"/>
      <line class="cls-3" x1="120.47" y1="208.27" x2="121.97" y2="220.97"/>
      <line class="cls-3" x1="145.54" y1="761.5" x2="126.79" y2="833.8"/>
      <line class="cls-3" x1="394.7" y1="186.1" x2="378.15" y2="188.19"/>
      <line class="cls-3" x1="378.15" y1="188.19" x2="377.56" y2="183.45"/>
      <line class="cls-3" x1="618.72" y1="833.8" x2="617.79" y2="764.32"/>
      <line class="cls-3" x1="617.79" y1="764.32" x2="619.65" y2="768.32"/>
      <line class="cls-3" x1="619.65" y1="768.32" x2="638.3" y2="823.13"/>
      <line class="cls-3" x1="638.3" y1="823.13" x2="654.97" y2="822.78"/>
      <line class="cls-3" x1="654.97" y1="822.78" x2="664.78" y2="822.59"/>
      <line class="cls-3" x1="664.78" y1="822.59" x2="664.93" y2="833.8"/>
      <line class="cls-3" x1="718.52" y1="833.8" x2="718.01" y2="796"/>
      <line class="cls-3" x1="718.01" y1="796" x2="691.01" y2="796.28"/>
      <line class="cls-3" x1="573.13" y1="112.38" x2="574.43" y2="111.72"/>
      <line class="cls-3" x1="574.43" y1="111.72" x2="575.68" y2="110.96"/>
      <line class="cls-3" x1="575.68" y1="110.96" x2="576.86" y2="110.09"/>
      <line class="cls-3" x1="576.86" y1="110.09" x2="577.96" y2="109.13"/>
      <line class="cls-3" x1="577.96" y1="109.13" x2="578.98" y2="108.07"/>
      <line class="cls-3" x1="578.98" y1="108.07" x2="579.9" y2="106.93"/>
      <line class="cls-3" x1="579.9" y1="106.93" x2="580.72" y2="105.72"/>
      <line class="cls-3" x1="580.72" y1="105.72" x2="581.44" y2="104.44"/>
      <line class="cls-3" x1="581.44" y1="104.44" x2="582.03" y2="103.12"/>
      <line class="cls-3" x1="582.03" y1="103.12" x2="582.52" y2="101.76"/>
      <line class="cls-3" x1="582.52" y1="101.76" x2="582.89" y2="100.36"/>
      <line class="cls-3" x1="582.89" y1="100.36" x2="583.14" y2="98.93"/>
      <line class="cls-3" x1="583.14" y1="98.93" x2="583.27" y2="97.49"/>
      <line class="cls-3" x1="583.27" y1="97.49" x2="583.28" y2="96.05"/>
      <line class="cls-3" x1="583.28" y1="96.05" x2="583.16" y2="94.6"/>
      <line class="cls-3" x1="583.16" y1="94.6" x2="582.93" y2="93.17"/>
      <line class="cls-3" x1="582.93" y1="93.17" x2="563.67" y2="23.3"/>
      <line class="cls-3" x1="718.02" y1="797.05" x2="744.47" y2="796.78"/>
      <line class="cls-3" x1="744.47" y1="796.78" x2="744.7" y2="820.04"/>
      <line class="cls-3" x1="744.7" y1="820.04" x2="718.34" y2="820.31"/>
      <line class="cls-3" x1="718.34" y1="820.31" x2="718.02" y2="797.05"/>
      <line class="cls-3" x1="378.15" y1="188.19" x2="150.24" y2="217.3"/>
      <line class="cls-3" x1="150.24" y1="217.3" x2="126.76" y2="32.42"/>
      <line class="cls-3" x1="908.16" y1="481.11" x2="928.96" y2="487.74"/>
      <line class="cls-3" x1="928.96" y1="487.74" x2="923.76" y2="704.83"/>
      <line class="cls-3" x1="923.76" y1="704.83" x2="893" y2="732.52"/>
      <line class="cls-3" x1="893" y1="732.52" x2="791.05" y2="727.07"/>
      <line class="cls-3" x1="791.05" y1="727.07" x2="743.43" y2="724.52"/>
      <line class="cls-3" x1="743.43" y1="724.52" x2="752.04" y2="593.1"/>
      <line class="cls-3" x1="752.04" y1="593.1" x2="781.35" y2="439.44"/>
      <line class="cls-3" x1="781.35" y1="439.44" x2="826.17" y2="440.72"/>
      <line class="cls-3" x1="826.17" y1="440.72" x2="908.16" y2="481.11"/>
      <line class="cls-3" x1="923.76" y1="704.83" x2="948.91" y2="699.17"/>
      <line class="cls-3" x1="948.91" y1="699.17" x2="958.93" y2="699.2"/>
      <line class="cls-3" x1="958.93" y1="699.2" x2="958.65" y2="812.02"/>
      <line class="cls-3" x1="958.65" y1="812.02" x2="959.81" y2="833.8"/>
      <line class="cls-3" x1="617.13" y1="716.04" x2="635.74" y2="445.34"/>
      <line class="cls-3" x1="635.74" y1="445.34" x2="781.35" y2="439.44"/>
      <line class="cls-3" x1="618.72" y1="833.8" x2="617.13" y2="716.04"/>
      <line class="cls-3" x1="614.65" y1="95.22" x2="642.26" y2="88.35"/>
      <line class="cls-3" x1="381.99" y1="833.8" x2="375.77" y2="726.03"/>
      <line class="cls-3" x1="375.77" y1="726.03" x2="532.35" y2="644.65"/>
      <line class="cls-3" x1="532.35" y1="644.65" x2="525.33" y2="833.8"/>
      <line class="cls-3" x1="186.64" y1="833.8" x2="187.9" y2="763.66"/>
      <line class="cls-3" x1="187.9" y1="763.66" x2="295.67" y2="754.33"/>
      <line class="cls-3" x1="295.67" y1="754.33" x2="294" y2="688.75"/>
      <line class="cls-3" x1="294" y1="688.75" x2="288.73" y2="618.6"/>
      <line class="cls-3" x1="288.73" y1="618.6" x2="297.85" y2="531.31"/>
      <line class="cls-3" x1="1027.34" y1="118.02" x2="953.68" y2="167.75"/>
      <line class="cls-3" x1="953.68" y1="167.75" x2="754.52" y2="188.3"/>
      <line class="cls-3" x1="754.52" y1="188.3" x2="739.53" y2="89.66"/>
      <line class="cls-3" x1="655.53" y1="198.21" x2="646.25" y2="118.73"/>
      <line class="cls-3" x1="953.68" y1="167.75" x2="958.9" y2="496.52"/>
      <line class="cls-3" x1="958.9" y1="496.52" x2="948.99" y2="495"/>
      <line class="cls-3" x1="948.99" y1="495" x2="928.96" y2="487.74"/>
      <line class="cls-3" x1="826.17" y1="440.72" x2="781.35" y2="439.44"/>
      <line class="cls-3" x1="958.93" y1="699.2" x2="1027.34" y2="700.17"/>
      <line class="cls-3" x1="1027.34" y1="801.33" x2="958.65" y2="812.02"/>
      <line class="cls-3" x1="958.9" y1="496.52" x2="1027.34" y2="508.51"/>
      <line class="cls-3" x1="958.65" y1="812.02" x2="1027.34" y2="801.33"/>
      <line class="cls-3" x1="316.06" y1="236.43" x2="417.27" y2="224.94"/>
      <line class="cls-3" x1="417.27" y1="224.94" x2="424.02" y2="376.5"/>
      <line class="cls-3" x1="227.97" y1="245.26" x2="316.06" y2="236.43"/>
      <line class="cls-3" x1="316.06" y1="236.43" x2="313.3" y2="343.65"/>
      <line class="cls-3" x1="313.3" y1="343.65" x2="220.12" y2="344.38"/>
      <line class="cls-3" x1="220.12" y1="344.38" x2="227.97" y2="245.26"/>
      <line class="cls-3" x1="313.3" y1="343.65" x2="311.63" y2="399.64"/>
      <line class="cls-3" x1="311.63" y1="399.64" x2="297.88" y2="531.31"/>
      <line class="cls-3" x1="188.48" y1="704.13" x2="188.53" y2="697.29"/>
      <line class="cls-3" x1="180.99" y1="704.5" x2="188.48" y2="704.13"/>
      <line class="cls-3" x1="188.48" y1="704.13" x2="188.33" y2="724.12"/>
      <line class="cls-3" x1="188.33" y1="724.12" x2="187.9" y2="763.66"/>
      <line class="cls-3" x1="187.9" y1="763.66" x2="186.64" y2="833.8"/>
      <line class="cls-3" x1="-41.45" y1="735.58" x2="43.08" y2="731.3"/>
      <line class="cls-3" x1="43.08" y1="731.3" x2="44.69" y2="711.28"/>
      <line class="cls-3" x1="44.69" y1="711.28" x2="161.71" y2="705.46"/>
      <line class="cls-3" x1="249.29" y1="16.8" x2="126.76" y2="32.42"/>
      <line class="cls-3" x1="487.2" y1="81.92" x2="419.57" y2="90.25"/>
      <line class="cls-3" x1="835.28" y1="552.84" x2="793.75" y2="551.46"/>
      <line class="cls-3" x1="383.23" y1="255.71" x2="383.65" y2="268.59"/>
      <line class="cls-3" x1="383.65" y1="268.59" x2="363.78" y2="270.15"/>
      <line class="cls-3" x1="744.47" y1="796.78" x2="747.3" y2="796.75"/>
      <line class="cls-3" x1="747.3" y1="796.75" x2="747.76" y2="827"/>
      <line class="cls-3" x1="747.76" y1="827" x2="728.15" y2="827.29"/>
      <line class="cls-3" x1="728.15" y1="827.29" x2="728.25" y2="833.8"/>
      <line class="cls-3" x1="655.13" y1="833.8" x2="654.97" y2="822.78"/>
      <line class="cls-3" x1="654.97" y1="822.78" x2="664.78" y2="822.59"/>
      <line class="cls-3" x1="703.4" y1="596.31" x2="660.62" y2="594.41"/>
      <line class="cls-3" x1="852.41" y1="599.37" x2="852.32" y2="600.39"/>
      <line class="cls-3" x1="852.32" y1="600.39" x2="827.18" y2="599.48"/>
      <line class="cls-3" x1="43.39" y1="759.77" x2="56.73" y2="759.12"/>
      <line class="cls-3" x1="56.73" y1="759.12" x2="57.36" y2="772.2"/>
      <line class="cls-3" x1="195.21" y1="462.74" x2="64.18" y2="466.4"/>
      <line class="cls-3" x1="64.18" y1="466.4" x2="68.76" y2="404.5"/>
      <line class="cls-3" x1="68.76" y1="404.5" x2="16.43" y2="392.63"/>
      <line class="cls-3" x1="16.43" y1="392.63" x2="14.4" y2="277.26"/>
      <line class="cls-3" x1="64.18" y1="466.4" x2="44.69" y2="711.28"/>
      <line class="cls-4" x1="354.89" y1="478.14" x2="354.89" y2="430.96"/>
      <line class="cls-4" x1="354.89" y1="430.96" x2="454.58" y2="430.96"/>
      <line class="cls-4" x1="454.58" y1="430.96" x2="454.58" y2="476.72"/>
      <line class="cls-4" x1="454.58" y1="476.72" x2="434.64" y2="478.13"/>
      <line class="cls-4" x1="434.64" y1="478.13" x2="414.7" y2="476.72"/>
      <line class="cls-4" x1="414.7" y1="476.72" x2="394.76" y2="478.13"/>
      <line class="cls-4" x1="394.76" y1="478.13" x2="374.82" y2="476.73"/>
      <line class="cls-4" x1="374.82" y1="476.73" x2="354.89" y2="478.14"/>
      <line class="cls-3" x1="588.8" y1="466.09" x2="518.05" y2="471.12"/>
      <line class="cls-3" x1="311.65" y1="399.19" x2="404.77" y2="400.33"/>
      <line class="cls-3" x1="404.77" y1="400.33" x2="404.08" y2="376.22"/>
      <line class="cls-3" x1="404.08" y1="376.22" x2="424.02" y2="376.5"/>
      <line class="cls-3" x1="424.02" y1="376.5" x2="622.63" y2="376.75"/>
      <line class="cls-3" x1="622.63" y1="376.75" x2="617.03" y2="443.19"/>
      <line class="cls-3" x1="617.03" y1="443.19" x2="597.09" y2="719.74"/>
      <line class="cls-3" x1="597.09" y1="719.74" x2="602.44" y2="833.8"/>
      <line class="cls-3" x1="635.74" y1="445.34" x2="655.53" y2="198.21"/>
      <line class="cls-3" x1="655.53" y1="198.21" x2="754.52" y2="188.3"/>
      <line class="cls-3" x1="754.52" y1="188.3" x2="771.92" y2="186.5"/>
      <line class="cls-3" x1="617.13" y1="716.04" x2="743.43" y2="724.52"/>
      <line class="cls-3" x1="743.43" y1="724.52" x2="791.05" y2="727.07"/>
      <line class="cls-3" x1="791.05" y1="727.07" x2="792.52" y2="833.8"/>
      <line class="cls-3" x1="197.53" y1="413.12" x2="107.25" y2="412.87"/>
      <line class="cls-3" x1="107.25" y1="412.87" x2="68.76" y2="404.5"/>
      <line class="cls-3" x1="294" y1="688.75" x2="188.53" y2="697.29"/>
      <line class="cls-3" x1="188.53" y1="697.29" x2="210.11" y2="462.32"/>
      <line class="cls-3" x1="210.11" y1="462.32" x2="220.12" y2="344.38"/>
      <line class="cls-3" x1="-55.82" y1="385.84" x2="16.43" y2="392.63"/>
      <line class="cls-3" x1="150.24" y1="217.3" x2="121.97" y2="220.97"/>
      <line class="cls-3" x1="401.48" y1="111.89" x2="421.92" y2="109.38"/>
      <line class="cls-3" x1="421.92" y1="109.38" x2="466.12" y2="103.94"/>
      <line class="cls-3" x1="466.12" y1="103.94" x2="466.12" y2="103.94"/>
      <line class="cls-3" x1="474.27" y1="129.32" x2="475.2" y2="130.96"/>
      <line class="cls-3" x1="475.2" y1="130.96" x2="476.26" y2="132.52"/>
      <line class="cls-3" x1="476.26" y1="132.52" x2="477.44" y2="133.99"/>
      <line class="cls-3" x1="477.44" y1="133.99" x2="478.74" y2="135.37"/>
      <line class="cls-3" x1="478.74" y1="135.37" x2="480.13" y2="136.65"/>
      <line class="cls-3" x1="480.13" y1="136.65" x2="481.62" y2="137.81"/>
      <line class="cls-3" x1="481.62" y1="137.81" x2="483.19" y2="138.85"/>
      <line class="cls-3" x1="483.19" y1="138.85" x2="484.84" y2="139.77"/>
      <line class="cls-3" x1="484.84" y1="139.77" x2="486.69" y2="140.61"/>
      <line class="cls-3" x1="486.69" y1="140.61" x2="488.61" y2="141.29"/>
      <line class="cls-3" x1="488.61" y1="141.29" x2="490.57" y2="141.8"/>
      <line class="cls-3" x1="490.57" y1="141.8" x2="492.57" y2="142.16"/>
      <line class="cls-3" x1="492.57" y1="142.16" x2="494.59" y2="142.34"/>
      <line class="cls-3" x1="494.59" y1="142.34" x2="496.62" y2="142.35"/>
      <line class="cls-3" x1="496.62" y1="142.35" x2="498.65" y2="142.19"/>
      <line class="cls-3" x1="498.65" y1="142.19" x2="500.65" y2="141.86"/>
      <line class="cls-3" x1="500.65" y1="141.86" x2="502.62" y2="141.37"/>
      <line class="cls-3" x1="502.62" y1="141.37" x2="504.54" y2="140.71"/>
      <line class="cls-3" x1="372.7" y1="144.81" x2="354.91" y2="3.28"/>
      <line class="cls-3" x1="354.91" y1="3.28" x2="381.95"/>
      <line class="cls-3" x1="545.14" x2="550.25" y2="2.42"/>
      <line class="cls-3" x1="550.25" y1="2.42" x2="563.67" y2="23.3"/>
      <line class="cls-3" x1="827.5" y1="180.73" x2="827.5" y2="180.76"/>
      <line class="cls-3" x1="569.34" x2="580.88" y2="10.62"/>
      <line class="cls-3" x1="580.88" y1="10.62" x2="600.74" y2="83.68"/>
      <line class="cls-3" x1="600.74" y1="83.68" x2="614.65" y2="95.22"/>
      <line class="cls-3" x1="573.13" y1="112.38" x2="504.54" y2="140.71"/>
      <line class="cls-3" x1="-75.72" y1="57.88" x2="114.94" y2="33.42"/>
      <line class="cls-3" x1="114.94" y1="33.42" x2="126.76" y2="32.42"/>
      <line class="cls-3" x1="474.27" y1="129.32" x2="466.12" y2="103.94"/>
      <line class="cls-3" x1="466.12" y1="103.94" x2="489.55" y2="101.06"/>
      <line class="cls-3" x1="489.55" y1="101.06" x2="487.2" y2="81.92"/>
      <line class="cls-3" x1="487.2" y1="81.92" x2="479.79" y2="22.07"/>
      <line class="cls-3" x1="479.79" y1="22.07" x2="412.21" y2="30.39"/>
      <line class="cls-3" x1="412.21" y1="30.39" x2="419.57" y2="90.25"/>
      <line class="cls-3" x1="419.57" y1="90.25" x2="421.92" y2="109.38"/>
      <line class="cls-3" x1="421.92" y1="109.38" x2="401.48" y2="111.89"/>
      <line class="cls-3" x1="401.48" y1="111.89" x2="414.38" y2="153.99"/>
      <line class="cls-3" x1="-5.75" y1="280.75" x2="14.4" y2="277.26"/>
      <line class="cls-3" x1="14.4" y1="277.26" x2="203.09" y2="248.99"/>
      <line class="cls-3" x1="203.09" y1="248.99" x2="203.09" y2="248.99"/>
      <line class="cls-3" x1="-41.45" y1="735.58" x2="43.08" y2="731.3"/>
      <line class="cls-3" x1="43.08" y1="731.3" x2="156.72" y2="725.68"/>
      <line class="cls-3" x1="826.17" y1="440.72" x2="827.5" y2="180.73"/>
      <polyline class="cls-5" points="476.04 478.45 476.04 488.12 354.89 488.11 354.89 478.14 374.82 476.73 394.76 478.13 414.7 476.46 434.64 478.13 452.59 476.86 452.6 416.42 494.55 416.68 494.55 417.06 494.45 432.45 494.17 477 476.04 478.45"/>
      <line class="cls-3" x1="476.04" y1="478.45" x2="476.04" y2="488.12"/>
      <line class="cls-3" x1="476.04" y1="488.12" x2="354.89" y2="488.11"/>
      <line class="cls-3" x1="354.89" y1="488.11" x2="354.89" y2="478.14"/>
      <line class="cls-3" x1="354.89" y1="478.14" x2="374.82" y2="476.73"/>
      <line class="cls-3" x1="374.82" y1="476.73" x2="394.76" y2="478.13"/>
      <line class="cls-3" x1="394.76" y1="478.13" x2="414.7" y2="476.46"/>
      <line class="cls-3" x1="414.7" y1="476.46" x2="434.64" y2="478.13"/>
      <line class="cls-3" x1="434.64" y1="478.13" x2="452.59" y2="476.86"/>
      <line class="cls-3" x1="452.59" y1="476.86" x2="452.6" y2="416.42"/>
      <line class="cls-3" x1="452.6" y1="416.42" x2="494.55" y2="416.68"/>
      <line class="cls-3" x1="494.55" y1="416.68" x2="494.55" y2="417.06"/>
      <line class="cls-3" x1="494.55" y1="417.06" x2="494.45" y2="432.45"/>
      <line class="cls-3" x1="494.45" y1="432.45" x2="494.17" y2="477"/>
      <line class="cls-3" x1="494.17" y1="477" x2="476.04" y2="478.45"/>
      <polyline class="cls-5" points="502.05 432.45 494.45 432.45 494.55 417.06 502.14 417.1 502.05 432.45"/>
      <line class="cls-3" x1="502.05" y1="432.45" x2="494.45" y2="432.45"/>
      <line class="cls-3" x1="494.45" y1="432.45" x2="494.55" y2="417.06"/>
      <line class="cls-3" x1="494.55" y1="417.06" x2="502.14" y2="417.1"/>
      <line class="cls-3" x1="502.14" y1="417.1" x2="502.05" y2="432.45"/>
      <line class="cls-3" x1="622.63" y1="376.75" x2="622.68" y2="376.01"/>
      <line class="cls-3" x1="622.68" y1="376.01" x2="633.51" y2="200.35"/>
      <line class="cls-3" x1="633.51" y1="200.35" x2="633.68" y2="197.62"/>
      <line class="cls-3" x1="633.68" y1="197.62" x2="616.36" y2="171.53"/>
      <line class="cls-3" x1="616.36" y1="171.53" x2="565.7" y2="201.14"/>
      <line class="cls-3" x1="565.7" y1="201.14" x2="518.31" y2="213.47"/>
      <line class="cls-3" x1="518.31" y1="213.47" x2="417.27" y2="224.94"/>
      <line class="cls-3" x1="-42.78" y1="250.46" x2="12.55" y2="244.22"/>
      <polyline class="cls-6" points="434.64 488.11 434.64 424.98 454.58 424.98 454.58 488.11 434.64 488.11"/>
      <line class="cls-3" x1="434.64" y1="488.11" x2="434.64" y2="424.98"/>
      <line class="cls-3" x1="434.64" y1="424.98" x2="454.58" y2="424.98"/>
      <line class="cls-3" x1="454.58" y1="424.98" x2="454.58" y2="488.11"/>
      <line class="cls-3" x1="454.58" y1="488.11" x2="434.64" y2="488.11"/>
      <polyline class="cls-6" points="454.58 488.11 454.58 430.96 454.58 424.98 480.1 424.98 480.1 488.11 454.58 488.11"/>
      <line class="cls-3" x1="454.58" y1="488.11" x2="454.58" y2="430.96"/>
      <line class="cls-3" x1="454.58" y1="430.96" x2="454.58" y2="424.98"/>
      <line class="cls-3" x1="454.58" y1="424.98" x2="480.1" y2="424.98"/>
      <line class="cls-3" x1="480.1" y1="424.98" x2="480.1" y2="488.11"/>
      <line class="cls-3" x1="480.1" y1="488.11" x2="454.58" y2="488.11"/>
      <polyline class="cls-6" points="414.7 488.11 414.7 424.98 434.64 424.98 434.64 488.11 414.7 488.11"/>
      <line class="cls-3" x1="414.7" y1="488.11" x2="414.7" y2="424.98"/>
      <line class="cls-3" x1="414.7" y1="424.98" x2="434.64" y2="424.98"/>
      <line class="cls-3" x1="434.64" y1="424.98" x2="434.64" y2="488.11"/>
      <line class="cls-3" x1="434.64" y1="488.11" x2="414.7" y2="488.11"/>
      <polyline class="cls-6" points="394.76 488.11 394.76 424.98 414.7 424.98 414.7 488.11 394.76 488.11"/>
      <line class="cls-3" x1="394.76" y1="488.11" x2="394.76" y2="424.98"/>
      <line class="cls-3" x1="394.76" y1="424.98" x2="414.7" y2="424.98"/>
      <line class="cls-3" x1="414.7" y1="424.98" x2="414.7" y2="488.11"/>
      <line class="cls-3" x1="414.7" y1="488.11" x2="394.76" y2="488.11"/>
      <polyline class="cls-6" points="374.82 488.11 374.82 424.98 394.76 424.98 394.76 488.11 374.82 488.11"/>
      <line class="cls-3" x1="374.82" y1="488.11" x2="374.82" y2="424.98"/>
      <line class="cls-3" x1="374.82" y1="424.98" x2="394.76" y2="424.98"/>
      <line class="cls-3" x1="394.76" y1="424.98" x2="394.76" y2="488.11"/>
      <line class="cls-3" x1="394.76" y1="488.11" x2="374.82" y2="488.11"/>
      <polyline class="cls-6" points="349.37 424.98 374.82 424.98 374.82 488.11 349.37 488.11 349.37 424.98"/>
      <line class="cls-3" x1="349.37" y1="424.98" x2="374.82" y2="424.98"/>
      <line class="cls-3" x1="374.82" y1="424.98" x2="374.82" y2="488.11"/>
      <line class="cls-3" x1="374.82" y1="488.11" x2="349.37" y2="488.11"/>
      <line class="cls-3" x1="349.37" y1="488.11" x2="349.37" y2="424.98"/>
      <line class="cls-3" x1="161.71" y1="705.46" x2="165.67" y2="689.47"/>
      <line class="cls-3" x1="165.67" y1="689.47" x2="176.4" y2="645.32"/>
      <line class="cls-3" x1="176.4" y1="645.32" x2="186.27" y2="577.43"/>
      <line class="cls-3" x1="186.27" y1="577.43" x2="194.18" y2="484.64"/>
      <line class="cls-3" x1="194.18" y1="484.64" x2="197.53" y2="413.12"/>
      <line class="cls-3" x1="197.53" y1="413.12" x2="199.11" y2="379.44"/>
      <line class="cls-3" x1="199.11" y1="379.44" x2="208.15" y2="276.82"/>
      <line class="cls-3" x1="208.15" y1="276.82" x2="203.09" y2="248.99"/>
      <line class="cls-3" x1="192.18" y1="657.51" x2="180.99" y2="704.51"/>
      <polyline class="cls-5" points="793.75 551.46 794.63 524.88 836.17 526.26 835.28 552.84 854.07 553.46 852.41 599.37 827.18 599.48 792.16 598.22 793.75 551.46"/>
      <line class="cls-3" x1="793.75" y1="551.46" x2="792.16" y2="598.22"/>
      <line class="cls-3" x1="792.16" y1="598.22" x2="827.18" y2="599.48"/>
      <line class="cls-3" x1="827.18" y1="599.48" x2="852.41" y2="599.37"/>
      <line class="cls-3" x1="852.41" y1="599.37" x2="854.07" y2="553.46"/>
      <line class="cls-3" x1="854.07" y1="553.46" x2="835.28" y2="552.84"/>
      <line class="cls-3" x1="835.28" y1="552.84" x2="836.17" y2="526.26"/>
      <line class="cls-3" x1="836.17" y1="526.26" x2="794.63" y2="524.88"/>
      <line class="cls-3" x1="794.63" y1="524.88" x2="793.75" y2="551.46"/>
      <polyline class="cls-5" points="68.9 69.53 69.43 73.69 96.7 70.21 100.75 101.89 91.09 103.06 92.67 117.67 33.05 125.29 27.43 79.05 65.2 74.23 64.67 70.07 68.9 69.53"/>
      <line class="cls-3" x1="68.9" y1="69.53" x2="64.67" y2="70.07"/>
      <line class="cls-3" x1="64.67" y1="70.07" x2="65.2" y2="74.23"/>
      <line class="cls-3" x1="65.2" y1="74.23" x2="27.43" y2="79.05"/>
      <line class="cls-3" x1="27.43" y1="79.05" x2="33.05" y2="125.29"/>
      <line class="cls-3" x1="33.05" y1="125.29" x2="92.67" y2="117.67"/>
      <line class="cls-3" x1="92.67" y1="117.67" x2="91.09" y2="103.06"/>
      <line class="cls-3" x1="91.09" y1="103.06" x2="100.75" y2="101.89"/>
      <line class="cls-3" x1="100.75" y1="101.89" x2="96.7" y2="70.21"/>
      <line class="cls-3" x1="96.7" y1="70.21" x2="69.43" y2="73.69"/>
      <line class="cls-3" x1="69.43" y1="73.69" x2="68.9" y2="69.53"/>
      <polyline class="cls-5" points="664.42 796.55 718.01 796 718.52 833.8 664.93 833.8 664.42 796.55"/>
      <line class="cls-3" x1="718.52" y1="833.8" x2="718.01" y2="796"/>
      <line class="cls-3" x1="718.01" y1="796" x2="664.42" y2="796.55"/>
      <line class="cls-3" x1="664.42" y1="796.55" x2="664.93" y2="833.8"/>
      <polyline class="cls-5" points="489.55 101.06 421.92 109.38 412.21 30.39 479.79 22.07 487.2 81.92 489.55 101.06"/>
      <line class="cls-3" x1="489.55" y1="101.06" x2="487.2" y2="81.92"/>
      <line class="cls-3" x1="487.2" y1="81.92" x2="479.79" y2="22.07"/>
      <line class="cls-3" x1="479.79" y1="22.07" x2="412.21" y2="30.39"/>
      <line class="cls-3" x1="412.21" y1="30.39" x2="421.92" y2="109.38"/>
      <line class="cls-3" x1="421.92" y1="109.38" x2="489.55" y2="101.06"/>
      <polyline class="cls-5" points="504.64 273.59 510.93 329.89 464.6 335.19 458.16 278.91 504.64 273.59"/>
      <line class="cls-3" x1="504.64" y1="273.59" x2="458.16" y2="278.91"/>
      <line class="cls-3" x1="458.16" y1="278.91" x2="464.6" y2="335.19"/>
      <line class="cls-3" x1="464.6" y1="335.19" x2="510.93" y2="329.89"/>
      <line class="cls-3" x1="510.93" y1="329.89" x2="504.64" y2="273.59"/>
      <polyline class="cls-5" points="43.39 759.77 44.03 772.85 57.36 772.2 57.97 785.74 44.83 786.55 45.55 805 -14.4 808.06 -16.48 762.67 43.39 759.77"/>
      <line class="cls-3" x1="43.39" y1="759.77" x2="-16.48" y2="762.67"/>
      <line class="cls-3" x1="-14.4" y1="808.06" x2="45.55" y2="805"/>
      <line class="cls-3" x1="45.55" y1="805" x2="44.83" y2="786.55"/>
      <line class="cls-3" x1="44.83" y1="786.55" x2="57.97" y2="785.74"/>
      <line class="cls-3" x1="57.97" y1="785.74" x2="57.36" y2="772.2"/>
      <line class="cls-3" x1="57.36" y1="772.2" x2="44.03" y2="772.85"/>
      <line class="cls-3" x1="44.03" y1="772.85" x2="43.39" y2="759.77"/>
      <polyline class="cls-5" points="702.35 616.08 698.88 619.27 663.09 617.69 659.88 614.19 660.62 594.41 703.4 596.31 702.35 616.08"/>
      <line class="cls-3" x1="702.35" y1="616.08" x2="703.4" y2="596.31"/>
      <line class="cls-3" x1="703.4" y1="596.31" x2="660.62" y2="594.41"/>
      <line class="cls-3" x1="660.62" y1="594.41" x2="659.88" y2="614.19"/>
      <line class="cls-3" x1="659.88" y1="614.19" x2="663.09" y2="617.69"/>
      <line class="cls-3" x1="663.09" y1="617.69" x2="698.88" y2="619.27"/>
      <line class="cls-3" x1="698.88" y1="619.27" x2="702.35" y2="616.08"/>
      <polyline class="cls-5" points="654.97 822.78 664.78 822.59 664.93 833.8 655.13 833.8 654.97 822.78"/>
      <polyline class="cls-5" points="718.02 797.05 747.42 796.75 747.65 820.01 747.75 827 728.15 827.29 728.25 833.8 718.52 833.8 718.02 797.05"/>
      <line class="cls-3" x1="728.25" y1="833.8" x2="728.15" y2="827.29"/>
      <line class="cls-3" x1="728.15" y1="827.29" x2="747.75" y2="827"/>
      <line class="cls-3" x1="747.75" y1="827" x2="747.65" y2="820.01"/>
      <line class="cls-3" x1="747.65" y1="820.01" x2="747.42" y2="796.75"/>
      <line class="cls-3" x1="747.42" y1="796.75" x2="718.02" y2="797.05"/>
      <line class="cls-3" x1="718.02" y1="797.05" x2="718.52" y2="833.8"/>
      <line class="cls-3" x1="664.93" y1="833.8" x2="664.78" y2="822.59"/>
      <line class="cls-3" x1="664.78" y1="822.59" x2="654.97" y2="822.78"/>
      <line class="cls-3" x1="654.97" y1="822.78" x2="655.13" y2="833.8"/>
      <polyline class="cls-5" points="827.18 599.48 852.41 599.37 867.08 599.9 866.09 627.44 826.22 626 827.18 599.48"/>
      <line class="cls-3" x1="827.18" y1="599.48" x2="826.22" y2="626"/>
      <line class="cls-3" x1="826.22" y1="626" x2="866.09" y2="627.44"/>
      <line class="cls-3" x1="866.09" y1="627.44" x2="867.08" y2="599.9"/>
      <line class="cls-3" x1="867.08" y1="599.9" x2="852.41" y2="599.37"/>
      <line class="cls-3" x1="852.41" y1="599.37" x2="827.18" y2="599.48"/>
      <line class="cls-3" x1="691.62" y1="833.8" x2="691.01" y2="796.28"/>
      <line class="cls-3" x1="487.77" y1="332.54" x2="481.4" y2="276.25"/>
      <line class="cls-3" x1="446" y1="26.23" x2="455.72" y2="105.22"/>
      <line class="cls-3" x1="819.68" y1="599.21" x2="822.12" y2="525.8"/>
      <line class="cls-3" x1="66.72" y1="120.99" x2="60.82" y2="74.79"/>
      <line class="cls-4" x1="374.82" y1="424.98" x2="374.82" y2="488.11"/>
      <line class="cls-4" x1="434.64" y1="424.98" x2="434.64" y2="488.11"/>
      <line class="cls-4" x1="454.58" y1="424.98" x2="454.58" y2="488.11"/>
      <line class="cls-4" x1="394.76" y1="488.11" x2="394.76" y2="424.98"/>
      <line class="cls-4" x1="414.7" y1="424.98" x2="414.7" y2="488.11"/>
      <line class="cls-4" x1="588.8" y1="466.09" x2="518.05" y2="471.12"/>
      <line class="cls-4" x1="552.51" y1="457.02" x2="554.15" y2="480.21"/>
    </g>
  </g>
</svg>