<?xml version="1.0" encoding="UTF-8"?>
<svg id="Layer_1" xmlns="http://www.w3.org/2000/svg" xmlns:xlink="http://www.w3.org/1999/xlink" version="1.1" viewBox="0 0 1190.6 841.9">
  <!-- Generator: Adobe Illustrator 30.1.0, SVG Export Plug-In . SVG Version: 2.1.1 Build 136)  -->
  <defs>
    <style>
      .st0, .st1, .st2, .st3 {
        fill: none;
      }

      .st1 {
        stroke: #029e21;
      }

      .st1, .st2, .st3 {
        stroke-linecap: round;
        stroke-linejoin: round;
        stroke-width: .2px;
      }

      .st4 {
        fill: #fff;
      }

      .st4, .st5, .st6 {
        fill-rule: evenodd;
      }

      .st2 {
        stroke: #000;
      }

      .st6 {
        fill: #b3b3b3;
      }

      .st3 {
        stroke: silver;
      }

      .st7 {
        clip-path: url(#clippath);
      }
    </style>
    <clipPath id="clippath">
      <rect class="st0" y="0" width="1190.6" height="833.8"/>
    </clipPath>
  </defs>
  <g class="st7">
    <g>
      <polyline class="st4" points="509.8 476.9 508.2 454.5 472.5 457 437.2 459.5 437.4 461.8 438.7 480.2 470.2 480.2 400.1 486.1 400.1 478.1 410.5 477.3 410.5 432.5 504.6 432.2 504.8 406.3 540.1 406.5 538 431.1 534.8 474 509.8 476.9"/>
      <line class="st2" x1="509.8" y1="476.9" x2="508.2" y2="454.5"/>
      <line class="st2" x1="508.2" y1="454.5" x2="472.5" y2="457"/>
      <line class="st2" x1="472.5" y1="457" x2="472.5" y2="457"/>
      <line class="st2" x1="472.5" y1="457" x2="437.2" y2="459.5"/>
      <line class="st2" x1="437.2" y1="459.5" x2="437.4" y2="461.8"/>
      <line class="st2" x1="437.4" y1="461.8" x2="438.7" y2="480.2"/>
      <line class="st2" x1="438.7" y1="480.2" x2="470.2" y2="480.2"/>
      <line class="st2" x1="470.2" y1="480.2" x2="400.1" y2="486.1"/>
      <line class="st2" x1="400.1" y1="486.1" x2="400.1" y2="478.1"/>
      <line class="st2" x1="400.1" y1="478.1" x2="410.5" y2="477.3"/>
      <line class="st2" x1="410.5" y1="477.3" x2="410.5" y2="432.5"/>
      <line class="st2" x1="410.5" y1="432.5" x2="504.6" y2="432.2"/>
      <line class="st2" x1="504.6" y1="432.2" x2="504.8" y2="406.3"/>
      <line class="st2" x1="504.8" y1="406.3" x2="540.1" y2="406.5"/>
      <line class="st2" x1="540.1" y1="406.5" x2="538" y2="431.1"/>
      <line class="st2" x1="538" y1="431.1" x2="534.8" y2="474"/>
      <line class="st2" x1="534.8" y1="474" x2="509.8" y2="476.9"/>
      <line class="st2" x1="217.8" y1="531.3" x2="530.7" y2="531.3"/>
      <line class="st2" x1="562.3" y1="88.3" x2="551" y2="0"/>
      <line class="st2" x1="652.8" y1="0" x2="661.4" y2="57.1"/>
      <line class="st2" x1="661.4" y1="57.1" x2="562.3" y2="88.3"/>
      <line class="st2" x1="661.4" y1="57.1" x2="819.4" y2="9.6"/>
      <line class="st2" x1="819.4" y1="9.6" x2="845.6" y2="0"/>
      <line class="st2" x1="932.5" y1="0" x2="913.1" y2="7"/>
      <line class="st2" x1="913.1" y1="7" x2="829.2" y2="37.4"/>
      <line class="st2" x1="829.2" y1="37.4" x2="659.5" y2="89.7"/>
      <line class="st2" x1="659.5" y1="89.7" x2="566.2" y2="118.7"/>
      <polyline class="st4" points="95.6 419.1 96.4 432.6 76.2 433.4 75.4 420 95.6 419.1"/>
      <line class="st2" x1="95.6" y1="419.1" x2="75.4" y2="420"/>
      <line class="st2" x1="75.4" y1="420" x2="76.2" y2="433.4"/>
      <line class="st2" x1="76.2" y1="433.4" x2="96.4" y2="432.6"/>
      <line class="st2" x1="96.4" y1="432.6" x2="95.6" y2="419.1"/>
      <polyline class="st4" points="623.4 596.3 580.6 594.4 577.9 594.3 578.7 572.7 580 527.9 628.4 529.8 625.9 596.2 623.4 596.3"/>
      <line class="st2" x1="623.4" y1="596.3" x2="625.9" y2="596.2"/>
      <line class="st2" x1="625.9" y1="596.2" x2="628.4" y2="529.8"/>
      <line class="st2" x1="628.4" y1="529.8" x2="580" y2="527.9"/>
      <line class="st2" x1="580" y1="527.9" x2="578.7" y2="572.7"/>
      <line class="st2" x1="578.7" y1="572.7" x2="577.9" y2="594.3"/>
      <line class="st2" x1="577.9" y1="594.3" x2="580.6" y2="594.4"/>
      <line class="st2" x1="580.6" y1="594.4" x2="580.6" y2="594.4"/>
      <line class="st2" x1="580.6" y1="594.4" x2="623.4" y2="596.3"/>
      <polyline class="st4" points="48.9 300.4 56.6 352 -11.8 362 -19.5 310.5 48.9 300.4"/>
      <line class="st2" x1="48.9" y1="300.4" x2="-19.5" y2="310.5"/>
      <line class="st2" x1="-19.5" y1="310.5" x2="-11.8" y2="362"/>
      <line class="st2" x1="-11.8" y1="362" x2="56.6" y2="352"/>
      <line class="st2" x1="56.6" y1="352" x2="48.9" y2="300.4"/>
      <polyline class="st4" points="164.5 306.6 165.1 243.6 227.9 241.4 227.5 306.1 164.5 306.6"/>
      <line class="st2" x1="164.5" y1="306.6" x2="227.5" y2="306.1"/>
      <line class="st2" x1="227.5" y1="306.1" x2="227.9" y2="241.4"/>
      <line class="st2" x1="227.9" y1="241.4" x2="165.1" y2="243.6"/>
      <line class="st2" x1="165.1" y1="243.6" x2="164.5" y2="306.6"/>
      <polyline class="st4" points="649.7 295.3 621.9 296.9 619.4 257.5 647.3 255.8 709.2 252 711.6 291.8 649.7 295.3"/>
      <line class="st2" x1="649.7" y1="295.3" x2="711.6" y2="291.8"/>
      <line class="st2" x1="711.6" y1="291.8" x2="709.2" y2="252"/>
      <line class="st2" x1="709.2" y1="252" x2="647.3" y2="255.8"/>
      <line class="st2" x1="647.3" y1="255.8" x2="619.4" y2="257.5"/>
      <line class="st2" x1="619.4" y1="257.5" x2="621.9" y2="296.9"/>
      <line class="st2" x1="621.9" y1="296.9" x2="649.7" y2="295.3"/>
      <polyline class="st4" points="314.5 287.4 284.8 289 283.8 270.1 251.5 271.2 250.2 234.8 284.4 233.5 284.5 235.3 301.9 234.6 303.2 255.7 313.1 255.1 314.5 287.4"/>
      <line class="st2" x1="314.5" y1="287.4" x2="313.1" y2="255.1"/>
      <line class="st2" x1="313.1" y1="255.1" x2="303.2" y2="255.7"/>
      <line class="st2" x1="303.2" y1="255.7" x2="301.9" y2="234.6"/>
      <line class="st2" x1="301.9" y1="234.6" x2="284.5" y2="235.3"/>
      <line class="st2" x1="284.5" y1="235.3" x2="284.4" y2="233.5"/>
      <line class="st2" x1="284.4" y1="233.5" x2="250.2" y2="234.8"/>
      <line class="st2" x1="250.2" y1="234.8" x2="251.5" y2="271.2"/>
      <line class="st2" x1="251.5" y1="271.2" x2="283.8" y2="270.1"/>
      <line class="st2" x1="283.8" y1="270.1" x2="284.8" y2="289"/>
      <line class="st2" x1="284.8" y1="289" x2="314.5" y2="287.4"/>
      <polyline class="st4" points="292.7 144.8 297.6 183.4 236.4 188.4 232.5 148.5 292.7 144.8"/>
      <line class="st2" x1="292.7" y1="144.8" x2="232.5" y2="148.5"/>
      <line class="st2" x1="232.5" y1="148.5" x2="236.4" y2="188.4"/>
      <line class="st2" x1="236.4" y1="188.4" x2="297.6" y2="183.4"/>
      <line class="st2" x1="297.6" y1="183.4" x2="292.7" y2="144.8"/>
      <polyline class="st4" points="725.3 456.1 722.7 472.6 706.4 470.1 708.9 453.8 725.3 456.1"/>
      <line class="st2" x1="725.3" y1="456.1" x2="708.9" y2="453.8"/>
      <line class="st2" x1="708.9" y1="453.8" x2="706.4" y2="470.1"/>
      <line class="st2" x1="706.4" y1="470.1" x2="722.7" y2="472.6"/>
      <line class="st2" x1="722.7" y1="472.6" x2="725.3" y2="456.1"/>
      <polyline class="st6" points="577.9 594.3 577.9 594.3 580.6 594.4 577.9 594.3"/>
      <polyline class="st4" points="90.1 760.2 65.5 761.5 59.6 765.8 49.1 766.6 46.1 736.2 63.4 734.1 76.7 725.7 81.7 705.5 85.7 689.5 96.4 645.3 106.3 577.4 114.2 484.6 117.5 413.1 119.1 379.4 128.1 276.8 123.1 249 148 245.3 140.1 344.4 130.1 462.3 110.2 657.3 101 704.5 100.2 708.7 97.1 724.7 96.1 729.7 90.1 760.2"/>
      <polyline class="st4" points="755.7 541.7 774.4 542.3 774.1 552.2 772.2 553.4 755.3 552.8 755.7 541.7"/>
      <line class="st2" x1="755.7" y1="541.7" x2="755.3" y2="552.8"/>
      <line class="st2" x1="755.3" y1="552.8" x2="772.2" y2="553.4"/>
      <line class="st2" x1="772.2" y1="553.4" x2="774.1" y2="552.2"/>
      <line class="st2" x1="774.1" y1="552.2" x2="774.4" y2="542.3"/>
      <line class="st2" x1="774.4" y1="542.3" x2="755.7" y2="541.7"/>
      <polyline class="st4" points="-36.6 759.8 -23.3 759.1 -22.6 772.2 -36 772.8 -36.6 759.8"/>
      <line class="st2" x1="-36.6" y1="759.8" x2="-36" y2="772.8"/>
      <line class="st2" x1="-36" y1="772.8" x2="-22.6" y2="772.2"/>
      <line class="st2" x1="-22.6" y1="772.2" x2="-23.3" y2="759.1"/>
      <line class="st2" x1="-23.3" y1="759.1" x2="-36.6" y2="759.8"/>
      <polyline class="st4" points="842.3 134.5 822 75.4 892.2 51.4 912.5 110.9 842.3 134.5"/>
      <line class="st2" x1="842.3" y1="134.5" x2="912.5" y2="110.9"/>
      <line class="st2" x1="912.5" y1="110.9" x2="892.2" y2="51.4"/>
      <line class="st2" x1="892.2" y1="51.4" x2="822" y2="75.4"/>
      <line class="st2" x1="822" y1="75.4" x2="842.3" y2="134.5"/>
      <polyline class="st5" points="474.3 480.2 438.7 480.2 437.2 459.5 472.7 457 474.3 480.2"/>
      <line class="st2" x1="474.3" y1="480.2" x2="472.7" y2="457"/>
      <line class="st2" x1="472.7" y1="457" x2="437.2" y2="459.5"/>
      <line class="st2" x1="437.2" y1="459.5" x2="438.7" y2="480.2"/>
      <line class="st2" x1="438.7" y1="480.2" x2="474.3" y2="480.2"/>
      <polyline class="st5" points="509.8 477.7 474.3 480.2 472.7 457 508.2 454.5 509.8 477.7"/>
      <line class="st2" x1="509.8" y1="477.7" x2="508.2" y2="454.5"/>
      <line class="st2" x1="508.2" y1="454.5" x2="472.7" y2="457"/>
      <line class="st2" x1="472.7" y1="457" x2="474.3" y2="480.2"/>
      <line class="st2" x1="474.3" y1="480.2" x2="509.8" y2="477.7"/>
      <polyline class="st5" points="440.8 477.9 439.7 461.7 472.7 459.3 474 477.9 440.8 477.9"/>
      <line class="st3" x1="440.8" y1="477.9" x2="439.7" y2="461.7"/>
      <line class="st3" x1="439.7" y1="461.7" x2="472.7" y2="459.3"/>
      <line class="st3" x1="472.7" y1="459.3" x2="474" y2="477.9"/>
      <line class="st3" x1="474" y1="477.9" x2="440.8" y2="477.9"/>
      <polyline class="st4" points="428.8 411.8 422.2 411.8 414.2 411.7 406.2 411.7 400.8 411.6 400.8 405.7 504.8 406.3 504.8 412.3 428.8 411.8"/>
      <line class="st2" x1="428.8" y1="411.8" x2="504.8" y2="412.3"/>
      <line class="st2" x1="504.8" y1="412.3" x2="504.8" y2="406.3"/>
      <line class="st2" x1="504.8" y1="406.3" x2="400.8" y2="405.7"/>
      <line class="st2" x1="400.8" y1="405.7" x2="400.8" y2="411.6"/>
      <line class="st2" x1="400.8" y1="411.6" x2="406.2" y2="411.7"/>
      <line class="st2" x1="406.2" y1="411.7" x2="414.2" y2="411.7"/>
      <line class="st2" x1="414.2" y1="411.7" x2="422.2" y2="411.8"/>
      <line class="st2" x1="422.2" y1="411.8" x2="428.8" y2="411.8"/>
      <polyline class="st4" points="428.8 432.4 422 432.5 422.2 411.8 428.8 411.8 428.8 432.4"/>
      <line class="st2" x1="428.8" y1="432.4" x2="428.8" y2="411.8"/>
      <line class="st2" x1="428.8" y1="411.8" x2="422.2" y2="411.8"/>
      <line class="st2" x1="422.2" y1="411.8" x2="422" y2="432.5"/>
      <line class="st2" x1="422" y1="432.5" x2="428.8" y2="432.4"/>
      <polyline class="st4" points="414.2 416.7 413.6 416.7 406.7 416.6 406.1 416.6 406.2 411.7 414.2 411.7 414.2 416.7"/>
      <line class="st2" x1="414.2" y1="416.7" x2="414.2" y2="411.7"/>
      <line class="st2" x1="414.2" y1="411.7" x2="406.2" y2="411.7"/>
      <line class="st2" x1="406.2" y1="411.7" x2="406.1" y2="416.6"/>
      <line class="st2" x1="406.1" y1="416.6" x2="406.7" y2="416.6"/>
      <line class="st2" x1="406.7" y1="416.6" x2="413.6" y2="416.7"/>
      <line class="st2" x1="413.6" y1="416.7" x2="414.2" y2="416.7"/>
      <polyline class="st4" points="368.8 281.4 364.5 243.9 430.1 236.3 434.4 273.8 368.8 281.4"/>
      <line class="st2" x1="368.8" y1="281.4" x2="364.5" y2="243.9"/>
      <line class="st2" x1="364.5" y1="243.9" x2="430.1" y2="236.3"/>
      <line class="st2" x1="430.1" y1="236.3" x2="434.4" y2="273.8"/>
      <line class="st2" x1="434.4" y1="273.8" x2="368.8" y2="281.4"/>
      <polyline class="st5" points="472.7 459.3 506 457 507.3 475.5 474 477.9 472.7 459.3"/>
      <line class="st3" x1="472.7" y1="459.3" x2="506" y2="457"/>
      <line class="st3" x1="506" y1="457" x2="507.3" y2="475.5"/>
      <line class="st3" x1="507.3" y1="475.5" x2="474" y2="477.9"/>
      <line class="st3" x1="474" y1="477.9" x2="472.7" y2="459.3"/>
      <line class="st1" x1="434.5" y1="378" x2="434.5" y2="377.7"/>
      <line class="st2" x1="604.2" y1="528.8" x2="602" y2="595.4"/>
      <line class="st2" x1="620.6" y1="275.6" x2="710.3" y2="270.1"/>
      <line class="st2" x1="250.9" y1="253" x2="302.9" y2="251"/>
      <line class="st2" x1="196.5" y1="242.5" x2="195.7" y2="306.8"/>
      <line class="st2" x1="262.6" y1="146.6" x2="265.8" y2="186"/>
      <line class="st2" x1="717.1" y1="455" x2="714.5" y2="471.4"/>
      <line class="st2" x1="857.1" y1="63.4" x2="877.4" y2="122.7"/>
      <line class="st2" x1="14.7" y1="305.4" x2="22.2" y2="357"/>
      <line class="st2" x1="85.5" y1="419.5" x2="86" y2="433"/>
      <line class="st2" x1="274.9" y1="3.3" x2="169.3" y2="16.8"/>
      <line class="st2" x1="169.3" y1="16.8" x2="167.2" y2="0"/>
      <line class="st2" x1="314.7" y1="186.1" x2="316.2" y2="184.6"/>
      <line class="st2" x1="316.2" y1="184.6" x2="317.6" y2="183"/>
      <line class="st2" x1="317.6" y1="183" x2="319" y2="181.4"/>
      <line class="st2" x1="319" y1="181.4" x2="320.3" y2="179.8"/>
      <line class="st2" x1="320.3" y1="179.8" x2="321.6" y2="178.1"/>
      <line class="st2" x1="321.6" y1="178.1" x2="322.9" y2="176.4"/>
      <line class="st2" x1="322.9" y1="176.4" x2="325.3" y2="172.9"/>
      <line class="st2" x1="325.3" y1="172.9" x2="327.5" y2="169.3"/>
      <line class="st2" x1="327.5" y1="169.3" x2="329.5" y2="165.6"/>
      <line class="st2" x1="329.5" y1="165.6" x2="331.3" y2="161.8"/>
      <line class="st2" x1="331.3" y1="161.8" x2="333" y2="157.9"/>
      <line class="st2" x1="333" y1="157.9" x2="334.4" y2="154"/>
      <line class="st2" x1="101" y1="704.5" x2="97.1" y2="724.7"/>
      <line class="st2" x1="97.1" y1="724.7" x2="90.1" y2="760.2"/>
      <line class="st2" x1="90.1" y1="760.2" x2="65.5" y2="761.5"/>
      <line class="st2" x1="65.5" y1="761.5" x2="59.6" y2="765.8"/>
      <line class="st2" x1="59.6" y1="765.8" x2="49.1" y2="766.6"/>
      <line class="st2" x1="49.1" y1="766.6" x2="46.1" y2="736.2"/>
      <line class="st2" x1="46.1" y1="736.2" x2="63.4" y2="734.1"/>
      <line class="st2" x1="63.4" y1="734.1" x2="76.7" y2="725.7"/>
      <line class="st2" x1="76.7" y1="725.7" x2="81.7" y2="705.5"/>
      <line class="st2" x1="539.7" y1="768.3" x2="537.8" y2="764.3"/>
      <line class="st2" x1="537.8" y1="764.3" x2="537.1" y2="716"/>
      <line class="st2" x1="537.1" y1="716" x2="572.9" y2="731.5"/>
      <line class="st2" x1="572.9" y1="731.5" x2="613.5" y2="736"/>
      <line class="st2" x1="613.5" y1="736" x2="611" y2="796.3"/>
      <line class="st2" x1="611" y1="796.3" x2="584.4" y2="796.5"/>
      <line class="st2" x1="584.4" y1="796.5" x2="584.8" y2="822.6"/>
      <line class="st2" x1="584.8" y1="822.6" x2="575" y2="822.8"/>
      <line class="st2" x1="575" y1="822.8" x2="558.3" y2="823.1"/>
      <line class="st2" x1="-67.4" y1="244.2" x2="-84" y2="238.3"/>
      <line class="st2" x1="-96.4" y1="211" x2="-71.1" y2="213.4"/>
      <line class="st2" x1="-71.1" y1="213.4" x2="-67.9" y2="219.2"/>
      <line class="st2" x1="-67.9" y1="219.2" x2="-19.1" y2="217.6"/>
      <line class="st2" x1="-19.1" y1="217.6" x2="40.5" y2="208.3"/>
      <line class="st2" x1="40.5" y1="208.3" x2="42" y2="221"/>
      <line class="st2" x1="65.5" y1="761.5" x2="46.8" y2="833.8"/>
      <line class="st2" x1="314.7" y1="186.1" x2="298.1" y2="188.2"/>
      <line class="st2" x1="298.1" y1="188.2" x2="297.6" y2="183.4"/>
      <line class="st2" x1="538.7" y1="833.8" x2="537.8" y2="764.3"/>
      <line class="st2" x1="537.8" y1="764.3" x2="539.7" y2="768.3"/>
      <line class="st2" x1="539.7" y1="768.3" x2="558.3" y2="823.1"/>
      <line class="st2" x1="558.3" y1="823.1" x2="575" y2="822.8"/>
      <line class="st2" x1="575" y1="822.8" x2="584.8" y2="822.6"/>
      <line class="st2" x1="584.8" y1="822.6" x2="584.9" y2="833.8"/>
      <line class="st2" x1="638.5" y1="833.8" x2="638" y2="796"/>
      <line class="st2" x1="638" y1="796" x2="611" y2="796.3"/>
      <line class="st2" x1="493.1" y1="112.4" x2="494.4" y2="111.7"/>
      <line class="st2" x1="494.4" y1="111.7" x2="495.7" y2="111"/>
      <line class="st2" x1="495.7" y1="111" x2="496.9" y2="110.1"/>
      <line class="st2" x1="496.9" y1="110.1" x2="498" y2="109.1"/>
      <line class="st2" x1="498" y1="109.1" x2="499" y2="108.1"/>
      <line class="st2" x1="499" y1="108.1" x2="499.9" y2="106.9"/>
      <line class="st2" x1="499.9" y1="106.9" x2="500.7" y2="105.7"/>
      <line class="st2" x1="500.7" y1="105.7" x2="501.4" y2="104.4"/>
      <line class="st2" x1="501.4" y1="104.4" x2="502" y2="103.1"/>
      <line class="st2" x1="502" y1="103.1" x2="502.5" y2="101.8"/>
      <line class="st2" x1="502.5" y1="101.8" x2="502.9" y2="100.4"/>
      <line class="st2" x1="502.9" y1="100.4" x2="503.1" y2="98.9"/>
      <line class="st2" x1="503.1" y1="98.9" x2="503.3" y2="97.5"/>
      <line class="st2" x1="503.3" y1="97.5" x2="503.3" y2="96.1"/>
      <line class="st2" x1="503.3" y1="96.1" x2="503.2" y2="94.6"/>
      <line class="st2" x1="503.2" y1="94.6" x2="502.9" y2="93.2"/>
      <line class="st2" x1="502.9" y1="93.2" x2="483.7" y2="23.3"/>
      <line class="st2" x1="638" y1="797" x2="664.5" y2="796.8"/>
      <line class="st2" x1="664.5" y1="796.8" x2="664.7" y2="820"/>
      <line class="st2" x1="664.7" y1="820" x2="638.3" y2="820.3"/>
      <line class="st2" x1="638.3" y1="820.3" x2="638" y2="797"/>
      <line class="st2" x1="298.1" y1="188.2" x2="70.2" y2="217.3"/>
      <line class="st2" x1="70.2" y1="217.3" x2="46.8" y2="32.4"/>
      <line class="st2" x1="828.2" y1="481.1" x2="849" y2="487.7"/>
      <line class="st2" x1="849" y1="487.7" x2="843.8" y2="704.8"/>
      <line class="st2" x1="843.8" y1="704.8" x2="813" y2="732.5"/>
      <line class="st2" x1="813" y1="732.5" x2="711" y2="727.1"/>
      <line class="st2" x1="711" y1="727.1" x2="663.4" y2="724.5"/>
      <line class="st2" x1="663.4" y1="724.5" x2="672" y2="593.1"/>
      <line class="st2" x1="672" y1="593.1" x2="701.3" y2="439.4"/>
      <line class="st2" x1="701.3" y1="439.4" x2="746.2" y2="440.7"/>
      <line class="st2" x1="746.2" y1="440.7" x2="828.2" y2="481.1"/>
      <line class="st2" x1="843.8" y1="704.8" x2="868.9" y2="699.2"/>
      <line class="st2" x1="868.9" y1="699.2" x2="878.9" y2="699.2"/>
      <line class="st2" x1="878.9" y1="699.2" x2="878.7" y2="812"/>
      <line class="st2" x1="878.7" y1="812" x2="879.8" y2="833.8"/>
      <line class="st2" x1="537.1" y1="716" x2="555.7" y2="445.3"/>
      <line class="st2" x1="555.7" y1="445.3" x2="701.3" y2="439.4"/>
      <line class="st2" x1="538.7" y1="833.8" x2="537.1" y2="716"/>
      <line class="st2" x1="534.7" y1="95.2" x2="562.3" y2="88.3"/>
      <line class="st2" x1="302" y1="833.8" x2="295.8" y2="726"/>
      <line class="st2" x1="295.8" y1="726" x2="452.3" y2="644.7"/>
      <line class="st2" x1="452.3" y1="644.7" x2="445.3" y2="833.8"/>
      <line class="st2" x1="106.6" y1="833.8" x2="107.9" y2="763.7"/>
      <line class="st2" x1="107.9" y1="763.7" x2="215.7" y2="754.3"/>
      <line class="st2" x1="215.7" y1="754.3" x2="214" y2="688.7"/>
      <line class="st2" x1="214" y1="688.7" x2="208.7" y2="618.6"/>
      <line class="st2" x1="208.7" y1="618.6" x2="217.9" y2="531.3"/>
      <line class="st2" x1="947.3" y1="118" x2="873.7" y2="167.7"/>
      <line class="st2" x1="873.7" y1="167.7" x2="674.5" y2="188.3"/>
      <line class="st2" x1="674.5" y1="188.3" x2="659.5" y2="89.7"/>
      <line class="st2" x1="575.5" y1="198.2" x2="566.2" y2="118.7"/>
      <line class="st2" x1="873.7" y1="167.7" x2="878.9" y2="496.5"/>
      <line class="st2" x1="878.9" y1="496.5" x2="869" y2="495"/>
      <line class="st2" x1="869" y1="495" x2="849" y2="487.7"/>
      <line class="st2" x1="746.2" y1="440.7" x2="701.3" y2="439.4"/>
      <line class="st2" x1="878.9" y1="699.2" x2="947.3" y2="700.2"/>
      <line class="st2" x1="947.3" y1="801.3" x2="878.7" y2="812"/>
      <line class="st2" x1="878.9" y1="496.5" x2="947.3" y2="508.5"/>
      <line class="st2" x1="878.7" y1="812" x2="947.3" y2="801.3"/>
      <line class="st2" x1="236.1" y1="236.4" x2="337.3" y2="224.9"/>
      <line class="st2" x1="337.3" y1="224.9" x2="344" y2="376.5"/>
      <line class="st2" x1="148" y1="245.3" x2="236.1" y2="236.4"/>
      <line class="st2" x1="236.1" y1="236.4" x2="233.3" y2="343.6"/>
      <line class="st2" x1="233.3" y1="343.6" x2="140.1" y2="344.4"/>
      <line class="st2" x1="140.1" y1="344.4" x2="148" y2="245.3"/>
      <line class="st2" x1="233.3" y1="343.6" x2="231.6" y2="399.6"/>
      <line class="st2" x1="231.6" y1="399.6" x2="217.9" y2="531.3"/>
      <line class="st2" x1="108.5" y1="704.1" x2="108.5" y2="697.3"/>
      <line class="st2" x1="101" y1="704.5" x2="108.5" y2="704.1"/>
      <line class="st2" x1="108.5" y1="704.1" x2="108.3" y2="724.1"/>
      <line class="st2" x1="108.3" y1="724.1" x2="107.9" y2="763.7"/>
      <line class="st2" x1="107.9" y1="763.7" x2="106.6" y2="833.8"/>
      <line class="st2" x1="-121.5" y1="735.6" x2="-36.9" y2="731.3"/>
      <line class="st2" x1="-36.9" y1="731.3" x2="-35.3" y2="711.3"/>
      <line class="st2" x1="-35.3" y1="711.3" x2="81.7" y2="705.5"/>
      <line class="st2" x1="169.3" y1="16.8" x2="46.8" y2="32.4"/>
      <line class="st2" x1="407.2" y1="81.9" x2="339.6" y2="90.2"/>
      <line class="st2" x1="755.3" y1="552.8" x2="713.8" y2="551.5"/>
      <line class="st2" x1="303.2" y1="255.7" x2="303.6" y2="268.6"/>
      <line class="st2" x1="303.6" y1="268.6" x2="283.8" y2="270.1"/>
      <line class="st2" x1="664.5" y1="796.8" x2="667.3" y2="796.7"/>
      <line class="st2" x1="667.3" y1="796.7" x2="667.8" y2="827"/>
      <line class="st2" x1="667.8" y1="827" x2="648.2" y2="827.3"/>
      <line class="st2" x1="648.2" y1="827.3" x2="648.2" y2="833.8"/>
      <line class="st2" x1="575.1" y1="833.8" x2="575" y2="822.8"/>
      <line class="st2" x1="575" y1="822.8" x2="584.8" y2="822.6"/>
      <line class="st2" x1="623.4" y1="596.3" x2="580.6" y2="594.4"/>
      <line class="st2" x1="772.4" y1="599.4" x2="772.3" y2="600.4"/>
      <line class="st2" x1="772.3" y1="600.4" x2="747.2" y2="599.5"/>
      <line class="st2" x1="-36.6" y1="759.8" x2="-23.3" y2="759.1"/>
      <line class="st2" x1="-23.3" y1="759.1" x2="-22.6" y2="772.2"/>
      <line class="st2" x1="115.2" y1="462.7" x2="-15.8" y2="466.4"/>
      <line class="st2" x1="-15.8" y1="466.4" x2="-11.2" y2="404.5"/>
      <line class="st2" x1="-11.2" y1="404.5" x2="-63.6" y2="392.6"/>
      <line class="st2" x1="-63.6" y1="392.6" x2="-65.6" y2="277.3"/>
      <line class="st2" x1="-15.8" y1="466.4" x2="-35.3" y2="711.3"/>
      <line class="st3" x1="274.9" y1="478.1" x2="274.9" y2="431"/>
      <line class="st3" x1="274.9" y1="431" x2="374.6" y2="431"/>
      <line class="st3" x1="374.6" y1="431" x2="374.6" y2="476.7"/>
      <line class="st3" x1="374.6" y1="476.7" x2="354.6" y2="478.1"/>
      <line class="st3" x1="354.6" y1="478.1" x2="334.7" y2="476.7"/>
      <line class="st3" x1="334.7" y1="476.7" x2="314.8" y2="478.1"/>
      <line class="st3" x1="314.8" y1="478.1" x2="294.8" y2="476.7"/>
      <line class="st3" x1="294.8" y1="476.7" x2="274.9" y2="478.1"/>
      <line class="st2" x1="508.8" y1="466.1" x2="438" y2="471.1"/>
      <line class="st2" x1="231.6" y1="399.2" x2="324.8" y2="400.3"/>
      <line class="st2" x1="324.8" y1="400.3" x2="324.1" y2="376.2"/>
      <line class="st2" x1="324.1" y1="376.2" x2="344" y2="376.5"/>
      <line class="st2" x1="344" y1="376.5" x2="542.6" y2="376.7"/>
      <line class="st2" x1="542.6" y1="376.7" x2="537" y2="443.2"/>
      <line class="st2" x1="537" y1="443.2" x2="517.1" y2="719.7"/>
      <line class="st2" x1="517.1" y1="719.7" x2="522.4" y2="833.8"/>
      <line class="st2" x1="555.7" y1="445.3" x2="575.5" y2="198.2"/>
      <line class="st2" x1="575.5" y1="198.2" x2="674.5" y2="188.3"/>
      <line class="st2" x1="674.5" y1="188.3" x2="691.9" y2="186.5"/>
      <line class="st2" x1="537.1" y1="716" x2="663.4" y2="724.5"/>
      <line class="st2" x1="663.4" y1="724.5" x2="711" y2="727.1"/>
      <line class="st2" x1="711" y1="727.1" x2="712.5" y2="833.8"/>
      <line class="st2" x1="117.5" y1="413.1" x2="27.2" y2="412.9"/>
      <line class="st2" x1="27.2" y1="412.9" x2="-11.2" y2="404.5"/>
      <line class="st2" x1="214" y1="688.7" x2="108.5" y2="697.3"/>
      <line class="st2" x1="108.5" y1="697.3" x2="130.1" y2="462.3"/>
      <line class="st2" x1="130.1" y1="462.3" x2="140.1" y2="344.4"/>
      <line class="st2" x1="-135.8" y1="385.8" x2="-63.6" y2="392.6"/>
      <line class="st2" x1="70.2" y1="217.3" x2="42" y2="221"/>
      <line class="st2" x1="321.5" y1="111.9" x2="341.9" y2="109.4"/>
      <line class="st2" x1="341.9" y1="109.4" x2="386.1" y2="103.9"/>
      <line class="st2" x1="386.1" y1="103.9" x2="386.1" y2="103.9"/>
      <line class="st2" x1="394.3" y1="129.3" x2="395.2" y2="131"/>
      <line class="st2" x1="395.2" y1="131" x2="396.3" y2="132.5"/>
      <line class="st2" x1="396.3" y1="132.5" x2="397.4" y2="134"/>
      <line class="st2" x1="397.4" y1="134" x2="398.7" y2="135.4"/>
      <line class="st2" x1="398.7" y1="135.4" x2="400.1" y2="136.6"/>
      <line class="st2" x1="400.1" y1="136.6" x2="401.6" y2="137.8"/>
      <line class="st2" x1="401.6" y1="137.8" x2="403.2" y2="138.9"/>
      <line class="st2" x1="403.2" y1="138.9" x2="404.8" y2="139.8"/>
      <line class="st2" x1="404.8" y1="139.8" x2="406.7" y2="140.6"/>
      <line class="st2" x1="406.7" y1="140.6" x2="408.6" y2="141.3"/>
      <line class="st2" x1="408.6" y1="141.3" x2="410.6" y2="141.8"/>
      <line class="st2" x1="410.6" y1="141.8" x2="412.6" y2="142.2"/>
      <line class="st2" x1="412.6" y1="142.2" x2="414.6" y2="142.3"/>
      <line class="st2" x1="414.6" y1="142.3" x2="416.6" y2="142.4"/>
      <line class="st2" x1="416.6" y1="142.4" x2="418.6" y2="142.2"/>
      <line class="st2" x1="418.6" y1="142.2" x2="420.6" y2="141.9"/>
      <line class="st2" x1="420.6" y1="141.9" x2="422.6" y2="141.4"/>
      <line class="st2" x1="422.6" y1="141.4" x2="424.5" y2="140.7"/>
      <line class="st2" x1="292.7" y1="144.8" x2="274.9" y2="3.3"/>
      <line class="st2" x1="274.9" y1="3.3" x2="302" y2="0"/>
      <line class="st2" x1="465.1" y1="0" x2="470.2" y2="2.4"/>
      <line class="st2" x1="470.2" y1="2.4" x2="483.7" y2="23.3"/>
      <line class="st2" x1="747.5" y1="180.7" x2="747.5" y2="180.8"/>
      <line class="st2" x1="489.3" y1="0" x2="500.9" y2="10.6"/>
      <line class="st2" x1="500.9" y1="10.6" x2="520.7" y2="83.7"/>
      <line class="st2" x1="520.7" y1="83.7" x2="534.7" y2="95.2"/>
      <line class="st2" x1="493.1" y1="112.4" x2="424.5" y2="140.7"/>
      <line class="st2" x1="-155.7" y1="57.9" x2="34.9" y2="33.4"/>
      <line class="st2" x1="34.9" y1="33.4" x2="46.8" y2="32.4"/>
      <line class="st2" x1="394.3" y1="129.3" x2="386.1" y2="103.9"/>
      <line class="st2" x1="386.1" y1="103.9" x2="409.5" y2="101.1"/>
      <line class="st2" x1="409.5" y1="101.1" x2="407.2" y2="81.9"/>
      <line class="st2" x1="407.2" y1="81.9" x2="399.8" y2="22.1"/>
      <line class="st2" x1="399.8" y1="22.1" x2="332.2" y2="30.4"/>
      <line class="st2" x1="332.2" y1="30.4" x2="339.6" y2="90.2"/>
      <line class="st2" x1="339.6" y1="90.2" x2="341.9" y2="109.4"/>
      <line class="st2" x1="341.9" y1="109.4" x2="321.5" y2="111.9"/>
      <line class="st2" x1="321.5" y1="111.9" x2="334.4" y2="154"/>
      <line class="st2" x1="-85.8" y1="280.7" x2="-65.6" y2="277.3"/>
      <line class="st2" x1="-65.6" y1="277.3" x2="123.1" y2="249"/>
      <line class="st2" x1="123.1" y1="249" x2="123.1" y2="249"/>
      <line class="st2" x1="-121.5" y1="735.6" x2="-36.9" y2="731.3"/>
      <line class="st2" x1="-36.9" y1="731.3" x2="76.7" y2="725.7"/>
      <line class="st2" x1="746.2" y1="440.7" x2="747.5" y2="180.7"/>
      <polyline class="st4" points="396 478.5 396 488.1 274.9 488.1 274.9 478.1 294.8 476.7 314.8 478.1 334.7 476.5 354.6 478.1 372.6 476.9 372.6 416.4 414.5 416.7 414.5 417.1 414.5 432.5 414.2 477 396 478.5"/>
      <line class="st2" x1="396" y1="478.5" x2="396" y2="488.1"/>
      <line class="st2" x1="396" y1="488.1" x2="274.9" y2="488.1"/>
      <line class="st2" x1="274.9" y1="488.1" x2="274.9" y2="478.1"/>
      <line class="st2" x1="274.9" y1="478.1" x2="294.8" y2="476.7"/>
      <line class="st2" x1="294.8" y1="476.7" x2="314.8" y2="478.1"/>
      <line class="st2" x1="314.8" y1="478.1" x2="334.7" y2="476.5"/>
      <line class="st2" x1="334.7" y1="476.5" x2="354.6" y2="478.1"/>
      <line class="st2" x1="354.6" y1="478.1" x2="372.6" y2="476.9"/>
      <line class="st2" x1="372.6" y1="476.9" x2="372.6" y2="416.4"/>
      <line class="st2" x1="372.6" y1="416.4" x2="414.5" y2="416.7"/>
      <line class="st2" x1="414.5" y1="416.7" x2="414.5" y2="417.1"/>
      <line class="st2" x1="414.5" y1="417.1" x2="414.5" y2="432.5"/>
      <line class="st2" x1="414.5" y1="432.5" x2="414.2" y2="477"/>
      <line class="st2" x1="414.2" y1="477" x2="396" y2="478.5"/>
      <polyline class="st4" points="422 432.5 414.5 432.5 414.5 417.1 422.1 417.1 422 432.5"/>
      <line class="st2" x1="422" y1="432.5" x2="414.5" y2="432.5"/>
      <line class="st2" x1="414.5" y1="432.5" x2="414.5" y2="417.1"/>
      <line class="st2" x1="414.5" y1="417.1" x2="422.1" y2="417.1"/>
      <line class="st2" x1="422.1" y1="417.1" x2="422" y2="432.5"/>
      <line class="st2" x1="542.6" y1="376.7" x2="542.7" y2="376"/>
      <line class="st2" x1="542.7" y1="376" x2="553.5" y2="200.4"/>
      <line class="st2" x1="553.5" y1="200.4" x2="553.7" y2="197.6"/>
      <line class="st2" x1="553.7" y1="197.6" x2="536.4" y2="171.5"/>
      <line class="st2" x1="536.4" y1="171.5" x2="485.7" y2="201.1"/>
      <line class="st2" x1="485.7" y1="201.1" x2="438.3" y2="213.5"/>
      <line class="st2" x1="438.3" y1="213.5" x2="337.3" y2="224.9"/>
      <line class="st2" x1="-122.8" y1="250.5" x2="-67.4" y2="244.2"/>
      <polyline class="st5" points="354.6 488.1 354.6 425 374.6 425 374.6 488.1 354.6 488.1"/>
      <line class="st2" x1="354.6" y1="488.1" x2="354.6" y2="425"/>
      <line class="st2" x1="354.6" y1="425" x2="374.6" y2="425"/>
      <line class="st2" x1="374.6" y1="425" x2="374.6" y2="488.1"/>
      <line class="st2" x1="374.6" y1="488.1" x2="354.6" y2="488.1"/>
      <polyline class="st5" points="374.6 488.1 374.6 431 374.6 425 400.1 425 400.1 488.1 374.6 488.1"/>
      <line class="st2" x1="374.6" y1="488.1" x2="374.6" y2="431"/>
      <line class="st2" x1="374.6" y1="431" x2="374.6" y2="425"/>
      <line class="st2" x1="374.6" y1="425" x2="400.1" y2="425"/>
      <line class="st2" x1="400.1" y1="425" x2="400.1" y2="488.1"/>
      <line class="st2" x1="400.1" y1="488.1" x2="374.6" y2="488.1"/>
      <polyline class="st5" points="334.7 488.1 334.7 425 354.6 425 354.6 488.1 334.7 488.1"/>
      <line class="st2" x1="334.7" y1="488.1" x2="334.7" y2="425"/>
      <line class="st2" x1="334.7" y1="425" x2="354.6" y2="425"/>
      <line class="st2" x1="354.6" y1="425" x2="354.6" y2="488.1"/>
      <line class="st2" x1="354.6" y1="488.1" x2="334.7" y2="488.1"/>
      <polyline class="st5" points="314.8 488.1 314.8 425 334.7 425 334.7 488.1 314.8 488.1"/>
      <line class="st2" x1="314.8" y1="488.1" x2="314.8" y2="425"/>
      <line class="st2" x1="314.8" y1="425" x2="334.7" y2="425"/>
      <line class="st2" x1="334.7" y1="425" x2="334.7" y2="488.1"/>
      <line class="st2" x1="334.7" y1="488.1" x2="314.8" y2="488.1"/>
      <polyline class="st5" points="294.8 488.1 294.8 425 314.8 425 314.8 488.1 294.8 488.1"/>
      <line class="st2" x1="294.8" y1="488.1" x2="294.8" y2="425"/>
      <line class="st2" x1="294.8" y1="425" x2="314.8" y2="425"/>
      <line class="st2" x1="314.8" y1="425" x2="314.8" y2="488.1"/>
      <line class="st2" x1="314.8" y1="488.1" x2="294.8" y2="488.1"/>
      <polyline class="st5" points="269.4 425 294.8 425 294.8 488.1 269.4 488.1 269.4 425"/>
      <line class="st2" x1="269.4" y1="425" x2="294.8" y2="425"/>
      <line class="st2" x1="294.8" y1="425" x2="294.8" y2="488.1"/>
      <line class="st2" x1="294.8" y1="488.1" x2="269.4" y2="488.1"/>
      <line class="st2" x1="269.4" y1="488.1" x2="269.4" y2="425"/>
      <line class="st2" x1="81.7" y1="705.5" x2="85.7" y2="689.5"/>
      <line class="st2" x1="85.7" y1="689.5" x2="96.4" y2="645.3"/>
      <line class="st2" x1="96.4" y1="645.3" x2="106.3" y2="577.4"/>
      <line class="st2" x1="106.3" y1="577.4" x2="114.2" y2="484.6"/>
      <line class="st2" x1="114.2" y1="484.6" x2="117.5" y2="413.1"/>
      <line class="st2" x1="117.5" y1="413.1" x2="119.1" y2="379.4"/>
      <line class="st2" x1="119.1" y1="379.4" x2="128.1" y2="276.8"/>
      <line class="st2" x1="128.1" y1="276.8" x2="123.1" y2="249"/>
      <line class="st2" x1="112.2" y1="657.5" x2="101" y2="704.5"/>
      <polyline class="st4" points="713.8 551.5 714.6 524.9 756.2 526.3 755.3 552.8 774.1 553.5 772.4 599.4 747.2 599.5 712.2 598.2 713.8 551.5"/>
      <line class="st2" x1="713.8" y1="551.5" x2="712.2" y2="598.2"/>
      <line class="st2" x1="712.2" y1="598.2" x2="747.2" y2="599.5"/>
      <line class="st2" x1="747.2" y1="599.5" x2="772.4" y2="599.4"/>
      <line class="st2" x1="772.4" y1="599.4" x2="774.1" y2="553.5"/>
      <line class="st2" x1="774.1" y1="553.5" x2="755.3" y2="552.8"/>
      <line class="st2" x1="755.3" y1="552.8" x2="756.2" y2="526.3"/>
      <line class="st2" x1="756.2" y1="526.3" x2="714.6" y2="524.9"/>
      <line class="st2" x1="714.6" y1="524.9" x2="713.8" y2="551.5"/>
      <polyline class="st4" points="-11.1 69.5 -10.6 73.7 16.7 70.2 20.8 101.9 11.1 103.1 12.7 117.7 -47 125.3 -52.6 79.1 -14.8 74.2 -15.3 70.1 -11.1 69.5"/>
      <line class="st2" x1="-11.1" y1="69.5" x2="-15.3" y2="70.1"/>
      <line class="st2" x1="-15.3" y1="70.1" x2="-14.8" y2="74.2"/>
      <line class="st2" x1="-14.8" y1="74.2" x2="-52.6" y2="79.1"/>
      <line class="st2" x1="-52.6" y1="79.1" x2="-47" y2="125.3"/>
      <line class="st2" x1="-47" y1="125.3" x2="12.7" y2="117.7"/>
      <line class="st2" x1="12.7" y1="117.7" x2="11.1" y2="103.1"/>
      <line class="st2" x1="11.1" y1="103.1" x2="20.8" y2="101.9"/>
      <line class="st2" x1="20.8" y1="101.9" x2="16.7" y2="70.2"/>
      <line class="st2" x1="16.7" y1="70.2" x2="-10.6" y2="73.7"/>
      <line class="st2" x1="-10.6" y1="73.7" x2="-11.1" y2="69.5"/>
      <polyline class="st4" points="584.4 796.5 638 796 638.5 833.8 584.9 833.8 584.4 796.5"/>
      <line class="st2" x1="638.5" y1="833.8" x2="638" y2="796"/>
      <line class="st2" x1="638" y1="796" x2="584.4" y2="796.5"/>
      <line class="st2" x1="584.4" y1="796.5" x2="584.9" y2="833.8"/>
      <polyline class="st4" points="409.5 101.1 341.9 109.4 332.2 30.4 399.8 22.1 407.2 81.9 409.5 101.1"/>
      <line class="st2" x1="409.5" y1="101.1" x2="407.2" y2="81.9"/>
      <line class="st2" x1="407.2" y1="81.9" x2="399.8" y2="22.1"/>
      <line class="st2" x1="399.8" y1="22.1" x2="332.2" y2="30.4"/>
      <line class="st2" x1="332.2" y1="30.4" x2="341.9" y2="109.4"/>
      <line class="st2" x1="341.9" y1="109.4" x2="409.5" y2="101.1"/>
      <polyline class="st4" points="424.6 273.6 430.9 329.9 384.6 335.2 378.2 278.9 424.6 273.6"/>
      <line class="st2" x1="424.6" y1="273.6" x2="378.2" y2="278.9"/>
      <line class="st2" x1="378.2" y1="278.9" x2="384.6" y2="335.2"/>
      <line class="st2" x1="384.6" y1="335.2" x2="430.9" y2="329.9"/>
      <line class="st2" x1="430.9" y1="329.9" x2="424.6" y2="273.6"/>
      <polyline class="st4" points="-36.6 759.8 -36 772.8 -22.6 772.2 -22 785.7 -35.2 786.5 -34.5 805 -94.4 808.1 -96.5 762.7 -36.6 759.8"/>
      <line class="st2" x1="-36.6" y1="759.8" x2="-96.5" y2="762.7"/>
      <line class="st2" x1="-94.4" y1="808.1" x2="-34.5" y2="805"/>
      <line class="st2" x1="-34.5" y1="805" x2="-35.2" y2="786.5"/>
      <line class="st2" x1="-35.2" y1="786.5" x2="-22" y2="785.7"/>
      <line class="st2" x1="-22" y1="785.7" x2="-22.6" y2="772.2"/>
      <line class="st2" x1="-22.6" y1="772.2" x2="-36" y2="772.8"/>
      <line class="st2" x1="-36" y1="772.8" x2="-36.6" y2="759.8"/>
      <polyline class="st4" points="622.3 616.1 618.9 619.3 583.1 617.7 579.9 614.2 580.6 594.4 623.4 596.3 622.3 616.1"/>
      <line class="st2" x1="622.3" y1="616.1" x2="623.4" y2="596.3"/>
      <line class="st2" x1="623.4" y1="596.3" x2="580.6" y2="594.4"/>
      <line class="st2" x1="580.6" y1="594.4" x2="579.9" y2="614.2"/>
      <line class="st2" x1="579.9" y1="614.2" x2="583.1" y2="617.7"/>
      <line class="st2" x1="583.1" y1="617.7" x2="618.9" y2="619.3"/>
      <line class="st2" x1="618.9" y1="619.3" x2="622.3" y2="616.1"/>
      <polyline class="st4" points="575 822.8 584.8 822.6 584.9 833.8 575.1 833.8 575 822.8"/>
      <polyline class="st4" points="638 797 667.4 796.7 667.7 820 667.8 827 648.2 827.3 648.2 833.8 638.5 833.8 638 797"/>
      <line class="st2" x1="648.2" y1="833.8" x2="648.2" y2="827.3"/>
      <line class="st2" x1="648.2" y1="827.3" x2="667.8" y2="827"/>
      <line class="st2" x1="667.8" y1="827" x2="667.7" y2="820"/>
      <line class="st2" x1="667.7" y1="820" x2="667.4" y2="796.7"/>
      <line class="st2" x1="667.4" y1="796.7" x2="638" y2="797"/>
      <line class="st2" x1="638" y1="797" x2="638.5" y2="833.8"/>
      <line class="st2" x1="584.9" y1="833.8" x2="584.8" y2="822.6"/>
      <line class="st2" x1="584.8" y1="822.6" x2="575" y2="822.8"/>
      <line class="st2" x1="575" y1="822.8" x2="575.1" y2="833.8"/>
      <polyline class="st4" points="747.2 599.5 772.4 599.4 787.1 599.9 786.1 627.4 746.2 626 747.2 599.5"/>
      <line class="st2" x1="747.2" y1="599.5" x2="746.2" y2="626"/>
      <line class="st2" x1="746.2" y1="626" x2="786.1" y2="627.4"/>
      <line class="st2" x1="786.1" y1="627.4" x2="787.1" y2="599.9"/>
      <line class="st2" x1="787.1" y1="599.9" x2="772.4" y2="599.4"/>
      <line class="st2" x1="772.4" y1="599.4" x2="747.2" y2="599.5"/>
      <line class="st2" x1="611.6" y1="833.8" x2="611" y2="796.3"/>
      <line class="st2" x1="407.8" y1="332.5" x2="401.4" y2="276.2"/>
      <line class="st2" x1="366" y1="26.2" x2="375.7" y2="105.2"/>
      <line class="st2" x1="739.7" y1="599.2" x2="742.1" y2="525.8"/>
      <line class="st2" x1="-13.3" y1="121" x2="-19.2" y2="74.8"/>
      <line class="st3" x1="294.8" y1="425" x2="294.8" y2="488.1"/>
      <line class="st3" x1="354.6" y1="425" x2="354.6" y2="488.1"/>
      <line class="st3" x1="374.6" y1="425" x2="374.6" y2="488.1"/>
      <line class="st3" x1="314.8" y1="488.1" x2="314.8" y2="425"/>
      <line class="st3" x1="334.7" y1="425" x2="334.7" y2="488.1"/>
      <line class="st3" x1="508.8" y1="466.1" x2="438" y2="471.1"/>
      <line class="st3" x1="472.5" y1="457" x2="474.2" y2="480.2"/>
    </g>
  </g>
</svg>