<svg id="00-bio-plan" class="project-plan" xmlns="http://www.w3.org/2000/svg" viewBox="0 0 302.25 266.68">
<line class="cls-1" x1="110.43" y1="190.2" x2="302" y2="69.09"/>
<line class="cls-1" x1="302" y1="69.09" x2="258.48" y2=".25"/>
<line class="cls-1" x1="258.48" y1=".26" x2=".26" y2="163.5"/>
<line class="cls-1" x1=".25" y1="163.5" x2="65.32" y2="266.42"/>
<line class="cls-1" x1="65.32" y1="266.42" x2="131.98" y2="224.28"/>
<line class="cls-1" x1="131.98" y1="224.28" x2="110.43" y2="190.2"/>
<line class="cls-1" x1="66.18" y1="124.59" x2="3.49" y2="164.23"/>
<line class="cls-1" x1="3.49" y1="164.23" x2="66.05" y2="263.19"/>
<line class="cls-1" x1="66.05" y1="263.19" x2="128.74" y2="223.55"/>
<line class="cls-1" x1="128.74" y1="223.55" x2="107.2" y2="189.47"/>
<line class="cls-1" x1="107.2" y1="189.47" x2="66.18" y2="124.59"/>
<line class="cls-1" x1="109.18" y1="188.22" x2="68.17" y2="123.34"/>
<line class="cls-2" x1="162.97" y1="154.21" x2="135.7" y2="111.08"/>
<line class="cls-2" x1="135.7" y1="111.08" x2="271.5" y2="25.23"/>
<line class="cls-1" x1="109.18" y1="188.22" x2="162.97" y2="154.21"/>
<line class="cls-1" x1="162.97" y1="154.21" x2="298.76" y2="68.36"/>
<line class="cls-1" x1="298.76" y1="68.36" x2="271.5" y2="25.23"/>
<line class="cls-1" x1="271.5" y1="25.23" x2="257.75" y2="3.49"/>
<line class="cls-1" x1="257.75" y1="3.49" x2="68.17" y2="123.34"/>
</svg>