<svg id="04-stm-plan" class="project-plan" xmlns="http://www.w3.org/2000/svg" viewBox="0 0 394.41 263.47">
<line class="cls-1" x1="21.13" y1="103.47" x2="45.26" y2="93.82"/><line class="cls-1" x1="45.26" y1="93.82" x2="59.81" y2="130.18"/><line class="cls-1" x1="59.81" y1="130.18" x2="35.67" y2="139.83"/><line class="cls-1" x1="35.67" y1="139.83" x2="21.13" y2="103.47"/><line class="cls-1" x1="102.87" y1="68.8" x2="127" y2="59.15"/><line class="cls-1" x1="127" y1="59.15" x2="141.54" y2="95.51"/><line class="cls-1" x1="141.54" y1="95.51" x2="117.41" y2="105.16"/><line class="cls-1" x1="117.41" y1="105.16" x2="102.87" y2="68.8"/><line class="cls-1" x1="185.88" y1="37.19" x2="210.01" y2="27.53"/><line class="cls-1" x1="210.01" y1="27.53" x2="224.55" y2="63.9"/><line class="cls-1" x1="224.55" y1="63.9" x2="200.42" y2="73.55"/><line class="cls-1" x1="200.42" y1="73.55" x2="185.88" y2="37.19"/><line class="cls-1" x1="272.06" y1="10.17" x2="297.19" y2=".26"/><line class="cls-1" x1="297.19" y1=".25" x2="307.11" y2="25.39"/><line class="cls-1" x1="307.11" y1="25.39" x2="281.97" y2="35.31"/><line class="cls-1" x1="281.97" y1="35.31" x2="272.06" y2="10.17"/><line class="cls-1" x1="294.15" y1="83.02" x2="325.01" y2="71.29"/><line class="cls-1" x1="325.01" y1="71.29" x2="334.71" y2="96.81"/><line class="cls-1" x1="334.71" y1="96.81" x2="303.85" y2="108.54"/><line class="cls-1" x1="303.85" y1="108.54" x2="294.15" y2="83.02"/><line class="cls-1" x1="324.67" y1="151.37" x2="355" y2="139.64"/><line class="cls-1" x1="355" y1="139.64" x2="364.84" y2="165.08"/><line class="cls-1" x1="364.84" y1="165.08" x2="334.51" y2="176.81"/><line class="cls-1" x1="334.51" y1="176.81" x2="324.67" y2="151.37"/><line class="cls-1" x1="359.8" y1="217.27" x2="384.24" y2="207.35"/><line class="cls-1" x1="384.24" y1="207.35" x2="394.15" y2="231.79"/><line class="cls-1" x1="394.15" y1="231.79" x2="369.71" y2="241.7"/><line class="cls-1" x1="369.71" y1="241.7" x2="359.8" y2="217.27"/><line class="cls-1" x1="267.45" y1="219.1" x2="292.25" y2="209.21"/><line class="cls-1" x1="292.25" y1="209.21" x2="304.67" y2="240.37"/><line class="cls-1" x1="304.67" y1="240.37" x2="279.87" y2="250.26"/><line class="cls-1" x1="279.87" y1="250.26" x2="267.45" y2="219.1"/><line class="cls-1" x1="179.47" y1="219.1" x2="204.27" y2="209.21"/><line class="cls-1" x1="204.27" y1="209.21" x2="216.69" y2="240.37"/><line class="cls-1" x1="216.69" y1="240.37" x2="191.89" y2="250.26"/><line class="cls-1" x1="191.89" y1="250.26" x2="179.47" y2="219.1"/><line class="cls-1" x1="88.43" y1="226.91" x2="113.23" y2="217.02"/><line class="cls-1" x1="113.23" y1="217.02" x2="125.65" y2="248.18"/><line class="cls-1" x1="125.65" y1="248.18" x2="100.85" y2="258.07"/><line class="cls-1" x1="100.85" y1="258.07" x2="88.43" y2="226.91"/><line class="cls-1" x1=".26" y1="238.78" x2="24.69" y2="228.86"/><line class="cls-1" x1="24.69" y1="228.86" x2="34.61" y2="253.3"/><line class="cls-1" x1="34.61" y1="253.3" x2="10.17" y2="263.21"/><line class="cls-1" x1="10.17" y1="263.21" x2=".25" y2="238.78"/><line class="cls-2" x1="41.81" y1="116.71" x2="41.67" y2="116.21"/><line class="cls-2" x1="41.23" y1="115.51" x2="40.96" y2="115.24"/><line class="cls-2" x1="40.96" y1="115.24" x2="40.49" y2="115.12"/><line class="cls-2" x1="39.66" y1="115.14" x2="39.27" y2="115.24"/><line class="cls-2" x1="39.27" y1="115.24" x2="38.95" y2="115.57"/><line class="cls-2" x1="38.54" y1="116.29" x2="38.43" y2="116.71"/><line class="cls-2" x1="38.43" y1="116.71" x2="38.54" y2="117.12"/><line class="cls-2" x1="38.95" y1="117.84" x2="39.27" y2="118.17"/><line class="cls-2" x1="39.27" y1="118.17" x2="39.66" y2="118.27"/><line class="cls-2" x1="40.49" y1="118.29" x2="40.96" y2="118.17"/><line class="cls-2" x1="40.96" y1="118.17" x2="41.23" y2="117.9"/><line class="cls-2" x1="41.67" y1="117.2" x2="41.81" y2="116.71"/><line class="cls-2" x1="123.54" y1="82.03" x2="123.41" y2="81.54"/><line class="cls-2" x1="122.96" y1="80.84" x2="122.7" y2="80.57"/><line class="cls-2" x1="122.7" y1="80.57" x2="122.23" y2="80.45"/><line class="cls-2" x1="121.4" y1="80.47" x2="121.01" y2="80.57"/><line class="cls-2" x1="121.01" y1="80.57" x2="120.69" y2="80.89"/><line class="cls-2" x1="120.28" y1="81.62" x2="120.17" y2="82.03"/><line class="cls-2" x1="120.17" y1="82.03" x2="120.28" y2="82.45"/><line class="cls-2" x1="120.69" y1="83.17" x2="121.01" y2="83.49"/><line class="cls-2" x1="121.01" y1="83.49" x2="121.4" y2="83.6"/><line class="cls-2" x1="122.23" y1="83.62" x2="122.7" y2="83.49"/><line class="cls-2" x1="122.7" y1="83.49" x2="122.96" y2="83.23"/><line class="cls-2" x1="123.41" y1="82.53" x2="123.54" y2="82.03"/><line class="cls-2" x1="206.55" y1="50.42" x2="206.42" y2="49.93"/><line class="cls-2" x1="205.97" y1="49.23" x2="205.71" y2="48.96"/><line class="cls-2" x1="205.71" y1="48.96" x2="205.24" y2="48.83"/><line class="cls-2" x1="204.41" y1="48.86" x2="204.02" y2="48.96"/><line class="cls-2" x1="204.02" y1="48.96" x2="203.7" y2="49.28"/><line class="cls-2" x1="203.29" y1="50.01" x2="203.18" y2="50.42"/><line class="cls-2" x1="203.18" y1="50.42" x2="203.29" y2="50.84"/><line class="cls-2" x1="203.7" y1="51.56" x2="204.02" y2="51.88"/><line class="cls-2" x1="204.02" y1="51.88" x2="204.41" y2="51.99"/><line class="cls-2" x1="205.24" y1="52.01" x2="205.71" y2="51.88"/><line class="cls-2" x1="205.71" y1="51.88" x2="205.97" y2="51.62"/><line class="cls-2" x1="206.42" y1="50.91" x2="206.55" y2="50.42"/><line class="cls-2" x1="319.33" y1="88" x2="319.2" y2="87.5"/><line class="cls-2" x1="318.76" y1="86.8" x2="318.49" y2="86.53"/><line class="cls-2" x1="318.49" y1="86.53" x2="318.02" y2="86.41"/><line class="cls-2" x1="317.19" y1="86.43" x2="316.8" y2="86.53"/><line class="cls-2" x1="316.8" y1="86.53" x2="316.48" y2="86.86"/><line class="cls-2" x1="316.07" y1="87.58" x2="315.96" y2="87.99"/><line class="cls-2" x1="315.96" y1="88" x2="316.07" y2="88.41"/><line class="cls-2" x1="316.48" y1="89.13" x2="316.8" y2="89.46"/><line class="cls-2" x1="316.8" y1="89.46" x2="317.19" y2="89.56"/><line class="cls-2" x1="318.02" y1="89.58" x2="318.49" y2="89.46"/><line class="cls-2" x1="318.49" y1="89.46" x2="318.76" y2="89.19"/><line class="cls-2" x1="319.2" y1="88.49" x2="319.33" y2="87.99"/><line class="cls-2" x1="349.99" y1="156.27" x2="349.86" y2="155.77"/><line class="cls-2" x1="349.41" y1="155.07" x2="349.15" y2="154.8"/><line class="cls-2" x1="349.15" y1="154.8" x2="348.68" y2="154.68"/><line class="cls-2" x1="347.85" y1="154.7" x2="347.46" y2="154.8"/><line class="cls-2" x1="347.46" y1="154.8" x2="347.14" y2="155.13"/><line class="cls-2" x1="346.73" y1="155.85" x2="346.61" y2="156.27"/><line class="cls-2" x1="346.62" y1="156.27" x2="346.73" y2="156.68"/><line class="cls-2" x1="347.14" y1="157.4" x2="347.46" y2="157.73"/><line class="cls-2" x1="347.46" y1="157.73" x2="347.85" y2="157.83"/><line class="cls-2" x1="348.68" y1="157.85" x2="349.15" y2="157.73"/><line class="cls-2" x1="349.15" y1="157.73" x2="349.41" y2="157.46"/><line class="cls-2" x1="349.86" y1="156.76" x2="349.99" y2="156.27"/><line class="cls-2" x1="377.98" y1="223.9" x2="377.85" y2="223.41"/><line class="cls-2" x1="377.4" y1="222.71" x2="377.13" y2="222.44"/><line class="cls-2" x1="377.13" y1="222.44" x2="376.67" y2="222.31"/><line class="cls-2" x1="375.83" y1="222.33" x2="375.45" y2="222.44"/><line class="cls-2" x1="375.45" y1="222.44" x2="375.12" y2="222.76"/><line class="cls-2" x1="374.71" y1="223.49" x2="374.6" y2="223.9"/><line class="cls-2" x1="374.6" y1="223.9" x2="374.71" y2="224.32"/><line class="cls-2" x1="375.12" y1="225.04" x2="375.45" y2="225.36"/><line class="cls-2" x1="375.45" y1="225.36" x2="375.83" y2="225.47"/><line class="cls-2" x1="376.67" y1="225.49" x2="377.13" y2="225.36"/><line class="cls-2" x1="377.13" y1="225.36" x2="377.4" y2="225.1"/><line class="cls-2" x1="377.84" y1="224.4" x2="377.97" y2="223.9"/><line class="cls-2" x1="290.23" y1="17.5" x2="290.1" y2="17.01"/><line class="cls-2" x1="289.65" y1="16.31" x2="289.39" y2="16.04"/><line class="cls-2" x1="289.39" y1="16.04" x2="288.92" y2="15.92"/><line class="cls-2" x1="288.09" y1="15.94" x2="287.7" y2="16.04"/><line class="cls-2" x1="287.7" y1="16.04" x2="287.38" y2="16.37"/><line class="cls-2" x1="286.97" y1="17.09" x2="286.86" y2="17.5"/><line class="cls-2" x1="286.86" y1="17.5" x2="286.97" y2="17.92"/><line class="cls-2" x1="287.38" y1="18.64" x2="287.7" y2="18.96"/><line class="cls-2" x1="287.7" y1="18.96" x2="288.09" y2="19.07"/><line class="cls-2" x1="288.92" y1="19.09" x2="289.39" y2="18.97"/><line class="cls-2" x1="289.39" y1="18.96" x2="289.65" y2="18.7"/><line class="cls-2" x1="290.1" y1="18" x2="290.23" y2="17.5"/><line class="cls-2" x1="19.12" y1="246.04" x2="18.99" y2="245.54"/><line class="cls-2" x1="18.54" y1="244.84" x2="18.27" y2="244.58"/><line class="cls-2" x1="18.28" y1="244.58" x2="17.81" y2="244.45"/><line class="cls-2" x1="16.98" y1="244.47" x2="16.59" y2="244.58"/><line class="cls-2" x1="16.59" y1="244.58" x2="16.26" y2="244.9"/><line class="cls-2" x1="15.85" y1="245.62" x2="15.74" y2="246.04"/><line class="cls-2" x1="15.74" y1="246.04" x2="15.85" y2="246.45"/><line class="cls-2" x1="16.26" y1="247.17" x2="16.59" y2="247.5"/><line class="cls-2" x1="16.59" y1="247.5" x2="16.98" y2="247.6"/><line class="cls-2" x1="17.81" y1="247.62" x2="18.28" y2="247.5"/><line class="cls-2" x1="18.28" y1="247.5" x2="18.54" y2="247.23"/><line class="cls-2" x1="18.99" y1="246.53" x2="19.12" y2="246.04"/><line class="cls-2" x1="109.8" y1="240.89" x2="109.67" y2="240.4"/><line class="cls-2" x1="109.22" y1="239.7" x2="108.96" y2="239.43"/><line class="cls-2" x1="108.96" y1="239.43" x2="108.49" y2="239.31"/><line class="cls-2" x1="107.66" y1="239.33" x2="107.27" y2="239.43"/><line class="cls-2" x1="107.27" y1="239.43" x2="106.95" y2="239.75"/><line class="cls-2" x1="106.53" y1="240.48" x2="106.42" y2="240.89"/><line class="cls-2" x1="106.42" y1="240.89" x2="106.54" y2="241.31"/><line class="cls-2" x1="106.95" y1="242.03" x2="107.27" y2="242.35"/><line class="cls-2" x1="107.27" y1="242.35" x2="107.66" y2="242.46"/><line class="cls-2" x1="108.49" y1="242.48" x2="108.96" y2="242.35"/><line class="cls-2" x1="108.96" y1="242.35" x2="109.22" y2="242.09"/><line class="cls-2" x1="109.67" y1="241.39" x2="109.8" y2="240.89"/><line class="cls-2" x1="200.84" y1="233.08" x2="200.71" y2="232.59"/><line class="cls-2" x1="200.26" y1="231.89" x2="200" y2="231.62"/><line class="cls-2" x1="200" y1="231.62" x2="199.53" y2="231.5"/><line class="cls-2" x1="198.7" y1="231.52" x2="198.31" y2="231.62"/><line class="cls-2" x1="198.31" y1="231.62" x2="197.99" y2="231.94"/><line class="cls-2" x1="197.58" y1="232.67" x2="197.47" y2="233.08"/><line class="cls-2" x1="197.46" y1="233.08" x2="197.58" y2="233.5"/><line class="cls-2" x1="197.99" y1="234.22" x2="198.31" y2="234.54"/><line class="cls-2" x1="198.31" y1="234.54" x2="198.7" y2="234.65"/><line class="cls-2" x1="199.53" y1="234.67" x2="200" y2="234.54"/><line class="cls-2" x1="200" y1="234.54" x2="200.26" y2="234.28"/><line class="cls-2" x1="200.71" y1="233.58" x2="200.84" y2="233.08"/><line class="cls-2" x1="288.79" y1="233.08" x2="288.65" y2="232.59"/><line class="cls-2" x1="288.21" y1="231.89" x2="287.94" y2="231.62"/><line class="cls-2" x1="287.94" y1="231.62" x2="287.48" y2="231.5"/><line class="cls-2" x1="286.65" y1="231.52" x2="286.25" y2="231.62"/><line class="cls-2" x1="286.25" y1="231.62" x2="285.93" y2="231.94"/><line class="cls-2" x1="285.52" y1="232.67" x2="285.41" y2="233.08"/><line class="cls-2" x1="285.41" y1="233.08" x2="285.52" y2="233.5"/><line class="cls-2" x1="285.93" y1="234.22" x2="286.25" y2="234.54"/><line class="cls-2" x1="286.25" y1="234.54" x2="286.65" y2="234.65"/><line class="cls-2" x1="287.48" y1="234.67" x2="287.94" y2="234.54"/><line class="cls-2" x1="287.94" y1="234.54" x2="288.21" y2="234.28"/><line class="cls-2" x1="288.65" y1="233.58" x2="288.79" y2="233.08"/><line class="cls-1" x1="23.26" y1="108.8" x2="47.39" y2="99.15"/><line class="cls-1" x1="33.55" y1="134.51" x2="57.67" y2="124.86"/><line class="cls-1" x1="105" y1="74.12" x2="129.13" y2="64.47"/><line class="cls-1" x1="115.28" y1="99.83" x2="139.41" y2="90.18"/><line class="cls-1" x1="188.01" y1="42.51" x2="212.14" y2="32.86"/><line class="cls-1" x1="198.29" y1="68.22" x2="222.42" y2="58.57"/><line class="cls-1" x1="301.37" y1="80.28" x2="311.07" y2="105.8"/><line class="cls-1" x1="332.03" y1="148.55" x2="341.73" y2="174.07"/><line class="cls-1" x1="295.65" y1="217.74" x2="270.69" y2="227.23"/><line class="cls-1" x1="207.67" y1="217.74" x2="182.71" y2="227.23"/><line class="cls-1" x1="116.63" y1="225.55" x2="91.67" y2="235.04"/>
</svg>