<?xml version="1.0" encoding="UTF-8"?><svg id="Layer_2" xmlns="http://www.w3.org/2000/svg" viewBox="0 0 271.14 263.47"><defs><style>.cls-1{stroke-width:.51px;}.cls-1,.cls-2{fill:none;stroke:#000;stroke-linecap:round;stroke-linejoin:round;}.cls-2{stroke-width:.25px;}</style></defs><g id="Layer_1-2"><g><line class="cls-1" x1="43.94" y1="87.35" x2=".25" y2="138.42"/><line class="cls-1" x1=".26" y1="138.42" x2="159.21" y2="263.21"/><line class="cls-1" x1="159.21" y1="263.21" x2="195.55" y2="204.71"/><line class="cls-1" x1="195.55" y1="204.71" x2="43.94" y2="87.35"/><line class="cls-1" x1="44.49" y1="92.72" x2="5.88" y2="137.86"/><line class="cls-1" x1="5.88" y1="137.86" x2="158.19" y2="257.44"/><line class="cls-1" x1="158.19" y1="257.44" x2="190.36" y2="205.64"/><line class="cls-1" x1="190.36" y1="205.64" x2="44.49" y2="92.72"/><line class="cls-1" x1="118.46" y1=".26" x2="270.89" y2="83.41"/><line class="cls-1" x1="270.89" y1="83.41" x2="235.49" y2="140.4"/><line class="cls-1" x1="235.49" y1="140.4" x2="73.56" y2="52.74"/><line class="cls-1" x1="73.56" y1="52.74" x2="118.46" y2=".25"/><line class="cls-1" x1="119.37" y1="5.2" x2="265.38" y2="84.86"/><line class="cls-1" x1="265.38" y1="84.86" x2="234.11" y2="135.21"/><line class="cls-1" x1="234.11" y1="135.21" x2="79.67" y2="51.6"/><line class="cls-1" x1="79.67" y1="51.6" x2="119.37" y2="5.2"/><line class="cls-2" x1="74.31" y1="110.86" x2="107.91" y2="71.33"/><line class="cls-2" x1="204.15" y1="123.44" x2="167.27" y2="182.82"/></g></g></svg>