<svg id="07-bot-plan" class="project-plan" xmlns="http://www.w3.org/2000/svg" viewBox="0 0 204.03 266.55">
<line class="cls-2" x1="4.41" y1="226.05" x2="160.41" y2="264.53"/><line class="cls-2" x1="160.41" y1="264.53" x2="170.18" y2="224.92"/><line class="cls-2" x1="170.18" y1="224.92" x2="14.17" y2="186.45"/><line class="cls-2" x1="14.17" y1="186.45" x2="4.41" y2="226.06"/><line class="cls-1" x1="145.87" y1="187.84" x2="203.77" y2="74.94"/><line class="cls-1" x1="203.77" y1="74.94" x2="58.16" y2=".26"/><line class="cls-1" x1="58.16" y1=".25" x2=".26" y2="113.15"/><line class="cls-2" x1="2.51" y1="227.2" x2="161.56" y2="266.42"/><line class="cls-2" x1="161.56" y1="266.42" x2="172.07" y2="223.78"/><line class="cls-2" x1="172.07" y1="223.78" x2="13.03" y2="184.56"/><line class="cls-2" x1="13.03" y1="184.56" x2="2.51" y2="227.2"/><line class="cls-1" x1="144.17" y1="182.58" x2="180.28" y2="112.19"/><line class="cls-1" x1="42.69" y1="38.98" x2="181.35" y2="110.1"/><line class="cls-1" x1="41.62" y1="41.07" x2="180.28" y2="112.19"/><line class="cls-1" x1="41.62" y1="41.07" x2="5.52" y2="111.46"/><line class="cls-1" x1="181.35" y1="110.1" x2="198.51" y2="76.64"/><line class="cls-1" x1="198.51" y1="76.64" x2="59.86" y2="5.52"/><line class="cls-1" x1="59.86" y1="5.52" x2="42.69" y2="38.98"/><line class="cls-1" x1="5.52" y1="111.46" x2="144.17" y2="182.58"/><line class="cls-1" x1=".25" y1="113.15" x2="145.87" y2="187.84"/>
</svg>