<svg id="07-vsc-plan" class="project-plan" xmlns="http://www.w3.org/2000/svg" viewBox="0 0 268.51 261.58">
<path class="cls-2" d="M116.49,137.93c0-4.66-3.78-8.44-8.44-8.44s-8.44,3.78-8.44,8.44,3.78,8.44,8.44,8.44,8.44-3.78,8.44-8.44"/><line class="cls-1" x1="264.48" y1="129.92" x2="268.25" y2="124.93"/><line class="cls-1" x1="268.25" y1="124.93" x2="103.41" y2=".25"/><line class="cls-1" x1="103.41" y1=".26" x2=".25" y2="136.64"/><line class="cls-1" x1=".25" y1="136.64" x2="165.09" y2="261.32"/><line class="cls-1" x1="165.09" y1="261.32" x2="198.81" y2="216.75"/><line class="cls-1" x1="198.81" y1="216.75" x2="157.22" y2="185.29"/><line class="cls-1" x1="157.22" y1="185.29" x2="222.89" y2="98.46"/><line class="cls-1" x1="222.89" y1="98.46" x2="264.48" y2="129.92"/><line class="cls-1" x1="195.19" y1="131.19" x2="192.07" y2="128.84"/><line class="cls-1" x1="192.07" y1="128.84" x2="217.9" y2="94.69"/><line class="cls-1" x1="217.9" y1="94.69" x2="179.63" y2="65.75"/><line class="cls-1" x1="195.19" y1="131.19" x2="153.93" y2="185.74"/><line class="cls-1" x1="153.93" y1="185.74" x2="195.52" y2="217.2"/><line class="cls-1" x1="195.52" y1="217.2" x2="164.64" y2="258.04"/><line class="cls-1" x1="164.64" y1="258.04" x2="81.26" y2="194.97"/><line class="cls-1" x1="79.18" y1="193.4" x2="177.55" y2="64.17"/><line class="cls-1" x1="79.18" y1="193.4" x2="3.54" y2="136.19"/><line class="cls-1" x1="3.54" y1="136.19" x2="75.69" y2="40.81"/><line class="cls-1" x1="179.63" y1="65.75" x2="81.26" y2="194.97"/><line class="cls-2" x1="198.81" y1="216.75" x2="264.48" y2="129.92"/><line class="cls-2" x1="124.79" y1="137.79" x2="143.95" y2="152.37"/><line class="cls-2" x1="143.95" y1="152.37" x2="131.52" y2="168.69"/><line class="cls-2" x1="131.52" y1="168.69" x2="112.37" y2="154.11"/><line class="cls-1" x1="177.55" y1="64.17" x2="104.63" y2="9.02"/><line class="cls-1" x1="75.68" y1="40.81" x2="78.8" y2="43.16"/><line class="cls-1" x1="78.8" y1="43.16" x2="104.63" y2="9.02"/>
</svg>