<svg id="08-lul-plan" class="project-plan" xmlns="http://www.w3.org/2000/svg" viewBox="0 0 300.72 292.57">
<line class="cls-1" x1="52.51" y1="117.65" x2="5.3" y2="235.07"/><line class="cls-1" x1="5.3" y1="235.07" x2="75.3" y2="263.21"/><line class="cls-1" x1="75.31" y1="263.21" x2="125.51" y2="138.36"/><line class="cls-1" x1="52.51" y1="117.65" x2=".26" y2="103.23"/><line class="cls-1" x1=".25" y1="103.23" x2="28.69" y2=".26"/><line class="cls-1" x1="28.69" y1=".25" x2="149.32" y2="33.56"/><line class="cls-1" x1="149.32" y1="33.56" x2="131.86" y2="97.95"/><line class="cls-1" x1="54.89" y1="118.01" x2="8.35" y2="233.77"/><line class="cls-1" x1="8.35" y1="233.76" x2="74" y2="260.16"/><line class="cls-1" x1="74" y1="260.16" x2="103.09" y2="187.82"/><line class="cls-1" x1="131.24" y1="100.22" x2="121.93" y2="134.58"/><line class="cls-1" x1="121.93" y1="134.58" x2="285.49" y2="193.21"/><line class="cls-1" x1="285.49" y1="193.21" x2="297.47" y2="159.81"/><line class="cls-1" x1="297.47" y1="159.81" x2="131.24" y2="100.22"/><line class="cls-2" x1="149.13" y1="247.22" x2="164.15" y2="209.85"/><line class="cls-2" x1="164.15" y1="209.85" x2="107.07" y2="186.89"/><line class="cls-1" x1="125.51" y1="138.36" x2="286.91" y2="196.21"/><line class="cls-1" x1="286.91" y1="196.21" x2="300.47" y2="158.39"/><line class="cls-1" x1="300.47" y1="158.39" x2="131.86" y2="97.95"/><line class="cls-1" x1="123.3" y1="137.56" x2="54.89" y2="118.01"/><line class="cls-2" x1="149.13" y1="247.22" x2="92.04" y2="224.26"/><line class="cls-1" x1="103.09" y1="187.82" x2="123.3" y2="137.56"/><line class="cls-2" x1="75.31" y1="263.21" x2="149.57" y2="292.44"/><line class="cls-2" x1="149.57" y1="292.44" x2="197.94" y2="164.32"/><line class="cls-2" x1="92.04" y1="224.26" x2="107.07" y2="186.89"/>
</svg>