<svg id="11-oex-plan" class="project-plan" xmlns="http://www.w3.org/2000/svg" viewBox="0 0 150.74 266.02">
<line class="cls-2" x1="6.61" y1="142.15" x2="6.61" y2="265.76"/><line class="cls-2" x1="6.61" y1="265.76" x2="107.86" y2="265.76"/><line class="cls-2" x1="107.86" y1="265.76" x2="107.86" y2="192.82"/><line class="cls-2" x1="107.86" y1="192.82" x2="146.12" y2="192.82"/><line class="cls-2" x1="146.12" y1="192.82" x2="146.12" y2="142.15"/><line class="cls-1" x1="43.42" y1="142.15" x2="42.59" y2="141.06"/><line class="cls-1" x1="42.59" y1="141.06" x2="44.76" y2="130.16"/><line class="cls-1" x1="44.76" y1="130.16" x2="55.11" y2="120.99"/><line class="cls-1" x1="55.11" y1="120.99" x2="68.63" y2="126.75"/><line class="cls-1" x1="68.63" y1="126.75" x2="71.76" y2="134.94"/><line class="cls-1" x1="71.76" y1="134.93" x2="68.19" y2="142.16"/><line class="cls-1" x1="54.05" y1="102.97" x2="79.8" y2="106.6"/><line class="cls-1" x1="79.8" y1="106.6" x2="79.95" y2="107.01"/><line class="cls-1" x1="79.95" y1="107.01" x2="69.02" y2="124.68"/><line class="cls-1" x1="69.02" y1="124.68" x2="55.85" y2="119.06"/><line class="cls-1" x1="55.85" y1="119.06" x2="53.55" y2="103.98"/><line class="cls-1" x1="53.55" y1="103.98" x2="54.05" y2="102.97"/><line class="cls-1" x1="81.46" y1="108.51" x2="93.02" y2="115.1"/><line class="cls-1" x1="93.02" y1="115.1" x2="90.29" y2="133.32"/><line class="cls-1" x1="90.29" y1="133.32" x2="73.58" y2="133.93"/><line class="cls-1" x1="73.58" y1="133.93" x2="70.58" y2="126.09"/><line class="cls-1" x1="70.58" y1="126.09" x2="81.46" y2="108.51"/><line class="cls-2" x1="146.12" y1="142.15" x2="6.61" y2="142.15"/><line class="cls-1" x1="110.56" y1="110.85" x2="112.13" y2="108.45"/><line class="cls-1" x1="112.13" y1="108.45" x2="128.52" y2="106.95"/><line class="cls-1" x1="128.52" y1="106.95" x2="132.3" y2="111.36"/><line class="cls-1" x1="132.3" y1="111.36" x2="128.88" y2="131.41"/><line class="cls-1" x1="128.88" y1="131.41" x2="123.7" y2="136.38"/><line class="cls-1" x1="123.7" y1="136.38" x2="116.46" y2="130.49"/><line class="cls-1" x1="116.46" y1="130.49" x2="110.56" y2="110.85"/><line class="cls-2" x1="142.99" y1="145.28" x2="142.99" y2="189.69"/><line class="cls-2" x1="142.99" y1="189.69" x2="104.74" y2="189.69"/><line class="cls-2" x1="104.74" y1="189.69" x2="104.74" y2="262.64"/><line class="cls-2" x1="104.74" y1="262.64" x2="9.73" y2="262.64"/><line class="cls-2" x1="9.73" y1="262.64" x2="9.73" y2="145.28"/><line class="cls-2" x1="9.73" y1="145.28" x2="142.99" y2="145.28"/><line class="cls-1" x1="95.12" y1="115.37" x2="108.72" y2="111.93"/><line class="cls-1" x1="108.72" y1="111.93" x2="113.9" y2="130.4"/><line class="cls-1" x1="113.9" y1="130.4" x2="93.5" y2="134.99"/><line class="cls-1" x1="93.5" y1="134.99" x2="92.29" y2="133.92"/><line class="cls-1" x1="92.29" y1="133.92" x2="95.12" y2="115.37"/><line class="cls-2" x1=".25" y1="93.39" x2="6.61" y2="4.7"/><line class="cls-2" x1="6.61" y1="4.7" x2="108.03" y2=".25"/><line class="cls-2" x1="108.03" y1=".25" x2="150.48" y2="2.54"/><line class="cls-2" x1="150.48" y1="2.54" x2="147.13" y2="90.5"/><line class="cls-2" x1="147.13" y1="90.5" x2="43.42" y2="96.06"/><line class="cls-2" x1="43.42" y1="96.06" x2=".26" y2="93.39"/><line class="cls-2" x1="3.6" y1="90.46" x2="9.53" y2="7.7"/><line class="cls-2" x1="9.53" y1="7.7" x2="108.01" y2="3.39"/><line class="cls-2" x1="108.01" y1="3.39" x2="147.24" y2="5.49"/><line class="cls-2" x1="147.24" y1="5.49" x2="144.11" y2="87.54"/><line class="cls-2" x1="144.11" y1="87.54" x2="43.43" y2="92.93"/><line class="cls-2" x1="43.43" y1="92.93" x2="3.6" y2="90.46"/><line class="cls-1" x1="15.44" y1="122.58" x2="31.11" y2="139.89"/><line class="cls-1" x1="31.11" y1="139.89" x2="40.78" y2="140.22"/><line class="cls-1" x1="40.78" y1="140.22" x2="42.96" y2="129.99"/><line class="cls-1" x1="42.96" y1="129.99" x2="27.74" y2="114.31"/><line class="cls-1" x1="27.74" y1="114.31" x2="15.44" y2="122.58"/><line class="cls-1" x1="29.05" y1="112.95" x2="44.14" y2="128.04"/><line class="cls-1" x1="44.14" y1="128.04" x2="53.99" y2="119.48"/><line class="cls-1" x1="53.99" y1="119.48" x2="51.83" y2="105.29"/><line class="cls-1" x1="51.83" y1="105.29" x2="29.55" y2="111.22"/><line class="cls-1" x1="29.55" y1="111.22" x2="29.05" y2="112.95"/><line class="cls-1" x1="91.17" y1="93.5" x2="82.46" y2="100.48"/><line class="cls-1" x1="82.46" y1="100.48" x2="81.62" y2="105.2"/><line class="cls-1" x1="81.62" y1="105.21" x2="94.22" y2="113.26"/><line class="cls-1" x1="94.22" y1="113.26" x2="108.09" y2="109.88"/><line class="cls-1" x1="108.09" y1="109.88" x2="110.34" y2="107.15"/><line class="cls-1" x1="110.34" y1="107.15" x2="108.86" y2="100.76"/><line class="cls-1" x1="108.86" y1="100.76" x2="98.11" y2="93.13"/><line class="cls-1" x1="54.07" y1="95.49" x2="54.07" y2="100.58"/><line class="cls-1" x1="54.07" y1="100.58" x2="79.44" y2="104.28"/><line class="cls-1" x1="79.44" y1="104.28" x2="80.03" y2="100.27"/><line class="cls-1" x1="80.03" y1="100.27" x2="76.81" y2="94.27"/><line class="cls-1" x1="25.15" y1="97.04" x2="28.77" y2="108.62"/><line class="cls-1" x1="28.77" y1="108.62" x2="51.2" y2="102.88"/><line class="cls-1" x1="51.2" y1="102.88" x2="51.88" y2="101.7"/><line class="cls-1" x1="51.88" y1="101.7" x2="51.55" y2="95.63"/><line class="cls-1" x1="93.31" y1="142.15" x2="92.27" y2="136.94"/><line class="cls-1" x1="92.27" y1="136.94" x2="90.83" y2="135.49"/><line class="cls-1" x1="90.83" y1="135.49" x2="73.29" y2="136.15"/><line class="cls-1" x1="73.29" y1="136.15" x2="70.23" y2="142.16"/><line class="cls-1" x1="114.05" y1="92.28" x2="110.54" y2="100.08"/><line class="cls-1" x1="110.54" y1="100.08" x2="112.35" y2="105.87"/><line class="cls-1" x1="112.35" y1="105.87" x2="128.18" y2="104.69"/><line class="cls-1" x1="128.18" y1="104.69" x2="134.48" y2="91.18"/><line class="cls-1" x1="24.48" y1="94.89" x2="25.15" y2="97.04"/>
</svg>