<?xml version="1.0" encoding="UTF-8"?><svg id="Layer_2" xmlns="http://www.w3.org/2000/svg" viewBox="0 0 295.85 297"><defs><style>.cls-1{stroke-width:.51px;}.cls-1,.cls-2{fill:none;stroke:#000;stroke-linecap:round;stroke-linejoin:round;}.cls-2{stroke-width:.25px;}</style></defs><g id="Layer_1-2"><g><line class="cls-1" x1="230.7" y1="289.67" x2="223.58" y2="296.75"/><line class="cls-1" x1="223.58" y1="296.75" x2="35.32" y2="107.21"/><line class="cls-1" x1="35.32" y1="107.21" x2="42.29" y2="100.29"/><line class="cls-1" x1="105.66" y1="39.55" x2="290.06" y2="225.2"/><line class="cls-1" x1="290.06" y1="225.2" x2="223.59" y2="291.22"/><line class="cls-1" x1="223.59" y1="291.22" x2="39.19" y2="105.57"/><line class="cls-1" x1="39.19" y1="105.57" x2="43.4" y2="101.39"/><line class="cls-2" x1="169.33" y1="111.97" x2="196.61" y2="139.25"/><line class="cls-2" x1="85.39" y1="27.45" x2="27.31" y2="85.23"/><line class="cls-2" x1="81.52" y1="23.57" x2="23.45" y2="81.34"/><line class="cls-2" x1="77.66" y1="19.68" x2="19.58" y2="77.46"/><line class="cls-2" x1="73.79" y1="15.8" x2="15.72" y2="73.57"/><line class="cls-2" x1="69.93" y1="11.91" x2="11.85" y2="69.69"/><line class="cls-2" x1="66.06" y1="8.02" x2="7.99" y2="65.8"/><line class="cls-2" x1="62.2" y1="4.14" x2="4.12" y2="61.92"/><line class="cls-2" x1="58.33" y1=".25" x2=".26" y2="58.03"/><line class="cls-1" x1=".25" y1="58.03" x2="130.8" y2="189.25"/><line class="cls-1" x1="130.8" y1="189.26" x2="138.53" y2="197.03"/><line class="cls-1" x1="58.33" y1=".25" x2="196.61" y2="139.25"/><line class="cls-2" x1="169.55" y1="112.05" x2="111.48" y2="169.83"/><line class="cls-2" x1="173.42" y1="115.94" x2="115.34" y2="173.71"/><line class="cls-2" x1="177.28" y1="119.82" x2="119.21" y2="177.6"/><line class="cls-2" x1="181.15" y1="123.71" x2="123.07" y2="181.48"/><line class="cls-2" x1="185.01" y1="127.59" x2="126.94" y2="185.37"/><line class="cls-2" x1="188.88" y1="131.48" x2="130.8" y2="189.26"/><line class="cls-2" x1="192.74" y1="135.36" x2="134.67" y2="193.14"/><line class="cls-2" x1="196.61" y1="139.25" x2="138.53" y2="197.03"/><line class="cls-2" x1="165.69" y1="108.17" x2="107.61" y2="165.94"/><line class="cls-2" x1="161.82" y1="104.28" x2="103.75" y2="162.06"/><line class="cls-1" x1="100.41" y1="42.56" x2="107.33" y2="35.68"/><line class="cls-1" x1="107.33" y1="35.68" x2="295.59" y2="225.22"/><line class="cls-1" x1="295.59" y1="225.22" x2="288.82" y2="231.94"/><line class="cls-1" x1="101.52" y1="43.66" x2="105.66" y2="39.55"/><line class="cls-2" x1="42.29" y1="100.29" x2="100.41" y2="42.56"/><line class="cls-1" x1="288.82" y1="231.94" x2="230.7" y2="289.67"/><line class="cls-2" x1="43.4" y1="101.4" x2="101.52" y2="43.67"/></g></g></svg>