<?xml version="1.0" encoding="UTF-8"?><svg id="Layer_2" xmlns="http://www.w3.org/2000/svg" viewBox="0 0 253.9 261.58"><defs><style>.cls-1{stroke-width:.51px;}.cls-1,.cls-2{fill:none;stroke:#000;stroke-linecap:round;stroke-linejoin:round;}.cls-2{stroke-width:.25px;}</style></defs><g id="Layer_1-2"><g><line class="cls-1" x1=".26" y1="163.24" x2="118.83" y2=".25"/><line class="cls-1" x1="118.83" y1=".25" x2="253.64" y2="98.34"/><line class="cls-1" x1="253.64" y1="98.34" x2="166.52" y2="218.09"/><line class="cls-1" x1="166.52" y1="218.09" x2="135.07" y2="261.32"/><line class="cls-1" x1="135.07" y1="261.32" x2=".25" y2="163.24"/><line class="cls-1" x1="49.55" y1="194.27" x2="110.55" y2="110.41"/><line class="cls-1" x1="110.55" y1="110.41" x2="151.38" y2="140.12"/><line class="cls-1" x1="151.38" y1="140.12" x2="90.38" y2="223.97"/><line class="cls-2" x1="121.79" y1="95.96" x2="138.11" y2="73.53"/><line class="cls-2" x1="138.11" y1="73.53" x2="184.33" y2="107.15"/><line class="cls-2" x1="184.33" y1="107.15" x2="168.01" y2="129.59"/><line class="cls-2" x1="168.01" y1="129.59" x2="121.79" y2="95.96"/><line class="cls-1" x1="46.39" y1="191.97" x2="5.71" y2="162.38"/><line class="cls-1" x1="5.71" y1="162.38" x2="67.32" y2="77.7"/><line class="cls-1" x1="46.39" y1="191.97" x2="109.69" y2="104.95"/><line class="cls-1" x1="109.69" y1="104.95" x2="156.84" y2="139.26"/><line class="cls-1" x1="156.84" y1="139.26" x2="93.54" y2="226.27"/><line class="cls-1" x1="90.38" y1="223.97" x2="49.55" y2="194.27"/><line class="cls-1" x1="190.37" y1="178.66" x2="163.36" y2="215.79"/><line class="cls-1" x1="163.36" y1="215.79" x2="134.21" y2="255.86"/><line class="cls-1" x1="134.21" y1="255.86" x2="93.54" y2="226.27"/><line class="cls-1" x1="215.95" y1="143.5" x2="190.37" y2="178.66"/><line class="cls-1" x1="67.32" y1="77.7" x2="119.69" y2="5.72"/><line class="cls-1" x1="119.69" y1="5.72" x2="248.18" y2="99.2"/><line class="cls-1" x1="248.18" y1="99.2" x2="215.95" y2="143.5"/><line class="cls-2" x1="86.7" y1="51.06" x2="118.02" y2="73.85"/><line class="cls-2" x1="118.02" y1="73.85" x2="98.64" y2="100.49"/><line class="cls-2" x1="98.64" y1="100.49" x2="67.32" y2="77.7"/><line class="cls-2" x1="190.37" y1="178.66" x2="165.39" y2="160.48"/><line class="cls-2" x1="165.38" y1="160.48" x2="190.96" y2="125.32"/><line class="cls-2" x1="190.96" y1="125.32" x2="215.95" y2="143.5"/></g></g></svg>