<svg id="15-meg-plan" class="project-plan" xmlns="http://www.w3.org/2000/svg" viewBox="0 0 264.16 264.03">
<path class="cls-1" d="M234.16,215.36c-.21,.26-.43,.52-.64,.78"/><path class="cls-1" d="M231.14,212.88c-.21,.26-.42,.51-.63,.76"/><path class="cls-1" d="M195.64,183.88c-.13,.16-.27,.32-.4,.49"/><path class="cls-1" d="M197.46,185.37c-.14,.17-.27,.33-.41,.5"/><path class="cls-1" d="M233.52,216.14c-25.04,30.18-62.22,47.64-101.44,47.64C59.28,263.78,.25,204.76,.25,131.95c0-30.74,10.75-60.53,30.38-84.19"/><path class="cls-1" d="M195.24,184.37c-15.59,18.79-38.74,29.66-63.16,29.66-45.33,0-82.08-36.75-82.08-82.08,0-19.14,6.69-37.68,18.92-52.42"/><path class="cls-1" d="M197.04,185.87c-16.04,19.33-39.85,30.51-64.97,30.51-46.63,0-84.42-37.8-84.42-84.42,0-19.69,6.88-38.76,19.46-53.91"/><path class="cls-1" d="M230.51,213.64c-24.3,29.28-60.38,46.23-98.43,46.23-70.64,0-127.91-57.27-127.91-127.92,0-29.83,10.43-58.73,29.48-81.69"/><path class="cls-1" d="M70.08,15.62C85.53,7.38,102.46,2.31,119.88,.69"/><path class="cls-1" d="M71.92,19.07c14.99-7.99,31.41-12.91,48.32-14.48"/><path class="cls-1" d="M93.48,59.52c9.62-5.12,20.16-8.28,31.01-9.29"/><path class="cls-1" d="M92.38,57.45c9.89-5.27,20.73-8.52,31.89-9.56"/><path class="cls-1" d="M171.06,6.02c55.2,17.09,92.84,68.14,92.84,125.93,0,13.22-1.99,26.36-5.9,38.98"/><path class="cls-1" d="M169.91,9.76c53.56,16.58,90.09,66.12,90.09,122.19,0,12.83-1.93,25.58-5.72,37.83"/><path class="cls-1" d="M156.35,53.54c34.37,10.64,57.8,42.43,57.8,78.41,0,8.23-1.24,16.41-3.67,24.28"/><path class="cls-1" d="M157.05,51.3c35.35,10.95,59.46,43.64,59.46,80.65,0,8.47-1.27,16.88-3.78,24.97"/><path class="cls-2" d="M68.92,79.53c6.81-8.21,15.15-15,24.56-20.02"/><path class="cls-2" d="M30.64,47.76c10.94-13.17,24.33-24.09,39.44-32.15"/><path class="cls-2" d="M124.49,50.22c2.52-.23,5.06-.35,7.59-.35,8.23,0,16.41,1.24,24.27,3.67"/><path class="cls-2" d="M119.88,.69c4.05-.38,8.12-.57,12.2-.57,13.22,0,26.36,1.99,38.98,5.9"/><path class="cls-2" d="M210.49,156.23c-3.15,10.19-8.26,19.66-15.04,27.89"/><path class="cls-2" d="M258.01,170.94c-5.07,16.36-13.27,31.57-24.15,44.79"/><line class="cls-1" x1="30.64" y1="47.76" x2="68.92" y2="79.53"/><line class="cls-1" x1="70.08" y1="15.62" x2="93.48" y2="59.52"/><line class="cls-1" x1="119.88" y1=".69" x2="124.49" y2="50.22"/><line class="cls-1" x1="171.06" y1="6.02" x2="156.35" y2="53.54"/><line class="cls-1" x1="234.16" y1="215.36" x2="195.64" y2="183.88"/><line class="cls-1" x1="258.01" y1="170.94" x2="210.49" y2="156.23"/>
</svg>