<?xml version="1.0" encoding="UTF-8"?><svg id="Layer_2" xmlns="http://www.w3.org/2000/svg" viewBox="0 0 388.11 272.91"><defs><style>.cls-1{stroke-width:1.13px;}.cls-1,.cls-2{fill:none;stroke:#000;stroke-linecap:round;stroke-linejoin:round;}.cls-2{stroke-width:.25px;}</style></defs><g id="Layer_1-2"><g><line class="cls-2" x1="383.6" y1=".13" x2="4.47" y2="1.25"/><line class="cls-2" x1="4.47" y1="1.25" x2="4.91" y2="266.34"/><line class="cls-2" x1="4.91" y1="266.34" x2="383.63" y2="266.44"/><line class="cls-2" x1="383.63" y1="266.44" x2="383.6" y2=".13"/><line class="cls-2" x1="379.69" y1="1.7" x2="8.39" y2="2.8"/><line class="cls-2" x1="8.39" y1="2.8" x2="8.81" y2="262.44"/><line class="cls-2" x1="8.81" y1="262.44" x2="379.72" y2="262.53"/><line class="cls-2" x1="379.72" y1="262.53" x2="379.69" y2="1.7"/><line class="cls-1" x1=".57" y1="2.82" x2="1.01" y2="270.25"/><line class="cls-1" x1="1.01" y1="270.25" x2="387.54" y2="270.34"/><line class="cls-1" x1="387.54" y1="270.34" x2="387.51" y2="1.7"/><line class="cls-2" x1="14.63" y1="272.49" x2="16.71" y2="272.62"/><line class="cls-2" x1="7.88" y1="272.79" x2="10.06" y2="272.43"/><line class="cls-2" x1="5.55" y1="272.74" x2="6.71" y2="272.52"/><line class="cls-2" x1="6.71" y1="272.52" x2="7.87" y2="272.79"/><line class="cls-2" x1="13.89" y1="272.7" x2="14.63" y2="272.49"/><line class="cls-2" x1="10.06" y1="272.43" x2="13.89" y2="272.7"/><line class="cls-2" x1="1.08" y1="272.62" x2="4" y2="272.4"/><line class="cls-2" x1="4" y1="272.4" x2="5.55" y2="272.74"/><line class="cls-2" x1="30.26" y1="272.49" x2="32.35" y2="272.62"/><line class="cls-2" x1="23.51" y1="272.79" x2="25.69" y2="272.43"/><line class="cls-2" x1="21.19" y1="272.74" x2="22.35" y2="272.52"/><line class="cls-2" x1="22.35" y1="272.52" x2="23.51" y2="272.79"/><line class="cls-2" x1="29.53" y1="272.7" x2="30.26" y2="272.49"/><line class="cls-2" x1="25.69" y1="272.43" x2="29.53" y2="272.7"/><line class="cls-2" x1="16.71" y1="272.62" x2="19.63" y2="272.4"/><line class="cls-2" x1="19.63" y1="272.4" x2="21.19" y2="272.74"/><line class="cls-2" x1="45.9" y1="272.49" x2="47.98" y2="272.62"/><line class="cls-2" x1="39.14" y1="272.79" x2="41.33" y2="272.43"/><line class="cls-2" x1="36.82" y1="272.74" x2="37.98" y2="272.52"/><line class="cls-2" x1="37.98" y1="272.52" x2="39.14" y2="272.79"/><line class="cls-2" x1="45.16" y1="272.7" x2="45.9" y2="272.49"/><line class="cls-2" x1="41.33" y1="272.43" x2="45.16" y2="272.7"/><line class="cls-2" x1="32.35" y1="272.62" x2="35.27" y2="272.4"/><line class="cls-2" x1="35.27" y1="272.4" x2="36.82" y2="272.74"/><line class="cls-2" x1="61.53" y1="272.49" x2="63.62" y2="272.62"/><line class="cls-2" x1="54.78" y1="272.79" x2="56.96" y2="272.43"/><line class="cls-2" x1="52.46" y1="272.74" x2="53.62" y2="272.52"/><line class="cls-2" x1="53.62" y1="272.52" x2="54.78" y2="272.79"/><line class="cls-2" x1="60.79" y1="272.7" x2="61.53" y2="272.49"/><line class="cls-2" x1="56.96" y1="272.43" x2="60.79" y2="272.7"/><line class="cls-2" x1="47.98" y1="272.62" x2="50.9" y2="272.4"/><line class="cls-2" x1="50.9" y1="272.4" x2="52.46" y2="272.74"/><line class="cls-2" x1="77.17" y1="272.49" x2="79.25" y2="272.62"/><line class="cls-2" x1="70.41" y1="272.79" x2="72.6" y2="272.43"/><line class="cls-2" x1="68.09" y1="272.74" x2="69.25" y2="272.52"/><line class="cls-2" x1="69.25" y1="272.52" x2="70.41" y2="272.79"/><line class="cls-2" x1="76.43" y1="272.7" x2="77.17" y2="272.49"/><line class="cls-2" x1="72.6" y1="272.43" x2="76.43" y2="272.7"/><line class="cls-2" x1="63.62" y1="272.62" x2="66.54" y2="272.4"/><line class="cls-2" x1="66.54" y1="272.4" x2="68.09" y2="272.74"/><line class="cls-2" x1="92.8" y1="272.49" x2="94.89" y2="272.62"/><line class="cls-2" x1="86.05" y1="272.79" x2="88.23" y2="272.43"/><line class="cls-2" x1="83.73" y1="272.74" x2="84.89" y2="272.52"/><line class="cls-2" x1="84.89" y1="272.52" x2="86.05" y2="272.79"/><line class="cls-2" x1="92.06" y1="272.7" x2="92.8" y2="272.49"/><line class="cls-2" x1="88.23" y1="272.43" x2="92.06" y2="272.7"/><line class="cls-2" x1="79.25" y1="272.62" x2="82.17" y2="272.4"/><line class="cls-2" x1="82.17" y1="272.4" x2="83.73" y2="272.74"/><line class="cls-2" x1="108.43" y1="272.49" x2="110.52" y2="272.62"/><line class="cls-2" x1="101.68" y1="272.79" x2="103.87" y2="272.43"/><line class="cls-2" x1="99.36" y1="272.74" x2="100.52" y2="272.52"/><line class="cls-2" x1="100.52" y1="272.52" x2="101.68" y2="272.79"/><line class="cls-2" x1="107.7" y1="272.7" x2="108.44" y2="272.49"/><line class="cls-2" x1="103.87" y1="272.43" x2="107.7" y2="272.7"/><line class="cls-2" x1="94.88" y1="272.62" x2="97.81" y2="272.4"/><line class="cls-2" x1="97.81" y1="272.4" x2="99.36" y2="272.74"/><line class="cls-2" x1="124.07" y1="272.49" x2="126.15" y2="272.62"/><line class="cls-2" x1="117.32" y1="272.79" x2="119.5" y2="272.43"/><line class="cls-2" x1="115" y1="272.74" x2="116.16" y2="272.52"/><line class="cls-2" x1="116.16" y1="272.52" x2="117.32" y2="272.79"/><line class="cls-2" x1="123.33" y1="272.7" x2="124.07" y2="272.49"/><line class="cls-2" x1="119.5" y1="272.43" x2="123.33" y2="272.7"/><line class="cls-2" x1="110.52" y1="272.62" x2="113.44" y2="272.4"/><line class="cls-2" x1="113.44" y1="272.4" x2="115" y2="272.74"/><line class="cls-2" x1="139.7" y1="272.49" x2="141.79" y2="272.62"/><line class="cls-2" x1="132.95" y1="272.79" x2="135.14" y2="272.43"/><line class="cls-2" x1="130.63" y1="272.74" x2="131.79" y2="272.52"/><line class="cls-2" x1="131.79" y1="272.52" x2="132.95" y2="272.79"/><line class="cls-2" x1="138.97" y1="272.7" x2="139.7" y2="272.49"/><line class="cls-2" x1="135.14" y1="272.43" x2="138.97" y2="272.7"/><line class="cls-2" x1="126.15" y1="272.62" x2="129.08" y2="272.4"/><line class="cls-2" x1="129.08" y1="272.4" x2="130.63" y2="272.74"/><line class="cls-2" x1="155.34" y1="272.49" x2="157.42" y2="272.62"/><line class="cls-2" x1="148.59" y1="272.79" x2="150.77" y2="272.43"/><line class="cls-2" x1="146.26" y1="272.74" x2="147.43" y2="272.52"/><line class="cls-2" x1="147.43" y1="272.52" x2="148.59" y2="272.79"/><line class="cls-2" x1="154.6" y1="272.7" x2="155.34" y2="272.49"/><line class="cls-2" x1="150.77" y1="272.43" x2="154.6" y2="272.7"/><line class="cls-2" x1="141.79" y1="272.62" x2="144.71" y2="272.4"/><line class="cls-2" x1="144.71" y1="272.4" x2="146.27" y2="272.74"/><line class="cls-2" x1="170.97" y1="272.49" x2="173.06" y2="272.62"/><line class="cls-2" x1="164.22" y1="272.79" x2="166.41" y2="272.43"/><line class="cls-2" x1="161.9" y1="272.74" x2="163.06" y2="272.52"/><line class="cls-2" x1="163.06" y1="272.52" x2="164.22" y2="272.79"/><line class="cls-2" x1="170.24" y1="272.7" x2="170.97" y2="272.49"/><line class="cls-2" x1="166.41" y1="272.43" x2="170.24" y2="272.7"/><line class="cls-2" x1="157.42" y1="272.62" x2="160.34" y2="272.4"/><line class="cls-2" x1="160.34" y1="272.4" x2="161.9" y2="272.74"/><line class="cls-2" x1="186.61" y1="272.49" x2="188.69" y2="272.62"/><line class="cls-2" x1="179.86" y1="272.79" x2="182.04" y2="272.43"/><line class="cls-2" x1="177.53" y1="272.74" x2="178.7" y2="272.52"/><line class="cls-2" x1="178.7" y1="272.52" x2="179.86" y2="272.79"/><line class="cls-2" x1="185.87" y1="272.7" x2="186.61" y2="272.49"/><line class="cls-2" x1="182.04" y1="272.43" x2="185.87" y2="272.7"/><line class="cls-2" x1="173.06" y1="272.62" x2="175.98" y2="272.4"/><line class="cls-2" x1="175.98" y1="272.4" x2="177.53" y2="272.74"/><line class="cls-2" x1="202.24" y1="272.49" x2="204.33" y2="272.62"/><line class="cls-2" x1="195.49" y1="272.79" x2="197.67" y2="272.43"/><line class="cls-2" x1="193.17" y1="272.74" x2="194.33" y2="272.52"/><line class="cls-2" x1="194.33" y1="272.52" x2="195.49" y2="272.79"/><line class="cls-2" x1="201.51" y1="272.7" x2="202.24" y2="272.49"/><line class="cls-2" x1="197.67" y1="272.43" x2="201.51" y2="272.7"/><line class="cls-2" x1="188.69" y1="272.62" x2="191.61" y2="272.4"/><line class="cls-2" x1="191.61" y1="272.4" x2="193.17" y2="272.74"/><line class="cls-2" x1="217.88" y1="272.49" x2="219.96" y2="272.62"/><line class="cls-2" x1="211.13" y1="272.79" x2="213.31" y2="272.43"/><line class="cls-2" x1="208.8" y1="272.74" x2="209.97" y2="272.52"/><line class="cls-2" x1="209.97" y1="272.52" x2="211.12" y2="272.79"/><line class="cls-2" x1="217.14" y1="272.7" x2="217.88" y2="272.49"/><line class="cls-2" x1="213.31" y1="272.43" x2="217.14" y2="272.7"/><line class="cls-2" x1="204.33" y1="272.62" x2="207.25" y2="272.4"/><line class="cls-2" x1="207.25" y1="272.4" x2="208.8" y2="272.74"/><line class="cls-2" x1="233.51" y1="272.49" x2="235.6" y2="272.62"/><line class="cls-2" x1="226.76" y1="272.79" x2="228.94" y2="272.43"/><line class="cls-2" x1="224.44" y1="272.74" x2="225.6" y2="272.52"/><line class="cls-2" x1="225.6" y1="272.52" x2="226.76" y2="272.79"/><line class="cls-2" x1="232.78" y1="272.7" x2="233.51" y2="272.49"/><line class="cls-2" x1="228.94" y1="272.43" x2="232.78" y2="272.7"/><line class="cls-2" x1="219.96" y1="272.62" x2="222.88" y2="272.4"/><line class="cls-2" x1="222.88" y1="272.4" x2="224.44" y2="272.74"/><line class="cls-2" x1="249.15" y1="272.49" x2="251.23" y2="272.62"/><line class="cls-2" x1="242.4" y1="272.79" x2="244.58" y2="272.43"/><line class="cls-2" x1="240.07" y1="272.74" x2="241.23" y2="272.52"/><line class="cls-2" x1="241.23" y1="272.52" x2="242.4" y2="272.79"/><line class="cls-2" x1="248.41" y1="272.7" x2="249.15" y2="272.49"/><line class="cls-2" x1="244.58" y1="272.43" x2="248.41" y2="272.7"/><line class="cls-2" x1="235.6" y1="272.62" x2="238.52" y2="272.4"/><line class="cls-2" x1="238.52" y1="272.4" x2="240.07" y2="272.74"/><line class="cls-2" x1="264.78" y1="272.49" x2="266.87" y2="272.62"/><line class="cls-2" x1="258.03" y1="272.79" x2="260.21" y2="272.43"/><line class="cls-2" x1="255.71" y1="272.74" x2="256.87" y2="272.52"/><line class="cls-2" x1="256.87" y1="272.52" x2="258.03" y2="272.79"/><line class="cls-2" x1="264.05" y1="272.7" x2="264.78" y2="272.49"/><line class="cls-2" x1="260.21" y1="272.43" x2="264.04" y2="272.7"/><line class="cls-2" x1="251.23" y1="272.62" x2="254.15" y2="272.4"/><line class="cls-2" x1="254.15" y1="272.4" x2="255.71" y2="272.74"/><line class="cls-2" x1="280.42" y1="272.49" x2="282.5" y2="272.62"/><line class="cls-2" x1="273.67" y1="272.79" x2="275.85" y2="272.43"/><line class="cls-2" x1="271.34" y1="272.74" x2="272.5" y2="272.52"/><line class="cls-2" x1="272.5" y1="272.52" x2="273.67" y2="272.79"/><line class="cls-2" x1="279.68" y1="272.7" x2="280.42" y2="272.49"/><line class="cls-2" x1="275.85" y1="272.43" x2="279.68" y2="272.7"/><line class="cls-2" x1="266.87" y1="272.62" x2="269.79" y2="272.4"/><line class="cls-2" x1="269.79" y1="272.4" x2="271.34" y2="272.74"/><line class="cls-2" x1="296.05" y1="272.49" x2="298.13" y2="272.62"/><line class="cls-2" x1="289.3" y1="272.79" x2="291.49" y2="272.43"/><line class="cls-2" x1="286.98" y1="272.74" x2="288.14" y2="272.52"/><line class="cls-2" x1="288.14" y1="272.52" x2="289.3" y2="272.79"/><line class="cls-2" x1="295.31" y1="272.7" x2="296.05" y2="272.49"/><line class="cls-2" x1="291.48" y1="272.43" x2="295.31" y2="272.7"/><line class="cls-2" x1="282.5" y1="272.62" x2="285.42" y2="272.4"/><line class="cls-2" x1="285.42" y1="272.4" x2="286.98" y2="272.74"/><line class="cls-2" x1="311.69" y1="272.49" x2="313.77" y2="272.62"/><line class="cls-2" x1="304.93" y1="272.79" x2="307.12" y2="272.43"/><line class="cls-2" x1="302.61" y1="272.74" x2="303.77" y2="272.52"/><line class="cls-2" x1="303.77" y1="272.52" x2="304.93" y2="272.79"/><line class="cls-2" x1="310.95" y1="272.7" x2="311.69" y2="272.49"/><line class="cls-2" x1="307.12" y1="272.43" x2="310.95" y2="272.7"/><line class="cls-2" x1="298.13" y1="272.62" x2="301.06" y2="272.4"/><line class="cls-2" x1="301.06" y1="272.4" x2="302.61" y2="272.74"/><line class="cls-2" x1="327.32" y1="272.49" x2="329.41" y2="272.62"/><line class="cls-2" x1="320.57" y1="272.79" x2="322.75" y2="272.43"/><line class="cls-2" x1="318.25" y1="272.74" x2="319.41" y2="272.52"/><line class="cls-2" x1="319.41" y1="272.52" x2="320.57" y2="272.79"/><line class="cls-2" x1="326.59" y1="272.7" x2="327.32" y2="272.49"/><line class="cls-2" x1="322.75" y1="272.43" x2="326.59" y2="272.7"/><line class="cls-2" x1="313.77" y1="272.62" x2="316.69" y2="272.4"/><line class="cls-2" x1="316.69" y1="272.4" x2="318.25" y2="272.74"/><line class="cls-2" x1="342.96" y1="272.49" x2="345.04" y2="272.62"/><line class="cls-2" x1="336.2" y1="272.79" x2="338.39" y2="272.43"/><line class="cls-2" x1="333.88" y1="272.74" x2="335.04" y2="272.52"/><line class="cls-2" x1="335.04" y1="272.52" x2="336.2" y2="272.79"/><line class="cls-2" x1="342.22" y1="272.7" x2="342.96" y2="272.49"/><line class="cls-2" x1="338.39" y1="272.43" x2="342.22" y2="272.7"/><line class="cls-2" x1="329.41" y1="272.62" x2="332.33" y2="272.4"/><line class="cls-2" x1="332.33" y1="272.4" x2="333.88" y2="272.74"/><line class="cls-2" x1="358.59" y1="272.49" x2="360.68" y2="272.62"/><line class="cls-2" x1="351.84" y1="272.79" x2="354.02" y2="272.43"/><line class="cls-2" x1="349.52" y1="272.74" x2="350.68" y2="272.52"/><line class="cls-2" x1="350.68" y1="272.52" x2="351.84" y2="272.79"/><line class="cls-2" x1="357.86" y1="272.7" x2="358.59" y2="272.49"/><line class="cls-2" x1="354.02" y1="272.43" x2="357.85" y2="272.7"/><line class="cls-2" x1="345.04" y1="272.62" x2="347.96" y2="272.4"/><line class="cls-2" x1="347.96" y1="272.4" x2="349.52" y2="272.74"/><line class="cls-2" x1="374.23" y1="272.49" x2="376.31" y2="272.62"/><line class="cls-2" x1="367.47" y1="272.79" x2="369.66" y2="272.43"/><line class="cls-2" x1="365.15" y1="272.74" x2="366.31" y2="272.52"/><line class="cls-2" x1="366.31" y1="272.52" x2="367.47" y2="272.79"/><line class="cls-2" x1="373.49" y1="272.7" x2="374.23" y2="272.49"/><line class="cls-2" x1="369.66" y1="272.43" x2="373.49" y2="272.7"/><line class="cls-2" x1="360.68" y1="272.62" x2="363.6" y2="272.4"/><line class="cls-2" x1="363.6" y1="272.4" x2="365.15" y2="272.74"/><line class="cls-2" x1="383.11" y1="272.79" x2="385.29" y2="272.43"/><line class="cls-2" x1="380.78" y1="272.74" x2="381.95" y2="272.52"/><line class="cls-2" x1="381.95" y1="272.52" x2="383.11" y2="272.79"/><line class="cls-2" x1="385.29" y1="272.43" x2="387.51" y2="272.59"/><line class="cls-2" x1="376.31" y1="272.62" x2="379.23" y2="272.4"/><line class="cls-2" x1="379.23" y1="272.4" x2="380.78" y2="272.74"/></g></g></svg>