<?xml version="1.0" encoding="UTF-8"?><svg id="Layer_2" xmlns="http://www.w3.org/2000/svg" viewBox="0 0 319.32 261.58"><defs><style>.cls-1{fill:none;stroke:#000;stroke-linecap:round;stroke-linejoin:round;stroke-width:.51px;}</style></defs><g id="Layer_1-2"><g><line class="cls-1" x1="66.84" y1=".25" x2="319.06" y2="146.4"/><line class="cls-1" x1="319.06" y1="146.4" x2="252.47" y2="261.32"/><line class="cls-1" x1="252.47" y1="261.32" x2=".25" y2="115.17"/><line class="cls-1" x1=".26" y1="115.17" x2="66.84" y2=".26"/><line class="cls-1" x1="162.92" y1="204.91" x2="5.63" y2="113.77"/><line class="cls-1" x1="5.63" y1="113.77" x2="68.28" y2="5.65"/><line class="cls-1" x1="68.28" y1="5.65" x2="225.57" y2="96.79"/><line class="cls-1" x1="162.92" y1="204.91" x2="207.16" y2="128.56"/><line class="cls-1" x1="227.7" y1="98.03" x2="214.4" y2="120.99"/><line class="cls-1" x1="227.7" y1="98.03" x2="313.66" y2="147.84"/><line class="cls-1" x1="313.66" y1="147.84" x2="251.01" y2="255.96"/><line class="cls-1" x1="251.01" y1="255.96" x2="165.06" y2="206.15"/><line class="cls-1" x1="175.18" y1="182.57" x2="166.95" y2="177.8"/><line class="cls-1" x1="166.95" y1="177.8" x2="197.95" y2="124.29"/><line class="cls-1" x1="197.95" y1="124.29" x2="198.42" y2="123.49"/><line class="cls-1" x1="175.18" y1="182.57" x2="206.65" y2="128.26"/><line class="cls-1" x1="248.75" y1="134.33" x2="252.71" y2="127.49"/><line class="cls-1" x1="252.71" y1="127.49" x2="221.74" y2="109.55"/><line class="cls-1" x1="221.74" y1="109.55" x2="214.93" y2="121.3"/><line class="cls-1" x1="214.93" y1="121.3" x2="211.73" y2="119.44"/><line class="cls-1" x1="218.54" y1="107.69" x2="210.33" y2="102.94"/><line class="cls-1" x1="210.33" y1="102.94" x2="198.42" y2="123.49"/><line class="cls-1" x1="218.54" y1="107.69" x2="211.73" y2="119.44"/><line class="cls-1" x1="206.65" y1="128.26" x2="209.83" y2="130.11"/><line class="cls-1" x1="209.83" y1="130.11" x2="196.34" y2="153.39"/><line class="cls-1" x1="196.34" y1="153.39" x2="227.31" y2="171.33"/><line class="cls-1" x1="227.31" y1="171.33" x2="230.9" y2="165.13"/><line class="cls-1" x1="212.27" y1="119.75" x2="225.57" y2="96.79"/><line class="cls-1" x1="209.3" y1="129.8" x2="165.06" y2="206.15"/><line class="cls-1" x1="248.75" y1="134.33" x2="230.9" y2="165.14"/></g></g></svg>