<?xml version="1.0" encoding="UTF-8"?><svg id="Layer_2" xmlns="http://www.w3.org/2000/svg" viewBox="0 0 185.63 263.78"><defs><style>.cls-1{fill:none;stroke:#000;stroke-linecap:round;stroke-linejoin:round;stroke-width:.51px;}</style></defs><g id="Layer_1-2"><g><line class="cls-1" x1="78.61" y1="169.83" x2="78.25" y2="167.67"/><line class="cls-1" x1="78.25" y1="167.67" x2="80.41" y2="167.31"/><line class="cls-1" x1="80.41" y1="167.31" x2="80.77" y2="169.47"/><line class="cls-1" x1="80.77" y1="169.47" x2="78.61" y2="169.83"/><line class="cls-1" x1="73.55" y1="139.29" x2="73.19" y2="137.13"/><line class="cls-1" x1="73.19" y1="137.13" x2="75.35" y2="136.77"/><line class="cls-1" x1="75.35" y1="136.77" x2="75.71" y2="138.93"/><line class="cls-1" x1="75.71" y1="138.93" x2="73.55" y2="139.29"/><line class="cls-1" x1="68.4" y1="108.19" x2="68.04" y2="106.03"/><line class="cls-1" x1="68.04" y1="106.03" x2="70.2" y2="105.67"/><line class="cls-1" x1="70.2" y1="105.67" x2="70.56" y2="107.83"/><line class="cls-1" x1="70.56" y1="107.83" x2="68.4" y2="108.19"/><line class="cls-1" x1="63.27" y1="77.2" x2="62.91" y2="75.05"/><line class="cls-1" x1="62.91" y1="75.05" x2="65.07" y2="74.69"/><line class="cls-1" x1="65.07" y1="74.69" x2="65.43" y2="76.85"/><line class="cls-1" x1="65.43" y1="76.85" x2="63.27" y2="77.2"/><line class="cls-1" x1="58.15" y1="46.28" x2="57.79" y2="44.12"/><line class="cls-1" x1="57.79" y1="44.12" x2="59.95" y2="43.76"/><line class="cls-1" x1="59.95" y1="43.76" x2="60.31" y2="45.92"/><line class="cls-1" x1="60.31" y1="45.92" x2="58.15" y2="46.28"/><line class="cls-1" x1="14.36" y1="207.71" x2="24.67" y2="263.53"/><line class="cls-1" x1="24.67" y1="263.53" x2="185.38" y2="235.58"/><line class="cls-1" x1="185.38" y1="235.58" x2="175.86" y2="180.87"/><line class="cls-1" x1="175.86" y1="180.87" x2="133.04" y2="188.32"/><line class="cls-1" x1="133.04" y1="188.32" x2="99.64" y2=".26"/><line class="cls-1" x1="99.64" y1=".25" x2=".26" y2="3.74"/><line class="cls-1" x1=".25" y1="3.74" x2="35.13" y2="204.25"/><line class="cls-1" x1="35.13" y1="204.25" x2="14.36" y2="207.71"/><line class="cls-1" x1="129.87" y1="192.84" x2="18.92" y2="210.91"/><line class="cls-1" x1="18.92" y1="210.91" x2="27.81" y2="259.01"/><line class="cls-1" x1="27.81" y1="259.01" x2="180.86" y2="232.4"/><line class="cls-1" x1="180.86" y1="232.4" x2="172.68" y2="185.39"/><line class="cls-1" x1="172.68" y1="185.39" x2="129.87" y2="192.84"/><line class="cls-1" x1="38.98" y1="203.56" x2="39.02" y2="203.55"/><line class="cls-1" x1="39.02" y1="203.55" x2="129.18" y2="188.94"/><line class="cls-1" x1="129.18" y1="188.94" x2="96.39" y2="4.28"/><line class="cls-1" x1="96.39" y1="4.28" x2="4.87" y2="7.49"/><line class="cls-1" x1="4.87" y1="7.49" x2="38.98" y2="203.56"/></g></g></svg>