<svg id="19-fus-plan" class="project-plan" xmlns="http://www.w3.org/2000/svg" viewBox="0 0 172.6 264.82">
<line class="cls-1" x1="115" y1="43.01" x2="105.39" y2="71.21"/><line class="cls-1" x1="112.06" y1="73.48" x2="115.63" y2="74.35"/><line class="cls-1" x1="115.63" y1="74.35" x2="119.31" y2="74.32"/><line class="cls-1" x1="119.31" y1="74.32" x2="122.87" y2="73.39"/><line class="cls-1" x1="122.87" y1="73.39" x2="126.09" y2="71.62"/><line class="cls-1" x1="126.09" y1="71.62" x2="128.78" y2="69.12"/><line class="cls-1" x1="128.78" y1="69.12" x2="130.78" y2="66.03"/><line class="cls-1" x1="130.78" y1="66.03" x2="131.96" y2="62.56"/><line class="cls-1" x1="131.96" y1="62.55" x2="132.26" y2="58.89"/><line class="cls-1" x1="132.26" y1="58.89" x2="131.66" y2="55.27"/><line class="cls-1" x1="131.66" y1="55.27" x2="130.18" y2="51.9"/><line class="cls-1" x1="130.18" y1="51.9" x2="127.93" y2="48.99"/><line class="cls-1" x1="127.93" y1="48.99" x2="125.04" y2="46.73"/><line class="cls-1" x1="125.04" y1="46.73" x2="121.68" y2="45.23"/><line class="cls-1" x1="110.82" y1="77.18" x2="114.76" y2="78.3"/><line class="cls-1" x1="114.76" y1="78.3" x2="118.85" y2="78.55"/><line class="cls-1" x1="118.85" y1="78.55" x2="122.9" y2="77.91"/><line class="cls-1" x1="122.9" y1="77.91" x2="126.72" y2="76.42"/><line class="cls-1" x1="126.72" y1="76.42" x2="130.12" y2="74.13"/><line class="cls-1" x1="130.12" y1="74.13" x2="132.95" y2="71.17"/><line class="cls-1" x1="132.95" y1="71.17" x2="135.07" y2="67.67"/><line class="cls-1" x1="135.07" y1="67.67" x2="136.39" y2="63.79"/><line class="cls-1" x1="136.39" y1="63.79" x2="136.85" y2="59.72"/><line class="cls-1" x1="136.85" y1="59.72" x2="136.41" y2="55.64"/><line class="cls-1" x1="136.41" y1="55.64" x2="135.1" y2="51.76"/><line class="cls-1" x1="135.11" y1="51.76" x2="132.99" y2="48.25"/><line class="cls-1" x1="132.99" y1="48.25" x2="130.18" y2="45.27"/><line class="cls-1" x1="130.18" y1="45.27" x2="126.78" y2="42.98"/><line class="cls-1" x1="126.78" y1="42.98" x2="122.97" y2="41.46"/><line class="cls-1" x1="145.27" y1="110.72" x2="172.35" y2="31.82"/><line class="cls-1" x1="168.87" y1="34.74" x2="150.98" y2="28.41"/><line class="cls-1" x1="150.98" y1="28.41" x2="87.93" y2="6.08"/><line class="cls-1" x1="143.81" y1="107.74" x2="168.87" y2="34.74"/><line class="cls-1" x1="32.4" y1="250.44" x2="32.64" y2="249.75"/><line class="cls-1" x1="32.64" y1="249.75" x2="24.31" y2="244.99"/><line class="cls-1" x1="24.31" y1="244.99" x2="14.81" y2="243.68"/><line class="cls-1" x1="14.81" y1="243.68" x2="7.95" y2="239.76"/><line class="cls-1" x1="7.95" y1="239.76" x2="8.34" y2="234.72"/><line class="cls-1" x1="8.34" y1="234.72" x2="12.94" y2="226.35"/><line class="cls-1" x1="12.94" y1="226.35" x2="14.41" y2="216.96"/><line class="cls-1" x1="14.41" y1="216.96" x2="13.55" y2="216.67"/><line class="cls-1" x1="20.99" y1="194.81" x2="21.83" y2="195.09"/><line class="cls-1" x1="21.83" y1="195.09" x2="20.37" y2="204.53"/><line class="cls-1" x1="20.37" y1="204.53" x2="15.8" y2="212.87"/><line class="cls-1" x1="15.8" y1="212.87" x2="14.94" y2="212.58"/><line class="cls-1" x1="28.4" y1="173.05" x2="29.24" y2="173.34"/><line class="cls-1" x1="29.24" y1="173.34" x2="27.78" y2="182.77"/><line class="cls-1" x1="27.78" y1="182.78" x2="23.21" y2="191.11"/><line class="cls-1" x1="23.21" y1="191.11" x2="22.35" y2="190.82"/><line class="cls-1" x1="35.84" y1="151.18" x2="36.69" y2="151.46"/><line class="cls-1" x1="36.69" y1="151.46" x2="35.23" y2="160.91"/><line class="cls-1" x1="35.23" y1="160.91" x2="30.66" y2="169.24"/><line class="cls-1" x1="30.66" y1="169.24" x2="29.79" y2="168.95"/><line class="cls-1" x1="43.29" y1="129.33" x2="44.13" y2="129.61"/><line class="cls-1" x1="44.13" y1="129.61" x2="42.67" y2="139.05"/><line class="cls-1" x1="42.67" y1="139.05" x2="38.1" y2="147.39"/><line class="cls-1" x1="38.1" y1="147.39" x2="37.24" y2="147.1"/><line class="cls-1" x1="52.42" y1="102.5" x2="53.28" y2="102.79"/><line class="cls-1" x1="53.28" y1="102.79" x2="50.96" y2="114.71"/><line class="cls-1" x1="50.96" y1="114.71" x2="45.47" y2="125.73"/><line class="cls-1" x1="45.47" y1="125.73" x2="44.61" y2="125.44"/><line class="cls-1" x1="59.24" y1="82.46" x2="60.2" y2="82.78"/><line class="cls-1" x1="60.2" y1="82.78" x2="58.84" y2="91.57"/><line class="cls-1" x1="58.84" y1="91.57" x2="54.61" y2="98.86"/><line class="cls-1" x1="54.61" y1="98.86" x2="53.76" y2="98.57"/><line class="cls-1" x1="66.12" y1="62.29" x2="67.09" y2="62.62"/><line class="cls-1" x1="67.09" y1="62.62" x2="65.76" y2="71.25"/><line class="cls-1" x1="65.76" y1="71.25" x2="61.65" y2="78.75"/><line class="cls-1" x1="61.65" y1="78.75" x2="60.63" y2="78.4"/><line class="cls-1" x1="72.96" y1="42.19" x2="73.93" y2="42.52"/><line class="cls-1" x1="73.93" y1="42.52" x2="72.6" y2="51.16"/><line class="cls-1" x1="72.6" y1="51.16" x2="68.5" y2="58.63"/><line class="cls-1" x1="68.5" y1="58.63" x2="67.48" y2="58.28"/><line class="cls-1" x1="79.81" y1="22.08" x2="80.79" y2="22.41"/><line class="cls-1" x1="80.79" y1="22.41" x2="79.47" y2="30.98"/><line class="cls-1" x1="79.47" y1="30.98" x2="75.21" y2="38.45"/><line class="cls-1" x1="75.21" y1="38.45" x2="74.33" y2="38.15"/><line class="cls-1" x1="87.93" y1="6.08" x2="82.06" y2="18.39"/><line class="cls-1" x1="82.05" y1="18.39" x2="81.16" y2="18.08"/><line class="cls-1" x1="54.41" y1="257.16" x2="46.08" y2="252.41"/><line class="cls-1" x1="46.08" y1="252.41" x2="36.58" y2="251.09"/><line class="cls-1" x1="36.58" y1="251.09" x2="36.35" y2="251.79"/><line class="cls-1" x1="61.6" y1="258.16" x2="54.41" y2="257.16"/><line class="cls-1" x1="116.29" y1="39.24" x2="122.97" y2="41.47"/><line class="cls-1" x1="104.13" y1="74.9" x2="110.82" y2="77.18"/><line class="cls-1" x1="114.99" y1="43.01" x2="121.68" y2="45.23"/><line class="cls-1" x1="105.37" y1="71.2" x2="112.06" y2="73.48"/><line class="cls-1" x1="74.39" y1="38.17" x2="73.01" y2="42.21"/><line class="cls-1" x1="67.53" y1="58.29" x2="66.16" y2="62.3"/><line class="cls-1" x1="81.22" y1="18.1" x2="79.86" y2="22.1"/><line class="cls-1" x1="60.67" y1="78.42" x2="59.29" y2="82.47"/><line class="cls-1" x1="53.8" y1="98.58" x2="52.46" y2="102.51"/><line class="cls-1" x1="44.64" y1="125.44" x2="43.32" y2="129.34"/><line class="cls-1" x1="37.26" y1="147.1" x2="35.87" y2="151.19"/><line class="cls-1" x1="29.81" y1="168.95" x2="28.41" y2="173.06"/><line class="cls-1" x1="14.94" y1="212.58" x2="13.55" y2="216.67"/><line class="cls-1" x1="22.36" y1="190.82" x2="21" y2="194.81"/><line class="cls-1" x1="61.6" y1="258.16" x2="104.8" y2="133.02"/><line class="cls-1" x1="104.8" y1="133.02" x2="97.85" y2="120.06"/><line class="cls-1" x1="97.85" y1="120.06" x2="107.08" y2="95.13"/><line class="cls-1" x1="32.43" y1="250.37" x2="36.37" y2="251.73"/><line class="cls-1" x1="104.13" y1="74.9" x2="100.02" y2="73.5"/><line class="cls-1" x1="100.02" y1="73.5" x2="112.18" y2="37.83"/><line class="cls-1" x1="112.18" y1="37.83" x2="116.29" y2="39.23"/><line class="cls-1" x1="116.29" y1="39.23" x2="116.29" y2="39.24"/><line class="cls-1" x1="145.27" y1="110.72" x2="108.49" y2="98.09"/><line class="cls-1" x1="143.81" y1="107.74" x2="107.08" y2="95.13"/><line class="cls-1" x1="172.35" y1="31.82" x2="83.18" y2=".26"/><line class="cls-1" x1="83.18" y1=".25" x2=".25" y2="243.56"/><line class="cls-1" x1=".26" y1="243.56" x2="61.88" y2="264.56"/><line class="cls-1" x1="61.87" y1="264.56" x2="107.36" y2="132.81"/><line class="cls-1" x1="107.36" y1="132.81" x2="100.41" y2="119.89"/><line class="cls-1" x1="100.41" y1="119.89" x2="108.49" y2="98.09"/>
</svg>