<svg id="20-bus-plan" class="project-plan" xmlns="http://www.w3.org/2000/svg" viewBox="0 0 235.44 263.78">
<line class="cls-1" x1="107.18" y1="60.24" x2="67.75" y2="115.55"/><line class="cls-1" x1="67.75" y1="115.55" x2="74.61" y2="125"/><line class="cls-1" x1="74.61" y1="125" x2="127.27" y2="197.41"/><line class="cls-1" x1="127.27" y1="197.41" x2="131.69" y2="203.49"/><line class="cls-1" x1="131.69" y1="203.49" x2="199.48" y2="139.09"/><line class="cls-1" x1="199.48" y1="139.09" x2="197" y2="133.29"/><line class="cls-1" x1="197" y1="133.29" x2="165.16" y2="58.88"/><line class="cls-1" x1="165.16" y1="58.88" x2="107.18" y2="60.24"/><line class="cls-2" x1="16.44" y1="137.38" x2="90.32" y2="251.61"/><line class="cls-2" x1="90.32" y1="251.61" x2="109.18" y2="239.41"/><line class="cls-2" x1="109.18" y1="239.41" x2="35.3" y2="125.18"/><line class="cls-2" x1="35.3" y1="125.18" x2="16.44" y2="137.38"/><line class="cls-2" x1="74.61" y1="125" x2="127.27" y2="197.41"/><line class="cls-2" x1="127.27" y1="197.41" x2="108.39" y2="211.13"/><line class="cls-2" x1="108.39" y1="211.13" x2="55.74" y2="138.72"/><line class="cls-2" x1="55.74" y1="138.72" x2="74.61" y2="125"/><line class="cls-2" x1="202.73" y1="136" x2="126.79" y2="208.15"/><line class="cls-2" x1="126.79" y1="208.15" x2="142.62" y2="224.81"/><line class="cls-2" x1="142.62" y1="224.81" x2="218.56" y2="152.66"/><line class="cls-2" x1="218.56" y1="152.66" x2="202.73" y2="136"/><line class="cls-2" x1="62.4" y1="123.05" x2="119.63" y2="42.8"/><line class="cls-2" x1="119.63" y1="42.8" x2="100.59" y2="29.22"/><line class="cls-2" x1="100.59" y1="29.22" x2="43.36" y2="109.48"/><line class="cls-2" x1="43.36" y1="109.48" x2="62.4" y2="123.05"/><line class="cls-2" x1="160.22" y1="47.34" x2="197" y2="133.29"/><line class="cls-2" x1="197" y1="133.29" x2="218.91" y2="123.91"/><line class="cls-2" x1="218.91" y1="123.91" x2="182.13" y2="37.96"/><line class="cls-2" x1="182.13" y1="37.96" x2="160.22" y2="47.33"/><line class="cls-2" x1="177.65" y1="5.7" x2="176.67" y2="30.29"/><line class="cls-2" x1="176.67" y1="30.29" x2="111.47" y2="27.69"/><line class="cls-2" x1="111.47" y1="27.69" x2="112.45" y2="3.1"/><line class="cls-1" x1=".26" y1="140" x2="99.91" y2=".25"/><line class="cls-1" x1="99.91" y1=".26" x2="187.31" y2="3.73"/><line class="cls-1" x1="187.31" y1="3.73" x2="235.18" y2="147.44"/><line class="cls-1" x1="235.18" y1="147.44" x2="142.56" y2="239.96"/><line class="cls-1" x1="142.56" y1="239.96" x2="80.15" y2="263.53"/><line class="cls-1" x1="80.15" y1="263.53" x2=".25" y2="140"/><line class="cls-1" x1="3.09" y1="140.06" x2="101.08" y2="2.65"/><line class="cls-1" x1="101.08" y1="2.65" x2="185.6" y2="6.01"/><line class="cls-1" x1="185.6" y1="6.01" x2="232.5" y2="146.8"/><line class="cls-1" x1="232.5" y1="146.8" x2="141.26" y2="237.94"/><line class="cls-1" x1="141.26" y1="237.94" x2="81.09" y2="260.67"/><line class="cls-1" x1="81.09" y1="260.67" x2="3.09" y2="140.06"/><line class="cls-1" x1="72.72" y1="126.38" x2="66.31" y2="117.57"/><line class="cls-1" x1="108.88" y1="57.86" x2="164.17" y2="56.56"/><line class="cls-1" x1="129.97" y1="205.12" x2="125.37" y2="198.79"/><line class="cls-1" x1="199.15" y1="132.36" x2="201.29" y2="137.36"/>
</svg>