<svg id="20-pgm-plan" class="project-plan" xmlns="http://www.w3.org/2000/svg" viewBox="0 0 446.33 333.59">
<line class="cls-1" x1="250.94" y1="158.13" x2="279.16" y2="101.06"/><line class="cls-1" x1="279.16" y1="101.06" x2="263.73" y2="91.39"/><line class="cls-1" x1="263.73" y1="91.39" x2="224.75" y2="141.72"/><line class="cls-1" x1="224.75" y1="141.72" x2="192.18" y2="121.32"/><line class="cls-1" x1="192.18" y1="121.32" x2="215.42" y2="62.06"/><line class="cls-1" x1="215.42" y1="62.06" x2="199.48" y2="53.68"/><line class="cls-1" x1="199.48" y1="53.68" x2="165.86" y2="104.83"/><line class="cls-1" x1="165.86" y1="104.83" x2="133.08" y2="84.3"/><line class="cls-1" x1="133.08" y1="84.3" x2="128.94" y2="31.49"/><line class="cls-1" x1="128.94" y1="31.49" x2="110.98" y2="31.03"/><line class="cls-1" x1="110.98" y1="31.03" x2="101.58" y2="104.41"/><line class="cls-1" x1="101.58" y1="104.41" x2="88.27" y2="121.57"/><line class="cls-1" x1="88.27" y1="121.57" x2="82.31" y2="138.59"/><line class="cls-1" x1="82.31" y1="138.59" x2="107.74" y2="158.56"/><line class="cls-1" x1="107.74" y1="158.56" x2="123.13" y2="163.94"/><line class="cls-1" x1="123.13" y1="163.94" x2="147.15" y2="133.3"/><line class="cls-1" x1="147.15" y1="133.3" x2="322.91" y2="243.41"/><line class="cls-1" x1="322.91" y1="243.41" x2="309.86" y2="287.19"/><line class="cls-1" x1="309.86" y1="287.19" x2="326.34" y2="293.99"/><line class="cls-1" x1="326.34" y1="293.99" x2="353.45" y2="244.08"/><line class="cls-1" x1="353.45" y1="244.08" x2="402.13" y2="188.1"/><line class="cls-1" x1="402.13" y1="188.1" x2="390.1" y2="174.92"/><line class="cls-1" x1="390.1" y1="174.92" x2="339.26" y2="213.46"/><line class="cls-1" x1="339.26" y1="213.46" x2="309.81" y2="195.01"/><line class="cls-1" x1="309.81" y1="195.01" x2="341.07" y2="142.49"/><line class="cls-1" x1="341.07" y1="142.49" x2="326.64" y2="131.62"/><line class="cls-1" x1="326.64" y1="131.62" x2="283.62" y2="178.6"/><line class="cls-1" x1="283.62" y1="178.6" x2="250.94" y2="158.13"/><line class="cls-1" x1="247.9" y1="158.99" x2="276.12" y2="101.92"/><line class="cls-1" x1="276.12" y1="101.92" x2="264.29" y2="94.51"/><line class="cls-1" x1="264.29" y1="94.51" x2="225.31" y2="144.84"/><line class="cls-1" x1="225.31" y1="144.84" x2="189.29" y2="122.28"/><line class="cls-1" x1="189.29" y1="122.28" x2="212.47" y2="63.16"/><line class="cls-1" x1="212.47" y1="63.16" x2="200.27" y2="56.74"/><line class="cls-1" x1="200.27" y1="56.74" x2="166.56" y2="108.04"/><line class="cls-1" x1="166.56" y1="108.04" x2="130.83" y2="85.66"/><line class="cls-1" x1="130.83" y1="85.66" x2="126.77" y2="33.78"/><line class="cls-1" x1="126.77" y1="33.78" x2="113.04" y2="33.43"/><line class="cls-1" x1="113.04" y1="33.43" x2="103.82" y2="105.35"/><line class="cls-1" x1="103.82" y1="105.35" x2="90.36" y2="122.71"/><line class="cls-1" x1="90.36" y1="122.71" x2="85.08" y2="137.79"/><line class="cls-1" x1="85.08" y1="137.79" x2="108.88" y2="156.47"/><line class="cls-1" x1="108.88" y1="156.47" x2="122.32" y2="161.17"/><line class="cls-1" x1="122.32" y1="161.17" x2="146.6" y2="130.19"/><line class="cls-1" x1="146.6" y1="130.19" x2="325.67" y2="242.37"/><line class="cls-1" x1="325.67" y1="242.37" x2="312.71" y2="285.83"/><line class="cls-1" x1="312.71" y1="285.83" x2="325.29" y2="291.02"/><line class="cls-1" x1="325.29" y1="291.02" x2="351.51" y2="242.74"/><line class="cls-1" x1="351.51" y1="242.74" x2="398.99" y2="188.14"/><line class="cls-1" x1="398.99" y1="188.14" x2="389.81" y2="178.08"/><line class="cls-1" x1="389.81" y1="178.08" x2="339.39" y2="216.3"/><line class="cls-1" x1="339.39" y1="216.3" x2="306.62" y2="195.78"/><line class="cls-1" x1="306.62" y1="195.78" x2="337.98" y2="143.1"/><line class="cls-1" x1="337.98" y1="143.1" x2="326.93" y2="134.77"/><line class="cls-1" x1="326.93" y1="134.77" x2="284.03" y2="181.63"/><line class="cls-1" x1="284.03" y1="181.63" x2="247.9" y2="158.99"/><line class="cls-1" x1=".25" y1="119.97" x2="72.19" y2="1.48"/><line class="cls-1" x1="72.19" y1="1.48" x2="159.39" y2=".25"/><line class="cls-1" x1="159.39" y1=".26" x2="220.67" y2="31.74"/><line class="cls-1" x1="220.67" y1="31.74" x2="257.68" y2="44.24"/><line class="cls-1" x1="257.68" y1="44.24" x2="284.83" y2="71.38"/><line class="cls-1" x1="284.83" y1="71.38" x2="319.86" y2="86.82"/><line class="cls-1" x1="319.86" y1="86.82" x2="347.5" y2="112.45"/><line class="cls-1" x1="347.5" y1="112.45" x2="384.36" y2="131.48"/><line class="cls-1" x1="384.36" y1="131.48" x2="412.33" y2="159.45"/><line class="cls-1" x1="412.33" y1="159.45" x2="446.07" y2="179.06"/><line class="cls-1" x1="446.07" y1="179.06" x2="404.25" y2="225.78"/><line class="cls-1" x1="404.26" y1="225.78" x2="389.2" y2="262.74"/><line class="cls-1" x1="389.2" y1="262.74" x2="369.13" y2="287.31"/><line class="cls-1" x1="369.13" y1="287.31" x2="340.75" y2="333.34"/><line class="cls-1" x1="340.75" y1="333.34" x2=".26" y2="119.97"/>
</svg>