<svg id="21-hea-plan" class="project-plan" xmlns="http://www.w3.org/2000/svg" viewBox="0 0 326.44 266.68">
<line class="cls-2" x1="218.55" y1="92.59" x2="219.66" y2="92.59"/><line class="cls-2" x1="219.66" y1="92.59" x2="219.66" y2="91.49"/><line class="cls-2" x1="219.66" y1="91.49" x2="218.55" y2="91.49"/><line class="cls-2" x1="218.55" y1="91.49" x2="218.55" y2="92.59"/><line class="cls-2" x1="186.74" y1="208.8" x2="187.84" y2="208.8"/><line class="cls-2" x1="187.84" y1="208.8" x2="187.84" y2="207.69"/><line class="cls-2" x1="187.84" y1="207.69" x2="186.74" y2="207.69"/><line class="cls-2" x1="186.74" y1="207.69" x2="186.74" y2="208.8"/><line class="cls-2" x1="154.92" y1="179.75" x2="156.02" y2="179.75"/><line class="cls-2" x1="156.03" y1="179.75" x2="156.03" y2="178.65"/><line class="cls-2" x1="156.03" y1="178.65" x2="154.92" y2="178.65"/><line class="cls-2" x1="154.92" y1="178.65" x2="154.92" y2="179.75"/><line class="cls-2" x1="154.92" y1="208.8" x2="156.02" y2="208.8"/><line class="cls-2" x1="156.03" y1="208.8" x2="156.03" y2="207.69"/><line class="cls-2" x1="156.03" y1="207.69" x2="154.92" y2="207.69"/><line class="cls-2" x1="154.92" y1="207.69" x2="154.92" y2="208.8"/><line class="cls-2" x1="186.74" y1="179.75" x2="187.84" y2="179.75"/><line class="cls-2" x1="187.84" y1="179.75" x2="187.84" y2="178.65"/><line class="cls-2" x1="187.84" y1="178.65" x2="186.74" y2="178.65"/><line class="cls-2" x1="186.74" y1="178.65" x2="186.74" y2="179.75"/><line class="cls-2" x1="154.92" y1="150.7" x2="156.02" y2="150.7"/><line class="cls-2" x1="156.03" y1="150.7" x2="156.03" y2="149.6"/><line class="cls-2" x1="156.03" y1="149.6" x2="154.92" y2="149.6"/><line class="cls-2" x1="154.92" y1="149.6" x2="154.92" y2="150.7"/><line class="cls-2" x1="186.74" y1="237.85" x2="187.84" y2="237.85"/><line class="cls-2" x1="187.84" y1="237.85" x2="187.84" y2="236.74"/><line class="cls-2" x1="187.84" y1="236.74" x2="186.74" y2="236.74"/><line class="cls-2" x1="186.74" y1="236.74" x2="186.74" y2="237.85"/><line class="cls-2" x1="218.55" y1="150.7" x2="219.66" y2="150.7"/><line class="cls-2" x1="219.66" y1="150.7" x2="219.66" y2="149.6"/><line class="cls-2" x1="219.66" y1="149.6" x2="218.55" y2="149.6"/><line class="cls-2" x1="218.55" y1="149.6" x2="218.55" y2="150.7"/><line class="cls-2" x1="218.55" y1="208.8" x2="219.66" y2="208.8"/><line class="cls-2" x1="219.66" y1="208.8" x2="219.66" y2="207.69"/><line class="cls-2" x1="219.66" y1="207.69" x2="218.55" y2="207.69"/><line class="cls-2" x1="218.55" y1="207.69" x2="218.55" y2="208.8"/><line class="cls-2" x1="218.55" y1="237.85" x2="219.66" y2="237.85"/><line class="cls-2" x1="219.66" y1="237.85" x2="219.66" y2="236.74"/><line class="cls-2" x1="219.66" y1="236.74" x2="218.55" y2="236.74"/><line class="cls-2" x1="218.55" y1="236.74" x2="218.55" y2="237.85"/><line class="cls-2" x1="154.92" y1="237.85" x2="156.02" y2="237.85"/><line class="cls-2" x1="156.03" y1="237.85" x2="156.03" y2="236.74"/><line class="cls-2" x1="156.03" y1="236.74" x2="154.92" y2="236.74"/><line class="cls-2" x1="154.92" y1="236.74" x2="154.92" y2="237.85"/><line class="cls-2" x1="154.92" y1="59.39" x2="156.02" y2="59.39"/><line class="cls-2" x1="156.03" y1="59.39" x2="156.03" y2="58.28"/><line class="cls-2" x1="156.03" y1="58.28" x2="154.92" y2="58.28"/><line class="cls-2" x1="154.92" y1="58.28" x2="154.92" y2="59.39"/><line class="cls-2" x1="186.74" y1="150.7" x2="187.84" y2="150.7"/><line class="cls-2" x1="187.84" y1="150.7" x2="187.84" y2="149.6"/><line class="cls-2" x1="187.84" y1="149.6" x2="186.74" y2="149.6"/><line class="cls-2" x1="186.74" y1="149.6" x2="186.74" y2="150.7"/><line class="cls-2" x1="218.55" y1="121.64" x2="219.66" y2="121.64"/><line class="cls-2" x1="219.66" y1="121.64" x2="219.66" y2="120.54"/><line class="cls-2" x1="219.66" y1="120.54" x2="218.55" y2="120.54"/><line class="cls-2" x1="218.55" y1="120.54" x2="218.55" y2="121.64"/><line class="cls-2" x1="186.74" y1="121.64" x2="187.84" y2="121.64"/><line class="cls-2" x1="187.84" y1="121.64" x2="187.84" y2="120.54"/><line class="cls-2" x1="187.84" y1="120.54" x2="186.74" y2="120.54"/><line class="cls-2" x1="186.74" y1="120.54" x2="186.74" y2="121.64"/><line class="cls-2" x1="186.74" y1="92.59" x2="187.84" y2="92.59"/><line class="cls-2" x1="187.84" y1="92.59" x2="187.84" y2="91.49"/><line class="cls-2" x1="187.84" y1="91.49" x2="186.74" y2="91.49"/><line class="cls-2" x1="186.74" y1="91.49" x2="186.74" y2="92.59"/><line class="cls-2" x1="218.55" y1="59.39" x2="219.66" y2="59.39"/><line class="cls-2" x1="219.66" y1="59.39" x2="219.66" y2="58.28"/><line class="cls-2" x1="219.66" y1="58.28" x2="218.55" y2="58.28"/><line class="cls-2" x1="218.55" y1="58.28" x2="218.55" y2="59.39"/><line class="cls-2" x1="186.74" y1="59.39" x2="187.84" y2="59.39"/><line class="cls-2" x1="187.84" y1="59.39" x2="187.84" y2="58.28"/><line class="cls-2" x1="187.84" y1="58.28" x2="186.74" y2="58.28"/><line class="cls-2" x1="186.74" y1="58.28" x2="186.74" y2="59.39"/><line class="cls-2" x1="154.92" y1="121.64" x2="156.02" y2="121.64"/><line class="cls-2" x1="156.03" y1="121.64" x2="156.03" y2="120.54"/><line class="cls-2" x1="156.03" y1="120.54" x2="154.92" y2="120.54"/><line class="cls-2" x1="154.92" y1="120.54" x2="154.92" y2="121.64"/><line class="cls-2" x1="154.92" y1="92.59" x2="156.02" y2="92.59"/><line class="cls-2" x1="156.03" y1="92.59" x2="156.03" y2="91.49"/><line class="cls-2" x1="156.03" y1="91.49" x2="154.92" y2="91.49"/><line class="cls-2" x1="154.92" y1="91.49" x2="154.92" y2="92.59"/><line class="cls-2" x1="218.55" y1="179.75" x2="219.66" y2="179.75"/><line class="cls-2" x1="219.66" y1="179.75" x2="219.66" y2="178.65"/><line class="cls-2" x1="219.66" y1="178.65" x2="218.55" y2="178.65"/><line class="cls-2" x1="218.55" y1="178.65" x2="218.55" y2="179.75"/><line class="cls-2" x1="281.48" y1="92.45" x2="283.14" y2="92.45"/><line class="cls-2" x1="283.14" y1="92.45" x2="283.14" y2="90.78"/><line class="cls-2" x1="283.14" y1="90.78" x2="281.48" y2="90.78"/><line class="cls-2" x1="281.48" y1="90.78" x2="281.48" y2="92.45"/><line class="cls-2" x1="249.54" y1="180.03" x2="251.21" y2="180.03"/><line class="cls-2" x1="251.21" y1="180.03" x2="251.21" y2="178.36"/><line class="cls-2" x1="251.21" y1="178.36" x2="249.54" y2="178.36"/><line class="cls-2" x1="249.54" y1="178.36" x2="249.54" y2="180.03"/><line class="cls-2" x1="281.48" y1="150.87" x2="283.14" y2="150.87"/><line class="cls-2" x1="283.14" y1="150.87" x2="283.14" y2="149.2"/><line class="cls-2" x1="283.14" y1="149.2" x2="281.48" y2="149.2"/><line class="cls-2" x1="281.48" y1="149.2" x2="281.48" y2="150.87"/><line class="cls-2" x1="249.54" y1="238.23" x2="251.21" y2="238.23"/><line class="cls-2" x1="251.21" y1="238.23" x2="251.21" y2="236.56"/><line class="cls-2" x1="251.21" y1="236.56" x2="249.54" y2="236.56"/><line class="cls-2" x1="249.54" y1="236.56" x2="249.54" y2="238.23"/><line class="cls-2" x1="249.54" y1="92.45" x2="251.21" y2="92.45"/><line class="cls-2" x1="251.21" y1="92.45" x2="251.21" y2="90.78"/><line class="cls-2" x1="251.21" y1="90.78" x2="249.54" y2="90.78"/><line class="cls-2" x1="249.54" y1="90.78" x2="249.54" y2="92.45"/><line class="cls-2" x1="281.48" y1="180.03" x2="283.14" y2="180.03"/><line class="cls-2" x1="283.14" y1="180.03" x2="283.14" y2="178.36"/><line class="cls-2" x1="283.14" y1="178.36" x2="281.48" y2="178.36"/><line class="cls-2" x1="281.48" y1="178.36" x2="281.48" y2="180.03"/><line class="cls-2" x1="281.48" y1="209.07" x2="283.14" y2="209.07"/><line class="cls-2" x1="283.14" y1="209.07" x2="283.14" y2="207.41"/><line class="cls-2" x1="283.14" y1="207.41" x2="281.48" y2="207.41"/><line class="cls-2" x1="281.48" y1="207.41" x2="281.48" y2="209.07"/><line class="cls-2" x1="249.54" y1="209.07" x2="251.21" y2="209.07"/><line class="cls-2" x1="251.21" y1="209.07" x2="251.21" y2="207.41"/><line class="cls-2" x1="251.21" y1="207.41" x2="249.54" y2="207.41"/><line class="cls-2" x1="249.54" y1="207.41" x2="249.54" y2="209.07"/><line class="cls-2" x1="281.48" y1="238.23" x2="283.14" y2="238.23"/><line class="cls-2" x1="283.14" y1="238.23" x2="283.14" y2="236.56"/><line class="cls-2" x1="283.14" y1="236.56" x2="281.48" y2="236.56"/><line class="cls-2" x1="281.48" y1="236.56" x2="281.48" y2="238.23"/><line class="cls-2" x1="249.54" y1="121.61" x2="251.21" y2="121.61"/><line class="cls-2" x1="251.21" y1="121.61" x2="251.21" y2="119.94"/><line class="cls-2" x1="251.21" y1="119.94" x2="249.54" y2="119.94"/><line class="cls-2" x1="249.54" y1="119.94" x2="249.54" y2="121.61"/><line class="cls-2" x1="281.48" y1="121.61" x2="283.14" y2="121.61"/><line class="cls-2" x1="283.14" y1="121.61" x2="283.14" y2="119.94"/><line class="cls-2" x1="283.14" y1="119.94" x2="281.48" y2="119.94"/><line class="cls-2" x1="281.48" y1="119.94" x2="281.48" y2="121.61"/><line class="cls-2" x1="249.54" y1="150.87" x2="251.21" y2="150.87"/><line class="cls-2" x1="251.21" y1="150.87" x2="251.21" y2="149.2"/><line class="cls-2" x1="251.21" y1="149.2" x2="249.54" y2="149.2"/><line class="cls-2" x1="249.54" y1="149.2" x2="249.54" y2="150.87"/><line class="cls-2" x1="281.48" y1="59.67" x2="283.14" y2="59.67"/><line class="cls-2" x1="283.14" y1="59.67" x2="283.14" y2="58.01"/><line class="cls-2" x1="283.14" y1="58.01" x2="281.48" y2="58.01"/><line class="cls-2" x1="281.48" y1="58.01" x2="281.48" y2="59.67"/><line class="cls-2" x1="249.54" y1="59.67" x2="251.21" y2="59.67"/><line class="cls-2" x1="251.21" y1="59.67" x2="251.21" y2="58.01"/><line class="cls-2" x1="251.21" y1="58.01" x2="249.54" y2="58.01"/><line class="cls-2" x1="249.54" y1="58.01" x2="249.54" y2="59.67"/><line class="cls-1" x1="124.48" y1="29.14" x2="124.48" y2=".26"/><line class="cls-1" x1="124.48" y1=".25" x2=".25" y2=".25"/><line class="cls-1" x1=".26" y1=".25" x2=".81" y2="266.42"/><line class="cls-1" x1=".81" y1="266.42" x2="124.48" y2="266.42"/><line class="cls-1" x1="326.19" y1="90.78" x2="315.12" y2="90.78"/><line class="cls-1" x1="315.12" y1="90.78" x2="315.12" y2="266.42"/><line class="cls-1" x1="315.12" y1="266.42" x2="124.48" y2="266.42"/><line class="cls-1" x1="120.58" y1="4.16" x2="4.17" y2="4.16"/><line class="cls-1" x1="4.17" y1="4.16" x2="4.71" y2="262.51"/><line class="cls-1" x1="4.71" y1="262.51" x2="120.57" y2="262.51"/><line class="cls-1" x1="120.58" y1="262.51" x2="120.58" y2="4.16"/><line class="cls-1" x1="124.48" y1="30.7" x2="253.45" y2="30.7"/><line class="cls-1" x1="253.45" y1="30.7" x2="253.45" y2="21.98"/><line class="cls-1" x1="253.45" y1="21.98" x2="322.28" y2="21.98"/><line class="cls-1" x1="322.28" y1="21.98" x2="322.28" y2="86.88"/><line class="cls-1" x1="322.28" y1="86.88" x2="311.21" y2="86.88"/><line class="cls-1" x1="124.48" y1="29.14" x2="124.48" y2=".26"/><line class="cls-1" x1="124.48" y1="262.51" x2="124.48" y2="30.7"/><line class="cls-1" x1="124.48" y1="29.14" x2="249.54" y2="29.14"/><line class="cls-1" x1="249.54" y1="29.14" x2="249.54" y2="18.07"/><line class="cls-1" x1="249.54" y1="18.07" x2="326.19" y2="18.07"/><line class="cls-1" x1="326.19" y1="18.07" x2="326.19" y2="90.78"/><line class="cls-1" x1="326.19" y1="90.78" x2="315.12" y2="90.78"/><line class="cls-1" x1="311.21" y1="262.51" x2="124.48" y2="262.51"/><line class="cls-1" x1="311.21" y1="86.88" x2="311.21" y2="262.51"/><line class="cls-2" x1="61.73" y1="235.27" x2="63.75" y2="235.27"/><line class="cls-2" x1="63.75" y1="235.27" x2="63.75" y2="237.3"/><line class="cls-2" x1="63.75" y1="237.3" x2="61.73" y2="237.3"/><line class="cls-2" x1="61.73" y1="237.3" x2="61.73" y2="235.27"/><line class="cls-2" x1="61.73" y1="206.03" x2="63.75" y2="206.03"/><line class="cls-2" x1="63.75" y1="206.03" x2="63.75" y2="208.05"/><line class="cls-2" x1="63.75" y1="208.05" x2="61.73" y2="208.05"/><line class="cls-2" x1="61.73" y1="208.05" x2="61.73" y2="206.02"/><line class="cls-2" x1="61.73" y1="176.78" x2="63.75" y2="176.78"/><line class="cls-2" x1="63.75" y1="176.78" x2="63.75" y2="178.81"/><line class="cls-2" x1="63.75" y1="178.81" x2="61.73" y2="178.81"/><line class="cls-2" x1="61.73" y1="178.81" x2="61.73" y2="176.78"/><line class="cls-2" x1="61.73" y1="147.53" x2="63.75" y2="147.53"/><line class="cls-2" x1="63.75" y1="147.53" x2="63.75" y2="149.56"/><line class="cls-2" x1="63.75" y1="149.56" x2="61.73" y2="149.56"/><line class="cls-2" x1="61.73" y1="149.56" x2="61.73" y2="147.53"/><line class="cls-2" x1="61.73" y1="118.29" x2="63.75" y2="118.29"/><line class="cls-2" x1="63.75" y1="118.29" x2="63.75" y2="120.31"/><line class="cls-2" x1="63.75" y1="120.31" x2="61.73" y2="120.31"/><line class="cls-2" x1="61.73" y1="120.31" x2="61.73" y2="118.29"/><line class="cls-2" x1="61.73" y1="89.04" x2="63.75" y2="89.04"/><line class="cls-2" x1="63.75" y1="89.04" x2="63.75" y2="91.07"/><line class="cls-2" x1="63.75" y1="91.07" x2="61.73" y2="91.07"/><line class="cls-2" x1="61.73" y1="91.07" x2="61.73" y2="89.04"/><line class="cls-2" x1="61.73" y1="57.85" x2="63.75" y2="57.85"/><line class="cls-2" x1="63.75" y1="57.85" x2="63.75" y2="59.87"/><line class="cls-2" x1="63.75" y1="59.87" x2="61.73" y2="59.87"/><line class="cls-2" x1="61.73" y1="59.87" x2="61.73" y2="57.85"/><line class="cls-2" x1="61.73" y1="28.6" x2="63.75" y2="28.6"/><line class="cls-2" x1="63.75" y1="28.6" x2="63.75" y2="30.63"/><line class="cls-2" x1="63.75" y1="30.63" x2="61.73" y2="30.63"/><line class="cls-2" x1="61.73" y1="30.63" x2="61.73" y2="28.6"/>
</svg>