<?xml version="1.0" encoding="UTF-8"?><svg id="Layer_2" xmlns="http://www.w3.org/2000/svg" viewBox="0 0 362.48 266.68"><defs><style>.cls-1{stroke-width:.51px;}.cls-1,.cls-2{fill:none;stroke:#000;stroke-linecap:round;stroke-linejoin:round;}.cls-2{stroke-width:.25px;}</style></defs><g id="Layer_1-2"><g><line class="cls-1" x1="103.68" y1="28.04" x2="89.07" y2="5.66"/><line class="cls-1" x1="89.07" y1="5.66" x2="5.71" y2="60.09"/><line class="cls-1" x1="5.71" y1="60.09" x2="21.29" y2="83.32"/><line class="cls-1" x1="25.6" y1="89.74" x2="30.92" y2="86.17"/><line class="cls-1" x1="30.92" y1="86.17" x2="34.37" y2="91.31"/><line class="cls-1" x1="34.37" y1="91.31" x2="29.05" y2="94.88"/><line class="cls-1" x1="47.27" y1="122.04" x2="52.59" y2="118.47"/><line class="cls-1" x1="52.59" y1="118.47" x2="56.04" y2="123.62"/><line class="cls-1" x1="56.04" y1="123.62" x2="50.72" y2="127.19"/><line class="cls-1" x1="68.95" y1="154.35" x2="74.27" y2="150.77"/><line class="cls-1" x1="74.27" y1="150.78" x2="77.72" y2="155.92"/><line class="cls-1" x1="77.71" y1="155.92" x2="72.4" y2="159.49"/><line class="cls-1" x1="90.62" y1="186.65" x2="95.94" y2="183.08"/><line class="cls-1" x1="95.94" y1="183.08" x2="99.39" y2="188.22"/><line class="cls-1" x1="99.39" y1="188.22" x2="94.07" y2="191.79"/><line class="cls-1" x1="21.29" y1="83.32" x2="49.59" y2="64.34"/><line class="cls-1" x1="49.59" y1="64.34" x2="51.07" y2="66.55"/><line class="cls-1" x1="51.07" y1="66.55" x2="22.77" y2="85.54"/><line class="cls-1" x1="182.58" y1="141.72" x2="226.37" y2="208.8"/><line class="cls-1" x1="175.09" y1="137.41" x2="223.05" y2="210.86"/><line class="cls-1" x1="107.91" y1="34.51" x2="102.54" y2="38.02"/><line class="cls-1" x1="102.54" y1="38.02" x2="105.93" y2="43.2"/><line class="cls-1" x1="105.93" y1="43.2" x2="111.29" y2="39.7"/><line class="cls-1" x1="129.18" y1="67.08" x2="123.81" y2="70.59"/><line class="cls-1" x1="123.81" y1="70.59" x2="127.2" y2="75.77"/><line class="cls-1" x1="127.2" y1="75.77" x2="132.56" y2="72.27"/><line class="cls-1" x1="150.44" y1="99.65" x2="145.08" y2="103.16"/><line class="cls-1" x1="145.08" y1="103.16" x2="148.46" y2="108.34"/><line class="cls-1" x1="148.46" y1="108.34" x2="153.83" y2="104.84"/><line class="cls-1" x1="171.71" y1="132.23" x2="166.34" y2="135.73"/><line class="cls-1" x1="166.34" y1="135.73" x2="169.73" y2="140.91"/><line class="cls-1" x1="169.73" y1="140.91" x2="175.09" y2="137.41"/><line class="cls-1" x1="103.68" y1="28.04" x2="75.15" y2="46.67"/><line class="cls-1" x1="75.15" y1="46.67" x2="76.6" y2="48.9"/><line class="cls-1" x1="76.6" y1="48.9" x2="105.14" y2="30.27"/><line class="cls-1" x1="90.21" y1=".25" x2=".25" y2="58.99"/><line class="cls-1" x1=".26" y1="58.99" x2="139.44" y2="266.42"/><line class="cls-1" x1="139.44" y1="266.42" x2="267.49" y2="188.28"/><line class="cls-1" x1="267.49" y1="188.28" x2="244.39" y2="152.59"/><line class="cls-1" x1="244.39" y1="152.59" x2="339.8" y2="93.43"/><line class="cls-1" x1="339.8" y1="93.43" x2="310.7" y2="47.97"/><line class="cls-1" x1="310.7" y1="47.97" x2="197.14" y2="122.19"/><line class="cls-1" x1="197.14" y1="122.19" x2="199.79" y2="126.46"/><line class="cls-1" x1="199.79" y1="126.46" x2="180.44" y2="138.45"/><line class="cls-1" x1="180.44" y1="138.45" x2="90.21" y2=".26"/><line class="cls-1" x1="107.91" y1="34.51" x2="105.14" y2="30.27"/><line class="cls-1" x1="22.77" y1="85.54" x2="25.6" y2="89.74"/><line class="cls-1" x1="29.05" y1="94.88" x2="47.27" y2="122.04"/><line class="cls-1" x1="50.72" y1="127.19" x2="68.95" y2="154.35"/><line class="cls-1" x1="129.18" y1="67.08" x2="111.29" y2="39.7"/><line class="cls-1" x1="150.44" y1="99.65" x2="132.56" y2="72.27"/><line class="cls-1" x1="171.71" y1="132.23" x2="153.83" y2="104.84"/><line class="cls-1" x1="72.4" y1="159.49" x2="90.62" y2="186.65"/><line class="cls-1" x1="94.07" y1="191.79" x2="140.6" y2="261.13"/><line class="cls-1" x1="140.6" y1="261.13" x2="223.03" y2="210.83"/><line class="cls-1" x1="226.37" y1="208.8" x2="262.03" y2="187.04"/><line class="cls-1" x1="262.03" y1="187.04" x2="238.95" y2="151.37"/><line class="cls-1" x1="238.95" y1="151.37" x2="334.37" y2="92.2"/><line class="cls-1" x1="334.37" y1="92.2" x2="309.53" y2="53.4"/><line class="cls-1" x1="309.53" y1="53.4" x2="202.47" y2="123.38"/><line class="cls-1" x1="202.47" y1="123.38" x2="205.17" y2="127.73"/><line class="cls-1" x1="205.17" y1="127.73" x2="182.58" y2="141.72"/><line class="cls-2" x1="267.49" y1="188.28" x2="362.35" y2="130.4"/><line class="cls-2" x1="362.35" y1="130.4" x2="339.8" y2="93.43"/></g></g></svg>