<?xml version="1.0" encoding="UTF-8"?><svg id="Layer_2" xmlns="http://www.w3.org/2000/svg" viewBox="0 0 772.8 265.6"><defs><style>.cls-1{stroke-width:.51px;}.cls-1,.cls-2{fill:none;stroke:#000;stroke-linecap:round;stroke-linejoin:round;}.cls-2{stroke-width:.25px;}</style></defs><g id="Layer_1-2"><g><line class="cls-1" x1="192.14" y1="124.32" x2="325.01" y2="120.08"/><line class="cls-1" x1="325.01" y1="120.08" x2="342.24" y2="103.76"/><line class="cls-1" x1="342.24" y1="103.76" x2="252.3" y2="8.84"/><line class="cls-1" x1="252.3" y1="8.84" x2="146.39" y2="32.09"/><line class="cls-1" x1="146.39" y1="32.09" x2="77.58" y2="99.64"/><line class="cls-1" x1="77.58" y1="99.64" x2="10.74" y2="132.78"/><line class="cls-1" x1="10.74" y1="132.78" x2="39.04" y2="189.73"/><line class="cls-1" x1="39.04" y1="189.73" x2="113.88" y2="152.61"/><line class="cls-2" x1="113.88" y1="152.61" x2="93.32" y2="111.16"/><line class="cls-2" x1="93.32" y1="111.16" x2="167.39" y2="74.42"/><line class="cls-1" x1="493.42" y1="159.93" x2="474.49" y2="189.21"/><line class="cls-1" x1="474.49" y1="189.21" x2="575.36" y2="265.35"/><line class="cls-1" x1="575.36" y1="265.35" x2="772.54" y2="167.37"/><line class="cls-1" x1="772.54" y1="167.37" x2="742.35" y2="106.61"/><line class="cls-1" x1="742.35" y1="106.61" x2="611.19" y2="171.78"/><line class="cls-1" x1="611.19" y1="171.78" x2="493.42" y2="159.93"/><line class="cls-1" x1="658.35" y1="156.01" x2="612.47" y2="178.81"/><line class="cls-1" x1="612.47" y1="178.81" x2="496.91" y2="167.18"/><line class="cls-1" x1="496.91" y1="167.18" x2="483.72" y2="187.57"/><line class="cls-1" x1="483.72" y1="187.57" x2="576.11" y2="257.31"/><line class="cls-1" x1="576.11" y1="257.31" x2="636.52" y2="227.3"/><line class="cls-1" x1="636.52" y1="227.3" x2="683.17" y2="204.12"/><line class="cls-1" x1=".25" y1="129.25" x2="35.51" y2="200.21"/><line class="cls-1" x1="35.51" y1="200.21" x2="171.4" y2="132.81"/><line class="cls-1" x1="171.4" y1="132.81" x2="328.23" y2="127.8"/><line class="cls-1" x1="328.23" y1="127.8" x2="353.3" y2="104.06"/><line class="cls-1" x1="353.3" y1="104.06" x2="254.94" y2=".25"/><line class="cls-1" x1="254.94" y1=".26" x2="142.52" y2="24.94"/><line class="cls-1" x1="142.52" y1="24.94" x2="72.99" y2="93.19"/><line class="cls-1" x1="72.99" y1="93.19" x2=".26" y2="129.25"/><line class="cls-1" x1="113.88" y1="152.61" x2="169.45" y2="125.05"/><line class="cls-1" x1="169.45" y1="125.04" x2="192.14" y2="124.32"/><line class="cls-2" x1="658.35" y1="156.01" x2="682.39" y2="204.51"/><line class="cls-2" x1="167.39" y1="74.42" x2="192.14" y2="124.32"/><line class="cls-1" x1="658.35" y1="156.01" x2="739.81" y2="115.54"/><line class="cls-1" x1="739.81" y1="115.54" x2="764.15" y2="164.54"/><line class="cls-1" x1="764.15" y1="164.54" x2="682.39" y2="204.51"/><line class="cls-2" x1="636.52" y1="227.3" x2="612.47" y2="178.81"/></g></g></svg>