<svg id="22-vdt-plan" class="project-plan" xmlns="http://www.w3.org/2000/svg" viewBox="0 0 264.75 510.37">
<line class="cls-1" x1="128.91" y1="125.72" x2="151.36" y2="184.24"/><line class="cls-1" x1="193.9" y1="303.65" x2="119.05" y2="332.35"/><line class="cls-1" x1="194.99" y1="306.48" x2="120.13" y2="335.18"/><line class="cls-1" x1="136.72" y1="154.54" x2="61.87" y2="183.24"/><line class="cls-1" x1="137.8" y1="157.37" x2="62.95" y2="186.07"/><line class="cls-1" x1="128.91" y1="125.72" x2="111.02" y2="132.59"/><line class="cls-1" x1="111.02" y1="132.59" x2="76.28" y2="42.01"/><line class="cls-1" x1="76.28" y1="42.01" x2="94.17" y2="35.14"/><line class="cls-1" x1="186.09" y1="274.82" x2="168.2" y2="281.68"/><line class="cls-1" x1="168.2" y1="281.68" x2="133.46" y2="191.11"/><line class="cls-1" x1="133.46" y1="191.11" x2="151.36" y2="184.24"/><line class="cls-1" x1="243.26" y1="423.89" x2="225.37" y2="430.75"/><line class="cls-1" x1="225.37" y1="430.75" x2="190.63" y2="340.17"/><line class="cls-1" x1="190.63" y1="340.17" x2="208.52" y2="333.31"/><line class="cls-1" x1="241.52" y1="427.81" x2="260.57" y2="477.5"/><line class="cls-1" x1="260.58" y1="477.5" x2="185.73" y2="506.2"/><line class="cls-1" x1="185.73" y1="506.2" x2="163.36" y2="447.9"/><line class="cls-1" x1="163.36" y1="447.9" x2="149.94" y2="453.05"/><line class="cls-1" x1="149.94" y1="453.05" x2="125.1" y2="388.26"/><line class="cls-1" x1="125.1" y1="388.26" x2="138.51" y2="383.11"/><line class="cls-1" x1="138.52" y1="383.11" x2="120.13" y2="335.18"/><line class="cls-1" x1="127.17" y1="129.64" x2="109.28" y2="136.5"/><line class="cls-1" x1="109.28" y1="136.5" x2="72.37" y2="40.26"/><line class="cls-1" x1="72.37" y1="40.26" x2="90.26" y2="33.4"/><line class="cls-1" x1="184.35" y1="278.74" x2="166.46" y2="285.6"/><line class="cls-1" x1="166.46" y1="285.6" x2="129.55" y2="189.36"/><line class="cls-1" x1="129.55" y1="189.36" x2="147.44" y2="182.5"/><line class="cls-1" x1="241.52" y1="427.81" x2="223.63" y2="434.67"/><line class="cls-1" x1="223.63" y1="434.67" x2="186.72" y2="338.43"/><line class="cls-1" x1="186.72" y1="338.43" x2="204.61" y2="331.57"/><line class="cls-1" x1="184.35" y1="278.74" x2="193.9" y2="303.65"/><line class="cls-1" x1="127.17" y1="129.64" x2="136.72" y2="154.54"/><line class="cls-1" x1="119.05" y1="332.35" x2="106.19" y2="298.8"/><line class="cls-1" x1="106.19" y1="298.8" x2="92.77" y2="303.95"/><line class="cls-1" x1="92.77" y1="303.95" x2="67.92" y2="239.16"/><line class="cls-1" x1="67.92" y1="239.16" x2="81.34" y2="234.01"/><line class="cls-1" x1="81.34" y1="234.01" x2="62.95" y2="186.07"/><line class="cls-1" x1="194.99" y1="306.48" x2="204.61" y2="331.57"/><line class="cls-1" x1="137.8" y1="157.37" x2="147.44" y2="182.5"/><line class="cls-1" x1="61.96" y1="183.21" x2="49.06" y2="149.58"/><line class="cls-1" x1="49.06" y1="149.58" x2="35.64" y2="154.73"/><line class="cls-1" x1="35.64" y1="154.73" x2="10.86" y2="90.12"/><line class="cls-1" x1="10.86" y1="90.12" x2="24.25" y2="84.98"/><line class="cls-1" x1="24.25" y1="84.98" x2="4.29" y2="32.95"/><line class="cls-1" x1="4.29" y1="32.95" x2="78.99" y2="4.29"/><line class="cls-1" x1="78.99" y1="4.29" x2="90.17" y2="33.43"/><line class="cls-1" x1="186.09" y1="274.82" x2="208.53" y2="333.31"/><line class="cls-1" x1="243.26" y1="423.89" x2="264.49" y2="479.24"/><line class="cls-1" x1="264.49" y1="479.24" x2="183.98" y2="510.11"/><line class="cls-1" x1="183.98" y1="510.12" x2="161.62" y2="451.82"/><line class="cls-1" x1="161.62" y1="451.81" x2="148.2" y2="456.96"/><line class="cls-1" x1="148.2" y1="456.96" x2="121.18" y2="386.51"/><line class="cls-1" x1="121.18" y1="386.51" x2="134.6" y2="381.37"/><line class="cls-1" x1="134.6" y1="381.37" x2="104.44" y2="302.72"/><line class="cls-1" x1="104.44" y1="302.72" x2="91.02" y2="307.86"/><line class="cls-1" x1="91.02" y1="307.86" x2="64.01" y2="237.41"/><line class="cls-1" x1="64.01" y1="237.41" x2="77.43" y2="232.27"/><line class="cls-1" x1="77.43" y1="232.27" x2="47.26" y2="153.62"/><line class="cls-1" x1="47.26" y1="153.62" x2="33.84" y2="158.77"/><line class="cls-1" x1="33.84" y1="158.77" x2="6.82" y2="88.32"/><line class="cls-1" x1="6.82" y1="88.32" x2="20.21" y2="83.18"/><line class="cls-1" x1="20.21" y1="83.18" x2=".25" y2="31.15"/><line class="cls-1" x1=".25" y1="31.15" x2="80.79" y2=".26"/><line class="cls-1" x1="80.79" y1=".25" x2="94.17" y2="35.14"/><line class="cls-2" x1="94.18" y1="35.14" x2="128.91" y2="125.72"/><line class="cls-2" x1="151.36" y1="184.24" x2="186.09" y2="274.82"/><line class="cls-2" x1="208.53" y1="333.31" x2="243.26" y2="423.89"/>
</svg>