<svg viewBox="0 0 944 842" xmlns="http://www.w3.org/2000/svg">
<style type="text/css">
	.st0{fill:none;stroke:#000000;stroke-width:1.13;stroke-linecap:round;stroke-linejoin:round;}
	.st1{fill-rule:evenodd;clip-rule:evenodd;}
	.st2{fill:none;stroke:#000000;stroke-width:0.25;stroke-linecap:round;stroke-linejoin:round;}
</style>
<g>
	<line class="st0" x1="387.9" y1="350.7" x2="377.6" y2="388"/>
	<line class="st0" x1="377.6" y1="388" x2="421.4" y2="400.1"/>
	<line class="st0" x1="421.4" y1="400.1" x2="425.3" y2="386.1"/>
	<line class="st0" x1="425.3" y1="386.1" x2="431.7" y2="362.8"/>
	<line class="st0" x1="431.7" y1="362.8" x2="387.9" y2="350.7"/>
	<line class="st0" x1="423" y1="400.8" x2="481.5" y2="421.8"/>
	<line class="st0" x1="481.5" y1="421.8" x2="486.4" y2="408"/>
	<line class="st0" x1="486.4" y1="408" x2="425.3" y2="386.1"/>
	<line class="st0" x1="425.3" y1="386.1" x2="421.4" y2="400.1"/>
	<line class="st0" x1="421.4" y1="400.1" x2="423" y2="400.8"/>
	<g>
		<polyline class="st1" points="387.9,350.7 431.7,362.8 425.3,386.1 421.4,400.1 377.6,388 387.9,350.7"/>
		<polyline class="st1" points="423,400.8 421.4,400.1 425.3,386.1 486.4,408 481.5,421.8 423,400.8"/>
		<polyline class="st1" points="423,400.8 416,418.2 437,426.7 431.5,440.2 410.5,431.8 404.8,446 379.4,435.8 396.5,393.3 
			421.4,400.1 423,400.8"/>
	</g>
	<line class="st0" x1="423" y1="400.8" x2="421.4" y2="400.1"/>
	<line class="st0" x1="421.4" y1="400.1" x2="396.5" y2="393.3"/>
	<line class="st0" x1="396.5" y1="393.3" x2="379.4" y2="435.8"/>
	<line class="st0" x1="379.4" y1="435.8" x2="404.8" y2="446"/>
	<line class="st0" x1="404.8" y1="446" x2="410.5" y2="431.8"/>
	<line class="st0" x1="410.5" y1="431.8" x2="431.5" y2="440.2"/>
	<line class="st0" x1="431.5" y1="440.2" x2="437" y2="426.7"/>
	<line class="st0" x1="437" y1="426.7" x2="416" y2="418.2"/>
	<line class="st0" x1="416" y1="418.2" x2="423" y2="400.8"/>
	<line class="st2" x1="390.6" y1="340.7" x2="434.5" y2="352.8"/>
	<line class="st2" x1="434.5" y1="352.8" x2="421.4" y2="400.1"/>
	<line class="st2" x1="421.4" y1="400.1" x2="377.6" y2="388"/>
	<line class="st2" x1="377.6" y1="388" x2="390.6" y2="340.7"/>
	<line class="st2" x1="396.5" y1="393.3" x2="379.4" y2="435.8"/>
	<line class="st2" x1="379.4" y1="435.8" x2="404.8" y2="446"/>
	<line class="st2" x1="404.8" y1="446" x2="410.5" y2="431.8"/>
	<line class="st2" x1="410.5" y1="431.8" x2="431.5" y2="440.2"/>
	<line class="st2" x1="431.5" y1="440.2" x2="437" y2="426.7"/>
	<line class="st2" x1="437" y1="426.7" x2="416" y2="418.2"/>
	<line class="st2" x1="416" y1="418.2" x2="423" y2="400.8"/>
	<line class="st2" x1="423" y1="400.8" x2="421.4" y2="400.1"/>
	<line class="st2" x1="425.3" y1="386.1" x2="486.4" y2="408"/>
	<line class="st2" x1="486.4" y1="408" x2="481.5" y2="421.8"/>
	<line class="st2" x1="481.5" y1="421.8" x2="423" y2="400.8"/>
	<line class="st2" x1="521.3" y1="438.5" x2="509" y2="470"/>
	<line class="st2" x1="509" y1="470" x2="575.6" y2="495.9"/>
	<line class="st2" x1="575.6" y1="495.9" x2="587.8" y2="464.3"/>
	<line class="st2" x1="587.8" y1="464.3" x2="521.3" y2="438.5"/>
	<line class="st2" x1="545.2" y1="447.8" x2="558.3" y2="452.9"/>
	<line class="st2" x1="558.3" y1="452.9" x2="562.2" y2="442.8"/>
	<line class="st2" x1="562.2" y1="442.8" x2="549.1" y2="437.7"/>
	<line class="st2" x1="549.1" y1="437.7" x2="545.2" y2="447.8"/>
	<line class="st2" x1="488.6" y1="408.6" x2="482.9" y2="424.6"/>
	<line class="st2" x1="482.9" y1="424.6" x2="490.4" y2="427.3"/>
	<line class="st2" x1="490.4" y1="427.3" x2="496.1" y2="411.3"/>
	<line class="st2" x1="496.1" y1="411.3" x2="488.6" y2="408.6"/>
	<line class="st2" x1="354.5" y1="554.1" x2="338.6" y2="588.5"/>
	<line class="st2" x1="338.6" y1="588.5" x2="380" y2="607.7"/>
	<line class="st2" x1="380" y1="607.7" x2="396" y2="573.3"/>
	<line class="st2" x1="396" y1="573.3" x2="354.5" y2="554.1"/>
	<line class="st2" x1="118.4" y1="580.8" x2="138.2" y2="554.3"/>
	<line class="st2" x1="138.2" y1="554.3" x2="169.2" y2="577.6"/>
	<line class="st2" x1="169.2" y1="577.6" x2="149.4" y2="604"/>
	<line class="st2" x1="149.4" y1="604" x2="118.4" y2="580.8"/>
	<line class="st2" x1="375.8" y1="450.3" x2="431.3" y2="471.6"/>
	<line class="st2" x1="431.3" y1="471.6" x2="426.7" y2="483.5"/>
	<line class="st2" x1="426.7" y1="483.5" x2="435" y2="486.7"/>
	<line class="st2" x1="435" y1="486.7" x2="426.2" y2="509.8"/>
	<line class="st2" x1="426.2" y1="509.8" x2="362.3" y2="485.4"/>
	<line class="st2" x1="362.3" y1="485.4" x2="375.8" y2="450.3"/>
	<line class="st2" x1="419.3" y1="348.6" x2="430.7" y2="307.3"/>
	<line class="st2" x1="430.7" y1="307.3" x2="465.4" y2="316.9"/>
	<line class="st2" x1="465.4" y1="316.9" x2="460.4" y2="335"/>
	<line class="st2" x1="460.4" y1="335" x2="453.2" y2="333"/>
	<line class="st2" x1="453.2" y1="333" x2="446.8" y2="356.2"/>
	<line class="st2" x1="446.8" y1="356.2" x2="434.5" y2="352.8"/>
	<line class="st2" x1="430.7" y1="307.3" x2="437.4" y2="283.2"/>
	<line class="st2" x1="437.4" y1="283.2" x2="400.1" y2="270.6"/>
	<line class="st2" x1="400.1" y1="270.6" x2="405.7" y2="249.8"/>
	<line class="st2" x1="405.7" y1="249.8" x2="456.4" y2="266.1"/>
	<line class="st2" x1="456.4" y1="266.1" x2="452.2" y2="281.9"/>
	<line class="st2" x1="452.2" y1="281.9" x2="459.6" y2="283.9"/>
	<line class="st2" x1="459.6" y1="283.9" x2="451.5" y2="313"/>
	<line class="st2" x1="412.6" y1="230.6" x2="424.8" y2="232.2"/>
	<line class="st2" x1="424.8" y1="232.2" x2="422.5" y2="250.1"/>
	<line class="st2" x1="422.5" y1="250.1" x2="410.3" y2="248.5"/>
	<line class="st2" x1="410.3" y1="248.5" x2="412.6" y2="230.6"/>
	<line class="st2" x1="456.2" y1="226.3" x2="447.9" y2="257.7"/>
	<line class="st2" x1="447.9" y1="257.7" x2="456.8" y2="260.1"/>
	<line class="st2" x1="456.8" y1="260.1" x2="465.1" y2="228.7"/>
	<line class="st2" x1="465.1" y1="228.7" x2="456.2" y2="226.3"/>
	<line class="st2" x1="331.3" y1="317.1" x2="360" y2="326.7"/>
	<line class="st2" x1="360" y1="326.7" x2="380.8" y2="264.2"/>
	<line class="st2" x1="380.8" y1="264.2" x2="352.1" y2="254.6"/>
	<line class="st2" x1="352.1" y1="254.6" x2="331.3" y2="317.1"/>
	<line class="st2" x1="380.8" y1="264.2" x2="392.1" y2="230.3"/>
	<line class="st2" x1="392.1" y1="230.3" x2="371.7" y2="223.5"/>
	<line class="st2" x1="371.7" y1="223.5" x2="362" y2="226.2"/>
	<line class="st2" x1="362" y1="226.2" x2="352.1" y2="254.6"/>
	<line class="st2" x1="345.9" y1="273.3" x2="325.4" y2="266.5"/>
	<line class="st2" x1="325.4" y1="266.5" x2="335.3" y2="236.7"/>
	<line class="st2" x1="335.3" y1="236.7" x2="355.9" y2="243.9"/>
	<line class="st2" x1="325.4" y1="266.5" x2="300" y2="258"/>
	<line class="st2" x1="300" y1="258" x2="309.9" y2="228.2"/>
	<line class="st2" x1="309.9" y1="228.2" x2="335.3" y2="236.7"/>
	<line class="st2" x1="337.8" y1="412.3" x2="315.5" y2="406.1"/>
	<line class="st2" x1="315.5" y1="406.1" x2="311.1" y2="421.9"/>
	<line class="st2" x1="311.1" y1="421.9" x2="287.7" y2="415.4"/>
	<line class="st2" x1="287.7" y1="415.4" x2="283.8" y2="429.5"/>
	<line class="st2" x1="283.8" y1="429.5" x2="329" y2="443.9"/>
	<line class="st2" x1="329" y1="443.9" x2="337.8" y2="412.3"/>
	<line class="st2" x1="329" y1="443.9" x2="314.5" y2="489.3"/>
	<line class="st2" x1="314.5" y1="489.3" x2="263.5" y2="473"/>
	<line class="st2" x1="263.5" y1="473" x2="270.6" y2="450.6"/>
	<line class="st2" x1="270.6" y1="450.6" x2="276.5" y2="452.5"/>
	<line class="st2" x1="276.5" y1="452.5" x2="283.8" y2="429.5"/>
	<line class="st2" x1="312.3" y1="488.6" x2="308.4" y2="504.3"/>
	<line class="st2" x1="308.4" y1="504.3" x2="266.7" y2="495.3"/>
	<line class="st2" x1="266.7" y1="495.3" x2="241.4" y2="485.7"/>
	<line class="st2" x1="241.4" y1="485.7" x2="250.8" y2="468.2"/>
	<line class="st2" x1="250.8" y1="468.2" x2="263.5" y2="473"/>
	<line class="st2" x1="231.1" y1="464.3" x2="226.2" y2="476.1"/>
	<line class="st2" x1="226.2" y1="476.1" x2="233.2" y2="479.1"/>
	<line class="st2" x1="233.2" y1="479.1" x2="238.9" y2="465.3"/>
	<line class="st2" x1="238.9" y1="465.3" x2="231.1" y2="464.3"/>
	<line class="st2" x1="314.4" y1="512.7" x2="330.9" y2="526.1"/>
	<line class="st2" x1="330.9" y1="526.1" x2="319.7" y2="539.9"/>
	<line class="st2" x1="319.7" y1="539.9" x2="317" y2="537.2"/>
	<line class="st2" x1="317" y1="537.2" x2="310.6" y2="543.6"/>
	<line class="st2" x1="310.6" y1="543.6" x2="298.8" y2="531.9"/>
	<line class="st2" x1="298.8" y1="531.9" x2="303.8" y2="526.9"/>
	<line class="st2" x1="303.8" y1="526.9" x2="297.9" y2="522.2"/>
	<line class="st2" x1="297.9" y1="522.2" x2="306.9" y2="513.2"/>
	<line class="st2" x1="306.9" y1="513.2" x2="314.4" y2="512.7"/>
	<line class="st2" x1="167.3" y1="527.6" x2="212.5" y2="559.1"/>
	<line class="st2" x1="212.5" y1="559.1" x2="229.8" y2="534.2"/>
	<line class="st2" x1="229.8" y1="534.2" x2="207.7" y2="518.8"/>
	<line class="st2" x1="207.7" y1="518.8" x2="199.6" y2="530.5"/>
	<line class="st2" x1="199.6" y1="530.5" x2="176.5" y2="514.4"/>
	<line class="st2" x1="176.5" y1="514.4" x2="167.3" y2="527.6"/>
	<line class="st2" x1="184.5" y1="520" x2="211.3" y2="481.4"/>
	<line class="st2" x1="211.3" y1="481.4" x2="227.1" y2="492.4"/>
	<line class="st2" x1="227.1" y1="492.4" x2="216.8" y2="507.2"/>
	<line class="st2" x1="216.8" y1="507.2" x2="238.2" y2="522.1"/>
	<line class="st2" x1="238.2" y1="522.1" x2="229.8" y2="534.2"/>
	<line class="st2" x1="501.4" y1="193.7" x2="539.1" y2="205.2"/>
	<line class="st2" x1="539.1" y1="205.2" x2="550.8" y2="166.7"/>
	<line class="st2" x1="550.8" y1="166.7" x2="513.1" y2="155.2"/>
	<line class="st2" x1="513.1" y1="155.2" x2="501.4" y2="193.7"/>
	<line class="st2" x1="516.9" y1="137.6" x2="554.7" y2="149.1"/>
	<line class="st2" x1="554.7" y1="149.1" x2="562.8" y2="122.5"/>
	<line class="st2" x1="562.8" y1="122.5" x2="525" y2="111"/>
	<line class="st2" x1="525" y1="111" x2="516.9" y2="137.6"/>
	<line class="st2" x1="383.1" y1="175" x2="374.2" y2="195.4"/>
	<line class="st2" x1="374.2" y1="195.4" x2="325.6" y2="174.2"/>
	<line class="st2" x1="325.6" y1="174.2" x2="334.5" y2="153.8"/>
	<line class="st2" x1="334.5" y1="153.8" x2="383.1" y2="175"/>
	<line class="st2" x1="383.1" y1="175" x2="388.5" y2="177.4"/>
	<line class="st2" x1="388.5" y1="177.4" x2="402.3" y2="145.8"/>
	<line class="st2" x1="402.3" y1="145.8" x2="348.3" y2="122.2"/>
	<line class="st2" x1="348.3" y1="122.2" x2="334.5" y2="153.8"/>
	<line class="st2" x1="404.8" y1="446" x2="404.8" y2="446"/>
	<line class="st2" x1="405.3" y1="446.2" x2="405.3" y2="446.2"/>
	<line class="st2" x1="406.2" y1="446.6" x2="406.2" y2="446.6"/>
	<line class="st2" x1="407.1" y1="447" x2="407.1" y2="447"/>
	<line class="st2" x1="408.1" y1="447.4" x2="408.1" y2="447.4"/>
	<line class="st2" x1="409" y1="447.7" x2="409" y2="447.7"/>
	<line class="st2" x1="409.9" y1="448.1" x2="409.9" y2="448.1"/>
	<line class="st2" x1="410.8" y1="448.5" x2="410.8" y2="448.5"/>
	<line class="st2" x1="411.8" y1="448.9" x2="411.8" y2="448.9"/>
	<line class="st2" x1="412.7" y1="449.2" x2="412.7" y2="449.2"/>
	<line class="st2" x1="413.6" y1="449.6" x2="413.6" y2="449.6"/>
	<line class="st2" x1="414.5" y1="450" x2="414.5" y2="450"/>
	<line class="st2" x1="415.5" y1="450.4" x2="415.5" y2="450.4"/>
	<line class="st2" x1="416.4" y1="450.7" x2="416.4" y2="450.7"/>
	<line class="st2" x1="417.3" y1="451.1" x2="417.3" y2="451.1"/>
	<line class="st2" x1="418.3" y1="451.5" x2="418.3" y2="451.5"/>
	<line class="st2" x1="419.2" y1="451.9" x2="419.2" y2="451.9"/>
	<line class="st2" x1="420.1" y1="452.2" x2="420.1" y2="452.2"/>
	<line class="st2" x1="421" y1="452.6" x2="421" y2="452.6"/>
	<line class="st2" x1="422" y1="453" x2="422" y2="453"/>
	<line class="st2" x1="422.9" y1="453.3" x2="422.9" y2="453.3"/>
	<line class="st2" x1="423.8" y1="453.7" x2="423.8" y2="453.7"/>
	<line class="st2" x1="424.8" y1="454.1" x2="424.8" y2="454.1"/>
	<line class="st2" x1="425.7" y1="454.5" x2="425.7" y2="454.5"/>
	<line class="st2" x1="426.6" y1="454.8" x2="426.6" y2="454.8"/>
	<line class="st2" x1="427.5" y1="455.2" x2="427.5" y2="455.2"/>
	<line class="st2" x1="428.5" y1="455.6" x2="428.5" y2="455.6"/>
	<line class="st2" x1="429.4" y1="456" x2="429.4" y2="456"/>
	<line class="st2" x1="430.3" y1="456.3" x2="430.3" y2="456.3"/>
	<line class="st2" x1="431.3" y1="456.7" x2="431.3" y2="456.7"/>
	<line class="st2" x1="431.8" y1="456.9" x2="431.8" y2="456.9"/>
	<line class="st2" x1="431.8" y1="456.9" x2="431.8" y2="456.9"/>
	<line class="st2" x1="432.1" y1="456" x2="432.1" y2="456"/>
	<line class="st2" x1="432.5" y1="455.1" x2="432.5" y2="455.1"/>
	<line class="st2" x1="432.9" y1="454.2" x2="432.9" y2="454.2"/>
	<line class="st2" x1="433.2" y1="453.2" x2="433.2" y2="453.2"/>
	<line class="st2" x1="433.6" y1="452.3" x2="433.6" y2="452.3"/>
	<line class="st2" x1="434" y1="451.4" x2="434" y2="451.4"/>
	<line class="st2" x1="434.4" y1="450.5" x2="434.4" y2="450.5"/>
	<line class="st2" x1="434.7" y1="449.5" x2="434.7" y2="449.5"/>
	<line class="st2" x1="435.1" y1="448.6" x2="435.1" y2="448.6"/>
	<line class="st2" x1="435.5" y1="447.7" x2="435.5" y2="447.7"/>
	<line class="st2" x1="435.9" y1="446.7" x2="435.9" y2="446.7"/>
	<line class="st2" x1="436.2" y1="445.8" x2="436.2" y2="445.8"/>
	<line class="st2" x1="436.6" y1="444.9" x2="436.6" y2="444.9"/>
	<line class="st2" x1="437" y1="444" x2="437" y2="444"/>
	<line class="st2" x1="437.3" y1="443" x2="437.3" y2="443"/>
	<line class="st2" x1="437.7" y1="442.1" x2="437.7" y2="442.1"/>
	<line class="st2" x1="438.1" y1="441.2" x2="438.1" y2="441.2"/>
	<line class="st2" x1="438.5" y1="440.2" x2="438.5" y2="440.2"/>
	<line class="st2" x1="438.8" y1="439.3" x2="438.8" y2="439.3"/>
	<line class="st2" x1="439.2" y1="438.4" x2="439.2" y2="438.4"/>
	<line class="st2" x1="439.6" y1="437.5" x2="439.6" y2="437.5"/>
	<line class="st2" x1="440" y1="436.5" x2="440" y2="436.5"/>
	<line class="st2" x1="440.3" y1="435.6" x2="440.3" y2="435.6"/>
	<line class="st2" x1="440.7" y1="434.7" x2="440.7" y2="434.7"/>
	<line class="st2" x1="441.1" y1="433.8" x2="441.1" y2="433.8"/>
	<line class="st2" x1="441.4" y1="432.8" x2="441.4" y2="432.8"/>
	<line class="st2" x1="441.8" y1="431.9" x2="441.8" y2="431.9"/>
	<line class="st2" x1="442.2" y1="431" x2="442.2" y2="431"/>
	<line class="st2" x1="442.6" y1="430" x2="442.6" y2="430"/>
	<line class="st2" x1="442.9" y1="429.1" x2="442.9" y2="429.1"/>
	<line class="st2" x1="443.3" y1="428.2" x2="443.3" y2="428.2"/>
	<line class="st2" x1="443.7" y1="427.2" x2="443.7" y2="427.2"/>
	<line class="st2" x1="444" y1="426.3" x2="444" y2="426.3"/>
	<line class="st2" x1="444.4" y1="425.4" x2="444.4" y2="425.4"/>
	<line class="st2" x1="444.8" y1="424.5" x2="444.8" y2="424.5"/>
	<line class="st2" x1="445.2" y1="423.5" x2="445.2" y2="423.5"/>
	<line class="st2" x1="445.5" y1="422.6" x2="445.5" y2="422.6"/>
	<line class="st2" x1="445.9" y1="421.7" x2="445.9" y2="421.7"/>
	<line class="st2" x1="446.3" y1="420.8" x2="446.3" y2="420.8"/>
	<line class="st2" x1="446.7" y1="419.8" x2="446.7" y2="419.8"/>
	<line class="st2" x1="447" y1="418.9" x2="447" y2="418.9"/>
	<line class="st2" x1="447.4" y1="418" x2="447.4" y2="418"/>
	<line class="st2" x1="447.8" y1="417" x2="447.8" y2="417"/>
	<line class="st2" x1="448.2" y1="416.1" x2="448.2" y2="416.1"/>
	<line class="st2" x1="448.5" y1="415.2" x2="448.5" y2="415.2"/>
	<line class="st2" x1="448.9" y1="414.3" x2="448.9" y2="414.3"/>
	<line class="st2" x1="449.3" y1="413.3" x2="449.3" y2="413.3"/>
	<line class="st2" x1="449.6" y1="412.4" x2="449.6" y2="412.4"/>
	<line class="st2" x1="450" y1="411.5" x2="450" y2="411.5"/>
	<line class="st2" x1="450.4" y1="410.6" x2="450.4" y2="410.6"/>
	<line class="st2" x1="241" y1="704.7" x2="315.6" y2="738.9"/>
	<line class="st2" x1="315.6" y1="738.9" x2="331.4" y2="704.7"/>
	<line class="st2" x1="331.4" y1="704.7" x2="256.7" y2="670.4"/>
	<line class="st2" x1="256.7" y1="670.4" x2="241" y2="704.7"/>
	<line class="st2" x1="216.6" y1="383.2" x2="225.6" y2="346.1"/>
	<line class="st2" x1="225.6" y1="346.1" x2="279.6" y2="359.3"/>
	<line class="st2" x1="279.6" y1="359.3" x2="276.2" y2="373.3"/>
	<line class="st2" x1="276.2" y1="373.3" x2="254.7" y2="368"/>
	<line class="st2" x1="254.7" y1="368" x2="249.1" y2="391.1"/>
	<line class="st2" x1="249.1" y1="391.1" x2="216.6" y2="383.2"/>
	<line class="st2" x1="348.3" y1="122.2" x2="359.2" y2="97.3"/>
	<line class="st2" x1="359.2" y1="97.3" x2="347.7" y2="92.3"/>
	<line class="st2" x1="347.7" y1="92.3" x2="372.3" y2="36.2"/>
	<line class="st2" x1="372.3" y1="36.2" x2="348.1" y2="25.6"/>
	<line class="st2" x1="348.1" y1="25.6" x2="355.2" y2="9.2"/>
	<line class="st2" x1="355.2" y1="9.2" x2="414" y2="34.9"/>
	<line class="st2" x1="414" y1="34.9" x2="389.6" y2="90.6"/>
	<line class="st2" x1="389.6" y1="90.6" x2="423.9" y2="102.5"/>
	<line class="st2" x1="423.9" y1="102.5" x2="408.1" y2="147.8"/>
	<line class="st2" x1="408.1" y1="147.8" x2="402.3" y2="145.8"/>
	<line class="st2" x1="549.7" y1="2.7" x2="521.6" y2="94.7"/>
	<line class="st2" x1="521.6" y1="94.7" x2="564.9" y2="108"/>
	<line class="st2" x1="564.9" y1="108" x2="593" y2="15.9"/>
	<line class="st2" x1="593" y1="15.9" x2="549.7" y2="2.7"/>
	<line class="st2" x1="639.9" y1="264.3" x2="659.3" y2="192.1"/>
	<line class="st2" x1="659.3" y1="192.1" x2="683.5" y2="198.6"/>
	<line class="st2" x1="683.5" y1="198.6" x2="664.1" y2="270.9"/>
	<line class="st2" x1="664.1" y1="270.9" x2="639.9" y2="264.3"/>
	<line class="st2" x1="650.9" y1="22.4" x2="689.4" y2="25.5"/>
	<line class="st2" x1="689.4" y1="25.5" x2="686.9" y2="56.2"/>
	<line class="st2" x1="686.9" y1="56.2" x2="648.4" y2="53"/>
	<line class="st2" x1="648.4" y1="53" x2="650.9" y2="22.4"/>
	<line class="st2" x1="748" y1="48.5" x2="802.6" y2="63.1"/>
	<line class="st2" x1="802.6" y1="63.1" x2="791.8" y2="103.7"/>
	<line class="st2" x1="791.8" y1="103.7" x2="737.2" y2="89.2"/>
	<line class="st2" x1="737.2" y1="89.2" x2="748" y2="48.5"/>
	<line class="st2" x1="811.9" y1="75.7" x2="851" y2="81"/>
	<line class="st2" x1="851" y1="81" x2="847.8" y2="104.1"/>
	<line class="st2" x1="847.8" y1="104.1" x2="808.8" y2="98.8"/>
	<line class="st2" x1="808.8" y1="98.8" x2="811.9" y2="75.7"/>
	<line class="st2" x1="754.3" y1="18.4" x2="770.9" y2="24.8"/>
	<line class="st2" x1="770.9" y1="24.8" x2="762.2" y2="47.7"/>
	<line class="st2" x1="762.2" y1="47.7" x2="745.6" y2="41.3"/>
	<line class="st2" x1="745.6" y1="41.3" x2="754.3" y2="18.4"/>
	<line class="st2" x1="797.3" y1="31.6" x2="812.4" y2="36.4"/>
	<line class="st2" x1="812.4" y1="36.4" x2="805.5" y2="58.1"/>
	<line class="st2" x1="805.5" y1="58.1" x2="790.5" y2="53.4"/>
	<line class="st2" x1="790.5" y1="53.4" x2="797.3" y2="31.6"/>
	<line class="st2" x1="879.6" y1="104.8" x2="935.1" y2="119.9"/>
	<line class="st2" x1="935.1" y1="119.9" x2="926.8" y2="150.3"/>
	<line class="st2" x1="926.8" y1="150.3" x2="897.3" y2="142.3"/>
	<line class="st2" x1="897.3" y1="142.3" x2="895.8" y2="147.9"/>
	<line class="st2" x1="895.8" y1="147.9" x2="869.8" y2="140.8"/>
	<line class="st2" x1="869.8" y1="140.8" x2="879.6" y2="104.8"/>
	<line class="st2" x1="886.2" y1="265" x2="876.9" y2="291.6"/>
	<line class="st2" x1="876.9" y1="291.6" x2="897.5" y2="298.8"/>
	<line class="st2" x1="897.5" y1="298.8" x2="906.9" y2="272.2"/>
	<line class="st2" x1="906.9" y1="272.2" x2="886.2" y2="265"/>
	<line class="st2" x1="141.7" y1="647.4" x2="121.4" y2="697.3"/>
	<line class="st2" x1="121.4" y1="697.3" x2="137.3" y2="703.8"/>
	<line class="st2" x1="137.3" y1="703.8" x2="131.3" y2="718.7"/>
	<line class="st2" x1="131.3" y1="718.7" x2="162.6" y2="731.5"/>
	<line class="st2" x1="162.6" y1="731.5" x2="189" y2="666.7"/>
	<line class="st2" x1="189" y1="666.7" x2="178.1" y2="662.2"/>
	<line class="st2" x1="178.1" y1="662.2" x2="183.9" y2="648"/>
	<line class="st2" x1="183.9" y1="648" x2="163.5" y2="639.7"/>
	<line class="st2" x1="163.5" y1="639.7" x2="157.7" y2="653.9"/>
	<line class="st2" x1="157.7" y1="653.9" x2="141.7" y2="647.4"/>
	<line class="st2" x1="37.1" y1="730.2" x2="6.4" y2="819"/>
	<line class="st2" x1="6.4" y1="819" x2="47.7" y2="833.2"/>
	<line class="st2" x1="47.7" y1="833.2" x2="55.9" y2="809.3"/>
	<line class="st2" x1="55.9" y1="809.3" x2="118.4" y2="831"/>
	<line class="st2" x1="118.4" y1="831" x2="126.2" y2="808.5"/>
	<line class="st2" x1="126.2" y1="808.5" x2="57.7" y2="784.8"/>
	<line class="st2" x1="57.7" y1="784.8" x2="72.4" y2="742.4"/>
	<line class="st2" x1="72.4" y1="742.4" x2="37.1" y2="730.2"/>
</g>
</svg>
