<?xml version="1.0" encoding="UTF-8"?><svg id="Layer_2" xmlns="http://www.w3.org/2000/svg" viewBox="0 0 650.04 771.58"><defs><style>.cls-1{stroke-width:1.42px;}.cls-1,.cls-2{fill:none;stroke:#000;stroke-linecap:round;stroke-linejoin:round;}.cls-2{stroke-width:.25px;}.cls-3{fill:#252530;fill-rule:evenodd;}</style></defs><g id="Layer_1-2"><g><polyline class="cls-3" points="239.87 82.19 254.03 54.67 290.21 73.31 276.03 100.83 239.87 82.19"/><polyline class="cls-3" points="243.31 99.94 282.41 109.16 279.84 120.1 240.72 110.88 243.31 99.94"/><line class="cls-2" x1="178.96" y1="45.45" x2="213.47" y2="62.9"/><line class="cls-2" x1="213.47" y1="62.9" x2="204.78" y2="80.09"/><line class="cls-2" x1="204.78" y1="80.09" x2="170.26" y2="62.63"/><line class="cls-2" x1="170.26" y1="62.63" x2="178.96" y2="45.45"/><line class="cls-2" x1="144.77" y1="1.08" x2="135.96" y2="18.38"/><line class="cls-2" x1="135.96" y1="18.38" x2="146.88" y2="23.94"/><line class="cls-2" x1="146.88" y1="23.94" x2="155.69" y2="6.66"/><line class="cls-2" x1="155.69" y1="6.66" x2="144.77" y2="1.08"/><line class="cls-2" x1="135.81" y1=".12" x2="140.54" y2="2.53"/><line class="cls-2" x1="140.54" y1="2.53" x2="139.06" y2="5.48"/><line class="cls-2" x1="139.06" y1="5.48" x2="134.31" y2="3.08"/><line class="cls-2" x1="134.31" y1="3.08" x2="135.81" y2=".12"/><line class="cls-2" x1="370.81" y1="96.71" x2="348.54" y2="90.9"/><line class="cls-2" x1="348.54" y1="90.9" x2="346.2" y2="99.88"/><line class="cls-2" x1="346.2" y1="99.88" x2="368.46" y2="105.69"/><line class="cls-2" x1="368.46" y1="105.69" x2="370.81" y2="96.71"/><line class="cls-2" x1="254.03" y1="54.67" x2="290.21" y2="73.31"/><line class="cls-2" x1="290.21" y1="73.31" x2="276.03" y2="100.83"/><line class="cls-2" x1="276.03" y1="100.83" x2="239.87" y2="82.19"/><line class="cls-2" x1="239.87" y1="82.19" x2="254.03" y2="54.67"/><line class="cls-2" x1="243.31" y1="99.94" x2="282.41" y2="109.16"/><line class="cls-2" x1="282.41" y1="109.16" x2="279.84" y2="120.1"/><line class="cls-2" x1="279.84" y1="120.1" x2="240.72" y2="110.88"/><line class="cls-2" x1="240.72" y1="110.88" x2="243.31" y2="99.94"/><line class="cls-2" x1="212.15" y1="209.91" x2="228.71" y2="177.32"/><line class="cls-2" x1="228.71" y1="177.32" x2="250.02" y2="188.15"/><line class="cls-2" x1="250.02" y1="188.15" x2="233.46" y2="220.75"/><line class="cls-2" x1="233.46" y1="220.75" x2="212.15" y2="209.91"/><line class="cls-2" x1="110.56" y1="87.16" x2="116.85" y2="90.35"/><line class="cls-2" x1="116.85" y1="90.35" x2="113.56" y2="96.82"/><line class="cls-2" x1="113.56" y1="96.82" x2="107.28" y2="93.61"/><line class="cls-2" x1="107.28" y1="93.61" x2="110.56" y2="87.16"/><line class="cls-2" x1="139.57" y1="72.28" x2="145.46" y2="75.19"/><line class="cls-2" x1="145.46" y1="75.19" x2="150.93" y2="64.08"/><line class="cls-2" x1="150.93" y1="64.08" x2="163.21" y2="70.12"/><line class="cls-2" x1="163.21" y1="70.12" x2="165.81" y2="64.84"/><line class="cls-2" x1="165.81" y1="64.84" x2="171.56" y2="67.66"/><line class="cls-2" x1="171.56" y1="67.66" x2="168.96" y2="72.95"/><line class="cls-2" x1="168.96" y1="72.95" x2="197.97" y2="87.63"/><line class="cls-2" x1="197.97" y1="87.63" x2="174.93" y2="133.15"/><line class="cls-2" x1="174.93" y1="133.15" x2="192.09" y2="141.83"/><line class="cls-2" x1="192.09" y1="141.83" x2="189.09" y2="147.75"/><line class="cls-2" x1="189.09" y1="147.75" x2="195.16" y2="150.83"/><line class="cls-2" x1="195.16" y1="150.83" x2="180.09" y2="180.63"/><line class="cls-2" x1="180.09" y1="180.63" x2="174.01" y2="177.55"/><line class="cls-2" x1="174.01" y1="177.55" x2="171.16" y2="183.19"/><line class="cls-2" x1="171.16" y1="183.19" x2="160.06" y2="177.57"/><line class="cls-2" x1="160.06" y1="177.57" x2="151.85" y2="193.77"/><line class="cls-2" x1="151.85" y1="193.77" x2="186.41" y2="211.25"/><line class="cls-2" x1="186.41" y1="211.25" x2="171.4" y2="240.9"/><line class="cls-2" x1="171.4" y1="240.9" x2="130.81" y2="220.35"/><line class="cls-2" x1="130.81" y1="220.35" x2="127.77" y2="226.34"/><line class="cls-2" x1="127.77" y1="226.34" x2="115.41" y2="220.08"/><line class="cls-2" x1="115.41" y1="220.08" x2="118.44" y2="214.1"/><line class="cls-2" x1="118.44" y1="214.1" x2="112.46" y2="211.08"/><line class="cls-2" x1="112.46" y1="211.08" x2="127.47" y2="181.43"/><line class="cls-2" x1="127.47" y1="181.43" x2="133.46" y2="184.44"/><line class="cls-2" x1="133.46" y1="184.44" x2="136.49" y2="178.44"/><line class="cls-2" x1="136.49" y1="178.44" x2="147.79" y2="184.18"/><line class="cls-2" x1="147.79" y1="184.18" x2="161.93" y2="156.24"/><line class="cls-2" x1="161.93" y1="156.24" x2="156.6" y2="153.55"/><line class="cls-2" x1="156.6" y1="153.55" x2="159.46" y2="147.91"/><line class="cls-2" x1="159.46" y1="147.91" x2="164.78" y2="150.6"/><line class="cls-2" x1="164.78" y1="150.6" x2="170.34" y2="139.63"/><line class="cls-2" x1="170.34" y1="139.63" x2="153.06" y2="130.88"/><line class="cls-2" x1="153.06" y1="130.88" x2="155.99" y2="125.08"/><line class="cls-2" x1="155.99" y1="125.08" x2="145.29" y2="119.68"/><line class="cls-2" x1="145.29" y1="119.68" x2="142.68" y2="124.88"/><line class="cls-2" x1="142.68" y1="124.88" x2="137.06" y2="122.05"/><line class="cls-2" x1="137.06" y1="122.05" x2="139.69" y2="116.83"/><line class="cls-2" x1="139.69" y1="116.83" x2="127.9" y2="110.88"/><line class="cls-2" x1="127.9" y1="110.88" x2="133.37" y2="99.77"/><line class="cls-2" x1="133.37" y1="99.77" x2="127.13" y2="96.71"/><line class="cls-2" x1="127.13" y1="96.71" x2="139.57" y2="72.28"/><line class="cls-2" x1="251.25" y1="314.84" x2="261.63" y2="312.34"/><line class="cls-2" x1="261.63" y1="312.34" x2="266.9" y2="325.46"/><line class="cls-2" x1="266.9" y1="325.46" x2="263.77" y2="326.71"/><line class="cls-2" x1="263.77" y1="326.71" x2="265.68" y2="331.44"/><line class="cls-2" x1="265.68" y1="331.44" x2="256.15" y2="335.28"/><line class="cls-2" x1="256.15" y1="335.28" x2="254.96" y2="330.25"/><line class="cls-2" x1="254.96" y1="330.25" x2="252.71" y2="330.58"/><line class="cls-2" x1="252.71" y1="330.58" x2="249.75" y2="318.27"/><line class="cls-2" x1="249.75" y1="318.27" x2="251.96" y2="317.74"/><line class="cls-2" x1="251.96" y1="317.74" x2="251.25" y2="314.84"/><line class="cls-2" x1="195.68" y1="311.33" x2="195.46" y2="314"/><line class="cls-2" x1="195.46" y1="314" x2="195.84" y2="316.65"/><line class="cls-2" x1="195.84" y1="316.65" x2="196.79" y2="319.15"/><line class="cls-2" x1="196.79" y1="319.15" x2="198.44" y2="318.4"/><line class="cls-2" x1="198.44" y1="318.4" x2="200.43" y2="321.19"/><line class="cls-2" x1="200.43" y1="321.19" x2="203.06" y2="323.4"/><line class="cls-2" x1="203.06" y1="323.4" x2="206.16" y2="324.85"/><line class="cls-2" x1="206.16" y1="324.85" x2="209.54" y2="325.47"/><line class="cls-2" x1="209.54" y1="325.47" x2="212.96" y2="325.22"/><line class="cls-2" x1="212.96" y1="325.22" x2="216.21" y2="324.09"/><line class="cls-2" x1="216.21" y1="324.09" x2="219.06" y2="322.18"/><line class="cls-2" x1="219.06" y1="322.18" x2="221.34" y2="319.62"/><line class="cls-2" x1="221.34" y1="319.62" x2="222.87" y2="316.56"/><line class="cls-2" x1="222.87" y1="316.56" x2="223.59" y2="313.19"/><line class="cls-2" x1="223.59" y1="313.19" x2="225.06" y2="313.49"/><line class="cls-2" x1="225.06" y1="313.49" x2="225.01" y2="310.87"/><line class="cls-2" x1="225.01" y1="310.87" x2="224.49" y2="308.3"/><line class="cls-2" x1="224.49" y1="308.3" x2="223.51" y2="305.85"/><line class="cls-2" x1="223.51" y1="305.85" x2="217.68" y2="308.84"/><line class="cls-2" x1="217.68" y1="308.84" x2="216.12" y2="306.74"/><line class="cls-2" x1="216.12" y1="306.74" x2="213.97" y2="305.22"/><line class="cls-2" x1="213.97" y1="305.22" x2="211.46" y2="304.47"/><line class="cls-2" x1="211.46" y1="304.47" x2="208.84" y2="304.53"/><line class="cls-2" x1="208.84" y1="304.53" x2="206.37" y2="305.43"/><line class="cls-2" x1="206.37" y1="305.43" x2="204.32" y2="307.08"/><line class="cls-2" x1="204.32" y1="307.08" x2="202.9" y2="309.28"/><line class="cls-2" x1="202.9" y1="309.28" x2="202.22" y2="311.81"/><line class="cls-2" x1="202.22" y1="311.81" x2="195.68" y2="311.33"/><line class="cls-2" x1="18.11" y1="386.38" x2="31.55" y2="391.5"/><line class="cls-2" x1="31.55" y1="391.5" x2="32.38" y2="393.53"/><line class="cls-2" x1="32.38" y1="393.53" x2="33.49" y2="394.03"/><line class="cls-2" x1="33.49" y1="394.03" x2="35.35" y2="393.3"/><line class="cls-2" x1="35.35" y1="393.3" x2="44.62" y2="396.85"/><line class="cls-2" x1="44.62" y1="396.85" x2="45.47" y2="398.75"/><line class="cls-2" x1="45.47" y1="398.75" x2="46.5" y2="399.25"/><line class="cls-2" x1="46.5" y1="399.25" x2="48.43" y2="398.33"/><line class="cls-2" x1="48.43" y1="398.33" x2="57.97" y2="402"/><line class="cls-2" x1="57.97" y1="402" x2="58.65" y2="404.1"/><line class="cls-2" x1="58.65" y1="404.1" x2="59.72" y2="404.4"/><line class="cls-2" x1="59.72" y1="404.4" x2="61.78" y2="403.47"/><line class="cls-2" x1="61.78" y1="403.47" x2="70.87" y2="407.15"/><line class="cls-2" x1="70.87" y1="407.15" x2="72.19" y2="410.31"/><line class="cls-2" x1="72.19" y1="410.31" x2="68.65" y2="419.43"/><line class="cls-2" x1="68.65" y1="419.43" x2="66.43" y2="420.47"/><line class="cls-2" x1="66.43" y1="420.47" x2="66.06" y2="421.47"/><line class="cls-2" x1="66.06" y1="421.47" x2="67.04" y2="423.58"/><line class="cls-2" x1="67.04" y1="423.58" x2="63.38" y2="432.56"/><line class="cls-2" x1="63.38" y1="432.56" x2="60.5" y2="433.94"/><line class="cls-2" x1="60.5" y1="433.94" x2="51.18" y2="430.44"/><line class="cls-2" x1="51.18" y1="430.44" x2="49.84" y2="427.22"/><line class="cls-2" x1="49.84" y1="427.22" x2="51.62" y2="422.91"/><line class="cls-2" x1="51.62" y1="422.91" x2="31.9" y2="415.08"/><line class="cls-2" x1="31.9" y1="415.08" x2="34.4" y2="408.41"/><line class="cls-2" x1="34.4" y1="408.41" x2="28.15" y2="405.9"/><line class="cls-2" x1="28.15" y1="405.9" x2="23.79" y2="416.8"/><line class="cls-2" x1="23.79" y1="416.8" x2="20.65" y2="418.22"/><line class="cls-2" x1="20.65" y1="418.22" x2="10.83" y2="414.33"/><line class="cls-2" x1="10.83" y1="414.33" x2="9.81" y2="412.15"/><line class="cls-2" x1="9.81" y1="412.15" x2="14.39" y2="400.4"/><line class="cls-2" x1="14.39" y1="400.4" x2="13.58" y2="398.31"/><line class="cls-2" x1="13.58" y1="398.31" x2="18.11" y2="386.38"/><line class="cls-1" x1="282.41" y1="109.16" x2="243.31" y2="99.94"/><line class="cls-1" x1="243.31" y1="99.94" x2="240.72" y2="110.88"/><line class="cls-1" x1="240.72" y1="110.88" x2="279.84" y2="120.1"/><line class="cls-1" x1="279.84" y1="120.1" x2="282.41" y2="109.16"/><line class="cls-2" x1="445.7" y1="123.61" x2="456.19" y2="129.05"/><line class="cls-2" x1="456.19" y1="129.05" x2="453.41" y2="134.4"/><line class="cls-2" x1="453.41" y1="134.4" x2="442.94" y2="128.97"/><line class="cls-2" x1="442.94" y1="128.97" x2="445.7" y2="123.61"/><line class="cls-2" x1="19.85" y1="465.08" x2="16.88" y2="473.16"/><line class="cls-2" x1="16.88" y1="473.16" x2="18.13" y2="476.56"/><line class="cls-2" x1="18.13" y1="476.56" x2="65.69" y2="495.38"/><line class="cls-2" x1="65.69" y1="495.38" x2="70.21" y2="494.24"/><line class="cls-2" x1="70.21" y1="494.24" x2="84.15" y2="459.43"/><line class="cls-2" x1="84.15" y1="459.43" x2="83.01" y2="455.9"/><line class="cls-2" x1="83.01" y1="455.9" x2="60.34" y2="447.09"/><line class="cls-2" x1="60.34" y1="447.09" x2="56.96" y2="448.55"/><line class="cls-2" x1="56.96" y1="448.55" x2="47.51" y2="472.25"/><line class="cls-2" x1="47.51" y1="472.25" x2="23.95" y2="462.85"/><line class="cls-2" x1="23.95" y1="462.85" x2="19.85" y2="465.08"/><line class="cls-2" x1="2.74" y1="443.94" x2=".12" y2="450.56"/><line class="cls-2" x1=".12" y1="450.56" x2="9.99" y2="454.47"/><line class="cls-2" x1="9.99" y1="454.47" x2="12.61" y2="447.85"/><line class="cls-2" x1="12.61" y1="447.85" x2="2.74" y2="443.94"/><line class="cls-2" x1="609.15" y1="24.15" x2="622.69" y2="27.81"/><line class="cls-2" x1="622.69" y1="27.81" x2="620.4" y2="36.26"/><line class="cls-2" x1="620.4" y1="36.26" x2="627.58" y2="38.2"/><line class="cls-2" x1="627.58" y1="38.2" x2="614.77" y2="85.53"/><line class="cls-2" x1="614.77" y1="85.53" x2="590.4" y2="78.94"/><line class="cls-2" x1="590.4" y1="78.94" x2="603.21" y2="31.6"/><line class="cls-2" x1="603.21" y1="31.6" x2="606.87" y2="32.59"/><line class="cls-2" x1="606.87" y1="32.59" x2="609.15" y2="24.15"/><line class="cls-2" x1="579.89" y1="117.74" x2="577.2" y2="128.38"/><line class="cls-2" x1="577.2" y1="128.38" x2="579.57" y2="128.94"/><line class="cls-2" x1="579.57" y1="128.94" x2="577.14" y2="139.3"/><line class="cls-2" x1="577.14" y1="139.3" x2="575.03" y2="138.8"/><line class="cls-2" x1="575.03" y1="138.8" x2="569.38" y2="164.27"/><line class="cls-2" x1="569.38" y1="164.27" x2="555.2" y2="159.77"/><line class="cls-2" x1="555.2" y1="159.77" x2="556.2" y2="153.97"/><line class="cls-2" x1="556.2" y1="153.97" x2="558.5" y2="153.96"/><line class="cls-2" x1="558.5" y1="153.96" x2="566.93" y2="114.75"/><line class="cls-2" x1="566.93" y1="114.75" x2="579.89" y2="117.74"/><line class="cls-2" x1="575.87" y1="173.8" x2="572.79" y2="183.72"/><line class="cls-2" x1="572.79" y1="183.72" x2="582.52" y2="186.74"/><line class="cls-2" x1="582.52" y1="186.74" x2="585.59" y2="176.82"/><line class="cls-2" x1="585.59" y1="176.82" x2="575.87" y2="173.8"/><line class="cls-2" x1="565.33" y1="170.35" x2="561.63" y2="179.55"/><line class="cls-2" x1="561.63" y1="179.55" x2="558.44" y2="178.27"/><line class="cls-2" x1="558.44" y1="178.27" x2="562.13" y2="169.07"/><line class="cls-2" x1="562.13" y1="169.07" x2="565.33" y2="170.35"/><line class="cls-2" x1="557.46" y1="189.35" x2="553.53" y2="200.13"/><line class="cls-2" x1="553.53" y1="200.13" x2="558.13" y2="201.8"/><line class="cls-2" x1="558.13" y1="201.8" x2="562.06" y2="191.02"/><line class="cls-2" x1="562.06" y1="191.02" x2="557.46" y2="189.35"/><line class="cls-2" x1="609.82" y1="186.4" x2="624.88" y2="191.86"/><line class="cls-2" x1="624.88" y1="191.86" x2="627.53" y2="184.58"/><line class="cls-2" x1="627.53" y1="184.58" x2="612.45" y2="179.1"/><line class="cls-2" x1="612.45" y1="179.1" x2="609.82" y2="186.4"/><line class="cls-2" x1="472.82" y1="598.22" x2="540.43" y2="577.86"/><line class="cls-2" x1="540.43" y1="577.86" x2="551.02" y2="613.09"/><line class="cls-2" x1="551.02" y1="613.09" x2="483.41" y2="633.43"/><line class="cls-2" x1="483.41" y1="633.43" x2="472.82" y2="598.22"/><line class="cls-2" x1="440.63" y1="647.9" x2="455.15" y2="643.33"/><line class="cls-2" x1="455.15" y1="643.33" x2="459.26" y2="656.36"/><line class="cls-2" x1="459.26" y1="656.36" x2="444.75" y2="660.93"/><line class="cls-2" x1="444.75" y1="660.93" x2="440.63" y2="647.9"/><line class="cls-2" x1="501.9" y1="635.06" x2="533.66" y2="625.25"/><line class="cls-2" x1="533.66" y1="625.25" x2="535.08" y2="629.85"/><line class="cls-2" x1="535.08" y1="629.85" x2="503.32" y2="639.66"/><line class="cls-2" x1="503.32" y1="639.66" x2="501.9" y2="635.06"/><line class="cls-2" x1="534.2" y1="626.98" x2="555.06" y2="620.54"/><line class="cls-2" x1="555.06" y1="620.54" x2="556.57" y2="625.42"/><line class="cls-2" x1="556.57" y1="625.42" x2="535.7" y2="631.86"/><line class="cls-2" x1="535.7" y1="631.86" x2="534.2" y2="626.98"/><line class="cls-2" x1="488.35" y1="694.48" x2="523.47" y2="682.96"/><line class="cls-2" x1="523.47" y1="682.96" x2="530.65" y2="704.84"/><line class="cls-2" x1="530.65" y1="704.84" x2="495.53" y2="716.36"/><line class="cls-2" x1="495.53" y1="716.36" x2="488.35" y2="694.48"/><line class="cls-2" x1="630.09" y1="655.67" x2="646.87" y2="661.34"/><line class="cls-2" x1="646.87" y1="661.34" x2="649.91" y2="652.3"/><line class="cls-2" x1="649.91" y1="652.3" x2="633.14" y2="646.65"/><line class="cls-2" x1="633.14" y1="646.65" x2="630.09" y2="655.67"/><line class="cls-2" x1="433.12" y1="672.63" x2="452.68" y2="666.74"/><line class="cls-2" x1="452.68" y1="666.74" x2="452.84" y2="683.62"/><line class="cls-2" x1="452.84" y1="683.62" x2="432.59" y2="683.83"/><line class="cls-2" x1="432.59" y1="683.83" x2="433.12" y2="672.63"/><line class="cls-2" x1="417" y1="700.18" x2="418" y2="727.53"/><line class="cls-2" x1="418" y1="727.53" x2="430.09" y2="727.09"/><line class="cls-2" x1="430.09" y1="727.09" x2="429.22" y2="703.36"/><line class="cls-2" x1="429.22" y1="703.36" x2="425.95" y2="703.38"/><line class="cls-2" x1="425.95" y1="703.38" x2="425.9" y2="699.86"/><line class="cls-2" x1="425.9" y1="699.86" x2="417" y2="700.18"/><line class="cls-2" x1="525.03" y1="736.72" x2="535.02" y2="769.43"/><line class="cls-2" x1="535.02" y1="769.43" x2="538.26" y2="771.46"/><line class="cls-2" x1="538.26" y1="771.46" x2="544.84" y2="770.08"/><line class="cls-2" x1="544.84" y1="770.08" x2="546.52" y2="765.92"/><line class="cls-2" x1="546.52" y1="765.92" x2="545.16" y2="760.37"/><line class="cls-2" x1="545.16" y1="760.37" x2="556.26" y2="757.66"/><line class="cls-2" x1="556.26" y1="757.66" x2="552.32" y2="741.65"/><line class="cls-2" x1="552.32" y1="741.65" x2="555.66" y2="740.83"/><line class="cls-2" x1="555.66" y1="740.83" x2="552.59" y2="728.29"/><line class="cls-2" x1="552.59" y1="728.29" x2="525.03" y2="736.72"/><line class="cls-2" x1="516.29" y1="449.27" x2="541.68" y2="453.9"/><line class="cls-2" x1="541.68" y1="453.9" x2="543.38" y2="444.59"/><line class="cls-2" x1="543.38" y1="444.59" x2="521.81" y2="439.96"/><line class="cls-2" x1="521.81" y1="439.96" x2="517.74" y2="441.4"/><line class="cls-2" x1="517.74" y1="441.4" x2="516.29" y2="449.27"/><line class="cls-2" x1="526.01" y1="407.4" x2="544.63" y2="407.21"/><line class="cls-2" x1="544.63" y1="407.21" x2="544.65" y2="410.87"/><line class="cls-2" x1="544.65" y1="410.87" x2="563.38" y2="410.68"/><line class="cls-2" x1="563.38" y1="410.68" x2="563.51" y2="424.53"/><line class="cls-2" x1="563.51" y1="424.53" x2="542.14" y2="423.81"/><line class="cls-2" x1="542.14" y1="423.81" x2="542.07" y2="417.21"/><line class="cls-2" x1="542.07" y1="417.21" x2="526.1" y2="417.37"/><line class="cls-2" x1="526.1" y1="417.37" x2="526.01" y2="407.4"/></g></g></svg>